999
dxfrw 0.5.10
0
SECTION
2
HEADER
9
$ACADVER
1
AC1021
9
$HANDSEED
5
20000
9
$DWGCODEPAGE
3
ANSI_1252
9
$INSBASE
10
0
20
0
30
0
9
$EXTMIN
10
-37.3254147028
20
-65
30
0
9
$EXTMAX
10
337
20
55.6192899163
30
0
9
$LIMMIN
10
0
20
0
9
$LIMMAX
10
420
20
297
9
$ORTHOMODE
70
0
9
$LTSCALE
40
1
9
$TEXTSTYLE
7
Standard
9
$DIMASZ
40
3.302
9
$DIMSCALE
40
1
9
$DIMEXO
40
1
9
$DIMEXE
40
1
9
$DIMTXT
40
3.5
9
$DIMTSZ
40
0
9
$DIMAUNIT
70
0
9
$DIMADEC
70
2
9
$DIMLUNIT
70
2
9
$DIMSTYLE
2
ISO-25
9
$DIMGAP
40
1.524
9
$DIMTIH
70
1
9
$LUNITS
70
2
9
$LUPREC
70
2
9
$AUNITS
70
0
9
$AUPREC
70
2
9
$SPLINESEGS
70
8
9
$GRIDMODE
70
0
9
$SNAPSTYLE
70
0
9
$PINSBASE
10
0
20
0
30
0
9
$PLIMMIN
10
0
20
0
9
$PLIMMAX
10
420
20
297
9
$INSUNITS
70
4
9
$PSVPSCALE
40
0
0
ENDSEC
0
SECTION
2
CLASSES
0
ENDSEC
0
SECTION
2
TABLES
0
TABLE
2
VPORT
5
8
330
0
100
AcDbSymbolTable
70
1
0
VPORT
5
31
330
2
100
AcDbSymbolTableRecord
100
AcDbViewportTableRecord
2
*ACTIVE
70
0
10
0
20
0
11
1
21
1
12
144.121503389
22
33.2805037179
13
0
23
0
14
10
24
10
15
10
25
10
16
0
26
0
36
1
17
0
27
0
37
0
40
70.9325990259
41
2.20477137177
42
50
43
0
44
0
50
0
51
0
71
0
72
100
73
1
74
3
75
0
76
0
77
0
78
0
281
0
65
1
110
0
120
0
130
0
111
1
121
0
131
0
112
0
122
1
132
0
79
0
146
0
348
10020
60
7
61
5
292
1
282
1
141
0
142
0
63
250
421
3358443
0
ENDTAB
0
TABLE
2
LTYPE
5
5
330
0
100
AcDbSymbolTable
70
4
0
LTYPE
5
14
330
5
100
AcDbSymbolTableRecord
100
AcDbLinetypeTableRecord
2
ByBlock
70
0
3

72
65
73
0
40
0
0
LTYPE
5
15
330
5
100
AcDbSymbolTableRecord
100
AcDbLinetypeTableRecord
2
ByLayer
70
0
3

72
65
73
0
40
0
0
LTYPE
5
16
330
5
100
AcDbSymbolTableRecord
100
AcDbLinetypeTableRecord
2
Continuous
70
0
3
Solid line
72
65
73
0
40
0
0
LTYPE
5
32
330
5
100
AcDbSymbolTableRecord
100
AcDbLinetypeTableRecord
2
DOT
70
0
3
Dot . . . . . . . . . . . . . . . . . . . . . .
72
65
73
2
40
6.35
49
0
74
0
49
-6.35
74
0
0
LTYPE
5
33
330
5
100
AcDbSymbolTableRecord
100
AcDbLinetypeTableRecord
2
DOT2
70
0
3
Dot (.5x) .....................................
72
65
73
2
40
3.175
49
0
74
0
49
-3.175
74
0
0
LTYPE
5
34
330
5
100
AcDbSymbolTableRecord
100
AcDbLinetypeTableRecord
2
DOTX2
70
0
3
Dot (2x) .  .  .  .  .  .  .  .  .  .  .  .  .
72
65
73
2
40
12.7
49
0
74
0
49
-12.7
74
0
0
LTYPE
5
35
330
5
100
AcDbSymbolTableRecord
100
AcDbLinetypeTableRecord
2
DASHED
70
0
3
Dot . . . . . . . . . . . . . . . . . . . . . .
72
65
73
2
40
19.05
49
12.7
74
0
49
-6.35
74
0
0
LTYPE
5
36
330
5
100
AcDbSymbolTableRecord
100
AcDbLinetypeTableRecord
2
DASHED2
70
0
3
Dashed (.5x) _ _ _ _ _ _ _ _ _ _ _ _ _ _ _ _ _
72
65
73
2
40
9.525
49
6.35
74
0
49
-3.175
74
0
0
LTYPE
5
37
330
5
100
AcDbSymbolTableRecord
100
AcDbLinetypeTableRecord
2
DASHEDX2
70
0
3
Dashed (2x) ____  ____  ____  ____  ____  ___
72
65
73
2
40
38.1
49
25.4
74
0
49
-12.7
74
0
0
LTYPE
5
38
330
5
100
AcDbSymbolTableRecord
100
AcDbLinetypeTableRecord
2
DASHDOT
70
0
3
Dash dot __ . __ . __ . __ . __ . __ . __ . __
72
65
73
4
40
25.4
49
12.7
74
0
49
-6.35
74
0
49
0
74
0
49
-6.35
74
0
0
LTYPE
5
39
330
5
100
AcDbSymbolTableRecord
100
AcDbLinetypeTableRecord
2
DASHDOT2
70
0
3
Dash dot (.5x) _._._._._._._._._._._._._._._.
72
65
73
4
40
12.7
49
6.35
74
0
49
-3.175
74
0
49
0
74
0
49
-3.175
74
0
0
LTYPE
5
3A
330
5
100
AcDbSymbolTableRecord
100
AcDbLinetypeTableRecord
2
DASHDOTX2
70
0
3
Dash dot (2x) ____  .  ____  .  ____  .  ___
72
65
73
4
40
50.8
49
25.4
74
0
49
-12.7
74
0
49
0
74
0
49
-12.7
74
0
0
LTYPE
5
3B
330
5
100
AcDbSymbolTableRecord
100
AcDbLinetypeTableRecord
2
DIVIDE
70
0
3
Divide ____ . . ____ . . ____ . . ____ . . ____
72
65
73
6
40
31.75
49
12.7
74
0
49
-6.35
74
0
49
0
74
0
49
-6.35
74
0
49
0
74
0
49
-6.35
74
0
0
LTYPE
5
3C
330
5
100
AcDbSymbolTableRecord
100
AcDbLinetypeTableRecord
2
DIVIDE2
70
0
3
Divide (.5x) __..__..__..__..__..__..__..__.._
72
65
73
6
40
15.875
49
6.35
74
0
49
-3.175
74
0
49
0
74
0
49
-3.175
74
0
49
0
74
0
49
-3.175
74
0
0
LTYPE
5
3D
330
5
100
AcDbSymbolTableRecord
100
AcDbLinetypeTableRecord
2
DIVIDEX2
70
0
3
Divide (2x) ________  .  .  ________  .  .  _
72
65
73
6
40
63.5
49
25.4
74
0
49
-12.7
74
0
49
0
74
0
49
-12.7
74
0
49
0
74
0
49
-12.7
74
0
0
LTYPE
5
3E
330
5
100
AcDbSymbolTableRecord
100
AcDbLinetypeTableRecord
2
BORDER
70
0
3
Border __ __ . __ __ . __ __ . __ __ . __ __ .
72
65
73
6
40
44.45
49
12.7
74
0
49
-6.35
74
0
49
12.7
74
0
49
-6.35
74
0
49
0
74
0
49
-6.35
74
0
0
LTYPE
5
3F
330
5
100
AcDbSymbolTableRecord
100
AcDbLinetypeTableRecord
2
BORDER2
70
0
3
Border (.5x) __.__.__.__.__.__.__.__.__.__.__.
72
65
73
6
40
22.225
49
6.35
74
0
49
-3.175
74
0
49
6.35
74
0
49
-3.175
74
0
49
0
74
0
49
-3.175
74
0
0
LTYPE
5
40
330
5
100
AcDbSymbolTableRecord
100
AcDbLinetypeTableRecord
2
BORDERX2
70
0
3
Border (2x) ____  ____  .  ____  ____  .  ___
72
65
73
6
40
88.9
49
25.4
74
0
49
-12.7
74
0
49
25.4
74
0
49
-12.7
74
0
49
0
74
0
49
-12.7
74
0
0
LTYPE
5
41
330
5
100
AcDbSymbolTableRecord
100
AcDbLinetypeTableRecord
2
CENTER
70
0
3
Center ____ _ ____ _ ____ _ ____ _ ____ _ ____
72
65
73
4
40
50.8
49
31.75
74
0
49
-6.35
74
0
49
6.35
74
0
49
-6.35
74
0
0
LTYPE
5
42
330
5
100
AcDbSymbolTableRecord
100
AcDbLinetypeTableRecord
2
CENTER2
70
0
3
Center (.5x) ___ _ ___ _ ___ _ ___ _ ___ _ ___
72
65
73
4
40
28.575
49
19.05
74
0
49
-3.175
74
0
49
3.175
74
0
49
-3.175
74
0
0
LTYPE
5
43
330
5
100
AcDbSymbolTableRecord
100
AcDbLinetypeTableRecord
2
CENTERX2
70
0
3
Center (2x) ________  __  ________  __  _____
72
65
73
4
40
101.6
49
63.5
74
0
49
-12.7
74
0
49
12.7
74
0
49
-12.7
74
0
0
ENDTAB
0
TABLE
2
LAYER
5
2
330
0
100
AcDbSymbolTable
70
1
0
LAYER
5
10
330
2
100
AcDbSymbolTableRecord
100
AcDbLayerTableRecord
2
0
70
0
62
7
6
CONTINUOUS
370
-3
390
F
0
ENDTAB
0
TABLE
2
STYLE
5
3
330
0
100
AcDbSymbolTable
70
3
0
STYLE
5
44
330
2
100
AcDbSymbolTableRecord
100
AcDbTextStyleTableRecord
2
Standard
70
0
40
0
41
1
50
0
71
0
42
1
3
txt
4

0
ENDTAB
0
TABLE
2
VIEW
5
6
330
0
100
AcDbSymbolTable
70
0
0
ENDTAB
0
TABLE
2
UCS
5
7
330
0
100
AcDbSymbolTable
70
0
0
ENDTAB
0
TABLE
2
APPID
5
9
330
0
100
AcDbSymbolTable
70
1
0
APPID
5
12
330
9
100
AcDbSymbolTableRecord
100
AcDbRegAppTableRecord
2
ACAD
70
0
0
ENDTAB
0
TABLE
2
DIMSTYLE
5
A
330
0
100
AcDbSymbolTable
70
1
100
AcDbDimStyleTable
71
1
0
DIMSTYLE
105
45
330
A
100
AcDbSymbolTableRecord
100
AcDbDimStyleTableRecord
2
Standard
70
0
40
1
41
3.302
42
1
43
0.38
44
1
45
0
46
0
47
0
48
0
140
3.5
141
0.09
142
0
143
25.4
144
1
145
0
146
1
147
1.524
148
0
71
0
72
0
73
0
74
1
75
0
76
0
77
0
78
0
79
0
170
0
171
2
172
0
173
0
174
0
175
0
176
0
177
0
178
0
179
0
271
4
272
4
273
2
274
2
275
0
276
0
277
2
278
46
279
0
280
0
281
0
282
0
283
1
284
0
285
0
286
0
288
0
289
3
340
Standard
341

371
-2
372
-2
0
ENDTAB
0
TABLE
2
BLOCK_RECORD
5
1
330
0
100
AcDbSymbolTable
70
2
0
BLOCK_RECORD
5
1F
330
1
100
AcDbSymbolTableRecord
100
AcDbBlockTableRecord
2
*Model_Space
70
0
280
1
281
0
0
BLOCK_RECORD
5
1E
330
1
100
AcDbSymbolTableRecord
100
AcDbBlockTableRecord
2
*Paper_Space
70
0
280
1
281
0
0
ENDTAB
0
ENDSEC
0
SECTION
2
BLOCKS
0
BLOCK
5
20
330
1F
100
AcDbEntity
8
0
100
AcDbBlockBegin
2
*Model_Space
70
0
10
0
20
0
30
0
3
*Model_Space
1

0
ENDBLK
5
21
330
1F
100
AcDbEntity
8
0
100
AcDbBlockEnd
0
BLOCK
5
1C
330
1B
100
AcDbEntity
8
0
100
AcDbBlockBegin
2
*Paper_Space
70
0
10
0
20
0
30
0
3
*Paper_Space
1

0
ENDBLK
5
1D
330
1F
100
AcDbEntity
8
0
100
AcDbBlockEnd
0
ENDSEC
0
SECTION
2
ENTITIES
0
CIRCLE
5
46
100
AcDbEntity
8
0
6
CONTINUOUS
62
7
370
15
100
AcDbCircle
10
78.5
20
27.7514259508
40
2
0
CIRCLE
5
47
100
AcDbEntity
8
0
6
CONTINUOUS
62
7
370
15
100
AcDbCircle
10
14
20
-27.55
40
1.55
0
CIRCLE
5
48
100
AcDbEntity
8
0
6
CONTINUOUS
62
7
370
15
100
AcDbCircle
10
84.5
20
12.5
40
1.55
0
CIRCLE
5
49
100
AcDbEntity
8
0
6
CONTINUOUS
62
7
370
15
100
AcDbCircle
10
-3.05
20
-41.5
40
1.55
0
CIRCLE
5
4A
100
AcDbEntity
8
0
6
CONTINUOUS
62
7
370
15
100
AcDbCircle
10
-3.05
20
37
40
1.55
0
CIRCLE
5
4B
100
AcDbEntity
8
0
6
CONTINUOUS
62
7
370
15
100
AcDbCircle
10
22.05
20
20
40
1.55
0
CIRCLE
5
4C
100
AcDbEntity
8
0
6
CONTINUOUS
62
7
370
15
100
AcDbCircle
10
22.05
20
-58.5
40
1.55
0
CIRCLE
5
4D
100
AcDbEntity
8
0
6
CONTINUOUS
62
7
370
15
100
AcDbCircle
10
72.5
20
20.1
40
1.55
0
CIRCLE
5
4E
100
AcDbEntity
8
0
6
CONTINUOUS
62
7
370
15
100
AcDbCircle
10
-10.5
20
-27.55
40
1.55
0
CIRCLE
5
4F
100
AcDbEntity
8
0
6
CONTINUOUS
62
7
370
15
100
AcDbCircle
10
-33.3631294904
20
0
40
1.5
0
LINE
5
50
100
AcDbEntity
8
0
6
CONTINUOUS
62
7
370
15
100
AcDbLine
10
66.4276803494
20
18.1938976564
11
61.4276803494
21
18.1938976564
0
LINE
5
51
100
AcDbEntity
8
0
6
CONTINUOUS
62
7
370
15
100
AcDbLine
10
61.4276803494
20
18.1938976564
11
61.4276803494
21
17
0
LINE
5
52
100
AcDbEntity
8
0
6
CONTINUOUS
62
7
370
15
100
AcDbLine
10
61.4276803494
20
17
11
58.4276803494
21
17
0
LINE
5
53
100
AcDbEntity
8
0
6
CONTINUOUS
62
7
370
15
100
AcDbLine
10
58.4276803494
20
17
11
58.4276803494
21
8
0
LINE
5
54
100
AcDbEntity
8
0
6
CONTINUOUS
62
7
370
15
100
AcDbLine
10
58.4276803494
20
8
11
61.4276803494
21
8
0
LINE
5
55
100
AcDbEntity
8
0
6
CONTINUOUS
62
7
370
15
100
AcDbLine
10
61.4276803494
20
8
11
61.4276803494
21
6.8061023436
0
LINE
5
56
100
AcDbEntity
8
0
6
CONTINUOUS
62
7
370
15
100
AcDbLine
10
61.4276803494
20
6.8061023436
11
66.4276803494
21
6.8061023436
0
LINE
5
57
100
AcDbEntity
8
0
6
CONTINUOUS
62
7
370
15
100
AcDbLine
10
66.4276803494
20
6.8061023436
11
66.4276803494
21
8
0
LINE
5
58
100
AcDbEntity
8
0
6
CONTINUOUS
62
7
370
15
100
AcDbLine
10
66.4276803494
20
8
11
76
21
8
0
LINE
5
59
100
AcDbEntity
8
0
6
CONTINUOUS
62
7
370
15
100
AcDbLine
10
76
20
8
11
76
21
17
0
LINE
5
5A
100
AcDbEntity
8
0
6
CONTINUOUS
62
7
370
15
100
AcDbLine
10
76
20
17
11
66.4276803494
21
17
0
LINE
5
5B
100
AcDbEntity
8
0
6
CONTINUOUS
62
7
370
15
100
AcDbLine
10
66.4276803494
20
17
11
66.4276803494
21
18.1938976564
0
LINE
5
5C
100
AcDbEntity
8
0
6
CONTINUOUS
62
7
370
15
100
AcDbLine
10
17.5
20
15
11
17.5
21
10
0
LINE
5
5D
100
AcDbEntity
8
0
6
CONTINUOUS
62
7
370
15
100
AcDbLine
10
17.5
20
10
11
27.5
21
10
0
LINE
5
5E
100
AcDbEntity
8
0
6
CONTINUOUS
62
7
370
15
100
AcDbLine
10
27.5
20
10
11
27.5
21
15
0
LINE
5
5F
100
AcDbEntity
8
0
6
CONTINUOUS
62
7
370
15
100
AcDbLine
10
27.5
20
15
11
17.5
21
15
0
LINE
5
60
100
AcDbEntity
8
0
6
CONTINUOUS
62
7
370
15
100
AcDbLine
10
157
20
10
11
157
21
15
0
LINE
5
61
100
AcDbEntity
8
0
6
CONTINUOUS
62
7
370
15
100
AcDbLine
10
157
20
15
11
147
21
15
0
LINE
5
62
100
AcDbEntity
8
0
6
CONTINUOUS
62
7
370
15
100
AcDbLine
10
147
20
15
11
147
21
10
0
LINE
5
63
100
AcDbEntity
8
0
6
CONTINUOUS
62
7
370
15
100
AcDbLine
10
147
20
10
11
157
21
10
0
LINE
5
64
100
AcDbEntity
8
0
6
CONTINUOUS
62
7
370
15
100
AcDbLine
10
317
20
10
11
317
21
15
0
LINE
5
65
100
AcDbEntity
8
0
6
CONTINUOUS
62
7
370
15
100
AcDbLine
10
317
20
15
11
307
21
15
0
LINE
5
66
100
AcDbEntity
8
0
6
CONTINUOUS
62
7
370
15
100
AcDbLine
10
307
20
15
11
307
21
10
0
LINE
5
67
100
AcDbEntity
8
0
6
CONTINUOUS
62
7
370
15
100
AcDbLine
10
307
20
10
11
317
21
10
0
LINE
5
68
100
AcDbEntity
8
0
6
CONTINUOUS
62
7
370
15
100
AcDbLine
10
21.9203102168
20
1.5
11
16.9203102168
21
1.5
0
LINE
5
69
100
AcDbEntity
8
0
6
CONTINUOUS
62
7
370
15
100
AcDbLine
10
16.9203102168
20
-1.5
11
21.9203102168
21
-1.5
0
LINE
5
6A
100
AcDbEntity
8
0
6
CONTINUOUS
62
7
370
15
100
AcDbLine
10
0
20
8
11
-5
21
8
0
LINE
5
6B
100
AcDbEntity
8
0
6
CONTINUOUS
62
7
370
15
100
AcDbLine
10
-5
20
-8
11
0
21
-8
0
LINE
5
6C
100
AcDbEntity
8
0
6
CONTINUOUS
62
7
370
15
100
AcDbLine
10
-21.9203102168
20
1.5
11
-26.9203102168
21
1.5
0
LINE
5
6D
100
AcDbEntity
8
0
6
CONTINUOUS
62
7
370
15
100
AcDbLine
10
-26.9203102168
20
-1.5
11
-21.9203102168
21
-1.5
0
LINE
5
6E
100
AcDbEntity
8
0
6
CONTINUOUS
62
7
370
15
100
AcDbLine
10
-23.275
20
22.1109207094
11
-23.275
21
26.725
0
LINE
5
6F
100
AcDbEntity
8
0
6
CONTINUOUS
62
7
370
15
100
AcDbLine
10
-19.1
20
29.6928932188
11
-19.1
21
27.9859207094
0
LINE
5
70
100
AcDbEntity
8
0
6
CONTINUOUS
62
7
370
15
100
AcDbLine
10
-17.4
20
27.9859207094
11
-17.4
21
32.6
0
LINE
5
71
100
AcDbEntity
8
0
6
CONTINUOUS
62
7
370
15
100
AcDbLine
10
-13.125
20
35.6678932188
11
-13.125
21
33.9240381057
0
LINE
5
72
100
AcDbEntity
8
0
6
CONTINUOUS
62
7
370
15
100
AcDbLine
10
-11.625
20
33.9240381057
11
-11.625
21
38.375
0
LINE
5
73
100
AcDbEntity
8
0
6
CONTINUOUS
62
7
370
15
100
AcDbLine
10
-6.5
20
43.5
11
-11.625
21
38.375
0
LINE
5
74
100
AcDbEntity
8
0
6
CONTINUOUS
62
7
370
15
100
AcDbLine
10
76.5
20
43.5
11
-6.5
21
43.5
0
LINE
5
75
100
AcDbEntity
8
0
6
CONTINUOUS
62
7
370
15
100
AcDbLine
10
76.5
20
39.5
11
76.5
21
43.5
0
LINE
5
76
100
AcDbEntity
8
0
6
CONTINUOUS
62
7
370
15
100
AcDbLine
10
80.5
20
39.5
11
76.5
21
39.5
0
LINE
5
77
100
AcDbEntity
8
0
6
CONTINUOUS
62
7
370
15
100
AcDbLine
10
80.5
20
43.5
11
80.5
21
39.5
0
LINE
5
78
100
AcDbEntity
8
0
6
CONTINUOUS
62
7
370
15
100
AcDbLine
10
119
20
43.5
11
80.5
21
43.5
0
LINE
5
79
100
AcDbEntity
8
0
6
CONTINUOUS
62
7
370
15
100
AcDbLine
10
119
20
39.5
11
119
21
43.5
0
LINE
5
7A
100
AcDbEntity
8
0
6
CONTINUOUS
62
7
370
15
100
AcDbLine
10
133.5
20
39.5
11
119
21
39.5
0
LINE
5
7B
100
AcDbEntity
8
0
6
CONTINUOUS
62
7
370
15
100
AcDbLine
10
133.3
20
43.5
11
133.5
21
39.5
0
LINE
5
7C
100
AcDbEntity
8
0
6
CONTINUOUS
62
7
370
15
100
AcDbLine
10
177.75
20
43.5
11
133.3
21
43.5
0
LINE
5
7D
100
AcDbEntity
8
0
6
CONTINUOUS
62
7
370
15
100
AcDbLine
10
177.75
20
39.5
11
177.75
21
43.5
0
LINE
5
7E
100
AcDbEntity
8
0
6
CONTINUOUS
62
7
370
15
100
AcDbLine
10
192.25
20
39.5
11
177.75
21
39.5
0
LINE
5
7F
100
AcDbEntity
8
0
6
CONTINUOUS
62
7
370
15
100
AcDbLine
10
192.05
20
43.5
11
192.25
21
39.5
0
LINE
5
80
100
AcDbEntity
8
0
6
CONTINUOUS
62
7
370
15
100
AcDbLine
10
236.5
20
43.5
11
192.05
21
43.5
0
LINE
5
81
100
AcDbEntity
8
0
6
CONTINUOUS
62
7
370
15
100
AcDbLine
10
236.5
20
39.5
11
236.5
21
43.5
0
LINE
5
82
100
AcDbEntity
8
0
6
CONTINUOUS
62
7
370
15
100
AcDbLine
10
251
20
39.5
11
236.5
21
39.5
0
LINE
5
83
100
AcDbEntity
8
0
6
CONTINUOUS
62
7
370
15
100
AcDbLine
10
250.8
20
43.5
11
251
21
39.5
0
LINE
5
84
100
AcDbEntity
8
0
6
CONTINUOUS
62
7
370
15
100
AcDbLine
10
310
20
43.5
11
250.8
21
43.5
0
LINE
5
85
100
AcDbEntity
8
0
6
CONTINUOUS
62
7
370
15
100
AcDbLine
10
337
20
6.7
11
337
21
16.5
0
LINE
5
86
100
AcDbEntity
8
0
6
CONTINUOUS
62
7
370
15
100
AcDbLine
10
333
20
6.7
11
337
21
6.7
0
LINE
5
87
100
AcDbEntity
8
0
6
CONTINUOUS
62
7
370
15
100
AcDbLine
10
333
20
3.7
11
333
21
6.7
0
LINE
5
88
100
AcDbEntity
8
0
6
CONTINUOUS
62
7
370
15
100
AcDbLine
10
327
20
3.7
11
333
21
3.7
0
LINE
5
89
100
AcDbEntity
8
0
6
CONTINUOUS
62
7
370
15
100
AcDbLine
10
333
20
-2.3
11
327
21
-2.3
0
LINE
5
8A
100
AcDbEntity
8
0
6
CONTINUOUS
62
7
370
15
100
AcDbLine
10
333
20
-20
11
333
21
-2.3
0
LINE
5
8B
100
AcDbEntity
8
0
6
CONTINUOUS
62
7
370
15
100
AcDbLine
10
316.5
20
-20
11
333
21
-20
0
LINE
5
8C
100
AcDbEntity
8
0
6
CONTINUOUS
62
7
370
15
100
AcDbLine
10
316.5
20
-10.6
11
316.5
21
-20
0
LINE
5
8D
100
AcDbEntity
8
0
6
CONTINUOUS
62
7
370
15
100
AcDbLine
10
25.5
20
-4.6
11
310.5
21
-4.6
0
LINE
5
8E
100
AcDbEntity
8
0
6
CONTINUOUS
62
7
370
15
100
AcDbLine
10
18.5
20
-32
11
18.5
21
-11.6
0
LINE
5
8F
100
AcDbEntity
8
0
6
CONTINUOUS
62
7
370
15
100
AcDbLine
10
24.5
20
-35
11
21.5
21
-35
0
LINE
5
90
100
AcDbEntity
8
0
6
CONTINUOUS
62
7
370
15
100
AcDbLine
10
24.5
20
-65
11
24.5
21
-35
0
LINE
5
91
100
AcDbEntity
8
0
6
CONTINUOUS
62
7
370
15
100
AcDbLine
10
-6.5
20
-65
11
24.5
21
-65
0
LINE
5
92
100
AcDbEntity
8
0
6
CONTINUOUS
62
7
370
15
100
AcDbLine
10
-6.5
20
-32
11
-6.5
21
-65
0
LINE
5
93
100
AcDbEntity
8
0
6
CONTINUOUS
62
7
370
15
100
AcDbLine
10
-14
20
-32
11
-6.5
21
-32
0
LINE
5
94
100
AcDbEntity
8
0
6
CONTINUOUS
62
7
370
15
100
AcDbLine
10
-14
20
-21.3553390593
11
-14
21
-32
0
LINE
5
95
100
AcDbEntity
8
0
6
CONTINUOUS
62
7
370
15
100
AcDbLine
10
-30
20
-5.3553390593
11
-14
21
-21.3553390593
0
LINE
5
96
100
AcDbEntity
8
0
6
CONTINUOUS
62
7
370
15
100
AcDbLine
10
-30
20
20
11
-30
21
7.3254147028
0
LINE
5
97
100
AcDbEntity
8
0
6
CONTINUOUS
62
7
370
15
100
AcDbLine
10
-24.975
20
23.8178932188
11
-24.975
21
22.1109207094
0
LINE
5
98
100
AcDbEntity
8
0
6
CONTINUOUS
62
7
370
15
100
AcDbLine
10
-13.9785533906
20
36.0214466094
11
-17.4
21
32.6
0
LINE
5
99
100
AcDbEntity
8
0
6
CONTINUOUS
62
7
370
15
100
AcDbLine
10
-19.9535533906
20
30.0464466094
11
-23.275
21
26.725
0
LINE
5
9A
100
AcDbEntity
8
0
6
CONTINUOUS
62
7
370
15
100
AcDbLine
10
-25.8285533906
20
24.1714466094
11
-30
21
20
0
ARC
5
9B
100
AcDbEntity
8
0
6
CONTINUOUS
62
7
370
15
100
AcDbCircle
10
21.9203102168
20
0
40
1.5
100
AcDbArc
50
270
51
90
0
ARC
5
9C
100
AcDbEntity
8
0
6
CONTINUOUS
62
7
370
15
100
AcDbCircle
10
16.9203102168
20
0
40
1.5
100
AcDbArc
50
90
51
270
0
ARC
5
9D
100
AcDbEntity
8
0
6
CONTINUOUS
62
7
370
15
100
AcDbCircle
10
0
20
0
40
8
100
AcDbArc
50
270
51
90
0
ARC
5
9E
100
AcDbEntity
8
0
6
CONTINUOUS
62
7
370
15
100
AcDbCircle
10
-5
20
0
40
8
100
AcDbArc
50
90
51
270
0
ARC
5
9F
100
AcDbEntity
8
0
6
CONTINUOUS
62
7
370
15
100
AcDbCircle
10
-21.9203102168
20
0
40
1.5
100
AcDbArc
50
270
51
90
0
ARC
5
A0
100
AcDbEntity
8
0
6
CONTINUOUS
62
7
370
15
100
AcDbCircle
10
-26.9203102168
20
0
40
1.5
100
AcDbArc
50
90
51
270
0
ARC
5
A1
100
AcDbEntity
8
0
6
CONTINUOUS
62
7
370
15
100
AcDbCircle
10
-24.125
20
20.875
40
1.5
100
AcDbArc
50
124.518107841
51
55.4818921589
0
ARC
5
A2
100
AcDbEntity
8
0
6
CONTINUOUS
62
7
370
15
100
AcDbCircle
10
-19.6
20
29.6928932188
40
0.5
100
AcDbArc
50
0
51
135
0
ARC
5
A3
100
AcDbEntity
8
0
6
CONTINUOUS
62
7
370
15
100
AcDbCircle
10
-18.25
20
26.75
40
1.5
100
AcDbArc
50
124.518107841
51
55.4818921589
0
ARC
5
A4
100
AcDbEntity
8
0
6
CONTINUOUS
62
7
370
15
100
AcDbCircle
10
-13.625
20
35.6678932188
40
0.5
100
AcDbArc
50
360
51
135
0
ARC
5
A5
100
AcDbEntity
8
0
6
CONTINUOUS
62
7
370
15
100
AcDbCircle
10
-12.375
20
32.625
40
1.5
100
AcDbArc
50
120
51
60
0
ARC
5
A6
100
AcDbEntity
8
0
6
CONTINUOUS
62
7
370
15
100
AcDbCircle
10
310
20
16.5
40
27
100
AcDbArc
50
0
51
90
0
ARC
5
A7
100
AcDbEntity
8
0
6
CONTINUOUS
62
7
370
15
100
AcDbCircle
10
327
20
0.7
40
3
100
AcDbArc
50
90
51
270
0
ARC
5
A8
100
AcDbEntity
8
0
6
CONTINUOUS
62
7
370
15
100
AcDbCircle
10
310.5
20
-10.6
40
6
100
AcDbArc
50
0
51
90
0
ARC
5
A9
100
AcDbEntity
8
0
6
CONTINUOUS
62
7
370
15
100
AcDbCircle
10
25.5
20
-11.6
40
7
100
AcDbArc
50
90
51
180
0
ARC
5
AA
100
AcDbEntity
8
0
6
CONTINUOUS
62
7
370
15
100
AcDbCircle
10
21.5
20
-32
40
3
100
AcDbArc
50
180
51
270
0
ARC
5
AB
100
AcDbEntity
8
0
6
CONTINUOUS
62
7
370
15
100
AcDbCircle
10
-33.3631294904
20
-8.7184685497
40
4.75618333736
100
AcDbArc
50
45
51
90
0
ARC
5
AC
100
AcDbEntity
8
0
6
CONTINUOUS
62
7
370
15
100
AcDbCircle
10
-33.3631294904
20
0
40
3.96228521238
100
AcDbArc
50
90
51
270
0
ARC
5
AD
100
AcDbEntity
8
0
6
CONTINUOUS
62
7
370
15
100
AcDbCircle
10
-33.3631294904
20
7.3254147028
40
3.36312949042
100
AcDbArc
50
270
51
0
0
ARC
5
AE
100
AcDbEntity
8
0
6
CONTINUOUS
62
7
370
15
100
AcDbCircle
10
-25.475
20
23.8178932188
40
0.5
100
AcDbArc
50
0
51
135
0
DIMENSION
5
AF
100
AcDbEntity
8
0
6
ByLayer
62
256
370
-1
100
AcDbDimension
10
177.684045274
20
53.8692899163
30
0
11
148.281566353
21
53.8692899163
31
0
70
32
71
5
3
Standard
53
0
210
0
220
0
230
1
100
AcDbAlignedDimension
13
118.879087433
23
43.4338777335
33
0
14
177.684045274
24
43.4338777335
34
0
100
AcDbRotatedDimension
0
DIMENSION
5
B0
100
AcDbEntity
8
0
6
ByLayer
62
256
370
-1
100
AcDbDimension
10
177.75
20
50
30
0
11
207.125
21
50
31
0
70
32
71
5
3
Standard
53
0
210
0
220
0
230
1
100
AcDbAlignedDimension
13
236.5
23
43.5
33
0
14
177.75
24
43.5
34
0
100
AcDbRotatedDimension
0
ENDSEC
0
SECTION
2
OBJECTS
0
DICTIONARY
5
C
330
0
100
AcDbDictionary
281
1
3
ACAD_GROUP
350
D
0
DICTIONARY
5
D
330
C
100
AcDbDictionary
281
1
0
ENDSEC
0
EOF
