999
dxfrw 0.5.11
0
SECTION
2
HEADER
9
$ACADVER
1
AC1021
9
$HANDSEED
5
20000
9
$DWGCODEPAGE
3
ANSI_1252
9
$INSBASE
10
0
20
0
30
0
9
$EXTMIN
10
-43.2319268575
20
13.18105
30
0
9
$EXTMAX
10
108.36728925
20
222.1806075
30
0
9
$LIMMIN
10
0
20
0
9
$LIMMAX
10
420
20
297
9
$ORTHOMODE
70
0
9
$LTSCALE
40
1
9
$TEXTSTYLE
7
STANDARD
9
$CLAYER
8
0
9
$DIMASZ
40
3.302
9
$DIMLFAC
40
1
9
$DIMSCALE
40
1
9
$DIMEXO
40
1
9
$DIMEXE
40
1
9
$DIMTXT
40
3.5
9
$DIMTSZ
40
0
9
$DIMAUNIT
70
0
9
$DIMADEC
70
0
9
$DIMLUNIT
70
2
9
$DIMSTYLE
2
ISO-25
9
$DIMGAP
40
1.524
9
$DIMTIH
70
1
9
$LUNITS
70
2
9
$LUPREC
70
2
9
$AUNITS
70
0
9
$AUPREC
70
2
9
$SPLINESEGS
70
8
9
$GRIDMODE
70
0
9
$SNAPSTYLE
70
0
9
$PINSBASE
10
0
20
0
30
0
9
$PLIMMIN
10
0
20
0
9
$PLIMMAX
10
420
20
297
9
$INSUNITS
70
4
9
$PSVPSCALE
40
1
0
ENDSEC
0
SECTION
2
CLASSES
0
ENDSEC
0
SECTION
2
TABLES
0
TABLE
2
VPORT
5
8
330
0
100
AcDbSymbolTable
70
1
0
VPORT
5
31
330
2
100
AcDbSymbolTableRecord
100
AcDbViewportTableRecord
2
*ACTIVE
70
0
10
0
20
0
11
1
21
1
12
136.304059239
22
113.154004733
13
0
23
0
14
10
24
10
15
10
25
10
16
0
26
0
36
1
17
0
27
0
37
0
40
217.653783483
41
2.20477137177
42
50
43
0
44
0
50
0
51
0
71
0
72
100
73
1
74
3
75
0
76
0
77
0
78
0
281
0
65
1
110
0
120
0
130
0
111
1
121
0
131
0
112
0
122
1
132
0
79
0
146
0
348
10020
60
7
61
5
292
1
282
1
141
0
142
0
63
250
421
3358443
0
ENDTAB
0
TABLE
2
LTYPE
5
5
330
0
100
AcDbSymbolTable
70
4
0
LTYPE
5
14
330
5
100
AcDbSymbolTableRecord
100
AcDbLinetypeTableRecord
2
ByBlock
70
0
3

72
65
73
0
40
0
0
LTYPE
5
15
330
5
100
AcDbSymbolTableRecord
100
AcDbLinetypeTableRecord
2
ByLayer
70
0
3

72
65
73
0
40
0
0
LTYPE
5
16
330
5
100
AcDbSymbolTableRecord
100
AcDbLinetypeTableRecord
2
Continuous
70
0
3
Solid line
72
65
73
0
40
0
0
LTYPE
5
32
330
5
100
AcDbSymbolTableRecord
100
AcDbLinetypeTableRecord
2
DOT
70
0
3
Dot . . . . . . . . . . . . . . . . . . . . . .
72
65
73
2
40
6.35
49
0
74
0
49
-6.35
74
0
0
LTYPE
5
33
330
5
100
AcDbSymbolTableRecord
100
AcDbLinetypeTableRecord
2
DOT2
70
0
3
Dot (.5x) .....................................
72
65
73
2
40
3.175
49
0
74
0
49
-3.175
74
0
0
LTYPE
5
34
330
5
100
AcDbSymbolTableRecord
100
AcDbLinetypeTableRecord
2
DOTX2
70
0
3
Dot (2x) .  .  .  .  .  .  .  .  .  .  .  .  .
72
65
73
2
40
12.7
49
0
74
0
49
-12.7
74
0
0
LTYPE
5
35
330
5
100
AcDbSymbolTableRecord
100
AcDbLinetypeTableRecord
2
DASHED
70
0
3
Dot . . . . . . . . . . . . . . . . . . . . . .
72
65
73
2
40
19.05
49
12.7
74
0
49
-6.35
74
0
0
LTYPE
5
36
330
5
100
AcDbSymbolTableRecord
100
AcDbLinetypeTableRecord
2
DASHED2
70
0
3
Dashed (.5x) _ _ _ _ _ _ _ _ _ _ _ _ _ _ _ _ _
72
65
73
2
40
9.525
49
6.35
74
0
49
-3.175
74
0
0
LTYPE
5
37
330
5
100
AcDbSymbolTableRecord
100
AcDbLinetypeTableRecord
2
DASHEDX2
70
0
3
Dashed (2x) ____  ____  ____  ____  ____  ___
72
65
73
2
40
38.1
49
25.4
74
0
49
-12.7
74
0
0
LTYPE
5
38
330
5
100
AcDbSymbolTableRecord
100
AcDbLinetypeTableRecord
2
DASHDOT
70
0
3
Dash dot __ . __ . __ . __ . __ . __ . __ . __
72
65
73
4
40
25.4
49
12.7
74
0
49
-6.35
74
0
49
0
74
0
49
-6.35
74
0
0
LTYPE
5
39
330
5
100
AcDbSymbolTableRecord
100
AcDbLinetypeTableRecord
2
DASHDOT2
70
0
3
Dash dot (.5x) _._._._._._._._._._._._._._._.
72
65
73
4
40
12.7
49
6.35
74
0
49
-3.175
74
0
49
0
74
0
49
-3.175
74
0
0
LTYPE
5
3A
330
5
100
AcDbSymbolTableRecord
100
AcDbLinetypeTableRecord
2
DASHDOTX2
70
0
3
Dash dot (2x) ____  .  ____  .  ____  .  ___
72
65
73
4
40
50.8
49
25.4
74
0
49
-12.7
74
0
49
0
74
0
49
-12.7
74
0
0
LTYPE
5
3B
330
5
100
AcDbSymbolTableRecord
100
AcDbLinetypeTableRecord
2
DIVIDE
70
0
3
Divide ____ . . ____ . . ____ . . ____ . . ____
72
65
73
6
40
31.75
49
12.7
74
0
49
-6.35
74
0
49
0
74
0
49
-6.35
74
0
49
0
74
0
49
-6.35
74
0
0
LTYPE
5
3C
330
5
100
AcDbSymbolTableRecord
100
AcDbLinetypeTableRecord
2
DIVIDE2
70
0
3
Divide (.5x) __..__..__..__..__..__..__..__.._
72
65
73
6
40
15.875
49
6.35
74
0
49
-3.175
74
0
49
0
74
0
49
-3.175
74
0
49
0
74
0
49
-3.175
74
0
0
LTYPE
5
3D
330
5
100
AcDbSymbolTableRecord
100
AcDbLinetypeTableRecord
2
DIVIDEX2
70
0
3
Divide (2x) ________  .  .  ________  .  .  _
72
65
73
6
40
63.5
49
25.4
74
0
49
-12.7
74
0
49
0
74
0
49
-12.7
74
0
49
0
74
0
49
-12.7
74
0
0
LTYPE
5
3E
330
5
100
AcDbSymbolTableRecord
100
AcDbLinetypeTableRecord
2
BORDER
70
0
3
Border __ __ . __ __ . __ __ . __ __ . __ __ .
72
65
73
6
40
44.45
49
12.7
74
0
49
-6.35
74
0
49
12.7
74
0
49
-6.35
74
0
49
0
74
0
49
-6.35
74
0
0
LTYPE
5
3F
330
5
100
AcDbSymbolTableRecord
100
AcDbLinetypeTableRecord
2
BORDER2
70
0
3
Border (.5x) __.__.__.__.__.__.__.__.__.__.__.
72
65
73
6
40
22.225
49
6.35
74
0
49
-3.175
74
0
49
6.35
74
0
49
-3.175
74
0
49
0
74
0
49
-3.175
74
0
0
LTYPE
5
40
330
5
100
AcDbSymbolTableRecord
100
AcDbLinetypeTableRecord
2
BORDERX2
70
0
3
Border (2x) ____  ____  .  ____  ____  .  ___
72
65
73
6
40
88.9
49
25.4
74
0
49
-12.7
74
0
49
25.4
74
0
49
-12.7
74
0
49
0
74
0
49
-12.7
74
0
0
LTYPE
5
41
330
5
100
AcDbSymbolTableRecord
100
AcDbLinetypeTableRecord
2
CENTER
70
0
3
Center ____ _ ____ _ ____ _ ____ _ ____ _ ____
72
65
73
4
40
50.8
49
31.75
74
0
49
-6.35
74
0
49
6.35
74
0
49
-6.35
74
0
0
LTYPE
5
42
330
5
100
AcDbSymbolTableRecord
100
AcDbLinetypeTableRecord
2
CENTER2
70
0
3
Center (.5x) ___ _ ___ _ ___ _ ___ _ ___ _ ___
72
65
73
4
40
28.575
49
19.05
74
0
49
-3.175
74
0
49
3.175
74
0
49
-3.175
74
0
0
LTYPE
5
43
330
5
100
AcDbSymbolTableRecord
100
AcDbLinetypeTableRecord
2
CENTERX2
70
0
3
Center (2x) ________  __  ________  __  _____
72
65
73
4
40
101.6
49
63.5
74
0
49
-12.7
74
0
49
12.7
74
0
49
-12.7
74
0
0
ENDTAB
0
TABLE
2
LAYER
5
2
330
0
100
AcDbSymbolTable
70
1
0
LAYER
5
10
330
2
100
AcDbSymbolTableRecord
100
AcDbLayerTableRecord
2
0
70
0
62
7
6
CONTINUOUS
370
-3
390
F
0
ENDTAB
0
TABLE
2
STYLE
5
3
330
0
100
AcDbSymbolTable
70
3
0
STYLE
5
44
330
2
100
AcDbSymbolTableRecord
100
AcDbTextStyleTableRecord
2
Standard
70
0
40
0
41
1
50
0
71
0
42
1
3
txt
4

0
ENDTAB
0
TABLE
2
VIEW
5
6
330
0
100
AcDbSymbolTable
70
0
0
ENDTAB
0
TABLE
2
UCS
5
7
330
0
100
AcDbSymbolTable
70
0
0
ENDTAB
0
TABLE
2
APPID
5
9
330
0
100
AcDbSymbolTable
70
1
0
APPID
5
12
330
9
100
AcDbSymbolTableRecord
100
AcDbRegAppTableRecord
2
ACAD
70
0
0
ENDTAB
0
TABLE
2
DIMSTYLE
5
A
330
0
100
AcDbSymbolTable
70
1
100
AcDbDimStyleTable
71
1
0
DIMSTYLE
105
45
330
A
100
AcDbSymbolTableRecord
100
AcDbDimStyleTableRecord
2
Standard
70
0
40
1
41
3.302
42
1
43
0.38
44
1
45
0
46
0
47
0
48
0
140
3.5
141
0.09
142
0
143
25.4
144
1
145
0
146
1
147
1.524
148
0
71
0
72
0
73
0
74
1
75
0
76
0
77
0
78
0
79
0
170
0
171
2
172
0
173
0
174
0
175
0
176
0
177
0
178
0
179
0
271
4
272
4
273
2
274
2
275
0
276
0
277
2
278
46
279
0
280
0
281
0
282
0
283
1
284
0
285
0
286
0
288
0
289
3
340
Standard
341

371
-2
372
-2
0
ENDTAB
0
TABLE
2
BLOCK_RECORD
5
1
330
0
100
AcDbSymbolTable
70
2
0
BLOCK_RECORD
5
1F
330
1
100
AcDbSymbolTableRecord
100
AcDbBlockTableRecord
2
*Model_Space
70
0
280
1
281
0
0
BLOCK_RECORD
5
1E
330
1
100
AcDbSymbolTableRecord
100
AcDbBlockTableRecord
2
*Paper_Space
70
0
280
1
281
0
0
ENDTAB
0
ENDSEC
0
SECTION
2
BLOCKS
0
BLOCK
5
20
330
1F
100
AcDbEntity
8
0
100
AcDbBlockBegin
2
*Model_Space
70
0
10
0
20
0
30
0
3
*Model_Space
1

0
ENDBLK
5
21
330
1F
100
AcDbEntity
8
0
100
AcDbBlockEnd
0
BLOCK
5
1C
330
1B
100
AcDbEntity
8
0
100
AcDbBlockBegin
2
*Paper_Space
70
0
10
0
20
0
30
0
3
*Paper_Space
1

0
ENDBLK
5
1D
330
1F
100
AcDbEntity
8
0
100
AcDbBlockEnd
0
ENDSEC
0
SECTION
2
ENTITIES
0
LINE
5
46
100
AcDbEntity
8
0
6
CENTERX2
62
7
370
-1
100
AcDbLine
10
-4.9323694288
20
32.18105
11
-4.9323694288
21
184.5806075
0
CIRCLE
5
47
100
AcDbEntity
8
0
6
CONTINUOUS
62
7
370
-1
100
AcDbCircle
10
8.16763175
20
36.181495
40
2.1
0
CIRCLE
5
48
100
AcDbEntity
8
0
6
CONTINUOUS
62
7
370
-1
100
AcDbCircle
10
100.1668405
20
151.180160625
40
1.85
0
CIRCLE
5
49
100
AcDbEntity
8
0
6
CONTINUOUS
62
7
370
-1
100
AcDbCircle
10
8.16763175
20
151.180160625
40
2.1
0
CIRCLE
5
4A
100
AcDbEntity
8
0
6
CONTINUOUS
62
7
370
-1
100
AcDbCircle
10
100.1668405
20
36.181495
40
1.85
0
CIRCLE
5
4B
100
AcDbEntity
8
0
6
CONTINUOUS
62
7
370
-1
100
AcDbCircle
10
61.367697375
20
160.67994375
40
2.25
0
CIRCLE
5
4C
100
AcDbEntity
8
0
6
CONTINUOUS
62
7
370
-1
100
AcDbCircle
10
13.067697375
20
172.47994375
40
2.25
0
CIRCLE
5
4D
100
AcDbEntity
8
0
6
CONTINUOUS
62
7
370
-1
100
AcDbCircle
10
104.16728925
20
217.9806075
40
1.63577390423
0
CIRCLE
5
4E
100
AcDbEntity
8
0
6
CONTINUOUS
62
7
370
-1
100
AcDbCircle
10
47.16728925
20
217.9806075
40
1.63577390423
0
CIRCLE
5
4F
100
AcDbEntity
8
0
6
CONTINUOUS
62
7
370
-1
100
AcDbCircle
10
10.667188
20
217.9806075
40
1.63577390423
0
LINE
5
50
100
AcDbEntity
8
0
6
CONTINUOUS
62
7
370
-1
100
AcDbLine
10
100.16728925
20
192.1806075
11
100.16728925
21
216.1806075
0
LINE
5
51
100
AcDbEntity
8
0
6
CONTINUOUS
62
7
370
-1
100
AcDbLine
10
98.16728925
20
218.1806075
11
55.16728925
21
218.1806075
0
LINE
5
52
100
AcDbEntity
8
0
6
CONTINUOUS
62
7
370
-1
100
AcDbLine
10
53.16728925
20
216.1806075
11
53.16728925
21
192.1806075
0
LINE
5
53
100
AcDbEntity
8
0
6
CONTINUOUS
62
7
370
-1
100
AcDbLine
10
55.16728925
20
190.1806075
11
98.16728925
21
190.1806075
0
LINE
5
54
100
AcDbEntity
8
0
6
CONTINUOUS
62
7
370
-1
100
AcDbLine
10
99.26728925
20
31.58105
11
99.26728925
21
32.28105
0
LINE
5
55
100
AcDbEntity
8
0
6
CONTINUOUS
62
7
370
-1
100
AcDbLine
10
99.26728925
20
32.28105
11
91.06728925
21
32.28105
0
LINE
5
56
100
AcDbEntity
8
0
6
CONTINUOUS
62
7
370
-1
100
AcDbLine
10
91.06728925
20
32.28105
11
91.06728925
21
31.58105
0
LINE
5
57
100
AcDbEntity
8
0
6
CONTINUOUS
62
7
370
-1
100
AcDbLine
10
91.06728925
20
31.58105
11
99.26728925
21
31.58105
0
LINE
5
58
100
AcDbEntity
8
0
6
CONTINUOUS
62
7
370
-1
100
AcDbLine
10
54.267238625
20
32.28105
11
46.067238625
21
32.28105
0
LINE
5
59
100
AcDbEntity
8
0
6
CONTINUOUS
62
7
370
-1
100
AcDbLine
10
46.067238625
20
32.28105
11
46.067238625
21
31.58105
0
LINE
5
5A
100
AcDbEntity
8
0
6
CONTINUOUS
62
7
370
-1
100
AcDbLine
10
46.067238625
20
31.58105
11
54.267238625
21
31.58105
0
LINE
5
5B
100
AcDbEntity
8
0
6
CONTINUOUS
62
7
370
-1
100
AcDbLine
10
54.267238625
20
31.58105
11
54.267238625
21
32.28105
0
LINE
5
5C
100
AcDbEntity
8
0
6
CONTINUOUS
62
7
370
-1
100
AcDbLine
10
9.267188
20
31.58105
11
9.267188
21
32.28105
0
LINE
5
5D
100
AcDbEntity
8
0
6
CONTINUOUS
62
7
370
-1
100
AcDbLine
10
9.267188
20
32.28105
11
1.067188
21
32.28105
0
LINE
5
5E
100
AcDbEntity
8
0
6
CONTINUOUS
62
7
370
-1
100
AcDbLine
10
1.067188
20
32.28105
11
1.067188
21
31.58105
0
LINE
5
5F
100
AcDbEntity
8
0
6
CONTINUOUS
62
7
370
-1
100
AcDbLine
10
1.067188
20
31.58105
11
9.267188
21
31.58105
0
LINE
5
60
100
AcDbEntity
8
0
6
CONTINUOUS
62
7
370
-1
100
AcDbLine
10
54.267238625
20
184.4806075
11
54.267238625
21
185.1806075
0
LINE
5
61
100
AcDbEntity
8
0
6
CONTINUOUS
62
7
370
-1
100
AcDbLine
10
54.267238625
20
185.1806075
11
46.067238625
21
185.1806075
0
LINE
5
62
100
AcDbEntity
8
0
6
CONTINUOUS
62
7
370
-1
100
AcDbLine
10
46.067238625
20
185.1806075
11
46.067238625
21
184.4806075
0
LINE
5
63
100
AcDbEntity
8
0
6
CONTINUOUS
62
7
370
-1
100
AcDbLine
10
46.067238625
20
184.4806075
11
54.267238625
21
184.4806075
0
LINE
5
64
100
AcDbEntity
8
0
6
CONTINUOUS
62
7
370
-1
100
AcDbLine
10
99.26728925
20
184.4806075
11
99.26728925
21
185.1806075
0
LINE
5
65
100
AcDbEntity
8
0
6
CONTINUOUS
62
7
370
-1
100
AcDbLine
10
99.26728925
20
185.1806075
11
91.06728925
21
185.1806075
0
LINE
5
66
100
AcDbEntity
8
0
6
CONTINUOUS
62
7
370
-1
100
AcDbLine
10
91.06728925
20
185.1806075
11
91.06728925
21
184.4806075
0
LINE
5
67
100
AcDbEntity
8
0
6
CONTINUOUS
62
7
370
-1
100
AcDbLine
10
91.06728925
20
184.4806075
11
99.26728925
21
184.4806075
0
LINE
5
68
100
AcDbEntity
8
0
6
CONTINUOUS
62
7
370
-1
100
AcDbLine
10
9.267188
20
184.4806075
11
9.267188
21
185.1806075
0
LINE
5
69
100
AcDbEntity
8
0
6
CONTINUOUS
62
7
370
-1
100
AcDbLine
10
9.267188
20
185.1806075
11
1.067188
21
185.1806075
0
LINE
5
6A
100
AcDbEntity
8
0
6
CONTINUOUS
62
7
370
-1
100
AcDbLine
10
1.067188
20
185.1806075
11
1.067188
21
184.4806075
0
LINE
5
6B
100
AcDbEntity
8
0
6
CONTINUOUS
62
7
370
-1
100
AcDbLine
10
1.067188
20
184.4806075
11
9.267188
21
184.4806075
0
LINE
5
6C
100
AcDbEntity
8
0
6
CONTINUOUS
62
7
370
-1
100
AcDbLine
10
71.867697375
20
170.27994375
11
71.867697375
21
175.27994375
0
LINE
5
6D
100
AcDbEntity
8
0
6
CONTINUOUS
62
7
370
-1
100
AcDbLine
10
66.867697375
20
175.27994375
11
66.867697375
21
170.27994375
0
LINE
5
6E
100
AcDbEntity
8
0
6
CONTINUOUS
62
7
370
-1
100
AcDbLine
10
-42.2319268575
20
168.5806075
11
-40.2319268575
21
168.5806075
0
LINE
5
6F
100
AcDbEntity
8
0
6
CONTINUOUS
62
7
370
-1
100
AcDbLine
10
-43.2319268575
20
174.5806075
11
-43.2319268575
21
169.5806075
0
LINE
5
70
100
AcDbEntity
8
0
6
CONTINUOUS
62
7
370
-1
100
AcDbLine
10
-43.2319268575
20
174.5806075
11
-40.0319268575
21
174.5806075
0
LINE
5
71
100
AcDbEntity
8
0
6
CONTINUOUS
62
7
370
-1
100
AcDbLine
10
-40.0319268575
20
177.7806075
11
-43.2319268575
21
177.7806075
0
LINE
5
72
100
AcDbEntity
8
0
6
CONTINUOUS
62
7
370
-1
100
AcDbLine
10
-43.2319268575
20
183.5806075
11
-43.2319268575
21
177.7806075
0
LINE
5
73
100
AcDbEntity
8
0
6
CONTINUOUS
62
7
370
-1
100
AcDbLine
10
-42.2319268575
20
184.5806075
11
-3.832812
21
184.5806075
0
LINE
5
74
100
AcDbEntity
8
0
6
CONTINUOUS
62
7
370
-1
100
AcDbLine
10
-3.832812
20
184.5806075
11
-3.832812
21
185.1806075
0
LINE
5
75
100
AcDbEntity
8
0
6
CONTINUOUS
62
7
370
-1
100
AcDbLine
10
-3.832812
20
185.1806075
11
-1.832812
21
185.1806075
0
LINE
5
76
100
AcDbEntity
8
0
6
CONTINUOUS
62
7
370
-1
100
AcDbLine
10
-1.832812
20
187.5806075
11
-1.832812
21
185.1806075
0
LINE
5
77
100
AcDbEntity
8
0
6
CONTINUOUS
62
7
370
-1
100
AcDbLine
10
6.667188
20
188.5806075
11
-0.832812
21
188.5806075
0
LINE
5
78
100
AcDbEntity
8
0
6
CONTINUOUS
62
7
370
-1
100
AcDbLine
10
6.667188
20
188.5806075
11
6.667188
21
221.1806075
0
LINE
5
79
100
AcDbEntity
8
0
6
CONTINUOUS
62
7
370
-1
100
AcDbLine
10
104.16728925
20
222.1806075
11
7.667188
21
222.1806075
0
LINE
5
7A
100
AcDbEntity
8
0
6
CONTINUOUS
62
7
370
-1
100
AcDbLine
10
104.16728925
20
213.7806075
11
104.16728925
21
184.5806075
0
LINE
5
7B
100
AcDbEntity
8
0
6
CONTINUOUS
62
7
370
-1
100
AcDbLine
10
104.16728925
20
184.5806075
11
106.16728925
21
184.5806075
0
LINE
5
7C
100
AcDbEntity
8
0
6
CONTINUOUS
62
7
370
-1
100
AcDbLine
10
106.16728925
20
32.18105
11
106.16728925
21
184.5806075
0
LINE
5
7D
100
AcDbEntity
8
0
6
CONTINUOUS
62
7
370
-1
100
AcDbLine
10
106.16728925
20
32.18105
11
104.16728925
21
32.18105
0
LINE
5
7E
100
AcDbEntity
8
0
6
CONTINUOUS
62
7
370
-1
100
AcDbLine
10
104.16728925
20
32.18105
11
104.16728925
21
31.58105
0
LINE
5
7F
100
AcDbEntity
8
0
6
CONTINUOUS
62
7
370
-1
100
AcDbLine
10
102.16728925
20
31.58105
11
104.16728925
21
31.58105
0
LINE
5
80
100
AcDbEntity
8
0
6
CONTINUOUS
62
7
370
-1
100
AcDbLine
10
102.16728925
20
29.18105
11
102.16728925
21
31.58105
0
LINE
5
81
100
AcDbEntity
8
0
6
CONTINUOUS
62
7
370
-1
100
AcDbLine
10
89.16728925
20
28.18105
11
101.16728925
21
28.18105
0
LINE
5
82
100
AcDbEntity
8
0
6
CONTINUOUS
62
7
370
-1
100
AcDbLine
10
88.16728925
20
31.58105
11
88.16728925
21
29.18105
0
LINE
5
83
100
AcDbEntity
8
0
6
CONTINUOUS
62
7
370
-1
100
AcDbLine
10
57.167238625
20
31.58105
11
88.16728925
21
31.58105
0
LINE
5
84
100
AcDbEntity
8
0
6
CONTINUOUS
62
7
370
-1
100
AcDbLine
10
57.167238625
20
29.18105
11
57.167238625
21
31.58105
0
LINE
5
85
100
AcDbEntity
8
0
6
CONTINUOUS
62
7
370
-1
100
AcDbLine
10
44.167238625
20
28.18105
11
56.167238625
21
28.18105
0
LINE
5
86
100
AcDbEntity
8
0
6
CONTINUOUS
62
7
370
-1
100
AcDbLine
10
43.167238625
20
31.58105
11
43.167238625
21
29.18105
0
LINE
5
87
100
AcDbEntity
8
0
6
CONTINUOUS
62
7
370
-1
100
AcDbLine
10
12.167188
20
31.58105
11
43.167238625
21
31.58105
0
LINE
5
88
100
AcDbEntity
8
0
6
CONTINUOUS
62
7
370
-1
100
AcDbLine
10
12.167188
20
29.18105
11
12.167188
21
31.58105
0
LINE
5
89
100
AcDbEntity
8
0
6
CONTINUOUS
62
7
370
-1
100
AcDbLine
10
-0.832812
20
28.18105
11
11.167188
21
28.18105
0
LINE
5
8A
100
AcDbEntity
8
0
6
CONTINUOUS
62
7
370
-1
100
AcDbLine
10
-1.832812
20
31.58105
11
-1.832812
21
29.18105
0
LINE
5
8B
100
AcDbEntity
8
0
6
CONTINUOUS
62
7
370
-1
100
AcDbLine
10
-3.832812
20
31.58105
11
-1.832812
21
31.58105
0
LINE
5
8C
100
AcDbEntity
8
0
6
CONTINUOUS
62
7
370
-1
100
AcDbLine
10
-3.832812
20
31.58105
11
-3.832812
21
32.18105
0
LINE
5
8D
100
AcDbEntity
8
0
6
CONTINUOUS
62
7
370
-1
100
AcDbLine
10
-9.2319268575
20
32.18105
11
-3.832812
21
32.18105
0
ARC
5
8E
100
AcDbEntity
8
0
6
CONTINUOUS
62
7
370
-1
100
AcDbCircle
10
98.16728925
20
192.1806075
40
2
100
AcDbArc
50
270
51
0
0
ARC
5
8F
100
AcDbEntity
8
0
6
CONTINUOUS
62
7
370
-1
100
AcDbCircle
10
98.16728925
20
216.1806075
40
2
100
AcDbArc
50
0
51
90
0
ARC
5
90
100
AcDbEntity
8
0
6
CONTINUOUS
62
7
370
-1
100
AcDbCircle
10
55.16728925
20
216.1806075
40
2
100
AcDbArc
50
90
51
180
0
ARC
5
91
100
AcDbEntity
8
0
6
CONTINUOUS
62
7
370
-1
100
AcDbCircle
10
55.16728925
20
192.1806075
40
2
100
AcDbArc
50
180
51
270
0
ARC
5
92
100
AcDbEntity
8
0
6
CONTINUOUS
62
7
370
-1
100
AcDbCircle
10
69.367697375
20
170.27994375
40
2.5
100
AcDbArc
50
180
51
0
0
ARC
5
93
100
AcDbEntity
8
0
6
CONTINUOUS
62
7
370
-1
100
AcDbCircle
10
69.367697375
20
175.27994375
40
2.5
100
AcDbArc
50
0
51
180
0
ARC
5
94
100
AcDbEntity
8
0
6
CONTINUOUS
62
7
370
-1
100
AcDbCircle
10
-9.2319268575
20
29.18105
40
3
100
AcDbArc
50
90
51
180
0
ARC
5
95
100
AcDbEntity
8
0
6
CONTINUOUS
62
7
370
-1
100
AcDbCircle
10
-40.2319268575
20
165.5806075
40
3
100
AcDbArc
50
0
51
90
0
ARC
5
96
100
AcDbEntity
8
0
6
CONTINUOUS
62
7
370
-1
100
AcDbCircle
10
-42.2319268575
20
169.5806075
40
1
100
AcDbArc
50
180
51
270
0
ARC
5
97
100
AcDbEntity
8
0
6
CONTINUOUS
62
7
370
-1
100
AcDbCircle
10
-40.0319268575
20
176.1806075
40
1.6
100
AcDbArc
50
270
51
90
0
ARC
5
98
100
AcDbEntity
8
0
6
CONTINUOUS
62
7
370
-1
100
AcDbCircle
10
-42.2319268575
20
183.5806075
40
1
100
AcDbArc
50
90
51
180
0
ARC
5
99
100
AcDbEntity
8
0
6
CONTINUOUS
62
7
370
-1
100
AcDbCircle
10
-0.832812
20
187.5806075
40
1
100
AcDbArc
50
90
51
180
0
ARC
5
9A
100
AcDbEntity
8
0
6
CONTINUOUS
62
7
370
-1
100
AcDbCircle
10
7.667188
20
221.1806075
40
1
100
AcDbArc
50
90
51
180
0
ARC
5
9B
100
AcDbEntity
8
0
6
CONTINUOUS
62
7
370
-1
100
AcDbCircle
10
104.16728925
20
217.9806075
40
4.2
100
AcDbArc
50
270
51
90
0
ARC
5
9C
100
AcDbEntity
8
0
6
CONTINUOUS
62
7
370
-1
100
AcDbCircle
10
101.16728925
20
29.18105
40
1
100
AcDbArc
50
270
51
0
0
ARC
5
9D
100
AcDbEntity
8
0
6
CONTINUOUS
62
7
370
-1
100
AcDbCircle
10
89.16728925
20
29.18105
40
1
100
AcDbArc
50
180
51
270
0
ARC
5
9E
100
AcDbEntity
8
0
6
CONTINUOUS
62
7
370
-1
100
AcDbCircle
10
56.167238625
20
29.18105
40
1
100
AcDbArc
50
270
51
0
0
ARC
5
9F
100
AcDbEntity
8
0
6
CONTINUOUS
62
7
370
-1
100
AcDbCircle
10
44.167238625
20
29.18105
40
1
100
AcDbArc
50
180
51
270
0
ARC
5
A0
100
AcDbEntity
8
0
6
CONTINUOUS
62
7
370
-1
100
AcDbCircle
10
11.167188
20
29.18105
40
1
100
AcDbArc
50
270
51
0
0
ARC
5
A1
100
AcDbEntity
8
0
6
CONTINUOUS
62
7
370
-1
100
AcDbCircle
10
-0.832812
20
29.18105
40
1
100
AcDbArc
50
180
51
270
0
LINE
5
A2
100
AcDbEntity
8
0
6
CONTINUOUS
62
7
370
-1
100
AcDbLine
10
-28.1319268575
20
13.18105
11
-13.2319268575
21
13.18105
0
LINE
5
A3
100
AcDbEntity
8
0
6
CONTINUOUS
62
7
370
-1
100
AcDbLine
10
-36.2319268575
20
13.18105
11
-31.3319268575
21
13.18105
0
ARC
5
A4
100
AcDbEntity
8
0
6
CONTINUOUS
62
7
370
-1
100
AcDbCircle
10
-13.2319268575
20
14.18105
40
1
100
AcDbArc
50
270
51
0
0
ARC
5
A5
100
AcDbEntity
8
0
6
CONTINUOUS
62
7
370
-1
100
AcDbCircle
10
-36.2319268575
20
14.18105
40
1
100
AcDbArc
50
180
51
270
0
LINE
5
A6
100
AcDbEntity
8
0
6
CONTINUOUS
62
7
370
-1
100
AcDbLine
10
-12.2319268575
20
14.18105
11
-12.2319268575
21
29.18105
0
LINE
5
A7
100
AcDbEntity
8
0
6
CONTINUOUS
62
7
370
-1
100
AcDbLine
10
-37.2319268575
20
14.18105
11
-37.2319268575
21
165.5806075
0
ARC
5
A8
100
AcDbEntity
8
0
6
CONTINUOUS
62
7
370
-1
100
AcDbCircle
10
-29.7319268575
20
21.18105
40
1.6
100
AcDbArc
50
0
51
180
0
LINE
5
A9
100
AcDbEntity
8
0
6
CONTINUOUS
62
7
370
-1
100
AcDbLine
10
-28.1319268575
20
13.18105
11
-28.1319268575
21
21.18105
0
LINE
5
AA
100
AcDbEntity
8
0
6
CONTINUOUS
62
7
370
-1
100
AcDbLine
10
-31.3319268575
20
21.18105
11
-31.3319268575
21
13.18105
0
ENDSEC
0
SECTION
2
OBJECTS
0
DICTIONARY
5
C
330
0
100
AcDbDictionary
281
1
3
ACAD_GROUP
350
D
0
DICTIONARY
5
D
330
C
100
AcDbDictionary
281
1
0
ENDSEC
0
EOF
