999
dxfrw 0.5.11
0
SECTION
2
HEADER
9
$ACADVER
1
AC1021
9
$HANDSEED
5
20000
9
$DWGCODEPAGE
3
ANSI_1252
9
$INSBASE
10
0
20
0
30
0
9
$EXTMIN
10
-418.948893572
20
19.450663857
30
0
9
$EXTMAX
10
113.349778714
20
150.549336143
30
0
9
$LIMMIN
10
0
20
0
9
$LIMMAX
10
420
20
297
9
$ORTHOMODE
70
0
9
$LTSCALE
40
1
9
$TEXTSTYLE
7
STANDARD
9
$CLAYER
8
0
9
$DIMASZ
40
2.5
9
$DIMLFAC
40
1
9
$DIMSCALE
40
1
9
$DIMEXO
40
0.625
9
$DIMEXE
40
1.25
9
$DIMTXT
40
2.5
9
$DIMTSZ
40
0
9
$DIMAUNIT
70
0
9
$DIMADEC
70
0
9
$DIMLUNIT
70
2
9
$DIMSTYLE
2
Standard
9
$DIMGAP
40
0.625
9
$DIMTIH
70
0
9
$LUNITS
70
2
9
$LUPREC
70
4
9
$AUNITS
70
0
9
$AUPREC
70
2
9
$SPLINESEGS
70
8
9
$GRIDMODE
70
1
9
$SNAPSTYLE
70
0
9
$PINSBASE
10
0
20
0
30
0
9
$PLIMMIN
10
0
20
0
9
$PLIMMAX
10
210
20
297
9
$INSUNITS
70
0
9
$PSVPSCALE
40
1
0
ENDSEC
0
SECTION
2
CLASSES
0
ENDSEC
0
SECTION
2
TABLES
0
TABLE
2
VPORT
5
8
330
0
100
AcDbSymbolTable
70
1
0
VPORT
5
31
330
2
100
AcDbSymbolTableRecord
100
AcDbViewportTableRecord
2
*ACTIVE
70
0
10
0
20
0
11
1
21
1
12
166.114212039
22
157.999437312
13
0
23
0
14
10
24
10
15
10
25
10
16
0
26
0
36
1
17
0
27
0
37
0
40
480.203727904
41
2.20477137177
42
50
43
0
44
0
50
0
51
0
71
0
72
100
73
1
74
3
75
0
76
1
77
0
78
0
281
0
65
1
110
0
120
0
130
0
111
1
121
0
131
0
112
0
122
1
132
0
79
0
146
0
348
10020
60
7
61
5
292
1
282
1
141
0
142
0
63
250
421
3358443
0
ENDTAB
0
TABLE
2
LTYPE
5
5
330
0
100
AcDbSymbolTable
70
4
0
LTYPE
5
14
330
5
100
AcDbSymbolTableRecord
100
AcDbLinetypeTableRecord
2
ByBlock
70
0
3

72
65
73
0
40
0
0
LTYPE
5
15
330
5
100
AcDbSymbolTableRecord
100
AcDbLinetypeTableRecord
2
ByLayer
70
0
3

72
65
73
0
40
0
0
LTYPE
5
16
330
5
100
AcDbSymbolTableRecord
100
AcDbLinetypeTableRecord
2
Continuous
70
0
3
Solid line
72
65
73
0
40
0
0
LTYPE
5
32
330
5
100
AcDbSymbolTableRecord
100
AcDbLinetypeTableRecord
2
DOT
70
0
3
Dot . . . . . . . . . . . . . . . . . . . . . .
72
65
73
2
40
6.35
49
0
74
0
49
-6.35
74
0
0
LTYPE
5
33
330
5
100
AcDbSymbolTableRecord
100
AcDbLinetypeTableRecord
2
DOT2
70
0
3
Dot (.5x) .....................................
72
65
73
2
40
3.175
49
0
74
0
49
-3.175
74
0
0
LTYPE
5
34
330
5
100
AcDbSymbolTableRecord
100
AcDbLinetypeTableRecord
2
DOTX2
70
0
3
Dot (2x) .  .  .  .  .  .  .  .  .  .  .  .  .
72
65
73
2
40
12.7
49
0
74
0
49
-12.7
74
0
0
LTYPE
5
35
330
5
100
AcDbSymbolTableRecord
100
AcDbLinetypeTableRecord
2
DASHED
70
0
3
Dot . . . . . . . . . . . . . . . . . . . . . .
72
65
73
2
40
19.05
49
12.7
74
0
49
-6.35
74
0
0
LTYPE
5
36
330
5
100
AcDbSymbolTableRecord
100
AcDbLinetypeTableRecord
2
DASHED2
70
0
3
Dashed (.5x) _ _ _ _ _ _ _ _ _ _ _ _ _ _ _ _ _
72
65
73
2
40
9.525
49
6.35
74
0
49
-3.175
74
0
0
LTYPE
5
37
330
5
100
AcDbSymbolTableRecord
100
AcDbLinetypeTableRecord
2
DASHEDX2
70
0
3
Dashed (2x) ____  ____  ____  ____  ____  ___
72
65
73
2
40
38.1
49
25.4
74
0
49
-12.7
74
0
0
LTYPE
5
38
330
5
100
AcDbSymbolTableRecord
100
AcDbLinetypeTableRecord
2
DASHDOT
70
0
3
Dash dot __ . __ . __ . __ . __ . __ . __ . __
72
65
73
4
40
25.4
49
12.7
74
0
49
-6.35
74
0
49
0
74
0
49
-6.35
74
0
0
LTYPE
5
39
330
5
100
AcDbSymbolTableRecord
100
AcDbLinetypeTableRecord
2
DASHDOT2
70
0
3
Dash dot (.5x) _._._._._._._._._._._._._._._.
72
65
73
4
40
12.7
49
6.35
74
0
49
-3.175
74
0
49
0
74
0
49
-3.175
74
0
0
LTYPE
5
3A
330
5
100
AcDbSymbolTableRecord
100
AcDbLinetypeTableRecord
2
DASHDOTX2
70
0
3
Dash dot (2x) ____  .  ____  .  ____  .  ___
72
65
73
4
40
50.8
49
25.4
74
0
49
-12.7
74
0
49
0
74
0
49
-12.7
74
0
0
LTYPE
5
3B
330
5
100
AcDbSymbolTableRecord
100
AcDbLinetypeTableRecord
2
DIVIDE
70
0
3
Divide ____ . . ____ . . ____ . . ____ . . ____
72
65
73
6
40
31.75
49
12.7
74
0
49
-6.35
74
0
49
0
74
0
49
-6.35
74
0
49
0
74
0
49
-6.35
74
0
0
LTYPE
5
3C
330
5
100
AcDbSymbolTableRecord
100
AcDbLinetypeTableRecord
2
DIVIDE2
70
0
3
Divide (.5x) __..__..__..__..__..__..__..__.._
72
65
73
6
40
15.875
49
6.35
74
0
49
-3.175
74
0
49
0
74
0
49
-3.175
74
0
49
0
74
0
49
-3.175
74
0
0
LTYPE
5
3D
330
5
100
AcDbSymbolTableRecord
100
AcDbLinetypeTableRecord
2
DIVIDEX2
70
0
3
Divide (2x) ________  .  .  ________  .  .  _
72
65
73
6
40
63.5
49
25.4
74
0
49
-12.7
74
0
49
0
74
0
49
-12.7
74
0
49
0
74
0
49
-12.7
74
0
0
LTYPE
5
3E
330
5
100
AcDbSymbolTableRecord
100
AcDbLinetypeTableRecord
2
BORDER
70
0
3
Border __ __ . __ __ . __ __ . __ __ . __ __ .
72
65
73
6
40
44.45
49
12.7
74
0
49
-6.35
74
0
49
12.7
74
0
49
-6.35
74
0
49
0
74
0
49
-6.35
74
0
0
LTYPE
5
3F
330
5
100
AcDbSymbolTableRecord
100
AcDbLinetypeTableRecord
2
BORDER2
70
0
3
Border (.5x) __.__.__.__.__.__.__.__.__.__.__.
72
65
73
6
40
22.225
49
6.35
74
0
49
-3.175
74
0
49
6.35
74
0
49
-3.175
74
0
49
0
74
0
49
-3.175
74
0
0
LTYPE
5
40
330
5
100
AcDbSymbolTableRecord
100
AcDbLinetypeTableRecord
2
BORDERX2
70
0
3
Border (2x) ____  ____  .  ____  ____  .  ___
72
65
73
6
40
88.9
49
25.4
74
0
49
-12.7
74
0
49
25.4
74
0
49
-12.7
74
0
49
0
74
0
49
-12.7
74
0
0
LTYPE
5
41
330
5
100
AcDbSymbolTableRecord
100
AcDbLinetypeTableRecord
2
CENTER
70
0
3
Center ____ _ ____ _ ____ _ ____ _ ____ _ ____
72
65
73
4
40
50.8
49
31.75
74
0
49
-6.35
74
0
49
6.35
74
0
49
-6.35
74
0
0
LTYPE
5
42
330
5
100
AcDbSymbolTableRecord
100
AcDbLinetypeTableRecord
2
CENTER2
70
0
3
Center (.5x) ___ _ ___ _ ___ _ ___ _ ___ _ ___
72
65
73
4
40
28.575
49
19.05
74
0
49
-3.175
74
0
49
3.175
74
0
49
-3.175
74
0
0
LTYPE
5
43
330
5
100
AcDbSymbolTableRecord
100
AcDbLinetypeTableRecord
2
CENTERX2
70
0
3
Center (2x) ________  __  ________  __  _____
72
65
73
4
40
101.6
49
63.5
74
0
49
-12.7
74
0
49
12.7
74
0
49
-12.7
74
0
0
ENDTAB
0
TABLE
2
LAYER
5
2
330
0
100
AcDbSymbolTable
70
1
0
LAYER
5
10
330
2
100
AcDbSymbolTableRecord
100
AcDbLayerTableRecord
2
0
70
0
62
255
6
CONTINUOUS
370
25
390
F
0
ENDTAB
0
TABLE
2
STYLE
5
3
330
0
100
AcDbSymbolTable
70
3
0
STYLE
5
44
330
2
100
AcDbSymbolTableRecord
100
AcDbTextStyleTableRecord
2
Standard
70
0
40
0
41
1
50
0
71
0
42
1
3
txt
4

0
ENDTAB
0
TABLE
2
VIEW
5
6
330
0
100
AcDbSymbolTable
70
0
0
ENDTAB
0
TABLE
2
UCS
5
7
330
0
100
AcDbSymbolTable
70
0
0
ENDTAB
0
TABLE
2
APPID
5
9
330
0
100
AcDbSymbolTable
70
1
0
APPID
5
12
330
9
100
AcDbSymbolTableRecord
100
AcDbRegAppTableRecord
2
ACAD
70
0
0
ENDTAB
0
TABLE
2
DIMSTYLE
5
A
330
0
100
AcDbSymbolTable
70
1
100
AcDbDimStyleTable
71
1
0
DIMSTYLE
105
45
330
A
100
AcDbSymbolTableRecord
100
AcDbDimStyleTableRecord
2
Standard
70
0
40
1
41
2.5
42
0.625
43
0.38
44
1.25
45
0
46
0
47
0
48
0
140
2.5
141
0.09
142
0
143
25.4
144
1
145
0
146
1
147
0.625
148
0
71
0
72
0
73
0
74
1
75
0
76
0
77
0
78
0
79
0
170
0
171
2
172
0
173
0
174
0
175
0
176
0
177
0
178
0
179
0
271
4
272
4
273
2
274
2
275
0
276
0
277
2
278
46
279
0
280
0
281
0
282
0
283
1
284
0
285
0
286
0
288
0
289
3
340
Standard
341

371
-2
372
-2
0
ENDTAB
0
TABLE
2
BLOCK_RECORD
5
1
330
0
100
AcDbSymbolTable
70
2
0
BLOCK_RECORD
5
1F
330
1
100
AcDbSymbolTableRecord
100
AcDbBlockTableRecord
2
*Model_Space
70
0
280
1
281
0
0
BLOCK_RECORD
5
1E
330
1
100
AcDbSymbolTableRecord
100
AcDbBlockTableRecord
2
*Paper_Space
70
0
280
1
281
0
0
ENDTAB
0
ENDSEC
0
SECTION
2
BLOCKS
0
BLOCK
5
20
330
1F
100
AcDbEntity
8
0
100
AcDbBlockBegin
2
*Model_Space
70
0
10
0
20
0
30
0
3
*Model_Space
1

0
ENDBLK
5
21
330
1F
100
AcDbEntity
8
0
100
AcDbBlockEnd
0
BLOCK
5
1C
330
1B
100
AcDbEntity
8
0
100
AcDbBlockBegin
2
*Paper_Space
70
0
10
0
20
0
30
0
3
*Paper_Space
1

0
ENDBLK
5
1D
330
1F
100
AcDbEntity
8
0
100
AcDbBlockEnd
0
ENDSEC
0
SECTION
2
ENTITIES
0
LINE
5
46
100
AcDbEntity
8
0
6
CONTINUOUS
62
255
370
-1
100
AcDbLine
10
-52.3497787144
20
141.049778714
11
-52.3497787144
21
142.049778714
0
LINE
5
47
100
AcDbEntity
8
0
6
CONTINUOUS
62
255
370
-1
100
AcDbLine
10
-52.3497787144
20
141.049778714
11
-52.9497787144
21
141.049778714
0
LINE
5
48
100
AcDbEntity
8
0
6
CONTINUOUS
62
255
370
-1
100
AcDbLine
10
-52.9497787144
20
141.049778714
11
-52.9497787144
21
142.049778714
0
LINE
5
49
100
AcDbEntity
8
0
6
CONTINUOUS
62
255
370
-1
100
AcDbLine
10
-151.749778714
20
141.049778714
11
-151.749778714
21
142.049778714
0
LINE
5
4A
100
AcDbEntity
8
0
6
CONTINUOUS
62
255
370
-1
100
AcDbLine
10
-151.749778714
20
141.049778714
11
-152.349778714
21
141.049778714
0
LINE
5
4B
100
AcDbEntity
8
0
6
CONTINUOUS
62
255
370
-1
100
AcDbLine
10
-152.349778714
20
141.049778714
11
-152.349778714
21
142.049778714
0
LINE
5
4C
100
AcDbEntity
8
0
6
CONTINUOUS
62
255
370
-1
100
AcDbLine
10
-152.349778714
20
142.049778714
11
-154.349778714
21
142.049778714
0
LINE
5
4D
100
AcDbEntity
8
0
6
CONTINUOUS
62
255
370
-1
100
AcDbLine
10
-154.349778714
20
114.249778714
11
-153.149778714
21
114.249778714
0
LINE
5
4E
100
AcDbEntity
8
0
6
CONTINUOUS
62
255
370
-1
100
AcDbLine
10
-153.149778714
20
114.249778714
11
-153.149778714
21
113.249778714
0
LINE
5
4F
100
AcDbEntity
8
0
6
CONTINUOUS
62
255
370
-1
100
AcDbLine
10
-147.449778714
20
113.249778714
11
-153.149778714
21
113.249778714
0
LINE
5
50
100
AcDbEntity
8
0
6
CONTINUOUS
62
255
370
-1
100
AcDbLine
10
-147.449778714
20
111.249778714
11
-147.449778714
21
113.249778714
0
LINE
5
51
100
AcDbEntity
8
0
6
CONTINUOUS
62
255
370
-1
100
AcDbLine
10
-139.249778714
20
111.249778714
11
-147.449778714
21
111.249778714
0
LINE
5
52
100
AcDbEntity
8
0
6
CONTINUOUS
62
255
370
-1
100
AcDbLine
10
-139.249778714
20
113.249778714
11
-139.249778714
21
111.249778714
0
LINE
5
53
100
AcDbEntity
8
0
6
CONTINUOUS
62
255
370
-1
100
AcDbLine
10
-102.449778714
20
113.249778714
11
-139.249778714
21
113.249778714
0
LINE
5
54
100
AcDbEntity
8
0
6
CONTINUOUS
62
255
370
-1
100
AcDbLine
10
-102.449778714
20
111.249778714
11
-102.449778714
21
113.249778714
0
LINE
5
55
100
AcDbEntity
8
0
6
CONTINUOUS
62
255
370
-1
100
AcDbLine
10
-94.2497787144
20
111.249778714
11
-102.449778714
21
111.249778714
0
LINE
5
56
100
AcDbEntity
8
0
6
CONTINUOUS
62
255
370
-1
100
AcDbLine
10
-94.2497787144
20
113.249778714
11
-94.2497787144
21
111.249778714
0
LINE
5
57
100
AcDbEntity
8
0
6
CONTINUOUS
62
255
370
-1
100
AcDbLine
10
-57.4497787144
20
113.249778714
11
-94.2497787144
21
113.249778714
0
LINE
5
58
100
AcDbEntity
8
0
6
CONTINUOUS
62
255
370
-1
100
AcDbLine
10
-57.4497787144
20
111.249778714
11
-57.4497787144
21
113.249778714
0
LINE
5
59
100
AcDbEntity
8
0
6
CONTINUOUS
62
255
370
-1
100
AcDbLine
10
-49.2497787144
20
111.249778714
11
-57.4497787144
21
111.249778714
0
LINE
5
5A
100
AcDbEntity
8
0
6
CONTINUOUS
62
255
370
-1
100
AcDbLine
10
-49.2497787144
20
113.249778714
11
-49.2497787144
21
111.249778714
0
LINE
5
5B
100
AcDbEntity
8
0
6
CONTINUOUS
62
255
370
-1
100
AcDbLine
10
-43.5497787144
20
113.249778714
11
-49.2497787144
21
113.249778714
0
LINE
5
5C
100
AcDbEntity
8
0
6
CONTINUOUS
62
255
370
-1
100
AcDbLine
10
-43.5497787144
20
114.249778714
11
-43.5497787144
21
113.249778714
0
LINE
5
5D
100
AcDbEntity
8
0
6
CONTINUOUS
62
255
370
-1
100
AcDbLine
10
-43.5497787144
20
114.249778714
11
-42.0502212856
21
114.249778714
0
CIRCLE
5
5E
100
AcDbEntity
8
0
6
CONTINUOUS
62
255
370
-1
100
AcDbCircle
10
-172.949336143
20
123.749778714
40
1.25
0
CIRCLE
5
5F
100
AcDbEntity
8
0
6
CONTINUOUS
62
255
370
-1
100
AcDbCircle
10
-172.949336143
20
128.249778714
40
1.25
0
CIRCLE
5
60
100
AcDbEntity
8
0
6
CONTINUOUS
62
255
370
-1
100
AcDbCircle
10
-177.449336143
20
123.749778714
40
1.25
0
CIRCLE
5
61
100
AcDbEntity
8
0
6
CONTINUOUS
62
255
370
-1
100
AcDbCircle
10
-177.449336143
20
128.249778714
40
1.25
0
CIRCLE
5
62
100
AcDbEntity
8
0
6
CONTINUOUS
62
255
370
-1
100
AcDbCircle
10
-181.949336143
20
123.749778714
40
1.25
0
ARC
5
63
100
AcDbEntity
8
0
6
CONTINUOUS
62
255
370
-1
100
AcDbCircle
10
-56.3497787144
20
145.749336143
40
3.4
100
AcDbArc
50
0
51
140.334987092
0
CIRCLE
5
64
100
AcDbEntity
8
0
6
CONTINUOUS
62
255
370
-1
100
AcDbCircle
10
-181.949336143
20
128.249778714
40
1.25
0
ARC
5
65
100
AcDbEntity
8
0
6
CONTINUOUS
62
255
370
-1
100
AcDbCircle
10
-62.046220783
20
150.472740399
40
4
100
AcDbArc
50
270
51
320.334987092
0
CIRCLE
5
66
100
AcDbEntity
8
0
6
CONTINUOUS
62
255
370
-1
100
AcDbCircle
10
-163.949336143
20
119.249778714
40
1.25
0
ARC
5
67
100
AcDbEntity
8
0
6
CONTINUOUS
62
255
370
-1
100
AcDbCircle
10
-142.653336646
20
150.472740398
40
4
100
AcDbArc
50
219.665012908
51
270
0
CIRCLE
5
68
100
AcDbEntity
8
0
6
CONTINUOUS
62
255
370
-1
100
AcDbCircle
10
-168.449336143
20
119.249778714
40
1.25
0
ARC
5
69
100
AcDbEntity
8
0
6
CONTINUOUS
62
255
370
-1
100
AcDbCircle
10
-148.349778714
20
145.749336143
40
3.4
100
AcDbArc
50
39.665012908
51
180
0
CIRCLE
5
6A
100
AcDbEntity
8
0
6
CONTINUOUS
62
255
370
-1
100
AcDbCircle
10
-172.949336143
20
119.249778714
40
1.25
0
CIRCLE
5
6B
100
AcDbEntity
8
0
6
CONTINUOUS
62
255
370
-1
100
AcDbCircle
10
-177.449336143
20
119.249778714
40
1.25
0
CIRCLE
5
6C
100
AcDbEntity
8
0
6
CONTINUOUS
62
255
370
-1
100
AcDbCircle
10
-181.949336143
20
119.249778714
40
1.25
0
LINE
5
6D
100
AcDbEntity
8
0
6
CONTINUOUS
62
255
370
-1
100
AcDbLine
10
-172.963444837
20
141.049778714
11
-172.963444837
21
142.049778714
0
LINE
5
6E
100
AcDbEntity
8
0
6
CONTINUOUS
62
255
370
-1
100
AcDbLine
10
-172.963444837
20
141.049778714
11
-173.563444837
21
141.049778714
0
LINE
5
6F
100
AcDbEntity
8
0
6
CONTINUOUS
62
255
370
-1
100
AcDbLine
10
-173.563444837
20
141.049778714
11
-173.563444837
21
142.049778714
0
LINE
5
70
100
AcDbEntity
8
0
6
CONTINUOUS
62
255
370
-1
100
AcDbLine
10
-276.449336143
20
141.049778714
11
-276.449336143
21
142.049778714
0
LINE
5
71
100
AcDbEntity
8
0
6
CONTINUOUS
62
255
370
-1
100
AcDbLine
10
-276.449336143
20
141.049778714
11
-277.049336143
21
141.049778714
0
LINE
5
72
100
AcDbEntity
8
0
6
CONTINUOUS
62
255
370
-1
100
AcDbLine
10
-277.049336143
20
141.049778714
11
-277.049336143
21
142.049778714
0
LINE
5
73
100
AcDbEntity
8
0
6
CONTINUOUS
62
255
370
-1
100
AcDbLine
10
-277.049336143
20
142.049778714
11
-279.949336143
21
142.049778714
0
LINE
5
74
100
AcDbEntity
8
0
6
CONTINUOUS
62
255
370
-1
100
AcDbLine
10
-294.949336143
20
142.049778714
11
-307.049336143
21
142.049778714
0
LINE
5
75
100
AcDbEntity
8
0
6
CONTINUOUS
62
255
370
-1
100
AcDbLine
10
-307.049336143
20
114.249778714
11
-305.849336143
21
114.249778714
0
LINE
5
76
100
AcDbEntity
8
0
6
CONTINUOUS
62
255
370
-1
100
AcDbLine
10
-305.849336143
20
114.249778714
11
-305.849336143
21
113.249778714
0
LINE
5
77
100
AcDbEntity
8
0
6
CONTINUOUS
62
255
370
-1
100
AcDbLine
10
-154.649336143
20
114.249778714
11
-154.649336143
21
113.249778714
0
LINE
5
78
100
AcDbEntity
8
0
6
CONTINUOUS
62
255
370
-1
100
AcDbLine
10
-52.9497787144
20
145.749336143
11
-52.9497787144
21
141.049778714
0
LINE
5
79
100
AcDbEntity
8
0
6
CONTINUOUS
62
255
370
-1
100
AcDbLine
10
-142.653336646
20
146.472740398
11
-62.046220783
21
146.472740399
0
LINE
5
7A
100
AcDbEntity
8
0
6
CONTINUOUS
62
255
370
-1
100
AcDbLine
10
-151.749778714
20
141.049778714
11
-151.749778714
21
145.749336143
0
LINE
5
7B
100
AcDbEntity
8
0
6
CONTINUOUS
62
255
370
-1
100
AcDbLine
10
-154.649336143
20
114.249778714
11
-153.149778714
21
114.249778714
0
LINE
5
7C
100
AcDbEntity
8
0
6
CONTINUOUS
62
255
370
-1
100
AcDbLine
10
-153.149778714
20
114.249778714
11
-153.149778714
21
113.249778714
0
LINE
5
7D
100
AcDbEntity
8
0
6
CONTINUOUS
62
255
370
-1
100
AcDbLine
10
-52.3497787144
20
141.049778714
11
-52.3497787144
21
142.049778714
0
LINE
5
7E
100
AcDbEntity
8
0
6
CONTINUOUS
62
255
370
-1
100
AcDbLine
10
-52.3497787144
20
141.049778714
11
-52.9497787144
21
141.049778714
0
CIRCLE
5
7F
100
AcDbEntity
8
0
6
CONTINUOUS
62
255
370
-1
100
AcDbCircle
10
-148.349778714
20
145.749336143
40
1.65
0
LINE
5
80
100
AcDbEntity
8
0
6
CONTINUOUS
62
255
370
-1
100
AcDbLine
10
-151.749778714
20
141.049778714
11
-152.349778714
21
141.049778714
0
CIRCLE
5
81
100
AcDbEntity
8
0
6
CONTINUOUS
62
255
370
-1
100
AcDbCircle
10
-56.3497787144
20
145.749336143
40
1.65032325816
0
LINE
5
82
100
AcDbEntity
8
0
6
CONTINUOUS
62
255
370
-1
100
AcDbLine
10
-152.349778714
20
141.049778714
11
-152.349778714
21
142.049778714
0
CIRCLE
5
83
100
AcDbEntity
8
0
6
CONTINUOUS
62
255
370
-1
100
AcDbCircle
10
-159.449336143
20
119.249778714
40
1.25
0
LINE
5
84
100
AcDbEntity
8
0
6
CONTINUOUS
62
255
370
-1
100
AcDbLine
10
-152.349778714
20
142.049778714
11
-172.963444837
21
142.049778714
0
CIRCLE
5
85
100
AcDbEntity
8
0
6
CONTINUOUS
62
255
370
-1
100
AcDbCircle
10
-159.449336143
20
123.749778714
40
1.25
0
CIRCLE
5
86
100
AcDbEntity
8
0
6
CONTINUOUS
62
255
370
-1
100
AcDbCircle
10
-159.449336143
20
128.249778714
40
1.25
0
CIRCLE
5
87
100
AcDbEntity
8
0
6
CONTINUOUS
62
255
370
-1
100
AcDbCircle
10
-163.949336143
20
123.749778714
40
1.25
0
CIRCLE
5
88
100
AcDbEntity
8
0
6
CONTINUOUS
62
255
370
-1
100
AcDbCircle
10
-163.949336143
20
128.249778714
40
1.25
0
CIRCLE
5
89
100
AcDbEntity
8
0
6
CONTINUOUS
62
255
370
-1
100
AcDbCircle
10
-168.449336143
20
123.749778714
40
1.25
0
CIRCLE
5
8A
100
AcDbEntity
8
0
6
CONTINUOUS
62
255
370
-1
100
AcDbCircle
10
-168.449336143
20
128.249778714
40
1.25
0
LINE
5
8B
100
AcDbEntity
8
0
6
CONTINUOUS
62
255
370
-1
100
AcDbLine
10
-154.649336143
20
114.249778714
11
-154.649336143
21
108.150221286
0
LINE
5
8C
100
AcDbEntity
8
0
6
CONTINUOUS
62
255
370
-1
100
AcDbLine
10
-173.563444837
20
144.149336143
11
-173.563444837
21
141.049778714
0
LINE
5
8D
100
AcDbEntity
8
0
6
CONTINUOUS
62
255
370
-1
100
AcDbLine
10
-265.813315137
20
147.149336143
11
-176.563444837
21
147.149336143
0
LINE
5
8E
100
AcDbEntity
8
0
6
CONTINUOUS
62
255
370
-1
100
AcDbLine
10
-276.449336143
20
141.049778714
11
-276.449336143
21
147.149336143
0
LINE
5
8F
100
AcDbEntity
8
0
6
CONTINUOUS
62
255
370
-1
100
AcDbLine
10
-307.348893572
20
114.249778714
11
-305.849336143
21
114.249778714
0
LINE
5
90
100
AcDbEntity
8
0
6
CONTINUOUS
62
255
370
-1
100
AcDbLine
10
-154.649336143
20
114.249778714
11
-153.449336143
21
114.249778714
0
LINE
5
91
100
AcDbEntity
8
0
6
CONTINUOUS
62
255
370
-1
100
AcDbLine
10
-172.963444837
20
141.049778714
11
-172.963444837
21
142.049778714
0
LINE
5
92
100
AcDbEntity
8
0
6
CONTINUOUS
62
255
370
-1
100
AcDbLine
10
-172.963444837
20
141.049778714
11
-173.563444837
21
141.049778714
0
LINE
5
93
100
AcDbEntity
8
0
6
CONTINUOUS
62
255
370
-1
100
AcDbLine
10
-276.449336143
20
141.049778714
11
-277.049336143
21
141.049778714
0
LINE
5
94
100
AcDbEntity
8
0
6
CONTINUOUS
62
255
370
-1
100
AcDbLine
10
-277.049336143
20
141.049778714
11
-277.049336143
21
142.049778714
0
LINE
5
95
100
AcDbEntity
8
0
6
CONTINUOUS
62
255
370
-1
100
AcDbLine
10
-277.049336143
20
142.049778714
11
-279.949336143
21
142.049778714
0
ARC
5
96
100
AcDbEntity
8
0
6
CONTINUOUS
62
255
370
-1
100
AcDbCircle
10
-302.849336143
20
110.690761826
40
3
100
AcDbArc
50
180
51
270
0
ARC
5
97
100
AcDbEntity
8
0
6
CONTINUOUS
62
255
370
-1
100
AcDbCircle
10
-278.954691453
20
103.690761826
40
4
100
AcDbArc
50
37.058466
51
90
0
ARC
5
98
100
AcDbEntity
8
0
6
CONTINUOUS
62
255
370
-1
100
AcDbCircle
10
-273.049336143
20
108.150221286
40
3.4
100
AcDbArc
50
217.058466
51
322.941534
0
ARC
5
99
100
AcDbEntity
8
0
6
CONTINUOUS
62
255
370
-1
100
AcDbCircle
10
-267.143980834
20
103.690761826
40
4
100
AcDbArc
50
90
51
142.941534
0
ARC
5
9A
100
AcDbEntity
8
0
6
CONTINUOUS
62
255
370
-1
100
AcDbCircle
10
-163.954691453
20
103.690761826
40
4
100
AcDbArc
50
37.058466
51
90
0
ARC
5
9B
100
AcDbEntity
8
0
6
CONTINUOUS
62
255
370
-1
100
AcDbCircle
10
-158.049336143
20
108.150221286
40
3.4
100
AcDbArc
50
217.058466
51
0
0
ARC
5
9C
100
AcDbEntity
8
0
6
CONTINUOUS
62
255
370
-1
100
AcDbCircle
10
-176.563444837
20
144.149336143
40
3
100
AcDbArc
50
0
51
90
0
ARC
5
9D
100
AcDbEntity
8
0
6
CONTINUOUS
62
255
370
-1
100
AcDbCircle
10
-265.813315137
20
153.149336143
40
6
100
AcDbArc
50
219.665012908
51
270
0
ARC
5
9E
100
AcDbEntity
8
0
6
CONTINUOUS
62
255
370
-1
100
AcDbCircle
10
-273.049336143
20
147.149336143
40
3.4
100
AcDbArc
50
39.665012908
51
180
0
CIRCLE
5
9F
100
AcDbEntity
8
0
6
CONTINUOUS
62
255
370
-1
100
AcDbCircle
10
-273.049336143
20
147.149336143
40
1.65032325816
0
CIRCLE
5
A0
100
AcDbEntity
8
0
6
CONTINUOUS
62
255
370
-1
100
AcDbCircle
10
-158.049336143
20
108.150221286
40
1.65
0
CIRCLE
5
A1
100
AcDbEntity
8
0
6
CONTINUOUS
62
255
370
-1
100
AcDbCircle
10
-273.049336143
20
108.150221286
40
1.65032325816
0
LINE
5
A2
100
AcDbEntity
8
0
6
CONTINUOUS
62
255
370
-1
100
AcDbLine
10
-307.348893572
20
114.249778714
11
-307.348893572
21
113.249778714
0
LINE
5
A3
100
AcDbEntity
8
0
6
CONTINUOUS
62
255
370
-1
100
AcDbLine
10
-305.849336143
20
110.690761826
11
-305.849336143
21
114.249778714
0
LINE
5
A4
100
AcDbEntity
8
0
6
CONTINUOUS
62
255
370
-1
100
AcDbLine
10
-302.849336143
20
107.690761826
11
-278.954691453
21
107.690761826
0
LINE
5
A5
100
AcDbEntity
8
0
6
CONTINUOUS
62
255
370
-1
100
AcDbLine
10
-267.143980834
20
107.690761826
11
-163.954691453
21
107.690761826
0
CIRCLE
5
A6
100
AcDbEntity
8
0
6
CONTINUOUS
62
255
370
-1
100
AcDbCircle
10
-378.648893572
20
130.249778714
40
1.25
0
CIRCLE
5
A7
100
AcDbEntity
8
0
6
CONTINUOUS
62
255
370
-1
100
AcDbCircle
10
-383.148893572
20
130.249778714
40
1.25
0
CIRCLE
5
A8
100
AcDbEntity
8
0
6
CONTINUOUS
62
255
370
-1
100
AcDbCircle
10
-387.648893572
20
130.249778714
40
1.25
0
CIRCLE
5
A9
100
AcDbEntity
8
0
6
CONTINUOUS
62
255
370
-1
100
AcDbCircle
10
-392.148893572
20
130.249778714
40
1.25
0
CIRCLE
5
AA
100
AcDbEntity
8
0
6
CONTINUOUS
62
255
370
-1
100
AcDbCircle
10
-396.648893572
20
130.249778714
40
1.25
0
CIRCLE
5
AB
100
AcDbEntity
8
0
6
CONTINUOUS
62
255
370
-1
100
AcDbCircle
10
-401.148893572
20
130.249778714
40
1.25
0
CIRCLE
5
AC
100
AcDbEntity
8
0
6
CONTINUOUS
62
255
370
-1
100
AcDbCircle
10
-324.648893572
20
134.749778714
40
1.25
0
CIRCLE
5
AD
100
AcDbEntity
8
0
6
CONTINUOUS
62
255
370
-1
100
AcDbCircle
10
-329.148893572
20
134.749778714
40
1.25
0
CIRCLE
5
AE
100
AcDbEntity
8
0
6
CONTINUOUS
62
255
370
-1
100
AcDbCircle
10
-333.648893572
20
134.749778714
40
1.25
0
CIRCLE
5
AF
100
AcDbEntity
8
0
6
CONTINUOUS
62
255
370
-1
100
AcDbCircle
10
-338.148893572
20
134.749778714
40
1.25
0
CIRCLE
5
B0
100
AcDbEntity
8
0
6
CONTINUOUS
62
255
370
-1
100
AcDbCircle
10
-342.648893572
20
134.749778714
40
1.25
0
CIRCLE
5
B1
100
AcDbEntity
8
0
6
CONTINUOUS
62
255
370
-1
100
AcDbCircle
10
-347.148893572
20
134.749778714
40
1.25
0
CIRCLE
5
B2
100
AcDbEntity
8
0
6
CONTINUOUS
62
255
370
-1
100
AcDbCircle
10
-351.648893572
20
134.749778714
40
1.25
0
CIRCLE
5
B3
100
AcDbEntity
8
0
6
CONTINUOUS
62
255
370
-1
100
AcDbCircle
10
-356.148893572
20
134.749778714
40
1.25
0
CIRCLE
5
B4
100
AcDbEntity
8
0
6
CONTINUOUS
62
255
370
-1
100
AcDbCircle
10
-360.648893572
20
134.749778714
40
1.25
0
CIRCLE
5
B5
100
AcDbEntity
8
0
6
CONTINUOUS
62
255
370
-1
100
AcDbCircle
10
-365.148893572
20
134.749778714
40
1.25
0
CIRCLE
5
B6
100
AcDbEntity
8
0
6
CONTINUOUS
62
255
370
-1
100
AcDbCircle
10
-369.648893572
20
134.749778714
40
1.25
0
CIRCLE
5
B7
100
AcDbEntity
8
0
6
CONTINUOUS
62
255
370
-1
100
AcDbCircle
10
-374.148893572
20
134.749778714
40
1.25
0
CIRCLE
5
B8
100
AcDbEntity
8
0
6
CONTINUOUS
62
255
370
-1
100
AcDbCircle
10
-378.648893572
20
134.749778714
40
1.25
0
CIRCLE
5
B9
100
AcDbEntity
8
0
6
CONTINUOUS
62
255
370
-1
100
AcDbCircle
10
-383.148893572
20
134.749778714
40
1.25
0
CIRCLE
5
BA
100
AcDbEntity
8
0
6
CONTINUOUS
62
255
370
-1
100
AcDbCircle
10
-387.648893572
20
134.749778714
40
1.25
0
CIRCLE
5
BB
100
AcDbEntity
8
0
6
CONTINUOUS
62
255
370
-1
100
AcDbCircle
10
-392.148893572
20
134.749778714
40
1.25
0
CIRCLE
5
BC
100
AcDbEntity
8
0
6
CONTINUOUS
62
255
370
-1
100
AcDbCircle
10
-396.648893572
20
134.749778714
40
1.25
0
CIRCLE
5
BD
100
AcDbEntity
8
0
6
CONTINUOUS
62
255
370
-1
100
AcDbCircle
10
-401.148893572
20
134.749778714
40
1.25
0
CIRCLE
5
BE
100
AcDbEntity
8
0
6
CONTINUOUS
62
255
370
-1
100
AcDbCircle
10
-320.148893572
20
125.749778714
40
1.25
0
CIRCLE
5
BF
100
AcDbEntity
8
0
6
CONTINUOUS
62
255
370
-1
100
AcDbCircle
10
-320.148893572
20
130.249778714
40
1.25
0
CIRCLE
5
C0
100
AcDbEntity
8
0
6
CONTINUOUS
62
255
370
-1
100
AcDbCircle
10
-320.148893572
20
134.749778714
40
1.25
0
CIRCLE
5
C1
100
AcDbEntity
8
0
6
CONTINUOUS
62
255
370
-1
100
AcDbCircle
10
-360.648893572
20
130.249778714
40
1.25
0
CIRCLE
5
C2
100
AcDbEntity
8
0
6
CONTINUOUS
62
255
370
-1
100
AcDbCircle
10
-333.648893572
20
130.249778714
40
1.25
0
LINE
5
C3
100
AcDbEntity
8
0
6
CONTINUOUS
62
255
370
-1
100
AcDbLine
10
-411.248893572
20
113.249778714
11
-417.498893572
21
113.249778714
0
LINE
5
C4
100
AcDbEntity
8
0
6
CONTINUOUS
62
255
370
-1
100
AcDbLine
10
-411.248893572
20
113.249778714
11
-411.248893572
21
111.249778714
0
LINE
5
C5
100
AcDbEntity
8
0
6
CONTINUOUS
62
255
370
-1
100
AcDbLine
10
-411.248893572
20
111.249778714
11
-403.048893572
21
111.249778714
0
LINE
5
C6
100
AcDbEntity
8
0
6
CONTINUOUS
62
255
370
-1
100
AcDbLine
10
-403.048893572
20
111.249778714
11
-403.048893572
21
113.249778714
0
LINE
5
C7
100
AcDbEntity
8
0
6
CONTINUOUS
62
255
370
-1
100
AcDbLine
10
-366.248893572
20
113.249778714
11
-403.048893572
21
113.249778714
0
LINE
5
C8
100
AcDbEntity
8
0
6
CONTINUOUS
62
255
370
-1
100
AcDbLine
10
-366.248893572
20
113.249778714
11
-366.248893572
21
111.249778714
0
LINE
5
C9
100
AcDbEntity
8
0
6
CONTINUOUS
62
255
370
-1
100
AcDbLine
10
-366.248893572
20
111.249778714
11
-358.048893572
21
111.249778714
0
LINE
5
CA
100
AcDbEntity
8
0
6
CONTINUOUS
62
255
370
-1
100
AcDbLine
10
-358.048893572
20
111.249778714
11
-358.048893572
21
113.249778714
0
LINE
5
CB
100
AcDbEntity
8
0
6
CONTINUOUS
62
255
370
-1
100
AcDbLine
10
-321.248893572
20
113.249778714
11
-358.048893572
21
113.249778714
0
LINE
5
CC
100
AcDbEntity
8
0
6
CONTINUOUS
62
255
370
-1
100
AcDbLine
10
-321.248893572
20
113.249778714
11
-321.248893572
21
111.249778714
0
LINE
5
CD
100
AcDbEntity
8
0
6
CONTINUOUS
62
255
370
-1
100
AcDbLine
10
-321.248893572
20
111.249778714
11
-313.048893572
21
111.249778714
0
LINE
5
CE
100
AcDbEntity
8
0
6
CONTINUOUS
62
255
370
-1
100
AcDbLine
10
-313.048893572
20
111.249778714
11
-313.048893572
21
113.249778714
0
LINE
5
CF
100
AcDbEntity
8
0
6
CONTINUOUS
62
255
370
-1
100
AcDbLine
10
-307.348893572
20
113.249778714
11
-313.048893572
21
113.249778714
0
LINE
5
D0
100
AcDbEntity
8
0
6
CONTINUOUS
62
255
370
-1
100
AcDbLine
10
-307.348893572
20
114.249778714
11
-307.348893572
21
113.249778714
0
LINE
5
D1
100
AcDbEntity
8
0
6
CONTINUOUS
62
255
370
-1
100
AcDbLine
10
-305.849336143
20
110.690761826
11
-305.849336143
21
114.249778714
0
LINE
5
D2
100
AcDbEntity
8
0
6
CONTINUOUS
62
255
370
-1
100
AcDbLine
10
-307.348893572
20
114.249778714
11
-305.849336143
21
114.249778714
0
CIRCLE
5
D3
100
AcDbEntity
8
0
6
CONTINUOUS
62
255
370
-1
100
AcDbCircle
10
-320.148893572
20
121.249778714
40
1.25
0
CIRCLE
5
D4
100
AcDbEntity
8
0
6
CONTINUOUS
62
255
370
-1
100
AcDbCircle
10
-324.648893572
20
121.249778714
40
1.25
0
CIRCLE
5
D5
100
AcDbEntity
8
0
6
CONTINUOUS
62
255
370
-1
100
AcDbCircle
10
-329.148893572
20
121.249778714
40
1.25
0
CIRCLE
5
D6
100
AcDbEntity
8
0
6
CONTINUOUS
62
255
370
-1
100
AcDbCircle
10
-333.648893572
20
121.249778714
40
1.25
0
CIRCLE
5
D7
100
AcDbEntity
8
0
6
CONTINUOUS
62
255
370
-1
100
AcDbCircle
10
-338.148893572
20
121.249778714
40
1.25
0
CIRCLE
5
D8
100
AcDbEntity
8
0
6
CONTINUOUS
62
255
370
-1
100
AcDbCircle
10
-342.648893572
20
121.249778714
40
1.25
0
CIRCLE
5
D9
100
AcDbEntity
8
0
6
CONTINUOUS
62
255
370
-1
100
AcDbCircle
10
-347.148893572
20
121.249778714
40
1.25
0
CIRCLE
5
DA
100
AcDbEntity
8
0
6
CONTINUOUS
62
255
370
-1
100
AcDbCircle
10
-351.648893572
20
121.249778714
40
1.25
0
CIRCLE
5
DB
100
AcDbEntity
8
0
6
CONTINUOUS
62
255
370
-1
100
AcDbCircle
10
-356.148893572
20
121.249778714
40
1.25
0
CIRCLE
5
DC
100
AcDbEntity
8
0
6
CONTINUOUS
62
255
370
-1
100
AcDbCircle
10
-360.648893572
20
121.249778714
40
1.25
0
CIRCLE
5
DD
100
AcDbEntity
8
0
6
CONTINUOUS
62
255
370
-1
100
AcDbCircle
10
-365.148893572
20
121.249778714
40
1.25
0
CIRCLE
5
DE
100
AcDbEntity
8
0
6
CONTINUOUS
62
255
370
-1
100
AcDbCircle
10
-369.648893572
20
121.249778714
40
1.25
0
CIRCLE
5
DF
100
AcDbEntity
8
0
6
CONTINUOUS
62
255
370
-1
100
AcDbCircle
10
-374.148893572
20
121.249778714
40
1.25
0
CIRCLE
5
E0
100
AcDbEntity
8
0
6
CONTINUOUS
62
255
370
-1
100
AcDbCircle
10
-378.648893572
20
121.249778714
40
1.25
0
CIRCLE
5
E1
100
AcDbEntity
8
0
6
CONTINUOUS
62
255
370
-1
100
AcDbCircle
10
-383.148893572
20
121.249778714
40
1.25
0
CIRCLE
5
E2
100
AcDbEntity
8
0
6
CONTINUOUS
62
255
370
-1
100
AcDbCircle
10
-387.648893572
20
121.249778714
40
1.25
0
CIRCLE
5
E3
100
AcDbEntity
8
0
6
CONTINUOUS
62
255
370
-1
100
AcDbCircle
10
-392.148893572
20
121.249778714
40
1.25
0
CIRCLE
5
E4
100
AcDbEntity
8
0
6
CONTINUOUS
62
255
370
-1
100
AcDbCircle
10
-396.648893572
20
121.249778714
40
1.25
0
CIRCLE
5
E5
100
AcDbEntity
8
0
6
CONTINUOUS
62
255
370
-1
100
AcDbCircle
10
-401.148893572
20
121.249778714
40
1.25
0
CIRCLE
5
E6
100
AcDbEntity
8
0
6
CONTINUOUS
62
255
370
-1
100
AcDbCircle
10
-324.648893572
20
125.749778714
40
1.25
0
CIRCLE
5
E7
100
AcDbEntity
8
0
6
CONTINUOUS
62
255
370
-1
100
AcDbCircle
10
-329.148893572
20
125.749778714
40
1.25
0
CIRCLE
5
E8
100
AcDbEntity
8
0
6
CONTINUOUS
62
255
370
-1
100
AcDbCircle
10
-333.648893572
20
125.749778714
40
1.25
0
CIRCLE
5
E9
100
AcDbEntity
8
0
6
CONTINUOUS
62
255
370
-1
100
AcDbCircle
10
-338.148893572
20
125.749778714
40
1.25
0
CIRCLE
5
EA
100
AcDbEntity
8
0
6
CONTINUOUS
62
255
370
-1
100
AcDbCircle
10
-342.648893572
20
125.749778714
40
1.25
0
CIRCLE
5
EB
100
AcDbEntity
8
0
6
CONTINUOUS
62
255
370
-1
100
AcDbCircle
10
-347.148893572
20
125.749778714
40
1.25
0
CIRCLE
5
EC
100
AcDbEntity
8
0
6
CONTINUOUS
62
255
370
-1
100
AcDbCircle
10
-351.648893572
20
125.749778714
40
1.25
0
CIRCLE
5
ED
100
AcDbEntity
8
0
6
CONTINUOUS
62
255
370
-1
100
AcDbCircle
10
-356.148893572
20
125.749778714
40
1.25
0
CIRCLE
5
EE
100
AcDbEntity
8
0
6
CONTINUOUS
62
255
370
-1
100
AcDbCircle
10
-360.648893572
20
125.749778714
40
1.25
0
CIRCLE
5
EF
100
AcDbEntity
8
0
6
CONTINUOUS
62
255
370
-1
100
AcDbCircle
10
-365.148893572
20
125.749778714
40
1.25
0
CIRCLE
5
F0
100
AcDbEntity
8
0
6
CONTINUOUS
62
255
370
-1
100
AcDbCircle
10
-369.648893572
20
125.749778714
40
1.25
0
CIRCLE
5
F1
100
AcDbEntity
8
0
6
CONTINUOUS
62
255
370
-1
100
AcDbCircle
10
-374.148893572
20
125.749778714
40
1.25
0
CIRCLE
5
F2
100
AcDbEntity
8
0
6
CONTINUOUS
62
255
370
-1
100
AcDbCircle
10
-378.648893572
20
125.749778714
40
1.25
0
CIRCLE
5
F3
100
AcDbEntity
8
0
6
CONTINUOUS
62
255
370
-1
100
AcDbCircle
10
-383.148893572
20
125.749778714
40
1.25
0
CIRCLE
5
F4
100
AcDbEntity
8
0
6
CONTINUOUS
62
255
370
-1
100
AcDbCircle
10
-387.648893572
20
125.749778714
40
1.25
0
CIRCLE
5
F5
100
AcDbEntity
8
0
6
CONTINUOUS
62
255
370
-1
100
AcDbCircle
10
-392.148893572
20
125.749778714
40
1.25
0
CIRCLE
5
F6
100
AcDbEntity
8
0
6
CONTINUOUS
62
255
370
-1
100
AcDbCircle
10
-396.648893572
20
125.749778714
40
1.25
0
CIRCLE
5
F7
100
AcDbEntity
8
0
6
CONTINUOUS
62
255
370
-1
100
AcDbCircle
10
-401.148893572
20
125.749778714
40
1.25
0
CIRCLE
5
F8
100
AcDbEntity
8
0
6
CONTINUOUS
62
255
370
-1
100
AcDbCircle
10
-324.648893572
20
130.249778714
40
1.25
0
CIRCLE
5
F9
100
AcDbEntity
8
0
6
CONTINUOUS
62
255
370
-1
100
AcDbCircle
10
-329.148893572
20
130.249778714
40
1.25
0
CIRCLE
5
FA
100
AcDbEntity
8
0
6
CONTINUOUS
62
255
370
-1
100
AcDbCircle
10
-338.148893572
20
130.249778714
40
1.25
0
CIRCLE
5
FB
100
AcDbEntity
8
0
6
CONTINUOUS
62
255
370
-1
100
AcDbCircle
10
-342.648893572
20
130.249778714
40
1.25
0
CIRCLE
5
FC
100
AcDbEntity
8
0
6
CONTINUOUS
62
255
370
-1
100
AcDbCircle
10
-347.148893572
20
130.249778714
40
1.25
0
CIRCLE
5
FD
100
AcDbEntity
8
0
6
CONTINUOUS
62
255
370
-1
100
AcDbCircle
10
-351.648893572
20
130.249778714
40
1.25
0
CIRCLE
5
FE
100
AcDbEntity
8
0
6
CONTINUOUS
62
255
370
-1
100
AcDbCircle
10
-356.148893572
20
130.249778714
40
1.25
0
CIRCLE
5
FF
100
AcDbEntity
8
0
6
CONTINUOUS
62
255
370
-1
100
AcDbCircle
10
-365.148893572
20
130.249778714
40
1.25
0
CIRCLE
5
100
100
AcDbEntity
8
0
6
CONTINUOUS
62
255
370
-1
100
AcDbCircle
10
-369.648893572
20
130.249778714
40
1.25
0
CIRCLE
5
101
100
AcDbEntity
8
0
6
CONTINUOUS
62
255
370
-1
100
AcDbCircle
10
-374.148893572
20
130.249778714
40
1.25
0
LINE
5
102
100
AcDbEntity
8
0
6
CONTINUOUS
62
255
370
-1
100
AcDbLine
10
-294.949336143
20
142.049778714
11
-327.595317065
21
142.049778714
0
CIRCLE
5
103
100
AcDbEntity
8
0
6
CONTINUOUS
62
7
370
-1
100
AcDbCircle
10
76.3497787144
20
100.150221285
40
1.65032325816
0
CIRCLE
5
104
100
AcDbEntity
8
0
6
CONTINUOUS
62
7
370
-1
100
AcDbCircle
10
-38.6502212856
20
100.150221285
40
1.65032325816
0
CIRCLE
5
105
100
AcDbEntity
8
0
6
CONTINUOUS
62
7
370
-1
100
AcDbCircle
10
-37.2502212856
20
119.249778714
40
1.25
0
CIRCLE
5
106
100
AcDbEntity
8
0
6
CONTINUOUS
62
7
370
-1
100
AcDbCircle
10
-37.2502212856
20
123.749778714
40
1.25
0
CIRCLE
5
107
100
AcDbEntity
8
0
6
CONTINUOUS
62
7
370
-1
100
AcDbCircle
10
-37.2502212856
20
128.249778714
40
1.25
0
CIRCLE
5
108
100
AcDbEntity
8
0
6
CONTINUOUS
62
7
370
-1
100
AcDbCircle
10
-32.7502212856
20
123.749778714
40
1.25
0
CIRCLE
5
109
100
AcDbEntity
8
0
6
CONTINUOUS
62
7
370
-1
100
AcDbCircle
10
-32.7502212856
20
128.249778714
40
1.25
0
CIRCLE
5
10A
100
AcDbEntity
8
0
6
CONTINUOUS
62
7
370
-1
100
AcDbCircle
10
-28.2502212856
20
123.749778714
40
1.25
0
CIRCLE
5
10B
100
AcDbEntity
8
0
6
CONTINUOUS
62
7
370
-1
100
AcDbCircle
10
-28.2502212856
20
128.249778714
40
1.25
0
CIRCLE
5
10C
100
AcDbEntity
8
0
6
CONTINUOUS
62
7
370
-1
100
AcDbCircle
10
-23.7502212856
20
123.749778714
40
1.25
0
CIRCLE
5
10D
100
AcDbEntity
8
0
6
CONTINUOUS
62
7
370
-1
100
AcDbCircle
10
-23.7502212856
20
128.249778714
40
1.25
0
CIRCLE
5
10E
100
AcDbEntity
8
0
6
CONTINUOUS
62
7
370
-1
100
AcDbCircle
10
-19.2502212856
20
123.749778714
40
1.25
0
CIRCLE
5
10F
100
AcDbEntity
8
0
6
CONTINUOUS
62
7
370
-1
100
AcDbCircle
10
-19.2502212856
20
128.249778714
40
1.25
0
CIRCLE
5
110
100
AcDbEntity
8
0
6
CONTINUOUS
62
7
370
-1
100
AcDbCircle
10
-14.7502212856
20
123.749778714
40
1.25
0
CIRCLE
5
111
100
AcDbEntity
8
0
6
CONTINUOUS
62
7
370
-1
100
AcDbCircle
10
-14.7502212856
20
128.249778714
40
1.25
0
CIRCLE
5
112
100
AcDbEntity
8
0
6
CONTINUOUS
62
7
370
-1
100
AcDbCircle
10
-32.7502212856
20
119.249778714
40
1.25
0
CIRCLE
5
113
100
AcDbEntity
8
0
6
CONTINUOUS
62
7
370
-1
100
AcDbCircle
10
-28.2502212856
20
119.249778714
40
1.25
0
CIRCLE
5
114
100
AcDbEntity
8
0
6
CONTINUOUS
62
7
370
-1
100
AcDbCircle
10
-23.7502212856
20
119.249778714
40
1.25
0
CIRCLE
5
115
100
AcDbEntity
8
0
6
CONTINUOUS
62
7
370
-1
100
AcDbCircle
10
-19.2502212856
20
119.249778714
40
1.25
0
CIRCLE
5
116
100
AcDbEntity
8
0
6
CONTINUOUS
62
7
370
-1
100
AcDbCircle
10
-14.7502212856
20
119.249778714
40
1.25
0
LINE
5
117
100
AcDbEntity
8
0
6
CONTINUOUS
62
7
370
-1
100
AcDbLine
10
-42.0502212856
20
100.150221285
11
-42.0502212856
21
114.249778714
0
LINE
5
118
100
AcDbEntity
8
0
6
CONTINUOUS
62
7
370
-1
100
AcDbLine
10
-35.2502212856
20
100.150221285
11
-35.2502212856
21
101.850221285
0
LINE
5
119
100
AcDbEntity
8
0
6
CONTINUOUS
62
7
370
-1
100
AcDbLine
10
-31.2502212856
20
105.850221285
11
68.9497787144
21
105.850221285
0
LINE
5
11A
100
AcDbEntity
8
0
6
CONTINUOUS
62
7
370
-1
100
AcDbLine
10
72.9497787144
20
101.850221285
11
72.9497787144
21
100.150221285
0
LINE
5
11B
100
AcDbEntity
8
0
6
CONTINUOUS
62
7
370
-1
100
AcDbLine
10
79.7497787144
20
100.150221285
11
79.7497787144
21
101.850221285
0
LINE
5
11C
100
AcDbEntity
8
0
6
CONTINUOUS
62
7
370
-1
100
AcDbLine
10
83.7497787144
20
105.850221285
11
106.149778714
21
105.850221285
0
LINE
5
11D
100
AcDbEntity
8
0
6
CONTINUOUS
62
7
370
-1
100
AcDbLine
10
109.149778714
20
114.249778714
11
109.149778714
21
108.850221285
0
LINE
5
11E
100
AcDbEntity
8
0
6
CONTINUOUS
62
7
370
-1
100
AcDbLine
10
110.349778714
20
131.649778714
11
110.349778714
21
123.649778714
0
LINE
5
11F
100
AcDbEntity
8
0
6
CONTINUOUS
62
7
370
-1
100
AcDbLine
10
109.149778714
20
114.249778714
11
110.349778714
21
114.249778714
0
LINE
5
120
100
AcDbEntity
8
0
6
CONTINUOUS
62
7
370
-1
100
AcDbLine
10
110.349778714
20
119.649778714
11
110.349778714
21
114.249778714
0
LINE
5
121
100
AcDbEntity
8
0
6
CONTINUOUS
62
7
370
-1
100
AcDbLine
10
111.349778714
20
119.649778714
11
110.349778714
21
119.649778714
0
LINE
5
122
100
AcDbEntity
8
0
6
CONTINUOUS
62
7
370
-1
100
AcDbLine
10
113.349778714
20
133.649778714
11
113.349778714
21
121.649778714
0
LINE
5
123
100
AcDbEntity
8
0
6
CONTINUOUS
62
7
370
-1
100
AcDbLine
10
110.349778714
20
135.649778714
11
111.349778714
21
135.649778714
0
LINE
5
124
100
AcDbEntity
8
0
6
CONTINUOUS
62
7
370
-1
100
AcDbLine
10
110.349778714
20
142.049778714
11
110.349778714
21
135.649778714
0
LINE
5
125
100
AcDbEntity
8
0
6
CONTINUOUS
62
7
370
-1
100
AcDbLine
10
110.349778714
20
142.049778714
11
98.3497787144
21
142.049778714
0
LINE
5
126
100
AcDbEntity
8
0
6
CONTINUOUS
62
7
370
-1
100
AcDbLine
10
98.3497787144
20
142.049778714
11
98.3497787144
21
142.21054823
0
LINE
5
127
100
AcDbEntity
8
0
6
CONTINUOUS
62
7
370
-1
100
AcDbLine
10
97.7497787144
20
143.249778714
11
98.3497787144
21
142.21054823
0
LINE
5
128
100
AcDbEntity
8
0
6
CONTINUOUS
62
7
370
-1
100
AcDbLine
10
97.7497787144
20
143.249778714
11
68.9497787144
21
143.249778714
0
LINE
5
129
100
AcDbEntity
8
0
6
CONTINUOUS
62
7
370
-1
100
AcDbLine
10
68.3497787144
20
142.21054823
11
68.9497787144
21
143.249778714
0
LINE
5
12A
100
AcDbEntity
8
0
6
CONTINUOUS
62
7
370
-1
100
AcDbLine
10
68.3497787144
20
142.21054823
11
68.3497787144
21
139.749778714
0
LINE
5
12B
100
AcDbEntity
8
0
6
CONTINUOUS
62
7
370
-1
100
AcDbLine
10
65.1497787144
20
139.749778714
11
65.1497787144
21
142.21054823
0
LINE
5
12C
100
AcDbEntity
8
0
6
CONTINUOUS
62
7
370
-1
100
AcDbLine
10
64.5497787144
20
143.249778714
11
65.1497787144
21
142.21054823
0
LINE
5
12D
100
AcDbEntity
8
0
6
CONTINUOUS
62
7
370
-1
100
AcDbLine
10
64.5497787144
20
143.249778714
11
48.9497787144
21
143.249778714
0
LINE
5
12E
100
AcDbEntity
8
0
6
CONTINUOUS
62
7
370
-1
100
AcDbLine
10
48.3497787144
20
142.21054823
11
48.9497787144
21
143.249778714
0
LINE
5
12F
100
AcDbEntity
8
0
6
CONTINUOUS
62
7
370
-1
100
AcDbLine
10
48.3497787144
20
142.21054823
11
48.3497787144
21
139.749778714
0
LINE
5
130
100
AcDbEntity
8
0
6
CONTINUOUS
62
7
370
-1
100
AcDbLine
10
45.1497787144
20
139.749778714
11
45.1497787144
21
142.21054823
0
LINE
5
131
100
AcDbEntity
8
0
6
CONTINUOUS
62
7
370
-1
100
AcDbLine
10
44.5497787144
20
143.249778714
11
45.1497787144
21
142.21054823
0
LINE
5
132
100
AcDbEntity
8
0
6
CONTINUOUS
62
7
370
-1
100
AcDbLine
10
44.5497787144
20
143.249778714
11
38.3497787144
21
143.249778714
0
LINE
5
133
100
AcDbEntity
8
0
6
CONTINUOUS
62
7
370
-1
100
AcDbLine
10
37.7497787144
20
142.21054823
11
38.3497787144
21
143.249778714
0
LINE
5
134
100
AcDbEntity
8
0
6
CONTINUOUS
62
7
370
-1
100
AcDbLine
10
37.7497787144
20
142.21054823
11
37.7497787144
21
140.649778714
0
LINE
5
135
100
AcDbEntity
8
0
6
CONTINUOUS
62
7
370
-1
100
AcDbLine
10
35.7497787144
20
140.649778714
11
35.7497787144
21
142.21054823
0
LINE
5
136
100
AcDbEntity
8
0
6
CONTINUOUS
62
7
370
-1
100
AcDbLine
10
35.1497787144
20
143.249778714
11
35.7497787144
21
142.21054823
0
LINE
5
137
100
AcDbEntity
8
0
6
CONTINUOUS
62
7
370
-1
100
AcDbLine
10
35.1497787144
20
143.249778714
11
28.9497787144
21
143.249778714
0
LINE
5
138
100
AcDbEntity
8
0
6
CONTINUOUS
62
7
370
-1
100
AcDbLine
10
28.3497787144
20
142.21054823
11
28.9497787144
21
143.249778714
0
LINE
5
139
100
AcDbEntity
8
0
6
CONTINUOUS
62
7
370
-1
100
AcDbLine
10
28.3497787144
20
142.21054823
11
28.3497787144
21
139.749778714
0
LINE
5
13A
100
AcDbEntity
8
0
6
CONTINUOUS
62
7
370
-1
100
AcDbLine
10
25.1497787144
20
139.749778714
11
25.1497787144
21
142.21054823
0
LINE
5
13B
100
AcDbEntity
8
0
6
CONTINUOUS
62
7
370
-1
100
AcDbLine
10
24.5497787144
20
143.249778714
11
25.1497787144
21
142.21054823
0
LINE
5
13C
100
AcDbEntity
8
0
6
CONTINUOUS
62
7
370
-1
100
AcDbLine
10
24.5497787144
20
143.249778714
11
18.9497787144
21
143.249778714
0
LINE
5
13D
100
AcDbEntity
8
0
6
CONTINUOUS
62
7
370
-1
100
AcDbLine
10
18.3497787144
20
142.21054823
11
18.9497787144
21
143.249778714
0
LINE
5
13E
100
AcDbEntity
8
0
6
CONTINUOUS
62
7
370
-1
100
AcDbLine
10
18.3497787144
20
142.21054823
11
18.3497787144
21
139.749778714
0
LINE
5
13F
100
AcDbEntity
8
0
6
CONTINUOUS
62
7
370
-1
100
AcDbLine
10
15.1497787144
20
139.749778714
11
15.1497787144
21
142.21054823
0
LINE
5
140
100
AcDbEntity
8
0
6
CONTINUOUS
62
7
370
-1
100
AcDbLine
10
14.5497787144
20
143.249778714
11
15.1497787144
21
142.21054823
0
LINE
5
141
100
AcDbEntity
8
0
6
CONTINUOUS
62
7
370
-1
100
AcDbLine
10
14.5497787144
20
143.249778714
11
8.9497787144
21
143.249778714
0
LINE
5
142
100
AcDbEntity
8
0
6
CONTINUOUS
62
7
370
-1
100
AcDbLine
10
8.3497787144
20
142.21054823
11
8.9497787144
21
143.249778714
0
LINE
5
143
100
AcDbEntity
8
0
6
CONTINUOUS
62
7
370
-1
100
AcDbLine
10
8.3497787144
20
142.21054823
11
8.3497787144
21
139.749778714
0
LINE
5
144
100
AcDbEntity
8
0
6
CONTINUOUS
62
7
370
-1
100
AcDbLine
10
5.1497787144
20
139.749778714
11
5.1497787144
21
142.21054823
0
LINE
5
145
100
AcDbEntity
8
0
6
CONTINUOUS
62
7
370
-1
100
AcDbLine
10
4.5497787144
20
143.249778714
11
5.1497787144
21
142.21054823
0
LINE
5
146
100
AcDbEntity
8
0
6
CONTINUOUS
62
7
370
-1
100
AcDbLine
10
4.5497787144
20
143.249778714
11
-12.0502212856
21
143.249778714
0
LINE
5
147
100
AcDbEntity
8
0
6
CONTINUOUS
62
7
370
-1
100
AcDbLine
10
-12.6502212856
20
142.21054823
11
-12.0502212856
21
143.249778714
0
LINE
5
148
100
AcDbEntity
8
0
6
CONTINUOUS
62
7
370
-1
100
AcDbLine
10
-12.6502212856
20
142.21054823
11
-12.6502212856
21
136.799778714
0
LINE
5
149
100
AcDbEntity
8
0
6
CONTINUOUS
62
7
370
-1
100
AcDbLine
10
-16.1502212856
20
136.799778714
11
-16.1502212856
21
142.21054823
0
LINE
5
14A
100
AcDbEntity
8
0
6
CONTINUOUS
62
7
370
-1
100
AcDbLine
10
-16.7502212856
20
143.249778714
11
-16.1502212856
21
142.21054823
0
LINE
5
14B
100
AcDbEntity
8
0
6
CONTINUOUS
62
7
370
-1
100
AcDbLine
10
-16.7502212856
20
143.249778714
11
-30.6502212856
21
143.249778714
0
LINE
5
14C
100
AcDbEntity
8
0
6
CONTINUOUS
62
7
370
-1
100
AcDbLine
10
-31.2502212856
20
142.21054823
11
-30.6502212856
21
143.249778714
0
LINE
5
14D
100
AcDbEntity
8
0
6
CONTINUOUS
62
7
370
-1
100
AcDbLine
10
-31.2502212856
20
142.049778714
11
-31.2502212856
21
142.21054823
0
LINE
5
14E
100
AcDbEntity
8
0
6
CONTINUOUS
62
7
370
-1
100
AcDbLine
10
-31.2502212856
20
142.049778714
11
-52.3497787144
21
142.049778714
0
LINE
5
14F
100
AcDbEntity
8
0
6
CONTINUOUS
62
7
370
-1
100
AcDbLine
10
110.349778714
20
123.649778714
11
109.649778714
21
123.649778714
0
LINE
5
150
100
AcDbEntity
8
0
6
CONTINUOUS
62
7
370
-1
100
AcDbLine
10
109.649778714
20
123.649778714
11
109.649778714
21
131.649778714
0
LINE
5
151
100
AcDbEntity
8
0
6
CONTINUOUS
62
7
370
-1
100
AcDbLine
10
109.649778714
20
131.649778714
11
110.349778714
21
131.649778714
0
ARC
5
152
100
AcDbEntity
8
0
6
CONTINUOUS
62
7
370
-1
100
AcDbCircle
10
-38.6502212856
20
100.150221285
40
3.4
100
AcDbArc
50
180
51
360
0
ARC
5
153
100
AcDbEntity
8
0
6
CONTINUOUS
62
7
370
-1
100
AcDbCircle
10
-31.2502212856
20
101.850221285
40
4
100
AcDbArc
50
90
51
180
0
ARC
5
154
100
AcDbEntity
8
0
6
CONTINUOUS
62
7
370
-1
100
AcDbCircle
10
68.9497787144
20
101.850221285
40
4
100
AcDbArc
50
360
51
90
0
ARC
5
155
100
AcDbEntity
8
0
6
CONTINUOUS
62
7
370
-1
100
AcDbCircle
10
76.3497787144
20
100.150221285
40
3.4
100
AcDbArc
50
180
51
360
0
ARC
5
156
100
AcDbEntity
8
0
6
CONTINUOUS
62
7
370
-1
100
AcDbCircle
10
83.7497787144
20
101.850221285
40
4
100
AcDbArc
50
90
51
180
0
ARC
5
157
100
AcDbEntity
8
0
6
CONTINUOUS
62
7
370
-1
100
AcDbCircle
10
106.149778714
20
108.850221285
40
3
100
AcDbArc
50
270
51
360
0
ARC
5
158
100
AcDbEntity
8
0
6
CONTINUOUS
62
7
370
-1
100
AcDbCircle
10
111.349778714
20
121.649778714
40
2
100
AcDbArc
50
270
51
360
0
ARC
5
159
100
AcDbEntity
8
0
6
CONTINUOUS
62
7
370
-1
100
AcDbCircle
10
111.349778714
20
133.649778714
40
2
100
AcDbArc
50
360
51
90
0
ARC
5
15A
100
AcDbEntity
8
0
6
CONTINUOUS
62
7
370
-1
100
AcDbCircle
10
66.7497787144
20
139.749778714
40
1.6
100
AcDbArc
50
180
51
360
0
ARC
5
15B
100
AcDbEntity
8
0
6
CONTINUOUS
62
7
370
-1
100
AcDbCircle
10
46.7497787144
20
139.749778714
40
1.6
100
AcDbArc
50
180
51
360
0
ARC
5
15C
100
AcDbEntity
8
0
6
CONTINUOUS
62
7
370
-1
100
AcDbCircle
10
36.7497787144
20
140.649778714
40
1
100
AcDbArc
50
180
51
360
0
ARC
5
15D
100
AcDbEntity
8
0
6
CONTINUOUS
62
7
370
-1
100
AcDbCircle
10
26.7497787144
20
139.749778714
40
1.6
100
AcDbArc
50
180
51
360
0
ARC
5
15E
100
AcDbEntity
8
0
6
CONTINUOUS
62
7
370
-1
100
AcDbCircle
10
16.7497787144
20
139.749778714
40
1.6
100
AcDbArc
50
180
51
360
0
ARC
5
15F
100
AcDbEntity
8
0
6
CONTINUOUS
62
7
370
-1
100
AcDbCircle
10
6.7497787144
20
139.749778714
40
1.6
100
AcDbArc
50
180
51
360
0
ARC
5
160
100
AcDbEntity
8
0
6
CONTINUOUS
62
7
370
-1
100
AcDbCircle
10
-14.4002212856
20
136.799778714
40
1.75
100
AcDbArc
50
180
51
360
0
LINE
5
161
100
AcDbEntity
8
0
6
CONTINUOUS
62
7
370
-1
100
AcDbLine
10
-95.749778714
20
116.949778714
11
-103.849778714
21
116.949778714
0
LINE
5
162
100
AcDbEntity
8
0
6
CONTINUOUS
62
7
370
-1
100
AcDbLine
10
-104.049778714
20
117.149778714
11
-104.049778714
21
120.249778714
0
LINE
5
163
100
AcDbEntity
8
0
6
CONTINUOUS
62
7
370
-1
100
AcDbLine
10
-103.849778714
20
120.449778714
11
-95.749778714
21
120.449778714
0
LINE
5
164
100
AcDbEntity
8
0
6
CONTINUOUS
62
7
370
-1
100
AcDbLine
10
-95.549778714
20
120.249778714
11
-95.549778714
21
117.149778714
0
LINE
5
165
100
AcDbEntity
8
0
6
CONTINUOUS
62
7
370
-1
100
AcDbLine
10
-108.049778714
20
116.949778714
11
-122.649778714
21
116.949778714
0
LINE
5
166
100
AcDbEntity
8
0
6
CONTINUOUS
62
7
370
-1
100
AcDbLine
10
-122.849778714
20
117.149778714
11
-122.849778714
21
119.249778714
0
LINE
5
167
100
AcDbEntity
8
0
6
CONTINUOUS
62
7
370
-1
100
AcDbLine
10
-122.649778714
20
119.449778714
11
-108.049778714
21
119.449778714
0
LINE
5
168
100
AcDbEntity
8
0
6
CONTINUOUS
62
7
370
-1
100
AcDbLine
10
-107.849778714
20
119.249778714
11
-107.849778714
21
117.149778714
0
LINE
5
169
100
AcDbEntity
8
0
6
CONTINUOUS
62
7
370
-1
100
AcDbLine
10
-129.049778714
20
116.949778714
11
-143.649778714
21
116.949778714
0
LINE
5
16A
100
AcDbEntity
8
0
6
CONTINUOUS
62
7
370
-1
100
AcDbLine
10
-143.849778714
20
117.149778714
11
-143.849778714
21
130.349778714
0
LINE
5
16B
100
AcDbEntity
8
0
6
CONTINUOUS
62
7
370
-1
100
AcDbLine
10
-143.649778714
20
130.549778714
11
-129.049778714
21
130.549778714
0
LINE
5
16C
100
AcDbEntity
8
0
6
CONTINUOUS
62
7
370
-1
100
AcDbLine
10
-128.849778714
20
130.349778714
11
-128.849778714
21
117.149778714
0
ARC
5
16D
100
AcDbEntity
8
0
6
CONTINUOUS
62
7
370
-1
100
AcDbCircle
10
-95.749778714
20
117.149778714
40
0.2
100
AcDbArc
50
270
51
360
0
ARC
5
16E
100
AcDbEntity
8
0
6
CONTINUOUS
62
7
370
-1
100
AcDbCircle
10
-103.849778714
20
117.149778714
40
0.2
100
AcDbArc
50
180
51
270
0
ARC
5
16F
100
AcDbEntity
8
0
6
CONTINUOUS
62
7
370
-1
100
AcDbCircle
10
-103.849778714
20
120.249778714
40
0.2
100
AcDbArc
50
90
51
180
0
ARC
5
170
100
AcDbEntity
8
0
6
CONTINUOUS
62
7
370
-1
100
AcDbCircle
10
-95.749778714
20
120.249778714
40
0.2
100
AcDbArc
50
360
51
90
0
ARC
5
171
100
AcDbEntity
8
0
6
CONTINUOUS
62
7
370
-1
100
AcDbCircle
10
-108.049778714
20
117.149778714
40
0.2
100
AcDbArc
50
270
51
360
0
ARC
5
172
100
AcDbEntity
8
0
6
CONTINUOUS
62
7
370
-1
100
AcDbCircle
10
-122.649778714
20
117.149778714
40
0.2
100
AcDbArc
50
180
51
270
0
ARC
5
173
100
AcDbEntity
8
0
6
CONTINUOUS
62
7
370
-1
100
AcDbCircle
10
-122.649778714
20
119.249778714
40
0.2
100
AcDbArc
50
90
51
180
0
ARC
5
174
100
AcDbEntity
8
0
6
CONTINUOUS
62
7
370
-1
100
AcDbCircle
10
-108.049778714
20
119.249778714
40
0.2
100
AcDbArc
50
360
51
90
0
ARC
5
175
100
AcDbEntity
8
0
6
CONTINUOUS
62
7
370
-1
100
AcDbCircle
10
-129.049778714
20
117.149778714
40
0.2
100
AcDbArc
50
270
51
360
0
ARC
5
176
100
AcDbEntity
8
0
6
CONTINUOUS
62
7
370
-1
100
AcDbCircle
10
-143.649778714
20
117.149778714
40
0.2
100
AcDbArc
50
180
51
270
0
ARC
5
177
100
AcDbEntity
8
0
6
CONTINUOUS
62
7
370
-1
100
AcDbCircle
10
-143.649778714
20
130.349778714
40
0.2
100
AcDbArc
50
90
51
180
0
ARC
5
178
100
AcDbEntity
8
0
6
CONTINUOUS
62
7
370
-1
100
AcDbCircle
10
-129.049778714
20
130.349778714
40
0.2
100
AcDbArc
50
360
51
90
0
LINE
5
179
100
AcDbEntity
8
0
6
CONTINUOUS
62
7
370
-1
100
AcDbLine
10
-279.949336143
20
142.049778714
11
-279.949336143
21
142.210548229
0
LINE
5
17A
100
AcDbEntity
8
0
6
CONTINUOUS
62
7
370
-1
100
AcDbLine
10
-280.549336143
20
143.249778714
11
-279.949336143
21
142.210548229
0
LINE
5
17B
100
AcDbEntity
8
0
6
CONTINUOUS
62
7
370
-1
100
AcDbLine
10
-294.949336143
20
142.210548229
11
-294.349336143
21
143.249778714
0
LINE
5
17C
100
AcDbEntity
8
0
6
CONTINUOUS
62
7
370
-1
100
AcDbLine
10
-294.949336143
20
142.049778714
11
-294.949336143
21
142.210548229
0
LINE
5
17D
100
AcDbEntity
8
0
6
CONTINUOUS
62
7
370
-1
100
AcDbLine
10
-417.498893572
20
113.249778714
11
-417.498893572
21
123.899778714
0
LINE
5
17E
100
AcDbEntity
8
0
6
CONTINUOUS
62
255
370
-1
100
AcDbLine
10
-52.3497787144
20
38.950221286
11
-52.3497787144
21
37.950221286
0
LINE
5
17F
100
AcDbEntity
8
0
6
CONTINUOUS
62
255
370
-1
100
AcDbLine
10
-52.3497787144
20
38.950221286
11
-52.9497787144
21
38.950221286
0
LINE
5
180
100
AcDbEntity
8
0
6
CONTINUOUS
62
255
370
-1
100
AcDbLine
10
-52.9497787144
20
38.950221286
11
-52.9497787144
21
37.950221286
0
LINE
5
181
100
AcDbEntity
8
0
6
CONTINUOUS
62
255
370
-1
100
AcDbLine
10
-151.749778714
20
38.950221286
11
-151.749778714
21
37.950221286
0
LINE
5
182
100
AcDbEntity
8
0
6
CONTINUOUS
62
255
370
-1
100
AcDbLine
10
-151.749778714
20
38.950221286
11
-152.349778714
21
38.950221286
0
LINE
5
183
100
AcDbEntity
8
0
6
CONTINUOUS
62
255
370
-1
100
AcDbLine
10
-152.349778714
20
38.950221286
11
-152.349778714
21
37.950221286
0
LINE
5
184
100
AcDbEntity
8
0
6
CONTINUOUS
62
255
370
-1
100
AcDbLine
10
-152.349778714
20
37.950221286
11
-154.349778714
21
37.950221286
0
LINE
5
185
100
AcDbEntity
8
0
6
CONTINUOUS
62
255
370
-1
100
AcDbLine
10
-154.349778714
20
65.750221286
11
-153.149778714
21
65.750221286
0
LINE
5
186
100
AcDbEntity
8
0
6
CONTINUOUS
62
255
370
-1
100
AcDbLine
10
-153.149778714
20
65.750221286
11
-153.149778714
21
66.750221286
0
LINE
5
187
100
AcDbEntity
8
0
6
CONTINUOUS
62
255
370
-1
100
AcDbLine
10
-147.449778714
20
66.750221286
11
-153.149778714
21
66.750221286
0
LINE
5
188
100
AcDbEntity
8
0
6
CONTINUOUS
62
255
370
-1
100
AcDbLine
10
-147.449778714
20
68.750221286
11
-147.449778714
21
66.750221286
0
LINE
5
189
100
AcDbEntity
8
0
6
CONTINUOUS
62
255
370
-1
100
AcDbLine
10
-139.249778714
20
68.750221286
11
-147.449778714
21
68.750221286
0
LINE
5
18A
100
AcDbEntity
8
0
6
CONTINUOUS
62
255
370
-1
100
AcDbLine
10
-139.249778714
20
66.750221286
11
-139.249778714
21
68.750221286
0
LINE
5
18B
100
AcDbEntity
8
0
6
CONTINUOUS
62
255
370
-1
100
AcDbLine
10
-102.449778714
20
66.750221286
11
-139.249778714
21
66.750221286
0
LINE
5
18C
100
AcDbEntity
8
0
6
CONTINUOUS
62
255
370
-1
100
AcDbLine
10
-102.449778714
20
68.750221286
11
-102.449778714
21
66.750221286
0
LINE
5
18D
100
AcDbEntity
8
0
6
CONTINUOUS
62
255
370
-1
100
AcDbLine
10
-94.2497787144
20
68.750221286
11
-102.449778714
21
68.750221286
0
LINE
5
18E
100
AcDbEntity
8
0
6
CONTINUOUS
62
255
370
-1
100
AcDbLine
10
-94.2497787144
20
66.750221286
11
-94.2497787144
21
68.750221286
0
LINE
5
18F
100
AcDbEntity
8
0
6
CONTINUOUS
62
255
370
-1
100
AcDbLine
10
-57.4497787144
20
66.750221286
11
-94.2497787144
21
66.750221286
0
LINE
5
190
100
AcDbEntity
8
0
6
CONTINUOUS
62
255
370
-1
100
AcDbLine
10
-57.4497787144
20
68.750221286
11
-57.4497787144
21
66.750221286
0
LINE
5
191
100
AcDbEntity
8
0
6
CONTINUOUS
62
255
370
-1
100
AcDbLine
10
-49.2497787144
20
68.750221286
11
-57.4497787144
21
68.750221286
0
LINE
5
192
100
AcDbEntity
8
0
6
CONTINUOUS
62
255
370
-1
100
AcDbLine
10
-49.2497787144
20
66.750221286
11
-49.2497787144
21
68.750221286
0
LINE
5
193
100
AcDbEntity
8
0
6
CONTINUOUS
62
255
370
-1
100
AcDbLine
10
-43.5497787144
20
66.750221286
11
-49.2497787144
21
66.750221286
0
LINE
5
194
100
AcDbEntity
8
0
6
CONTINUOUS
62
255
370
-1
100
AcDbLine
10
-43.5497787144
20
65.750221286
11
-43.5497787144
21
66.750221286
0
LINE
5
195
100
AcDbEntity
8
0
6
CONTINUOUS
62
255
370
-1
100
AcDbLine
10
-43.5497787144
20
65.750221286
11
-42.0502212856
21
65.750221286
0
CIRCLE
5
196
100
AcDbEntity
8
0
6
CONTINUOUS
62
255
370
-1
100
AcDbCircle
10
-172.949336143
20
56.250221286
40
1.25
0
CIRCLE
5
197
100
AcDbEntity
8
0
6
CONTINUOUS
62
255
370
-1
100
AcDbCircle
10
-172.949336143
20
51.750221286
40
1.25
0
CIRCLE
5
198
100
AcDbEntity
8
0
6
CONTINUOUS
62
255
370
-1
100
AcDbCircle
10
-177.449336143
20
56.250221286
40
1.25
0
CIRCLE
5
199
100
AcDbEntity
8
0
6
CONTINUOUS
62
255
370
-1
100
AcDbCircle
10
-177.449336143
20
51.750221286
40
1.25
0
CIRCLE
5
19A
100
AcDbEntity
8
0
6
CONTINUOUS
62
255
370
-1
100
AcDbCircle
10
-181.949336143
20
56.250221286
40
1.25
0
ARC
5
19B
100
AcDbEntity
8
0
6
CONTINUOUS
62
255
370
-1
100
AcDbCircle
10
-56.3497787144
20
34.250663857
40
3.4
100
AcDbArc
50
219.665012908
51
0
0
CIRCLE
5
19C
100
AcDbEntity
8
0
6
CONTINUOUS
62
255
370
-1
100
AcDbCircle
10
-181.949336143
20
51.750221286
40
1.25
0
ARC
5
19D
100
AcDbEntity
8
0
6
CONTINUOUS
62
255
370
-1
100
AcDbCircle
10
-62.046220783
20
29.527259601
40
4
100
AcDbArc
50
39.665012908
51
90
0
CIRCLE
5
19E
100
AcDbEntity
8
0
6
CONTINUOUS
62
255
370
-1
100
AcDbCircle
10
-163.949336143
20
60.750221286
40
1.25
0
ARC
5
19F
100
AcDbEntity
8
0
6
CONTINUOUS
62
255
370
-1
100
AcDbCircle
10
-142.653336646
20
29.527259602
40
4
100
AcDbArc
50
90
51
140.334987092
0
CIRCLE
5
1A0
100
AcDbEntity
8
0
6
CONTINUOUS
62
255
370
-1
100
AcDbCircle
10
-168.449336143
20
60.750221286
40
1.25
0
ARC
5
1A1
100
AcDbEntity
8
0
6
CONTINUOUS
62
255
370
-1
100
AcDbCircle
10
-148.349778714
20
34.250663857
40
3.4
100
AcDbArc
50
180
51
320.334987092
0
CIRCLE
5
1A2
100
AcDbEntity
8
0
6
CONTINUOUS
62
255
370
-1
100
AcDbCircle
10
-172.949336143
20
60.750221286
40
1.25
0
CIRCLE
5
1A3
100
AcDbEntity
8
0
6
CONTINUOUS
62
255
370
-1
100
AcDbCircle
10
-177.449336143
20
60.750221286
40
1.25
0
CIRCLE
5
1A4
100
AcDbEntity
8
0
6
CONTINUOUS
62
255
370
-1
100
AcDbCircle
10
-181.949336143
20
60.750221286
40
1.25
0
LINE
5
1A5
100
AcDbEntity
8
0
6
CONTINUOUS
62
255
370
-1
100
AcDbLine
10
-172.963444837
20
38.950221286
11
-172.963444837
21
37.950221286
0
LINE
5
1A6
100
AcDbEntity
8
0
6
CONTINUOUS
62
255
370
-1
100
AcDbLine
10
-172.963444837
20
38.950221286
11
-173.563444837
21
38.950221286
0
LINE
5
1A7
100
AcDbEntity
8
0
6
CONTINUOUS
62
255
370
-1
100
AcDbLine
10
-173.563444837
20
38.950221286
11
-173.563444837
21
37.950221286
0
LINE
5
1A8
100
AcDbEntity
8
0
6
CONTINUOUS
62
255
370
-1
100
AcDbLine
10
-276.449336143
20
38.950221286
11
-276.449336143
21
37.950221286
0
LINE
5
1A9
100
AcDbEntity
8
0
6
CONTINUOUS
62
255
370
-1
100
AcDbLine
10
-276.449336143
20
38.950221286
11
-277.049336143
21
38.950221286
0
LINE
5
1AA
100
AcDbEntity
8
0
6
CONTINUOUS
62
255
370
-1
100
AcDbLine
10
-277.049336143
20
38.950221286
11
-277.049336143
21
37.950221286
0
LINE
5
1AB
100
AcDbEntity
8
0
6
CONTINUOUS
62
255
370
-1
100
AcDbLine
10
-277.049336143
20
37.950221286
11
-279.949336143
21
37.950221286
0
LINE
5
1AC
100
AcDbEntity
8
0
6
CONTINUOUS
62
255
370
-1
100
AcDbLine
10
-294.949336143
20
37.950221286
11
-307.049336143
21
37.950221286
0
LINE
5
1AD
100
AcDbEntity
8
0
6
CONTINUOUS
62
255
370
-1
100
AcDbLine
10
-307.049336143
20
65.750221286
11
-305.849336143
21
65.750221286
0
LINE
5
1AE
100
AcDbEntity
8
0
6
CONTINUOUS
62
255
370
-1
100
AcDbLine
10
-305.849336143
20
65.750221286
11
-305.849336143
21
66.750221286
0
LINE
5
1AF
100
AcDbEntity
8
0
6
CONTINUOUS
62
255
370
-1
100
AcDbLine
10
-154.649336143
20
65.750221286
11
-154.649336143
21
66.750221286
0
LINE
5
1B0
100
AcDbEntity
8
0
6
CONTINUOUS
62
255
370
-1
100
AcDbLine
10
-52.9497787144
20
34.250663857
11
-52.9497787144
21
38.950221286
0
LINE
5
1B1
100
AcDbEntity
8
0
6
CONTINUOUS
62
255
370
-1
100
AcDbLine
10
-142.653336646
20
33.527259602
11
-62.046220783
21
33.527259601
0
LINE
5
1B2
100
AcDbEntity
8
0
6
CONTINUOUS
62
255
370
-1
100
AcDbLine
10
-151.749778714
20
38.950221286
11
-151.749778714
21
34.250663857
0
LINE
5
1B3
100
AcDbEntity
8
0
6
CONTINUOUS
62
255
370
-1
100
AcDbLine
10
-154.649336143
20
65.750221286
11
-153.149778714
21
65.750221286
0
LINE
5
1B4
100
AcDbEntity
8
0
6
CONTINUOUS
62
255
370
-1
100
AcDbLine
10
-153.149778714
20
65.750221286
11
-153.149778714
21
66.750221286
0
LINE
5
1B5
100
AcDbEntity
8
0
6
CONTINUOUS
62
255
370
-1
100
AcDbLine
10
-52.3497787144
20
38.950221286
11
-52.3497787144
21
37.950221286
0
LINE
5
1B6
100
AcDbEntity
8
0
6
CONTINUOUS
62
255
370
-1
100
AcDbLine
10
-52.3497787144
20
38.950221286
11
-52.9497787144
21
38.950221286
0
CIRCLE
5
1B7
100
AcDbEntity
8
0
6
CONTINUOUS
62
255
370
-1
100
AcDbCircle
10
-148.349778714
20
34.250663857
40
1.65
0
LINE
5
1B8
100
AcDbEntity
8
0
6
CONTINUOUS
62
255
370
-1
100
AcDbLine
10
-151.749778714
20
38.950221286
11
-152.349778714
21
38.950221286
0
CIRCLE
5
1B9
100
AcDbEntity
8
0
6
CONTINUOUS
62
255
370
-1
100
AcDbCircle
10
-56.3497787144
20
34.250663857
40
1.65032325816
0
LINE
5
1BA
100
AcDbEntity
8
0
6
CONTINUOUS
62
255
370
-1
100
AcDbLine
10
-152.349778714
20
38.950221286
11
-152.349778714
21
37.950221286
0
CIRCLE
5
1BB
100
AcDbEntity
8
0
6
CONTINUOUS
62
255
370
-1
100
AcDbCircle
10
-159.449336143
20
60.750221286
40
1.25
0
LINE
5
1BC
100
AcDbEntity
8
0
6
CONTINUOUS
62
255
370
-1
100
AcDbLine
10
-152.349778714
20
37.950221286
11
-172.963444837
21
37.950221286
0
CIRCLE
5
1BD
100
AcDbEntity
8
0
6
CONTINUOUS
62
255
370
-1
100
AcDbCircle
10
-159.449336143
20
56.250221286
40
1.25
0
CIRCLE
5
1BE
100
AcDbEntity
8
0
6
CONTINUOUS
62
255
370
-1
100
AcDbCircle
10
-159.449336143
20
51.750221286
40
1.25
0
CIRCLE
5
1BF
100
AcDbEntity
8
0
6
CONTINUOUS
62
255
370
-1
100
AcDbCircle
10
-163.949336143
20
56.250221286
40
1.25
0
CIRCLE
5
1C0
100
AcDbEntity
8
0
6
CONTINUOUS
62
255
370
-1
100
AcDbCircle
10
-163.949336143
20
51.750221286
40
1.25
0
CIRCLE
5
1C1
100
AcDbEntity
8
0
6
CONTINUOUS
62
255
370
-1
100
AcDbCircle
10
-168.449336143
20
56.250221286
40
1.25
0
CIRCLE
5
1C2
100
AcDbEntity
8
0
6
CONTINUOUS
62
255
370
-1
100
AcDbCircle
10
-168.449336143
20
51.750221286
40
1.25
0
LINE
5
1C3
100
AcDbEntity
8
0
6
CONTINUOUS
62
255
370
-1
100
AcDbLine
10
-154.649336143
20
65.750221286
11
-154.649336143
21
71.8497787144
0
LINE
5
1C4
100
AcDbEntity
8
0
6
CONTINUOUS
62
255
370
-1
100
AcDbLine
10
-173.563444837
20
35.850663857
11
-173.563444837
21
38.950221286
0
LINE
5
1C5
100
AcDbEntity
8
0
6
CONTINUOUS
62
255
370
-1
100
AcDbLine
10
-265.813315137
20
32.850663857
11
-176.563444837
21
32.850663857
0
LINE
5
1C6
100
AcDbEntity
8
0
6
CONTINUOUS
62
255
370
-1
100
AcDbLine
10
-276.449336143
20
38.950221286
11
-276.449336143
21
32.850663857
0
LINE
5
1C7
100
AcDbEntity
8
0
6
CONTINUOUS
62
255
370
-1
100
AcDbLine
10
-307.348893572
20
65.750221286
11
-305.849336143
21
65.750221286
0
LINE
5
1C8
100
AcDbEntity
8
0
6
CONTINUOUS
62
255
370
-1
100
AcDbLine
10
-154.649336143
20
65.750221286
11
-153.449336143
21
65.750221286
0
LINE
5
1C9
100
AcDbEntity
8
0
6
CONTINUOUS
62
255
370
-1
100
AcDbLine
10
-172.963444837
20
38.950221286
11
-172.963444837
21
37.950221286
0
LINE
5
1CA
100
AcDbEntity
8
0
6
CONTINUOUS
62
255
370
-1
100
AcDbLine
10
-172.963444837
20
38.950221286
11
-173.563444837
21
38.950221286
0
LINE
5
1CB
100
AcDbEntity
8
0
6
CONTINUOUS
62
255
370
-1
100
AcDbLine
10
-276.449336143
20
38.950221286
11
-277.049336143
21
38.950221286
0
LINE
5
1CC
100
AcDbEntity
8
0
6
CONTINUOUS
62
255
370
-1
100
AcDbLine
10
-277.049336143
20
38.950221286
11
-277.049336143
21
37.950221286
0
LINE
5
1CD
100
AcDbEntity
8
0
6
CONTINUOUS
62
255
370
-1
100
AcDbLine
10
-277.049336143
20
37.950221286
11
-279.949336143
21
37.950221286
0
ARC
5
1CE
100
AcDbEntity
8
0
6
CONTINUOUS
62
255
370
-1
100
AcDbCircle
10
-302.849336143
20
69.309238174
40
3
100
AcDbArc
50
90
51
180
0
ARC
5
1CF
100
AcDbEntity
8
0
6
CONTINUOUS
62
255
370
-1
100
AcDbCircle
10
-278.954691453
20
76.3092381738
40
4
100
AcDbArc
50
270
51
322.941534
0
ARC
5
1D0
100
AcDbEntity
8
0
6
CONTINUOUS
62
255
370
-1
100
AcDbCircle
10
-273.049336143
20
71.8497787144
40
3.4
100
AcDbArc
50
37.058466
51
142.941534
0
ARC
5
1D1
100
AcDbEntity
8
0
6
CONTINUOUS
62
255
370
-1
100
AcDbCircle
10
-267.143980834
20
76.3092381738
40
4
100
AcDbArc
50
217.058466
51
270
0
ARC
5
1D2
100
AcDbEntity
8
0
6
CONTINUOUS
62
255
370
-1
100
AcDbCircle
10
-163.954691453
20
76.3092381738
40
4
100
AcDbArc
50
270
51
322.941534
0
ARC
5
1D3
100
AcDbEntity
8
0
6
CONTINUOUS
62
255
370
-1
100
AcDbCircle
10
-158.049336143
20
71.8497787144
40
3.4
100
AcDbArc
50
0
51
142.941534
0
ARC
5
1D4
100
AcDbEntity
8
0
6
CONTINUOUS
62
255
370
-1
100
AcDbCircle
10
-176.563444837
20
35.850663857
40
3
100
AcDbArc
50
270
51
0
0
ARC
5
1D5
100
AcDbEntity
8
0
6
CONTINUOUS
62
255
370
-1
100
AcDbCircle
10
-265.813315137
20
26.850663857
40
6
100
AcDbArc
50
90
51
140.334987092
0
ARC
5
1D6
100
AcDbEntity
8
0
6
CONTINUOUS
62
255
370
-1
100
AcDbCircle
10
-273.049336143
20
32.850663857
40
3.4
100
AcDbArc
50
180
51
320.334987092
0
CIRCLE
5
1D7
100
AcDbEntity
8
0
6
CONTINUOUS
62
255
370
-1
100
AcDbCircle
10
-273.049336143
20
32.850663857
40
1.65032325816
0
CIRCLE
5
1D8
100
AcDbEntity
8
0
6
CONTINUOUS
62
255
370
-1
100
AcDbCircle
10
-158.049336143
20
71.8497787144
40
1.65
0
CIRCLE
5
1D9
100
AcDbEntity
8
0
6
CONTINUOUS
62
255
370
-1
100
AcDbCircle
10
-273.049336143
20
71.8497787144
40
1.65032325816
0
LINE
5
1DA
100
AcDbEntity
8
0
6
CONTINUOUS
62
255
370
-1
100
AcDbLine
10
-307.348893572
20
65.750221286
11
-307.348893572
21
66.750221286
0
LINE
5
1DB
100
AcDbEntity
8
0
6
CONTINUOUS
62
255
370
-1
100
AcDbLine
10
-305.849336143
20
69.309238174
11
-305.849336143
21
65.750221286
0
LINE
5
1DC
100
AcDbEntity
8
0
6
CONTINUOUS
62
255
370
-1
100
AcDbLine
10
-302.849336143
20
72.3092381738
11
-278.954691453
21
72.3092381738
0
LINE
5
1DD
100
AcDbEntity
8
0
6
CONTINUOUS
62
255
370
-1
100
AcDbLine
10
-267.143980834
20
72.3092381738
11
-163.954691453
21
72.3092381738
0
CIRCLE
5
1DE
100
AcDbEntity
8
0
6
CONTINUOUS
62
255
370
-1
100
AcDbCircle
10
-378.648893572
20
49.750221286
40
1.25
0
CIRCLE
5
1DF
100
AcDbEntity
8
0
6
CONTINUOUS
62
255
370
-1
100
AcDbCircle
10
-383.148893572
20
49.750221286
40
1.25
0
CIRCLE
5
1E0
100
AcDbEntity
8
0
6
CONTINUOUS
62
255
370
-1
100
AcDbCircle
10
-387.648893572
20
49.750221286
40
1.25
0
CIRCLE
5
1E1
100
AcDbEntity
8
0
6
CONTINUOUS
62
255
370
-1
100
AcDbCircle
10
-392.148893572
20
49.750221286
40
1.25
0
CIRCLE
5
1E2
100
AcDbEntity
8
0
6
CONTINUOUS
62
255
370
-1
100
AcDbCircle
10
-396.648893572
20
49.750221286
40
1.25
0
CIRCLE
5
1E3
100
AcDbEntity
8
0
6
CONTINUOUS
62
255
370
-1
100
AcDbCircle
10
-401.148893572
20
49.750221286
40
1.25
0
CIRCLE
5
1E4
100
AcDbEntity
8
0
6
CONTINUOUS
62
255
370
-1
100
AcDbCircle
10
-324.648893572
20
45.250221286
40
1.25
0
CIRCLE
5
1E5
100
AcDbEntity
8
0
6
CONTINUOUS
62
255
370
-1
100
AcDbCircle
10
-329.148893572
20
45.250221286
40
1.25
0
CIRCLE
5
1E6
100
AcDbEntity
8
0
6
CONTINUOUS
62
255
370
-1
100
AcDbCircle
10
-333.648893572
20
45.250221286
40
1.25
0
CIRCLE
5
1E7
100
AcDbEntity
8
0
6
CONTINUOUS
62
255
370
-1
100
AcDbCircle
10
-338.148893572
20
45.250221286
40
1.25
0
CIRCLE
5
1E8
100
AcDbEntity
8
0
6
CONTINUOUS
62
255
370
-1
100
AcDbCircle
10
-342.648893572
20
45.250221286
40
1.25
0
CIRCLE
5
1E9
100
AcDbEntity
8
0
6
CONTINUOUS
62
255
370
-1
100
AcDbCircle
10
-347.148893572
20
45.250221286
40
1.25
0
CIRCLE
5
1EA
100
AcDbEntity
8
0
6
CONTINUOUS
62
255
370
-1
100
AcDbCircle
10
-351.648893572
20
45.250221286
40
1.25
0
CIRCLE
5
1EB
100
AcDbEntity
8
0
6
CONTINUOUS
62
255
370
-1
100
AcDbCircle
10
-356.148893572
20
45.250221286
40
1.25
0
CIRCLE
5
1EC
100
AcDbEntity
8
0
6
CONTINUOUS
62
255
370
-1
100
AcDbCircle
10
-360.648893572
20
45.250221286
40
1.25
0
CIRCLE
5
1ED
100
AcDbEntity
8
0
6
CONTINUOUS
62
255
370
-1
100
AcDbCircle
10
-365.148893572
20
45.250221286
40
1.25
0
CIRCLE
5
1EE
100
AcDbEntity
8
0
6
CONTINUOUS
62
255
370
-1
100
AcDbCircle
10
-369.648893572
20
45.250221286
40
1.25
0
CIRCLE
5
1EF
100
AcDbEntity
8
0
6
CONTINUOUS
62
255
370
-1
100
AcDbCircle
10
-374.148893572
20
45.250221286
40
1.25
0
CIRCLE
5
1F0
100
AcDbEntity
8
0
6
CONTINUOUS
62
255
370
-1
100
AcDbCircle
10
-378.648893572
20
45.250221286
40
1.25
0
CIRCLE
5
1F1
100
AcDbEntity
8
0
6
CONTINUOUS
62
255
370
-1
100
AcDbCircle
10
-383.148893572
20
45.250221286
40
1.25
0
CIRCLE
5
1F2
100
AcDbEntity
8
0
6
CONTINUOUS
62
255
370
-1
100
AcDbCircle
10
-387.648893572
20
45.250221286
40
1.25
0
CIRCLE
5
1F3
100
AcDbEntity
8
0
6
CONTINUOUS
62
255
370
-1
100
AcDbCircle
10
-392.148893572
20
45.250221286
40
1.25
0
CIRCLE
5
1F4
100
AcDbEntity
8
0
6
CONTINUOUS
62
255
370
-1
100
AcDbCircle
10
-396.648893572
20
45.250221286
40
1.25
0
CIRCLE
5
1F5
100
AcDbEntity
8
0
6
CONTINUOUS
62
255
370
-1
100
AcDbCircle
10
-401.148893572
20
45.250221286
40
1.25
0
CIRCLE
5
1F6
100
AcDbEntity
8
0
6
CONTINUOUS
62
255
370
-1
100
AcDbCircle
10
-320.148893572
20
54.250221286
40
1.25
0
CIRCLE
5
1F7
100
AcDbEntity
8
0
6
CONTINUOUS
62
255
370
-1
100
AcDbCircle
10
-320.148893572
20
49.750221286
40
1.25
0
CIRCLE
5
1F8
100
AcDbEntity
8
0
6
CONTINUOUS
62
255
370
-1
100
AcDbCircle
10
-320.148893572
20
45.250221286
40
1.25
0
CIRCLE
5
1F9
100
AcDbEntity
8
0
6
CONTINUOUS
62
255
370
-1
100
AcDbCircle
10
-360.648893572
20
49.750221286
40
1.25
0
CIRCLE
5
1FA
100
AcDbEntity
8
0
6
CONTINUOUS
62
255
370
-1
100
AcDbCircle
10
-333.648893572
20
49.750221286
40
1.25
0
LINE
5
1FB
100
AcDbEntity
8
0
6
CONTINUOUS
62
255
370
-1
100
AcDbLine
10
-411.248893572
20
66.750221286
11
-417.498893572
21
66.750221286
0
LINE
5
1FC
100
AcDbEntity
8
0
6
CONTINUOUS
62
255
370
-1
100
AcDbLine
10
-411.248893572
20
66.750221286
11
-411.248893572
21
68.750221286
0
LINE
5
1FD
100
AcDbEntity
8
0
6
CONTINUOUS
62
255
370
-1
100
AcDbLine
10
-411.248893572
20
68.750221286
11
-403.048893572
21
68.750221286
0
LINE
5
1FE
100
AcDbEntity
8
0
6
CONTINUOUS
62
255
370
-1
100
AcDbLine
10
-403.048893572
20
68.750221286
11
-403.048893572
21
66.750221286
0
LINE
5
1FF
100
AcDbEntity
8
0
6
CONTINUOUS
62
255
370
-1
100
AcDbLine
10
-366.248893572
20
66.750221286
11
-403.048893572
21
66.750221286
0
LINE
5
200
100
AcDbEntity
8
0
6
CONTINUOUS
62
255
370
-1
100
AcDbLine
10
-366.248893572
20
66.750221286
11
-366.248893572
21
68.750221286
0
LINE
5
201
100
AcDbEntity
8
0
6
CONTINUOUS
62
255
370
-1
100
AcDbLine
10
-366.248893572
20
68.750221286
11
-358.048893572
21
68.750221286
0
LINE
5
202
100
AcDbEntity
8
0
6
CONTINUOUS
62
255
370
-1
100
AcDbLine
10
-358.048893572
20
68.750221286
11
-358.048893572
21
66.750221286
0
LINE
5
203
100
AcDbEntity
8
0
6
CONTINUOUS
62
255
370
-1
100
AcDbLine
10
-321.248893572
20
66.750221286
11
-358.048893572
21
66.750221286
0
LINE
5
204
100
AcDbEntity
8
0
6
CONTINUOUS
62
255
370
-1
100
AcDbLine
10
-321.248893572
20
66.750221286
11
-321.248893572
21
68.750221286
0
LINE
5
205
100
AcDbEntity
8
0
6
CONTINUOUS
62
255
370
-1
100
AcDbLine
10
-321.248893572
20
68.750221286
11
-313.048893572
21
68.750221286
0
LINE
5
206
100
AcDbEntity
8
0
6
CONTINUOUS
62
255
370
-1
100
AcDbLine
10
-313.048893572
20
68.750221286
11
-313.048893572
21
66.750221286
0
LINE
5
207
100
AcDbEntity
8
0
6
CONTINUOUS
62
255
370
-1
100
AcDbLine
10
-307.348893572
20
66.750221286
11
-313.048893572
21
66.750221286
0
LINE
5
208
100
AcDbEntity
8
0
6
CONTINUOUS
62
255
370
-1
100
AcDbLine
10
-307.348893572
20
65.750221286
11
-307.348893572
21
66.750221286
0
LINE
5
209
100
AcDbEntity
8
0
6
CONTINUOUS
62
255
370
-1
100
AcDbLine
10
-305.849336143
20
69.309238174
11
-305.849336143
21
65.750221286
0
LINE
5
20A
100
AcDbEntity
8
0
6
CONTINUOUS
62
255
370
-1
100
AcDbLine
10
-307.348893572
20
65.750221286
11
-305.849336143
21
65.750221286
0
CIRCLE
5
20B
100
AcDbEntity
8
0
6
CONTINUOUS
62
255
370
-1
100
AcDbCircle
10
-320.148893572
20
58.750221286
40
1.25
0
CIRCLE
5
20C
100
AcDbEntity
8
0
6
CONTINUOUS
62
255
370
-1
100
AcDbCircle
10
-324.648893572
20
58.750221286
40
1.25
0
CIRCLE
5
20D
100
AcDbEntity
8
0
6
CONTINUOUS
62
255
370
-1
100
AcDbCircle
10
-329.148893572
20
58.750221286
40
1.25
0
CIRCLE
5
20E
100
AcDbEntity
8
0
6
CONTINUOUS
62
255
370
-1
100
AcDbCircle
10
-333.648893572
20
58.750221286
40
1.25
0
CIRCLE
5
20F
100
AcDbEntity
8
0
6
CONTINUOUS
62
255
370
-1
100
AcDbCircle
10
-338.148893572
20
58.750221286
40
1.25
0
CIRCLE
5
210
100
AcDbEntity
8
0
6
CONTINUOUS
62
255
370
-1
100
AcDbCircle
10
-342.648893572
20
58.750221286
40
1.25
0
CIRCLE
5
211
100
AcDbEntity
8
0
6
CONTINUOUS
62
255
370
-1
100
AcDbCircle
10
-347.148893572
20
58.750221286
40
1.25
0
CIRCLE
5
212
100
AcDbEntity
8
0
6
CONTINUOUS
62
255
370
-1
100
AcDbCircle
10
-351.648893572
20
58.750221286
40
1.25
0
CIRCLE
5
213
100
AcDbEntity
8
0
6
CONTINUOUS
62
255
370
-1
100
AcDbCircle
10
-356.148893572
20
58.750221286
40
1.25
0
CIRCLE
5
214
100
AcDbEntity
8
0
6
CONTINUOUS
62
255
370
-1
100
AcDbCircle
10
-360.648893572
20
58.750221286
40
1.25
0
CIRCLE
5
215
100
AcDbEntity
8
0
6
CONTINUOUS
62
255
370
-1
100
AcDbCircle
10
-365.148893572
20
58.750221286
40
1.25
0
CIRCLE
5
216
100
AcDbEntity
8
0
6
CONTINUOUS
62
255
370
-1
100
AcDbCircle
10
-369.648893572
20
58.750221286
40
1.25
0
CIRCLE
5
217
100
AcDbEntity
8
0
6
CONTINUOUS
62
255
370
-1
100
AcDbCircle
10
-374.148893572
20
58.750221286
40
1.25
0
CIRCLE
5
218
100
AcDbEntity
8
0
6
CONTINUOUS
62
255
370
-1
100
AcDbCircle
10
-378.648893572
20
58.750221286
40
1.25
0
CIRCLE
5
219
100
AcDbEntity
8
0
6
CONTINUOUS
62
255
370
-1
100
AcDbCircle
10
-383.148893572
20
58.750221286
40
1.25
0
CIRCLE
5
21A
100
AcDbEntity
8
0
6
CONTINUOUS
62
255
370
-1
100
AcDbCircle
10
-387.648893572
20
58.750221286
40
1.25
0
CIRCLE
5
21B
100
AcDbEntity
8
0
6
CONTINUOUS
62
255
370
-1
100
AcDbCircle
10
-392.148893572
20
58.750221286
40
1.25
0
CIRCLE
5
21C
100
AcDbEntity
8
0
6
CONTINUOUS
62
255
370
-1
100
AcDbCircle
10
-396.648893572
20
58.750221286
40
1.25
0
CIRCLE
5
21D
100
AcDbEntity
8
0
6
CONTINUOUS
62
255
370
-1
100
AcDbCircle
10
-401.148893572
20
58.750221286
40
1.25
0
CIRCLE
5
21E
100
AcDbEntity
8
0
6
CONTINUOUS
62
255
370
-1
100
AcDbCircle
10
-324.648893572
20
54.250221286
40
1.25
0
CIRCLE
5
21F
100
AcDbEntity
8
0
6
CONTINUOUS
62
255
370
-1
100
AcDbCircle
10
-329.148893572
20
54.250221286
40
1.25
0
CIRCLE
5
220
100
AcDbEntity
8
0
6
CONTINUOUS
62
255
370
-1
100
AcDbCircle
10
-333.648893572
20
54.250221286
40
1.25
0
CIRCLE
5
221
100
AcDbEntity
8
0
6
CONTINUOUS
62
255
370
-1
100
AcDbCircle
10
-338.148893572
20
54.250221286
40
1.25
0
CIRCLE
5
222
100
AcDbEntity
8
0
6
CONTINUOUS
62
255
370
-1
100
AcDbCircle
10
-342.648893572
20
54.250221286
40
1.25
0
CIRCLE
5
223
100
AcDbEntity
8
0
6
CONTINUOUS
62
255
370
-1
100
AcDbCircle
10
-347.148893572
20
54.250221286
40
1.25
0
CIRCLE
5
224
100
AcDbEntity
8
0
6
CONTINUOUS
62
255
370
-1
100
AcDbCircle
10
-351.648893572
20
54.250221286
40
1.25
0
CIRCLE
5
225
100
AcDbEntity
8
0
6
CONTINUOUS
62
255
370
-1
100
AcDbCircle
10
-356.148893572
20
54.250221286
40
1.25
0
CIRCLE
5
226
100
AcDbEntity
8
0
6
CONTINUOUS
62
255
370
-1
100
AcDbCircle
10
-360.648893572
20
54.250221286
40
1.25
0
CIRCLE
5
227
100
AcDbEntity
8
0
6
CONTINUOUS
62
255
370
-1
100
AcDbCircle
10
-365.148893572
20
54.250221286
40
1.25
0
CIRCLE
5
228
100
AcDbEntity
8
0
6
CONTINUOUS
62
255
370
-1
100
AcDbCircle
10
-369.648893572
20
54.250221286
40
1.25
0
CIRCLE
5
229
100
AcDbEntity
8
0
6
CONTINUOUS
62
255
370
-1
100
AcDbCircle
10
-374.148893572
20
54.250221286
40
1.25
0
CIRCLE
5
22A
100
AcDbEntity
8
0
6
CONTINUOUS
62
255
370
-1
100
AcDbCircle
10
-378.648893572
20
54.250221286
40
1.25
0
CIRCLE
5
22B
100
AcDbEntity
8
0
6
CONTINUOUS
62
255
370
-1
100
AcDbCircle
10
-383.148893572
20
54.250221286
40
1.25
0
CIRCLE
5
22C
100
AcDbEntity
8
0
6
CONTINUOUS
62
255
370
-1
100
AcDbCircle
10
-387.648893572
20
54.250221286
40
1.25
0
CIRCLE
5
22D
100
AcDbEntity
8
0
6
CONTINUOUS
62
255
370
-1
100
AcDbCircle
10
-392.148893572
20
54.250221286
40
1.25
0
CIRCLE
5
22E
100
AcDbEntity
8
0
6
CONTINUOUS
62
255
370
-1
100
AcDbCircle
10
-396.648893572
20
54.250221286
40
1.25
0
CIRCLE
5
22F
100
AcDbEntity
8
0
6
CONTINUOUS
62
255
370
-1
100
AcDbCircle
10
-401.148893572
20
54.250221286
40
1.25
0
CIRCLE
5
230
100
AcDbEntity
8
0
6
CONTINUOUS
62
255
370
-1
100
AcDbCircle
10
-324.648893572
20
49.750221286
40
1.25
0
CIRCLE
5
231
100
AcDbEntity
8
0
6
CONTINUOUS
62
255
370
-1
100
AcDbCircle
10
-329.148893572
20
49.750221286
40
1.25
0
CIRCLE
5
232
100
AcDbEntity
8
0
6
CONTINUOUS
62
255
370
-1
100
AcDbCircle
10
-338.148893572
20
49.750221286
40
1.25
0
CIRCLE
5
233
100
AcDbEntity
8
0
6
CONTINUOUS
62
255
370
-1
100
AcDbCircle
10
-342.648893572
20
49.750221286
40
1.25
0
CIRCLE
5
234
100
AcDbEntity
8
0
6
CONTINUOUS
62
255
370
-1
100
AcDbCircle
10
-347.148893572
20
49.750221286
40
1.25
0
CIRCLE
5
235
100
AcDbEntity
8
0
6
CONTINUOUS
62
255
370
-1
100
AcDbCircle
10
-351.648893572
20
49.750221286
40
1.25
0
CIRCLE
5
236
100
AcDbEntity
8
0
6
CONTINUOUS
62
255
370
-1
100
AcDbCircle
10
-356.148893572
20
49.750221286
40
1.25
0
CIRCLE
5
237
100
AcDbEntity
8
0
6
CONTINUOUS
62
255
370
-1
100
AcDbCircle
10
-365.148893572
20
49.750221286
40
1.25
0
CIRCLE
5
238
100
AcDbEntity
8
0
6
CONTINUOUS
62
255
370
-1
100
AcDbCircle
10
-369.648893572
20
49.750221286
40
1.25
0
CIRCLE
5
239
100
AcDbEntity
8
0
6
CONTINUOUS
62
255
370
-1
100
AcDbCircle
10
-374.148893572
20
49.750221286
40
1.25
0
LINE
5
23A
100
AcDbEntity
8
0
6
CONTINUOUS
62
255
370
-1
100
AcDbLine
10
-294.949336143
20
37.950221286
11
-327.595317065
21
37.950221286
0
CIRCLE
5
23B
100
AcDbEntity
8
0
6
CONTINUOUS
62
7
370
-1
100
AcDbCircle
10
76.3497787144
20
79.8497787148
40
1.65032325816
0
CIRCLE
5
23C
100
AcDbEntity
8
0
6
CONTINUOUS
62
7
370
-1
100
AcDbCircle
10
-38.6502212856
20
79.8497787148
40
1.65032325816
0
CIRCLE
5
23D
100
AcDbEntity
8
0
6
CONTINUOUS
62
7
370
-1
100
AcDbCircle
10
-37.2502212856
20
60.750221286
40
1.25
0
CIRCLE
5
23E
100
AcDbEntity
8
0
6
CONTINUOUS
62
7
370
-1
100
AcDbCircle
10
-37.2502212856
20
56.250221286
40
1.25
0
CIRCLE
5
23F
100
AcDbEntity
8
0
6
CONTINUOUS
62
7
370
-1
100
AcDbCircle
10
-37.2502212856
20
51.750221286
40
1.25
0
CIRCLE
5
240
100
AcDbEntity
8
0
6
CONTINUOUS
62
7
370
-1
100
AcDbCircle
10
-32.7502212856
20
56.250221286
40
1.25
0
CIRCLE
5
241
100
AcDbEntity
8
0
6
CONTINUOUS
62
7
370
-1
100
AcDbCircle
10
-32.7502212856
20
51.750221286
40
1.25
0
CIRCLE
5
242
100
AcDbEntity
8
0
6
CONTINUOUS
62
7
370
-1
100
AcDbCircle
10
-28.2502212856
20
56.250221286
40
1.25
0
CIRCLE
5
243
100
AcDbEntity
8
0
6
CONTINUOUS
62
7
370
-1
100
AcDbCircle
10
-28.2502212856
20
51.750221286
40
1.25
0
CIRCLE
5
244
100
AcDbEntity
8
0
6
CONTINUOUS
62
7
370
-1
100
AcDbCircle
10
-23.7502212856
20
56.250221286
40
1.25
0
CIRCLE
5
245
100
AcDbEntity
8
0
6
CONTINUOUS
62
7
370
-1
100
AcDbCircle
10
-23.7502212856
20
51.750221286
40
1.25
0
CIRCLE
5
246
100
AcDbEntity
8
0
6
CONTINUOUS
62
7
370
-1
100
AcDbCircle
10
-19.2502212856
20
56.250221286
40
1.25
0
CIRCLE
5
247
100
AcDbEntity
8
0
6
CONTINUOUS
62
7
370
-1
100
AcDbCircle
10
-19.2502212856
20
51.750221286
40
1.25
0
CIRCLE
5
248
100
AcDbEntity
8
0
6
CONTINUOUS
62
7
370
-1
100
AcDbCircle
10
-14.7502212856
20
56.250221286
40
1.25
0
CIRCLE
5
249
100
AcDbEntity
8
0
6
CONTINUOUS
62
7
370
-1
100
AcDbCircle
10
-14.7502212856
20
51.750221286
40
1.25
0
CIRCLE
5
24A
100
AcDbEntity
8
0
6
CONTINUOUS
62
7
370
-1
100
AcDbCircle
10
-32.7502212856
20
60.750221286
40
1.25
0
CIRCLE
5
24B
100
AcDbEntity
8
0
6
CONTINUOUS
62
7
370
-1
100
AcDbCircle
10
-28.2502212856
20
60.750221286
40
1.25
0
CIRCLE
5
24C
100
AcDbEntity
8
0
6
CONTINUOUS
62
7
370
-1
100
AcDbCircle
10
-23.7502212856
20
60.750221286
40
1.25
0
CIRCLE
5
24D
100
AcDbEntity
8
0
6
CONTINUOUS
62
7
370
-1
100
AcDbCircle
10
-19.2502212856
20
60.750221286
40
1.25
0
CIRCLE
5
24E
100
AcDbEntity
8
0
6
CONTINUOUS
62
7
370
-1
100
AcDbCircle
10
-14.7502212856
20
60.750221286
40
1.25
0
LINE
5
24F
100
AcDbEntity
8
0
6
CONTINUOUS
62
7
370
-1
100
AcDbLine
10
-42.0502212856
20
79.8497787148
11
-42.0502212856
21
65.750221286
0
LINE
5
250
100
AcDbEntity
8
0
6
CONTINUOUS
62
7
370
-1
100
AcDbLine
10
-35.2502212856
20
79.8497787148
11
-35.2502212856
21
78.1497787148
0
LINE
5
251
100
AcDbEntity
8
0
6
CONTINUOUS
62
7
370
-1
100
AcDbLine
10
-31.2502212856
20
74.1497787148
11
68.9497787144
21
74.1497787148
0
LINE
5
252
100
AcDbEntity
8
0
6
CONTINUOUS
62
7
370
-1
100
AcDbLine
10
72.9497787144
20
78.1497787148
11
72.9497787144
21
79.8497787148
0
LINE
5
253
100
AcDbEntity
8
0
6
CONTINUOUS
62
7
370
-1
100
AcDbLine
10
79.7497787144
20
79.8497787148
11
79.7497787144
21
78.1497787148
0
LINE
5
254
100
AcDbEntity
8
0
6
CONTINUOUS
62
7
370
-1
100
AcDbLine
10
83.7497787144
20
74.1497787148
11
106.149778714
21
74.1497787148
0
LINE
5
255
100
AcDbEntity
8
0
6
CONTINUOUS
62
7
370
-1
100
AcDbLine
10
109.149778714
20
65.750221286
11
109.149778714
21
71.1497787148
0
LINE
5
256
100
AcDbEntity
8
0
6
CONTINUOUS
62
7
370
-1
100
AcDbLine
10
110.349778714
20
48.350221286
11
110.349778714
21
56.350221286
0
LINE
5
257
100
AcDbEntity
8
0
6
CONTINUOUS
62
7
370
-1
100
AcDbLine
10
109.149778714
20
65.750221286
11
110.349778714
21
65.750221286
0
LINE
5
258
100
AcDbEntity
8
0
6
CONTINUOUS
62
7
370
-1
100
AcDbLine
10
110.349778714
20
60.350221286
11
110.349778714
21
65.750221286
0
LINE
5
259
100
AcDbEntity
8
0
6
CONTINUOUS
62
7
370
-1
100
AcDbLine
10
111.349778714
20
60.350221286
11
110.349778714
21
60.350221286
0
LINE
5
25A
100
AcDbEntity
8
0
6
CONTINUOUS
62
7
370
-1
100
AcDbLine
10
113.349778714
20
46.350221286
11
113.349778714
21
58.350221286
0
LINE
5
25B
100
AcDbEntity
8
0
6
CONTINUOUS
62
7
370
-1
100
AcDbLine
10
110.349778714
20
44.350221286
11
111.349778714
21
44.350221286
0
LINE
5
25C
100
AcDbEntity
8
0
6
CONTINUOUS
62
7
370
-1
100
AcDbLine
10
110.349778714
20
37.950221286
11
110.349778714
21
44.350221286
0
LINE
5
25D
100
AcDbEntity
8
0
6
CONTINUOUS
62
7
370
-1
100
AcDbLine
10
110.349778714
20
37.950221286
11
98.3497787144
21
37.950221286
0
LINE
5
25E
100
AcDbEntity
8
0
6
CONTINUOUS
62
7
370
-1
100
AcDbLine
10
98.3497787144
20
37.950221286
11
98.3497787144
21
37.78945177
0
LINE
5
25F
100
AcDbEntity
8
0
6
CONTINUOUS
62
7
370
-1
100
AcDbLine
10
97.7497787144
20
36.750221286
11
98.3497787144
21
37.78945177
0
LINE
5
260
100
AcDbEntity
8
0
6
CONTINUOUS
62
7
370
-1
100
AcDbLine
10
97.7497787144
20
36.750221286
11
68.9497787144
21
36.750221286
0
LINE
5
261
100
AcDbEntity
8
0
6
CONTINUOUS
62
7
370
-1
100
AcDbLine
10
68.3497787144
20
37.78945177
11
68.9497787144
21
36.750221286
0
LINE
5
262
100
AcDbEntity
8
0
6
CONTINUOUS
62
7
370
-1
100
AcDbLine
10
68.3497787144
20
37.78945177
11
68.3497787144
21
40.250221286
0
LINE
5
263
100
AcDbEntity
8
0
6
CONTINUOUS
62
7
370
-1
100
AcDbLine
10
65.1497787144
20
40.250221286
11
65.1497787144
21
37.78945177
0
LINE
5
264
100
AcDbEntity
8
0
6
CONTINUOUS
62
7
370
-1
100
AcDbLine
10
64.5497787144
20
36.750221286
11
65.1497787144
21
37.78945177
0
LINE
5
265
100
AcDbEntity
8
0
6
CONTINUOUS
62
7
370
-1
100
AcDbLine
10
64.5497787144
20
36.750221286
11
48.9497787144
21
36.750221286
0
LINE
5
266
100
AcDbEntity
8
0
6
CONTINUOUS
62
7
370
-1
100
AcDbLine
10
48.3497787144
20
37.78945177
11
48.9497787144
21
36.750221286
0
LINE
5
267
100
AcDbEntity
8
0
6
CONTINUOUS
62
7
370
-1
100
AcDbLine
10
48.3497787144
20
37.78945177
11
48.3497787144
21
40.250221286
0
LINE
5
268
100
AcDbEntity
8
0
6
CONTINUOUS
62
7
370
-1
100
AcDbLine
10
45.1497787144
20
40.250221286
11
45.1497787144
21
37.78945177
0
LINE
5
269
100
AcDbEntity
8
0
6
CONTINUOUS
62
7
370
-1
100
AcDbLine
10
44.5497787144
20
36.750221286
11
45.1497787144
21
37.78945177
0
LINE
5
26A
100
AcDbEntity
8
0
6
CONTINUOUS
62
7
370
-1
100
AcDbLine
10
44.5497787144
20
36.750221286
11
38.3497787144
21
36.750221286
0
LINE
5
26B
100
AcDbEntity
8
0
6
CONTINUOUS
62
7
370
-1
100
AcDbLine
10
37.7497787144
20
37.78945177
11
38.3497787144
21
36.750221286
0
LINE
5
26C
100
AcDbEntity
8
0
6
CONTINUOUS
62
7
370
-1
100
AcDbLine
10
37.7497787144
20
37.78945177
11
37.7497787144
21
39.350221286
0
LINE
5
26D
100
AcDbEntity
8
0
6
CONTINUOUS
62
7
370
-1
100
AcDbLine
10
35.7497787144
20
39.350221286
11
35.7497787144
21
37.78945177
0
LINE
5
26E
100
AcDbEntity
8
0
6
CONTINUOUS
62
7
370
-1
100
AcDbLine
10
35.1497787144
20
36.750221286
11
35.7497787144
21
37.78945177
0
LINE
5
26F
100
AcDbEntity
8
0
6
CONTINUOUS
62
7
370
-1
100
AcDbLine
10
35.1497787144
20
36.750221286
11
28.9497787144
21
36.750221286
0
LINE
5
270
100
AcDbEntity
8
0
6
CONTINUOUS
62
7
370
-1
100
AcDbLine
10
28.3497787144
20
37.78945177
11
28.9497787144
21
36.750221286
0
LINE
5
271
100
AcDbEntity
8
0
6
CONTINUOUS
62
7
370
-1
100
AcDbLine
10
28.3497787144
20
37.78945177
11
28.3497787144
21
40.250221286
0
LINE
5
272
100
AcDbEntity
8
0
6
CONTINUOUS
62
7
370
-1
100
AcDbLine
10
25.1497787144
20
40.250221286
11
25.1497787144
21
37.78945177
0
LINE
5
273
100
AcDbEntity
8
0
6
CONTINUOUS
62
7
370
-1
100
AcDbLine
10
24.5497787144
20
36.750221286
11
25.1497787144
21
37.78945177
0
LINE
5
274
100
AcDbEntity
8
0
6
CONTINUOUS
62
7
370
-1
100
AcDbLine
10
24.5497787144
20
36.750221286
11
18.9497787144
21
36.750221286
0
LINE
5
275
100
AcDbEntity
8
0
6
CONTINUOUS
62
7
370
-1
100
AcDbLine
10
18.3497787144
20
37.78945177
11
18.9497787144
21
36.750221286
0
LINE
5
276
100
AcDbEntity
8
0
6
CONTINUOUS
62
7
370
-1
100
AcDbLine
10
18.3497787144
20
37.78945177
11
18.3497787144
21
40.250221286
0
LINE
5
277
100
AcDbEntity
8
0
6
CONTINUOUS
62
7
370
-1
100
AcDbLine
10
15.1497787144
20
40.250221286
11
15.1497787144
21
37.78945177
0
LINE
5
278
100
AcDbEntity
8
0
6
CONTINUOUS
62
7
370
-1
100
AcDbLine
10
14.5497787144
20
36.750221286
11
15.1497787144
21
37.78945177
0
LINE
5
279
100
AcDbEntity
8
0
6
CONTINUOUS
62
7
370
-1
100
AcDbLine
10
14.5497787144
20
36.750221286
11
8.9497787144
21
36.750221286
0
LINE
5
27A
100
AcDbEntity
8
0
6
CONTINUOUS
62
7
370
-1
100
AcDbLine
10
8.3497787144
20
37.78945177
11
8.9497787144
21
36.750221286
0
LINE
5
27B
100
AcDbEntity
8
0
6
CONTINUOUS
62
7
370
-1
100
AcDbLine
10
8.3497787144
20
37.78945177
11
8.3497787144
21
40.250221286
0
LINE
5
27C
100
AcDbEntity
8
0
6
CONTINUOUS
62
7
370
-1
100
AcDbLine
10
5.1497787144
20
40.250221286
11
5.1497787144
21
37.78945177
0
LINE
5
27D
100
AcDbEntity
8
0
6
CONTINUOUS
62
7
370
-1
100
AcDbLine
10
4.5497787144
20
36.750221286
11
5.1497787144
21
37.78945177
0
LINE
5
27E
100
AcDbEntity
8
0
6
CONTINUOUS
62
7
370
-1
100
AcDbLine
10
4.5497787144
20
36.750221286
11
-12.0502212856
21
36.750221286
0
LINE
5
27F
100
AcDbEntity
8
0
6
CONTINUOUS
62
7
370
-1
100
AcDbLine
10
-12.6502212856
20
37.78945177
11
-12.0502212856
21
36.750221286
0
LINE
5
280
100
AcDbEntity
8
0
6
CONTINUOUS
62
7
370
-1
100
AcDbLine
10
-12.6502212856
20
37.78945177
11
-12.6502212856
21
43.200221286
0
LINE
5
281
100
AcDbEntity
8
0
6
CONTINUOUS
62
7
370
-1
100
AcDbLine
10
-16.1502212856
20
43.200221286
11
-16.1502212856
21
37.78945177
0
LINE
5
282
100
AcDbEntity
8
0
6
CONTINUOUS
62
7
370
-1
100
AcDbLine
10
-16.7502212856
20
36.750221286
11
-16.1502212856
21
37.78945177
0
LINE
5
283
100
AcDbEntity
8
0
6
CONTINUOUS
62
7
370
-1
100
AcDbLine
10
-16.7502212856
20
36.750221286
11
-30.6502212856
21
36.750221286
0
LINE
5
284
100
AcDbEntity
8
0
6
CONTINUOUS
62
7
370
-1
100
AcDbLine
10
-31.2502212856
20
37.78945177
11
-30.6502212856
21
36.750221286
0
LINE
5
285
100
AcDbEntity
8
0
6
CONTINUOUS
62
7
370
-1
100
AcDbLine
10
-31.2502212856
20
37.950221286
11
-31.2502212856
21
37.78945177
0
LINE
5
286
100
AcDbEntity
8
0
6
CONTINUOUS
62
7
370
-1
100
AcDbLine
10
-31.2502212856
20
37.950221286
11
-52.3497787144
21
37.950221286
0
LINE
5
287
100
AcDbEntity
8
0
6
CONTINUOUS
62
7
370
-1
100
AcDbLine
10
110.349778714
20
56.350221286
11
109.649778714
21
56.350221286
0
LINE
5
288
100
AcDbEntity
8
0
6
CONTINUOUS
62
7
370
-1
100
AcDbLine
10
109.649778714
20
56.350221286
11
109.649778714
21
48.350221286
0
LINE
5
289
100
AcDbEntity
8
0
6
CONTINUOUS
62
7
370
-1
100
AcDbLine
10
109.649778714
20
48.350221286
11
110.349778714
21
48.350221286
0
ARC
5
28A
100
AcDbEntity
8
0
6
CONTINUOUS
62
7
370
-1
100
AcDbCircle
10
-38.6502212856
20
79.8497787148
40
3.4
100
AcDbArc
50
360
51
180
0
ARC
5
28B
100
AcDbEntity
8
0
6
CONTINUOUS
62
7
370
-1
100
AcDbCircle
10
-31.2502212856
20
78.1497787148
40
4
100
AcDbArc
50
180
51
270
0
ARC
5
28C
100
AcDbEntity
8
0
6
CONTINUOUS
62
7
370
-1
100
AcDbCircle
10
68.9497787144
20
78.1497787148
40
4
100
AcDbArc
50
270
51
360
0
ARC
5
28D
100
AcDbEntity
8
0
6
CONTINUOUS
62
7
370
-1
100
AcDbCircle
10
76.3497787144
20
79.8497787148
40
3.4
100
AcDbArc
50
360
51
180
0
ARC
5
28E
100
AcDbEntity
8
0
6
CONTINUOUS
62
7
370
-1
100
AcDbCircle
10
83.7497787144
20
78.1497787148
40
4
100
AcDbArc
50
180
51
270
0
ARC
5
28F
100
AcDbEntity
8
0
6
CONTINUOUS
62
7
370
-1
100
AcDbCircle
10
106.149778714
20
71.1497787148
40
3
100
AcDbArc
50
360
51
90
0
ARC
5
290
100
AcDbEntity
8
0
6
CONTINUOUS
62
7
370
-1
100
AcDbCircle
10
111.349778714
20
58.350221286
40
2
100
AcDbArc
50
360
51
90
0
ARC
5
291
100
AcDbEntity
8
0
6
CONTINUOUS
62
7
370
-1
100
AcDbCircle
10
111.349778714
20
46.350221286
40
2
100
AcDbArc
50
270
51
360
0
ARC
5
292
100
AcDbEntity
8
0
6
CONTINUOUS
62
7
370
-1
100
AcDbCircle
10
66.7497787144
20
40.250221286
40
1.6
100
AcDbArc
50
360
51
180
0
ARC
5
293
100
AcDbEntity
8
0
6
CONTINUOUS
62
7
370
-1
100
AcDbCircle
10
46.7497787144
20
40.250221286
40
1.6
100
AcDbArc
50
360
51
180
0
ARC
5
294
100
AcDbEntity
8
0
6
CONTINUOUS
62
7
370
-1
100
AcDbCircle
10
36.7497787144
20
39.350221286
40
1
100
AcDbArc
50
360
51
180
0
ARC
5
295
100
AcDbEntity
8
0
6
CONTINUOUS
62
7
370
-1
100
AcDbCircle
10
26.7497787144
20
40.250221286
40
1.6
100
AcDbArc
50
360
51
180
0
ARC
5
296
100
AcDbEntity
8
0
6
CONTINUOUS
62
7
370
-1
100
AcDbCircle
10
16.7497787144
20
40.250221286
40
1.6
100
AcDbArc
50
360
51
180
0
ARC
5
297
100
AcDbEntity
8
0
6
CONTINUOUS
62
7
370
-1
100
AcDbCircle
10
6.7497787144
20
40.250221286
40
1.6
100
AcDbArc
50
360
51
180
0
ARC
5
298
100
AcDbEntity
8
0
6
CONTINUOUS
62
7
370
-1
100
AcDbCircle
10
-14.4002212856
20
43.200221286
40
1.75
100
AcDbArc
50
360
51
180
0
LINE
5
299
100
AcDbEntity
8
0
6
CONTINUOUS
62
7
370
-1
100
AcDbLine
10
-95.749778714
20
63.050221286
11
-103.849778714
21
63.050221286
0
LINE
5
29A
100
AcDbEntity
8
0
6
CONTINUOUS
62
7
370
-1
100
AcDbLine
10
-104.049778714
20
62.850221286
11
-104.049778714
21
59.750221286
0
LINE
5
29B
100
AcDbEntity
8
0
6
CONTINUOUS
62
7
370
-1
100
AcDbLine
10
-103.849778714
20
59.550221286
11
-95.749778714
21
59.550221286
0
LINE
5
29C
100
AcDbEntity
8
0
6
CONTINUOUS
62
7
370
-1
100
AcDbLine
10
-95.549778714
20
59.750221286
11
-95.549778714
21
62.850221286
0
LINE
5
29D
100
AcDbEntity
8
0
6
CONTINUOUS
62
7
370
-1
100
AcDbLine
10
-108.049778714
20
63.050221286
11
-122.649778714
21
63.050221286
0
LINE
5
29E
100
AcDbEntity
8
0
6
CONTINUOUS
62
7
370
-1
100
AcDbLine
10
-122.849778714
20
62.850221286
11
-122.849778714
21
60.750221286
0
LINE
5
29F
100
AcDbEntity
8
0
6
CONTINUOUS
62
7
370
-1
100
AcDbLine
10
-122.649778714
20
60.550221286
11
-108.049778714
21
60.550221286
0
LINE
5
2A0
100
AcDbEntity
8
0
6
CONTINUOUS
62
7
370
-1
100
AcDbLine
10
-107.849778714
20
60.750221286
11
-107.849778714
21
62.850221286
0
LINE
5
2A1
100
AcDbEntity
8
0
6
CONTINUOUS
62
7
370
-1
100
AcDbLine
10
-129.049778714
20
63.050221286
11
-143.649778714
21
63.050221286
0
LINE
5
2A2
100
AcDbEntity
8
0
6
CONTINUOUS
62
7
370
-1
100
AcDbLine
10
-143.849778714
20
62.850221286
11
-143.849778714
21
49.650221286
0
LINE
5
2A3
100
AcDbEntity
8
0
6
CONTINUOUS
62
7
370
-1
100
AcDbLine
10
-143.649778714
20
49.450221286
11
-129.049778714
21
49.450221286
0
LINE
5
2A4
100
AcDbEntity
8
0
6
CONTINUOUS
62
7
370
-1
100
AcDbLine
10
-128.849778714
20
49.650221286
11
-128.849778714
21
62.850221286
0
ARC
5
2A5
100
AcDbEntity
8
0
6
CONTINUOUS
62
7
370
-1
100
AcDbCircle
10
-95.749778714
20
62.850221286
40
0.2
100
AcDbArc
50
360
51
90
0
ARC
5
2A6
100
AcDbEntity
8
0
6
CONTINUOUS
62
7
370
-1
100
AcDbCircle
10
-103.849778714
20
62.850221286
40
0.2
100
AcDbArc
50
90
51
180
0
ARC
5
2A7
100
AcDbEntity
8
0
6
CONTINUOUS
62
7
370
-1
100
AcDbCircle
10
-103.849778714
20
59.750221286
40
0.2
100
AcDbArc
50
180
51
270
0
ARC
5
2A8
100
AcDbEntity
8
0
6
CONTINUOUS
62
7
370
-1
100
AcDbCircle
10
-95.749778714
20
59.750221286
40
0.2
100
AcDbArc
50
270
51
360
0
ARC
5
2A9
100
AcDbEntity
8
0
6
CONTINUOUS
62
7
370
-1
100
AcDbCircle
10
-108.049778714
20
62.850221286
40
0.2
100
AcDbArc
50
360
51
90
0
ARC
5
2AA
100
AcDbEntity
8
0
6
CONTINUOUS
62
7
370
-1
100
AcDbCircle
10
-122.649778714
20
62.850221286
40
0.2
100
AcDbArc
50
90
51
180
0
ARC
5
2AB
100
AcDbEntity
8
0
6
CONTINUOUS
62
7
370
-1
100
AcDbCircle
10
-122.649778714
20
60.750221286
40
0.2
100
AcDbArc
50
180
51
270
0
ARC
5
2AC
100
AcDbEntity
8
0
6
CONTINUOUS
62
7
370
-1
100
AcDbCircle
10
-108.049778714
20
60.750221286
40
0.2
100
AcDbArc
50
270
51
360
0
ARC
5
2AD
100
AcDbEntity
8
0
6
CONTINUOUS
62
7
370
-1
100
AcDbCircle
10
-129.049778714
20
62.850221286
40
0.2
100
AcDbArc
50
360
51
90
0
ARC
5
2AE
100
AcDbEntity
8
0
6
CONTINUOUS
62
7
370
-1
100
AcDbCircle
10
-143.649778714
20
62.850221286
40
0.2
100
AcDbArc
50
90
51
180
0
ARC
5
2AF
100
AcDbEntity
8
0
6
CONTINUOUS
62
7
370
-1
100
AcDbCircle
10
-143.649778714
20
49.650221286
40
0.2
100
AcDbArc
50
180
51
270
0
ARC
5
2B0
100
AcDbEntity
8
0
6
CONTINUOUS
62
7
370
-1
100
AcDbCircle
10
-129.049778714
20
49.650221286
40
0.2
100
AcDbArc
50
270
51
360
0
LINE
5
2B1
100
AcDbEntity
8
0
6
CONTINUOUS
62
7
370
-1
100
AcDbLine
10
-279.949336143
20
37.950221286
11
-279.949336143
21
37.789451771
0
LINE
5
2B2
100
AcDbEntity
8
0
6
CONTINUOUS
62
7
370
-1
100
AcDbLine
10
-280.549336143
20
36.750221286
11
-279.949336143
21
37.789451771
0
LINE
5
2B3
100
AcDbEntity
8
0
6
CONTINUOUS
62
7
370
-1
100
AcDbLine
10
-280.549336143
20
36.750221286
11
-285.099336143
21
36.750221286
0
LINE
5
2B4
100
AcDbEntity
8
0
6
CONTINUOUS
62
7
370
-1
100
AcDbLine
10
-285.699336143
20
37.789451771
11
-285.099336143
21
36.750221286
0
LINE
5
2B5
100
AcDbEntity
8
0
6
CONTINUOUS
62
7
370
-1
100
AcDbLine
10
-285.699336143
20
37.789451771
11
-285.699336143
21
43.200221286
0
LINE
5
2B6
100
AcDbEntity
8
0
6
CONTINUOUS
62
7
370
-1
100
AcDbLine
10
-289.199336143
20
43.200221286
11
-289.199336143
21
37.789451771
0
LINE
5
2B7
100
AcDbEntity
8
0
6
CONTINUOUS
62
7
370
-1
100
AcDbLine
10
-289.799336143
20
36.750221286
11
-289.199336143
21
37.789451771
0
LINE
5
2B8
100
AcDbEntity
8
0
6
CONTINUOUS
62
7
370
-1
100
AcDbLine
10
-289.799336143
20
36.750221286
11
-294.349336143
21
36.750221286
0
LINE
5
2B9
100
AcDbEntity
8
0
6
CONTINUOUS
62
7
370
-1
100
AcDbLine
10
-294.949336143
20
37.789451771
11
-294.349336143
21
36.750221286
0
LINE
5
2BA
100
AcDbEntity
8
0
6
CONTINUOUS
62
7
370
-1
100
AcDbLine
10
-294.949336143
20
37.950221286
11
-294.949336143
21
37.789451771
0
ARC
5
2BB
100
AcDbEntity
8
0
6
CONTINUOUS
62
7
370
-1
100
AcDbCircle
10
-287.449336143
20
43.200221286
40
1.75
100
AcDbArc
50
0
51
180
0
LINE
5
2BC
100
AcDbEntity
8
0
6
CONTINUOUS
62
7
370
-1
100
AcDbLine
10
-417.498893572
20
66.750221286
11
-417.498893572
21
56.100221286
0
LINE
5
2BD
100
AcDbEntity
8
0
6
DASHED2
62
255
370
-1
100
AcDbLine
10
-306.599114858
20
142.049778714
11
-306.599114858
21
114.249778714
0
LINE
5
2BE
100
AcDbEntity
8
0
6
DASHED2
62
4
370
-1
100
AcDbLine
10
-52.9497787144
20
141.599557429
11
-151.749778714
21
141.599557429
0
LINE
5
2BF
100
AcDbEntity
8
0
6
DASHED2
62
4
370
-1
100
AcDbLine
10
-305.849336143
20
113.7
11
-154.649336143
21
113.7
0
LINE
5
2C0
100
AcDbEntity
8
0
6
DASHED2
62
4
370
-1
100
AcDbLine
10
-173.563444837
20
141.599557429
11
-276.449336143
21
141.599557429
0
LINE
5
2C1
100
AcDbEntity
8
0
6
DASHED2
62
4
370
-1
100
AcDbLine
10
-306.599114858
20
142.049778714
11
-306.599114858
21
114.249778714
0
LINE
5
2C2
100
AcDbEntity
8
0
6
DASHED2
62
4
370
-1
100
AcDbLine
10
-202.20026873
20
50.855994787
11
-199.62534373
21
48.429413287
0
LINE
5
2C3
100
AcDbEntity
8
0
6
DASHED2
62
4
370
-1
100
AcDbLine
10
-199.19952323
20
48.429413287
11
-196.77280023
21
50.855994787
0
LINE
5
2C4
100
AcDbEntity
8
0
6
DASHED2
62
4
370
-1
100
AcDbLine
10
-204.31217273
20
45.575423287
11
-195.56839923
21
45.575423287
0
LINE
5
2C5
100
AcDbEntity
8
0
6
DASHED2
62
4
370
-1
100
AcDbLine
10
-191.99389723
20
49.150190787
11
-191.99458673
21
57.893770787
0
LINE
5
2C6
100
AcDbEntity
8
0
6
DASHED2
62
4
370
-1
100
AcDbLine
10
-192.34667523
20
58.282302287
11
-193.80946673
21
56.818838787
0
LINE
5
2C7
100
AcDbEntity
8
0
6
DASHED2
62
4
370
-1
100
AcDbLine
10
-193.86520573
20
56.689369787
11
-193.86451773
21
49.150190787
0
LINE
5
2C8
100
AcDbEntity
8
0
6
DASHED2
62
4
370
-1
100
AcDbLine
10
-195.56839923
20
47.446044787
11
-203.10777173
21
47.446044787
0
LINE
5
2C9
100
AcDbEntity
8
0
6
DASHED2
62
4
370
-1
100
AcDbLine
10
-203.23799973
20
47.391046787
11
-204.70148073
21
45.927513287
0
LINE
5
2CA
100
AcDbEntity
8
0
6
DASHED2
62
4
370
-1
100
AcDbLine
10
-194.51288773
20
60.414893287
11
-203.25646773
21
60.414893287
0
LINE
5
2CB
100
AcDbEntity
8
0
6
DASHED2
62
4
370
-1
100
AcDbLine
10
-206.83116473
20
56.839511787
11
-206.83047673
21
48.096602287
0
LINE
5
2CC
100
AcDbEntity
8
0
6
DASHED2
62
4
370
-1
100
AcDbLine
10
-206.47838673
20
47.708000287
11
-205.01490623
21
49.171481287
0
LINE
5
2CD
100
AcDbEntity
8
0
6
DASHED2
62
4
370
-1
100
AcDbLine
10
-204.95985523
20
49.300950787
11
-204.96040173
21
56.839511787
0
LINE
5
2CE
100
AcDbEntity
8
0
6
DASHED2
62
4
370
-1
100
AcDbLine
10
-203.25646773
20
58.543587287
11
-195.71728873
21
58.543587287
0
LINE
5
2CF
100
AcDbEntity
8
0
6
DASHED2
62
4
370
-1
100
AcDbLine
10
-195.58706123
20
58.599326287
11
-194.12358023
21
60.062803787
0
ARC
5
2D0
100
AcDbEntity
8
0
6
DASHED2
62
4
370
-1
100
AcDbCircle
10
-199.577286192
20
54.000152329
40
4.21162068638
100
AcDbArc
50
312.089766974
51
354.77127838
0
ARC
5
2D1
100
AcDbEntity
8
0
6
DASHED2
62
4
370
-1
100
AcDbCircle
10
-199.414899942
20
53.604291403
40
4.03172721404
100
AcDbArc
50
0.171222542
51
90.093165824
0
ARC
5
2D2
100
AcDbEntity
8
0
6
DASHED2
62
4
370
-1
100
AcDbCircle
10
-199.424592032
20
53.619405643
40
4.01660886802
100
AcDbArc
50
89.955261541
51
180.043733572
0
ARC
5
2D3
100
AcDbEntity
8
0
6
DASHED2
62
4
370
-1
100
AcDbCircle
10
-199.23902001
20
53.846350148
40
4.20846993221
100
AcDbArc
50
183.1330134
51
225.280205863
0
ARC
5
2D4
100
AcDbEntity
8
0
6
DASHED2
62
4
370
-1
100
AcDbCircle
10
-204.560170255
20
45.796993892
40
0.192364140986
100
AcDbArc
50
137.273329596
51
202.420725961
0
ARC
5
2D5
100
AcDbEntity
8
0
6
DASHED2
62
4
370
-1
100
AcDbCircle
10
-204.563879538
20
45.795895759
40
0.188516840279
100
AcDbArc
50
202.542180741
51
256.361865325
0
ARC
5
2D6
100
AcDbEntity
8
0
6
DASHED2
62
4
370
-1
100
AcDbCircle
10
-195.577146831
20
49.158672248
40
3.58325963813
100
AcDbArc
50
270.139872947
51
359.864382601
0
ARC
5
2D7
100
AcDbEntity
8
0
6
DASHED2
62
4
370
-1
100
AcDbCircle
10
-192.21575541
20
58.142566359
40
0.191484017323
100
AcDbArc
50
67.535809588
51
133.134356091
0
ARC
5
2D8
100
AcDbEntity
8
0
6
DASHED2
62
4
370
-1
100
AcDbCircle
10
-195.54538063
20
49.12691128
40
1.68102409958
100
AcDbArc
50
269.215412878
51
0.793480673
0
ARC
5
2D9
100
AcDbEntity
8
0
6
DASHED2
62
4
370
-1
100
AcDbCircle
10
-194.264932692
20
60.193328002
40
0.192398256624
100
AcDbArc
50
317.280758723
51
22.412565395
0
ARC
5
2DA
100
AcDbEntity
8
0
6
DASHED2
62
4
370
-1
100
AcDbCircle
10
-194.26221448
20
60.193403322
40
0.189859115774
100
AcDbArc
50
22.70431325
51
76.078776176
0
ARC
5
2DB
100
AcDbEntity
8
0
6
DASHED2
62
4
370
-1
100
AcDbCircle
10
-203.24781146
20
56.831541608
40
3.58336213442
100
AcDbArc
50
90.138408634
51
179.872561584
0
ARC
5
2DC
100
AcDbEntity
8
0
6
DASHED2
62
4
370
-1
100
AcDbCircle
10
-206.608832045
20
47.846045001
40
0.190039663517
100
AcDbArc
50
193.938161546
51
247.242557353
0
ARC
5
2DD
100
AcDbEntity
8
0
6
DASHED2
62
4
370
-1
100
AcDbCircle
10
-206.609189273
20
47.847428977
40
0.191179666439
100
AcDbArc
50
247.501730233
51
313.171661904
0
ARC
5
2DE
100
AcDbEntity
8
0
6
DASHED2
62
4
370
-1
100
AcDbCircle
10
-203.280152068
20
56.863335652
40
1.68041855042
100
AcDbArc
50
89.192428865
51
180.812328958
0
LWPOLYLINE
5
2DF
100
AcDbEntity
8
0
6
DASHED2
62
4
370
-1
100
AcDbPolyline
90
3
70
0
43
0
10
-218.162757231
20
57.075149786
10
-218.486745936
20
57.050177266
10
-218.696157231
20
56.988331286
0
LWPOLYLINE
5
2E0
100
AcDbEntity
8
0
6
DASHED2
62
4
370
-1
100
AcDbPolyline
90
3
70
0
43
0
10
-217.653522731
20
51.167497786
10
-217.453908811
20
50.230180309
10
-216.994181231
20
49.627605286
0
LWPOLYLINE
5
2E1
100
AcDbEntity
8
0
6
DASHED2
62
4
370
-1
100
AcDbPolyline
90
7
70
0
43
0
10
-216.382993731
20
51.179351286
10
-216.324692221
20
51.746993242
10
-216.158863878
20
52.19000231
10
-215.899122981
20
52.522296515
10
-215.559083809
20
52.757793881
10
-214.895246964
20
52.965768339
10
-214.119571231
20
53.023091286
0
LWPOLYLINE
5
2E2
100
AcDbEntity
8
0
6
DASHED2
62
4
370
-1
100
AcDbPolyline
90
6
70
0
43
0
10
-224.74223923
20
52.805303787
10
-224.727590715
20
52.910674279
10
-224.681936355
20
53.018148099
10
-224.602712934
20
53.101710138
10
-224.549711818
20
53.126394518
10
-224.48735723
20
53.135345287
0
LWPOLYLINE
5
2E3
100
AcDbEntity
8
0
6
DASHED2
62
4
370
-1
100
AcDbPolyline
90
3
70
0
43
0
10
-212.65748373
20
49.15825179
10
-211.766028603
20
49.148123958
10
-211.01971273
20
49.132887289
0
LWPOLYLINE
5
2E4
100
AcDbEntity
8
0
6
DASHED2
62
4
370
-1
100
AcDbPolyline
90
7
70
0
43
0
10
-211.01971273
20
49.602046289
10
-211.659540664
20
49.674810354
10
-211.816592498
20
49.744115165
10
-211.929952706
20
49.851949983
10
-212.016639715
20
50.044802861
10
-212.060887392
20
50.3241436
10
-212.07328373
20
50.707299289
0
LWPOLYLINE
5
2E5
100
AcDbEntity
8
0
6
DASHED2
62
4
370
-1
100
AcDbPolyline
90
8
70
0
43
0
10
-212.07328373
20
55.398696786
10
-212.058975917
20
55.805669403
10
-212.007427334
20
56.094785943
10
-211.932371434
20
56.253106321
10
-211.820062455
20
56.362085118
10
-211.629086764
20
56.441774434
10
-211.365832853
20
56.483520826
10
-211.01971273
20
56.504707786
0
LWPOLYLINE
5
2E6
100
AcDbEntity
8
0
6
DASHED2
62
4
370
-1
100
AcDbPolyline
90
3
70
0
43
0
10
-211.01971273
20
56.973867286
10
-211.975541272
20
56.954455562
10
-212.67265323
20
56.947743786
0
LWPOLYLINE
5
2E7
100
AcDbEntity
8
0
6
DASHED2
62
4
370
-1
100
AcDbPolyline
90
3
70
0
43
0
10
-212.67265323
20
56.947743786
10
-213.584073293
20
56.958041545
10
-214.36281173
20
56.973867286
0
LWPOLYLINE
5
2E8
100
AcDbEntity
8
0
6
DASHED2
62
4
370
-1
100
AcDbPolyline
90
7
70
0
43
0
10
-214.36281173
20
56.504707786
10
-213.709549347
20
56.433414788
10
-213.543576738
20
56.364351004
10
-213.42087197
20
56.256516522
10
-213.324000792
20
56.063303862
10
-213.272310568
20
55.783158447
10
-213.25702973
20
55.398696786
0
LWPOLYLINE
5
2E9
100
AcDbEntity
8
0
6
DASHED2
62
4
370
-1
100
AcDbPolyline
90
6
70
0
43
0
10
-213.25702973
20
50.340057287
10
-213.294909113
20
50.152256613
10
-213.410500097
20
49.973026812
10
-213.606731934
20
49.815500595
10
-213.945516403
20
49.67557113
10
-214.405177704
20
49.605529543
0
LWPOLYLINE
5
2EA
100
AcDbEntity
8
0
6
DASHED2
62
4
370
-1
100
AcDbPolyline
90
3
70
0
43
0
10
-219.72274073
20
54.076538787
10
-219.971795641
20
55.347837766
10
-220.51102273
20
56.174666787
0
LWPOLYLINE
5
2EB
100
AcDbEntity
8
0
6
DASHED2
62
4
370
-1
100
AcDbPolyline
90
3
70
0
43
0
10
-225.73513223
20
55.564202287
10
-224.630595325
20
56.258806955
10
-223.52339223
20
56.440625787
0
LWPOLYLINE
5
2EC
100
AcDbEntity
8
0
6
DASHED2
62
4
370
-1
100
AcDbPolyline
90
3
70
0
43
0
10
-221.41360473
20
55.425013788
10
-221.031765503
20
54.60368552
10
-220.94158773
20
53.708608787
0
LWPOLYLINE
5
2ED
100
AcDbEntity
8
0
6
DASHED2
62
4
370
-1
100
AcDbPolyline
90
6
70
0
43
0
10
-255.38557523
20
51.370203788
10
-256.071343368
20
51.473619319
10
-256.586186339
20
51.772630767
10
-256.945592538
20
52.250385416
10
-257.190696117
20
53.020000736
10
-257.266762729
20
53.986897788
0
LWPOLYLINE
5
2EE
100
AcDbEntity
8
0
6
DASHED2
62
4
370
-1
100
AcDbPolyline
90
3
70
0
43
0
10
-253.84057709
20
56.57373713
10
-254.577203333
20
56.969786013
10
-255.31061023
20
57.075149787
0
LWPOLYLINE
5
2EF
100
AcDbEntity
8
0
6
DASHED2
62
4
370
-1
100
AcDbPolyline
90
3
70
0
43
0
10
-255.31061023
20
57.075149787
10
-256.566738774
20
56.837289066
10
-257.41828123
20
56.287537787
0
LWPOLYLINE
5
2F0
100
AcDbEntity
8
0
6
DASHED2
62
4
370
-1
100
AcDbPolyline
90
3
70
0
43
0
10
-229.437103317
20
56.614687574
10
-230.151120936
20
56.978783015
10
-230.852526731
20
57.075149787
0
LWPOLYLINE
5
2F1
100
AcDbEntity
8
0
6
DASHED2
62
4
370
-1
100
AcDbPolyline
90
3
70
0
43
0
10
-230.852526731
20
57.075149787
10
-232.111367921
20
56.837289066
10
-232.962843731
20
56.287537787
0
LWPOLYLINE
5
2F2
100
AcDbEntity
8
0
6
DASHED2
62
4
370
-1
100
AcDbPolyline
90
6
70
0
43
0
10
-230.86991445
20
51.415230191
10
-231.556866564
20
51.502491186
10
-232.078373938
20
51.789299916
10
-232.449207137
20
52.258451025
10
-232.712916078
20
53.022067416
10
-232.812031225
20
53.986897779
0
LWPOLYLINE
5
2F3
100
AcDbEntity
8
0
6
DASHED2
62
4
370
-1
100
AcDbPolyline
90
3
70
0
43
0
10
-228.89566873
20
50.669410787
10
-228.026153032
20
50.914359825
10
-226.95045173
20
51.089710287
0
LWPOLYLINE
5
2F4
100
AcDbEntity
8
0
6
DASHED2
62
4
370
-1
100
AcDbPolyline
90
7
70
0
43
0
10
-226.99119773
20
51.483075287
10
-227.368562529
20
51.530271577
10
-227.653220371
20
51.604712602
10
-227.852991182
20
51.736714912
10
-227.955497178
20
51.900560864
10
-228.014219154
20
52.133363224
10
-228.03295023
20
52.449827287
0
LWPOLYLINE
5
2F5
100
AcDbEntity
8
0
6
DASHED2
62
4
370
-1
100
AcDbPolyline
90
7
70
0
43
0
10
-228.03295023
20
58.296095787
10
-228.012226525
20
58.722433595
10
-227.946418755
20
59.025145628
10
-227.85953131
20
59.190824261
10
-227.738797758
20
59.304824133
10
-227.430713718
20
59.413887469
10
-226.99119773
20
59.454469787
0
LWPOLYLINE
5
2F6
100
AcDbEntity
8
0
6
DASHED2
62
4
370
-1
100
AcDbPolyline
90
3
70
0
43
0
10
-226.99119773
20
59.923622287
10
-227.844516012
20
59.903866248
10
-228.59175023
20
59.896613287
0
LWPOLYLINE
5
2F7
100
AcDbEntity
8
0
6
DASHED2
62
4
370
-1
100
AcDbPolyline
90
3
70
0
43
0
10
-228.59175023
20
59.896613287
10
-229.683980077
20
59.907659333
10
-230.43624923
20
59.923622287
0
LWPOLYLINE
5
2F8
100
AcDbEntity
8
0
6
DASHED2
62
4
370
-1
100
AcDbPolyline
90
7
70
0
43
0
10
-230.43624923
20
59.454469787
10
-229.620313354
20
59.374279268
10
-229.428803398
20
59.302353676
10
-229.295102413
20
59.190604437
10
-229.209323118
20
59.027797428
10
-229.161578233
20
58.802698526
10
-229.13961423
20
58.296095787
0
LWPOLYLINE
5
2F9
100
AcDbEntity
8
0
6
DASHED2
62
4
370
-1
100
AcDbPolyline
90
7
70
0
43
0
10
-240.59448523
20
51.179351287
10
-240.536185683
20
51.746993242
10
-240.370370961
20
52.190002311
10
-240.11066694
20
52.522296516
10
-239.770699501
20
52.757793881
10
-239.107073698
20
52.965768339
10
-238.33176873
20
53.023091287
0
LWPOLYLINE
5
2FA
100
AcDbEntity
8
0
6
DASHED2
62
4
370
-1
100
AcDbPolyline
90
3
70
0
43
0
10
-242.37495473
20
57.075149787
10
-242.698715318
20
57.050177267
10
-242.90747273
20
56.988331287
0
LWPOLYLINE
5
2FB
100
AcDbEntity
8
0
6
DASHED2
62
4
370
-1
100
AcDbPolyline
90
3
70
0
43
0
10
-241.86501423
20
51.167497787
10
-241.665692353
20
50.23018031
10
-241.20567273
20
49.627605287
0
LWPOLYLINE
5
2FC
100
AcDbEntity
8
0
6
DASHED2
62
4
370
-1
100
AcDbPolyline
90
3
70
0
43
0
10
-236.86968123
20
49.158251787
10
-235.977507637
20
49.148123956
10
-235.23120473
20
49.132887287
0
LWPOLYLINE
5
2FD
100
AcDbEntity
8
0
6
DASHED2
62
4
370
-1
100
AcDbPolyline
90
7
70
0
43
0
10
-235.23120473
20
49.602046287
10
-235.871155886
20
49.674810352
10
-236.028298908
20
49.744115163
10
-236.141756425
20
49.851949981
10
-236.228550775
20
50.044802859
10
-236.272877564
20
50.324143598
10
-236.28530473
20
50.707299287
0
LWPOLYLINE
5
2FE
100
AcDbEntity
8
0
6
DASHED2
62
4
370
-1
100
AcDbPolyline
90
8
70
0
43
0
10
-236.28530473
20
55.398696787
10
-236.270961946
20
55.805669404
10
-236.219324789
20
56.094785944
10
-236.144177655
20
56.253106321
10
-236.031771367
20
56.362085119
10
-235.840688393
20
56.441774434
10
-235.577355493
20
56.483520827
10
-235.23120473
20
56.504707787
0
LWPOLYLINE
5
2FF
100
AcDbEntity
8
0
6
DASHED2
62
4
370
-1
100
AcDbPolyline
90
3
70
0
43
0
10
-235.23120473
20
56.973867287
10
-236.187386543
20
56.954455562
10
-236.88485023
20
56.947743787
0
LWPOLYLINE
5
300
100
AcDbEntity
8
0
6
DASHED2
62
4
370
-1
100
AcDbPolyline
90
3
70
0
43
0
10
-236.88485023
20
56.947743787
10
-237.79619723
20
56.958041546
10
-238.57500873
20
56.973867287
0
LWPOLYLINE
5
301
100
AcDbEntity
8
0
6
DASHED2
62
4
370
-1
100
AcDbPolyline
90
7
70
0
43
0
10
-238.57500873
20
56.504707787
10
-237.92170516
20
56.433414788
10
-237.755702131
20
56.364351005
10
-237.632964911
20
56.256516522
10
-237.536057943
20
56.063303863
10
-237.484341344
20
55.783158448
10
-237.46905023
20
55.398696787
0
LWPOLYLINE
5
302
100
AcDbEntity
8
0
6
DASHED2
62
4
370
-1
100
AcDbPolyline
90
6
70
0
43
0
10
-237.46905023
20
50.340057287
10
-237.505536603
20
50.15558632
10
-237.616877814
20
49.979154736
10
-237.805897003
20
49.823201702
10
-238.132232769
20
49.682610269
10
-238.57500873
20
49.608106359
0
LWPOLYLINE
5
303
100
AcDbEntity
8
0
6
DASHED2
62
4
370
-1
100
AcDbPolyline
90
7
70
0
43
0
10
-249.42221973
20
57.075149787
10
-250.064683387
20
56.987699201
10
-250.534969355
20
56.783783974
10
-250.823883387
20
56.551058904
10
-250.903024954
20
56.440820823
10
-250.917413345
20
56.405921185
10
-250.92223123
20
56.377178787
0
LWPOLYLINE
5
304
100
AcDbEntity
8
0
6
DASHED2
62
4
370
-1
100
AcDbPolyline
90
7
70
0
43
0
10
-250.20979623
20
56.366225287
10
-249.993127673
20
56.340320165
10
-249.816231363
20
56.266603592
10
-249.676380847
20
56.151073757
10
-249.570849668
20
55.999728849
10
-249.451839504
20
55.613586576
10
-249.43738923
20
55.156162287
0
LWPOLYLINE
5
305
100
AcDbEntity
8
0
6
DASHED2
62
4
370
-1
100
AcDbPolyline
90
6
70
0
43
0
10
-247.18560873
20
50.721780787
10
-246.197880535
20
50.858978545
10
-245.326073043
20
51.217859099
10
-244.704495269
20
51.719353373
10
-244.529514095
20
51.998871567
10
-244.46745623
20
52.284392287
0
LWPOLYLINE
5
306
100
AcDbEntity
8
0
6
DASHED2
62
4
370
-1
100
AcDbPolyline
90
6
70
0
43
0
10
-245.03789773
20
52.779868787
10
-245.343183838
20
52.732236014
10
-245.578639649
20
52.61402307
10
-245.664393596
20
52.536365937
10
-245.718894478
20
52.454824606
10
-245.73798523
20
52.374720787
0
LWPOLYLINE
5
307
100
AcDbEntity
8
0
6
DASHED2
62
4
370
-1
100
AcDbPolyline
90
3
70
0
43
0
10
-245.73798523
20
52.374720787
10
-245.718394663
20
52.204358986
10
-245.68630323
20
52.105392787
0
LWPOLYLINE
5
308
100
AcDbEntity
8
0
6
DASHED2
62
4
370
-1
100
AcDbPolyline
90
6
70
0
43
0
10
-245.66019773
20
51.827580287
10
-245.694722743
20
51.673963745
10
-245.791075488
20
51.546292451
10
-245.938422526
20
51.442882591
10
-246.125930418
20
51.362050349
10
-247.06090173
20
51.230821287
0
LWPOLYLINE
5
309
100
AcDbEntity
8
0
6
DASHED2
62
4
370
-1
100
AcDbPolyline
90
7
70
0
43
0
10
-247.06090173
20
51.230821287
10
-247.441783029
20
51.273260712
10
-247.7973125
20
51.422540769
10
-248.09985207
20
51.711604131
10
-248.282383663
20
52.058247172
10
-248.401733742
20
52.527501184
10
-248.44449623
20
53.135345287
0
LWPOLYLINE
5
30A
100
AcDbEntity
8
0
6
DASHED2
62
4
370
-1
100
AcDbPolyline
90
5
70
0
43
0
10
-246.66473223
20
53.593532787
10
-245.35772531
20
53.954460054
10
-244.484828244
20
54.484464595
10
-244.098058456
20
55.000923493
10
-243.97003923
20
55.590308287
0
LWPOLYLINE
5
30B
100
AcDbEntity
8
0
6
DASHED2
62
4
370
-1
100
AcDbPolyline
90
6
70
0
43
0
10
-243.97003923
20
55.590308287
10
-244.057912288
20
56.126150282
10
-244.306318458
20
56.531501969
10
-244.692438237
20
56.816868542
10
-245.293265353
20
57.013445768
10
-246.01632673
20
57.075149787
0
LWPOLYLINE
5
30C
100
AcDbEntity
8
0
6
DASHED2
62
4
370
-1
100
AcDbPolyline
90
3
70
0
43
0
10
-248.07654923
20
55.868120787
10
-247.141153821
20
56.334823028
10
-246.39803223
20
56.504708287
0
LWPOLYLINE
5
30D
100
AcDbEntity
8
0
6
DASHED2
62
4
370
-1
100
AcDbPolyline
90
3
70
0
43
0
10
-253.35092973
20
50.669410787
10
-252.482378564
20
50.914359825
10
-251.40588923
20
51.089710287
0
LWPOLYLINE
5
30E
100
AcDbEntity
8
0
6
DASHED2
62
4
370
-1
100
AcDbPolyline
90
7
70
0
43
0
10
-251.44645873
20
51.483075287
10
-251.823905067
20
51.530271577
10
-252.108614434
20
51.604712602
10
-252.308413647
20
51.736714912
10
-252.410930223
20
51.900560864
10
-252.469656097
20
52.133363224
10
-252.48838773
20
52.449827287
0
LWPOLYLINE
5
30F
100
AcDbEntity
8
0
6
DASHED2
62
4
370
-1
100
AcDbPolyline
90
7
70
0
43
0
10
-252.48838773
20
58.296095787
10
-252.467652367
20
58.722433595
10
-252.401815068
20
59.025145628
10
-252.314897203
20
59.190824261
10
-252.194131199
20
59.304824133
10
-251.885996587
20
59.413887469
10
-251.44645873
20
59.454469787
0
LWPOLYLINE
5
310
100
AcDbEntity
8
0
6
DASHED2
62
4
370
-1
100
AcDbPolyline
90
3
70
0
43
0
10
-251.44645873
20
59.923622287
10
-252.299865622
20
59.903866248
10
-253.04718773
20
59.896613287
0
LWPOLYLINE
5
311
100
AcDbEntity
8
0
6
DASHED2
62
4
370
-1
100
AcDbPolyline
90
3
70
0
43
0
10
-253.04718773
20
59.896613287
10
-254.139220618
20
59.907659333
10
-254.89098123
20
59.923622287
0
LWPOLYLINE
5
312
100
AcDbEntity
8
0
6
DASHED2
62
4
370
-1
100
AcDbPolyline
90
7
70
0
43
0
10
-254.89098123
20
59.454469787
10
-254.075238648
20
59.374279268
10
-253.883683671
20
59.302353676
10
-253.749902411
20
59.190604437
10
-253.664029353
20
59.027797428
10
-253.616198984
20
58.802698526
10
-253.59416973
20
58.296095787
0
LWPOLYLINE
5
313
100
AcDbEntity
8
0
6
DASHED2
62
4
370
-1
100
AcDbPolyline
90
7
70
0
43
0
10
-265.07743923
20
51.333003287
10
-265.0232101
20
51.987184161
10
-264.850486231
20
52.490668701
10
-264.544212901
20
52.85179654
10
-264.20007357
20
53.041104871
10
-263.756891486
20
53.151723384
10
-263.20736423
20
53.187697287
0
LWPOLYLINE
5
314
100
AcDbEntity
8
0
6
DASHED2
62
4
370
-1
100
AcDbPolyline
90
3
70
0
43
0
10
-263.20736423
20
53.187697287
10
-262.622769039
20
53.170748612
10
-262.149436388
20
53.139911195
0
LWPOLYLINE
5
315
100
AcDbEntity
8
0
6
DASHED2
62
4
370
-1
100
AcDbPolyline
90
3
70
0
43
0
10
-262.149436388
20
53.56179841
10
-262.750003261
20
53.646617934
10
-263.271393731
20
53.671320286
0
LWPOLYLINE
5
316
100
AcDbEntity
8
0
6
DASHED2
62
4
370
-1
100
AcDbPolyline
90
8
70
0
43
0
10
-266.359610231
20
51.115815786
10
-266.329344164
20
50.791089596
10
-266.221993873
20
50.427096478
10
-266.012731216
20
50.054318228
10
-265.676728053
20
49.703236637
10
-265.161735222
20
49.391920467
10
-264.451848347
20
49.172917431
10
-263.51852083
20
49.081274517
0
LWPOLYLINE
5
317
100
AcDbEntity
8
0
6
DASHED2
62
4
370
-1
100
AcDbPolyline
90
3
70
0
43
0
10
-261.37803523
20
49.158251787
10
-260.416983866
20
49.148123956
10
-259.63901723
20
49.132887287
0
LWPOLYLINE
5
318
100
AcDbEntity
8
0
6
DASHED2
62
4
370
-1
100
AcDbPolyline
90
7
70
0
43
0
10
-259.63901723
20
49.602046287
10
-260.291028532
20
49.674810352
10
-260.457079047
20
49.744115163
10
-260.580038978
20
49.851949981
10
-260.677313304
20
50.044802859
10
-260.729362962
20
50.324143598
10
-260.74479923
20
50.707299287
0
LWPOLYLINE
5
319
100
AcDbEntity
8
0
6
DASHED2
62
4
370
-1
100
AcDbPolyline
90
8
70
0
43
0
10
-260.74479923
20
55.398696787
10
-260.731554703
20
55.702346563
10
-260.690698028
20
55.942769295
10
-260.620544565
20
56.12770598
10
-260.519409672
20
56.264897618
10
-260.385608708
20
56.362085207
10
-260.021201903
20
56.466304265
10
-259.51148773
20
56.504708287
0
LWPOLYLINE
5
31A
100
AcDbEntity
8
0
6
DASHED2
62
4
370
-1
100
AcDbPolyline
90
3
70
0
43
0
10
-259.51148773
20
56.973867287
10
-260.575122242
20
56.954455562
10
-261.39320473
20
56.947743787
0
LWPOLYLINE
5
31B
100
AcDbEntity
8
0
6
DASHED2
62
4
370
-1
100
AcDbPolyline
90
7
70
0
43
0
10
-263.47688673
20
56.504708287
10
-262.815965832
20
56.451487256
10
-262.329322668
20
56.309379412
10
-262.155029431
20
56.176883052
10
-262.02871466
20
55.988433131
10
-261.951848034
20
55.732785693
10
-261.92589923
20
55.398696787
0
LWPOLYLINE
5
31C
100
AcDbEntity
8
0
6
DASHED2
62
4
370
-1
100
AcDbPolyline
90
6
70
0
43
0
10
-261.92589923
20
50.340057287
10
-261.963306564
20
50.113567718
10
-262.082179347
20
49.92053375
10
-262.292493753
20
49.766594736
10
-262.671326922
20
49.643027501
10
-263.20736423
20
49.59082961
0
LWPOLYLINE
5
31D
100
AcDbEntity
8
0
6
DASHED2
62
4
370
-1
100
AcDbPolyline
90
4
70
0
43
0
10
-269.17706973
20
51.584287287
10
-269.287546406
20
51.690378264
10
-269.350037803
20
51.850628688
10
-269.37956423
20
52.272750787
0
LWPOLYLINE
5
31E
100
AcDbEntity
8
0
6
DASHED2
62
4
370
-1
100
AcDbPolyline
90
5
70
0
43
0
10
-270.76598123
20
56.325496787
10
-270.655759728
20
56.24165583
10
-270.577363636
20
56.125223364
10
-270.526036297
20
55.964793752
10
-270.48481723
20
55.347014787
0
LWPOLYLINE
5
31F
100
AcDbEntity
8
0
6
DASHED2
62
4
370
-1
100
AcDbPolyline
90
3
70
0
43
0
10
-270.48481723
20
53.593532787
10
-270.586969514
20
53.096071233
10
-270.79208673
20
52.779868787
0
LWPOLYLINE
5
320
100
AcDbEntity
8
0
6
DASHED2
62
4
370
-1
100
AcDbPolyline
90
11
70
0
43
0
10
-270.61234623
20
52.194821787
10
-270.570644948
20
52.234040497
10
-270.5570947
20
52.241472773
10
-270.54501816
20
52.244306138
10
-270.535827437
20
52.243041318
10
-270.52759701
20
52.238347059
10
-270.52027619
20
52.230182442
10
-270.513814291
20
52.218506547
10
-270.497730394
20
52.153020615
10
-270.488848417
20
52.045879573
10
-270.48481723
20
51.789621287
0
LWPOLYLINE
5
321
100
AcDbEntity
8
0
6
DASHED2
62
4
370
-1
100
AcDbPolyline
90
6
70
0
43
0
10
-276.416599231
20
53.708608786
10
-276.511303869
20
52.715700763
10
-276.8577543
20
51.885457292
10
-277.171092063
20
51.562397722
10
-277.592597038
20
51.342387673
10
-278.135707824
20
51.245508405
0
LWPOLYLINE
5
322
100
AcDbEntity
8
0
6
DASHED2
62
4
370
-1
100
AcDbPolyline
90
3
70
0
43
0
10
-278.135707824
20
50.739309179
10
-276.848009752
20
51.118543006
10
-276.07211173
20
51.711128286
0
LWPOLYLINE
5
323
100
AcDbEntity
8
0
6
DASHED2
62
4
370
-1
100
AcDbPolyline
90
3
70
0
43
0
10
-276.07211173
20
51.711128286
10
-275.373850113
20
52.906157709
10
-275.19563523
20
54.026920286
0
LWPOLYLINE
5
324
100
AcDbEntity
8
0
6
DASHED2
62
4
370
-1
100
AcDbPolyline
90
3
70
0
43
0
10
-279.13401197
20
57.028144648
10
-280.163788002
20
56.708531815
10
-280.78769223
20
56.287538285
0
LINE
5
325
100
AcDbEntity
8
0
6
DASHED2
62
4
370
-1
100
AcDbLine
10
-217.563387731
20
55.766696786
11
-215.836011731
21
53.224915286
0
LINE
5
326
100
AcDbEntity
8
0
6
DASHED2
62
4
370
-1
100
AcDbLine
10
-214.727732805
20
49.080662036
11
-214.727732805
21
49.603886916
0
LINE
5
327
100
AcDbEntity
8
0
6
DASHED2
62
4
370
-1
100
AcDbLine
10
-214.119571231
20
53.023091286
11
-213.688300481
21
53.023091286
0
LINE
5
328
100
AcDbEntity
8
0
6
DASHED2
62
4
370
-1
100
AcDbLine
10
-213.688300481
20
53.023091286
11
-213.688300481
21
53.453123509
0
LINE
5
329
100
AcDbEntity
8
0
6
DASHED2
62
4
370
-1
100
AcDbLine
10
-214.996047731
20
53.900149786
11
-216.484240731
21
55.995455786
0
LINE
5
32A
100
AcDbEntity
8
0
6
DASHED2
62
4
370
-1
100
AcDbLine
10
-223.290735375
20
50.724773893
11
-223.264941253
21
51.237451798
0
LINE
5
32B
100
AcDbEntity
8
0
6
DASHED2
62
4
370
-1
100
AcDbLine
10
-224.48735723
20
53.135345287
11
-221.336388095
21
53.182723763
0
LINE
5
32C
100
AcDbEntity
8
0
6
DASHED2
62
4
370
-1
100
AcDbLine
10
-221.336388095
20
53.182723763
11
-221.271747258
21
53.708608787
0
LINE
5
32D
100
AcDbEntity
8
0
6
DASHED2
62
4
370
-1
100
AcDbLine
10
-221.271747258
20
53.708608787
11
-225.70885023
21
53.708608787
0
LINE
5
32E
100
AcDbEntity
8
0
6
DASHED2
62
4
370
-1
100
AcDbLine
10
-212.07328373
20
50.707299289
11
-212.07328373
21
55.398696786
0
LINE
5
32F
100
AcDbEntity
8
0
6
DASHED2
62
4
370
-1
100
AcDbLine
10
-213.25702973
20
55.398696786
11
-213.25702973
21
50.340057287
0
LINE
5
330
100
AcDbEntity
8
0
6
DASHED2
62
4
370
-1
100
AcDbLine
10
-214.405177704
20
49.605529543
11
-214.405177704
21
49.083650514
0
LINE
5
331
100
AcDbEntity
8
0
6
DASHED2
62
4
370
-1
100
AcDbLine
10
-220.94158773
20
53.708608787
11
-221.00561723
21
53.187697287
0
LINE
5
332
100
AcDbEntity
8
0
6
DASHED2
62
4
370
-1
100
AcDbLine
10
-222.972908725
20
51.235296793
11
-222.972908725
21
50.726197614
0
LINE
5
333
100
AcDbEntity
8
0
6
DASHED2
62
4
370
-1
100
AcDbLine
10
-253.84057709
20
55.73265743
11
-253.84057709
21
56.57373713
0
LINE
5
334
100
AcDbEntity
8
0
6
DASHED2
62
4
370
-1
100
AcDbLine
10
-253.84057709
20
51.735087763
11
-253.84057709
21
52.448274457
0
LINE
5
335
100
AcDbEntity
8
0
6
DASHED2
62
4
370
-1
100
AcDbLine
10
-229.437103317
20
55.800438355
11
-229.437103317
21
56.614687574
0
LINE
5
336
100
AcDbEntity
8
0
6
DASHED2
62
4
370
-1
100
AcDbLine
10
-229.437103317
20
51.673310851
11
-229.437103317
21
52.159733637
0
LINE
5
337
100
AcDbEntity
8
0
6
DASHED2
62
4
370
-1
100
AcDbLine
10
-228.03295023
20
52.449827287
11
-228.03295023
21
58.296095787
0
LINE
5
338
100
AcDbEntity
8
0
6
DASHED2
62
4
370
-1
100
AcDbLine
10
-229.13961423
20
58.296095787
11
-229.13961423
21
51.853826787
0
LINE
5
339
100
AcDbEntity
8
0
6
DASHED2
62
4
370
-1
100
AcDbLine
10
-238.33176873
20
53.023091287
11
-237.658010126
21
53.023091287
0
LINE
5
33A
100
AcDbEntity
8
0
6
DASHED2
62
4
370
-1
100
AcDbLine
10
-237.658010126
20
53.023091287
11
-237.658010126
21
53.443975108
0
LINE
5
33B
100
AcDbEntity
8
0
6
DASHED2
62
4
370
-1
100
AcDbLine
10
-239.20824473
20
53.900149787
11
-240.69573223
21
55.995455787
0
LINE
5
33C
100
AcDbEntity
8
0
6
DASHED2
62
4
370
-1
100
AcDbLine
10
-241.77540873
20
55.766696787
11
-240.04732673
21
53.224915287
0
LINE
5
33D
100
AcDbEntity
8
0
6
DASHED2
62
4
370
-1
100
AcDbLine
10
-238.950391019
20
49.080699706
11
-238.950391019
21
49.604246558
0
LINE
5
33E
100
AcDbEntity
8
0
6
DASHED2
62
4
370
-1
100
AcDbLine
10
-236.28530473
20
50.707299287
11
-236.28530473
21
55.398696787
0
LINE
5
33F
100
AcDbEntity
8
0
6
DASHED2
62
4
370
-1
100
AcDbLine
10
-237.46905023
20
55.398696787
11
-237.46905023
21
50.340057287
0
LINE
5
340
100
AcDbEntity
8
0
6
DASHED2
62
4
370
-1
100
AcDbLine
10
-238.57500873
20
49.608106359
11
-238.57500873
21
49.085184367
0
LINE
5
341
100
AcDbEntity
8
0
6
DASHED2
62
4
370
-1
100
AcDbLine
10
-248.33143123
20
55.474561787
11
-248.33143123
21
56.249843787
0
LINE
5
342
100
AcDbEntity
8
0
6
DASHED2
62
4
370
-1
100
AcDbLine
10
-249.43738923
20
55.156162287
11
-249.52417273
21
53.109221787
0
LINE
5
343
100
AcDbEntity
8
0
6
DASHED2
62
4
370
-1
100
AcDbLine
10
-248.443916609
20
53.149402427
11
-248.41821423
21
53.772743787
0
LINE
5
344
100
AcDbEntity
8
0
6
DASHED2
62
4
370
-1
100
AcDbLine
10
-248.41821423
20
53.772743787
11
-248.33143123
21
55.474561787
0
LINE
5
345
100
AcDbEntity
8
0
6
DASHED2
62
4
370
-1
100
AcDbLine
10
-246.89280323
20
54.064896787
11
-248.202326706
21
53.814091455
0
LINE
5
346
100
AcDbEntity
8
0
6
DASHED2
62
4
370
-1
100
AcDbLine
10
-248.202326706
20
53.814091455
11
-248.224921435
21
53.330747703
0
LINE
5
347
100
AcDbEntity
8
0
6
DASHED2
62
4
370
-1
100
AcDbLine
10
-248.224921435
20
53.330747703
11
-246.66473223
21
53.593532787
0
LINE
5
348
100
AcDbEntity
8
0
6
DASHED2
62
4
370
-1
100
AcDbLine
10
-247.93526173
20
56.490244287
11
-248.081858224
21
56.391138915
0
LINE
5
349
100
AcDbEntity
8
0
6
DASHED2
62
4
370
-1
100
AcDbLine
10
-248.081858224
20
56.391138915
11
-248.107316605
21
55.846536259
0
LINE
5
34A
100
AcDbEntity
8
0
6
DASHED2
62
4
370
-1
100
AcDbLine
10
-252.48838773
20
52.449827287
11
-252.48838773
21
58.296095787
0
LINE
5
34B
100
AcDbEntity
8
0
6
DASHED2
62
4
370
-1
100
AcDbLine
10
-253.59416973
20
58.296095787
11
-253.59416973
21
51.853826787
0
LINE
5
34C
100
AcDbEntity
8
0
6
DASHED2
62
4
370
-1
100
AcDbLine
10
-263.51852083
20
49.081274517
11
-263.51852083
21
49.593708007
0
LINE
5
34D
100
AcDbEntity
8
0
6
DASHED2
62
4
370
-1
100
AcDbLine
10
-262.149436388
20
53.139911195
11
-262.149436388
21
53.56179841
0
LINE
5
34E
100
AcDbEntity
8
0
6
DASHED2
62
4
370
-1
100
AcDbLine
10
-260.74479923
20
50.707299287
11
-260.74479923
21
55.398696787
0
LINE
5
34F
100
AcDbEntity
8
0
6
DASHED2
62
4
370
-1
100
AcDbLine
10
-261.92589923
20
55.398696787
11
-261.92589923
21
50.340057287
0
LINE
5
350
100
AcDbEntity
8
0
6
DASHED2
62
4
370
-1
100
AcDbLine
10
-263.20736423
20
49.59082961
11
-263.20736423
21
49.084863897
0
LINE
5
351
100
AcDbEntity
8
0
6
DASHED2
62
4
370
-1
100
AcDbLine
10
-269.37956423
20
52.272750787
11
-269.37956423
21
55.347014787
0
LINE
5
352
100
AcDbEntity
8
0
6
DASHED2
62
4
370
-1
100
AcDbLine
10
-270.48481723
20
55.347014787
11
-270.48481723
21
53.593532787
0
LINE
5
353
100
AcDbEntity
8
0
6
DASHED2
62
4
370
-1
100
AcDbLine
10
-278.71512273
20
57.069561696
11
-278.71512273
21
56.554255786
0
LINE
5
354
100
AcDbEntity
8
0
6
DASHED2
62
4
370
-1
100
AcDbLine
10
-278.135707824
20
51.245508405
11
-278.135707824
21
50.739309179
0
LINE
5
355
100
AcDbEntity
8
0
6
DASHED2
62
4
370
-1
100
AcDbLine
10
-279.13401197
20
56.518287801
11
-279.13401197
21
57.028144648
0
LINE
5
356
100
AcDbEntity
8
0
6
DASHED2
62
4
370
-1
100
AcDbLine
10
-278.51192273
20
50.721780785
11
-278.51192273
21
51.253830719
0
ARC
5
357
100
AcDbEntity
8
0
6
DASHED2
62
4
370
-1
100
AcDbCircle
10
-218.242768212
20
55.106186229
40
1.97058855311
100
AcDbArc
50
26.825262206
51
87.673003819
0
ARC
5
358
100
AcDbEntity
8
0
6
DASHED2
62
4
370
-1
100
AcDbCircle
10
-218.247666041
20
56.832154507
40
0.474905815426
100
AcDbArc
50
160.800498736
51
203.363312135
0
ARC
5
359
100
AcDbEntity
8
0
6
DASHED2
62
4
370
-1
100
AcDbCircle
10
-218.89222388
20
55.223481147
40
1.4355795843
100
AcDbArc
50
22.234279162
51
81.6453305
0
ARC
5
35A
100
AcDbEntity
8
0
6
DASHED2
62
4
370
-1
100
AcDbCircle
10
-215.317649685
20
50.935498956
40
2.34736583015
100
AcDbArc
50
102.7576186
51
174.327986802
0
ARC
5
35B
100
AcDbEntity
8
0
6
DASHED2
62
4
370
-1
100
AcDbCircle
10
-215.140897162
20
52.337950589
40
3.28338750347
100
AcDbArc
50
235.636400482
51
277.228966052
0
ARC
5
35C
100
AcDbEntity
8
0
6
DASHED2
62
4
370
-1
100
AcDbCircle
10
-214.899322703
20
51.080887823
40
1.48693469015
100
AcDbArc
50
176.203147276
51
276.626605203
0
ARC
5
35D
100
AcDbEntity
8
0
6
DASHED2
62
4
370
-1
100
AcDbCircle
10
-213.876589174
20
55.038676076
40
1.59669332555
100
AcDbArc
50
225.483827287
51
276.772314103
0
ARC
5
35E
100
AcDbEntity
8
0
6
DASHED2
62
4
370
-1
100
AcDbCircle
10
-223.416317843
20
53.318266233
40
2.59653104634
100
AcDbArc
50
179.549786915
51
272.772219357
0
ARC
5
35F
100
AcDbEntity
8
0
6
DASHED2
62
4
370
-1
100
AcDbCircle
10
-223.216740045
20
52.762782092
40
1.52609169472
100
AcDbArc
50
178.403353471
51
268.190026731
0
ARC
5
360
100
AcDbEntity
8
0
6
DASHED2
62
4
370
-1
100
AcDbCircle
10
-225.646290487
20
53.347404017
40
0.366582333773
100
AcDbArc
50
99.826005143
51
181.365420919
0
ARC
5
361
100
AcDbEntity
8
0
6
DASHED2
62
4
370
-1
100
AcDbCircle
10
-211.399779113
20
49.367466789
40
0.446629597448
100
AcDbArc
50
328.316839322
51
31.683160678
0
ARC
5
362
100
AcDbEntity
8
0
6
DASHED2
62
4
370
-1
100
AcDbCircle
10
-211.400086149
20
56.739287536
40
0.446891034116
100
AcDbArc
50
328.33748734
51
31.66251266
0
ARC
5
363
100
AcDbEntity
8
0
6
DASHED2
62
4
370
-1
100
AcDbCircle
10
-213.982438312
20
56.739287536
40
0.446891034116
100
AcDbArc
50
148.33748734
51
211.66251266
0
ARC
5
364
100
AcDbEntity
8
0
6
DASHED2
62
4
370
-1
100
AcDbCircle
10
-208.106691685
20
-77.962786884
40
127.202469244
100
AcDbArc
50
92.050249752
51
92.83818621
0
ARC
5
365
100
AcDbEntity
8
0
6
DASHED2
62
4
370
-1
100
AcDbCircle
10
-222.879416907
20
53.548500673
40
3.53638790861
100
AcDbArc
50
47.954444603
51
94.253142957
0
ARC
5
366
100
AcDbEntity
8
0
6
DASHED2
62
4
370
-1
100
AcDbCircle
10
-223.206567666
20
53.233296578
40
3.84240102267
100
AcDbArc
50
89.03248505
51
137.23029903
0
ARC
5
367
100
AcDbEntity
8
0
6
DASHED2
62
4
370
-1
100
AcDbCircle
10
-225.716940127
20
55.875739941
40
0.31206836134
100
AcDbArc
50
186.116064196
51
266.658033553
0
ARC
5
368
100
AcDbEntity
8
0
6
DASHED2
62
4
370
-1
100
AcDbCircle
10
-223.403689532
20
53.990095213
40
2.4534524316
100
AcDbArc
50
35.792881048
51
92.796542227
0
ARC
5
369
100
AcDbEntity
8
0
6
DASHED2
62
4
370
-1
100
AcDbCircle
10
-223.150372558
20
53.381462429
40
2.15349027061
100
AcDbArc
50
274.726964654
51
354.837701466
0
ARC
5
36A
100
AcDbEntity
8
0
6
DASHED2
62
4
370
-1
100
AcDbCircle
10
-223.004669159
20
54.008673984
40
3.28263001883
100
AcDbArc
50
270.554362574
51
1.184612291
0
ARC
5
36B
100
AcDbEntity
8
0
6
DASHED2
62
4
370
-1
100
AcDbCircle
10
-255.57100278
20
53.247607061
40
1.88653821228
100
AcDbArc
50
275.640700703
51
331.533687999
0
ARC
5
36C
100
AcDbEntity
8
0
6
DASHED2
62
4
370
-1
100
AcDbCircle
10
-255.110404952
20
54.357447122
40
2.18796381889
100
AcDbArc
50
92.897489535
51
189.750498092
0
ARC
5
36D
100
AcDbEntity
8
0
6
DASHED2
62
4
370
-1
100
AcDbCircle
10
-255.406928366
20
54.64441397
40
1.90728344727
100
AcDbArc
50
34.790156661
51
84.40587426
0
ARC
5
36E
100
AcDbEntity
8
0
6
DASHED2
62
4
370
-1
100
AcDbCircle
10
-254.886731953
20
53.72678447
40
3.60086091006
100
AcDbArc
50
134.671415859
51
181.901408916
0
ARC
5
36F
100
AcDbEntity
8
0
6
DASHED2
62
4
370
-1
100
AcDbCircle
10
-255.898415137
20
53.323250181
40
2.60274235024
100
AcDbArc
50
173.734361237
51
271.792033585
0
ARC
5
370
100
AcDbEntity
8
0
6
DASHED2
62
4
370
-1
100
AcDbCircle
10
-255.794537022
20
53.112095342
40
2.39042031643
100
AcDbArc
50
269.461033997
51
324.826627819
0
ARC
5
371
100
AcDbEntity
8
0
6
DASHED2
62
4
370
-1
100
AcDbCircle
10
-230.431294454
20
53.72678447
40
3.60086091006
100
AcDbArc
50
134.671415859
51
181.901408916
0
ARC
5
372
100
AcDbEntity
8
0
6
DASHED2
62
4
370
-1
100
AcDbCircle
10
-231.44327799
20
53.322992296
40
2.60247195344
100
AcDbArc
50
173.727995905
51
271.783295762
0
ARC
5
373
100
AcDbEntity
8
0
6
DASHED2
62
4
370
-1
100
AcDbCircle
10
-231.332329375
20
53.084498343
40
2.36290751968
100
AcDbArc
50
269.273477506
51
323.328588164
0
ARC
5
374
100
AcDbEntity
8
0
6
DASHED2
62
4
370
-1
100
AcDbCircle
10
-230.894399047
20
53.213339216
40
1.7982757186
100
AcDbArc
50
270.780140331
51
324.133567381
0
ARC
5
375
100
AcDbEntity
8
0
6
DASHED2
62
4
370
-1
100
AcDbCircle
10
-230.655193101
20
54.357032031
40
2.18836698398
100
AcDbArc
50
92.891039872
51
189.737657495
0
ARC
5
376
100
AcDbEntity
8
0
6
DASHED2
62
4
370
-1
100
AcDbCircle
10
-230.944013691
20
54.663165888
40
1.887900299
100
AcDbArc
50
37.042029509
51
84.576241783
0
ARC
5
377
100
AcDbEntity
8
0
6
DASHED2
62
4
370
-1
100
AcDbCircle
10
-227.944881978
20
51.185496834
40
0.99903282229
100
AcDbArc
50
354.498070178
51
17.329507723
0
ARC
5
378
100
AcDbEntity
8
0
6
DASHED2
62
4
370
-1
100
AcDbCircle
10
-227.356054221
20
59.689046037
40
0.433758314702
100
AcDbArc
50
327.261923792
51
32.738076208
0
ARC
5
379
100
AcDbEntity
8
0
6
DASHED2
62
4
370
-1
100
AcDbCircle
10
-230.052625015
20
59.689046037
40
0.449659377032
100
AcDbArc
50
148.555296558
51
211.444703442
0
ARC
5
37A
100
AcDbEntity
8
0
6
DASHED2
62
4
370
-1
100
AcDbCircle
10
-225.664966328
20
51.572328737
40
3.48603201364
100
AcDbArc
50
175.368307043
51
193.051543839
0
ARC
5
37B
100
AcDbEntity
8
0
6
DASHED2
62
4
370
-1
100
AcDbCircle
10
-228.911311022
20
50.822971173
40
0.154355024168
100
AcDbArc
50
194.207642201
51
275.816321386
0
ARC
5
37C
100
AcDbEntity
8
0
6
DASHED2
62
4
370
-1
100
AcDbCircle
10
-237.968034612
20
55.252603872
40
1.83500768055
100
AcDbArc
50
227.478952799
51
279.726773507
0
ARC
5
37D
100
AcDbEntity
8
0
6
DASHED2
62
4
370
-1
100
AcDbCircle
10
-242.456516526
20
55.102624172
40
1.97421114033
100
AcDbArc
50
26.88795865
51
87.632230447
0
ARC
5
37E
100
AcDbEntity
8
0
6
DASHED2
62
4
370
-1
100
AcDbCircle
10
-242.462858078
20
56.830906223
40
0.471661785425
100
AcDbArc
50
160.502432332
51
203.368362803
0
ARC
5
37F
100
AcDbEntity
8
0
6
DASHED2
62
4
370
-1
100
AcDbCircle
10
-243.108916238
20
55.217472118
40
1.44218237727
100
AcDbArc
50
22.38503353
51
81.503338916
0
ARC
5
380
100
AcDbEntity
8
0
6
DASHED2
62
4
370
-1
100
AcDbCircle
10
-239.5291926
20
50.93549992
40
2.34731457156
100
AcDbArc
50
102.752197932
51
174.327886158
0
ARC
5
381
100
AcDbEntity
8
0
6
DASHED2
62
4
370
-1
100
AcDbCircle
10
-239.357810702
20
52.324137984
40
3.26892683622
100
AcDbArc
50
235.578197571
51
277.159624749
0
ARC
5
382
100
AcDbEntity
8
0
6
DASHED2
62
4
370
-1
100
AcDbCircle
10
-239.113843112
20
51.079240353
40
1.48402266884
100
AcDbArc
50
176.13193686
51
276.323457339
0
ARC
5
383
100
AcDbEntity
8
0
6
DASHED2
62
4
370
-1
100
AcDbCircle
10
-235.615227206
20
49.367466787
40
0.450000892753
100
AcDbArc
50
328.581396645
51
31.418603355
0
ARC
5
384
100
AcDbEntity
8
0
6
DASHED2
62
4
370
-1
100
AcDbCircle
10
-235.615537151
20
56.739287537
40
0.450265553543
100
AcDbArc
50
328.60192914
51
31.39807086
0
ARC
5
385
100
AcDbEntity
8
0
6
DASHED2
62
4
370
-1
100
AcDbCircle
10
-238.19067631
20
56.739287537
40
0.450265553543
100
AcDbArc
50
148.60192914
51
211.39807086
0
ARC
5
386
100
AcDbEntity
8
0
6
DASHED2
62
4
370
-1
100
AcDbCircle
10
-233.642496997
20
-46.098243712
40
95.3111465305
100
AcDbArc
50
91.940375205
51
92.966477874
0
ARC
5
387
100
AcDbEntity
8
0
6
DASHED2
62
4
370
-1
100
AcDbCircle
10
-249.266780901
20
56.14710142
40
0.940975558001
100
AcDbArc
50
6.268456015
51
99.508215126
0
ARC
5
388
100
AcDbEntity
8
0
6
DASHED2
62
4
370
-1
100
AcDbCircle
10
-250.655641438
20
56.396050433
40
0.267256911344
100
AcDbArc
50
184.049160901
51
258.719821503
0
ARC
5
389
100
AcDbEntity
8
0
6
DASHED2
62
4
370
-1
100
AcDbCircle
10
-251.617267757
20
58.734409499
40
2.75486343747
100
AcDbArc
50
289.274153482
51
300.724082298
0
ARC
5
38A
100
AcDbEntity
8
0
6
DASHED2
62
4
370
-1
100
AcDbCircle
10
-247.458917762
20
52.793131406
40
2.0893040023
100
AcDbArc
50
171.298320356
51
277.516600078
0
ARC
5
38B
100
AcDbEntity
8
0
6
DASHED2
62
4
370
-1
100
AcDbCircle
10
-244.967756743
20
52.284509464
40
0.500300526364
100
AcDbArc
50
359.986580535
51
98.059286944
0
ARC
5
38C
100
AcDbEntity
8
0
6
DASHED2
62
4
370
-1
100
AcDbCircle
10
-246.138783956
20
54.036666591
40
3.04094983618
100
AcDbArc
50
87.692109292
51
126.211104605
0
ARC
5
38D
100
AcDbEntity
8
0
6
DASHED2
62
4
370
-1
100
AcDbCircle
10
-246.268393473
20
55.47174149
40
1.04106993534
100
AcDbArc
50
2.999939708
51
97.153299553
0
ARC
5
38E
100
AcDbEntity
8
0
6
DASHED2
62
4
370
-1
100
AcDbCircle
10
-246.93815036
20
55.794649254
40
1.7303467748
100
AcDbArc
50
271.501720163
51
351.075839319
0
ARC
5
38F
100
AcDbEntity
8
0
6
DASHED2
62
4
370
-1
100
AcDbCircle
10
-252.399601922
20
51.185998789
40
0.998366861207
100
AcDbArc
50
354.465447588
51
17.311257397
0
ARC
5
390
100
AcDbEntity
8
0
6
DASHED2
62
4
370
-1
100
AcDbCircle
10
-251.812231287
20
59.689046037
40
0.434529148059
100
AcDbArc
50
327.327246945
51
32.672753055
0
ARC
5
391
100
AcDbEntity
8
0
6
DASHED2
62
4
370
-1
100
AcDbCircle
10
-254.511309369
20
59.689046037
40
0.446292213313
100
AcDbArc
50
148.290592255
51
211.709407745
0
ARC
5
392
100
AcDbEntity
8
0
6
DASHED2
62
4
370
-1
100
AcDbCircle
10
-250.108581148
20
51.570322081
40
3.49709918134
100
AcDbArc
50
175.350012229
51
192.975773563
0
ARC
5
393
100
AcDbEntity
8
0
6
DASHED2
62
4
370
-1
100
AcDbCircle
10
-253.366587119
20
50.823178027
40
0.154562342969
100
AcDbArc
50
194.267291945
51
275.814118462
0
ARC
5
394
100
AcDbEntity
8
0
6
DASHED2
62
4
370
-1
100
AcDbCircle
10
-263.572820107
20
51.113311499
40
1.52057330833
100
AcDbArc
50
171.692856221
51
272.046452463
0
ARC
5
395
100
AcDbEntity
8
0
6
DASHED2
62
4
370
-1
100
AcDbCircle
10
-263.706024943
20
51.052813092
40
2.65433310245
100
AcDbArc
50
80.575719321
51
178.639911648
0
ARC
5
396
100
AcDbEntity
8
0
6
DASHED2
62
4
370
-1
100
AcDbCircle
10
-260.000317572
20
49.367466787
40
0.430773117684
100
AcDbArc
50
327.005765462
51
32.994234538
0
ARC
5
397
100
AcDbEntity
8
0
6
DASHED2
62
4
370
-1
100
AcDbCircle
10
-259.873981709
20
56.739287787
40
0.431774740632
100
AcDbArc
50
327.092019477
51
32.907980523
0
ARC
5
398
100
AcDbEntity
8
0
6
DASHED2
62
4
370
-1
100
AcDbCircle
10
-260.821091909
20
185.694188347
40
128.747715708
100
AcDbArc
50
268.818024638
51
269.745395421
0
ARC
5
399
100
AcDbEntity
8
0
6
DASHED2
62
4
370
-1
100
AcDbCircle
10
-263.09553068
20
56.739287787
40
0.447727572063
100
AcDbArc
50
148.403521365
51
211.596478635
0
ARC
5
39A
100
AcDbEntity
8
0
6
DASHED2
62
4
370
-1
100
AcDbCircle
10
-257.000551511
20
-82.795032146
40
132.025874375
100
AcDbArc
50
91.90006179
51
92.69458772
0
ARC
5
39B
100
AcDbEntity
8
0
6
DASHED2
62
4
370
-1
100
AcDbCircle
10
-260.83297181
20
-3.200804577
40
54.6987111103
100
AcDbArc
50
97.322542364
51
99.892948964
0
ARC
5
39C
100
AcDbEntity
8
0
6
DASHED2
62
4
370
-1
100
AcDbCircle
10
-268.570356523
20
51.174217285
40
0.775491319202
100
AcDbArc
50
350.917748813
51
17.484372523
0
ARC
5
39D
100
AcDbEntity
8
0
6
DASHED2
62
4
370
-1
100
AcDbCircle
10
-267.927448691
20
55.878563096
40
4.47239951958
100
AcDbArc
50
253.775166756
51
271.239621684
0
ARC
5
39E
100
AcDbEntity
8
0
6
DASHED2
62
4
370
-1
100
AcDbCircle
10
-268.282668526
20
55.5962789
40
1.12486122898
100
AcDbArc
50
139.588431942
51
192.802757858
0
ARC
5
39F
100
AcDbEntity
8
0
6
DASHED2
62
4
370
-1
100
AcDbCircle
10
-267.744734537
20
51.215468498
40
5.2968644576
100
AcDbArc
50
86.925384532
51
105.263129363
0
ARC
5
3A0
100
AcDbEntity
8
0
6
DASHED2
62
4
370
-1
100
AcDbCircle
10
-267.841983169
20
56.739287787
40
0.447725347796
100
AcDbArc
50
328.403346276
51
31.596653724
0
ARC
5
3A1
100
AcDbEntity
8
0
6
DASHED2
62
4
370
-1
100
AcDbCircle
10
-270.556843095
20
236.300573008
40
179.353432981
100
AcDbArc
50
270.148667127
51
270.989157374
0
ARC
5
3A2
100
AcDbEntity
8
0
6
DASHED2
62
4
370
-1
100
AcDbCircle
10
-269.658406256
20
231.725178798
40
174.777971533
100
AcDbArc
50
268.999239741
51
269.858032826
0
ARC
5
3A3
100
AcDbEntity
8
0
6
DASHED2
62
4
370
-1
100
AcDbCircle
10
-272.3345403
20
56.739287787
40
0.443582498118
100
AcDbArc
50
148.073598703
51
211.926401297
0
ARC
5
3A4
100
AcDbEntity
8
0
6
DASHED2
62
4
370
-1
100
AcDbCircle
10
-272.602572085
20
47.037063881
40
9.46826551269
100
AcDbArc
50
78.815246208
51
90.656277985
0
ARC
5
3A5
100
AcDbEntity
8
0
6
DASHED2
62
4
370
-1
100
AcDbCircle
10
-273.420851362
20
54.522141409
40
3.15371485351
100
AcDbArc
50
284.684137476
51
326.464681741
0
ARC
5
3A6
100
AcDbEntity
8
0
6
DASHED2
62
4
370
-1
100
AcDbCircle
10
-272.525271105
20
52.42226125
40
0.955676516711
100
AcDbArc
50
226.73918894
51
264.226062818
0
ARC
5
3A7
100
AcDbEntity
8
0
6
DASHED2
62
4
370
-1
100
AcDbCircle
10
-273.823277865
20
51.29580799
40
0.773854233082
100
AcDbArc
50
33.799828926
51
85.650769467
0
ARC
5
3A8
100
AcDbEntity
8
0
6
DASHED2
62
4
370
-1
100
AcDbCircle
10
-273.681112528
20
51.389433812
40
0.683119921331
100
AcDbArc
50
97.019294758
51
181.61310599
0
ARC
5
3A9
100
AcDbEntity
8
0
6
DASHED2
62
4
370
-1
100
AcDbCircle
10
-273.703021569
20
51.379487034
40
0.661005352469
100
AcDbArc
50
180.804696014
51
275.726826481
0
ARC
5
3AA
100
AcDbEntity
8
0
6
DASHED2
62
4
370
-1
100
AcDbCircle
10
-273.533605263
20
54.351313391
40
3.63100679905
100
AcDbArc
50
268.367263152
51
323.565025589
0
ARC
5
3AB
100
AcDbEntity
8
0
6
DASHED2
62
4
370
-1
100
AcDbCircle
10
-268.095853355
20
51.521429481
40
2.40397072379
100
AcDbArc
50
173.59463356
51
197.836553893
0
ARC
5
3AC
100
AcDbEntity
8
0
6
DASHED2
62
4
370
-1
100
AcDbCircle
10
-270.249703291
20
50.823093388
40
0.139836006405
100
AcDbArc
50
195.771054073
51
277.835003964
0
ARC
5
3AD
100
AcDbEntity
8
0
6
DASHED2
62
4
370
-1
100
AcDbCircle
10
-278.946774569
20
54.016022562
40
2.54878215484
100
AcDbArc
50
353.072574427
51
84.785347171
0
ARC
5
3AE
100
AcDbEntity
8
0
6
DASHED2
62
4
370
-1
100
AcDbCircle
10
-278.287775367
20
53.989161129
40
3.09237067296
100
AcDbArc
50
0.699623146
51
93.681675599
0
ARC
5
3AF
100
AcDbEntity
8
0
6
DASHED2
62
4
370
-1
100
AcDbCircle
10
-277.977017773
20
53.856721315
40
2.65728484867
100
AcDbArc
50
168.888842741
51
258.387152915
0
ARC
5
3B0
100
AcDbEntity
8
0
6
DASHED2
62
4
370
-1
100
AcDbCircle
10
-278.720623599
20
54.675196374
40
1.88888219701
100
AcDbArc
50
102.641699079
51
189.33476573
0
ARC
5
3B1
100
AcDbEntity
8
0
6
DASHED2
62
4
370
-1
100
AcDbCircle
10
-278.69636039
20
53.988106814
40
3.10822360124
100
AcDbArc
50
132.286504859
51
181.621581991
0
ARC
5
3B2
100
AcDbEntity
8
0
6
DASHED2
62
4
370
-1
100
AcDbCircle
10
-278.699634256
20
53.820819702
40
3.10471863934
100
AcDbArc
50
178.53585005
51
273.46622114
0
LINE
5
3B3
100
AcDbEntity
8
0
6
DASHED2
62
4
370
-1
100
AcDbLine
10
-42.0502212856
20
113.7
11
109.149778714
21
113.7
0
LINE
5
3B4
100
AcDbEntity
8
0
6
DASHED2
62
4
370
-1
100
AcDbLine
10
-42.8
20
142.049778714
11
-42.8
21
114.249778714
0
LINE
5
3B5
100
AcDbEntity
8
0
6
DASHED2
62
4
370
-1
100
AcDbLine
10
-153.899557429
20
142.049778714
11
-153.899557429
21
114.249778714
0
LINE
5
3B6
100
AcDbEntity
8
0
6
CONTINUOUS
62
7
370
-1
100
AcDbLine
10
-358.048893572
20
37.7894517705
11
-358.648893572
21
36.750221286
0
LINE
5
3B7
100
AcDbEntity
8
0
6
CONTINUOUS
62
7
370
-1
100
AcDbLine
10
-358.048893572
20
37.950221286
11
-358.048893572
21
37.7894517705
0
LINE
5
3B8
100
AcDbEntity
8
0
6
CONTINUOUS
62
7
370
-1
100
AcDbLine
10
-366.248893572
20
37.7894517705
11
-366.248893572
21
37.950221286
0
LINE
5
3B9
100
AcDbEntity
8
0
6
CONTINUOUS
62
7
370
-1
100
AcDbLine
10
-365.648893572
20
36.750221286
11
-366.248893572
21
37.7894517705
0
LINE
5
3BA
100
AcDbEntity
8
0
6
CONTINUOUS
62
7
370
-1
100
AcDbLine
10
-358.648893572
20
36.750221286
11
-365.648893572
21
36.750221286
0
LINE
5
3BB
100
AcDbEntity
8
0
6
CONTINUOUS
62
7
370
-1
100
AcDbLine
10
-418.948893572
20
55.300221286
11
-418.948893572
21
49.400221286
0
ARC
5
3BC
100
AcDbEntity
8
0
6
CONTINUOUS
62
7
370
-1
100
AcDbCircle
10
-418.148893572
20
55.300221286
40
0.8
100
AcDbArc
50
90
51
180
0
ARC
5
3BD
100
AcDbEntity
8
0
6
CONTINUOUS
62
7
370
-1
100
AcDbCircle
10
-418.148893572
20
49.400221286
40
0.8
100
AcDbArc
50
180
51
270
0
LINE
5
3BE
100
AcDbEntity
8
0
6
ByLayer
62
256
370
-1
100
AcDbLine
10
-366.248893572
20
37.950221286
11
-417.498893572
21
37.950221286
0
LINE
5
3BF
100
AcDbEntity
8
0
6
CONTINUOUS
62
7
370
-1
100
AcDbLine
10
-417.498893572
20
48.600221286
11
-417.498893572
21
37.950221286
0
LINE
5
3C0
100
AcDbEntity
8
0
6
ByLayer
62
256
370
-1
100
AcDbLine
10
-358.048893572
20
37.950221286
11
-327.595317065
21
37.950221286
0
LINE
5
3C1
100
AcDbEntity
8
0
6
ByLayer
62
256
370
-1
100
AcDbLine
10
-417.498893572
20
48.600221286
11
-418.148893572
21
48.600221286
0
LINE
5
3C2
100
AcDbEntity
8
0
6
ByLayer
62
256
370
-1
100
AcDbLine
10
-418.148893572
20
56.100221286
11
-417.498893572
21
56.100221286
0
LINE
5
3C3
100
AcDbEntity
8
0
6
CONTINUOUS
62
7
370
-1
100
AcDbLine
10
-358.048893572
20
142.21054823
11
-358.648893572
21
143.249778714
0
LINE
5
3C4
100
AcDbEntity
8
0
6
CONTINUOUS
62
7
370
-1
100
AcDbLine
10
-358.048893572
20
142.049778714
11
-358.048893572
21
142.21054823
0
LINE
5
3C5
100
AcDbEntity
8
0
6
CONTINUOUS
62
7
370
-1
100
AcDbLine
10
-366.248893572
20
142.21054823
11
-366.248893572
21
142.049778714
0
LINE
5
3C6
100
AcDbEntity
8
0
6
CONTINUOUS
62
7
370
-1
100
AcDbLine
10
-365.648893572
20
143.249778714
11
-366.248893572
21
142.21054823
0
LINE
5
3C7
100
AcDbEntity
8
0
6
CONTINUOUS
62
7
370
-1
100
AcDbLine
10
-358.648893572
20
143.249778714
11
-365.648893572
21
143.249778714
0
LINE
5
3C8
100
AcDbEntity
8
0
6
CONTINUOUS
62
7
370
-1
100
AcDbLine
10
-418.948893572
20
124.699778714
11
-418.948893572
21
130.599778714
0
ARC
5
3C9
100
AcDbEntity
8
0
6
CONTINUOUS
62
7
370
-1
100
AcDbCircle
10
-418.148893572
20
124.699778714
40
0.8
100
AcDbArc
50
180
51
270
0
ARC
5
3CA
100
AcDbEntity
8
0
6
CONTINUOUS
62
7
370
-1
100
AcDbCircle
10
-418.148893572
20
130.599778714
40
0.8
100
AcDbArc
50
90
51
180
0
LINE
5
3CB
100
AcDbEntity
8
0
6
CONTINUOUS
62
7
370
-1
100
AcDbLine
10
-417.498893572
20
123.899778714
11
-418.148893572
21
123.899778714
0
LINE
5
3CC
100
AcDbEntity
8
0
6
CONTINUOUS
62
7
370
-1
100
AcDbLine
10
-418.148893572
20
131.399778714
11
-417.498893572
21
131.399778714
0
LINE
5
3CD
100
AcDbEntity
8
0
6
ByLayer
62
256
370
-1
100
AcDbLine
10
-366.248893572
20
142.049778714
11
-417.498893572
21
142.049778714
0
LINE
5
3CE
100
AcDbEntity
8
0
6
ByLayer
62
256
370
-1
100
AcDbLine
10
-327.595317065
20
142.049778714
11
-358.048893572
21
142.049778714
0
LINE
5
3CF
100
AcDbEntity
8
0
6
CONTINUOUS
62
7
370
-1
100
AcDbLine
10
-417.498893572
20
131.399778714
11
-417.498893572
21
142.049778714
0
LINE
5
3D0
100
AcDbEntity
8
0
6
CONTINUOUS
62
7
370
-1
100
AcDbLine
10
-289.549336143
20
142.210548229
11
-290.149336143
21
143.249778714
0
LINE
5
3D1
100
AcDbEntity
8
0
6
CONTINUOUS
62
7
370
-1
100
AcDbLine
10
-289.549336143
20
142.210548229
11
-289.549336143
21
136.549778714
0
LINE
5
3D2
100
AcDbEntity
8
0
6
CONTINUOUS
62
7
370
-1
100
AcDbLine
10
-285.549336143
20
136.549778714
11
-285.549336143
21
142.210548229
0
LINE
5
3D3
100
AcDbEntity
8
0
6
CONTINUOUS
62
7
370
-1
100
AcDbLine
10
-284.949336143
20
143.249778714
11
-285.549336143
21
142.210548229
0
ARC
5
3D4
100
AcDbEntity
8
0
6
CONTINUOUS
62
7
370
-1
100
AcDbCircle
10
-287.549336143
20
136.549778714
40
2
100
AcDbArc
50
180
51
360
0
LINE
5
3D5
100
AcDbEntity
8
0
6
CONTINUOUS
62
7
370
-1
100
AcDbLine
10
-290.149336143
20
143.249778714
11
-294.349336143
21
143.249778714
0
LINE
5
3D6
100
AcDbEntity
8
0
6
CONTINUOUS
62
7
370
-1
100
AcDbLine
10
-280.549336143
20
143.249778714
11
-284.949336143
21
143.249778714
0
ENDSEC
0
SECTION
2
OBJECTS
0
DICTIONARY
5
C
330
0
100
AcDbDictionary
281
1
3
ACAD_GROUP
350
D
0
DICTIONARY
5
D
330
C
100
AcDbDictionary
281
1
0
ENDSEC
0
EOF
