999
dxfrw 0.5.11
0
SECTION
2
HEADER
9
$ACADVER
1
AC1021
9
$HANDSEED
5
20000
9
$DWGCODEPAGE
3
ANSI_1252
9
$INSBASE
10
0
20
0
30
0
9
$EXTMIN
10
-582.349778714
20
-78.4995574288
30
0
9
$EXTMAX
10
-50.051106428
20
48.4995574288
30
0
9
$LIMMIN
10
0
20
0
9
$LIMMAX
10
420
20
297
9
$ORTHOMODE
70
0
9
$LTSCALE
40
1
9
$TEXTSTYLE
7
STANDARD
9
$CLAYER
8
0
9
$DIMASZ
40
2.5
9
$DIMLFAC
40
1
9
$DIMSCALE
40
1
9
$DIMEXO
40
0.625
9
$DIMEXE
40
1.25
9
$DIMTXT
40
2.5
9
$DIMTSZ
40
0
9
$DIMAUNIT
70
0
9
$DIMADEC
70
0
9
$DIMLUNIT
70
2
9
$DIMSTYLE
2
STANDARD
9
$DIMGAP
40
0.625
9
$DIMTIH
70
0
9
$LUNITS
70
2
9
$LUPREC
70
4
9
$AUNITS
70
0
9
$AUPREC
70
2
9
$SPLINESEGS
70
8
9
$GRIDMODE
70
1
9
$SNAPSTYLE
70
0
9
$PINSBASE
10
0
20
0
30
0
9
$PLIMMIN
10
0
20
0
9
$PLIMMAX
10
210
20
297
9
$INSUNITS
70
4
9
$PSVPSCALE
40
1
0
ENDSEC
0
SECTION
2
CLASSES
0
ENDSEC
0
SECTION
2
TABLES
0
TABLE
2
VPORT
5
8
330
0
100
AcDbSymbolTable
70
1
0
VPORT
5
31
330
2
100
AcDbSymbolTableRecord
100
AcDbViewportTableRecord
2
*ACTIVE
70
0
10
0
20
0
11
1
21
1
12
-22.4846087467
22
54.0119405764
13
0
23
0
14
10
24
10
15
10
25
10
16
0
26
0
36
1
17
0
27
0
37
0
40
245.864308687
41
2.20477137177
42
50
43
0
44
0
50
0
51
0
71
0
72
100
73
1
74
3
75
0
76
1
77
0
78
0
281
0
65
1
110
0
120
0
130
0
111
1
121
0
131
0
112
0
122
1
132
0
79
0
146
0
348
10020
60
7
61
5
292
1
282
1
141
0
142
0
63
250
421
3358443
0
ENDTAB
0
TABLE
2
LTYPE
5
5
330
0
100
AcDbSymbolTable
70
4
0
LTYPE
5
14
330
5
100
AcDbSymbolTableRecord
100
AcDbLinetypeTableRecord
2
ByBlock
70
0
3

72
65
73
0
40
0
0
LTYPE
5
15
330
5
100
AcDbSymbolTableRecord
100
AcDbLinetypeTableRecord
2
ByLayer
70
0
3

72
65
73
0
40
0
0
LTYPE
5
16
330
5
100
AcDbSymbolTableRecord
100
AcDbLinetypeTableRecord
2
Continuous
70
0
3
Solid line
72
65
73
0
40
0
0
LTYPE
5
32
330
5
100
AcDbSymbolTableRecord
100
AcDbLinetypeTableRecord
2
DOT
70
0
3
Dot . . . . . . . . . . . . . . . . . . . . . .
72
65
73
2
40
6.35
49
0
74
0
49
-6.35
74
0
0
LTYPE
5
33
330
5
100
AcDbSymbolTableRecord
100
AcDbLinetypeTableRecord
2
DOT2
70
0
3
Dot (.5x) .....................................
72
65
73
2
40
3.175
49
0
74
0
49
-3.175
74
0
0
LTYPE
5
34
330
5
100
AcDbSymbolTableRecord
100
AcDbLinetypeTableRecord
2
DOTX2
70
0
3
Dot (2x) .  .  .  .  .  .  .  .  .  .  .  .  .
72
65
73
2
40
12.7
49
0
74
0
49
-12.7
74
0
0
LTYPE
5
35
330
5
100
AcDbSymbolTableRecord
100
AcDbLinetypeTableRecord
2
DASHED
70
0
3
Dot . . . . . . . . . . . . . . . . . . . . . .
72
65
73
2
40
19.05
49
12.7
74
0
49
-6.35
74
0
0
LTYPE
5
36
330
5
100
AcDbSymbolTableRecord
100
AcDbLinetypeTableRecord
2
DASHED2
70
0
3
Dashed (.5x) _ _ _ _ _ _ _ _ _ _ _ _ _ _ _ _ _
72
65
73
2
40
9.525
49
6.35
74
0
49
-3.175
74
0
0
LTYPE
5
37
330
5
100
AcDbSymbolTableRecord
100
AcDbLinetypeTableRecord
2
DASHEDX2
70
0
3
Dashed (2x) ____  ____  ____  ____  ____  ___
72
65
73
2
40
38.1
49
25.4
74
0
49
-12.7
74
0
0
LTYPE
5
38
330
5
100
AcDbSymbolTableRecord
100
AcDbLinetypeTableRecord
2
DASHDOT
70
0
3
Dash dot __ . __ . __ . __ . __ . __ . __ . __
72
65
73
4
40
25.4
49
12.7
74
0
49
-6.35
74
0
49
0
74
0
49
-6.35
74
0
0
LTYPE
5
39
330
5
100
AcDbSymbolTableRecord
100
AcDbLinetypeTableRecord
2
DASHDOT2
70
0
3
Dash dot (.5x) _._._._._._._._._._._._._._._.
72
65
73
4
40
12.7
49
6.35
74
0
49
-3.175
74
0
49
0
74
0
49
-3.175
74
0
0
LTYPE
5
3A
330
5
100
AcDbSymbolTableRecord
100
AcDbLinetypeTableRecord
2
DASHDOTX2
70
0
3
Dash dot (2x) ____  .  ____  .  ____  .  ___
72
65
73
4
40
50.8
49
25.4
74
0
49
-12.7
74
0
49
0
74
0
49
-12.7
74
0
0
LTYPE
5
3B
330
5
100
AcDbSymbolTableRecord
100
AcDbLinetypeTableRecord
2
DIVIDE
70
0
3
Divide ____ . . ____ . . ____ . . ____ . . ____
72
65
73
6
40
31.75
49
12.7
74
0
49
-6.35
74
0
49
0
74
0
49
-6.35
74
0
49
0
74
0
49
-6.35
74
0
0
LTYPE
5
3C
330
5
100
AcDbSymbolTableRecord
100
AcDbLinetypeTableRecord
2
DIVIDE2
70
0
3
Divide (.5x) __..__..__..__..__..__..__..__.._
72
65
73
6
40
15.875
49
6.35
74
0
49
-3.175
74
0
49
0
74
0
49
-3.175
74
0
49
0
74
0
49
-3.175
74
0
0
LTYPE
5
3D
330
5
100
AcDbSymbolTableRecord
100
AcDbLinetypeTableRecord
2
DIVIDEX2
70
0
3
Divide (2x) ________  .  .  ________  .  .  _
72
65
73
6
40
63.5
49
25.4
74
0
49
-12.7
74
0
49
0
74
0
49
-12.7
74
0
49
0
74
0
49
-12.7
74
0
0
LTYPE
5
3E
330
5
100
AcDbSymbolTableRecord
100
AcDbLinetypeTableRecord
2
BORDER
70
0
3
Border __ __ . __ __ . __ __ . __ __ . __ __ .
72
65
73
6
40
44.45
49
12.7
74
0
49
-6.35
74
0
49
12.7
74
0
49
-6.35
74
0
49
0
74
0
49
-6.35
74
0
0
LTYPE
5
3F
330
5
100
AcDbSymbolTableRecord
100
AcDbLinetypeTableRecord
2
BORDER2
70
0
3
Border (.5x) __.__.__.__.__.__.__.__.__.__.__.
72
65
73
6
40
22.225
49
6.35
74
0
49
-3.175
74
0
49
6.35
74
0
49
-3.175
74
0
49
0
74
0
49
-3.175
74
0
0
LTYPE
5
40
330
5
100
AcDbSymbolTableRecord
100
AcDbLinetypeTableRecord
2
BORDERX2
70
0
3
Border (2x) ____  ____  .  ____  ____  .  ___
72
65
73
6
40
88.9
49
25.4
74
0
49
-12.7
74
0
49
25.4
74
0
49
-12.7
74
0
49
0
74
0
49
-12.7
74
0
0
LTYPE
5
41
330
5
100
AcDbSymbolTableRecord
100
AcDbLinetypeTableRecord
2
CENTER
70
0
3
Center ____ _ ____ _ ____ _ ____ _ ____ _ ____
72
65
73
4
40
50.8
49
31.75
74
0
49
-6.35
74
0
49
6.35
74
0
49
-6.35
74
0
0
LTYPE
5
42
330
5
100
AcDbSymbolTableRecord
100
AcDbLinetypeTableRecord
2
CENTER2
70
0
3
Center (.5x) ___ _ ___ _ ___ _ ___ _ ___ _ ___
72
65
73
4
40
28.575
49
19.05
74
0
49
-3.175
74
0
49
3.175
74
0
49
-3.175
74
0
0
LTYPE
5
43
330
5
100
AcDbSymbolTableRecord
100
AcDbLinetypeTableRecord
2
CENTERX2
70
0
3
Center (2x) ________  __  ________  __  _____
72
65
73
4
40
101.6
49
63.5
74
0
49
-12.7
74
0
49
12.7
74
0
49
-12.7
74
0
0
ENDTAB
0
TABLE
2
LAYER
5
2
330
0
100
AcDbSymbolTable
70
1
0
LAYER
5
10
330
2
100
AcDbSymbolTableRecord
100
AcDbLayerTableRecord
2
0
70
0
62
7
6
CONTINUOUS
370
0
390
F
0
ENDTAB
0
TABLE
2
STYLE
5
3
330
0
100
AcDbSymbolTable
70
3
0
STYLE
5
44
330
2
100
AcDbSymbolTableRecord
100
AcDbTextStyleTableRecord
2
Standard
70
0
40
0
41
1
50
0
71
0
42
1
3
txt
4

0
ENDTAB
0
TABLE
2
VIEW
5
6
330
0
100
AcDbSymbolTable
70
0
0
ENDTAB
0
TABLE
2
UCS
5
7
330
0
100
AcDbSymbolTable
70
0
0
ENDTAB
0
TABLE
2
APPID
5
9
330
0
100
AcDbSymbolTable
70
1
0
APPID
5
12
330
9
100
AcDbSymbolTableRecord
100
AcDbRegAppTableRecord
2
ACAD
70
0
0
ENDTAB
0
TABLE
2
DIMSTYLE
5
A
330
0
100
AcDbSymbolTable
70
1
100
AcDbDimStyleTable
71
1
0
DIMSTYLE
105
45
330
A
100
AcDbSymbolTableRecord
100
AcDbDimStyleTableRecord
2
Standard
70
0
40
1
41
2.5
42
0.625
43
0.38
44
1.25
45
0
46
0
47
0
48
0
140
2.5
141
0.09
142
0
143
25.4
144
1
145
0
146
1
147
0.625
148
0
71
0
72
0
73
0
74
1
75
0
76
0
77
0
78
0
79
0
170
0
171
2
172
0
173
0
174
0
175
0
176
0
177
0
178
0
179
0
271
4
272
4
273
2
274
2
275
0
276
0
277
2
278
46
279
0
280
0
281
0
282
0
283
1
284
0
285
0
286
0
288
0
289
3
340
Standard
341

371
-2
372
-2
0
ENDTAB
0
TABLE
2
BLOCK_RECORD
5
1
330
0
100
AcDbSymbolTable
70
2
0
BLOCK_RECORD
5
1F
330
1
100
AcDbSymbolTableRecord
100
AcDbBlockTableRecord
2
*Model_Space
70
0
280
1
281
0
0
BLOCK_RECORD
5
1E
330
1
100
AcDbSymbolTableRecord
100
AcDbBlockTableRecord
2
*Paper_Space
70
0
280
1
281
0
0
ENDTAB
0
ENDSEC
0
SECTION
2
BLOCKS
0
BLOCK
5
20
330
1F
100
AcDbEntity
8
0
100
AcDbBlockBegin
2
*Model_Space
70
0
10
0
20
0
30
0
3
*Model_Space
1

0
ENDBLK
5
21
330
1F
100
AcDbEntity
8
0
100
AcDbBlockEnd
0
BLOCK
5
1C
330
1B
100
AcDbEntity
8
0
100
AcDbBlockBegin
2
*Paper_Space
70
0
10
0
20
0
30
0
3
*Paper_Space
1

0
ENDBLK
5
1D
330
1F
100
AcDbEntity
8
0
100
AcDbBlockEnd
0
ENDSEC
0
SECTION
2
ENTITIES
0
CIRCLE
5
46
100
AcDbEntity
8
0
6
CONTINUOUS
62
7
370
-1
100
AcDbCircle
10
-321.450221286
20
-36.1004425712
40
1.65
0
CIRCLE
5
47
100
AcDbEntity
8
0
6
CONTINUOUS
62
7
370
-1
100
AcDbCircle
10
-436.450221286
20
-36.1004425712
40
1.65032325816
0
CIRCLE
5
48
100
AcDbEntity
8
0
6
CONTINUOUS
62
7
370
-1
100
AcDbCircle
10
-436.450221286
20
-75.0995574288
40
1.65032325816
0
CIRCLE
5
49
100
AcDbEntity
8
0
6
CONTINUOUS
62
7
370
-1
100
AcDbCircle
10
-483.549778714
20
-49.2
40
1.25
0
CIRCLE
5
4A
100
AcDbEntity
8
0
6
CONTINUOUS
62
7
370
-1
100
AcDbCircle
10
-488.049778714
20
-49.2
40
1.25
0
CIRCLE
5
4B
100
AcDbEntity
8
0
6
CONTINUOUS
62
7
370
-1
100
AcDbCircle
10
-492.549778714
20
-49.2
40
1.25
0
CIRCLE
5
4C
100
AcDbEntity
8
0
6
CONTINUOUS
62
7
370
-1
100
AcDbCircle
10
-497.049778714
20
-49.2
40
1.25
0
CIRCLE
5
4D
100
AcDbEntity
8
0
6
CONTINUOUS
62
7
370
-1
100
AcDbCircle
10
-501.549778714
20
-49.2
40
1.25
0
CIRCLE
5
4E
100
AcDbEntity
8
0
6
CONTINUOUS
62
7
370
-1
100
AcDbCircle
10
-506.049778714
20
-49.2
40
1.25
0
CIRCLE
5
4F
100
AcDbEntity
8
0
6
CONTINUOUS
62
7
370
-1
100
AcDbCircle
10
-510.549778714
20
-49.2
40
1.25
0
CIRCLE
5
50
100
AcDbEntity
8
0
6
CONTINUOUS
62
7
370
-1
100
AcDbCircle
10
-515.049778714
20
-49.2
40
1.25
0
CIRCLE
5
51
100
AcDbEntity
8
0
6
CONTINUOUS
62
7
370
-1
100
AcDbCircle
10
-519.549778714
20
-49.2
40
1.25
0
CIRCLE
5
52
100
AcDbEntity
8
0
6
CONTINUOUS
62
7
370
-1
100
AcDbCircle
10
-524.049778714
20
-49.2
40
1.25
0
CIRCLE
5
53
100
AcDbEntity
8
0
6
CONTINUOUS
62
7
370
-1
100
AcDbCircle
10
-528.549778714
20
-49.2
40
1.25
0
CIRCLE
5
54
100
AcDbEntity
8
0
6
CONTINUOUS
62
7
370
-1
100
AcDbCircle
10
-533.049778714
20
-49.2
40
1.25
0
CIRCLE
5
55
100
AcDbEntity
8
0
6
CONTINUOUS
62
7
370
-1
100
AcDbCircle
10
-537.549778714
20
-49.2
40
1.25
0
CIRCLE
5
56
100
AcDbEntity
8
0
6
CONTINUOUS
62
7
370
-1
100
AcDbCircle
10
-542.049778714
20
-49.2
40
1.25
0
CIRCLE
5
57
100
AcDbEntity
8
0
6
CONTINUOUS
62
7
370
-1
100
AcDbCircle
10
-546.549778714
20
-49.2
40
1.25
0
CIRCLE
5
58
100
AcDbEntity
8
0
6
CONTINUOUS
62
7
370
-1
100
AcDbCircle
10
-551.049778714
20
-49.2
40
1.25
0
CIRCLE
5
59
100
AcDbEntity
8
0
6
CONTINUOUS
62
7
370
-1
100
AcDbCircle
10
-555.549778714
20
-49.2
40
1.25
0
CIRCLE
5
5A
100
AcDbEntity
8
0
6
CONTINUOUS
62
7
370
-1
100
AcDbCircle
10
-560.049778714
20
-49.2
40
1.25
0
CIRCLE
5
5B
100
AcDbEntity
8
0
6
CONTINUOUS
62
7
370
-1
100
AcDbCircle
10
-564.549778714
20
-49.2
40
1.25
0
CIRCLE
5
5C
100
AcDbEntity
8
0
6
CONTINUOUS
62
7
370
-1
100
AcDbCircle
10
-488.049778714
20
-53.7
40
1.25
0
CIRCLE
5
5D
100
AcDbEntity
8
0
6
CONTINUOUS
62
7
370
-1
100
AcDbCircle
10
-492.549778714
20
-53.7
40
1.25
0
CIRCLE
5
5E
100
AcDbEntity
8
0
6
CONTINUOUS
62
7
370
-1
100
AcDbCircle
10
-497.049778714
20
-53.7
40
1.25
0
CIRCLE
5
5F
100
AcDbEntity
8
0
6
CONTINUOUS
62
7
370
-1
100
AcDbCircle
10
-501.549778714
20
-53.7
40
1.25
0
CIRCLE
5
60
100
AcDbEntity
8
0
6
CONTINUOUS
62
7
370
-1
100
AcDbCircle
10
-506.049778714
20
-53.7
40
1.25
0
CIRCLE
5
61
100
AcDbEntity
8
0
6
CONTINUOUS
62
7
370
-1
100
AcDbCircle
10
-510.549778714
20
-53.7
40
1.25
0
CIRCLE
5
62
100
AcDbEntity
8
0
6
CONTINUOUS
62
7
370
-1
100
AcDbCircle
10
-515.049778714
20
-53.7
40
1.25
0
CIRCLE
5
63
100
AcDbEntity
8
0
6
CONTINUOUS
62
7
370
-1
100
AcDbCircle
10
-519.549778714
20
-53.7
40
1.25
0
CIRCLE
5
64
100
AcDbEntity
8
0
6
CONTINUOUS
62
7
370
-1
100
AcDbCircle
10
-524.049778714
20
-53.7
40
1.25
0
CIRCLE
5
65
100
AcDbEntity
8
0
6
CONTINUOUS
62
7
370
-1
100
AcDbCircle
10
-528.549778714
20
-53.7
40
1.25
0
CIRCLE
5
66
100
AcDbEntity
8
0
6
CONTINUOUS
62
7
370
-1
100
AcDbCircle
10
-533.049778714
20
-53.7
40
1.25
0
CIRCLE
5
67
100
AcDbEntity
8
0
6
CONTINUOUS
62
7
370
-1
100
AcDbCircle
10
-537.549778714
20
-53.7
40
1.25
0
CIRCLE
5
68
100
AcDbEntity
8
0
6
CONTINUOUS
62
7
370
-1
100
AcDbCircle
10
-542.049778714
20
-53.7
40
1.25
0
CIRCLE
5
69
100
AcDbEntity
8
0
6
CONTINUOUS
62
7
370
-1
100
AcDbCircle
10
-546.549778714
20
-53.7
40
1.25
0
CIRCLE
5
6A
100
AcDbEntity
8
0
6
CONTINUOUS
62
7
370
-1
100
AcDbCircle
10
-551.049778714
20
-53.7
40
1.25
0
CIRCLE
5
6B
100
AcDbEntity
8
0
6
CONTINUOUS
62
7
370
-1
100
AcDbCircle
10
-555.549778714
20
-53.7
40
1.25
0
CIRCLE
5
6C
100
AcDbEntity
8
0
6
CONTINUOUS
62
7
370
-1
100
AcDbCircle
10
-560.049778714
20
-53.7
40
1.25
0
CIRCLE
5
6D
100
AcDbEntity
8
0
6
CONTINUOUS
62
7
370
-1
100
AcDbCircle
10
-564.549778714
20
-53.7
40
1.25
0
CIRCLE
5
6E
100
AcDbEntity
8
0
6
CONTINUOUS
62
7
370
-1
100
AcDbCircle
10
-488.049778714
20
-58.2
40
1.25
0
CIRCLE
5
6F
100
AcDbEntity
8
0
6
CONTINUOUS
62
7
370
-1
100
AcDbCircle
10
-492.549778714
20
-58.2
40
1.25
0
CIRCLE
5
70
100
AcDbEntity
8
0
6
CONTINUOUS
62
7
370
-1
100
AcDbCircle
10
-497.049778714
20
-58.2
40
1.25
0
CIRCLE
5
71
100
AcDbEntity
8
0
6
CONTINUOUS
62
7
370
-1
100
AcDbCircle
10
-501.549778714
20
-58.2
40
1.25
0
CIRCLE
5
72
100
AcDbEntity
8
0
6
CONTINUOUS
62
7
370
-1
100
AcDbCircle
10
-506.049778714
20
-58.2
40
1.25
0
CIRCLE
5
73
100
AcDbEntity
8
0
6
CONTINUOUS
62
7
370
-1
100
AcDbCircle
10
-510.549778714
20
-58.2
40
1.25
0
CIRCLE
5
74
100
AcDbEntity
8
0
6
CONTINUOUS
62
7
370
-1
100
AcDbCircle
10
-515.049778714
20
-58.2
40
1.25
0
CIRCLE
5
75
100
AcDbEntity
8
0
6
CONTINUOUS
62
7
370
-1
100
AcDbCircle
10
-519.549778714
20
-58.2
40
1.25
0
CIRCLE
5
76
100
AcDbEntity
8
0
6
CONTINUOUS
62
7
370
-1
100
AcDbCircle
10
-524.049778714
20
-58.2
40
1.25
0
CIRCLE
5
77
100
AcDbEntity
8
0
6
CONTINUOUS
62
7
370
-1
100
AcDbCircle
10
-528.549778714
20
-58.2
40
1.25
0
CIRCLE
5
78
100
AcDbEntity
8
0
6
CONTINUOUS
62
7
370
-1
100
AcDbCircle
10
-533.049778714
20
-58.2
40
1.25
0
CIRCLE
5
79
100
AcDbEntity
8
0
6
CONTINUOUS
62
7
370
-1
100
AcDbCircle
10
-537.549778714
20
-58.2
40
1.25
0
CIRCLE
5
7A
100
AcDbEntity
8
0
6
CONTINUOUS
62
7
370
-1
100
AcDbCircle
10
-542.049778714
20
-58.2
40
1.25
0
CIRCLE
5
7B
100
AcDbEntity
8
0
6
CONTINUOUS
62
7
370
-1
100
AcDbCircle
10
-546.549778714
20
-58.2
40
1.25
0
CIRCLE
5
7C
100
AcDbEntity
8
0
6
CONTINUOUS
62
7
370
-1
100
AcDbCircle
10
-551.049778714
20
-58.2
40
1.25
0
CIRCLE
5
7D
100
AcDbEntity
8
0
6
CONTINUOUS
62
7
370
-1
100
AcDbCircle
10
-555.549778714
20
-58.2
40
1.25
0
CIRCLE
5
7E
100
AcDbEntity
8
0
6
CONTINUOUS
62
7
370
-1
100
AcDbCircle
10
-560.049778714
20
-58.2
40
1.25
0
CIRCLE
5
7F
100
AcDbEntity
8
0
6
CONTINUOUS
62
7
370
-1
100
AcDbCircle
10
-564.549778714
20
-58.2
40
1.25
0
CIRCLE
5
80
100
AcDbEntity
8
0
6
CONTINUOUS
62
7
370
-1
100
AcDbCircle
10
-488.049778714
20
-62.7
40
1.25
0
CIRCLE
5
81
100
AcDbEntity
8
0
6
CONTINUOUS
62
7
370
-1
100
AcDbCircle
10
-492.549778714
20
-62.7
40
1.25
0
CIRCLE
5
82
100
AcDbEntity
8
0
6
CONTINUOUS
62
7
370
-1
100
AcDbCircle
10
-497.049778714
20
-62.7
40
1.25
0
CIRCLE
5
83
100
AcDbEntity
8
0
6
CONTINUOUS
62
7
370
-1
100
AcDbCircle
10
-501.549778714
20
-62.7
40
1.25
0
CIRCLE
5
84
100
AcDbEntity
8
0
6
CONTINUOUS
62
7
370
-1
100
AcDbCircle
10
-506.049778714
20
-62.7
40
1.25
0
CIRCLE
5
85
100
AcDbEntity
8
0
6
CONTINUOUS
62
7
370
-1
100
AcDbCircle
10
-510.549778714
20
-62.7
40
1.25
0
CIRCLE
5
86
100
AcDbEntity
8
0
6
CONTINUOUS
62
7
370
-1
100
AcDbCircle
10
-515.049778714
20
-62.7
40
1.25
0
CIRCLE
5
87
100
AcDbEntity
8
0
6
CONTINUOUS
62
7
370
-1
100
AcDbCircle
10
-519.549778714
20
-62.7
40
1.25
0
CIRCLE
5
88
100
AcDbEntity
8
0
6
CONTINUOUS
62
7
370
-1
100
AcDbCircle
10
-524.049778714
20
-62.7
40
1.25
0
CIRCLE
5
89
100
AcDbEntity
8
0
6
CONTINUOUS
62
7
370
-1
100
AcDbCircle
10
-528.549778714
20
-62.7
40
1.25
0
CIRCLE
5
8A
100
AcDbEntity
8
0
6
CONTINUOUS
62
7
370
-1
100
AcDbCircle
10
-533.049778714
20
-62.7
40
1.25
0
CIRCLE
5
8B
100
AcDbEntity
8
0
6
CONTINUOUS
62
7
370
-1
100
AcDbCircle
10
-537.549778714
20
-62.7
40
1.25
0
CIRCLE
5
8C
100
AcDbEntity
8
0
6
CONTINUOUS
62
7
370
-1
100
AcDbCircle
10
-542.049778714
20
-62.7
40
1.25
0
CIRCLE
5
8D
100
AcDbEntity
8
0
6
CONTINUOUS
62
7
370
-1
100
AcDbCircle
10
-546.549778714
20
-62.7
40
1.25
0
CIRCLE
5
8E
100
AcDbEntity
8
0
6
CONTINUOUS
62
7
370
-1
100
AcDbCircle
10
-551.049778714
20
-62.7
40
1.25
0
CIRCLE
5
8F
100
AcDbEntity
8
0
6
CONTINUOUS
62
7
370
-1
100
AcDbCircle
10
-555.549778714
20
-62.7
40
1.25
0
CIRCLE
5
90
100
AcDbEntity
8
0
6
CONTINUOUS
62
7
370
-1
100
AcDbCircle
10
-560.049778714
20
-62.7
40
1.25
0
CIRCLE
5
91
100
AcDbEntity
8
0
6
CONTINUOUS
62
7
370
-1
100
AcDbCircle
10
-564.549778714
20
-62.7
40
1.25
0
CIRCLE
5
92
100
AcDbEntity
8
0
6
CONTINUOUS
62
7
370
-1
100
AcDbCircle
10
-483.549778714
20
-53.7
40
1.25
0
CIRCLE
5
93
100
AcDbEntity
8
0
6
CONTINUOUS
62
7
370
-1
100
AcDbCircle
10
-483.549778714
20
-58.2
40
1.25
0
CIRCLE
5
94
100
AcDbEntity
8
0
6
CONTINUOUS
62
7
370
-1
100
AcDbCircle
10
-483.549778714
20
-62.7
40
1.25
0
CIRCLE
5
95
100
AcDbEntity
8
0
6
CONTINUOUS
62
7
370
-1
100
AcDbCircle
10
-322.850221286
20
-47.2
40
1.25
0
CIRCLE
5
96
100
AcDbEntity
8
0
6
CONTINUOUS
62
7
370
-1
100
AcDbCircle
10
-322.850221286
20
-51.7
40
1.25
0
CIRCLE
5
97
100
AcDbEntity
8
0
6
CONTINUOUS
62
7
370
-1
100
AcDbCircle
10
-322.850221286
20
-56.2
40
1.25
0
CIRCLE
5
98
100
AcDbEntity
8
0
6
CONTINUOUS
62
7
370
-1
100
AcDbCircle
10
-327.350221286
20
-51.7
40
1.25
0
CIRCLE
5
99
100
AcDbEntity
8
0
6
CONTINUOUS
62
7
370
-1
100
AcDbCircle
10
-327.350221286
20
-56.2
40
1.25
0
CIRCLE
5
9A
100
AcDbEntity
8
0
6
CONTINUOUS
62
7
370
-1
100
AcDbCircle
10
-331.850221286
20
-51.7
40
1.25
0
CIRCLE
5
9B
100
AcDbEntity
8
0
6
CONTINUOUS
62
7
370
-1
100
AcDbCircle
10
-331.850221286
20
-56.2
40
1.25
0
CIRCLE
5
9C
100
AcDbEntity
8
0
6
CONTINUOUS
62
7
370
-1
100
AcDbCircle
10
-336.350221286
20
-51.7
40
1.25
0
CIRCLE
5
9D
100
AcDbEntity
8
0
6
CONTINUOUS
62
7
370
-1
100
AcDbCircle
10
-336.350221286
20
-56.2
40
1.25
0
CIRCLE
5
9E
100
AcDbEntity
8
0
6
CONTINUOUS
62
7
370
-1
100
AcDbCircle
10
-340.850221286
20
-51.7
40
1.25
0
CIRCLE
5
9F
100
AcDbEntity
8
0
6
CONTINUOUS
62
7
370
-1
100
AcDbCircle
10
-340.850221286
20
-56.2
40
1.25
0
CIRCLE
5
A0
100
AcDbEntity
8
0
6
CONTINUOUS
62
7
370
-1
100
AcDbCircle
10
-345.350221286
20
-51.7
40
1.25
0
CIRCLE
5
A1
100
AcDbEntity
8
0
6
CONTINUOUS
62
7
370
-1
100
AcDbCircle
10
-345.350221286
20
-56.2
40
1.25
0
CIRCLE
5
A2
100
AcDbEntity
8
0
6
CONTINUOUS
62
7
370
-1
100
AcDbCircle
10
-327.350221286
20
-47.2
40
1.25
0
CIRCLE
5
A3
100
AcDbEntity
8
0
6
CONTINUOUS
62
7
370
-1
100
AcDbCircle
10
-331.850221286
20
-47.2
40
1.25
0
CIRCLE
5
A4
100
AcDbEntity
8
0
6
CONTINUOUS
62
7
370
-1
100
AcDbCircle
10
-336.350221286
20
-47.2
40
1.25
0
CIRCLE
5
A5
100
AcDbEntity
8
0
6
CONTINUOUS
62
7
370
-1
100
AcDbCircle
10
-340.850221286
20
-47.2
40
1.25
0
CIRCLE
5
A6
100
AcDbEntity
8
0
6
CONTINUOUS
62
7
370
-1
100
AcDbCircle
10
-345.350221286
20
-47.2
40
1.25
0
LINE
5
A7
100
AcDbEntity
8
0
6
CONTINUOUS
62
7
370
-1
100
AcDbLine
10
-440.450221286
20
-69
11
-440.450221286
21
-70
0
LINE
5
A8
100
AcDbEntity
8
0
6
CONTINUOUS
62
7
370
-1
100
AcDbLine
10
-440.450221286
20
-70
11
-443.350221286
21
-70
0
LINE
5
A9
100
AcDbEntity
8
0
6
CONTINUOUS
62
7
370
-1
100
AcDbLine
10
-443.350221286
20
-70
11
-443.350221286
21
-70.1607695155
0
LINE
5
AA
100
AcDbEntity
8
0
6
CONTINUOUS
62
7
370
-1
100
AcDbLine
10
-443.950221286
20
-71.2
11
-443.350221286
21
-70.1607695155
0
LINE
5
AB
100
AcDbEntity
8
0
6
CONTINUOUS
62
7
370
-1
100
AcDbLine
10
-443.950221286
20
-71.2
11
-448.250221286
21
-71.2
0
LINE
5
AC
100
AcDbEntity
8
0
6
CONTINUOUS
62
7
370
-1
100
AcDbLine
10
-448.850221286
20
-70.1607695155
11
-448.250221286
21
-71.2
0
LINE
5
AD
100
AcDbEntity
8
0
6
CONTINUOUS
62
7
370
-1
100
AcDbLine
10
-448.850221286
20
-70.1607695155
11
-448.850221286
21
-64.5
0
LINE
5
AE
100
AcDbEntity
8
0
6
CONTINUOUS
62
7
370
-1
100
AcDbLine
10
-452.850221286
20
-64.5
11
-452.850221286
21
-70.1607695155
0
LINE
5
AF
100
AcDbEntity
8
0
6
CONTINUOUS
62
7
370
-1
100
AcDbLine
10
-453.450221286
20
-71.2
11
-452.850221286
21
-70.1607695155
0
LINE
5
B0
100
AcDbEntity
8
0
6
CONTINUOUS
62
7
370
-1
100
AcDbLine
10
-453.450221286
20
-71.2
11
-457.750221286
21
-71.2
0
LINE
5
B1
100
AcDbEntity
8
0
6
CONTINUOUS
62
7
370
-1
100
AcDbLine
10
-458.350221286
20
-70.1607695155
11
-457.750221286
21
-71.2
0
LINE
5
B2
100
AcDbEntity
8
0
6
CONTINUOUS
62
7
370
-1
100
AcDbLine
10
-458.350221286
20
-70
11
-458.350221286
21
-70.1607695155
0
LINE
5
B3
100
AcDbEntity
8
0
6
CONTINUOUS
62
7
370
-1
100
AcDbLine
10
-458.350221286
20
-70
11
-521.449778714
21
-70
0
LINE
5
B4
100
AcDbEntity
8
0
6
CONTINUOUS
62
7
370
-1
100
AcDbLine
10
-521.449778714
20
-70.1607695155
11
-521.449778714
21
-70
0
LINE
5
B5
100
AcDbEntity
8
0
6
CONTINUOUS
62
7
370
-1
100
AcDbLine
10
-522.049778714
20
-71.2
11
-521.449778714
21
-70.1607695155
0
LINE
5
B6
100
AcDbEntity
8
0
6
CONTINUOUS
62
7
370
-1
100
AcDbLine
10
-529.049778714
20
-71.2
11
-522.049778714
21
-71.2
0
LINE
5
B7
100
AcDbEntity
8
0
6
CONTINUOUS
62
7
370
-1
100
AcDbLine
10
-529.649778714
20
-70.1607695155
11
-529.049778714
21
-71.2
0
LINE
5
B8
100
AcDbEntity
8
0
6
CONTINUOUS
62
7
370
-1
100
AcDbLine
10
-529.649778714
20
-70
11
-529.649778714
21
-70.1607695155
0
LINE
5
B9
100
AcDbEntity
8
0
6
CONTINUOUS
62
7
370
-1
100
AcDbLine
10
-529.649778714
20
-70
11
-580.899778714
21
-70
0
LINE
5
BA
100
AcDbEntity
8
0
6
CONTINUOUS
62
7
370
-1
100
AcDbLine
10
-580.899778714
20
-59.35
11
-580.899778714
21
-70
0
LINE
5
BB
100
AcDbEntity
8
0
6
CONTINUOUS
62
7
370
-1
100
AcDbLine
10
-580.899778714
20
-41.2
11
-580.899778714
21
-51.85
0
LINE
5
BC
100
AcDbEntity
8
0
6
CONTINUOUS
62
7
370
-1
100
AcDbLine
10
-574.649778714
20
-41.2
11
-580.899778714
21
-41.2
0
LINE
5
BD
100
AcDbEntity
8
0
6
CONTINUOUS
62
7
370
-1
100
AcDbLine
10
-574.649778714
20
-41.2
11
-574.649778714
21
-39.2
0
LINE
5
BE
100
AcDbEntity
8
0
6
CONTINUOUS
62
7
370
-1
100
AcDbLine
10
-574.649778714
20
-39.2
11
-566.449778714
21
-39.2
0
LINE
5
BF
100
AcDbEntity
8
0
6
CONTINUOUS
62
7
370
-1
100
AcDbLine
10
-566.449778714
20
-39.2
11
-566.449778714
21
-41.2
0
LINE
5
C0
100
AcDbEntity
8
0
6
CONTINUOUS
62
7
370
-1
100
AcDbLine
10
-529.649778714
20
-41.2
11
-566.449778714
21
-41.2
0
LINE
5
C1
100
AcDbEntity
8
0
6
CONTINUOUS
62
7
370
-1
100
AcDbLine
10
-529.649778714
20
-41.2
11
-529.649778714
21
-39.2
0
LINE
5
C2
100
AcDbEntity
8
0
6
CONTINUOUS
62
7
370
-1
100
AcDbLine
10
-529.649778714
20
-39.2
11
-521.449778714
21
-39.2
0
LINE
5
C3
100
AcDbEntity
8
0
6
CONTINUOUS
62
7
370
-1
100
AcDbLine
10
-521.449778714
20
-39.2
11
-521.449778714
21
-41.2
0
LINE
5
C4
100
AcDbEntity
8
0
6
CONTINUOUS
62
7
370
-1
100
AcDbLine
10
-484.649778714
20
-41.2
11
-521.449778714
21
-41.2
0
LINE
5
C5
100
AcDbEntity
8
0
6
CONTINUOUS
62
7
370
-1
100
AcDbLine
10
-484.649778714
20
-41.2
11
-484.649778714
21
-39.2
0
LINE
5
C6
100
AcDbEntity
8
0
6
CONTINUOUS
62
7
370
-1
100
AcDbLine
10
-484.649778714
20
-39.2
11
-476.449778714
21
-39.2
0
LINE
5
C7
100
AcDbEntity
8
0
6
CONTINUOUS
62
7
370
-1
100
AcDbLine
10
-476.449778714
20
-39.2
11
-476.449778714
21
-41.2
0
LINE
5
C8
100
AcDbEntity
8
0
6
CONTINUOUS
62
7
370
-1
100
AcDbLine
10
-470.749778714
20
-41.2
11
-476.449778714
21
-41.2
0
LINE
5
C9
100
AcDbEntity
8
0
6
CONTINUOUS
62
7
370
-1
100
AcDbLine
10
-470.749778714
20
-42.2
11
-470.749778714
21
-41.2
0
LINE
5
CA
100
AcDbEntity
8
0
6
CONTINUOUS
62
7
370
-1
100
AcDbLine
10
-470.749778714
20
-42.2
11
-469.250221286
21
-42.2
0
LINE
5
CB
100
AcDbEntity
8
0
6
CONTINUOUS
62
7
370
-1
100
AcDbLine
10
-469.250221286
20
-38.6409831118
11
-469.250221286
21
-42.2
0
LINE
5
CC
100
AcDbEntity
8
0
6
CONTINUOUS
62
7
370
-1
100
AcDbLine
10
-466.250221286
20
-35.6409831118
11
-442.355576595
21
-35.6409831118
0
LINE
5
CD
100
AcDbEntity
8
0
6
CONTINUOUS
62
7
370
-1
100
AcDbLine
10
-430.544865976
20
-35.6409831118
11
-327.355576595
21
-35.6409831118
0
LINE
5
CE
100
AcDbEntity
8
0
6
CONTINUOUS
62
7
370
-1
100
AcDbLine
10
-318.050221286
20
-42.2
11
-318.050221286
21
-36.1004425712
0
LINE
5
CF
100
AcDbEntity
8
0
6
CONTINUOUS
62
7
370
-1
100
AcDbLine
10
-336.36432998
20
-69
11
-336.36432998
21
-70
0
LINE
5
D0
100
AcDbEntity
8
0
6
CONTINUOUS
62
7
370
-1
100
AcDbLine
10
-336.36432998
20
-69
11
-336.96432998
21
-69
0
LINE
5
D1
100
AcDbEntity
8
0
6
CONTINUOUS
62
7
370
-1
100
AcDbLine
10
-336.96432998
20
-72.0995574288
11
-336.96432998
21
-69
0
LINE
5
D2
100
AcDbEntity
8
0
6
CONTINUOUS
62
7
370
-1
100
AcDbLine
10
-429.21420028
20
-75.0995574288
11
-339.96432998
21
-75.0995574288
0
LINE
5
D3
100
AcDbEntity
8
0
6
CONTINUOUS
62
7
370
-1
100
AcDbLine
10
-439.850221286
20
-69
11
-439.850221286
21
-75.0995574288
0
LINE
5
D4
100
AcDbEntity
8
0
6
CONTINUOUS
62
7
370
-1
100
AcDbLine
10
-439.850221286
20
-69
11
-440.450221286
21
-69
0
ARC
5
D5
100
AcDbEntity
8
0
6
CONTINUOUS
62
7
370
-1
100
AcDbCircle
10
-450.850221286
20
-64.5
40
2
100
AcDbArc
50
360
51
180
0
ARC
5
D6
100
AcDbEntity
8
0
6
CONTINUOUS
62
7
370
-1
100
AcDbCircle
10
-466.250221286
20
-38.6409831118
40
3
100
AcDbArc
50
90
51
180
0
ARC
5
D7
100
AcDbEntity
8
0
6
CONTINUOUS
62
7
370
-1
100
AcDbCircle
10
-442.355576595
20
-31.6409831118
40
4
100
AcDbArc
50
270
51
322.941534
0
ARC
5
D8
100
AcDbEntity
8
0
6
CONTINUOUS
62
7
370
-1
100
AcDbCircle
10
-436.450221286
20
-36.1004425712
40
3.4
100
AcDbArc
50
37.0584659997
51
142.941534
0
ARC
5
D9
100
AcDbEntity
8
0
6
CONTINUOUS
62
7
370
-1
100
AcDbCircle
10
-430.544865976
20
-31.6409831118
40
4
100
AcDbArc
50
217.058466
51
270
0
ARC
5
DA
100
AcDbEntity
8
0
6
CONTINUOUS
62
7
370
-1
100
AcDbCircle
10
-327.355576595
20
-31.6409831118
40
4
100
AcDbArc
50
270
51
322.941534
0
ARC
5
DB
100
AcDbEntity
8
0
6
CONTINUOUS
62
7
370
-1
100
AcDbCircle
10
-321.450221286
20
-36.1004425712
40
3.4
100
AcDbArc
50
360
51
142.941534
0
ARC
5
DC
100
AcDbEntity
8
0
6
CONTINUOUS
62
7
370
-1
100
AcDbCircle
10
-339.96432998
20
-72.0995574288
40
3
100
AcDbArc
50
270
51
360
0
ARC
5
DD
100
AcDbEntity
8
0
6
CONTINUOUS
62
7
370
-1
100
AcDbCircle
10
-429.21420028
20
-81.0995574288
40
6
100
AcDbArc
50
90
51
140.334987092
0
ARC
5
DE
100
AcDbEntity
8
0
6
CONTINUOUS
62
7
370
-1
100
AcDbCircle
10
-436.450221286
20
-75.0995574288
40
3.4
100
AcDbArc
50
180
51
320.334987092
0
CIRCLE
5
DF
100
AcDbEntity
8
0
6
CONTINUOUS
62
7
370
-1
100
AcDbCircle
10
-311.750663857
20
-73.6995574288
40
1.65
0
CIRCLE
5
E0
100
AcDbEntity
8
0
6
CONTINUOUS
62
7
370
-1
100
AcDbCircle
10
-219.750663857
20
-73.6995574288
40
1.65032325816
0
LINE
5
E1
100
AcDbEntity
8
0
6
CONTINUOUS
62
7
370
-1
100
AcDbLine
10
-216.350663857
20
-73.6995574288
11
-216.350663857
21
-69
0
LINE
5
E2
100
AcDbEntity
8
0
6
CONTINUOUS
62
7
370
-1
100
AcDbLine
10
-306.054221788
20
-74.4229616841
11
-225.447105925
21
-74.4229616841
0
LINE
5
E3
100
AcDbEntity
8
0
6
CONTINUOUS
62
7
370
-1
100
AcDbLine
10
-315.150663857
20
-69
11
-315.150663857
21
-73.6995574288
0
LINE
5
E4
100
AcDbEntity
8
0
6
CONTINUOUS
62
7
370
-1
100
AcDbLine
10
-316.550663857
20
-42.2
11
-316.550663857
21
-41.2
0
LINE
5
E5
100
AcDbEntity
8
0
6
CONTINUOUS
62
7
370
-1
100
AcDbLine
10
-310.850663857
20
-41.2
11
-316.550663857
21
-41.2
0
LINE
5
E6
100
AcDbEntity
8
0
6
CONTINUOUS
62
7
370
-1
100
AcDbLine
10
-310.850663857
20
-39.2
11
-310.850663857
21
-41.2
0
LINE
5
E7
100
AcDbEntity
8
0
6
CONTINUOUS
62
7
370
-1
100
AcDbLine
10
-302.650663857
20
-39.2
11
-310.850663857
21
-39.2
0
LINE
5
E8
100
AcDbEntity
8
0
6
CONTINUOUS
62
7
370
-1
100
AcDbLine
10
-302.650663857
20
-41.2
11
-302.650663857
21
-39.2
0
LINE
5
E9
100
AcDbEntity
8
0
6
CONTINUOUS
62
7
370
-1
100
AcDbLine
10
-265.850663857
20
-41.2
11
-302.650663857
21
-41.2
0
LINE
5
EA
100
AcDbEntity
8
0
6
CONTINUOUS
62
7
370
-1
100
AcDbLine
10
-265.850663857
20
-39.2
11
-265.850663857
21
-41.2
0
LINE
5
EB
100
AcDbEntity
8
0
6
CONTINUOUS
62
7
370
-1
100
AcDbLine
10
-257.650663857
20
-39.2
11
-265.850663857
21
-39.2
0
LINE
5
EC
100
AcDbEntity
8
0
6
CONTINUOUS
62
7
370
-1
100
AcDbLine
10
-257.650663857
20
-41.2
11
-257.650663857
21
-39.2
0
LINE
5
ED
100
AcDbEntity
8
0
6
CONTINUOUS
62
7
370
-1
100
AcDbLine
10
-220.850663857
20
-41.2
11
-257.650663857
21
-41.2
0
LINE
5
EE
100
AcDbEntity
8
0
6
CONTINUOUS
62
7
370
-1
100
AcDbLine
10
-220.850663857
20
-39.2
11
-220.850663857
21
-41.2
0
LINE
5
EF
100
AcDbEntity
8
0
6
CONTINUOUS
62
7
370
-1
100
AcDbLine
10
-212.650663857
20
-39.2
11
-220.850663857
21
-39.2
0
LINE
5
F0
100
AcDbEntity
8
0
6
CONTINUOUS
62
7
370
-1
100
AcDbLine
10
-212.650663857
20
-41.2
11
-212.650663857
21
-39.2
0
LINE
5
F1
100
AcDbEntity
8
0
6
CONTINUOUS
62
7
370
-1
100
AcDbLine
10
-206.950663857
20
-41.2
11
-212.650663857
21
-41.2
0
LINE
5
F2
100
AcDbEntity
8
0
6
CONTINUOUS
62
7
370
-1
100
AcDbLine
10
-206.950663857
20
-42.2
11
-206.950663857
21
-41.2
0
LINE
5
F3
100
AcDbEntity
8
0
6
CONTINUOUS
62
7
370
-1
100
AcDbLine
10
-215.750663857
20
-69
11
-215.750663857
21
-70
0
LINE
5
F4
100
AcDbEntity
8
0
6
CONTINUOUS
62
7
370
-1
100
AcDbLine
10
-215.750663857
20
-69
11
-216.350663857
21
-69
0
LINE
5
F5
100
AcDbEntity
8
0
6
CONTINUOUS
62
7
370
-1
100
AcDbLine
10
-315.150663857
20
-69
11
-315.750663857
21
-69
0
LINE
5
F6
100
AcDbEntity
8
0
6
CONTINUOUS
62
7
370
-1
100
AcDbLine
10
-315.750663857
20
-69
11
-315.750663857
21
-70
0
LINE
5
F7
100
AcDbEntity
8
0
6
CONTINUOUS
62
7
370
-1
100
AcDbLine
10
-292.250663857
20
-58.3
11
-292.250663857
21
-45.1
0
LINE
5
F8
100
AcDbEntity
8
0
6
CONTINUOUS
62
7
370
-1
100
AcDbLine
10
-292.450663857
20
-44.9
11
-307.050663857
21
-44.9
0
LINE
5
F9
100
AcDbEntity
8
0
6
CONTINUOUS
62
7
370
-1
100
AcDbLine
10
-307.250663857
20
-45.1
11
-307.250663857
21
-58.3
0
LINE
5
FA
100
AcDbEntity
8
0
6
CONTINUOUS
62
7
370
-1
100
AcDbLine
10
-307.050663857
20
-58.5
11
-292.450663857
21
-58.5
0
LINE
5
FB
100
AcDbEntity
8
0
6
CONTINUOUS
62
7
370
-1
100
AcDbLine
10
-271.250663857
20
-47.2
11
-271.250663857
21
-45.1
0
LINE
5
FC
100
AcDbEntity
8
0
6
CONTINUOUS
62
7
370
-1
100
AcDbLine
10
-271.450663857
20
-44.9
11
-286.050663857
21
-44.9
0
LINE
5
FD
100
AcDbEntity
8
0
6
CONTINUOUS
62
7
370
-1
100
AcDbLine
10
-286.250663857
20
-45.1
11
-286.250663857
21
-47.2
0
LINE
5
FE
100
AcDbEntity
8
0
6
CONTINUOUS
62
7
370
-1
100
AcDbLine
10
-286.050663857
20
-47.4
11
-271.450663857
21
-47.4
0
LINE
5
FF
100
AcDbEntity
8
0
6
CONTINUOUS
62
7
370
-1
100
AcDbLine
10
-258.950663857
20
-48.2
11
-258.950663857
21
-45.1
0
LINE
5
100
100
AcDbEntity
8
0
6
CONTINUOUS
62
7
370
-1
100
AcDbLine
10
-259.150663857
20
-44.9
11
-267.250663857
21
-44.9
0
LINE
5
101
100
AcDbEntity
8
0
6
CONTINUOUS
62
7
370
-1
100
AcDbLine
10
-267.450663857
20
-45.1
11
-267.450663857
21
-48.2
0
LINE
5
102
100
AcDbEntity
8
0
6
CONTINUOUS
62
7
370
-1
100
AcDbLine
10
-267.250663857
20
-48.4
11
-259.150663857
21
-48.4
0
ARC
5
103
100
AcDbEntity
8
0
6
CONTINUOUS
62
7
370
-1
100
AcDbCircle
10
-219.750663857
20
-73.6995574288
40
3.4
100
AcDbArc
50
219.665012908
51
360
0
ARC
5
104
100
AcDbEntity
8
0
6
CONTINUOUS
62
7
370
-1
100
AcDbCircle
10
-225.447105925
20
-78.4229616841
40
4
100
AcDbArc
50
39.6650129076
51
90
0
ARC
5
105
100
AcDbEntity
8
0
6
CONTINUOUS
62
7
370
-1
100
AcDbCircle
10
-306.054221788
20
-78.4229616841
40
4
100
AcDbArc
50
90
51
140.334987092
0
ARC
5
106
100
AcDbEntity
8
0
6
CONTINUOUS
62
7
370
-1
100
AcDbCircle
10
-311.750663857
20
-73.6995574288
40
3.4
100
AcDbArc
50
180
51
320.334987092
0
ARC
5
107
100
AcDbEntity
8
0
6
CONTINUOUS
62
7
370
-1
100
AcDbCircle
10
-259.150663857
20
-48.2
40
0.2
100
AcDbArc
50
270
51
360
0
ARC
5
108
100
AcDbEntity
8
0
6
CONTINUOUS
62
7
370
-1
100
AcDbCircle
10
-271.450663857
20
-47.2
40
0.2
100
AcDbArc
50
270
51
360
0
ARC
5
109
100
AcDbEntity
8
0
6
CONTINUOUS
62
7
370
-1
100
AcDbCircle
10
-292.450663857
20
-58.3
40
0.2
100
AcDbArc
50
270
51
360
0
ARC
5
10A
100
AcDbEntity
8
0
6
CONTINUOUS
62
7
370
-1
100
AcDbCircle
10
-292.450663857
20
-45.1
40
0.2
100
AcDbArc
50
360
51
90
0
ARC
5
10B
100
AcDbEntity
8
0
6
CONTINUOUS
62
7
370
-1
100
AcDbCircle
10
-307.050663857
20
-45.1
40
0.2
100
AcDbArc
50
90
51
180
0
ARC
5
10C
100
AcDbEntity
8
0
6
CONTINUOUS
62
7
370
-1
100
AcDbCircle
10
-307.050663857
20
-58.3
40
0.2
100
AcDbArc
50
180
51
270
0
ARC
5
10D
100
AcDbEntity
8
0
6
CONTINUOUS
62
7
370
-1
100
AcDbCircle
10
-271.450663857
20
-45.1
40
0.2
100
AcDbArc
50
360
51
90
0
ARC
5
10E
100
AcDbEntity
8
0
6
CONTINUOUS
62
7
370
-1
100
AcDbCircle
10
-286.050663857
20
-45.1
40
0.2
100
AcDbArc
50
90
51
180
0
ARC
5
10F
100
AcDbEntity
8
0
6
CONTINUOUS
62
7
370
-1
100
AcDbCircle
10
-286.050663857
20
-47.2
40
0.2
100
AcDbArc
50
180
51
270
0
ARC
5
110
100
AcDbEntity
8
0
6
CONTINUOUS
62
7
370
-1
100
AcDbCircle
10
-259.150663857
20
-45.1
40
0.2
100
AcDbArc
50
360
51
90
0
ARC
5
111
100
AcDbEntity
8
0
6
CONTINUOUS
62
7
370
-1
100
AcDbCircle
10
-267.250663857
20
-45.1
40
0.2
100
AcDbArc
50
90
51
180
0
ARC
5
112
100
AcDbEntity
8
0
6
CONTINUOUS
62
7
370
-1
100
AcDbCircle
10
-267.250663857
20
-48.2
40
0.2
100
AcDbArc
50
180
51
270
0
CIRCLE
5
113
100
AcDbEntity
8
0
6
CONTINUOUS
62
7
370
-1
100
AcDbCircle
10
-87.051106428
20
-28.1004425712
40
1.65032325816
0
CIRCLE
5
114
100
AcDbEntity
8
0
6
CONTINUOUS
62
7
370
-1
100
AcDbCircle
10
-202.051106428
20
-28.1004425712
40
1.65032325816
0
CIRCLE
5
115
100
AcDbEntity
8
0
6
CONTINUOUS
62
7
370
-1
100
AcDbCircle
10
-200.651106428
20
-47.2
40
1.25
0
CIRCLE
5
116
100
AcDbEntity
8
0
6
CONTINUOUS
62
7
370
-1
100
AcDbCircle
10
-200.651106428
20
-51.7
40
1.25
0
CIRCLE
5
117
100
AcDbEntity
8
0
6
CONTINUOUS
62
7
370
-1
100
AcDbCircle
10
-200.651106428
20
-56.2
40
1.25
0
CIRCLE
5
118
100
AcDbEntity
8
0
6
CONTINUOUS
62
7
370
-1
100
AcDbCircle
10
-196.151106428
20
-51.7
40
1.25
0
CIRCLE
5
119
100
AcDbEntity
8
0
6
CONTINUOUS
62
7
370
-1
100
AcDbCircle
10
-196.151106428
20
-56.2
40
1.25
0
CIRCLE
5
11A
100
AcDbEntity
8
0
6
CONTINUOUS
62
7
370
-1
100
AcDbCircle
10
-191.651106428
20
-51.7
40
1.25
0
CIRCLE
5
11B
100
AcDbEntity
8
0
6
CONTINUOUS
62
7
370
-1
100
AcDbCircle
10
-191.651106428
20
-56.2
40
1.25
0
CIRCLE
5
11C
100
AcDbEntity
8
0
6
CONTINUOUS
62
7
370
-1
100
AcDbCircle
10
-187.151106428
20
-51.7
40
1.25
0
CIRCLE
5
11D
100
AcDbEntity
8
0
6
CONTINUOUS
62
7
370
-1
100
AcDbCircle
10
-187.151106428
20
-56.2
40
1.25
0
CIRCLE
5
11E
100
AcDbEntity
8
0
6
CONTINUOUS
62
7
370
-1
100
AcDbCircle
10
-182.651106428
20
-51.7
40
1.25
0
CIRCLE
5
11F
100
AcDbEntity
8
0
6
CONTINUOUS
62
7
370
-1
100
AcDbCircle
10
-182.651106428
20
-56.2
40
1.25
0
CIRCLE
5
120
100
AcDbEntity
8
0
6
CONTINUOUS
62
7
370
-1
100
AcDbCircle
10
-178.151106428
20
-51.7
40
1.25
0
CIRCLE
5
121
100
AcDbEntity
8
0
6
CONTINUOUS
62
7
370
-1
100
AcDbCircle
10
-178.151106428
20
-56.2
40
1.25
0
CIRCLE
5
122
100
AcDbEntity
8
0
6
CONTINUOUS
62
7
370
-1
100
AcDbCircle
10
-196.151106428
20
-47.2
40
1.25
0
CIRCLE
5
123
100
AcDbEntity
8
0
6
CONTINUOUS
62
7
370
-1
100
AcDbCircle
10
-191.651106428
20
-47.2
40
1.25
0
CIRCLE
5
124
100
AcDbEntity
8
0
6
CONTINUOUS
62
7
370
-1
100
AcDbCircle
10
-187.151106428
20
-47.2
40
1.25
0
CIRCLE
5
125
100
AcDbEntity
8
0
6
CONTINUOUS
62
7
370
-1
100
AcDbCircle
10
-182.651106428
20
-47.2
40
1.25
0
CIRCLE
5
126
100
AcDbEntity
8
0
6
CONTINUOUS
62
7
370
-1
100
AcDbCircle
10
-178.151106428
20
-47.2
40
1.25
0
LINE
5
127
100
AcDbEntity
8
0
6
CONTINUOUS
62
7
370
-1
100
AcDbLine
10
-205.451106428
20
-28.1004425712
11
-205.451106428
21
-42.2
0
LINE
5
128
100
AcDbEntity
8
0
6
CONTINUOUS
62
7
370
-1
100
AcDbLine
10
-198.651106428
20
-28.1004425712
11
-198.651106428
21
-29.8004425712
0
LINE
5
129
100
AcDbEntity
8
0
6
CONTINUOUS
62
7
370
-1
100
AcDbLine
10
-194.651106428
20
-33.8004425712
11
-94.451106428
21
-33.8004425712
0
LINE
5
12A
100
AcDbEntity
8
0
6
CONTINUOUS
62
7
370
-1
100
AcDbLine
10
-90.451106428
20
-29.8004425712
11
-90.451106428
21
-28.1004425712
0
LINE
5
12B
100
AcDbEntity
8
0
6
CONTINUOUS
62
7
370
-1
100
AcDbLine
10
-83.651106428
20
-28.1004425712
11
-83.651106428
21
-29.8004425712
0
LINE
5
12C
100
AcDbEntity
8
0
6
CONTINUOUS
62
7
370
-1
100
AcDbLine
10
-79.651106428
20
-33.8004425712
11
-57.251106428
21
-33.8004425712
0
LINE
5
12D
100
AcDbEntity
8
0
6
CONTINUOUS
62
7
370
-1
100
AcDbLine
10
-54.251106428
20
-42.2
11
-54.251106428
21
-36.8004425712
0
LINE
5
12E
100
AcDbEntity
8
0
6
CONTINUOUS
62
7
370
-1
100
AcDbLine
10
-53.051106428
20
-59.6
11
-53.051106428
21
-51.6
0
LINE
5
12F
100
AcDbEntity
8
0
6
CONTINUOUS
62
7
370
-1
100
AcDbLine
10
-54.251106428
20
-42.2
11
-53.051106428
21
-42.2
0
LINE
5
130
100
AcDbEntity
8
0
6
CONTINUOUS
62
7
370
-1
100
AcDbLine
10
-53.051106428
20
-47.6
11
-53.051106428
21
-42.2
0
LINE
5
131
100
AcDbEntity
8
0
6
CONTINUOUS
62
7
370
-1
100
AcDbLine
10
-52.051106428
20
-47.6
11
-53.051106428
21
-47.6
0
LINE
5
132
100
AcDbEntity
8
0
6
CONTINUOUS
62
7
370
-1
100
AcDbLine
10
-50.051106428
20
-61.6
11
-50.051106428
21
-49.6
0
LINE
5
133
100
AcDbEntity
8
0
6
CONTINUOUS
62
7
370
-1
100
AcDbLine
10
-53.051106428
20
-63.6
11
-52.051106428
21
-63.6
0
LINE
5
134
100
AcDbEntity
8
0
6
CONTINUOUS
62
7
370
-1
100
AcDbLine
10
-53.051106428
20
-70
11
-53.051106428
21
-63.6
0
LINE
5
135
100
AcDbEntity
8
0
6
CONTINUOUS
62
7
370
-1
100
AcDbLine
10
-53.051106428
20
-70
11
-65.051106428
21
-70
0
LINE
5
136
100
AcDbEntity
8
0
6
CONTINUOUS
62
7
370
-1
100
AcDbLine
10
-65.051106428
20
-70
11
-65.051106428
21
-70.1607695155
0
LINE
5
137
100
AcDbEntity
8
0
6
CONTINUOUS
62
7
370
-1
100
AcDbLine
10
-65.651106428
20
-71.2
11
-65.051106428
21
-70.1607695155
0
LINE
5
138
100
AcDbEntity
8
0
6
CONTINUOUS
62
7
370
-1
100
AcDbLine
10
-65.651106428
20
-71.2
11
-86.451106428
21
-71.2
0
LINE
5
139
100
AcDbEntity
8
0
6
CONTINUOUS
62
7
370
-1
100
AcDbLine
10
-87.051106428
20
-70.1607695155
11
-86.451106428
21
-71.2
0
LINE
5
13A
100
AcDbEntity
8
0
6
CONTINUOUS
62
7
370
-1
100
AcDbLine
10
-87.051106428
20
-70.1607695155
11
-87.051106428
21
-67.7
0
LINE
5
13B
100
AcDbEntity
8
0
6
CONTINUOUS
62
7
370
-1
100
AcDbLine
10
-90.251106428
20
-67.7
11
-90.251106428
21
-70.1607695155
0
LINE
5
13C
100
AcDbEntity
8
0
6
CONTINUOUS
62
7
370
-1
100
AcDbLine
10
-90.851106428
20
-71.2
11
-90.251106428
21
-70.1607695155
0
LINE
5
13D
100
AcDbEntity
8
0
6
CONTINUOUS
62
7
370
-1
100
AcDbLine
10
-90.851106428
20
-71.2
11
-94.451106428
21
-71.2
0
LINE
5
13E
100
AcDbEntity
8
0
6
CONTINUOUS
62
7
370
-1
100
AcDbLine
10
-95.051106428
20
-70.1607695155
11
-94.451106428
21
-71.2
0
LINE
5
13F
100
AcDbEntity
8
0
6
CONTINUOUS
62
7
370
-1
100
AcDbLine
10
-95.051106428
20
-70.1607695155
11
-95.051106428
21
-67.7
0
LINE
5
140
100
AcDbEntity
8
0
6
CONTINUOUS
62
7
370
-1
100
AcDbLine
10
-98.251106428
20
-67.7
11
-98.251106428
21
-70.1607695155
0
LINE
5
141
100
AcDbEntity
8
0
6
CONTINUOUS
62
7
370
-1
100
AcDbLine
10
-98.851106428
20
-71.2
11
-98.251106428
21
-70.1607695155
0
LINE
5
142
100
AcDbEntity
8
0
6
CONTINUOUS
62
7
370
-1
100
AcDbLine
10
-98.851106428
20
-71.2
11
-114.451106428
21
-71.2
0
LINE
5
143
100
AcDbEntity
8
0
6
CONTINUOUS
62
7
370
-1
100
AcDbLine
10
-115.051106428
20
-70.1607695155
11
-114.451106428
21
-71.2
0
LINE
5
144
100
AcDbEntity
8
0
6
CONTINUOUS
62
7
370
-1
100
AcDbLine
10
-115.051106428
20
-70.1607695155
11
-115.051106428
21
-67.7
0
LINE
5
145
100
AcDbEntity
8
0
6
CONTINUOUS
62
7
370
-1
100
AcDbLine
10
-118.251106428
20
-67.7
11
-118.251106428
21
-70.1607695155
0
LINE
5
146
100
AcDbEntity
8
0
6
CONTINUOUS
62
7
370
-1
100
AcDbLine
10
-118.851106428
20
-71.2
11
-118.251106428
21
-70.1607695155
0
LINE
5
147
100
AcDbEntity
8
0
6
CONTINUOUS
62
7
370
-1
100
AcDbLine
10
-118.851106428
20
-71.2
11
-125.051106428
21
-71.2
0
LINE
5
148
100
AcDbEntity
8
0
6
CONTINUOUS
62
7
370
-1
100
AcDbLine
10
-125.651106428
20
-70.1607695155
11
-125.051106428
21
-71.2
0
LINE
5
149
100
AcDbEntity
8
0
6
CONTINUOUS
62
7
370
-1
100
AcDbLine
10
-125.651106428
20
-70.1607695155
11
-125.651106428
21
-68.6
0
LINE
5
14A
100
AcDbEntity
8
0
6
CONTINUOUS
62
7
370
-1
100
AcDbLine
10
-127.651106428
20
-68.6
11
-127.651106428
21
-70.1607695155
0
LINE
5
14B
100
AcDbEntity
8
0
6
CONTINUOUS
62
7
370
-1
100
AcDbLine
10
-128.251106428
20
-71.2
11
-127.651106428
21
-70.1607695155
0
LINE
5
14C
100
AcDbEntity
8
0
6
CONTINUOUS
62
7
370
-1
100
AcDbLine
10
-128.251106428
20
-71.2
11
-134.451106428
21
-71.2
0
LINE
5
14D
100
AcDbEntity
8
0
6
CONTINUOUS
62
7
370
-1
100
AcDbLine
10
-135.051106428
20
-70.1607695155
11
-134.451106428
21
-71.2
0
LINE
5
14E
100
AcDbEntity
8
0
6
CONTINUOUS
62
7
370
-1
100
AcDbLine
10
-135.051106428
20
-70.1607695155
11
-135.051106428
21
-67.7
0
LINE
5
14F
100
AcDbEntity
8
0
6
CONTINUOUS
62
7
370
-1
100
AcDbLine
10
-138.251106428
20
-67.7
11
-138.251106428
21
-70.1607695155
0
LINE
5
150
100
AcDbEntity
8
0
6
CONTINUOUS
62
7
370
-1
100
AcDbLine
10
-138.851106428
20
-71.2
11
-138.251106428
21
-70.1607695155
0
LINE
5
151
100
AcDbEntity
8
0
6
CONTINUOUS
62
7
370
-1
100
AcDbLine
10
-138.851106428
20
-71.2
11
-144.451106428
21
-71.2
0
LINE
5
152
100
AcDbEntity
8
0
6
CONTINUOUS
62
7
370
-1
100
AcDbLine
10
-145.051106428
20
-70.1607695155
11
-144.451106428
21
-71.2
0
LINE
5
153
100
AcDbEntity
8
0
6
CONTINUOUS
62
7
370
-1
100
AcDbLine
10
-145.051106428
20
-70.1607695155
11
-145.051106428
21
-67.7
0
LINE
5
154
100
AcDbEntity
8
0
6
CONTINUOUS
62
7
370
-1
100
AcDbLine
10
-148.251106428
20
-67.7
11
-148.251106428
21
-70.1607695155
0
LINE
5
155
100
AcDbEntity
8
0
6
CONTINUOUS
62
7
370
-1
100
AcDbLine
10
-148.851106428
20
-71.2
11
-148.251106428
21
-70.1607695155
0
LINE
5
156
100
AcDbEntity
8
0
6
CONTINUOUS
62
7
370
-1
100
AcDbLine
10
-148.851106428
20
-71.2
11
-154.451106428
21
-71.2
0
LINE
5
157
100
AcDbEntity
8
0
6
CONTINUOUS
62
7
370
-1
100
AcDbLine
10
-155.051106428
20
-70.1607695155
11
-154.451106428
21
-71.2
0
LINE
5
158
100
AcDbEntity
8
0
6
CONTINUOUS
62
7
370
-1
100
AcDbLine
10
-155.051106428
20
-70.1607695155
11
-155.051106428
21
-67.7
0
LINE
5
159
100
AcDbEntity
8
0
6
CONTINUOUS
62
7
370
-1
100
AcDbLine
10
-158.251106428
20
-67.7
11
-158.251106428
21
-70.1607695155
0
LINE
5
15A
100
AcDbEntity
8
0
6
CONTINUOUS
62
7
370
-1
100
AcDbLine
10
-158.851106428
20
-71.2
11
-158.251106428
21
-70.1607695155
0
LINE
5
15B
100
AcDbEntity
8
0
6
CONTINUOUS
62
7
370
-1
100
AcDbLine
10
-158.851106428
20
-71.2
11
-175.451106428
21
-71.2
0
LINE
5
15C
100
AcDbEntity
8
0
6
CONTINUOUS
62
7
370
-1
100
AcDbLine
10
-176.051106428
20
-70.1607695155
11
-175.451106428
21
-71.2
0
LINE
5
15D
100
AcDbEntity
8
0
6
CONTINUOUS
62
7
370
-1
100
AcDbLine
10
-176.051106428
20
-70.1607695155
11
-176.051106428
21
-64.75
0
LINE
5
15E
100
AcDbEntity
8
0
6
CONTINUOUS
62
7
370
-1
100
AcDbLine
10
-179.551106428
20
-64.75
11
-179.551106428
21
-70.1607695155
0
LINE
5
15F
100
AcDbEntity
8
0
6
CONTINUOUS
62
7
370
-1
100
AcDbLine
10
-180.151106428
20
-71.2
11
-179.551106428
21
-70.1607695155
0
LINE
5
160
100
AcDbEntity
8
0
6
CONTINUOUS
62
7
370
-1
100
AcDbLine
10
-180.151106428
20
-71.2
11
-185.451106428
21
-71.2
0
LINE
5
161
100
AcDbEntity
8
0
6
CONTINUOUS
62
7
370
-1
100
AcDbLine
10
-186.051106428
20
-70.1607695155
11
-185.451106428
21
-71.2
0
LINE
5
162
100
AcDbEntity
8
0
6
CONTINUOUS
62
7
370
-1
100
AcDbLine
10
-186.051106428
20
-70.1607695155
11
-186.051106428
21
-67.7
0
LINE
5
163
100
AcDbEntity
8
0
6
CONTINUOUS
62
7
370
-1
100
AcDbLine
10
-186.651106428
20
-66.4510004003
11
-186.651106428
21
-61.6
0
LINE
5
164
100
AcDbEntity
8
0
6
CONTINUOUS
62
7
370
-1
100
AcDbLine
10
-188.651106428
20
-61.6
11
-188.651106428
21
-66.4510004003
0
LINE
5
165
100
AcDbEntity
8
0
6
CONTINUOUS
62
7
370
-1
100
AcDbLine
10
-189.251106428
20
-67.7
11
-189.251106428
21
-70.1607695155
0
LINE
5
166
100
AcDbEntity
8
0
6
CONTINUOUS
62
7
370
-1
100
AcDbLine
10
-189.851106428
20
-71.2
11
-189.251106428
21
-70.1607695155
0
LINE
5
167
100
AcDbEntity
8
0
6
CONTINUOUS
62
7
370
-1
100
AcDbLine
10
-189.851106428
20
-71.2
11
-194.051106428
21
-71.2
0
LINE
5
168
100
AcDbEntity
8
0
6
CONTINUOUS
62
7
370
-1
100
AcDbLine
10
-194.651106428
20
-70.1607695155
11
-194.051106428
21
-71.2
0
LINE
5
169
100
AcDbEntity
8
0
6
CONTINUOUS
62
7
370
-1
100
AcDbLine
10
-194.651106428
20
-70
11
-194.651106428
21
-70.1607695155
0
LINE
5
16A
100
AcDbEntity
8
0
6
CONTINUOUS
62
7
370
-1
100
AcDbLine
10
-53.051106428
20
-51.6
11
-53.751106428
21
-51.6
0
LINE
5
16B
100
AcDbEntity
8
0
6
CONTINUOUS
62
7
370
-1
100
AcDbLine
10
-53.751106428
20
-51.6
11
-53.751106428
21
-59.6
0
LINE
5
16C
100
AcDbEntity
8
0
6
CONTINUOUS
62
7
370
-1
100
AcDbLine
10
-53.751106428
20
-59.6
11
-53.051106428
21
-59.6
0
ARC
5
16D
100
AcDbEntity
8
0
6
CONTINUOUS
62
7
370
-1
100
AcDbCircle
10
-202.051106428
20
-28.1004425712
40
3.4
100
AcDbArc
50
360
51
180
0
ARC
5
16E
100
AcDbEntity
8
0
6
CONTINUOUS
62
7
370
-1
100
AcDbCircle
10
-194.651106428
20
-29.8004425712
40
4
100
AcDbArc
50
180
51
270
0
ARC
5
16F
100
AcDbEntity
8
0
6
CONTINUOUS
62
7
370
-1
100
AcDbCircle
10
-94.451106428
20
-29.8004425712
40
4
100
AcDbArc
50
270
51
360
0
ARC
5
170
100
AcDbEntity
8
0
6
CONTINUOUS
62
7
370
-1
100
AcDbCircle
10
-87.051106428
20
-28.1004425712
40
3.4
100
AcDbArc
50
360
51
180
0
ARC
5
171
100
AcDbEntity
8
0
6
CONTINUOUS
62
7
370
-1
100
AcDbCircle
10
-79.651106428
20
-29.8004425712
40
4
100
AcDbArc
50
180
51
270
0
ARC
5
172
100
AcDbEntity
8
0
6
CONTINUOUS
62
7
370
-1
100
AcDbCircle
10
-57.251106428
20
-36.8004425712
40
3
100
AcDbArc
50
360
51
90
0
ARC
5
173
100
AcDbEntity
8
0
6
CONTINUOUS
62
7
370
-1
100
AcDbCircle
10
-52.051106428
20
-49.6
40
2
100
AcDbArc
50
360
51
90
0
ARC
5
174
100
AcDbEntity
8
0
6
CONTINUOUS
62
7
370
-1
100
AcDbCircle
10
-52.051106428
20
-61.6
40
2
100
AcDbArc
50
270
51
360
0
ARC
5
175
100
AcDbEntity
8
0
6
CONTINUOUS
62
7
370
-1
100
AcDbCircle
10
-88.651106428
20
-67.7
40
1.6
100
AcDbArc
50
360
51
180
0
ARC
5
176
100
AcDbEntity
8
0
6
CONTINUOUS
62
7
370
-1
100
AcDbCircle
10
-96.651106428
20
-67.7
40
1.6
100
AcDbArc
50
360
51
180
0
ARC
5
177
100
AcDbEntity
8
0
6
CONTINUOUS
62
7
370
-1
100
AcDbCircle
10
-116.651106428
20
-67.7
40
1.6
100
AcDbArc
50
360
51
180
0
ARC
5
178
100
AcDbEntity
8
0
6
CONTINUOUS
62
7
370
-1
100
AcDbCircle
10
-126.651106428
20
-68.6
40
1
100
AcDbArc
50
360
51
180
0
ARC
5
179
100
AcDbEntity
8
0
6
CONTINUOUS
62
7
370
-1
100
AcDbCircle
10
-136.651106428
20
-67.7
40
1.6
100
AcDbArc
50
360
51
180
0
ARC
5
17A
100
AcDbEntity
8
0
6
CONTINUOUS
62
7
370
-1
100
AcDbCircle
10
-146.651106428
20
-67.7
40
1.6
100
AcDbArc
50
360
51
180
0
ARC
5
17B
100
AcDbEntity
8
0
6
CONTINUOUS
62
7
370
-1
100
AcDbCircle
10
-156.651106428
20
-67.7
40
1.6
100
AcDbArc
50
360
51
180
0
ARC
5
17C
100
AcDbEntity
8
0
6
CONTINUOUS
62
7
370
-1
100
AcDbCircle
10
-177.801106428
20
-64.75
40
1.75
100
AcDbArc
50
360
51
180
0
ARC
5
17D
100
AcDbEntity
8
0
6
CONTINUOUS
62
7
370
-1
100
AcDbCircle
10
-187.651106428
20
-67.7
40
1.6
100
AcDbArc
50
360
51
51.3178125465
0
ARC
5
17E
100
AcDbEntity
8
0
6
CONTINUOUS
62
7
370
-1
100
AcDbCircle
10
-187.651106428
20
-61.6
40
1
100
AcDbArc
50
360
51
180
0
ARC
5
17F
100
AcDbEntity
8
0
6
CONTINUOUS
62
7
370
-1
100
AcDbCircle
10
-187.651106428
20
-67.7
40
1.6
100
AcDbArc
50
128.682187454
51
180
0
LINE
5
180
100
AcDbEntity
8
0
6
CONTINUOUS
62
7
370
-1
100
AcDbLine
10
-206.950663857
20
-42.2
11
-205.451106428
21
-42.2
0
LINE
5
181
100
AcDbEntity
8
0
6
CONTINUOUS
62
7
370
-1
100
AcDbLine
10
-194.651106428
20
-70
11
-215.750663857
21
-70
0
LINE
5
182
100
AcDbEntity
8
0
6
CONTINUOUS
62
7
370
-1
100
AcDbLine
10
-318.050221286
20
-42.2
11
-316.550663857
21
-42.2
0
LINE
5
183
100
AcDbEntity
8
0
6
CONTINUOUS
62
7
370
-1
100
AcDbLine
10
-315.750663857
20
-70
11
-336.36432998
21
-70
0
CIRCLE
5
184
100
AcDbEntity
8
0
6
CONTINUOUS
62
7
370
-1
100
AcDbCircle
10
-321.450221286
20
6.1004425712
40
1.65
0
CIRCLE
5
185
100
AcDbEntity
8
0
6
CONTINUOUS
62
7
370
-1
100
AcDbCircle
10
-436.450221286
20
6.1004425712
40
1.65032325816
0
CIRCLE
5
186
100
AcDbEntity
8
0
6
CONTINUOUS
62
7
370
-1
100
AcDbCircle
10
-436.450221286
20
45.0995574288
40
1.65032325816
0
CIRCLE
5
187
100
AcDbEntity
8
0
6
CONTINUOUS
62
7
370
-1
100
AcDbCircle
10
-483.549778714
20
19.2
40
1.25
0
CIRCLE
5
188
100
AcDbEntity
8
0
6
CONTINUOUS
62
7
370
-1
100
AcDbCircle
10
-488.049778714
20
19.2
40
1.25
0
CIRCLE
5
189
100
AcDbEntity
8
0
6
CONTINUOUS
62
7
370
-1
100
AcDbCircle
10
-492.549778714
20
19.2
40
1.25
0
CIRCLE
5
18A
100
AcDbEntity
8
0
6
CONTINUOUS
62
7
370
-1
100
AcDbCircle
10
-497.049778714
20
19.2
40
1.25
0
CIRCLE
5
18B
100
AcDbEntity
8
0
6
CONTINUOUS
62
7
370
-1
100
AcDbCircle
10
-501.549778714
20
19.2
40
1.25
0
CIRCLE
5
18C
100
AcDbEntity
8
0
6
CONTINUOUS
62
7
370
-1
100
AcDbCircle
10
-506.049778714
20
19.2
40
1.25
0
CIRCLE
5
18D
100
AcDbEntity
8
0
6
CONTINUOUS
62
7
370
-1
100
AcDbCircle
10
-510.549778714
20
19.2
40
1.25
0
CIRCLE
5
18E
100
AcDbEntity
8
0
6
CONTINUOUS
62
7
370
-1
100
AcDbCircle
10
-515.049778714
20
19.2
40
1.25
0
CIRCLE
5
18F
100
AcDbEntity
8
0
6
CONTINUOUS
62
7
370
-1
100
AcDbCircle
10
-519.549778714
20
19.2
40
1.25
0
CIRCLE
5
190
100
AcDbEntity
8
0
6
CONTINUOUS
62
7
370
-1
100
AcDbCircle
10
-524.049778714
20
19.2
40
1.25
0
CIRCLE
5
191
100
AcDbEntity
8
0
6
CONTINUOUS
62
7
370
-1
100
AcDbCircle
10
-528.549778714
20
19.2
40
1.25
0
CIRCLE
5
192
100
AcDbEntity
8
0
6
CONTINUOUS
62
7
370
-1
100
AcDbCircle
10
-533.049778714
20
19.2
40
1.25
0
CIRCLE
5
193
100
AcDbEntity
8
0
6
CONTINUOUS
62
7
370
-1
100
AcDbCircle
10
-537.549778714
20
19.2
40
1.25
0
CIRCLE
5
194
100
AcDbEntity
8
0
6
CONTINUOUS
62
7
370
-1
100
AcDbCircle
10
-542.049778714
20
19.2
40
1.25
0
CIRCLE
5
195
100
AcDbEntity
8
0
6
CONTINUOUS
62
7
370
-1
100
AcDbCircle
10
-546.549778714
20
19.2
40
1.25
0
CIRCLE
5
196
100
AcDbEntity
8
0
6
CONTINUOUS
62
7
370
-1
100
AcDbCircle
10
-551.049778714
20
19.2
40
1.25
0
CIRCLE
5
197
100
AcDbEntity
8
0
6
CONTINUOUS
62
7
370
-1
100
AcDbCircle
10
-555.549778714
20
19.2
40
1.25
0
CIRCLE
5
198
100
AcDbEntity
8
0
6
CONTINUOUS
62
7
370
-1
100
AcDbCircle
10
-560.049778714
20
19.2
40
1.25
0
CIRCLE
5
199
100
AcDbEntity
8
0
6
CONTINUOUS
62
7
370
-1
100
AcDbCircle
10
-564.549778714
20
19.2
40
1.25
0
CIRCLE
5
19A
100
AcDbEntity
8
0
6
CONTINUOUS
62
7
370
-1
100
AcDbCircle
10
-488.049778714
20
23.7
40
1.25
0
CIRCLE
5
19B
100
AcDbEntity
8
0
6
CONTINUOUS
62
7
370
-1
100
AcDbCircle
10
-492.549778714
20
23.7
40
1.25
0
CIRCLE
5
19C
100
AcDbEntity
8
0
6
CONTINUOUS
62
7
370
-1
100
AcDbCircle
10
-497.049778714
20
23.7
40
1.25
0
CIRCLE
5
19D
100
AcDbEntity
8
0
6
CONTINUOUS
62
7
370
-1
100
AcDbCircle
10
-501.549778714
20
23.7
40
1.25
0
CIRCLE
5
19E
100
AcDbEntity
8
0
6
CONTINUOUS
62
7
370
-1
100
AcDbCircle
10
-506.049778714
20
23.7
40
1.25
0
CIRCLE
5
19F
100
AcDbEntity
8
0
6
CONTINUOUS
62
7
370
-1
100
AcDbCircle
10
-510.549778714
20
23.7
40
1.25
0
CIRCLE
5
1A0
100
AcDbEntity
8
0
6
CONTINUOUS
62
7
370
-1
100
AcDbCircle
10
-515.049778714
20
23.7
40
1.25
0
CIRCLE
5
1A1
100
AcDbEntity
8
0
6
CONTINUOUS
62
7
370
-1
100
AcDbCircle
10
-519.549778714
20
23.7
40
1.25
0
CIRCLE
5
1A2
100
AcDbEntity
8
0
6
CONTINUOUS
62
7
370
-1
100
AcDbCircle
10
-524.049778714
20
23.7
40
1.25
0
CIRCLE
5
1A3
100
AcDbEntity
8
0
6
CONTINUOUS
62
7
370
-1
100
AcDbCircle
10
-528.549778714
20
23.7
40
1.25
0
CIRCLE
5
1A4
100
AcDbEntity
8
0
6
CONTINUOUS
62
7
370
-1
100
AcDbCircle
10
-533.049778714
20
23.7
40
1.25
0
CIRCLE
5
1A5
100
AcDbEntity
8
0
6
CONTINUOUS
62
7
370
-1
100
AcDbCircle
10
-537.549778714
20
23.7
40
1.25
0
CIRCLE
5
1A6
100
AcDbEntity
8
0
6
CONTINUOUS
62
7
370
-1
100
AcDbCircle
10
-542.049778714
20
23.7
40
1.25
0
CIRCLE
5
1A7
100
AcDbEntity
8
0
6
CONTINUOUS
62
7
370
-1
100
AcDbCircle
10
-546.549778714
20
23.7
40
1.25
0
CIRCLE
5
1A8
100
AcDbEntity
8
0
6
CONTINUOUS
62
7
370
-1
100
AcDbCircle
10
-551.049778714
20
23.7
40
1.25
0
CIRCLE
5
1A9
100
AcDbEntity
8
0
6
CONTINUOUS
62
7
370
-1
100
AcDbCircle
10
-555.549778714
20
23.7
40
1.25
0
CIRCLE
5
1AA
100
AcDbEntity
8
0
6
CONTINUOUS
62
7
370
-1
100
AcDbCircle
10
-560.049778714
20
23.7
40
1.25
0
CIRCLE
5
1AB
100
AcDbEntity
8
0
6
CONTINUOUS
62
7
370
-1
100
AcDbCircle
10
-564.549778714
20
23.7
40
1.25
0
CIRCLE
5
1AC
100
AcDbEntity
8
0
6
CONTINUOUS
62
7
370
-1
100
AcDbCircle
10
-488.049778714
20
28.2
40
1.25
0
CIRCLE
5
1AD
100
AcDbEntity
8
0
6
CONTINUOUS
62
7
370
-1
100
AcDbCircle
10
-492.549778714
20
28.2
40
1.25
0
CIRCLE
5
1AE
100
AcDbEntity
8
0
6
CONTINUOUS
62
7
370
-1
100
AcDbCircle
10
-497.049778714
20
28.2
40
1.25
0
CIRCLE
5
1AF
100
AcDbEntity
8
0
6
CONTINUOUS
62
7
370
-1
100
AcDbCircle
10
-501.549778714
20
28.2
40
1.25
0
CIRCLE
5
1B0
100
AcDbEntity
8
0
6
CONTINUOUS
62
7
370
-1
100
AcDbCircle
10
-506.049778714
20
28.2
40
1.25
0
CIRCLE
5
1B1
100
AcDbEntity
8
0
6
CONTINUOUS
62
7
370
-1
100
AcDbCircle
10
-510.549778714
20
28.2
40
1.25
0
CIRCLE
5
1B2
100
AcDbEntity
8
0
6
CONTINUOUS
62
7
370
-1
100
AcDbCircle
10
-515.049778714
20
28.2
40
1.25
0
CIRCLE
5
1B3
100
AcDbEntity
8
0
6
CONTINUOUS
62
7
370
-1
100
AcDbCircle
10
-519.549778714
20
28.2
40
1.25
0
CIRCLE
5
1B4
100
AcDbEntity
8
0
6
CONTINUOUS
62
7
370
-1
100
AcDbCircle
10
-524.049778714
20
28.2
40
1.25
0
CIRCLE
5
1B5
100
AcDbEntity
8
0
6
CONTINUOUS
62
7
370
-1
100
AcDbCircle
10
-528.549778714
20
28.2
40
1.25
0
CIRCLE
5
1B6
100
AcDbEntity
8
0
6
CONTINUOUS
62
7
370
-1
100
AcDbCircle
10
-533.049778714
20
28.2
40
1.25
0
CIRCLE
5
1B7
100
AcDbEntity
8
0
6
CONTINUOUS
62
7
370
-1
100
AcDbCircle
10
-537.549778714
20
28.2
40
1.25
0
CIRCLE
5
1B8
100
AcDbEntity
8
0
6
CONTINUOUS
62
7
370
-1
100
AcDbCircle
10
-542.049778714
20
28.2
40
1.25
0
CIRCLE
5
1B9
100
AcDbEntity
8
0
6
CONTINUOUS
62
7
370
-1
100
AcDbCircle
10
-546.549778714
20
28.2
40
1.25
0
CIRCLE
5
1BA
100
AcDbEntity
8
0
6
CONTINUOUS
62
7
370
-1
100
AcDbCircle
10
-551.049778714
20
28.2
40
1.25
0
CIRCLE
5
1BB
100
AcDbEntity
8
0
6
CONTINUOUS
62
7
370
-1
100
AcDbCircle
10
-555.549778714
20
28.2
40
1.25
0
CIRCLE
5
1BC
100
AcDbEntity
8
0
6
CONTINUOUS
62
7
370
-1
100
AcDbCircle
10
-560.049778714
20
28.2
40
1.25
0
CIRCLE
5
1BD
100
AcDbEntity
8
0
6
CONTINUOUS
62
7
370
-1
100
AcDbCircle
10
-564.549778714
20
28.2
40
1.25
0
CIRCLE
5
1BE
100
AcDbEntity
8
0
6
CONTINUOUS
62
7
370
-1
100
AcDbCircle
10
-488.049778714
20
32.7
40
1.25
0
CIRCLE
5
1BF
100
AcDbEntity
8
0
6
CONTINUOUS
62
7
370
-1
100
AcDbCircle
10
-492.549778714
20
32.7
40
1.25
0
CIRCLE
5
1C0
100
AcDbEntity
8
0
6
CONTINUOUS
62
7
370
-1
100
AcDbCircle
10
-497.049778714
20
32.7
40
1.25
0
CIRCLE
5
1C1
100
AcDbEntity
8
0
6
CONTINUOUS
62
7
370
-1
100
AcDbCircle
10
-501.549778714
20
32.7
40
1.25
0
CIRCLE
5
1C2
100
AcDbEntity
8
0
6
CONTINUOUS
62
7
370
-1
100
AcDbCircle
10
-506.049778714
20
32.7
40
1.25
0
CIRCLE
5
1C3
100
AcDbEntity
8
0
6
CONTINUOUS
62
7
370
-1
100
AcDbCircle
10
-510.549778714
20
32.7
40
1.25
0
CIRCLE
5
1C4
100
AcDbEntity
8
0
6
CONTINUOUS
62
7
370
-1
100
AcDbCircle
10
-515.049778714
20
32.7
40
1.25
0
CIRCLE
5
1C5
100
AcDbEntity
8
0
6
CONTINUOUS
62
7
370
-1
100
AcDbCircle
10
-519.549778714
20
32.7
40
1.25
0
CIRCLE
5
1C6
100
AcDbEntity
8
0
6
CONTINUOUS
62
7
370
-1
100
AcDbCircle
10
-524.049778714
20
32.7
40
1.25
0
CIRCLE
5
1C7
100
AcDbEntity
8
0
6
CONTINUOUS
62
7
370
-1
100
AcDbCircle
10
-528.549778714
20
32.7
40
1.25
0
CIRCLE
5
1C8
100
AcDbEntity
8
0
6
CONTINUOUS
62
7
370
-1
100
AcDbCircle
10
-533.049778714
20
32.7
40
1.25
0
CIRCLE
5
1C9
100
AcDbEntity
8
0
6
CONTINUOUS
62
7
370
-1
100
AcDbCircle
10
-537.549778714
20
32.7
40
1.25
0
CIRCLE
5
1CA
100
AcDbEntity
8
0
6
CONTINUOUS
62
7
370
-1
100
AcDbCircle
10
-542.049778714
20
32.7
40
1.25
0
CIRCLE
5
1CB
100
AcDbEntity
8
0
6
CONTINUOUS
62
7
370
-1
100
AcDbCircle
10
-546.549778714
20
32.7
40
1.25
0
CIRCLE
5
1CC
100
AcDbEntity
8
0
6
CONTINUOUS
62
7
370
-1
100
AcDbCircle
10
-551.049778714
20
32.7
40
1.25
0
CIRCLE
5
1CD
100
AcDbEntity
8
0
6
CONTINUOUS
62
7
370
-1
100
AcDbCircle
10
-555.549778714
20
32.7
40
1.25
0
CIRCLE
5
1CE
100
AcDbEntity
8
0
6
CONTINUOUS
62
7
370
-1
100
AcDbCircle
10
-560.049778714
20
32.7
40
1.25
0
CIRCLE
5
1CF
100
AcDbEntity
8
0
6
CONTINUOUS
62
7
370
-1
100
AcDbCircle
10
-564.549778714
20
32.7
40
1.25
0
CIRCLE
5
1D0
100
AcDbEntity
8
0
6
CONTINUOUS
62
7
370
-1
100
AcDbCircle
10
-483.549778714
20
23.7
40
1.25
0
CIRCLE
5
1D1
100
AcDbEntity
8
0
6
CONTINUOUS
62
7
370
-1
100
AcDbCircle
10
-483.549778714
20
28.2
40
1.25
0
CIRCLE
5
1D2
100
AcDbEntity
8
0
6
CONTINUOUS
62
7
370
-1
100
AcDbCircle
10
-483.549778714
20
32.7
40
1.25
0
CIRCLE
5
1D3
100
AcDbEntity
8
0
6
CONTINUOUS
62
7
370
-1
100
AcDbCircle
10
-322.850221286
20
17.2
40
1.25
0
CIRCLE
5
1D4
100
AcDbEntity
8
0
6
CONTINUOUS
62
7
370
-1
100
AcDbCircle
10
-322.850221286
20
21.7
40
1.25
0
CIRCLE
5
1D5
100
AcDbEntity
8
0
6
CONTINUOUS
62
7
370
-1
100
AcDbCircle
10
-322.850221286
20
26.2
40
1.25
0
CIRCLE
5
1D6
100
AcDbEntity
8
0
6
CONTINUOUS
62
7
370
-1
100
AcDbCircle
10
-327.350221286
20
21.7
40
1.25
0
CIRCLE
5
1D7
100
AcDbEntity
8
0
6
CONTINUOUS
62
7
370
-1
100
AcDbCircle
10
-327.350221286
20
26.2
40
1.25
0
CIRCLE
5
1D8
100
AcDbEntity
8
0
6
CONTINUOUS
62
7
370
-1
100
AcDbCircle
10
-331.850221286
20
21.7
40
1.25
0
CIRCLE
5
1D9
100
AcDbEntity
8
0
6
CONTINUOUS
62
7
370
-1
100
AcDbCircle
10
-331.850221286
20
26.2
40
1.25
0
CIRCLE
5
1DA
100
AcDbEntity
8
0
6
CONTINUOUS
62
7
370
-1
100
AcDbCircle
10
-336.350221286
20
21.7
40
1.25
0
CIRCLE
5
1DB
100
AcDbEntity
8
0
6
CONTINUOUS
62
7
370
-1
100
AcDbCircle
10
-336.350221286
20
26.2
40
1.25
0
CIRCLE
5
1DC
100
AcDbEntity
8
0
6
CONTINUOUS
62
7
370
-1
100
AcDbCircle
10
-340.850221286
20
21.7
40
1.25
0
CIRCLE
5
1DD
100
AcDbEntity
8
0
6
CONTINUOUS
62
7
370
-1
100
AcDbCircle
10
-340.850221286
20
26.2
40
1.25
0
CIRCLE
5
1DE
100
AcDbEntity
8
0
6
CONTINUOUS
62
7
370
-1
100
AcDbCircle
10
-345.350221286
20
21.7
40
1.25
0
CIRCLE
5
1DF
100
AcDbEntity
8
0
6
CONTINUOUS
62
7
370
-1
100
AcDbCircle
10
-345.350221286
20
26.2
40
1.25
0
CIRCLE
5
1E0
100
AcDbEntity
8
0
6
CONTINUOUS
62
7
370
-1
100
AcDbCircle
10
-327.350221286
20
17.2
40
1.25
0
CIRCLE
5
1E1
100
AcDbEntity
8
0
6
CONTINUOUS
62
7
370
-1
100
AcDbCircle
10
-331.850221286
20
17.2
40
1.25
0
CIRCLE
5
1E2
100
AcDbEntity
8
0
6
CONTINUOUS
62
7
370
-1
100
AcDbCircle
10
-336.350221286
20
17.2
40
1.25
0
CIRCLE
5
1E3
100
AcDbEntity
8
0
6
CONTINUOUS
62
7
370
-1
100
AcDbCircle
10
-340.850221286
20
17.2
40
1.25
0
CIRCLE
5
1E4
100
AcDbEntity
8
0
6
CONTINUOUS
62
7
370
-1
100
AcDbCircle
10
-345.350221286
20
17.2
40
1.25
0
LINE
5
1E5
100
AcDbEntity
8
0
6
CONTINUOUS
62
7
370
-1
100
AcDbLine
10
-440.450221286
20
39
11
-440.450221286
21
40
0
LINE
5
1E6
100
AcDbEntity
8
0
6
CONTINUOUS
62
7
370
-1
100
AcDbLine
10
-440.450221286
20
40
11
-443.350221286
21
40
0
LINE
5
1E7
100
AcDbEntity
8
0
6
CONTINUOUS
62
7
370
-1
100
AcDbLine
10
-443.350221286
20
40
11
-443.350221286
21
40.1607695155
0
LINE
5
1E8
100
AcDbEntity
8
0
6
CONTINUOUS
62
7
370
-1
100
AcDbLine
10
-443.950221286
20
41.2
11
-443.350221286
21
40.1607695155
0
LINE
5
1E9
100
AcDbEntity
8
0
6
CONTINUOUS
62
7
370
-1
100
AcDbLine
10
-443.950221286
20
41.2
11
-448.250221286
21
41.2
0
LINE
5
1EA
100
AcDbEntity
8
0
6
CONTINUOUS
62
7
370
-1
100
AcDbLine
10
-448.850221286
20
40.1607695155
11
-448.250221286
21
41.2
0
LINE
5
1EB
100
AcDbEntity
8
0
6
CONTINUOUS
62
7
370
-1
100
AcDbLine
10
-448.850221286
20
40.1607695155
11
-448.850221286
21
34.5
0
LINE
5
1EC
100
AcDbEntity
8
0
6
CONTINUOUS
62
7
370
-1
100
AcDbLine
10
-452.850221286
20
34.5
11
-452.850221286
21
40.1607695155
0
LINE
5
1ED
100
AcDbEntity
8
0
6
CONTINUOUS
62
7
370
-1
100
AcDbLine
10
-453.450221286
20
41.2
11
-452.850221286
21
40.1607695155
0
LINE
5
1EE
100
AcDbEntity
8
0
6
CONTINUOUS
62
7
370
-1
100
AcDbLine
10
-453.450221286
20
41.2
11
-457.750221286
21
41.2
0
LINE
5
1EF
100
AcDbEntity
8
0
6
CONTINUOUS
62
7
370
-1
100
AcDbLine
10
-458.350221286
20
40.1607695155
11
-457.750221286
21
41.2
0
LINE
5
1F0
100
AcDbEntity
8
0
6
CONTINUOUS
62
7
370
-1
100
AcDbLine
10
-458.350221286
20
40
11
-458.350221286
21
40.1607695155
0
LINE
5
1F1
100
AcDbEntity
8
0
6
CONTINUOUS
62
7
370
-1
100
AcDbLine
10
-458.350221286
20
40
11
-521.449778714
21
40
0
LINE
5
1F2
100
AcDbEntity
8
0
6
CONTINUOUS
62
7
370
-1
100
AcDbLine
10
-521.449778714
20
40.1607695155
11
-521.449778714
21
40
0
LINE
5
1F3
100
AcDbEntity
8
0
6
CONTINUOUS
62
7
370
-1
100
AcDbLine
10
-522.049778714
20
41.2
11
-521.449778714
21
40.1607695155
0
LINE
5
1F4
100
AcDbEntity
8
0
6
CONTINUOUS
62
7
370
-1
100
AcDbLine
10
-529.049778714
20
41.2
11
-522.049778714
21
41.2
0
LINE
5
1F5
100
AcDbEntity
8
0
6
CONTINUOUS
62
7
370
-1
100
AcDbLine
10
-529.649778714
20
40.1607695155
11
-529.049778714
21
41.2
0
LINE
5
1F6
100
AcDbEntity
8
0
6
CONTINUOUS
62
7
370
-1
100
AcDbLine
10
-529.649778714
20
40
11
-529.649778714
21
40.1607695155
0
LINE
5
1F7
100
AcDbEntity
8
0
6
CONTINUOUS
62
7
370
-1
100
AcDbLine
10
-529.649778714
20
40
11
-580.899778714
21
40
0
LINE
5
1F8
100
AcDbEntity
8
0
6
CONTINUOUS
62
7
370
-1
100
AcDbLine
10
-580.899778714
20
29.35
11
-580.899778714
21
40
0
LINE
5
1F9
100
AcDbEntity
8
0
6
CONTINUOUS
62
7
370
-1
100
AcDbLine
10
-580.899778714
20
11.2
11
-580.899778714
21
21.85
0
LINE
5
1FA
100
AcDbEntity
8
0
6
CONTINUOUS
62
7
370
-1
100
AcDbLine
10
-574.649778714
20
11.2
11
-580.899778714
21
11.2
0
LINE
5
1FB
100
AcDbEntity
8
0
6
CONTINUOUS
62
7
370
-1
100
AcDbLine
10
-574.649778714
20
11.2
11
-574.649778714
21
9.2
0
LINE
5
1FC
100
AcDbEntity
8
0
6
CONTINUOUS
62
7
370
-1
100
AcDbLine
10
-574.649778714
20
9.2
11
-566.449778714
21
9.2
0
LINE
5
1FD
100
AcDbEntity
8
0
6
CONTINUOUS
62
7
370
-1
100
AcDbLine
10
-566.449778714
20
9.2
11
-566.449778714
21
11.2
0
LINE
5
1FE
100
AcDbEntity
8
0
6
CONTINUOUS
62
7
370
-1
100
AcDbLine
10
-529.649778714
20
11.2
11
-566.449778714
21
11.2
0
LINE
5
1FF
100
AcDbEntity
8
0
6
CONTINUOUS
62
7
370
-1
100
AcDbLine
10
-529.649778714
20
11.2
11
-529.649778714
21
9.2
0
LINE
5
200
100
AcDbEntity
8
0
6
CONTINUOUS
62
7
370
-1
100
AcDbLine
10
-529.649778714
20
9.2
11
-521.449778714
21
9.2
0
LINE
5
201
100
AcDbEntity
8
0
6
CONTINUOUS
62
7
370
-1
100
AcDbLine
10
-521.449778714
20
9.2
11
-521.449778714
21
11.2
0
LINE
5
202
100
AcDbEntity
8
0
6
CONTINUOUS
62
7
370
-1
100
AcDbLine
10
-484.649778714
20
11.2
11
-521.449778714
21
11.2
0
LINE
5
203
100
AcDbEntity
8
0
6
CONTINUOUS
62
7
370
-1
100
AcDbLine
10
-484.649778714
20
11.2
11
-484.649778714
21
9.2
0
LINE
5
204
100
AcDbEntity
8
0
6
CONTINUOUS
62
7
370
-1
100
AcDbLine
10
-484.649778714
20
9.2
11
-476.449778714
21
9.2
0
LINE
5
205
100
AcDbEntity
8
0
6
CONTINUOUS
62
7
370
-1
100
AcDbLine
10
-476.449778714
20
9.2
11
-476.449778714
21
11.2
0
LINE
5
206
100
AcDbEntity
8
0
6
CONTINUOUS
62
7
370
-1
100
AcDbLine
10
-470.749778714
20
11.2
11
-476.449778714
21
11.2
0
LINE
5
207
100
AcDbEntity
8
0
6
CONTINUOUS
62
7
370
-1
100
AcDbLine
10
-470.749778714
20
12.2
11
-470.749778714
21
11.2
0
LINE
5
208
100
AcDbEntity
8
0
6
CONTINUOUS
62
7
370
-1
100
AcDbLine
10
-470.749778714
20
12.2
11
-469.250221286
21
12.2
0
LINE
5
209
100
AcDbEntity
8
0
6
CONTINUOUS
62
7
370
-1
100
AcDbLine
10
-469.250221286
20
8.6409831118
11
-469.250221286
21
12.2
0
LINE
5
20A
100
AcDbEntity
8
0
6
CONTINUOUS
62
7
370
-1
100
AcDbLine
10
-466.250221286
20
5.6409831118
11
-442.355576595
21
5.6409831118
0
LINE
5
20B
100
AcDbEntity
8
0
6
CONTINUOUS
62
7
370
-1
100
AcDbLine
10
-430.544865976
20
5.6409831118
11
-327.355576595
21
5.6409831118
0
LINE
5
20C
100
AcDbEntity
8
0
6
CONTINUOUS
62
7
370
-1
100
AcDbLine
10
-318.050221286
20
12.2
11
-318.050221286
21
6.1004425712
0
LINE
5
20D
100
AcDbEntity
8
0
6
CONTINUOUS
62
7
370
-1
100
AcDbLine
10
-336.36432998
20
39
11
-336.36432998
21
40
0
LINE
5
20E
100
AcDbEntity
8
0
6
CONTINUOUS
62
7
370
-1
100
AcDbLine
10
-336.36432998
20
39
11
-336.96432998
21
39
0
LINE
5
20F
100
AcDbEntity
8
0
6
CONTINUOUS
62
7
370
-1
100
AcDbLine
10
-336.96432998
20
42.0995574288
11
-336.96432998
21
39
0
LINE
5
210
100
AcDbEntity
8
0
6
CONTINUOUS
62
7
370
-1
100
AcDbLine
10
-429.21420028
20
45.0995574288
11
-339.96432998
21
45.0995574288
0
LINE
5
211
100
AcDbEntity
8
0
6
CONTINUOUS
62
7
370
-1
100
AcDbLine
10
-439.850221286
20
39
11
-439.850221286
21
45.0995574288
0
LINE
5
212
100
AcDbEntity
8
0
6
CONTINUOUS
62
7
370
-1
100
AcDbLine
10
-439.850221286
20
39
11
-440.450221286
21
39
0
ARC
5
213
100
AcDbEntity
8
0
6
CONTINUOUS
62
7
370
-1
100
AcDbCircle
10
-450.850221286
20
34.5
40
2
100
AcDbArc
50
180
51
360
0
ARC
5
214
100
AcDbEntity
8
0
6
CONTINUOUS
62
7
370
-1
100
AcDbCircle
10
-466.250221286
20
8.6409831118
40
3
100
AcDbArc
50
180
51
270
0
ARC
5
215
100
AcDbEntity
8
0
6
CONTINUOUS
62
7
370
-1
100
AcDbCircle
10
-442.355576595
20
1.6409831118
40
4
100
AcDbArc
50
37.0584659997
51
90
0
ARC
5
216
100
AcDbEntity
8
0
6
CONTINUOUS
62
7
370
-1
100
AcDbCircle
10
-436.450221286
20
6.1004425712
40
3.4
100
AcDbArc
50
217.058466
51
322.941534
0
ARC
5
217
100
AcDbEntity
8
0
6
CONTINUOUS
62
7
370
-1
100
AcDbCircle
10
-430.544865976
20
1.6409831118
40
4
100
AcDbArc
50
90
51
142.941534
0
ARC
5
218
100
AcDbEntity
8
0
6
CONTINUOUS
62
7
370
-1
100
AcDbCircle
10
-327.355576595
20
1.6409831118
40
4
100
AcDbArc
50
37.0584659997
51
90
0
ARC
5
219
100
AcDbEntity
8
0
6
CONTINUOUS
62
7
370
-1
100
AcDbCircle
10
-321.450221286
20
6.1004425712
40
3.4
100
AcDbArc
50
217.058466
51
360
0
ARC
5
21A
100
AcDbEntity
8
0
6
CONTINUOUS
62
7
370
-1
100
AcDbCircle
10
-339.96432998
20
42.0995574288
40
3
100
AcDbArc
50
360
51
90
0
ARC
5
21B
100
AcDbEntity
8
0
6
CONTINUOUS
62
7
370
-1
100
AcDbCircle
10
-429.21420028
20
51.0995574288
40
6
100
AcDbArc
50
219.665012908
51
270
0
ARC
5
21C
100
AcDbEntity
8
0
6
CONTINUOUS
62
7
370
-1
100
AcDbCircle
10
-436.450221286
20
45.0995574288
40
3.4
100
AcDbArc
50
39.6650129076
51
180
0
CIRCLE
5
21D
100
AcDbEntity
8
0
6
CONTINUOUS
62
7
370
-1
100
AcDbCircle
10
-311.750663857
20
43.6995574288
40
1.65
0
CIRCLE
5
21E
100
AcDbEntity
8
0
6
CONTINUOUS
62
7
370
-1
100
AcDbCircle
10
-219.750663857
20
43.6995574288
40
1.65032325816
0
LINE
5
21F
100
AcDbEntity
8
0
6
CONTINUOUS
62
7
370
-1
100
AcDbLine
10
-216.350663857
20
43.6995574288
11
-216.350663857
21
39
0
LINE
5
220
100
AcDbEntity
8
0
6
CONTINUOUS
62
7
370
-1
100
AcDbLine
10
-306.054221788
20
44.4229616841
11
-225.447105925
21
44.4229616841
0
LINE
5
221
100
AcDbEntity
8
0
6
CONTINUOUS
62
7
370
-1
100
AcDbLine
10
-315.150663857
20
39
11
-315.150663857
21
43.6995574288
0
LINE
5
222
100
AcDbEntity
8
0
6
CONTINUOUS
62
7
370
-1
100
AcDbLine
10
-316.550663857
20
12.2
11
-316.550663857
21
11.2
0
LINE
5
223
100
AcDbEntity
8
0
6
CONTINUOUS
62
7
370
-1
100
AcDbLine
10
-310.850663857
20
11.2
11
-316.550663857
21
11.2
0
LINE
5
224
100
AcDbEntity
8
0
6
CONTINUOUS
62
7
370
-1
100
AcDbLine
10
-310.850663857
20
9.2
11
-310.850663857
21
11.2
0
LINE
5
225
100
AcDbEntity
8
0
6
CONTINUOUS
62
7
370
-1
100
AcDbLine
10
-302.650663857
20
9.2
11
-310.850663857
21
9.2
0
LINE
5
226
100
AcDbEntity
8
0
6
CONTINUOUS
62
7
370
-1
100
AcDbLine
10
-302.650663857
20
11.2
11
-302.650663857
21
9.2
0
LINE
5
227
100
AcDbEntity
8
0
6
CONTINUOUS
62
7
370
-1
100
AcDbLine
10
-265.850663857
20
11.2
11
-302.650663857
21
11.2
0
LINE
5
228
100
AcDbEntity
8
0
6
CONTINUOUS
62
7
370
-1
100
AcDbLine
10
-265.850663857
20
9.2
11
-265.850663857
21
11.2
0
LINE
5
229
100
AcDbEntity
8
0
6
CONTINUOUS
62
7
370
-1
100
AcDbLine
10
-257.650663857
20
9.2
11
-265.850663857
21
9.2
0
LINE
5
22A
100
AcDbEntity
8
0
6
CONTINUOUS
62
7
370
-1
100
AcDbLine
10
-257.650663857
20
11.2
11
-257.650663857
21
9.2
0
LINE
5
22B
100
AcDbEntity
8
0
6
CONTINUOUS
62
7
370
-1
100
AcDbLine
10
-220.850663857
20
11.2
11
-257.650663857
21
11.2
0
LINE
5
22C
100
AcDbEntity
8
0
6
CONTINUOUS
62
7
370
-1
100
AcDbLine
10
-220.850663857
20
9.2
11
-220.850663857
21
11.2
0
LINE
5
22D
100
AcDbEntity
8
0
6
CONTINUOUS
62
7
370
-1
100
AcDbLine
10
-212.650663857
20
9.2
11
-220.850663857
21
9.2
0
LINE
5
22E
100
AcDbEntity
8
0
6
CONTINUOUS
62
7
370
-1
100
AcDbLine
10
-212.650663857
20
11.2
11
-212.650663857
21
9.2
0
LINE
5
22F
100
AcDbEntity
8
0
6
CONTINUOUS
62
7
370
-1
100
AcDbLine
10
-206.950663857
20
11.2
11
-212.650663857
21
11.2
0
LINE
5
230
100
AcDbEntity
8
0
6
CONTINUOUS
62
7
370
-1
100
AcDbLine
10
-206.950663857
20
12.2
11
-206.950663857
21
11.2
0
LINE
5
231
100
AcDbEntity
8
0
6
CONTINUOUS
62
7
370
-1
100
AcDbLine
10
-215.750663857
20
39
11
-215.750663857
21
40
0
LINE
5
232
100
AcDbEntity
8
0
6
CONTINUOUS
62
7
370
-1
100
AcDbLine
10
-215.750663857
20
39
11
-216.350663857
21
39
0
LINE
5
233
100
AcDbEntity
8
0
6
CONTINUOUS
62
7
370
-1
100
AcDbLine
10
-315.150663857
20
39
11
-315.750663857
21
39
0
LINE
5
234
100
AcDbEntity
8
0
6
CONTINUOUS
62
7
370
-1
100
AcDbLine
10
-315.750663857
20
39
11
-315.750663857
21
40
0
LINE
5
235
100
AcDbEntity
8
0
6
CONTINUOUS
62
7
370
-1
100
AcDbLine
10
-292.250663857
20
28.3
11
-292.250663857
21
15.1
0
LINE
5
236
100
AcDbEntity
8
0
6
CONTINUOUS
62
7
370
-1
100
AcDbLine
10
-292.450663857
20
14.9
11
-307.050663857
21
14.9
0
LINE
5
237
100
AcDbEntity
8
0
6
CONTINUOUS
62
7
370
-1
100
AcDbLine
10
-307.250663857
20
15.1
11
-307.250663857
21
28.3
0
LINE
5
238
100
AcDbEntity
8
0
6
CONTINUOUS
62
7
370
-1
100
AcDbLine
10
-307.050663857
20
28.5
11
-292.450663857
21
28.5
0
LINE
5
239
100
AcDbEntity
8
0
6
CONTINUOUS
62
7
370
-1
100
AcDbLine
10
-271.250663857
20
17.2
11
-271.250663857
21
15.1
0
LINE
5
23A
100
AcDbEntity
8
0
6
CONTINUOUS
62
7
370
-1
100
AcDbLine
10
-271.450663857
20
14.9
11
-286.050663857
21
14.9
0
LINE
5
23B
100
AcDbEntity
8
0
6
CONTINUOUS
62
7
370
-1
100
AcDbLine
10
-286.250663857
20
15.1
11
-286.250663857
21
17.2
0
LINE
5
23C
100
AcDbEntity
8
0
6
CONTINUOUS
62
7
370
-1
100
AcDbLine
10
-286.050663857
20
17.4
11
-271.450663857
21
17.4
0
LINE
5
23D
100
AcDbEntity
8
0
6
CONTINUOUS
62
7
370
-1
100
AcDbLine
10
-258.950663857
20
18.2
11
-258.950663857
21
15.1
0
LINE
5
23E
100
AcDbEntity
8
0
6
CONTINUOUS
62
7
370
-1
100
AcDbLine
10
-259.150663857
20
14.9
11
-267.250663857
21
14.9
0
LINE
5
23F
100
AcDbEntity
8
0
6
CONTINUOUS
62
7
370
-1
100
AcDbLine
10
-267.450663857
20
15.1
11
-267.450663857
21
18.2
0
LINE
5
240
100
AcDbEntity
8
0
6
CONTINUOUS
62
7
370
-1
100
AcDbLine
10
-267.250663857
20
18.4
11
-259.150663857
21
18.4
0
ARC
5
241
100
AcDbEntity
8
0
6
CONTINUOUS
62
7
370
-1
100
AcDbCircle
10
-219.750663857
20
43.6995574288
40
3.4
100
AcDbArc
50
360
51
140.334987092
0
ARC
5
242
100
AcDbEntity
8
0
6
CONTINUOUS
62
7
370
-1
100
AcDbCircle
10
-225.447105925
20
48.4229616841
40
4
100
AcDbArc
50
270
51
320.334987092
0
ARC
5
243
100
AcDbEntity
8
0
6
CONTINUOUS
62
7
370
-1
100
AcDbCircle
10
-306.054221788
20
48.4229616841
40
4
100
AcDbArc
50
219.665012908
51
270
0
ARC
5
244
100
AcDbEntity
8
0
6
CONTINUOUS
62
7
370
-1
100
AcDbCircle
10
-311.750663857
20
43.6995574288
40
3.4
100
AcDbArc
50
39.6650129076
51
180
0
ARC
5
245
100
AcDbEntity
8
0
6
CONTINUOUS
62
7
370
-1
100
AcDbCircle
10
-259.150663857
20
18.2
40
0.2
100
AcDbArc
50
360
51
90
0
ARC
5
246
100
AcDbEntity
8
0
6
CONTINUOUS
62
7
370
-1
100
AcDbCircle
10
-271.450663857
20
17.2
40
0.2
100
AcDbArc
50
360
51
90
0
ARC
5
247
100
AcDbEntity
8
0
6
CONTINUOUS
62
7
370
-1
100
AcDbCircle
10
-292.450663857
20
28.3
40
0.2
100
AcDbArc
50
360
51
90
0
ARC
5
248
100
AcDbEntity
8
0
6
CONTINUOUS
62
7
370
-1
100
AcDbCircle
10
-292.450663857
20
15.1
40
0.2
100
AcDbArc
50
270
51
360
0
ARC
5
249
100
AcDbEntity
8
0
6
CONTINUOUS
62
7
370
-1
100
AcDbCircle
10
-307.050663857
20
15.1
40
0.2
100
AcDbArc
50
180
51
270
0
ARC
5
24A
100
AcDbEntity
8
0
6
CONTINUOUS
62
7
370
-1
100
AcDbCircle
10
-307.050663857
20
28.3
40
0.2
100
AcDbArc
50
90
51
180
0
ARC
5
24B
100
AcDbEntity
8
0
6
CONTINUOUS
62
7
370
-1
100
AcDbCircle
10
-271.450663857
20
15.1
40
0.2
100
AcDbArc
50
270
51
360
0
ARC
5
24C
100
AcDbEntity
8
0
6
CONTINUOUS
62
7
370
-1
100
AcDbCircle
10
-286.050663857
20
15.1
40
0.2
100
AcDbArc
50
180
51
270
0
ARC
5
24D
100
AcDbEntity
8
0
6
CONTINUOUS
62
7
370
-1
100
AcDbCircle
10
-286.050663857
20
17.2
40
0.2
100
AcDbArc
50
90
51
180
0
ARC
5
24E
100
AcDbEntity
8
0
6
CONTINUOUS
62
7
370
-1
100
AcDbCircle
10
-259.150663857
20
15.1
40
0.2
100
AcDbArc
50
270
51
360
0
ARC
5
24F
100
AcDbEntity
8
0
6
CONTINUOUS
62
7
370
-1
100
AcDbCircle
10
-267.250663857
20
15.1
40
0.2
100
AcDbArc
50
180
51
270
0
ARC
5
250
100
AcDbEntity
8
0
6
CONTINUOUS
62
7
370
-1
100
AcDbCircle
10
-267.250663857
20
18.2
40
0.2
100
AcDbArc
50
90
51
180
0
CIRCLE
5
251
100
AcDbEntity
8
0
6
CONTINUOUS
62
7
370
-1
100
AcDbCircle
10
-87.051106428
20
-1.8995574288
40
1.65032325816
0
CIRCLE
5
252
100
AcDbEntity
8
0
6
CONTINUOUS
62
7
370
-1
100
AcDbCircle
10
-202.051106428
20
-1.8995574288
40
1.65032325816
0
CIRCLE
5
253
100
AcDbEntity
8
0
6
CONTINUOUS
62
7
370
-1
100
AcDbCircle
10
-200.651106428
20
17.2
40
1.25
0
CIRCLE
5
254
100
AcDbEntity
8
0
6
CONTINUOUS
62
7
370
-1
100
AcDbCircle
10
-200.651106428
20
21.7
40
1.25
0
CIRCLE
5
255
100
AcDbEntity
8
0
6
CONTINUOUS
62
7
370
-1
100
AcDbCircle
10
-200.651106428
20
26.2
40
1.25
0
CIRCLE
5
256
100
AcDbEntity
8
0
6
CONTINUOUS
62
7
370
-1
100
AcDbCircle
10
-196.151106428
20
21.7
40
1.25
0
CIRCLE
5
257
100
AcDbEntity
8
0
6
CONTINUOUS
62
7
370
-1
100
AcDbCircle
10
-196.151106428
20
26.2
40
1.25
0
CIRCLE
5
258
100
AcDbEntity
8
0
6
CONTINUOUS
62
7
370
-1
100
AcDbCircle
10
-191.651106428
20
21.7
40
1.25
0
CIRCLE
5
259
100
AcDbEntity
8
0
6
CONTINUOUS
62
7
370
-1
100
AcDbCircle
10
-191.651106428
20
26.2
40
1.25
0
CIRCLE
5
25A
100
AcDbEntity
8
0
6
CONTINUOUS
62
7
370
-1
100
AcDbCircle
10
-187.151106428
20
21.7
40
1.25
0
CIRCLE
5
25B
100
AcDbEntity
8
0
6
CONTINUOUS
62
7
370
-1
100
AcDbCircle
10
-187.151106428
20
26.2
40
1.25
0
CIRCLE
5
25C
100
AcDbEntity
8
0
6
CONTINUOUS
62
7
370
-1
100
AcDbCircle
10
-182.651106428
20
21.7
40
1.25
0
CIRCLE
5
25D
100
AcDbEntity
8
0
6
CONTINUOUS
62
7
370
-1
100
AcDbCircle
10
-182.651106428
20
26.2
40
1.25
0
CIRCLE
5
25E
100
AcDbEntity
8
0
6
CONTINUOUS
62
7
370
-1
100
AcDbCircle
10
-178.151106428
20
21.7
40
1.25
0
CIRCLE
5
25F
100
AcDbEntity
8
0
6
CONTINUOUS
62
7
370
-1
100
AcDbCircle
10
-178.151106428
20
26.2
40
1.25
0
CIRCLE
5
260
100
AcDbEntity
8
0
6
CONTINUOUS
62
7
370
-1
100
AcDbCircle
10
-196.151106428
20
17.2
40
1.25
0
CIRCLE
5
261
100
AcDbEntity
8
0
6
CONTINUOUS
62
7
370
-1
100
AcDbCircle
10
-191.651106428
20
17.2
40
1.25
0
CIRCLE
5
262
100
AcDbEntity
8
0
6
CONTINUOUS
62
7
370
-1
100
AcDbCircle
10
-187.151106428
20
17.2
40
1.25
0
CIRCLE
5
263
100
AcDbEntity
8
0
6
CONTINUOUS
62
7
370
-1
100
AcDbCircle
10
-182.651106428
20
17.2
40
1.25
0
CIRCLE
5
264
100
AcDbEntity
8
0
6
CONTINUOUS
62
7
370
-1
100
AcDbCircle
10
-178.151106428
20
17.2
40
1.25
0
LINE
5
265
100
AcDbEntity
8
0
6
CONTINUOUS
62
7
370
-1
100
AcDbLine
10
-205.451106428
20
-1.8995574288
11
-205.451106428
21
12.2
0
LINE
5
266
100
AcDbEntity
8
0
6
CONTINUOUS
62
7
370
-1
100
AcDbLine
10
-198.651106428
20
-1.8995574288
11
-198.651106428
21
-0.1995574288
0
LINE
5
267
100
AcDbEntity
8
0
6
CONTINUOUS
62
7
370
-1
100
AcDbLine
10
-194.651106428
20
3.8004425712
11
-94.451106428
21
3.8004425712
0
LINE
5
268
100
AcDbEntity
8
0
6
CONTINUOUS
62
7
370
-1
100
AcDbLine
10
-90.451106428
20
-0.1995574288
11
-90.451106428
21
-1.8995574288
0
LINE
5
269
100
AcDbEntity
8
0
6
CONTINUOUS
62
7
370
-1
100
AcDbLine
10
-83.651106428
20
-1.8995574288
11
-83.651106428
21
-0.1995574288
0
LINE
5
26A
100
AcDbEntity
8
0
6
CONTINUOUS
62
7
370
-1
100
AcDbLine
10
-79.651106428
20
3.8004425712
11
-57.251106428
21
3.8004425712
0
LINE
5
26B
100
AcDbEntity
8
0
6
CONTINUOUS
62
7
370
-1
100
AcDbLine
10
-54.251106428
20
12.2
11
-54.251106428
21
6.8004425712
0
LINE
5
26C
100
AcDbEntity
8
0
6
CONTINUOUS
62
7
370
-1
100
AcDbLine
10
-53.051106428
20
29.6
11
-53.051106428
21
21.6
0
LINE
5
26D
100
AcDbEntity
8
0
6
CONTINUOUS
62
7
370
-1
100
AcDbLine
10
-54.251106428
20
12.2
11
-53.051106428
21
12.2
0
LINE
5
26E
100
AcDbEntity
8
0
6
CONTINUOUS
62
7
370
-1
100
AcDbLine
10
-53.051106428
20
17.6
11
-53.051106428
21
12.2
0
LINE
5
26F
100
AcDbEntity
8
0
6
CONTINUOUS
62
7
370
-1
100
AcDbLine
10
-52.051106428
20
17.6
11
-53.051106428
21
17.6
0
LINE
5
270
100
AcDbEntity
8
0
6
CONTINUOUS
62
7
370
-1
100
AcDbLine
10
-50.051106428
20
31.6
11
-50.051106428
21
19.6
0
LINE
5
271
100
AcDbEntity
8
0
6
CONTINUOUS
62
7
370
-1
100
AcDbLine
10
-53.051106428
20
33.6
11
-52.051106428
21
33.6
0
LINE
5
272
100
AcDbEntity
8
0
6
CONTINUOUS
62
7
370
-1
100
AcDbLine
10
-53.051106428
20
40
11
-53.051106428
21
33.6
0
LINE
5
273
100
AcDbEntity
8
0
6
CONTINUOUS
62
7
370
-1
100
AcDbLine
10
-53.051106428
20
40
11
-65.051106428
21
40
0
LINE
5
274
100
AcDbEntity
8
0
6
CONTINUOUS
62
7
370
-1
100
AcDbLine
10
-65.051106428
20
40
11
-65.051106428
21
40.1607695155
0
LINE
5
275
100
AcDbEntity
8
0
6
CONTINUOUS
62
7
370
-1
100
AcDbLine
10
-65.651106428
20
41.2
11
-65.051106428
21
40.1607695155
0
LINE
5
276
100
AcDbEntity
8
0
6
CONTINUOUS
62
7
370
-1
100
AcDbLine
10
-65.651106428
20
41.2
11
-86.451106428
21
41.2
0
LINE
5
277
100
AcDbEntity
8
0
6
CONTINUOUS
62
7
370
-1
100
AcDbLine
10
-87.051106428
20
40.1607695155
11
-86.451106428
21
41.2
0
LINE
5
278
100
AcDbEntity
8
0
6
CONTINUOUS
62
7
370
-1
100
AcDbLine
10
-87.051106428
20
40.1607695155
11
-87.051106428
21
37.7
0
LINE
5
279
100
AcDbEntity
8
0
6
CONTINUOUS
62
7
370
-1
100
AcDbLine
10
-90.251106428
20
37.7
11
-90.251106428
21
40.1607695155
0
LINE
5
27A
100
AcDbEntity
8
0
6
CONTINUOUS
62
7
370
-1
100
AcDbLine
10
-90.851106428
20
41.2
11
-90.251106428
21
40.1607695155
0
LINE
5
27B
100
AcDbEntity
8
0
6
CONTINUOUS
62
7
370
-1
100
AcDbLine
10
-90.851106428
20
41.2
11
-94.451106428
21
41.2
0
LINE
5
27C
100
AcDbEntity
8
0
6
CONTINUOUS
62
7
370
-1
100
AcDbLine
10
-95.051106428
20
40.1607695155
11
-94.451106428
21
41.2
0
LINE
5
27D
100
AcDbEntity
8
0
6
CONTINUOUS
62
7
370
-1
100
AcDbLine
10
-95.051106428
20
40.1607695155
11
-95.051106428
21
37.7
0
LINE
5
27E
100
AcDbEntity
8
0
6
CONTINUOUS
62
7
370
-1
100
AcDbLine
10
-98.251106428
20
37.7
11
-98.251106428
21
40.1607695155
0
LINE
5
27F
100
AcDbEntity
8
0
6
CONTINUOUS
62
7
370
-1
100
AcDbLine
10
-98.851106428
20
41.2
11
-98.251106428
21
40.1607695155
0
LINE
5
280
100
AcDbEntity
8
0
6
CONTINUOUS
62
7
370
-1
100
AcDbLine
10
-98.851106428
20
41.2
11
-114.451106428
21
41.2
0
LINE
5
281
100
AcDbEntity
8
0
6
CONTINUOUS
62
7
370
-1
100
AcDbLine
10
-115.051106428
20
40.1607695155
11
-114.451106428
21
41.2
0
LINE
5
282
100
AcDbEntity
8
0
6
CONTINUOUS
62
7
370
-1
100
AcDbLine
10
-115.051106428
20
40.1607695155
11
-115.051106428
21
37.7
0
LINE
5
283
100
AcDbEntity
8
0
6
CONTINUOUS
62
7
370
-1
100
AcDbLine
10
-118.251106428
20
37.7
11
-118.251106428
21
40.1607695155
0
LINE
5
284
100
AcDbEntity
8
0
6
CONTINUOUS
62
7
370
-1
100
AcDbLine
10
-118.851106428
20
41.2
11
-118.251106428
21
40.1607695155
0
LINE
5
285
100
AcDbEntity
8
0
6
CONTINUOUS
62
7
370
-1
100
AcDbLine
10
-118.851106428
20
41.2
11
-125.051106428
21
41.2
0
LINE
5
286
100
AcDbEntity
8
0
6
CONTINUOUS
62
7
370
-1
100
AcDbLine
10
-125.651106428
20
40.1607695155
11
-125.051106428
21
41.2
0
LINE
5
287
100
AcDbEntity
8
0
6
CONTINUOUS
62
7
370
-1
100
AcDbLine
10
-125.651106428
20
40.1607695155
11
-125.651106428
21
38.6
0
LINE
5
288
100
AcDbEntity
8
0
6
CONTINUOUS
62
7
370
-1
100
AcDbLine
10
-127.651106428
20
38.6
11
-127.651106428
21
40.1607695155
0
LINE
5
289
100
AcDbEntity
8
0
6
CONTINUOUS
62
7
370
-1
100
AcDbLine
10
-128.251106428
20
41.2
11
-127.651106428
21
40.1607695155
0
LINE
5
28A
100
AcDbEntity
8
0
6
CONTINUOUS
62
7
370
-1
100
AcDbLine
10
-128.251106428
20
41.2
11
-134.451106428
21
41.2
0
LINE
5
28B
100
AcDbEntity
8
0
6
CONTINUOUS
62
7
370
-1
100
AcDbLine
10
-135.051106428
20
40.1607695155
11
-134.451106428
21
41.2
0
LINE
5
28C
100
AcDbEntity
8
0
6
CONTINUOUS
62
7
370
-1
100
AcDbLine
10
-135.051106428
20
40.1607695155
11
-135.051106428
21
37.7
0
LINE
5
28D
100
AcDbEntity
8
0
6
CONTINUOUS
62
7
370
-1
100
AcDbLine
10
-138.251106428
20
37.7
11
-138.251106428
21
40.1607695155
0
LINE
5
28E
100
AcDbEntity
8
0
6
CONTINUOUS
62
7
370
-1
100
AcDbLine
10
-138.851106428
20
41.2
11
-138.251106428
21
40.1607695155
0
LINE
5
28F
100
AcDbEntity
8
0
6
CONTINUOUS
62
7
370
-1
100
AcDbLine
10
-138.851106428
20
41.2
11
-144.451106428
21
41.2
0
LINE
5
290
100
AcDbEntity
8
0
6
CONTINUOUS
62
7
370
-1
100
AcDbLine
10
-145.051106428
20
40.1607695155
11
-144.451106428
21
41.2
0
LINE
5
291
100
AcDbEntity
8
0
6
CONTINUOUS
62
7
370
-1
100
AcDbLine
10
-145.051106428
20
40.1607695155
11
-145.051106428
21
37.7
0
LINE
5
292
100
AcDbEntity
8
0
6
CONTINUOUS
62
7
370
-1
100
AcDbLine
10
-148.251106428
20
37.7
11
-148.251106428
21
40.1607695155
0
LINE
5
293
100
AcDbEntity
8
0
6
CONTINUOUS
62
7
370
-1
100
AcDbLine
10
-148.851106428
20
41.2
11
-148.251106428
21
40.1607695155
0
LINE
5
294
100
AcDbEntity
8
0
6
CONTINUOUS
62
7
370
-1
100
AcDbLine
10
-148.851106428
20
41.2
11
-154.451106428
21
41.2
0
LINE
5
295
100
AcDbEntity
8
0
6
CONTINUOUS
62
7
370
-1
100
AcDbLine
10
-155.051106428
20
40.1607695155
11
-154.451106428
21
41.2
0
LINE
5
296
100
AcDbEntity
8
0
6
CONTINUOUS
62
7
370
-1
100
AcDbLine
10
-155.051106428
20
40.1607695155
11
-155.051106428
21
37.7
0
LINE
5
297
100
AcDbEntity
8
0
6
CONTINUOUS
62
7
370
-1
100
AcDbLine
10
-158.251106428
20
37.7
11
-158.251106428
21
40.1607695155
0
LINE
5
298
100
AcDbEntity
8
0
6
CONTINUOUS
62
7
370
-1
100
AcDbLine
10
-158.851106428
20
41.2
11
-158.251106428
21
40.1607695155
0
LINE
5
299
100
AcDbEntity
8
0
6
CONTINUOUS
62
7
370
-1
100
AcDbLine
10
-158.851106428
20
41.2
11
-175.451106428
21
41.2
0
LINE
5
29A
100
AcDbEntity
8
0
6
CONTINUOUS
62
7
370
-1
100
AcDbLine
10
-176.051106428
20
40.1607695155
11
-175.451106428
21
41.2
0
LINE
5
29B
100
AcDbEntity
8
0
6
CONTINUOUS
62
7
370
-1
100
AcDbLine
10
-176.051106428
20
40.1607695155
11
-176.051106428
21
34.75
0
LINE
5
29C
100
AcDbEntity
8
0
6
CONTINUOUS
62
7
370
-1
100
AcDbLine
10
-179.551106428
20
34.75
11
-179.551106428
21
40.1607695155
0
LINE
5
29D
100
AcDbEntity
8
0
6
CONTINUOUS
62
7
370
-1
100
AcDbLine
10
-180.151106428
20
41.2
11
-179.551106428
21
40.1607695155
0
LINE
5
29E
100
AcDbEntity
8
0
6
CONTINUOUS
62
7
370
-1
100
AcDbLine
10
-180.151106428
20
41.2
11
-185.451106428
21
41.2
0
LINE
5
29F
100
AcDbEntity
8
0
6
CONTINUOUS
62
7
370
-1
100
AcDbLine
10
-186.051106428
20
40.1607695155
11
-185.451106428
21
41.2
0
LINE
5
2A0
100
AcDbEntity
8
0
6
CONTINUOUS
62
7
370
-1
100
AcDbLine
10
-186.051106428
20
40.1607695155
11
-186.051106428
21
37.7
0
LINE
5
2A1
100
AcDbEntity
8
0
6
CONTINUOUS
62
7
370
-1
100
AcDbLine
10
-186.651106428
20
36.4510004003
11
-186.651106428
21
31.6
0
LINE
5
2A2
100
AcDbEntity
8
0
6
CONTINUOUS
62
7
370
-1
100
AcDbLine
10
-188.651106428
20
31.6
11
-188.651106428
21
36.4510004003
0
LINE
5
2A3
100
AcDbEntity
8
0
6
CONTINUOUS
62
7
370
-1
100
AcDbLine
10
-189.251106428
20
37.7
11
-189.251106428
21
40.1607695155
0
LINE
5
2A4
100
AcDbEntity
8
0
6
CONTINUOUS
62
7
370
-1
100
AcDbLine
10
-189.851106428
20
41.2
11
-189.251106428
21
40.1607695155
0
LINE
5
2A5
100
AcDbEntity
8
0
6
CONTINUOUS
62
7
370
-1
100
AcDbLine
10
-189.851106428
20
41.2
11
-194.051106428
21
41.2
0
LINE
5
2A6
100
AcDbEntity
8
0
6
CONTINUOUS
62
7
370
-1
100
AcDbLine
10
-194.651106428
20
40.1607695155
11
-194.051106428
21
41.2
0
LINE
5
2A7
100
AcDbEntity
8
0
6
CONTINUOUS
62
7
370
-1
100
AcDbLine
10
-194.651106428
20
40
11
-194.651106428
21
40.1607695155
0
LINE
5
2A8
100
AcDbEntity
8
0
6
CONTINUOUS
62
7
370
-1
100
AcDbLine
10
-53.051106428
20
21.6
11
-53.751106428
21
21.6
0
LINE
5
2A9
100
AcDbEntity
8
0
6
CONTINUOUS
62
7
370
-1
100
AcDbLine
10
-53.751106428
20
21.6
11
-53.751106428
21
29.6
0
LINE
5
2AA
100
AcDbEntity
8
0
6
CONTINUOUS
62
7
370
-1
100
AcDbLine
10
-53.751106428
20
29.6
11
-53.051106428
21
29.6
0
ARC
5
2AB
100
AcDbEntity
8
0
6
CONTINUOUS
62
7
370
-1
100
AcDbCircle
10
-202.051106428
20
-1.8995574288
40
3.4
100
AcDbArc
50
180
51
360
0
ARC
5
2AC
100
AcDbEntity
8
0
6
CONTINUOUS
62
7
370
-1
100
AcDbCircle
10
-194.651106428
20
-0.1995574288
40
4
100
AcDbArc
50
90
51
180
0
ARC
5
2AD
100
AcDbEntity
8
0
6
CONTINUOUS
62
7
370
-1
100
AcDbCircle
10
-94.451106428
20
-0.1995574288
40
4
100
AcDbArc
50
360
51
90
0
ARC
5
2AE
100
AcDbEntity
8
0
6
CONTINUOUS
62
7
370
-1
100
AcDbCircle
10
-87.051106428
20
-1.8995574288
40
3.4
100
AcDbArc
50
180
51
360
0
ARC
5
2AF
100
AcDbEntity
8
0
6
CONTINUOUS
62
7
370
-1
100
AcDbCircle
10
-79.651106428
20
-0.1995574288
40
4
100
AcDbArc
50
90
51
180
0
ARC
5
2B0
100
AcDbEntity
8
0
6
CONTINUOUS
62
7
370
-1
100
AcDbCircle
10
-57.251106428
20
6.8004425712
40
3
100
AcDbArc
50
270
51
360
0
ARC
5
2B1
100
AcDbEntity
8
0
6
CONTINUOUS
62
7
370
-1
100
AcDbCircle
10
-52.051106428
20
19.6
40
2
100
AcDbArc
50
270
51
360
0
ARC
5
2B2
100
AcDbEntity
8
0
6
CONTINUOUS
62
7
370
-1
100
AcDbCircle
10
-52.051106428
20
31.6
40
2
100
AcDbArc
50
360
51
90
0
ARC
5
2B3
100
AcDbEntity
8
0
6
CONTINUOUS
62
7
370
-1
100
AcDbCircle
10
-88.651106428
20
37.7
40
1.6
100
AcDbArc
50
180
51
360
0
ARC
5
2B4
100
AcDbEntity
8
0
6
CONTINUOUS
62
7
370
-1
100
AcDbCircle
10
-96.651106428
20
37.7
40
1.6
100
AcDbArc
50
180
51
360
0
ARC
5
2B5
100
AcDbEntity
8
0
6
CONTINUOUS
62
7
370
-1
100
AcDbCircle
10
-116.651106428
20
37.7
40
1.6
100
AcDbArc
50
180
51
360
0
ARC
5
2B6
100
AcDbEntity
8
0
6
CONTINUOUS
62
7
370
-1
100
AcDbCircle
10
-126.651106428
20
38.6
40
1
100
AcDbArc
50
180
51
360
0
ARC
5
2B7
100
AcDbEntity
8
0
6
CONTINUOUS
62
7
370
-1
100
AcDbCircle
10
-136.651106428
20
37.7
40
1.6
100
AcDbArc
50
180
51
360
0
ARC
5
2B8
100
AcDbEntity
8
0
6
CONTINUOUS
62
7
370
-1
100
AcDbCircle
10
-146.651106428
20
37.7
40
1.6
100
AcDbArc
50
180
51
360
0
ARC
5
2B9
100
AcDbEntity
8
0
6
CONTINUOUS
62
7
370
-1
100
AcDbCircle
10
-156.651106428
20
37.7
40
1.6
100
AcDbArc
50
180
51
360
0
ARC
5
2BA
100
AcDbEntity
8
0
6
CONTINUOUS
62
7
370
-1
100
AcDbCircle
10
-177.801106428
20
34.75
40
1.75
100
AcDbArc
50
180
51
360
0
ARC
5
2BB
100
AcDbEntity
8
0
6
CONTINUOUS
62
7
370
-1
100
AcDbCircle
10
-187.651106428
20
37.7
40
1.6
100
AcDbArc
50
308.682187453
51
360
0
ARC
5
2BC
100
AcDbEntity
8
0
6
CONTINUOUS
62
7
370
-1
100
AcDbCircle
10
-187.651106428
20
31.6
40
1
100
AcDbArc
50
180
51
360
0
ARC
5
2BD
100
AcDbEntity
8
0
6
CONTINUOUS
62
7
370
-1
100
AcDbCircle
10
-187.651106428
20
37.7
40
1.6
100
AcDbArc
50
180
51
231.317812546
0
LINE
5
2BE
100
AcDbEntity
8
0
6
CONTINUOUS
62
7
370
-1
100
AcDbLine
10
-206.950663857
20
12.2
11
-205.451106428
21
12.2
0
LINE
5
2BF
100
AcDbEntity
8
0
6
CONTINUOUS
62
7
370
-1
100
AcDbLine
10
-194.651106428
20
40
11
-215.750663857
21
40
0
LINE
5
2C0
100
AcDbEntity
8
0
6
CONTINUOUS
62
7
370
-1
100
AcDbLine
10
-318.050221286
20
12.2
11
-316.550663857
21
12.2
0
LINE
5
2C1
100
AcDbEntity
8
0
6
CONTINUOUS
62
7
370
-1
100
AcDbLine
10
-315.750663857
20
40
11
-336.36432998
21
40
0
LINE
5
2C2
100
AcDbEntity
8
0
6
DASHED2
62
4
370
-1
100
AcDbLine
10
-470
20
40
11
-470
21
12.2
0
LINE
5
2C3
100
AcDbEntity
8
0
6
DASHED2
62
4
370
-1
100
AcDbLine
10
-469.250221286
20
11.6502212856
11
-318.050221286
21
11.6502212856
0
LINE
5
2C4
100
AcDbEntity
8
0
6
DASHED2
62
4
370
-1
100
AcDbLine
10
-336.96432998
20
39.5497787144
11
-439.850221286
21
39.5497787144
0
LINE
5
2C5
100
AcDbEntity
8
0
6
DASHED2
62
4
370
-1
100
AcDbLine
10
-317.300442571
20
40
11
-317.300442571
21
12.2
0
LINE
5
2C6
100
AcDbEntity
8
0
6
DASHED2
62
4
370
-1
100
AcDbLine
10
-216.350663857
20
39.5497787144
11
-315.150663857
21
39.5497787144
0
LINE
5
2C7
100
AcDbEntity
8
0
6
DASHED2
62
4
370
-1
100
AcDbLine
10
-206.200885142
20
40
11
-206.200885142
21
12.2
0
LINE
5
2C8
100
AcDbEntity
8
0
6
DASHED2
62
4
370
-1
100
AcDbLine
10
-205.451106428
20
11.6502212856
11
-54.251106428
21
11.6502212856
0
LWPOLYLINE
5
2C9
100
AcDbEntity
8
0
6
DASHED2
62
4
370
-1
100
AcDbPolyline
90
3
70
0
43
0
10
-381.563642373
20
-50.8750715003
10
-381.887631079
20
-50.9000440202
10
-382.097042373
20
-50.9618900003
0
LWPOLYLINE
5
2CA
100
AcDbEntity
8
0
6
DASHED2
62
4
370
-1
100
AcDbPolyline
90
3
70
0
43
0
10
-381.054407873
20
-56.7827235003
10
-380.854793953
20
-57.7200409772
10
-380.395066373
20
-58.3226160003
0
LWPOLYLINE
5
2CB
100
AcDbEntity
8
0
6
DASHED2
62
4
370
-1
100
AcDbPolyline
90
7
70
0
43
0
10
-379.783878873
20
-56.7708699996
10
-379.725577364
20
-56.2032280442
10
-379.559749021
20
-55.7602189757
10
-379.300008124
20
-55.4279247706
10
-378.959968952
20
-55.1924274054
10
-378.296132107
20
-54.9844529471
10
-377.520456373
20
-54.9271299996
0
LWPOLYLINE
5
2CC
100
AcDbEntity
8
0
6
DASHED2
62
4
370
-1
100
AcDbPolyline
90
6
70
0
43
0
10
-388.143124373
20
-55.1449174991
10
-388.128475857
20
-55.0395470069
10
-388.082821498
20
-54.9320731866
10
-388.003598076
20
-54.8485111476
10
-387.950596961
20
-54.8238267677
10
-387.888242373
20
-54.8148759991
0
LWPOLYLINE
5
2CD
100
AcDbEntity
8
0
6
DASHED2
62
4
370
-1
100
AcDbPolyline
90
3
70
0
43
0
10
-360.173685373
20
-57.0942264991
10
-360.16276847
20
-57.0836855604
10
-360.155146873
20
-57.0754939991
0
LWPOLYLINE
5
2CE
100
AcDbEntity
8
0
6
DASHED2
62
4
370
-1
100
AcDbPolyline
90
3
70
0
43
0
10
-363.026228873
20
-59.5208079991
10
-362.919638431
20
-59.5930177524
10
-362.822340873
20
-59.6132184991
0
LWPOLYLINE
5
2CF
100
AcDbEntity
8
0
6
DASHED2
62
4
370
-1
100
AcDbPolyline
90
3
70
0
43
0
10
-362.822340873
20
-59.6132184991
10
-362.690717249
20
-59.5821526622
10
-362.600408373
20
-59.5208079991
0
LWPOLYLINE
5
2D0
100
AcDbEntity
8
0
6
DASHED2
62
4
370
-1
100
AcDbPolyline
90
3
70
0
43
0
10
-368.009214873
20
-62.3375269991
10
-367.856217914
20
-62.3688901656
10
-367.731596373
20
-62.3747979991
0
LWPOLYLINE
5
2D1
100
AcDbEntity
8
0
6
DASHED2
62
4
370
-1
100
AcDbPolyline
90
3
70
0
43
0
10
-367.731596373
20
-62.3747979991
10
-367.721223122
20
-62.3750827981
10
-367.713057873
20
-62.3747979991
0
LWPOLYLINE
5
2D2
100
AcDbEntity
8
0
6
DASHED2
62
4
370
-1
100
AcDbPolyline
90
3
70
0
43
0
10
-355.395471873
20
-50.0564504991
10
-355.395247615
20
-50.0465126522
10
-355.395471873
20
-50.0386704991
0
LWPOLYLINE
5
2D3
100
AcDbEntity
8
0
6
DASHED2
62
4
370
-1
100
AcDbPolyline
90
3
70
0
43
0
10
-355.395471873
20
-50.0386704991
10
-355.406260934
20
-49.8801043836
10
-355.431989873
20
-49.7600999991
0
LWPOLYLINE
5
2D4
100
AcDbEntity
8
0
6
DASHED2
62
4
370
-1
100
AcDbPolyline
90
3
70
0
43
0
10
-355.431989873
20
-49.7600999991
10
-355.479633691
20
-49.6746457696
10
-355.543473373
20
-49.6307009991
0
LWPOLYLINE
5
2D5
100
AcDbEntity
8
0
6
DASHED2
62
4
370
-1
100
AcDbPolyline
90
3
70
0
43
0
10
-357.210351873
20
-51.1313824991
10
-357.221742101
20
-51.1517153442
10
-357.228890373
20
-51.1686004991
0
LWPOLYLINE
5
2D6
100
AcDbEntity
8
0
6
DASHED2
62
4
370
-1
100
AcDbPolyline
90
3
70
0
43
0
10
-357.228890373
20
-51.1686004991
10
-357.256128752
20
-51.2175334555
10
-357.266090873
20
-51.2608514991
0
LWPOLYLINE
5
2D7
100
AcDbEntity
8
0
6
DASHED2
62
4
370
-1
100
AcDbPolyline
90
3
70
0
43
0
10
-366.508656873
20
-60.5041764991
10
-366.563320484
20
-60.5184607426
10
-366.601613873
20
-60.5407064991
0
LWPOLYLINE
5
2D8
100
AcDbEntity
8
0
6
DASHED2
62
4
370
-1
100
AcDbPolyline
90
3
70
0
43
0
10
-366.601613873
20
-60.5407064991
10
-366.622937728
20
-60.5502217248
10
-366.638884873
20
-60.5591744991
0
LWPOLYLINE
5
2D9
100
AcDbEntity
8
0
6
DASHED2
62
4
370
-1
100
AcDbPolyline
90
3
70
0
43
0
10
-357.617421873
20
-47.5725354991
10
-357.770450079
20
-47.5412355683
10
-357.895093373
20
-47.5353279991
0
LWPOLYLINE
5
2DA
100
AcDbEntity
8
0
6
DASHED2
62
4
370
-1
100
AcDbPolyline
90
3
70
0
43
0
10
-357.895093373
20
-47.5353279991
10
-357.90559582
20
-47.5355746997
10
-357.913772873
20
-47.5353279991
0
LWPOLYLINE
5
2DB
100
AcDbEntity
8
0
6
DASHED2
62
4
370
-1
100
AcDbPolyline
90
3
70
0
43
0
10
-370.231361873
20
-59.8536189991
10
-370.231585644
20
-59.864055341
10
-370.231361873
20
-59.8723514991
0
LWPOLYLINE
5
2DC
100
AcDbEntity
8
0
6
DASHED2
62
4
370
-1
100
AcDbPolyline
90
3
70
0
43
0
10
-370.231361873
20
-59.8723514991
10
-370.220390462
20
-60.0304357386
10
-370.194161373
20
-60.1499519991
0
LWPOLYLINE
5
2DD
100
AcDbEntity
8
0
6
DASHED2
62
4
370
-1
100
AcDbPolyline
90
3
70
0
43
0
10
-368.415791373
20
-58.7787399991
10
-368.404374872
20
-58.7588423725
10
-368.397270373
20
-58.7422274991
0
LWPOLYLINE
5
2DE
100
AcDbEntity
8
0
6
DASHED2
62
4
370
-1
100
AcDbPolyline
90
3
70
0
43
0
10
-368.397270373
20
-58.7422274991
10
-368.370589361
20
-58.6926490523
10
-368.360740373
20
-58.6492704991
0
LWPOLYLINE
5
2DF
100
AcDbEntity
8
0
6
DASHED2
62
4
370
-1
100
AcDbPolyline
90
3
70
0
43
0
10
-359.118173873
20
-49.4066339991
10
-359.063510469
20
-49.3917402669
10
-359.025216873
20
-49.3696274991
0
LWPOLYLINE
5
2E0
100
AcDbEntity
8
0
6
DASHED2
62
4
370
-1
100
AcDbPolyline
90
3
70
0
43
0
10
-359.025216873
20
-49.3696274991
10
-359.003805555
20
-49.3601111507
10
-358.987946373
20
-49.3508949991
0
LWPOLYLINE
5
2E1
100
AcDbEntity
8
0
6
DASHED2
62
4
370
-1
100
AcDbPolyline
90
3
70
0
43
0
10
-376.058368873
20
-58.7919694965
10
-375.166913745
20
-58.8020973277
10
-374.420597873
20
-58.8173339965
0
LWPOLYLINE
5
2E2
100
AcDbEntity
8
0
6
DASHED2
62
4
370
-1
100
AcDbPolyline
90
7
70
0
43
0
10
-374.420597873
20
-58.3481749965
10
-375.060425806
20
-58.2754109322
10
-375.21747764
20
-58.2061061211
10
-375.330837849
20
-58.0982713028
10
-375.417524857
20
-57.905418425
10
-375.461772535
20
-57.6260776856
10
-375.474168873
20
-57.2429219965
0
LWPOLYLINE
5
2E3
100
AcDbEntity
8
0
6
DASHED2
62
4
370
-1
100
AcDbPolyline
90
8
70
0
43
0
10
-375.474168873
20
-52.5515244996
10
-375.459861059
20
-52.1445518829
10
-375.408312476
20
-51.855435343
10
-375.333256577
20
-51.6971149654
10
-375.220947598
20
-51.5881361676
10
-375.029971907
20
-51.5084468524
10
-374.766717996
20
-51.4667004596
10
-374.420597873
20
-51.4455134996
0
LWPOLYLINE
5
2E4
100
AcDbEntity
8
0
6
DASHED2
62
4
370
-1
100
AcDbPolyline
90
3
70
0
43
0
10
-374.420597873
20
-50.9763539996
10
-375.376426414
20
-50.9957657245
10
-376.073538373
20
-51.0024774996
0
LWPOLYLINE
5
2E5
100
AcDbEntity
8
0
6
DASHED2
62
4
370
-1
100
AcDbPolyline
90
3
70
0
43
0
10
-376.073538373
20
-51.0024774996
10
-376.984958435
20
-50.9921797411
10
-377.763696873
20
-50.9763539996
0
LWPOLYLINE
5
2E6
100
AcDbEntity
8
0
6
DASHED2
62
4
370
-1
100
AcDbPolyline
90
7
70
0
43
0
10
-377.763696873
20
-51.4455134996
10
-377.11043449
20
-51.5168064983
10
-376.944461881
20
-51.5858702819
10
-376.821757113
20
-51.6937047644
10
-376.724885935
20
-51.8869174236
10
-376.673195711
20
-52.1670628388
10
-376.657914873
20
-52.5515244996
0
LWPOLYLINE
5
2E7
100
AcDbEntity
8
0
6
DASHED2
62
4
370
-1
100
AcDbPolyline
90
6
70
0
43
0
10
-376.657914873
20
-57.6101639989
10
-376.695794256
20
-57.7979646727
10
-376.81138524
20
-57.9771944743
10
-377.007617077
20
-58.1347206909
10
-377.346401545
20
-58.2746501556
10
-377.806062846
20
-58.3446917429
0
LWPOLYLINE
5
2E8
100
AcDbEntity
8
0
6
DASHED2
62
4
370
-1
100
AcDbPolyline
90
3
70
0
43
0
10
-383.123625873
20
-53.8736824985
10
-383.372680784
20
-52.6023835201
10
-383.911907873
20
-51.7755544985
0
LWPOLYLINE
5
2E9
100
AcDbEntity
8
0
6
DASHED2
62
4
370
-1
100
AcDbPolyline
90
3
70
0
43
0
10
-389.136017373
20
-52.3860189985
10
-388.031480468
20
-51.6914143306
10
-386.924277373
20
-51.5095954985
0
LWPOLYLINE
5
2EA
100
AcDbEntity
8
0
6
DASHED2
62
4
370
-1
100
AcDbPolyline
90
3
70
0
43
0
10
-384.814489873
20
-52.5252074985
10
-384.432650646
20
-53.3465357661
10
-384.342472873
20
-54.2416124985
0
LWPOLYLINE
5
2EB
100
AcDbEntity
8
0
6
DASHED2
62
4
370
-1
100
AcDbPolyline
90
3
70
0
43
0
10
-417.241462233
20
-55.5019468293
10
-417.281359228
20
-55.5589761692
10
-417.31343687
20
-55.6018175011
0
LWPOLYLINE
5
2EC
100
AcDbEntity
8
0
6
DASHED2
62
4
370
-1
100
AcDbPolyline
90
6
70
0
43
0
10
-418.786460372
20
-56.5800174979
10
-419.47222851
20
-56.476601967
10
-419.987071482
20
-56.1775905188
10
-420.34647768
20
-55.6998358696
10
-420.59158126
20
-54.9302205499
10
-420.667647872
20
-53.9633234975
0
LWPOLYLINE
5
2ED
100
AcDbEntity
8
0
6
DASHED2
62
4
370
-1
100
AcDbPolyline
90
3
70
0
43
0
10
-417.241462233
20
-51.3764841562
10
-417.978088475
20
-50.9804352733
10
-418.711495373
20
-50.8750714991
0
LWPOLYLINE
5
2EE
100
AcDbEntity
8
0
6
DASHED2
62
4
370
-1
100
AcDbPolyline
90
3
70
0
43
0
10
-418.711495373
20
-50.8750714991
10
-419.967623916
20
-51.1129322195
10
-420.819166373
20
-51.6626834991
0
LWPOLYLINE
5
2EF
100
AcDbEntity
8
0
6
DASHED2
62
4
370
-1
100
AcDbPolyline
90
3
70
0
43
0
10
-392.83798846
20
-51.3355337119
10
-393.552006078
20
-50.971438271
10
-394.253411873
20
-50.8750714992
0
LWPOLYLINE
5
2F0
100
AcDbEntity
8
0
6
DASHED2
62
4
370
-1
100
AcDbPolyline
90
3
70
0
43
0
10
-394.253411873
20
-50.8750714992
10
-395.512253063
20
-51.1129322196
10
-396.363728874
20
-51.6626834992
0
LWPOLYLINE
5
2F1
100
AcDbEntity
8
0
6
DASHED2
62
4
370
-1
100
AcDbPolyline
90
6
70
0
43
0
10
-394.270799593
20
-56.5349910952
10
-394.957751707
20
-56.4477301002
10
-395.479259081
20
-56.1609213698
10
-395.85009228
20
-55.6917702611
10
-396.113801221
20
-54.9281538699
10
-396.212916367
20
-53.9633235066
0
LWPOLYLINE
5
2F2
100
AcDbEntity
8
0
6
DASHED2
62
4
370
-1
100
AcDbPolyline
90
3
70
0
43
0
10
-392.296553873
20
-57.2808104991
10
-391.427038174
20
-57.0358614609
10
-390.351336873
20
-56.8605109991
0
LWPOLYLINE
5
2F3
100
AcDbEntity
8
0
6
DASHED2
62
4
370
-1
100
AcDbPolyline
90
7
70
0
43
0
10
-390.392082873
20
-56.4671459991
10
-390.769447672
20
-56.4199497089
10
-391.054105513
20
-56.3455086841
10
-391.253876324
20
-56.2135063738
10
-391.356382321
20
-56.0496604223
10
-391.415104297
20
-55.8168580624
10
-391.433835373
20
-55.5003939991
0
LWPOLYLINE
5
2F4
100
AcDbEntity
8
0
6
DASHED2
62
4
370
-1
100
AcDbPolyline
90
7
70
0
43
0
10
-391.433835373
20
-49.6541254991
10
-391.413111667
20
-49.2277876907
10
-391.347303898
20
-48.9250756576
10
-391.260416452
20
-48.7593970252
10
-391.139682901
20
-48.6453971528
10
-390.83159886
20
-48.5363338166
10
-390.392082873
20
-48.4957514991
0
LWPOLYLINE
5
2F5
100
AcDbEntity
8
0
6
DASHED2
62
4
370
-1
100
AcDbPolyline
90
3
70
0
43
0
10
-390.392082873
20
-48.0265989991
10
-391.245401155
20
-48.0463550384
10
-391.992635373
20
-48.0536079991
0
LWPOLYLINE
5
2F6
100
AcDbEntity
8
0
6
DASHED2
62
4
370
-1
100
AcDbPolyline
90
3
70
0
43
0
10
-391.992635373
20
-48.0536079991
10
-393.08486522
20
-48.0425619534
10
-393.837134373
20
-48.0265989991
0
LWPOLYLINE
5
2F7
100
AcDbEntity
8
0
6
DASHED2
62
4
370
-1
100
AcDbPolyline
90
7
70
0
43
0
10
-393.837134373
20
-48.4957514991
10
-393.021198496
20
-48.5759420185
10
-392.829688541
20
-48.6478676096
10
-392.695987556
20
-48.759616849
10
-392.610208261
20
-48.9224238584
10
-392.562463376
20
-49.1475227598
10
-392.540499373
20
-49.6541254991
0
LWPOLYLINE
5
2F8
100
AcDbEntity
8
0
6
DASHED2
62
4
370
-1
100
AcDbPolyline
90
7
70
0
43
0
10
-403.995370373
20
-56.770869999
10
-403.937070826
20
-56.2032280436
10
-403.771256103
20
-55.7602189751
10
-403.511552083
20
-55.42792477
10
-403.171584643
20
-55.1924274048
10
-402.507958841
20
-54.9844529465
10
-401.732653873
20
-54.927129999
0
LWPOLYLINE
5
2F9
100
AcDbEntity
8
0
6
DASHED2
62
4
370
-1
100
AcDbPolyline
90
3
70
0
43
0
10
-405.775839873
20
-50.875071499
10
-406.09960046
20
-50.9000440189
10
-406.308357873
20
-50.961889999
0
LWPOLYLINE
5
2FA
100
AcDbEntity
8
0
6
DASHED2
62
4
370
-1
100
AcDbPolyline
90
3
70
0
43
0
10
-405.265899373
20
-56.782723499
10
-405.066577496
20
-57.7200409759
10
-404.606557873
20
-58.322615999
0
LWPOLYLINE
5
2FB
100
AcDbEntity
8
0
6
DASHED2
62
4
370
-1
100
AcDbPolyline
90
3
70
0
43
0
10
-400.270566373
20
-58.7919694986
10
-399.37839278
20
-58.8020973298
10
-398.632089873
20
-58.8173339986
0
LWPOLYLINE
5
2FC
100
AcDbEntity
8
0
6
DASHED2
62
4
370
-1
100
AcDbPolyline
90
7
70
0
43
0
10
-398.632089873
20
-58.3481749986
10
-399.272041029
20
-58.2754109343
10
-399.42918405
20
-58.2061061232
10
-399.542641568
20
-58.0982713049
10
-399.629435917
20
-57.9054184271
10
-399.673762707
20
-57.6260776877
10
-399.686189873
20
-57.2429219986
0
LWPOLYLINE
5
2FD
100
AcDbEntity
8
0
6
DASHED2
62
4
370
-1
100
AcDbPolyline
90
8
70
0
43
0
10
-399.686189873
20
-52.551524499
10
-399.671847089
20
-52.1445518823
10
-399.620209932
20
-51.8554353424
10
-399.545062798
20
-51.6971149647
10
-399.43265651
20
-51.588136167
10
-399.241573536
20
-51.5084468518
10
-398.978240636
20
-51.466700459
10
-398.632089873
20
-51.445513499
0
LWPOLYLINE
5
2FE
100
AcDbEntity
8
0
6
DASHED2
62
4
370
-1
100
AcDbPolyline
90
3
70
0
43
0
10
-398.632089873
20
-50.976353999
10
-399.588271686
20
-50.9957657238
10
-400.285735373
20
-51.002477499
0
LWPOLYLINE
5
2FF
100
AcDbEntity
8
0
6
DASHED2
62
4
370
-1
100
AcDbPolyline
90
3
70
0
43
0
10
-400.285735373
20
-51.002477499
10
-401.197082373
20
-50.9921797405
10
-401.975893873
20
-50.976353999
0
LWPOLYLINE
5
300
100
AcDbEntity
8
0
6
DASHED2
62
4
370
-1
100
AcDbPolyline
90
7
70
0
43
0
10
-401.975893873
20
-51.445513499
10
-401.322590303
20
-51.5168064977
10
-401.156587274
20
-51.5858702813
10
-401.033850054
20
-51.6937047638
10
-400.936943086
20
-51.886917423
10
-400.885226487
20
-52.1670628382
10
-400.869935373
20
-52.551524499
0
LWPOLYLINE
5
301
100
AcDbEntity
8
0
6
DASHED2
62
4
370
-1
100
AcDbPolyline
90
6
70
0
43
0
10
-400.869935373
20
-57.610163999
10
-400.906421746
20
-57.7946349658
10
-401.017762957
20
-57.9710665496
10
-401.206782146
20
-58.1270195841
10
-401.533117911
20
-58.2676110172
10
-401.975893873
20
-58.3421149268
0
LWPOLYLINE
5
302
100
AcDbEntity
8
0
6
DASHED2
62
4
370
-1
100
AcDbPolyline
90
7
70
0
43
0
10
-412.823104873
20
-50.8750714991
10
-413.465568529
20
-50.962522085
10
-413.935854498
20
-51.1664373116
10
-414.224768529
20
-51.3991623819
10
-414.303910096
20
-51.5094004627
10
-414.318298487
20
-51.5443001007
10
-414.323116373
20
-51.5730424991
0
LWPOLYLINE
5
303
100
AcDbEntity
8
0
6
DASHED2
62
4
370
-1
100
AcDbPolyline
90
7
70
0
43
0
10
-413.610681373
20
-51.5839959991
10
-413.394012815
20
-51.6099011212
10
-413.217116506
20
-51.6836176944
10
-413.077265989
20
-51.7991475294
10
-412.971734811
20
-51.9504924366
10
-412.852724646
20
-52.33663471
10
-412.838274373
20
-52.7940589991
0
LWPOLYLINE
5
304
100
AcDbEntity
8
0
6
DASHED2
62
4
370
-1
100
AcDbPolyline
90
6
70
0
43
0
10
-410.586493873
20
-57.2284404991
10
-409.598765678
20
-57.0912427413
10
-408.726958185
20
-56.7323621866
10
-408.105380412
20
-56.2308679132
10
-407.930399237
20
-55.9513497188
10
-407.868341373
20
-55.6658289991
0
LWPOLYLINE
5
305
100
AcDbEntity
8
0
6
DASHED2
62
4
370
-1
100
AcDbPolyline
90
6
70
0
43
0
10
-408.438782873
20
-55.1703524991
10
-408.744068981
20
-55.2179852721
10
-408.979524792
20
-55.3361982158
10
-409.065278738
20
-55.4138553491
10
-409.11977962
20
-55.49539668
10
-409.138870373
20
-55.5755004991
0
LWPOLYLINE
5
306
100
AcDbEntity
8
0
6
DASHED2
62
4
370
-1
100
AcDbPolyline
90
3
70
0
43
0
10
-409.138870373
20
-55.5755004991
10
-409.119279806
20
-55.7458622995
10
-409.087188373
20
-55.8448284991
0
LWPOLYLINE
5
307
100
AcDbEntity
8
0
6
DASHED2
62
4
370
-1
100
AcDbPolyline
90
3
70
0
43
0
10
-409.087188373
20
-55.8448284991
10
-409.068011031
20
-55.9573883719
10
-409.061082873
20
-56.1226409991
0
LWPOLYLINE
5
308
100
AcDbEntity
8
0
6
DASHED2
62
4
370
-1
100
AcDbPolyline
90
6
70
0
43
0
10
-409.061082873
20
-56.1226409991
10
-409.095607886
20
-56.2762575411
10
-409.191960631
20
-56.403928835
10
-409.339307669
20
-56.5073386954
10
-409.526815561
20
-56.5881709366
10
-410.461786873
20
-56.7193999991
0
LWPOLYLINE
5
309
100
AcDbEntity
8
0
6
DASHED2
62
4
370
-1
100
AcDbPolyline
90
7
70
0
43
0
10
-410.461786873
20
-56.7193999991
10
-410.842668171
20
-56.6769605743
10
-411.198197643
20
-56.5276805174
10
-411.500737212
20
-56.2386171547
10
-411.683268805
20
-55.8919741143
10
-411.802618885
20
-55.4227201016
10
-411.845381373
20
-54.8148759991
0
LWPOLYLINE
5
30A
100
AcDbEntity
8
0
6
DASHED2
62
4
370
-1
100
AcDbPolyline
90
3
70
0
43
0
10
-411.845381373
20
-54.8148759991
10
-411.845197577
20
-54.806942349
10
-411.844801752
20
-54.8008188594
0
LWPOLYLINE
5
30B
100
AcDbEntity
8
0
6
DASHED2
62
4
370
-1
100
AcDbPolyline
90
5
70
0
43
0
10
-410.065617373
20
-54.3566884991
10
-408.758610453
20
-53.9957612319
10
-407.885713386
20
-53.4657566908
10
-407.498943599
20
-52.9492977928
10
-407.370924373
20
-52.3599129991
0
LWPOLYLINE
5
30C
100
AcDbEntity
8
0
6
DASHED2
62
4
370
-1
100
AcDbPolyline
90
6
70
0
43
0
10
-407.370924373
20
-52.3599129991
10
-407.458797431
20
-51.824071004
10
-407.707203601
20
-51.4187193167
10
-408.093323379
20
-51.1333527441
10
-408.694150495
20
-50.9367755178
10
-409.417211873
20
-50.8750714991
0
LWPOLYLINE
5
30D
100
AcDbEntity
8
0
6
DASHED2
62
4
370
-1
100
AcDbPolyline
90
3
70
0
43
0
10
-411.508201748
20
-52.1036850271
10
-411.491059512
20
-52.0914991974
10
-411.477434373
20
-52.0821004991
0
LWPOLYLINE
5
30E
100
AcDbEntity
8
0
6
DASHED2
62
4
370
-1
100
AcDbPolyline
90
3
70
0
43
0
10
-411.477434373
20
-52.0821004991
10
-410.542038963
20
-51.6153982575
10
-409.798917373
20
-51.4455129991
0
LWPOLYLINE
5
30F
100
AcDbEntity
8
0
6
DASHED2
62
4
370
-1
100
AcDbPolyline
90
3
70
0
43
0
10
-416.751814873
20
-57.2808104991
10
-415.883263706
20
-57.0358614609
10
-414.806774373
20
-56.8605109991
0
LWPOLYLINE
5
310
100
AcDbEntity
8
0
6
DASHED2
62
4
370
-1
100
AcDbPolyline
90
7
70
0
43
0
10
-414.847343873
20
-56.4671459991
10
-415.22479021
20
-56.4199497089
10
-415.509499577
20
-56.3455086841
10
-415.709298789
20
-56.2135063738
10
-415.811815366
20
-56.0496604223
10
-415.87054124
20
-55.8168580624
10
-415.889272873
20
-55.5003939991
0
LWPOLYLINE
5
311
100
AcDbEntity
8
0
6
DASHED2
62
4
370
-1
100
AcDbPolyline
90
7
70
0
43
0
10
-415.889272873
20
-49.6541254991
10
-415.86853751
20
-49.2277876907
10
-415.802700211
20
-48.9250756576
10
-415.715782345
20
-48.7593970252
10
-415.595016342
20
-48.6453971528
10
-415.28688173
20
-48.5363338166
10
-414.847343873
20
-48.4957514991
0
LWPOLYLINE
5
312
100
AcDbEntity
8
0
6
DASHED2
62
4
370
-1
100
AcDbPolyline
90
3
70
0
43
0
10
-414.847343873
20
-48.0265989991
10
-415.700750764
20
-48.0463550384
10
-416.448072873
20
-48.0536079991
0
LWPOLYLINE
5
313
100
AcDbEntity
8
0
6
DASHED2
62
4
370
-1
100
AcDbPolyline
90
3
70
0
43
0
10
-416.448072873
20
-48.0536079991
10
-417.54010576
20
-48.0425619534
10
-418.291866373
20
-48.0265989991
0
LWPOLYLINE
5
314
100
AcDbEntity
8
0
6
DASHED2
62
4
370
-1
100
AcDbPolyline
90
7
70
0
43
0
10
-418.291866373
20
-48.4957514991
10
-417.47612379
20
-48.5759420185
10
-417.284568814
20
-48.6478676096
10
-417.150787553
20
-48.759616849
10
-417.064914496
20
-48.9224238584
10
-417.017084127
20
-49.1475227598
10
-416.995054873
20
-49.6541254991
0
LWPOLYLINE
5
315
100
AcDbEntity
8
0
6
DASHED2
62
4
370
-1
100
AcDbPolyline
90
8
70
0
43
0
10
-429.760495373
20
-56.8344054998
10
-429.730229307
20
-57.1591316901
10
-429.622879015
20
-57.5231248075
10
-429.413616358
20
-57.8959030584
10
-429.077613196
20
-58.2469846492
10
-428.562620365
20
-58.5583008193
10
-427.852733489
20
-58.7773038545
10
-426.919405973
20
-58.8689467688
0
LWPOLYLINE
5
316
100
AcDbEntity
8
0
6
DASHED2
62
4
370
-1
100
AcDbPolyline
90
7
70
0
43
0
10
-428.478324373
20
-56.6172179994
10
-428.424095243
20
-55.9630371246
10
-428.251371374
20
-55.4595525846
10
-427.945098044
20
-55.0984247464
10
-427.600958713
20
-54.9091164146
10
-427.157776628
20
-54.7984979017
10
-426.608249373
20
-54.7625239991
0
LWPOLYLINE
5
317
100
AcDbEntity
8
0
6
DASHED2
62
4
370
-1
100
AcDbPolyline
90
3
70
0
43
0
10
-426.608249373
20
-54.7625239991
10
-426.023654182
20
-54.7794726739
10
-425.550321531
20
-54.8103100911
0
LWPOLYLINE
5
318
100
AcDbEntity
8
0
6
DASHED2
62
4
370
-1
100
AcDbPolyline
90
3
70
0
43
0
10
-425.550321531
20
-54.3884228761
10
-426.150888404
20
-54.3036033523
10
-426.672278873
20
-54.2789009998
0
LWPOLYLINE
5
319
100
AcDbEntity
8
0
6
DASHED2
62
4
370
-1
100
AcDbPolyline
90
3
70
0
43
0
10
-424.778920373
20
-58.7919694988
10
-423.817869009
20
-58.8020973299
10
-423.039902373
20
-58.8173339988
0
LWPOLYLINE
5
31A
100
AcDbEntity
8
0
6
DASHED2
62
4
370
-1
100
AcDbPolyline
90
7
70
0
43
0
10
-423.039902373
20
-58.3481749988
10
-423.691913674
20
-58.2754109344
10
-423.85796419
20
-58.2061061234
10
-423.980924121
20
-58.098271305
10
-424.078198447
20
-57.9054184272
10
-424.130248105
20
-57.6260776879
10
-424.145684373
20
-57.2429219988
0
LWPOLYLINE
5
31B
100
AcDbEntity
8
0
6
DASHED2
62
4
370
-1
100
AcDbPolyline
90
8
70
0
43
0
10
-424.145684373
20
-52.5515244991
10
-424.132439846
20
-52.2478747225
10
-424.091583171
20
-52.007451991
10
-424.021429707
20
-51.8225153058
10
-423.920294814
20
-51.6853236681
10
-423.786493851
20
-51.5881360793
10
-423.422087045
20
-51.483917021
10
-422.912372873
20
-51.4455129991
0
LWPOLYLINE
5
31C
100
AcDbEntity
8
0
6
DASHED2
62
4
370
-1
100
AcDbPolyline
90
3
70
0
43
0
10
-422.912372873
20
-50.9763539991
10
-423.976007385
20
-50.995765724
10
-424.794089873
20
-51.0024774991
0
LWPOLYLINE
5
31D
100
AcDbEntity
8
0
6
DASHED2
62
4
370
-1
100
AcDbPolyline
90
7
70
0
43
0
10
-426.877771873
20
-51.4455129991
10
-426.216850975
20
-51.4987340303
10
-425.730207811
20
-51.6408418741
10
-425.555914573
20
-51.7733382335
10
-425.429599803
20
-51.9617881553
10
-425.352733177
20
-52.2174355928
10
-425.326784373
20
-52.5515244991
0
LWPOLYLINE
5
31E
100
AcDbEntity
8
0
6
DASHED2
62
4
370
-1
100
AcDbPolyline
90
6
70
0
43
0
10
-425.326784373
20
-57.6101639991
10
-425.364191706
20
-57.8366535684
10
-425.483064489
20
-58.0296875359
10
-425.693378896
20
-58.1836265497
10
-426.072212065
20
-58.3071937851
10
-426.608249373
20
-58.3593916765
0
LWPOLYLINE
5
31F
100
AcDbEntity
8
0
6
DASHED2
62
4
370
-1
100
AcDbPolyline
90
4
70
0
43
0
10
-432.577954873
20
-56.3659339991
10
-432.688431548
20
-56.2598430221
10
-432.750922945
20
-56.0995925976
10
-432.780449373
20
-55.6774704991
0
LWPOLYLINE
5
320
100
AcDbEntity
8
0
6
DASHED2
62
4
370
-1
100
AcDbPolyline
90
5
70
0
43
0
10
-434.166866373
20
-51.6247244991
10
-434.05664487
20
-51.7085654558
10
-433.978248778
20
-51.8249979225
10
-433.926921439
20
-51.985427534
10
-433.885702373
20
-52.6032064991
0
LWPOLYLINE
5
321
100
AcDbEntity
8
0
6
DASHED2
62
4
370
-1
100
AcDbPolyline
90
3
70
0
43
0
10
-433.885702373
20
-54.3566884991
10
-433.987854656
20
-54.8541500529
10
-434.192971873
20
-55.1703524991
0
LWPOLYLINE
5
322
100
AcDbEntity
8
0
6
DASHED2
62
4
370
-1
100
AcDbPolyline
90
11
70
0
43
0
10
-434.013231373
20
-55.7553994991
10
-433.971530091
20
-55.7161807886
10
-433.957979843
20
-55.7087485126
10
-433.945903303
20
-55.7059151475
10
-433.93671258
20
-55.7071799683
10
-433.928482152
20
-55.7118742271
10
-433.921161332
20
-55.7200388438
10
-433.914699434
20
-55.7317147385
10
-433.898615537
20
-55.7972006707
10
-433.889733559
20
-55.9043417127
10
-433.885702373
20
-56.1605999991
0
LWPOLYLINE
5
323
100
AcDbEntity
8
0
6
DASHED2
62
4
370
-1
100
AcDbPolyline
90
3
70
0
43
0
10
-441.887231373
20
-50.8750715004
10
-442.01640818
20
-50.8768340793
10
-442.116007873
20
-50.8806595904
0
LWPOLYLINE
5
324
100
AcDbEntity
8
0
6
DASHED2
62
4
370
-1
100
AcDbPolyline
90
6
70
0
43
0
10
-439.817484373
20
-54.2416125003
10
-439.912189011
20
-55.2345205225
10
-440.258639443
20
-56.0647639944
10
-440.571977205
20
-56.3878235644
10
-440.99348218
20
-56.6078336125
10
-441.536592966
20
-56.7047128808
0
LWPOLYLINE
5
325
100
AcDbEntity
8
0
6
DASHED2
62
4
370
-1
100
AcDbPolyline
90
3
70
0
43
0
10
-441.536592966
20
-57.2109121073
10
-440.248894895
20
-56.8316782798
10
-439.472996873
20
-56.2390930004
0
LWPOLYLINE
5
326
100
AcDbEntity
8
0
6
DASHED2
62
4
370
-1
100
AcDbPolyline
90
3
70
0
43
0
10
-439.472996873
20
-56.2390930004
10
-438.774735256
20
-55.0440635768
10
-438.596520373
20
-53.9233010004
0
LWPOLYLINE
5
327
100
AcDbEntity
8
0
6
DASHED2
62
4
370
-1
100
AcDbPolyline
90
3
70
0
43
0
10
-442.534897112
20
-50.9220766376
10
-443.564673145
20
-51.241689471
10
-444.188577373
20
-51.6626830012
0
LINE
5
328
100
AcDbEntity
8
0
6
DASHED2
62
4
370
-1
100
AcDbLine
10
-378.396932873
20
-54.0500715003
11
-379.885125873
21
-51.9547655003
0
LINE
5
329
100
AcDbEntity
8
0
6
DASHED2
62
4
370
-1
100
AcDbLine
10
-380.964272873
20
-52.1835245003
11
-379.236896873
21
-54.7253060003
0
LINE
5
32A
100
AcDbEntity
8
0
6
DASHED2
62
4
370
-1
100
AcDbLine
10
-378.128617948
20
-58.8695592496
11
-378.128617948
21
-58.3463343699
0
LINE
5
32B
100
AcDbEntity
8
0
6
DASHED2
62
4
370
-1
100
AcDbLine
10
-377.520456373
20
-54.9271299996
11
-377.089185623
21
-54.9271299996
0
LINE
5
32C
100
AcDbEntity
8
0
6
DASHED2
62
4
370
-1
100
AcDbLine
10
-386.691620517
20
-57.225447393
11
-386.665826395
21
-56.7127694875
0
LINE
5
32D
100
AcDbEntity
8
0
6
DASHED2
62
4
370
-1
100
AcDbLine
10
-387.888242373
20
-54.8148759991
11
-384.737273237
21
-54.7674975228
0
LINE
5
32E
100
AcDbEntity
8
0
6
DASHED2
62
4
370
-1
100
AcDbLine
10
-384.737273237
20
-54.7674975228
11
-384.672632401
21
-54.2416124991
0
LINE
5
32F
100
AcDbEntity
8
0
6
DASHED2
62
4
370
-1
100
AcDbLine
10
-384.672632401
20
-54.2416124991
11
-389.109735373
21
-54.2416124991
0
LINE
5
330
100
AcDbEntity
8
0
6
DASHED2
62
4
370
-1
100
AcDbLine
10
-362.600408373
20
-59.5208079991
11
-360.173685373
21
-57.0942264991
0
LINE
5
331
100
AcDbEntity
8
0
6
DASHED2
62
4
370
-1
100
AcDbLine
10
-365.601153873
20
-57.0942264991
11
-363.026228873
21
-59.5208079991
0
LINE
5
332
100
AcDbEntity
8
0
6
DASHED2
62
4
370
-1
100
AcDbLine
10
-366.638884873
20
-60.5591744991
11
-368.102365873
21
-62.0227079991
0
LINE
5
333
100
AcDbEntity
8
0
6
DASHED2
62
4
370
-1
100
AcDbLine
10
-367.713057873
20
-62.3747979991
11
-358.969284373
21
-62.3747979991
0
LINE
5
334
100
AcDbEntity
8
0
6
DASHED2
62
4
370
-1
100
AcDbLine
10
-355.394782373
20
-58.8000304991
11
-355.395471873
21
-50.0564504991
0
LINE
5
335
100
AcDbEntity
8
0
6
DASHED2
62
4
370
-1
100
AcDbLine
10
-355.747560373
20
-49.6679189991
11
-357.210351873
21
-51.1313824991
0
LINE
5
336
100
AcDbEntity
8
0
6
DASHED2
62
4
370
-1
100
AcDbLine
10
-357.266090873
20
-51.2608514991
11
-357.265402873
21
-58.8000304991
0
LINE
5
337
100
AcDbEntity
8
0
6
DASHED2
62
4
370
-1
100
AcDbLine
10
-358.969284373
20
-60.5041764991
11
-366.508656873
21
-60.5041764991
0
LINE
5
338
100
AcDbEntity
8
0
6
DASHED2
62
4
370
-1
100
AcDbLine
10
-358.987946373
20
-49.3508949991
11
-357.524465373
21
-47.8874174991
0
LINE
5
339
100
AcDbEntity
8
0
6
DASHED2
62
4
370
-1
100
AcDbLine
10
-357.913772873
20
-47.5353279991
11
-366.657352873
21
-47.5353279991
0
LINE
5
33A
100
AcDbEntity
8
0
6
DASHED2
62
4
370
-1
100
AcDbLine
10
-370.232049873
20
-51.1107094991
11
-370.231361873
21
-59.8536189991
0
LINE
5
33B
100
AcDbEntity
8
0
6
DASHED2
62
4
370
-1
100
AcDbLine
10
-369.879271873
20
-60.2422209991
11
-368.415791373
21
-58.7787399991
0
LINE
5
33C
100
AcDbEntity
8
0
6
DASHED2
62
4
370
-1
100
AcDbLine
10
-368.360740373
20
-58.6492704991
11
-368.361286873
21
-51.1107094991
0
LINE
5
33D
100
AcDbEntity
8
0
6
DASHED2
62
4
370
-1
100
AcDbLine
10
-366.657352873
20
-49.4066339991
11
-359.118173873
21
-49.4066339991
0
LINE
5
33E
100
AcDbEntity
8
0
6
DASHED2
62
4
370
-1
100
AcDbLine
10
-375.474168873
20
-57.2429219965
11
-375.474168873
21
-52.5515244996
0
LINE
5
33F
100
AcDbEntity
8
0
6
DASHED2
62
4
370
-1
100
AcDbLine
10
-376.657914873
20
-52.5515244996
11
-376.657914873
21
-57.6101639989
0
LINE
5
340
100
AcDbEntity
8
0
6
DASHED2
62
4
370
-1
100
AcDbLine
10
-377.806062846
20
-58.3446917429
11
-377.806062846
21
-58.8665707719
0
LINE
5
341
100
AcDbEntity
8
0
6
DASHED2
62
4
370
-1
100
AcDbLine
10
-384.342472873
20
-54.2416124985
11
-384.406502373
21
-54.7625239985
0
LINE
5
342
100
AcDbEntity
8
0
6
DASHED2
62
4
370
-1
100
AcDbLine
10
-386.373793867
20
-56.7149244925
11
-386.373793867
21
-57.2240236715
0
LINE
5
343
100
AcDbEntity
8
0
6
DASHED2
62
4
370
-1
100
AcDbLine
10
-417.241462233
20
-52.2175638558
11
-417.241462233
21
-51.3764841562
0
LINE
5
344
100
AcDbEntity
8
0
6
DASHED2
62
4
370
-1
100
AcDbLine
10
-417.241462233
20
-56.2151335227
11
-417.241462233
21
-55.5019468293
0
LINE
5
345
100
AcDbEntity
8
0
6
DASHED2
62
4
370
-1
100
AcDbLine
10
-392.83798846
20
-52.149782931
11
-392.83798846
21
-51.3355337119
0
LINE
5
346
100
AcDbEntity
8
0
6
DASHED2
62
4
370
-1
100
AcDbLine
10
-392.83798846
20
-56.2769104354
11
-392.83798846
21
-55.7904876493
0
LINE
5
347
100
AcDbEntity
8
0
6
DASHED2
62
4
370
-1
100
AcDbLine
10
-391.433835373
20
-55.5003939991
11
-391.433835373
21
-49.6541254991
0
LINE
5
348
100
AcDbEntity
8
0
6
DASHED2
62
4
370
-1
100
AcDbLine
10
-392.540499373
20
-49.6541254991
11
-392.540499373
21
-56.0963944991
0
LINE
5
349
100
AcDbEntity
8
0
6
DASHED2
62
4
370
-1
100
AcDbLine
10
-401.732653873
20
-54.927129999
11
-401.058895269
21
-54.927129999
0
LINE
5
34A
100
AcDbEntity
8
0
6
DASHED2
62
4
370
-1
100
AcDbLine
10
-401.058895269
20
-54.927129999
11
-401.058895269
21
-54.5062461784
0
LINE
5
34B
100
AcDbEntity
8
0
6
DASHED2
62
4
370
-1
100
AcDbLine
10
-402.609129873
20
-54.050071499
11
-404.096617373
21
-51.954765499
0
LINE
5
34C
100
AcDbEntity
8
0
6
DASHED2
62
4
370
-1
100
AcDbLine
10
-405.176293873
20
-52.183524499
11
-403.448211873
21
-54.725305999
0
LINE
5
34D
100
AcDbEntity
8
0
6
DASHED2
62
4
370
-1
100
AcDbLine
10
-402.351276162
20
-58.8695215804
11
-402.351276162
21
-58.3459747277
0
LINE
5
34E
100
AcDbEntity
8
0
6
DASHED2
62
4
370
-1
100
AcDbLine
10
-399.686189873
20
-57.2429219986
11
-399.686189873
21
-52.551524499
0
LINE
5
34F
100
AcDbEntity
8
0
6
DASHED2
62
4
370
-1
100
AcDbLine
10
-400.869935373
20
-52.551524499
11
-400.869935373
21
-57.610163999
0
LINE
5
350
100
AcDbEntity
8
0
6
DASHED2
62
4
370
-1
100
AcDbLine
10
-401.975893873
20
-58.3421149268
11
-401.975893873
21
-58.8650369188
0
LINE
5
351
100
AcDbEntity
8
0
6
DASHED2
62
4
370
-1
100
AcDbLine
10
-411.819099373
20
-54.1774774991
11
-411.732316373
21
-52.4756594991
0
LINE
5
352
100
AcDbEntity
8
0
6
DASHED2
62
4
370
-1
100
AcDbLine
10
-411.732316373
20
-52.4756594991
11
-411.732316373
21
-51.7003774991
0
LINE
5
353
100
AcDbEntity
8
0
6
DASHED2
62
4
370
-1
100
AcDbLine
10
-412.838274373
20
-52.7940589991
11
-412.925057873
21
-54.8409994991
0
LINE
5
354
100
AcDbEntity
8
0
6
DASHED2
62
4
370
-1
100
AcDbLine
10
-411.844801752
20
-54.8008188594
11
-411.819099373
21
-54.1774774991
0
LINE
5
355
100
AcDbEntity
8
0
6
DASHED2
62
4
370
-1
100
AcDbLine
10
-410.293688373
20
-53.8853244991
11
-411.603211849
21
-54.136129831
0
LINE
5
356
100
AcDbEntity
8
0
6
DASHED2
62
4
370
-1
100
AcDbLine
10
-411.603211849
20
-54.136129831
11
-411.625806578
21
-54.6194735833
0
LINE
5
357
100
AcDbEntity
8
0
6
DASHED2
62
4
370
-1
100
AcDbLine
10
-411.625806578
20
-54.6194735833
11
-410.065617373
21
-54.3566884991
0
LINE
5
358
100
AcDbEntity
8
0
6
DASHED2
62
4
370
-1
100
AcDbLine
10
-411.336146873
20
-51.4599769991
11
-411.482743367
21
-51.5590823714
0
LINE
5
359
100
AcDbEntity
8
0
6
DASHED2
62
4
370
-1
100
AcDbLine
10
-411.482743367
20
-51.5590823714
11
-411.508201748
21
-52.1036850271
0
LINE
5
35A
100
AcDbEntity
8
0
6
DASHED2
62
4
370
-1
100
AcDbLine
10
-415.889272873
20
-55.5003939991
11
-415.889272873
21
-49.6541254991
0
LINE
5
35B
100
AcDbEntity
8
0
6
DASHED2
62
4
370
-1
100
AcDbLine
10
-416.995054873
20
-49.6541254991
11
-416.995054873
21
-56.0963944991
0
LINE
5
35C
100
AcDbEntity
8
0
6
DASHED2
62
4
370
-1
100
AcDbLine
10
-426.919405973
20
-58.8689467688
11
-426.919405973
21
-58.3565132794
0
LINE
5
35D
100
AcDbEntity
8
0
6
DASHED2
62
4
370
-1
100
AcDbLine
10
-425.550321531
20
-54.8103100911
11
-425.550321531
21
-54.3884228761
0
LINE
5
35E
100
AcDbEntity
8
0
6
DASHED2
62
4
370
-1
100
AcDbLine
10
-424.145684373
20
-57.2429219988
11
-424.145684373
21
-52.5515244991
0
LINE
5
35F
100
AcDbEntity
8
0
6
DASHED2
62
4
370
-1
100
AcDbLine
10
-425.326784373
20
-52.5515244991
11
-425.326784373
21
-57.6101639991
0
LINE
5
360
100
AcDbEntity
8
0
6
DASHED2
62
4
370
-1
100
AcDbLine
10
-426.608249373
20
-58.3593916765
11
-426.608249373
21
-58.8653573889
0
LINE
5
361
100
AcDbEntity
8
0
6
DASHED2
62
4
370
-1
100
AcDbLine
10
-432.780449373
20
-55.6774704991
11
-432.780449373
21
-52.6032064991
0
LINE
5
362
100
AcDbEntity
8
0
6
DASHED2
62
4
370
-1
100
AcDbLine
10
-433.885702373
20
-52.6032064991
11
-433.885702373
21
-54.3566884991
0
LINE
5
363
100
AcDbEntity
8
0
6
DASHED2
62
4
370
-1
100
AcDbLine
10
-442.116007873
20
-50.8806595904
11
-442.116007873
21
-51.3959655
0
LINE
5
364
100
AcDbEntity
8
0
6
DASHED2
62
4
370
-1
100
AcDbLine
10
-441.536592966
20
-56.7047128808
11
-441.536592966
21
-57.2109121073
0
LINE
5
365
100
AcDbEntity
8
0
6
DASHED2
62
4
370
-1
100
AcDbLine
10
-441.912807873
20
-57.2284405012
11
-441.912807873
21
-56.6963905669
0
LINE
5
366
100
AcDbEntity
8
0
6
DASHED2
62
4
370
-1
100
AcDbLine
10
-442.534897112
20
-51.4319334851
11
-442.534897112
21
-50.9220766376
0
LINE
5
367
100
AcDbEntity
8
0
6
DASHED2
62
4
370
-1
100
AcDbLine
10
-377.089185623
20
-54.9271299996
11
-377.089185623
21
-54.497097777
0
ARC
5
368
100
AcDbEntity
8
0
6
DASHED2
62
4
370
-1
100
AcDbCircle
10
-381.643653354
20
-52.8440350572
40
1.97058855311
100
AcDbArc
50
26.8252622056
51
87.6730038191
0
ARC
5
369
100
AcDbEntity
8
0
6
DASHED2
62
4
370
-1
100
AcDbCircle
10
-381.648551184
20
-51.1180667794
40
0.474905815426
100
AcDbArc
50
160.800498736
51
203.363312135
0
ARC
5
36A
100
AcDbEntity
8
0
6
DASHED2
62
4
370
-1
100
AcDbCircle
10
-382.293109023
20
-52.7267401388
40
1.4355795843
100
AcDbArc
50
22.2342791615
51
81.6453305001
0
ARC
5
36B
100
AcDbEntity
8
0
6
DASHED2
62
4
370
-1
100
AcDbCircle
10
-378.718534828
20
-57.01472233
40
2.34736583015
100
AcDbArc
50
102.7576186
51
174.327986802
0
ARC
5
36C
100
AcDbEntity
8
0
6
DASHED2
62
4
370
-1
100
AcDbCircle
10
-378.541782305
20
-55.6122706975
40
3.28338750347
100
AcDbArc
50
235.636400482
51
277.228966052
0
ARC
5
36D
100
AcDbEntity
8
0
6
DASHED2
62
4
370
-1
100
AcDbCircle
10
-378.300207845
20
-56.8693334627
40
1.48693469015
100
AcDbArc
50
176.203147276
51
276.626605203
0
ARC
5
36E
100
AcDbEntity
8
0
6
DASHED2
62
4
370
-1
100
AcDbCircle
10
-389.047175629
20
-54.6028172691
40
0.366582333773
100
AcDbArc
50
99.8260051426
51
181.365420919
0
ARC
5
36F
100
AcDbEntity
8
0
6
DASHED2
62
4
370
-1
100
AcDbCircle
10
-386.817202986
20
-54.6319550529
40
2.59653104634
100
AcDbArc
50
179.549786915
51
272.772219357
0
ARC
5
370
100
AcDbEntity
8
0
6
DASHED2
62
4
370
-1
100
AcDbCircle
10
-386.617625187
20
-55.1874391941
40
1.52609169472
100
AcDbArc
50
178.403353471
51
268.190026731
0
ARC
5
371
100
AcDbEntity
8
0
6
DASHED2
62
4
370
-1
100
AcDbCircle
10
-362.978171334
20
-53.9500689565
40
4.21162068638
100
AcDbArc
50
312.089766974
51
354.77127838
0
ARC
5
372
100
AcDbEntity
8
0
6
DASHED2
62
4
370
-1
100
AcDbCircle
10
-362.815785084
20
-54.3459298831
40
4.03172721404
100
AcDbArc
50
0.1712225418
51
90.0931658237
0
ARC
5
373
100
AcDbEntity
8
0
6
DASHED2
62
4
370
-1
100
AcDbCircle
10
-362.825477175
20
-54.3308156427
40
4.01660886802
100
AcDbArc
50
89.9552615414
51
180.043733572
0
ARC
5
374
100
AcDbEntity
8
0
6
DASHED2
62
4
370
-1
100
AcDbCircle
10
-362.639905152
20
-54.1038711381
40
4.20846993221
100
AcDbArc
50
183.1330134
51
225.280205863
0
ARC
5
375
100
AcDbEntity
8
0
6
DASHED2
62
4
370
-1
100
AcDbCircle
10
-367.961055398
20
-62.1532273937
40
0.192364140986
100
AcDbArc
50
137.273329596
51
202.420725961
0
ARC
5
376
100
AcDbEntity
8
0
6
DASHED2
62
4
370
-1
100
AcDbCircle
10
-367.964764681
20
-62.1543255268
40
0.188516840279
100
AcDbArc
50
202.542180741
51
256.361865325
0
ARC
5
377
100
AcDbEntity
8
0
6
DASHED2
62
4
370
-1
100
AcDbCircle
10
-358.978031973
20
-58.7915490385
40
3.58325963813
100
AcDbArc
50
270.139872947
51
359.864382601
0
ARC
5
378
100
AcDbEntity
8
0
6
DASHED2
62
4
370
-1
100
AcDbCircle
10
-355.616640553
20
-49.8076549272
40
0.191484017323
100
AcDbArc
50
67.5358095884
51
133.134356091
0
ARC
5
379
100
AcDbEntity
8
0
6
DASHED2
62
4
370
-1
100
AcDbCircle
10
-358.946265773
20
-58.8233100061
40
1.68102409958
100
AcDbArc
50
269.215412878
51
0.7934806734
0
ARC
5
37A
100
AcDbEntity
8
0
6
DASHED2
62
4
370
-1
100
AcDbCircle
10
-357.665817835
20
-47.756893284
40
0.192398256624
100
AcDbArc
50
317.280758723
51
22.412565395
0
ARC
5
37B
100
AcDbEntity
8
0
6
DASHED2
62
4
370
-1
100
AcDbCircle
10
-357.663099623
20
-47.7568179644
40
0.189859115774
100
AcDbArc
50
22.7043132499
51
76.0787761755
0
ARC
5
37C
100
AcDbEntity
8
0
6
DASHED2
62
4
370
-1
100
AcDbCircle
10
-366.648696602
20
-51.1186796781
40
3.58336213442
100
AcDbArc
50
90.1384086344
51
179.872561584
0
ARC
5
37D
100
AcDbEntity
8
0
6
DASHED2
62
4
370
-1
100
AcDbCircle
10
-370.009717187
20
-60.1041762845
40
0.190039663517
100
AcDbArc
50
193.938161546
51
247.242557353
0
ARC
5
37E
100
AcDbEntity
8
0
6
DASHED2
62
4
370
-1
100
AcDbCircle
10
-370.010074416
20
-60.102792309
40
0.191179666439
100
AcDbArc
50
247.501730233
51
313.171661904
0
ARC
5
37F
100
AcDbEntity
8
0
6
DASHED2
62
4
370
-1
100
AcDbCircle
10
-366.681037211
20
-51.086885634
40
1.68041855042
100
AcDbArc
50
89.1924288646
51
180.812328958
0
ARC
5
380
100
AcDbEntity
8
0
6
DASHED2
62
4
370
-1
100
AcDbCircle
10
-371.507576828
20
-185.91300817
40
127.202469244
100
AcDbArc
50
92.050249752
51
92.8381862099
0
ARC
5
381
100
AcDbEntity
8
0
6
DASHED2
62
4
370
-1
100
AcDbCircle
10
-374.800664256
20
-58.5827544965
40
0.446629597448
100
AcDbArc
50
328.316839322
51
31.6831606782
0
ARC
5
382
100
AcDbEntity
8
0
6
DASHED2
62
4
370
-1
100
AcDbCircle
10
-374.800971291
20
-51.2109337496
40
0.446891034116
100
AcDbArc
50
328.33748734
51
31.66251266
0
ARC
5
383
100
AcDbEntity
8
0
6
DASHED2
62
4
370
-1
100
AcDbCircle
10
-377.383323455
20
-51.2109337496
40
0.446891034116
100
AcDbArc
50
148.33748734
51
211.66251266
0
ARC
5
384
100
AcDbEntity
8
0
6
DASHED2
62
4
370
-1
100
AcDbCircle
10
-386.405554301
20
-53.9415473021
40
3.28263001883
100
AcDbArc
50
270.554362574
51
1.184612291
0
ARC
5
385
100
AcDbEntity
8
0
6
DASHED2
62
4
370
-1
100
AcDbCircle
10
-386.28030205
20
-54.4017206134
40
3.53638790861
100
AcDbArc
50
47.9544446025
51
94.2531429566
0
ARC
5
386
100
AcDbEntity
8
0
6
DASHED2
62
4
370
-1
100
AcDbCircle
10
-386.607452808
20
-54.716924708
40
3.84240102267
100
AcDbArc
50
89.03248505
51
137.23029903
0
ARC
5
387
100
AcDbEntity
8
0
6
DASHED2
62
4
370
-1
100
AcDbCircle
10
-389.11782527
20
-52.074481345
40
0.31206836134
100
AcDbArc
50
186.116064196
51
266.658033553
0
ARC
5
388
100
AcDbEntity
8
0
6
DASHED2
62
4
370
-1
100
AcDbCircle
10
-386.804574675
20
-53.9601260733
40
2.4534524316
100
AcDbArc
50
35.7928810483
51
92.796542227
0
ARC
5
389
100
AcDbEntity
8
0
6
DASHED2
62
4
370
-1
100
AcDbCircle
10
-386.551257701
20
-54.5687588573
40
2.15349027061
100
AcDbArc
50
274.726964654
51
354.837701466
0
ARC
5
38A
100
AcDbEntity
8
0
6
DASHED2
62
4
370
-1
100
AcDbCircle
10
-418.971887923
20
-54.7026142247
40
1.88653821228
100
AcDbArc
50
275.640700703
51
331.533687999
0
ARC
5
38B
100
AcDbEntity
8
0
6
DASHED2
62
4
370
-1
100
AcDbCircle
10
-418.511290094
20
-53.5927741644
40
2.18796381889
100
AcDbArc
50
92.8974895347
51
189.750498092
0
ARC
5
38C
100
AcDbEntity
8
0
6
DASHED2
62
4
370
-1
100
AcDbCircle
10
-418.807813509
20
-53.3058073156
40
1.90728344727
100
AcDbArc
50
34.7901566613
51
84.4058742598
0
ARC
5
38D
100
AcDbEntity
8
0
6
DASHED2
62
4
370
-1
100
AcDbCircle
10
-418.287617096
20
-54.223436816
40
3.60086091006
100
AcDbArc
50
134.671415859
51
181.901408916
0
ARC
5
38E
100
AcDbEntity
8
0
6
DASHED2
62
4
370
-1
100
AcDbCircle
10
-419.29930028
20
-54.6269711049
40
2.60274235024
100
AcDbArc
50
173.734361237
51
271.792033585
0
ARC
5
38F
100
AcDbEntity
8
0
6
DASHED2
62
4
370
-1
100
AcDbCircle
10
-419.195422165
20
-54.8381259437
40
2.39042031643
100
AcDbArc
50
269.461033997
51
324.826627819
0
ARC
5
390
100
AcDbEntity
8
0
6
DASHED2
62
4
370
-1
100
AcDbCircle
10
-394.344898833
20
-53.2870553981
40
1.887900299
100
AcDbArc
50
37.0420295087
51
84.5762417825
0
ARC
5
391
100
AcDbEntity
8
0
6
DASHED2
62
4
370
-1
100
AcDbCircle
10
-393.832179596
20
-54.2234368162
40
3.60086091006
100
AcDbArc
50
134.671415859
51
181.901408916
0
ARC
5
392
100
AcDbEntity
8
0
6
DASHED2
62
4
370
-1
100
AcDbCircle
10
-394.844163132
20
-54.6272289898
40
2.60247195344
100
AcDbArc
50
173.727995905
51
271.783295762
0
ARC
5
393
100
AcDbEntity
8
0
6
DASHED2
62
4
370
-1
100
AcDbCircle
10
-394.733214517
20
-54.8657229433
40
2.36290751968
100
AcDbArc
50
269.273477506
51
323.328588164
0
ARC
5
394
100
AcDbEntity
8
0
6
DASHED2
62
4
370
-1
100
AcDbCircle
10
-394.295284189
20
-54.7368820705
40
1.7982757186
100
AcDbArc
50
270.780140331
51
324.133567381
0
ARC
5
395
100
AcDbEntity
8
0
6
DASHED2
62
4
370
-1
100
AcDbCircle
10
-394.056078243
20
-53.5931892553
40
2.18836698398
100
AcDbArc
50
92.8910398724
51
189.737657495
0
ARC
5
396
100
AcDbEntity
8
0
6
DASHED2
62
4
370
-1
100
AcDbCircle
10
-392.312196164
20
-57.1272501129
40
0.154355024168
100
AcDbArc
50
194.207642201
51
275.816321386
0
ARC
5
397
100
AcDbEntity
8
0
6
DASHED2
62
4
370
-1
100
AcDbCircle
10
-391.345767121
20
-56.7647244523
40
0.999032822289
100
AcDbArc
50
354.498070178
51
17.3295077229
0
ARC
5
398
100
AcDbEntity
8
0
6
DASHED2
62
4
370
-1
100
AcDbCircle
10
-390.756939363
20
-48.2611752491
40
0.433758314702
100
AcDbArc
50
327.261923792
51
32.7380762077
0
ARC
5
399
100
AcDbEntity
8
0
6
DASHED2
62
4
370
-1
100
AcDbCircle
10
-393.453510158
20
-48.2611752491
40
0.449659377032
100
AcDbArc
50
148.555296558
51
211.444703442
0
ARC
5
39A
100
AcDbEntity
8
0
6
DASHED2
62
4
370
-1
100
AcDbCircle
10
-389.06585147
20
-56.3778925489
40
3.48603201364
100
AcDbArc
50
175.368307043
51
193.051543839
0
ARC
5
39B
100
AcDbEntity
8
0
6
DASHED2
62
4
370
-1
100
AcDbCircle
10
-402.514728255
20
-56.8709809329
40
1.48402266884
100
AcDbArc
50
176.13193686
51
276.323457339
0
ARC
5
39C
100
AcDbEntity
8
0
6
DASHED2
62
4
370
-1
100
AcDbCircle
10
-401.368919755
20
-52.6976174144
40
1.83500768055
100
AcDbArc
50
227.478952799
51
279.726773507
0
ARC
5
39D
100
AcDbEntity
8
0
6
DASHED2
62
4
370
-1
100
AcDbCircle
10
-405.857401668
20
-52.8475971136
40
1.97421114033
100
AcDbArc
50
26.8879586502
51
87.6322304472
0
ARC
5
39E
100
AcDbEntity
8
0
6
DASHED2
62
4
370
-1
100
AcDbCircle
10
-405.863743221
20
-51.1193150635
40
0.471661785425
100
AcDbArc
50
160.502432332
51
203.368362803
0
ARC
5
39F
100
AcDbEntity
8
0
6
DASHED2
62
4
370
-1
100
AcDbCircle
10
-406.50980138
20
-52.7327491679
40
1.44218237727
100
AcDbArc
50
22.3850335301
51
81.5033389162
0
ARC
5
3A0
100
AcDbEntity
8
0
6
DASHED2
62
4
370
-1
100
AcDbCircle
10
-402.930077743
20
-57.0147213656
40
2.34731457156
100
AcDbArc
50
102.752197932
51
174.327886158
0
ARC
5
3A1
100
AcDbEntity
8
0
6
DASHED2
62
4
370
-1
100
AcDbCircle
10
-402.758695844
20
-55.6260833025
40
3.26892683622
100
AcDbArc
50
235.578197571
51
277.159624749
0
ARC
5
3A2
100
AcDbEntity
8
0
6
DASHED2
62
4
370
-1
100
AcDbCircle
10
-397.043382139
20
-154.048464998
40
95.3111465305
100
AcDbArc
50
91.940375205
51
92.9664778741
0
ARC
5
3A3
100
AcDbEntity
8
0
6
DASHED2
62
4
370
-1
100
AcDbCircle
10
-399.016112349
20
-58.5827544986
40
0.450000892753
100
AcDbArc
50
328.581396646
51
31.4186033544
0
ARC
5
3A4
100
AcDbEntity
8
0
6
DASHED2
62
4
370
-1
100
AcDbCircle
10
-399.016422294
20
-51.210933749
40
0.450265553543
100
AcDbArc
50
328.60192914
51
31.3980708597
0
ARC
5
3A5
100
AcDbEntity
8
0
6
DASHED2
62
4
370
-1
100
AcDbCircle
10
-401.591561452
20
-51.210933749
40
0.450265553543
100
AcDbArc
50
148.60192914
51
211.39807086
0
ARC
5
3A6
100
AcDbEntity
8
0
6
DASHED2
62
4
370
-1
100
AcDbCircle
10
-412.667666044
20
-51.8031198659
40
0.940975558001
100
AcDbArc
50
6.2684560153
51
99.508215126
0
ARC
5
3A7
100
AcDbEntity
8
0
6
DASHED2
62
4
370
-1
100
AcDbCircle
10
-414.05652658
20
-51.5541708532
40
0.267256911344
100
AcDbArc
50
184.049160901
51
258.719821503
0
ARC
5
3A8
100
AcDbEntity
8
0
6
DASHED2
62
4
370
-1
100
AcDbCircle
10
-415.018152899
20
-49.2158117872
40
2.75486343749
100
AcDbArc
50
289.274153482
51
300.724082298
0
ARC
5
3A9
100
AcDbEntity
8
0
6
DASHED2
62
4
370
-1
100
AcDbCircle
10
-410.859802904
20
-55.15708988
40
2.0893040023
100
AcDbArc
50
171.298320356
51
277.516600078
0
ARC
5
3AA
100
AcDbEntity
8
0
6
DASHED2
62
4
370
-1
100
AcDbCircle
10
-408.368641886
20
-55.6657118218
40
0.500300526364
100
AcDbArc
50
359.986580535
51
98.0592869437
0
ARC
5
3AB
100
AcDbEntity
8
0
6
DASHED2
62
4
370
-1
100
AcDbCircle
10
-410.339035503
20
-52.1555720316
40
1.7303467748
100
AcDbArc
50
271.501720163
51
351.075839319
0
ARC
5
3AC
100
AcDbEntity
8
0
6
DASHED2
62
4
370
-1
100
AcDbCircle
10
-409.539669098
20
-53.9135546954
40
3.04094983618
100
AcDbArc
50
87.6921092921
51
126.211104605
0
ARC
5
3AD
100
AcDbEntity
8
0
6
DASHED2
62
4
370
-1
100
AcDbCircle
10
-409.669278615
20
-52.4784797957
40
1.04106993534
100
AcDbArc
50
2.9999397082
51
97.1532995528
0
ARC
5
3AE
100
AcDbEntity
8
0
6
DASHED2
62
4
370
-1
100
AcDbCircle
10
-416.767472262
20
-57.1270432593
40
0.154562342969
100
AcDbArc
50
194.267291945
51
275.814118462
0
ARC
5
3AF
100
AcDbEntity
8
0
6
DASHED2
62
4
370
-1
100
AcDbCircle
10
-415.800487065
20
-56.7642224967
40
0.998366861207
100
AcDbArc
50
354.465447588
51
17.3112573971
0
ARC
5
3B0
100
AcDbEntity
8
0
6
DASHED2
62
4
370
-1
100
AcDbCircle
10
-415.21311643
20
-48.2611752491
40
0.434529148059
100
AcDbArc
50
327.327246945
51
32.6727530554
0
ARC
5
3B1
100
AcDbEntity
8
0
6
DASHED2
62
4
370
-1
100
AcDbCircle
10
-417.912194511
20
-48.2611752491
40
0.446292213313
100
AcDbArc
50
148.290592255
51
211.709407745
0
ARC
5
3B2
100
AcDbEntity
8
0
6
DASHED2
62
4
370
-1
100
AcDbCircle
10
-413.509466291
20
-56.3798992051
40
3.49709918135
100
AcDbArc
50
175.350012229
51
192.975773563
0
ARC
5
3B3
100
AcDbEntity
8
0
6
DASHED2
62
4
370
-1
100
AcDbCircle
10
-426.97370525
20
-56.8369097869
40
1.52057330833
100
AcDbArc
50
171.692856221
51
272.046452463
0
ARC
5
3B4
100
AcDbEntity
8
0
6
DASHED2
62
4
370
-1
100
AcDbCircle
10
-427.106910085
20
-56.8974081944
40
2.65433310245
100
AcDbArc
50
80.5757193207
51
178.639911648
0
ARC
5
3B5
100
AcDbEntity
8
0
6
DASHED2
62
4
370
-1
100
AcDbCircle
10
-420.401436653
20
-190.745253432
40
132.025874375
100
AcDbArc
50
91.9000617897
51
92.6945877204
0
ARC
5
3B6
100
AcDbEntity
8
0
6
DASHED2
62
4
370
-1
100
AcDbCircle
10
-423.401202715
20
-58.5827544988
40
0.430773117685
100
AcDbArc
50
327.005765462
51
32.9942345381
0
ARC
5
3B7
100
AcDbEntity
8
0
6
DASHED2
62
4
370
-1
100
AcDbCircle
10
-423.274866852
20
-51.2109334991
40
0.431774740632
100
AcDbArc
50
327.092019477
51
32.9079805226
0
ARC
5
3B8
100
AcDbEntity
8
0
6
DASHED2
62
4
370
-1
100
AcDbCircle
10
-424.221977052
20
77.7439670614
40
128.747715708
100
AcDbArc
50
268.818024638
51
269.745395421
0
ARC
5
3B9
100
AcDbEntity
8
0
6
DASHED2
62
4
370
-1
100
AcDbCircle
10
-426.496415823
20
-51.2109334991
40
0.447727572063
100
AcDbArc
50
148.403521365
51
211.596478635
0
ARC
5
3BA
100
AcDbEntity
8
0
6
DASHED2
62
4
370
-1
100
AcDbCircle
10
-433.650588433
20
-57.1271278979
40
0.139836006405
100
AcDbArc
50
195.771054073
51
277.835003964
0
ARC
5
3BB
100
AcDbEntity
8
0
6
DASHED2
62
4
370
-1
100
AcDbCircle
10
-424.233856952
20
-111.151025863
40
54.6987111103
100
AcDbArc
50
97.3225423638
51
99.8929489636
0
ARC
5
3BC
100
AcDbEntity
8
0
6
DASHED2
62
4
370
-1
100
AcDbCircle
10
-431.971241666
20
-56.7760040012
40
0.775491319203
100
AcDbArc
50
350.917748813
51
17.484372523
0
ARC
5
3BD
100
AcDbEntity
8
0
6
DASHED2
62
4
370
-1
100
AcDbCircle
10
-431.328333834
20
-52.0716581904
40
4.47239951958
100
AcDbArc
50
253.775166755
51
271.239621684
0
ARC
5
3BE
100
AcDbEntity
8
0
6
DASHED2
62
4
370
-1
100
AcDbCircle
10
-431.683553669
20
-52.3539423858
40
1.12486122898
100
AcDbArc
50
139.588431942
51
192.802757858
0
ARC
5
3BF
100
AcDbEntity
8
0
6
DASHED2
62
4
370
-1
100
AcDbCircle
10
-431.145619679
20
-56.7347527877
40
5.2968644576
100
AcDbArc
50
86.9253845324
51
105.263129363
0
ARC
5
3C0
100
AcDbEntity
8
0
6
DASHED2
62
4
370
-1
100
AcDbCircle
10
-431.242868312
20
-51.2109334991
40
0.447725347796
100
AcDbArc
50
328.403346276
51
31.5966537236
0
ARC
5
3C1
100
AcDbEntity
8
0
6
DASHED2
62
4
370
-1
100
AcDbCircle
10
-433.957728238
20
128.350351722
40
179.353432981
100
AcDbArc
50
270.148667127
51
270.989157374
0
ARC
5
3C2
100
AcDbEntity
8
0
6
DASHED2
62
4
370
-1
100
AcDbCircle
10
-433.059291398
20
123.774957512
40
174.777971533
100
AcDbArc
50
268.999239741
51
269.858032826
0
ARC
5
3C3
100
AcDbEntity
8
0
6
DASHED2
62
4
370
-1
100
AcDbCircle
10
-435.735425443
20
-51.2109334991
40
0.443582498118
100
AcDbArc
50
148.073598703
51
211.926401297
0
ARC
5
3C4
100
AcDbEntity
8
0
6
DASHED2
62
4
370
-1
100
AcDbCircle
10
-436.003457227
20
-60.9131574053
40
9.46826551269
100
AcDbArc
50
78.8152462077
51
90.6562779846
0
ARC
5
3C5
100
AcDbEntity
8
0
6
DASHED2
62
4
370
-1
100
AcDbCircle
10
-436.821736504
20
-53.4280798766
40
3.15371485351
100
AcDbArc
50
284.684137476
51
326.464681741
0
ARC
5
3C6
100
AcDbEntity
8
0
6
DASHED2
62
4
370
-1
100
AcDbCircle
10
-435.926156247
20
-55.5279600359
40
0.955676516711
100
AcDbArc
50
226.73918894
51
264.226062818
0
ARC
5
3C7
100
AcDbEntity
8
0
6
DASHED2
62
4
370
-1
100
AcDbCircle
10
-437.224163008
20
-56.6544132959
40
0.773854233082
100
AcDbArc
50
33.7998289262
51
85.6507694673
0
ARC
5
3C8
100
AcDbEntity
8
0
6
DASHED2
62
4
370
-1
100
AcDbCircle
10
-437.081997671
20
-56.5607874742
40
0.683119921331
100
AcDbArc
50
97.0192947581
51
181.61310599
0
ARC
5
3C9
100
AcDbEntity
8
0
6
DASHED2
62
4
370
-1
100
AcDbCircle
10
-437.103906711
20
-56.5707342519
40
0.661005352469
100
AcDbArc
50
180.804696014
51
275.726826481
0
ARC
5
3CA
100
AcDbEntity
8
0
6
DASHED2
62
4
370
-1
100
AcDbCircle
10
-436.934490405
20
-53.5989078946
40
3.63100679905
100
AcDbArc
50
268.367263152
51
323.565025589
0
ARC
5
3CB
100
AcDbEntity
8
0
6
DASHED2
62
4
370
-1
100
AcDbCircle
10
-431.496738498
20
-56.4287918052
40
2.40397072379
100
AcDbArc
50
173.59463356
51
197.836553894
0
ARC
5
3CC
100
AcDbEntity
8
0
6
DASHED2
62
4
370
-1
100
AcDbCircle
10
-442.347659712
20
-53.9341987238
40
2.54878215484
100
AcDbArc
50
353.072574427
51
84.7853471706
0
ARC
5
3CD
100
AcDbEntity
8
0
6
DASHED2
62
4
370
-1
100
AcDbCircle
10
-441.68866051
20
-53.9610601574
40
3.09237067296
100
AcDbArc
50
0.6996231457
51
93.6816755991
0
ARC
5
3CE
100
AcDbEntity
8
0
6
DASHED2
62
4
370
-1
100
AcDbCircle
10
-441.377902916
20
-54.0934999711
40
2.65728484867
100
AcDbArc
50
168.888842741
51
258.387152915
0
ARC
5
3CF
100
AcDbEntity
8
0
6
DASHED2
62
4
370
-1
100
AcDbCircle
10
-442.121508741
20
-53.2750249123
40
1.88888219701
100
AcDbArc
50
102.641699079
51
189.33476573
0
ARC
5
3D0
100
AcDbEntity
8
0
6
DASHED2
62
4
370
-1
100
AcDbCircle
10
-442.097245532
20
-53.9621144717
40
3.10822360124
100
AcDbArc
50
132.286504859
51
181.62158199
0
ARC
5
3D1
100
AcDbEntity
8
0
6
DASHED2
62
4
370
-1
100
AcDbCircle
10
-442.100519399
20
-54.1294015837
40
3.10471863934
100
AcDbArc
50
178.53585005
51
273.46622114
0
ARC
5
3D2
100
AcDbEntity
8
0
6
DASHED2
62
4
370
-1
100
AcDbCircle
10
-377.277474316
20
-52.9115452096
40
1.59669332555
100
AcDbArc
50
225.483827287
51
276.772314103
0
LINE
5
3D3
100
AcDbEntity
8
0
6
CONTINUOUS
62
7
370
-1
100
AcDbLine
10
-582.349778714
20
-52.65
11
-582.349778714
21
-58.55
0
ARC
5
3D4
100
AcDbEntity
8
0
6
CONTINUOUS
62
7
370
-1
100
AcDbCircle
10
-581.549778714
20
-52.65
40
0.8
100
AcDbArc
50
90
51
180
0
ARC
5
3D5
100
AcDbEntity
8
0
6
CONTINUOUS
62
7
370
-1
100
AcDbCircle
10
-581.549778714
20
-58.55
40
0.8
100
AcDbArc
50
180
51
270
0
LINE
5
3D6
100
AcDbEntity
8
0
6
ByLayer
62
256
370
-1
100
AcDbLine
10
-580.899778714
20
-59.35
11
-581.549778714
21
-59.35
0
LINE
5
3D7
100
AcDbEntity
8
0
6
ByLayer
62
256
370
-1
100
AcDbLine
10
-581.549778714
20
-51.85
11
-580.899778714
21
-51.85
0
LINE
5
3D8
100
AcDbEntity
8
0
6
CONTINUOUS
62
7
370
-1
100
AcDbLine
10
-582.349778714
20
28.55
11
-582.349778714
21
22.65
0
ARC
5
3D9
100
AcDbEntity
8
0
6
CONTINUOUS
62
7
370
-1
100
AcDbCircle
10
-581.549778714
20
28.55
40
0.8
100
AcDbArc
50
90
51
180
0
ARC
5
3DA
100
AcDbEntity
8
0
6
CONTINUOUS
62
7
370
-1
100
AcDbCircle
10
-581.549778714
20
22.65
40
0.8
100
AcDbArc
50
180
51
270
0
LINE
5
3DB
100
AcDbEntity
8
0
6
ByLayer
62
256
370
-1
100
AcDbLine
10
-580.899778714
20
21.85
11
-581.549778714
21
21.85
0
LINE
5
3DC
100
AcDbEntity
8
0
6
ByLayer
62
256
370
-1
100
AcDbLine
10
-581.549778714
20
29.35
11
-580.899778714
21
29.35
0
ENDSEC
0
SECTION
2
OBJECTS
0
DICTIONARY
5
C
330
0
100
AcDbDictionary
281
1
3
ACAD_GROUP
350
D
0
DICTIONARY
5
D
330
C
100
AcDbDictionary
281
1
0
ENDSEC
0
EOF
