  0
SECTION
  2
HEADER
  9
$ACADVER
  1
AC1014
  9
$ACADMAINTVER
 70
     9
  9
$DWGCODEPAGE
  3
ANSI_1252
  9
$INSBASE
 10
0.0
 20
0.0
 30
0.0
  9
$EXTMIN
 10
4.167188
 20
32.18105
 30
0.0
  9
$EXTMAX
 10
104.16728925
 20
155.1806075
 30
0.0
  9
$LIMMIN
 10
0.0
 20
0.0
  9
$LIMMAX
 10
420.0
 20
297.0
  9
$ORTHOMODE
 70
     0
  9
$REGENMODE
 70
     1
  9
$FILLMODE
 70
     1
  9
$QTEXTMODE
 70
     0
  9
$MIRRTEXT
 70
     1
  9
$DRAGMODE
 70
     2
  9
$LTSCALE
 40
1.0
  9
$OSMODE
 70
    37
  9
$ATTMODE
 70
     1
  9
$TEXTSIZE
 40
3.5
  9
$TRACEWID
 40
1.0
  9
$TEXTSTYLE
  7
STANDARD
  9
$CLAYER
  8
0
  9
$CELTYPE
  6
BYLAYER
  9
$CECOLOR
 62
   256
  9
$CELTSCALE
 40
1.0
  9
$DELOBJ
 70
     1
  9
$DISPSILH
 70
     0
  9
$DIMSCALE
 40
1.0
  9
$DIMASZ
 40
3.302
  9
$DIMEXO
 40
1.0
  9
$DIMDLI
 40
3.75
  9
$DIMRND
 40
0.0
  9
$DIMDLE
 40
0.0
  9
$DIMEXE
 40
1.0
  9
$DIMTP
 40
0.0
  9
$DIMTM
 40
0.0
  9
$DIMTXT
 40
3.5
  9
$DIMCEN
 40
2.5
  9
$DIMTSZ
 40
0.0
  9
$DIMTOL
 70
     0
  9
$DIMLIM
 70
     0
  9
$DIMTIH
 70
     1
  9
$DIMTOH
 70
     1
  9
$DIMSE1
 70
     0
  9
$DIMSE2
 70
     0
  9
$DIMTAD
 70
     1
  9
$DIMZIN
 70
     0
  9
$DIMBLK
  1

  9
$DIMASO
 70
     1
  9
$DIMSHO
 70
     1
  9
$DIMPOST
  1

  9
$DIMAPOST
  1

  9
$DIMALT
 70
     0
  9
$DIMALTD
 70
     3
  9
$DIMALTF
 40
0.0393700787
  9
$DIMLFAC
 40
1.0
  9
$DIMTOFL
 70
     1
  9
$DIMTVP
 40
0.0
  9
$DIMTIX
 70
     0
  9
$DIMSOXD
 70
     0
  9
$DIMSAH
 70
     0
  9
$DIMBLK1
  1

  9
$DIMBLK2
  1

  9
$DIMSTYLE
  2
ISO-25
  9
$DIMCLRD
 70
     0
  9
$DIMCLRE
 70
     0
  9
$DIMCLRT
 70
     0
  9
$DIMTFAC
 40
1.0
  9
$DIMGAP
 40
1.524
  9
$DIMJUST
 70
     0
  9
$DIMSD1
 70
     0
  9
$DIMSD2
 70
     0
  9
$DIMTOLJ
 70
     0
  9
$DIMTZIN
 70
     0
  9
$DIMALTZ
 70
     0
  9
$DIMALTTZ
 70
     0
  9
$DIMFIT
 70
     3
  9
$DIMUPT
 70
     0
  9
$DIMUNIT
 70
     2
  9
$DIMDEC
 70
     2
  9
$DIMTDEC
 70
     2
  9
$DIMALTU
 70
     2
  9
$DIMALTTD
 70
     3
  9
$DIMTXSTY
  7
STANDARD
  9
$DIMAUNIT
 70
     0
  9
$LUNITS
 70
     2
  9
$LUPREC
 70
     2
  9
$SKETCHINC
 40
1.0
  9
$FILLETRAD
 40
10.0
  9
$AUNITS
 70
     0
  9
$AUPREC
 70
     2
  9
$MENU
  1
.
  9
$ELEVATION
 40
0.0
  9
$PELEVATION
 40
0.0
  9
$THICKNESS
 40
0.0
  9
$LIMCHECK
 70
     0
  9
$CHAMFERA
 40
10.0
  9
$CHAMFERB
 40
10.0
  9
$CHAMFERC
 40
20.0
  9
$CHAMFERD
 40
0.0
  9
$SKPOLY
 70
     0
  9
$TDCREATE
 40
2456763.424172928
  9
$TDUPDATE
 40
2456763.42423125
  9
$TDINDWG
 40
0.0000000116
  9
$TDUSRTIMER
 40
0.0000000116
  9
$USRTIMER
 70
     1
  9
$ANGBASE
 50
0.0
  9
$ANGDIR
 70
     0
  9
$PDMODE
 70
     0
  9
$PDSIZE
 40
-1.0
  9
$PLINEWID
 40
0.0
  9
$COORDS
 70
     1
  9
$SPLFRAME
 70
     0
  9
$SPLINETYPE
 70
     6
  9
$SPLINESEGS
 70
     8
  9
$ATTDIA
 70
     0
  9
$ATTREQ
 70
     1
  9
$HANDLING
 70
     1
  9
$HANDSEED
  5
258
  9
$SURFTAB1
 70
     6
  9
$SURFTAB2
 70
     6
  9
$SURFTYPE
 70
     6
  9
$SURFU
 70
     6
  9
$SURFV
 70
     6
  9
$UCSNAME
  2

  9
$UCSORG
 10
0.0
 20
0.0
 30
0.0
  9
$UCSXDIR
 10
1.0
 20
0.0
 30
0.0
  9
$UCSYDIR
 10
0.0
 20
1.0
 30
0.0
  9
$PUCSNAME
  2

  9
$PUCSORG
 10
0.0
 20
0.0
 30
0.0
  9
$PUCSXDIR
 10
1.0
 20
0.0
 30
0.0
  9
$PUCSYDIR
 10
0.0
 20
1.0
 30
0.0
  9
$USERI1
 70
     0
  9
$USERI2
 70
     0
  9
$USERI3
 70
     0
  9
$USERI4
 70
     0
  9
$USERI5
 70
     0
  9
$USERR1
 40
0.0
  9
$USERR2
 40
0.0
  9
$USERR3
 40
0.0
  9
$USERR4
 40
0.0
  9
$USERR5
 40
0.0
  9
$WORLDVIEW
 70
     1
  9
$SHADEDGE
 70
     3
  9
$SHADEDIF
 70
    70
  9
$TILEMODE
 70
     1
  9
$MAXACTVP
 70
    64
  9
$PINSBASE
 10
0.0
 20
0.0
 30
0.0
  9
$PLIMCHECK
 70
     0
  9
$PEXTMIN
 10
1.0000000000E+20
 20
1.0000000000E+20
 30
1.0000000000E+20
  9
$PEXTMAX
 10
-1.0000000000E+20
 20
-1.0000000000E+20
 30
-1.0000000000E+20
  9
$PLIMMIN
 10
0.0
 20
0.0
  9
$PLIMMAX
 10
420.0
 20
297.0
  9
$UNITMODE
 70
     0
  9
$VISRETAIN
 70
     1
  9
$PLINEGEN
 70
     0
  9
$PSLTSCALE
 70
     1
  9
$TREEDEPTH
 70
  3020
  9
$PICKSTYLE
 70
     1
  9
$CMLSTYLE
  2
STANDARD
  9
$CMLJUST
 70
     0
  9
$CMLSCALE
 40
20.0
  9
$PROXYGRAPHICS
 70
     1
  9
$MEASUREMENT
 70
     1
  0
ENDSEC
  0
SECTION
  2
CLASSES
  0
CLASS
  1
ACDBDICTIONARYWDFLT
  2
AcDbDictionaryWithDefault
  3
ObjectDBX Classes
 90
        0
280
     0
281
     0
  0
CLASS
  1
VISUALSTYLE
  2
AcDbVisualStyle
  3
ObjectDBX Classes
 90
     4095
280
     0
281
     0
  0
CLASS
  1
MATERIAL
  2
AcDbMaterial
  3
ObjectDBX Classes
 90
     1153
280
     0
281
     0
  0
CLASS
  1
XRECORD
  2
AcDbXrecord
  3
AutoCAD 2000
 90
        0
280
     0
281
     0
  0
CLASS
  1
LWPOLYLINE
  2
AcDbPolyline
  3
AutoCAD 2000
 90
        0
280
     0
281
     1
  0
CLASS
  1
HATCH
  2
AcDbHatch
  3
AutoCAD 2000
 90
        0
280
     0
281
     1
  0
ENDSEC
  0
SECTION
  2
TABLES
  0
TABLE
  2
VPORT
  5
8
330
0
100
AcDbSymbolTable
 70
     1
  0
VPORT
  5
29
330
8
100
AcDbSymbolTableRecord
100
AcDbViewportTableRecord
  2
*ACTIVE
 70
     0
 10
0.0
 20
0.0
 11
1.0
 21
1.0
 12
54.167238625
 22
93.68082875
 13
0.0
 23
0.0
 14
10.0
 24
10.0
 15
10.0
 25
10.0
 16
0.0
 26
0.0
 36
1.0
 17
0.0
 27
0.0
 37
0.0
 40
125.45954865
 41
0.8130118781
 42
50.0
 43
0.0
 44
0.0
 50
0.0
 51
0.0
 71
     0
 72
   100
 73
     1
 74
     3
 75
     0
 76
     0
 77
     0
 78
     0
  0
ENDTAB
  0
TABLE
  2
LTYPE
  5
5
330
0
100
AcDbSymbolTable
 70
     6
  0
LTYPE
  5
14
330
5
100
AcDbSymbolTableRecord
100
AcDbLinetypeTableRecord
  2
BYBLOCK
 70
     0
  3

 72
    65
 73
     0
 40
0.0
  0
LTYPE
  5
15
330
5
100
AcDbSymbolTableRecord
100
AcDbLinetypeTableRecord
  2
BYLAYER
 70
     0
  3

 72
    65
 73
     0
 40
0.0
  0
LTYPE
  5
16
330
5
100
AcDbSymbolTableRecord
100
AcDbLinetypeTableRecord
  2
CONTINUOUS
 70
     0
  3
Solid line
 72
    65
 73
     0
 40
0.0
  0
LTYPE
  5
3F
330
5
100
AcDbSymbolTableRecord
100
AcDbLinetypeTableRecord
  2
HIDDEN
 70
     0
  3
Hidden __ __ __ __ __ __ __ __ __ __ __ __ __ __
 72
    65
 73
     2
 40
1.905
 49
1.27
 74
     0
 49
-0.635
 74
     0
  0
LTYPE
  5
40
330
5
100
AcDbSymbolTableRecord
100
AcDbLinetypeTableRecord
  2
PHANTOM
 70
     0
  3
Phantom ______  __  __  ______  __  __  ______
 72
    65
 73
     6
 40
12.7
 49
6.35
 74
     0
 49
-1.27
 74
     0
 49
1.27
 74
     0
 49
-1.27
 74
     0
 49
1.27
 74
     0
 49
-1.27
 74
     0
  0
LTYPE
  5
41
330
5
100
AcDbSymbolTableRecord
100
AcDbLinetypeTableRecord
  2
CENTER
 70
     0
  3
Center ____ _ ____ _ ____ _ ____ _ ____ _ ____
 72
    65
 73
     4
 40
10.16
 49
6.35
 74
     0
 49
-1.27
 74
     0
 49
1.27
 74
     0
 49
-1.27
 74
     0
  0
LTYPE
  5
42
330
5
100
AcDbSymbolTableRecord
100
AcDbLinetypeTableRecord
  2
CENTERX2
 70
     0
  3
Center (2x) ________  __  ________  __  _____
 72
    65
 73
     4
 40
20.32
 49
12.7
 74
     0
 49
-2.54
 74
     0
 49
2.54
 74
     0
 49
-2.54
 74
     0
  0
LTYPE
  5
43
330
5
100
AcDbSymbolTableRecord
100
AcDbLinetypeTableRecord
  2
DOT2
 70
     0
  3
Dot (.5x) ........................................
 72
    65
 73
     2
 40
0.635
 49
0.0
 74
     0
 49
-0.635
 74
     0
  0
ENDTAB
  0
TABLE
  2
LAYER
  5
2
330
0
100
AcDbSymbolTable
 70
     1
  0
LAYER
  5
10
330
2
100
AcDbSymbolTableRecord
100
AcDbLayerTableRecord
  2
0
 70
     0
 62
     7
  6
CONTINUOUS
  0
ENDTAB
  0
TABLE
  2
STYLE
  5
3
330
0
100
AcDbSymbolTable
 70
     1
  0
STYLE
  5
11
330
3
100
AcDbSymbolTableRecord
100
AcDbTextStyleTableRecord
  2
STANDARD
 70
     0
 40
0.0
 41
1.0
 50
0.0
 71
     0
 42
3.5
  3
txt
  4

  0
ENDTAB
  0
TABLE
  2
VIEW
  5
6
330
0
100
AcDbSymbolTable
 70
     0
  0
ENDTAB
  0
TABLE
  2
UCS
  5
7
330
0
100
AcDbSymbolTable
 70
     0
  0
ENDTAB
  0
TABLE
  2
APPID
  5
9
330
0
100
AcDbSymbolTable
 70
     1
  0
APPID
  5
12
330
9
100
AcDbSymbolTableRecord
100
AcDbRegAppTableRecord
  2
ACAD
 70
     0
  0
ENDTAB
  0
TABLE
  2
DIMSTYLE
  5
A
330
0
100
AcDbSymbolTable
 70
     1
  0
DIMSTYLE
105
27
330
A
100
AcDbSymbolTableRecord
100
AcDbDimStyleTableRecord
  2
ISO-25
 70
     0
  3

  4

  5

  6

  7

 40
1.0
 41
2.5
 42
0.625
 43
3.75
 44
1.25
 45
0.0
 46
0.0
 47
0.0
 48
0.0
140
2.5
141
2.5
142
0.0
143
0.0393700787
144
1.0
145
0.0
146
1.0
147
0.625
 71
     0
 72
     0
 73
     0
 74
     0
 75
     0
 76
     0
 77
     1
 78
     8
170
     0
171
     3
172
     1
173
     0
174
     0
175
     0
176
     0
177
     0
178
     0
270
     2
271
     2
272
     2
273
     2
274
     3
340
11
275
     0
280
     0
281
     0
282
     0
283
     0
284
     8
285
     0
286
     0
287
     3
288
     0
  0
ENDTAB
  0
TABLE
  2
BLOCK_RECORD
  5
1
330
0
100
AcDbSymbolTable
 70
     1
  0
BLOCK_RECORD
  5
1F
330
1
100
AcDbSymbolTableRecord
100
AcDbBlockTableRecord
  2
*MODEL_SPACE
  0
BLOCK_RECORD
  5
1B
330
1
100
AcDbSymbolTableRecord
100
AcDbBlockTableRecord
  2
*PAPER_SPACE
  0
BLOCK_RECORD
  5
23
330
1
100
AcDbSymbolTableRecord
100
AcDbBlockTableRecord
  2
*PAPER_SPACE0
  0
ENDTAB
  0
ENDSEC
  0
SECTION
  2
BLOCKS
  0
BLOCK
  5
20
330
1F
100
AcDbEntity
  8
0
100
AcDbBlockBegin
  2
*MODEL_SPACE
 70
     0
 10
0.0
 20
0.0
 30
0.0
  3
*MODEL_SPACE
  1

  0
ENDBLK
  5
21
330
1F
100
AcDbEntity
  8
0
100
AcDbBlockEnd
  0
BLOCK
  5
1C
330
1B
100
AcDbEntity
 67
     1
  8
0
100
AcDbBlockBegin
  2
*PAPER_SPACE
 70
     0
 10
0.0
 20
0.0
 30
0.0
  3
*PAPER_SPACE
  1

  0
ENDBLK
  5
1D
330
1B
100
AcDbEntity
 67
     1
  8
0
100
AcDbBlockEnd
  0
BLOCK
  5
24
330
23
100
AcDbEntity
  8
0
100
AcDbBlockBegin
  2
*PAPER_SPACE0
 70
     0
 10
0.0
 20
0.0
 30
0.0
  3
*PAPER_SPACE0
  1

  0
ENDBLK
  5
25
330
23
100
AcDbEntity
  8
0
100
AcDbBlockEnd
  0
ENDSEC
  0
SECTION
  2
ENTITIES
  0
LINE
  5
44
330
1F
100
AcDbEntity
  8
0
  6
CONTINUOUS
 62
     7
100
AcDbLine
 10
104.16728925
 20
32.18105
 30
0.0
 11
4.167188
 21
32.18105
 31
0.0
  0
LINE
  5
45
330
1F
100
AcDbEntity
  8
0
  6
CONTINUOUS
 62
     7
100
AcDbLine
 10
104.16728925
 20
155.1806075
 30
0.0
 11
104.16728925
 21
32.18105
 31
0.0
  0
LINE
  5
46
330
1F
100
AcDbEntity
  8
0
  6
CONTINUOUS
 62
     7
100
AcDbLine
 10
4.167188
 20
155.1806075
 30
0.0
 11
104.16728925
 21
155.1806075
 31
0.0
  0
LINE
  5
47
330
1F
100
AcDbEntity
  8
0
  6
CONTINUOUS
 62
     7
100
AcDbLine
 10
4.167188
 20
32.18105
 30
0.0
 11
4.167188
 21
155.1806075
 31
0.0
  0
LINE
  5
48
330
1F
100
AcDbEntity
  8
0
  6
CONTINUOUS
 62
     7
100
AcDbLine
 10
44.91577675
 20
146.42592875
 30
0.0
 11
47.422428
 21
146.42592875
 31
0.0
  0
LINE
  5
49
330
1F
100
AcDbEntity
  8
0
  6
CONTINUOUS
 62
     7
100
AcDbLine
 10
47.422428
 20
146.42592875
 30
0.0
 11
47.422428
 21
148.93258
 31
0.0
  0
LINE
  5
4A
330
1F
100
AcDbEntity
  8
0
  6
CONTINUOUS
 62
     7
100
AcDbLine
 10
47.422428
 20
148.93258
 30
0.0
 11
44.91577675
 21
148.93258
 31
0.0
  0
LINE
  5
4B
330
1F
100
AcDbEntity
  8
0
  6
CONTINUOUS
 62
     7
100
AcDbLine
 10
44.91577675
 20
148.93258
 30
0.0
 11
44.91577675
 21
146.42592875
 31
0.0
  0
LINE
  5
4C
330
1F
100
AcDbEntity
  8
0
  6
CONTINUOUS
 62
     7
100
AcDbLine
 10
77.412673
 20
147.4277625
 30
0.0
 11
79.9193255
 21
147.4277625
 31
0.0
  0
LINE
  5
4D
330
1F
100
AcDbEntity
  8
0
  6
CONTINUOUS
 62
     7
100
AcDbLine
 10
79.9193255
 20
147.4277625
 30
0.0
 11
79.9193255
 21
149.93441375
 31
0.0
  0
LINE
  5
4E
330
1F
100
AcDbEntity
  8
0
  6
CONTINUOUS
 62
     7
100
AcDbLine
 10
79.9193255
 20
149.93441375
 30
0.0
 11
77.412673
 21
149.93441375
 31
0.0
  0
LINE
  5
4F
330
1F
100
AcDbEntity
  8
0
  6
CONTINUOUS
 62
     7
100
AcDbLine
 10
77.412673
 20
149.93441375
 30
0.0
 11
77.412673
 21
147.4277625
 31
0.0
  0
LINE
  5
50
330
1F
100
AcDbEntity
  8
0
  6
CONTINUOUS
 62
     7
100
AcDbLine
 10
6.326573
 20
141.97211
 30
0.0
 11
8.35917925
 21
141.97211
 31
0.0
  0
LINE
  5
51
330
1F
100
AcDbEntity
  8
0
  6
CONTINUOUS
 62
     7
100
AcDbLine
 10
8.35917925
 20
141.97211
 30
0.0
 11
8.35917925
 21
144.004715
 31
0.0
  0
LINE
  5
52
330
1F
100
AcDbEntity
  8
0
  6
CONTINUOUS
 62
     7
100
AcDbLine
 10
8.35917925
 20
144.004715
 30
0.0
 11
6.326573
 21
144.004715
 31
0.0
  0
LINE
  5
53
330
1F
100
AcDbEntity
  8
0
  6
CONTINUOUS
 62
     7
100
AcDbLine
 10
6.326573
 20
144.004715
 30
0.0
 11
6.326573
 21
141.97211
 31
0.0
  0
LINE
  5
54
330
1F
100
AcDbEntity
  8
0
  6
CONTINUOUS
 62
     7
100
AcDbLine
 10
6.326573
 20
121.65293625
 30
0.0
 11
8.35917925
 21
121.65293625
 31
0.0
  0
LINE
  5
55
330
1F
100
AcDbEntity
  8
0
  6
CONTINUOUS
 62
     7
100
AcDbLine
 10
8.35917925
 20
121.65293625
 30
0.0
 11
8.35917925
 21
123.6855425
 31
0.0
  0
LINE
  5
56
330
1F
100
AcDbEntity
  8
0
  6
CONTINUOUS
 62
     7
100
AcDbLine
 10
8.35917925
 20
123.6855425
 30
0.0
 11
6.326573
 21
123.6855425
 31
0.0
  0
LINE
  5
57
330
1F
100
AcDbEntity
  8
0
  6
CONTINUOUS
 62
     7
100
AcDbLine
 10
6.326573
 20
123.6855425
 30
0.0
 11
6.326573
 21
121.65293625
 31
0.0
  0
LINE
  5
58
330
1F
100
AcDbEntity
  8
0
  6
CONTINUOUS
 62
     7
100
AcDbLine
 10
6.326573
 20
101.332385
 30
0.0
 11
8.35917925
 21
101.332385
 31
0.0
  0
LINE
  5
59
330
1F
100
AcDbEntity
  8
0
  6
CONTINUOUS
 62
     7
100
AcDbLine
 10
8.35917925
 20
101.332385
 30
0.0
 11
8.35917925
 21
103.36499125
 31
0.0
  0
LINE
  5
5A
330
1F
100
AcDbEntity
  8
0
  6
CONTINUOUS
 62
     7
100
AcDbLine
 10
8.35917925
 20
103.36499125
 30
0.0
 11
6.326573
 21
103.36499125
 31
0.0
  0
LINE
  5
5B
330
1F
100
AcDbEntity
  8
0
  6
CONTINUOUS
 62
     7
100
AcDbLine
 10
6.326573
 20
103.36499125
 30
0.0
 11
6.326573
 21
101.332385
 31
0.0
  0
LINE
  5
5C
330
1F
100
AcDbEntity
  8
0
  6
CONTINUOUS
 62
     7
100
AcDbLine
 10
6.326573
 20
81.01183375
 30
0.0
 11
8.35917925
 21
81.01183375
 31
0.0
  0
LINE
  5
5D
330
1F
100
AcDbEntity
  8
0
  6
CONTINUOUS
 62
     7
100
AcDbLine
 10
8.35917925
 20
81.01183375
 30
0.0
 11
8.35917925
 21
83.04444
 31
0.0
  0
LINE
  5
5E
330
1F
100
AcDbEntity
  8
0
  6
CONTINUOUS
 62
     7
100
AcDbLine
 10
8.35917925
 20
83.04444
 30
0.0
 11
6.326573
 21
83.04444
 31
0.0
  0
LINE
  5
5F
330
1F
100
AcDbEntity
  8
0
  6
CONTINUOUS
 62
     7
100
AcDbLine
 10
6.326573
 20
83.04444
 30
0.0
 11
6.326573
 21
81.01183375
 31
0.0
  0
LINE
  5
60
330
1F
100
AcDbEntity
  8
0
  6
CONTINUOUS
 62
     7
100
AcDbLine
 10
6.326573
 20
60.69266
 30
0.0
 11
8.35917925
 21
60.69266
 31
0.0
  0
LINE
  5
61
330
1F
100
AcDbEntity
  8
0
  6
CONTINUOUS
 62
     7
100
AcDbLine
 10
8.35917925
 20
60.69266
 30
0.0
 11
8.35917925
 21
62.7252675
 31
0.0
  0
LINE
  5
62
330
1F
100
AcDbEntity
  8
0
  6
CONTINUOUS
 62
     7
100
AcDbLine
 10
8.35917925
 20
62.7252675
 30
0.0
 11
6.326573
 21
62.7252675
 31
0.0
  0
LINE
  5
63
330
1F
100
AcDbEntity
  8
0
  6
CONTINUOUS
 62
     7
100
AcDbLine
 10
6.326573
 20
62.7252675
 30
0.0
 11
6.326573
 21
60.69266
 31
0.0
  0
LINE
  5
64
330
1F
100
AcDbEntity
  8
0
  6
CONTINUOUS
 62
     7
100
AcDbLine
 10
85.92205925
 20
148.4144375
 30
0.0
 11
87.9546655
 21
148.4144375
 31
0.0
  0
LINE
  5
65
330
1F
100
AcDbEntity
  8
0
  6
CONTINUOUS
 62
     7
100
AcDbLine
 10
87.9546655
 20
148.4144375
 30
0.0
 11
87.9546655
 21
150.44704375
 31
0.0
  0
LINE
  5
66
330
1F
100
AcDbEntity
  8
0
  6
CONTINUOUS
 62
     7
100
AcDbLine
 10
87.9546655
 20
150.44704375
 30
0.0
 11
85.92205925
 21
150.44704375
 31
0.0
  0
LINE
  5
67
330
1F
100
AcDbEntity
  8
0
  6
CONTINUOUS
 62
     7
100
AcDbLine
 10
85.92205925
 20
150.44704375
 30
0.0
 11
85.92205925
 21
148.4144375
 31
0.0
  0
LINE
  5
68
330
1F
100
AcDbEntity
  8
0
  6
CONTINUOUS
 62
     7
100
AcDbLine
 10
6.326573
 20
50.532385
 30
0.0
 11
8.35917925
 21
50.532385
 31
0.0
  0
LINE
  5
69
330
1F
100
AcDbEntity
  8
0
  6
CONTINUOUS
 62
     7
100
AcDbLine
 10
8.35917925
 20
50.532385
 30
0.0
 11
8.35917925
 21
52.56499125
 31
0.0
  0
LINE
  5
6A
330
1F
100
AcDbEntity
  8
0
  6
CONTINUOUS
 62
     7
100
AcDbLine
 10
8.35917925
 20
52.56499125
 30
0.0
 11
6.326573
 21
52.56499125
 31
0.0
  0
LINE
  5
6B
330
1F
100
AcDbEntity
  8
0
  6
CONTINUOUS
 62
     7
100
AcDbLine
 10
6.326573
 20
52.56499125
 30
0.0
 11
6.326573
 21
50.532385
 31
0.0
  0
LINE
  5
6C
330
1F
100
AcDbEntity
  8
0
  6
CONTINUOUS
 62
     7
100
AcDbLine
 10
6.326573
 20
42.91183375
 30
0.0
 11
8.35917925
 21
42.91183375
 31
0.0
  0
LINE
  5
6D
330
1F
100
AcDbEntity
  8
0
  6
CONTINUOUS
 62
     7
100
AcDbLine
 10
8.35917925
 20
42.91183375
 30
0.0
 11
8.35917925
 21
44.94444
 31
0.0
  0
LINE
  5
6E
330
1F
100
AcDbEntity
  8
0
  6
CONTINUOUS
 62
     7
100
AcDbLine
 10
8.35917925
 20
44.94444
 30
0.0
 11
6.326573
 21
44.94444
 31
0.0
  0
LINE
  5
6F
330
1F
100
AcDbEntity
  8
0
  6
CONTINUOUS
 62
     7
100
AcDbLine
 10
6.326573
 20
44.94444
 30
0.0
 11
6.326573
 21
42.91183375
 31
0.0
  0
LINE
  5
70
330
1F
100
AcDbEntity
  8
0
  6
CONTINUOUS
 62
     7
100
AcDbLine
 10
52.87256925
 20
50.04180375
 30
0.0
 11
54.38152175
 21
50.04180375
 31
0.0
  0
LINE
  5
71
330
1F
100
AcDbEntity
  8
0
  6
CONTINUOUS
 62
     7
100
AcDbLine
 10
54.38152175
 20
50.04180375
 30
0.0
 11
54.38152175
 21
51.550755
 31
0.0
  0
LINE
  5
72
330
1F
100
AcDbEntity
  8
0
  6
CONTINUOUS
 62
     7
100
AcDbLine
 10
54.38152175
 20
51.550755
 30
0.0
 11
52.87256925
 21
51.550755
 31
0.0
  0
LINE
  5
73
330
1F
100
AcDbEntity
  8
0
  6
CONTINUOUS
 62
     7
100
AcDbLine
 10
52.87256925
 20
51.550755
 30
0.0
 11
52.87256925
 21
50.04180375
 31
0.0
  0
LINE
  5
74
330
1F
100
AcDbEntity
  8
0
  6
CONTINUOUS
 62
     7
100
AcDbLine
 10
58.42192925
 20
130.1637
 30
0.0
 11
60.4545355
 21
130.1637
 31
0.0
  0
LINE
  5
75
330
1F
100
AcDbEntity
  8
0
  6
CONTINUOUS
 62
     7
100
AcDbLine
 10
60.4545355
 20
130.1637
 30
0.0
 11
60.4545355
 21
132.19630625
 31
0.0
  0
LINE
  5
76
330
1F
100
AcDbEntity
  8
0
  6
CONTINUOUS
 62
     7
100
AcDbLine
 10
60.4545355
 20
132.19630625
 30
0.0
 11
58.42192925
 21
132.19630625
 31
0.0
  0
LINE
  5
77
330
1F
100
AcDbEntity
  8
0
  6
CONTINUOUS
 62
     7
100
AcDbLine
 10
58.42192925
 20
132.19630625
 30
0.0
 11
58.42192925
 21
130.1637
 31
0.0
  0
LINE
  5
78
330
1F
100
AcDbEntity
  8
0
  6
CONTINUOUS
 62
     7
100
AcDbLine
 10
97.88067425
 20
141.14390875
 30
0.0
 11
99.9132805
 21
141.14390875
 31
0.0
  0
LINE
  5
79
330
1F
100
AcDbEntity
  8
0
  6
CONTINUOUS
 62
     7
100
AcDbLine
 10
99.9132805
 20
141.14390875
 30
0.0
 11
99.9132805
 21
143.176515
 31
0.0
  0
LINE
  5
7A
330
1F
100
AcDbEntity
  8
0
  6
CONTINUOUS
 62
     7
100
AcDbLine
 10
99.9132805
 20
143.176515
 30
0.0
 11
97.88067425
 21
143.176515
 31
0.0
  0
LINE
  5
7B
330
1F
100
AcDbEntity
  8
0
  6
CONTINUOUS
 62
     7
100
AcDbLine
 10
97.88067425
 20
143.176515
 30
0.0
 11
97.88067425
 21
141.14390875
 31
0.0
  0
LINE
  5
7C
330
1F
100
AcDbEntity
  8
0
  6
CONTINUOUS
 62
     7
100
AcDbLine
 10
48.43804175
 20
37.30459625
 30
0.0
 11
48.43804175
 21
37.05517125
 31
0.0
  0
LINE
  5
7D
330
1F
100
AcDbEntity
  8
0
  6
CONTINUOUS
 62
     7
100
AcDbLine
 10
49.94561675
 20
37.05517125
 30
0.0
 11
49.94561675
 21
37.30459625
 31
0.0
  0
LINE
  5
7E
330
1F
100
AcDbEntity
  8
0
  6
CONTINUOUS
 62
     7
100
AcDbLine
 10
52.887728
 20
37.30459625
 30
0.0
 11
52.887728
 21
37.05517125
 31
0.0
  0
LINE
  5
7F
330
1F
100
AcDbEntity
  8
0
  6
CONTINUOUS
 62
     7
100
AcDbLine
 10
54.39667925
 20
37.05517125
 30
0.0
 11
54.39667925
 21
37.30459625
 31
0.0
  0
LINE
  5
80
330
1F
100
AcDbEntity
  8
0
  6
CONTINUOUS
 62
     7
100
AcDbLine
 10
54.31261925
 20
34.09928
 30
0.0
 11
54.31261925
 21
33.89946375
 31
0.0
  0
LINE
  5
81
330
1F
100
AcDbEntity
  8
0
  6
CONTINUOUS
 62
     7
100
AcDbLine
 10
56.72005175
 20
33.89946375
 30
0.0
 11
56.72005175
 21
34.09928
 31
0.0
  0
LINE
  5
82
330
1F
100
AcDbEntity
  8
0
  6
CONTINUOUS
 62
     7
100
AcDbLine
 10
46.11329175
 20
34.09928
 30
0.0
 11
46.11329175
 21
33.89946375
 31
0.0
  0
LINE
  5
83
330
1F
100
AcDbEntity
  8
0
  6
CONTINUOUS
 62
     7
100
AcDbLine
 10
48.5207255
 20
33.89946375
 30
0.0
 11
48.5207255
 21
34.09928
 31
0.0
  0
LINE
  5
84
330
1F
100
AcDbEntity
  8
0
  6
CONTINUOUS
 62
     7
100
AcDbLine
 10
82.9606555
 20
49.0165425
 30
0.0
 11
84.99326175
 21
49.0165425
 31
0.0
  0
LINE
  5
85
330
1F
100
AcDbEntity
  8
0
  6
CONTINUOUS
 62
     7
100
AcDbLine
 10
84.99326175
 20
49.0165425
 30
0.0
 11
84.99326175
 21
51.04915
 31
0.0
  0
LINE
  5
86
330
1F
100
AcDbEntity
  8
0
  6
CONTINUOUS
 62
     7
100
AcDbLine
 10
84.99326175
 20
51.04915
 30
0.0
 11
82.9606555
 21
51.04915
 31
0.0
  0
LINE
  5
87
330
1F
100
AcDbEntity
  8
0
  6
CONTINUOUS
 62
     7
100
AcDbLine
 10
82.9606555
 20
51.04915
 30
0.0
 11
82.9606555
 21
49.0165425
 31
0.0
  0
LINE
  5
88
330
1F
100
AcDbEntity
  8
0
  6
CONTINUOUS
 62
     7
100
AcDbLine
 10
29.882758
 20
70.91632625
 30
0.0
 11
31.91536425
 21
70.91632625
 31
0.0
  0
LINE
  5
89
330
1F
100
AcDbEntity
  8
0
  6
CONTINUOUS
 62
     7
100
AcDbLine
 10
31.91536425
 20
70.91632625
 30
0.0
 11
31.91536425
 21
72.9489325
 31
0.0
  0
LINE
  5
8A
330
1F
100
AcDbEntity
  8
0
  6
CONTINUOUS
 62
     7
100
AcDbLine
 10
31.91536425
 20
72.9489325
 30
0.0
 11
29.882758
 21
72.9489325
 31
0.0
  0
LINE
  5
8B
330
1F
100
AcDbEntity
  8
0
  6
CONTINUOUS
 62
     7
100
AcDbLine
 10
29.882758
 20
72.9489325
 30
0.0
 11
29.882758
 21
70.91632625
 31
0.0
  0
LINE
  5
8C
330
1F
100
AcDbEntity
  8
0
  6
CONTINUOUS
 62
     7
100
AcDbLine
 10
29.882758
 20
68.16576125
 30
0.0
 11
31.91536425
 21
68.16576125
 31
0.0
  0
LINE
  5
8D
330
1F
100
AcDbEntity
  8
0
  6
CONTINUOUS
 62
     7
100
AcDbLine
 10
31.91536425
 20
68.16576125
 30
0.0
 11
31.91536425
 21
70.19836875
 31
0.0
  0
LINE
  5
8E
330
1F
100
AcDbEntity
  8
0
  6
CONTINUOUS
 62
     7
100
AcDbLine
 10
31.91536425
 20
70.19836875
 30
0.0
 11
29.882758
 21
70.19836875
 31
0.0
  0
LINE
  5
8F
330
1F
100
AcDbEntity
  8
0
  6
CONTINUOUS
 62
     7
100
AcDbLine
 10
29.882758
 20
70.19836875
 30
0.0
 11
29.882758
 21
68.16576125
 31
0.0
  0
LINE
  5
90
330
1F
100
AcDbEntity
  8
0
  6
CONTINUOUS
 62
     7
100
AcDbLine
 10
29.882758
 20
108.66492625
 30
0.0
 11
31.91536425
 21
108.66492625
 31
0.0
  0
LINE
  5
91
330
1F
100
AcDbEntity
  8
0
  6
CONTINUOUS
 62
     7
100
AcDbLine
 10
31.91536425
 20
108.66492625
 30
0.0
 11
31.91536425
 21
110.6975325
 31
0.0
  0
LINE
  5
92
330
1F
100
AcDbEntity
  8
0
  6
CONTINUOUS
 62
     7
100
AcDbLine
 10
31.91536425
 20
110.6975325
 30
0.0
 11
29.882758
 21
110.6975325
 31
0.0
  0
LINE
  5
93
330
1F
100
AcDbEntity
  8
0
  6
CONTINUOUS
 62
     7
100
AcDbLine
 10
29.882758
 20
110.6975325
 30
0.0
 11
29.882758
 21
108.66492625
 31
0.0
  0
LINE
  5
94
330
1F
100
AcDbEntity
  8
0
  6
CONTINUOUS
 62
     7
100
AcDbLine
 10
29.882758
 20
111.4141125
 30
0.0
 11
31.91536425
 21
111.4141125
 31
0.0
  0
LINE
  5
95
330
1F
100
AcDbEntity
  8
0
  6
CONTINUOUS
 62
     7
100
AcDbLine
 10
31.91536425
 20
111.4141125
 30
0.0
 11
31.91536425
 21
113.44671875
 31
0.0
  0
LINE
  5
96
330
1F
100
AcDbEntity
  8
0
  6
CONTINUOUS
 62
     7
100
AcDbLine
 10
31.91536425
 20
113.44671875
 30
0.0
 11
29.882758
 21
113.44671875
 31
0.0
  0
LINE
  5
97
330
1F
100
AcDbEntity
  8
0
  6
CONTINUOUS
 62
     7
100
AcDbLine
 10
29.882758
 20
113.44671875
 30
0.0
 11
29.882758
 21
111.4141125
 31
0.0
  0
LINE
  5
98
330
1F
100
AcDbEntity
  8
0
  6
CONTINUOUS
 62
     7
100
AcDbLine
 10
29.882758
 20
91.16521875
 30
0.0
 11
31.91536425
 21
91.16521875
 31
0.0
  0
LINE
  5
99
330
1F
100
AcDbEntity
  8
0
  6
CONTINUOUS
 62
     7
100
AcDbLine
 10
31.91536425
 20
91.16521875
 30
0.0
 11
31.91536425
 21
93.197825
 31
0.0
  0
LINE
  5
9A
330
1F
100
AcDbEntity
  8
0
  6
CONTINUOUS
 62
     7
100
AcDbLine
 10
31.91536425
 20
93.197825
 30
0.0
 11
29.882758
 21
93.197825
 31
0.0
  0
LINE
  5
9B
330
1F
100
AcDbEntity
  8
0
  6
CONTINUOUS
 62
     7
100
AcDbLine
 10
29.882758
 20
93.197825
 30
0.0
 11
29.882758
 21
91.16521875
 31
0.0
  0
LINE
  5
9C
330
1F
100
AcDbEntity
  8
0
  6
CONTINUOUS
 62
     7
100
AcDbLine
 10
29.882758
 20
88.414655
 30
0.0
 11
31.91536425
 21
88.414655
 31
0.0
  0
LINE
  5
9D
330
1F
100
AcDbEntity
  8
0
  6
CONTINUOUS
 62
     7
100
AcDbLine
 10
31.91536425
 20
88.414655
 30
0.0
 11
31.91536425
 21
90.44726125
 31
0.0
  0
LINE
  5
9E
330
1F
100
AcDbEntity
  8
0
  6
CONTINUOUS
 62
     7
100
AcDbLine
 10
31.91536425
 20
90.44726125
 30
0.0
 11
29.882758
 21
90.44726125
 31
0.0
  0
LINE
  5
9F
330
1F
100
AcDbEntity
  8
0
  6
CONTINUOUS
 62
     7
100
AcDbLine
 10
29.882758
 20
90.44726125
 30
0.0
 11
29.882758
 21
88.414655
 31
0.0
  0
LINE
  5
A0
330
1F
100
AcDbEntity
  8
0
  6
CONTINUOUS
 62
     7
100
AcDbLine
 10
29.882758
 20
128.6657725
 30
0.0
 11
31.91536425
 21
128.6657725
 31
0.0
  0
LINE
  5
A1
330
1F
100
AcDbEntity
  8
0
  6
CONTINUOUS
 62
     7
100
AcDbLine
 10
31.91536425
 20
128.6657725
 30
0.0
 11
31.91536425
 21
130.69837875
 31
0.0
  0
LINE
  5
A2
330
1F
100
AcDbEntity
  8
0
  6
CONTINUOUS
 62
     7
100
AcDbLine
 10
31.91536425
 20
130.69837875
 30
0.0
 11
29.882758
 21
130.69837875
 31
0.0
  0
LINE
  5
A3
330
1F
100
AcDbEntity
  8
0
  6
CONTINUOUS
 62
     7
100
AcDbLine
 10
29.882758
 20
130.69837875
 30
0.0
 11
29.882758
 21
128.6657725
 31
0.0
  0
LINE
  5
A4
330
1F
100
AcDbEntity
  8
0
  6
CONTINUOUS
 62
     7
100
AcDbLine
 10
29.882758
 20
131.4163375
 30
0.0
 11
31.91536425
 21
131.4163375
 31
0.0
  0
LINE
  5
A5
330
1F
100
AcDbEntity
  8
0
  6
CONTINUOUS
 62
     7
100
AcDbLine
 10
31.91536425
 20
131.4163375
 30
0.0
 11
31.91536425
 21
133.44894375
 31
0.0
  0
LINE
  5
A6
330
1F
100
AcDbEntity
  8
0
  6
CONTINUOUS
 62
     7
100
AcDbLine
 10
31.91536425
 20
133.44894375
 30
0.0
 11
29.882758
 21
133.44894375
 31
0.0
  0
LINE
  5
A7
330
1F
100
AcDbEntity
  8
0
  6
CONTINUOUS
 62
     7
100
AcDbLine
 10
29.882758
 20
133.44894375
 30
0.0
 11
29.882758
 21
131.4163375
 31
0.0
  0
LINE
  5
A8
330
1F
100
AcDbEntity
  8
0
  6
CONTINUOUS
 62
     7
100
AcDbLine
 10
48.16105675
 20
135.14530875
 30
0.0
 11
50.193663
 21
135.14530875
 31
0.0
  0
LINE
  5
A9
330
1F
100
AcDbEntity
  8
0
  6
CONTINUOUS
 62
     7
100
AcDbLine
 10
50.193663
 20
135.14530875
 30
0.0
 11
50.193663
 21
137.177915
 31
0.0
  0
LINE
  5
AA
330
1F
100
AcDbEntity
  8
0
  6
CONTINUOUS
 62
     7
100
AcDbLine
 10
50.193663
 20
137.177915
 30
0.0
 11
48.16105675
 21
137.177915
 31
0.0
  0
LINE
  5
AB
330
1F
100
AcDbEntity
  8
0
  6
CONTINUOUS
 62
     7
100
AcDbLine
 10
48.16105675
 20
137.177915
 30
0.0
 11
48.16105675
 21
135.14530875
 31
0.0
  0
LINE
  5
AC
330
1F
100
AcDbEntity
  8
0
  6
CONTINUOUS
 62
     7
100
AcDbLine
 10
11.40739925
 20
121.65293625
 30
0.0
 11
13.44000675
 21
121.65293625
 31
0.0
  0
LINE
  5
AD
330
1F
100
AcDbEntity
  8
0
  6
CONTINUOUS
 62
     7
100
AcDbLine
 10
13.44000675
 20
121.65293625
 30
0.0
 11
13.44000675
 21
123.6855425
 31
0.0
  0
LINE
  5
AE
330
1F
100
AcDbEntity
  8
0
  6
CONTINUOUS
 62
     7
100
AcDbLine
 10
13.44000675
 20
123.6855425
 30
0.0
 11
11.40739925
 21
123.6855425
 31
0.0
  0
LINE
  5
AF
330
1F
100
AcDbEntity
  8
0
  6
CONTINUOUS
 62
     7
100
AcDbLine
 10
11.40739925
 20
123.6855425
 30
0.0
 11
11.40739925
 21
121.65293625
 31
0.0
  0
LINE
  5
B0
330
1F
100
AcDbEntity
  8
0
  6
CONTINUOUS
 62
     7
100
AcDbLine
 10
104.16728925
 20
32.18105
 30
0.0
 11
4.167188
 21
32.18105
 31
0.0
  0
LINE
  5
B1
330
1F
100
AcDbEntity
  8
0
  6
CONTINUOUS
 62
     7
100
AcDbLine
 10
104.16728925
 20
155.1806075
 30
0.0
 11
104.16728925
 21
32.18105
 31
0.0
  0
LINE
  5
B2
330
1F
100
AcDbEntity
  8
0
  6
CONTINUOUS
 62
     7
100
AcDbLine
 10
4.167188
 20
155.1806075
 30
0.0
 11
104.16728925
 21
155.1806075
 31
0.0
  0
LINE
  5
B3
330
1F
100
AcDbEntity
  8
0
  6
CONTINUOUS
 62
     7
100
AcDbLine
 10
4.167188
 20
32.18105
 30
0.0
 11
4.167188
 21
155.1806075
 31
0.0
  0
LWPOLYLINE
  5
B4
330
1F
100
AcDbEntity
  8
0
  6
CONTINUOUS
 62
     7
100
AcDbPolyline
 90
        5
 70
   128
 43
0.0
 10
55.1711320877
 20
147.67994375
 10
54.7013119453
 20
148.8077815625
 10
53.667697375
 20
149.1837275
 10
52.6340828047
 20
148.8077815625
 10
52.164258
 20
147.67994375
  0
LWPOLYLINE
  5
B5
330
1F
100
AcDbEntity
  8
0
  6
CONTINUOUS
 62
     7
100
AcDbPolyline
 90
        5
 70
   128
 43
0.0
 10
52.1642565727
 20
147.67994375
 10
52.6340828047
 20
146.5521059375
 10
53.667697375
 20
146.17616
 10
54.7013119453
 20
146.5521059375
 10
55.17113675
 20
147.67994375
  0
LWPOLYLINE
  5
B6
330
1F
100
AcDbEntity
  8
0
  6
CONTINUOUS
 62
     7
100
AcDbPolyline
 90
        5
 70
   128
 43
0.0
 10
75.1705765724
 20
148.6804
 10
74.7007805
 20
149.8082378125
 10
73.6671655
 20
150.18418375
 10
72.6335505
 20
149.8082378125
 10
72.1637255
 20
148.6804
  0
LWPOLYLINE
  5
B7
330
1F
100
AcDbEntity
  8
0
  6
CONTINUOUS
 62
     7
100
AcDbPolyline
 90
        5
 70
   128
 43
0.0
 10
72.1637010574
 20
148.6804
 10
72.6335505
 20
147.5525614844
 10
73.6671655
 20
147.1766153125
 10
74.7007805
 20
147.5525614844
 10
75.1706055
 20
148.6804
  0
LWPOLYLINE
  5
B8
330
1F
100
AcDbEntity
  8
0
  6
CONTINUOUS
 62
     7
100
AcDbPolyline
 90
        5
 70
   128
 43
0.0
 10
8.3591789007
 20
140.44799875
 10
8.0415845234
 20
141.2099682812
 10
7.342876125
 20
141.463958125
 10
6.6441677266
 20
141.2099682812
 10
6.326573
 20
140.44799875
  0
LWPOLYLINE
  5
B9
330
1F
100
AcDbEntity
  8
0
  6
CONTINUOUS
 62
     7
100
AcDbPolyline
 90
        5
 70
   128
 43
0.0
 10
6.3265711069
 20
140.44799875
 10
6.6441677266
 20
139.6860299219
 10
7.342876125
 20
139.4320403125
 10
8.0415845234
 20
139.6860299219
 10
8.35917925
 20
140.44799875
  0
LWPOLYLINE
  5
BA
330
1F
100
AcDbEntity
  8
0
  6
CONTINUOUS
 62
     7
100
AcDbPolyline
 90
        5
 70
   128
 43
0.0
 10
8.3591789007
 20
137.908275
 10
8.0415845234
 20
138.6702438281
 10
7.342876125
 20
138.9242334375
 10
6.6441677266
 20
138.6702438281
 10
6.326573
 20
137.908275
  0
LWPOLYLINE
  5
BB
330
1F
100
AcDbEntity
  8
0
  6
CONTINUOUS
 62
     7
100
AcDbPolyline
 90
        5
 70
   128
 43
0.0
 10
6.3265711069
 20
137.908275
 10
6.6441677266
 20
137.1463061719
 10
7.342876125
 20
136.8923165625
 10
8.0415845234
 20
137.1463061719
 10
8.35917925
 20
137.908275
  0
LWPOLYLINE
  5
BC
330
1F
100
AcDbEntity
  8
0
  6
CONTINUOUS
 62
     7
100
AcDbPolyline
 90
        5
 70
   128
 43
0.0
 10
8.3591789007
 20
135.36855
 10
8.0415845234
 20
136.1305195313
 10
7.342876125
 20
136.384509375
 10
6.6441677266
 20
136.1305195313
 10
6.326573
 20
135.36855
  0
LWPOLYLINE
  5
BD
330
1F
100
AcDbEntity
  8
0
  6
CONTINUOUS
 62
     7
100
AcDbPolyline
 90
        5
 70
   128
 43
0.0
 10
6.3265711069
 20
135.36855
 10
6.6441677266
 20
134.6065811719
 10
7.342876125
 20
134.3525915625
 10
8.0415845234
 20
134.6065811719
 10
8.35917925
 20
135.36855
  0
LWPOLYLINE
  5
BE
330
1F
100
AcDbEntity
  8
0
  6
CONTINUOUS
 62
     7
100
AcDbPolyline
 90
        5
 70
   128
 43
0.0
 10
8.3591789007
 20
132.82882625
 10
8.0415845234
 20
133.5907950781
 10
7.342876125
 20
133.8447846875
 10
6.6441677266
 20
133.5907950781
 10
6.326573
 20
132.82882625
  0
LWPOLYLINE
  5
BF
330
1F
100
AcDbEntity
  8
0
  6
CONTINUOUS
 62
     7
100
AcDbPolyline
 90
        5
 70
   128
 43
0.0
 10
6.3265711069
 20
132.82882625
 10
6.6441677266
 20
132.0668574219
 10
7.342876125
 20
131.8128678125
 10
8.0415845234
 20
132.0668574219
 10
8.35917925
 20
132.82882625
  0
LWPOLYLINE
  5
C0
330
1F
100
AcDbEntity
  8
0
  6
CONTINUOUS
 62
     7
100
AcDbPolyline
 90
        5
 70
   128
 43
0.0
 10
8.3591789007
 20
130.28910125
 10
8.0415845234
 20
131.0510707812
 10
7.342876125
 20
131.305060625
 10
6.6441677266
 20
131.0510707812
 10
6.326573
 20
130.28910125
  0
LWPOLYLINE
  5
C1
330
1F
100
AcDbEntity
  8
0
  6
CONTINUOUS
 62
     7
100
AcDbPolyline
 90
        5
 70
   128
 43
0.0
 10
6.3265711069
 20
130.28910125
 10
6.6441677266
 20
129.5263575781
 10
7.342876125
 20
129.2721096875
 10
8.0415845234
 20
129.5263575781
 10
8.35917925
 20
130.28910125
  0
LWPOLYLINE
  5
C2
330
1F
100
AcDbEntity
  8
0
  6
CONTINUOUS
 62
     7
100
AcDbPolyline
 90
        5
 70
   128
 43
0.0
 10
8.3591789007
 20
127.74799875
 10
8.0415845234
 20
128.5099682812
 10
7.342876125
 20
128.763958125
 10
6.6441677266
 20
128.5099682812
 10
6.326573
 20
127.74799875
  0
LWPOLYLINE
  5
C3
330
1F
100
AcDbEntity
  8
0
  6
CONTINUOUS
 62
     7
100
AcDbPolyline
 90
        5
 70
   128
 43
0.0
 10
6.3265711069
 20
127.74799875
 10
6.6441677266
 20
126.9860299219
 10
7.342876125
 20
126.7320403125
 10
8.0415845234
 20
126.9860299219
 10
8.35917925
 20
127.74799875
  0
LWPOLYLINE
  5
C4
330
1F
100
AcDbEntity
  8
0
  6
CONTINUOUS
 62
     7
100
AcDbPolyline
 90
        5
 70
   128
 43
0.0
 10
8.3591789007
 20
120.12882625
 10
8.0415845234
 20
120.8907950781
 10
7.342876125
 20
121.1447846875
 10
6.6441677266
 20
120.8907950781
 10
6.326573
 20
120.12882625
  0
LWPOLYLINE
  5
C5
330
1F
100
AcDbEntity
  8
0
  6
CONTINUOUS
 62
     7
100
AcDbPolyline
 90
        5
 70
   128
 43
0.0
 10
6.3265711069
 20
120.12882625
 10
6.6441677266
 20
119.3668574219
 10
7.342876125
 20
119.1128678125
 10
8.0415845234
 20
119.3668574219
 10
8.35917925
 20
120.12882625
  0
LWPOLYLINE
  5
C6
330
1F
100
AcDbEntity
  8
0
  6
CONTINUOUS
 62
     7
100
AcDbPolyline
 90
        5
 70
   128
 43
0.0
 10
8.3591789007
 20
117.58910125
 10
8.0415845234
 20
118.3510707813
 10
7.342876125
 20
118.605060625
 10
6.6441677266
 20
118.3510707813
 10
6.326573
 20
117.58910125
  0
LWPOLYLINE
  5
C7
330
1F
100
AcDbEntity
  8
0
  6
CONTINUOUS
 62
     7
100
AcDbPolyline
 90
        5
 70
   128
 43
0.0
 10
6.3265711069
 20
117.58910125
 10
6.6441677266
 20
116.8263575781
 10
7.342876125
 20
116.5721096875
 10
8.0415845234
 20
116.8263575781
 10
8.35917925
 20
117.58910125
  0
LWPOLYLINE
  5
C8
330
1F
100
AcDbEntity
  8
0
  6
CONTINUOUS
 62
     7
100
AcDbPolyline
 90
        5
 70
   128
 43
0.0
 10
8.3591789007
 20
115.04799875
 10
8.0415845234
 20
115.8099682813
 10
7.342876125
 20
116.063958125
 10
6.6441677266
 20
115.8099682813
 10
6.326573
 20
115.04799875
  0
LWPOLYLINE
  5
C9
330
1F
100
AcDbEntity
  8
0
  6
CONTINUOUS
 62
     7
100
AcDbPolyline
 90
        5
 70
   128
 43
0.0
 10
6.3265711069
 20
115.04799875
 10
6.6441677266
 20
114.2860299219
 10
7.342876125
 20
114.0320403125
 10
8.0415845234
 20
114.2860299219
 10
8.35917925
 20
115.04799875
  0
LWPOLYLINE
  5
CA
330
1F
100
AcDbEntity
  8
0
  6
CONTINUOUS
 62
     7
100
AcDbPolyline
 90
        5
 70
   128
 43
0.0
 10
8.3591789007
 20
112.508275
 10
8.0415845234
 20
113.2702438281
 10
7.342876125
 20
113.5242334375
 10
6.6441677266
 20
113.2702438281
 10
6.326573
 20
112.508275
  0
LWPOLYLINE
  5
CB
330
1F
100
AcDbEntity
  8
0
  6
CONTINUOUS
 62
     7
100
AcDbPolyline
 90
        5
 70
   128
 43
0.0
 10
6.3265711069
 20
112.508275
 10
6.6441677266
 20
111.7463061719
 10
7.342876125
 20
111.4923165625
 10
8.0415845234
 20
111.7463061719
 10
8.35917925
 20
112.508275
  0
LWPOLYLINE
  5
CC
330
1F
100
AcDbEntity
  8
0
  6
CONTINUOUS
 62
     7
100
AcDbPolyline
 90
        5
 70
   128
 43
0.0
 10
8.3591789007
 20
109.96855
 10
8.0415845234
 20
110.7305195313
 10
7.342876125
 20
110.984509375
 10
6.6441677266
 20
110.7305195313
 10
6.326573
 20
109.96855
  0
LWPOLYLINE
  5
CD
330
1F
100
AcDbEntity
  8
0
  6
CONTINUOUS
 62
     7
100
AcDbPolyline
 90
        5
 70
   128
 43
0.0
 10
6.3265711069
 20
109.96855
 10
6.6441677266
 20
109.2065811719
 10
7.342876125
 20
108.9525915625
 10
8.0415845234
 20
109.2065811719
 10
8.35917925
 20
109.96855
  0
LWPOLYLINE
  5
CE
330
1F
100
AcDbEntity
  8
0
  6
CONTINUOUS
 62
     7
100
AcDbPolyline
 90
        5
 70
   128
 43
0.0
 10
8.3591789007
 20
107.42882625
 10
8.0415845234
 20
108.1907950781
 10
7.342876125
 20
108.4447846875
 10
6.6441677266
 20
108.1907950781
 10
6.326573
 20
107.42882625
  0
LWPOLYLINE
  5
CF
330
1F
100
AcDbEntity
  8
0
  6
CONTINUOUS
 62
     7
100
AcDbPolyline
 90
        5
 70
   128
 43
0.0
 10
6.3265711069
 20
107.42882625
 10
6.6441677266
 20
106.6668574219
 10
7.342876125
 20
106.4128678125
 10
8.0415845234
 20
106.6668574219
 10
8.35917925
 20
107.42882625
  0
LWPOLYLINE
  5
D0
330
1F
100
AcDbEntity
  8
0
  6
CONTINUOUS
 62
     7
100
AcDbPolyline
 90
        5
 70
   128
 43
0.0
 10
8.3591789007
 20
99.808275
 10
8.0415845234
 20
100.5702438281
 10
7.342876125
 20
100.8242334375
 10
6.6441677266
 20
100.5702438281
 10
6.326573
 20
99.808275
  0
LWPOLYLINE
  5
D1
330
1F
100
AcDbEntity
  8
0
  6
CONTINUOUS
 62
     7
100
AcDbPolyline
 90
        5
 70
   128
 43
0.0
 10
6.3265711069
 20
99.808275
 10
6.6441677266
 20
99.0463061719
 10
7.342876125
 20
98.7923165625
 10
8.0415845234
 20
99.0463061719
 10
8.35917925
 20
99.808275
  0
LWPOLYLINE
  5
D2
330
1F
100
AcDbEntity
  8
0
  6
CONTINUOUS
 62
     7
100
AcDbPolyline
 90
        5
 70
   128
 43
0.0
 10
8.3591789007
 20
97.26855
 10
8.0415845234
 20
98.0305195312
 10
7.342876125
 20
98.284509375
 10
6.6441677266
 20
98.0305195312
 10
6.326573
 20
97.26855
  0
LWPOLYLINE
  5
D3
330
1F
100
AcDbEntity
  8
0
  6
CONTINUOUS
 62
     7
100
AcDbPolyline
 90
        5
 70
   128
 43
0.0
 10
6.3265711069
 20
97.26855
 10
6.6441677266
 20
96.5065811719
 10
7.342876125
 20
96.2525915625
 10
8.0415845234
 20
96.5065811719
 10
8.35917925
 20
97.26855
  0
LWPOLYLINE
  5
D4
330
1F
100
AcDbEntity
  8
0
  6
CONTINUOUS
 62
     7
100
AcDbPolyline
 90
        5
 70
   128
 43
0.0
 10
8.3591789007
 20
94.72882625
 10
8.0415845234
 20
95.4907950781
 10
7.342876125
 20
95.7447846875
 10
6.6441677266
 20
95.4907950781
 10
6.326573
 20
94.72882625
  0
LWPOLYLINE
  5
D5
330
1F
100
AcDbEntity
  8
0
  6
CONTINUOUS
 62
     7
100
AcDbPolyline
 90
        5
 70
   128
 43
0.0
 10
6.3265711069
 20
94.72882625
 10
6.6441677266
 20
93.9668574219
 10
7.342876125
 20
93.7128678125
 10
8.0415845234
 20
93.9668574219
 10
8.35917925
 20
94.72882625
  0
LWPOLYLINE
  5
D6
330
1F
100
AcDbEntity
  8
0
  6
CONTINUOUS
 62
     7
100
AcDbPolyline
 90
        5
 70
   128
 43
0.0
 10
8.3591789007
 20
92.18910125
 10
8.0415845234
 20
92.9510707813
 10
7.342876125
 20
93.205060625
 10
6.6441677266
 20
92.9510707813
 10
6.326573
 20
92.18910125
  0
LWPOLYLINE
  5
D7
330
1F
100
AcDbEntity
  8
0
  6
CONTINUOUS
 62
     7
100
AcDbPolyline
 90
        5
 70
   128
 43
0.0
 10
6.3265711069
 20
92.18910125
 10
6.6441677266
 20
91.4263575781
 10
7.342876125
 20
91.1721096875
 10
8.0415845234
 20
91.4263575781
 10
8.35917925
 20
92.18910125
  0
LWPOLYLINE
  5
D8
330
1F
100
AcDbEntity
  8
0
  6
CONTINUOUS
 62
     7
100
AcDbPolyline
 90
        5
 70
   128
 43
0.0
 10
8.3591789007
 20
89.64799875
 10
8.0415845234
 20
90.4099682812
 10
7.342876125
 20
90.663958125
 10
6.6441677266
 20
90.4099682812
 10
6.326573
 20
89.64799875
  0
LWPOLYLINE
  5
D9
330
1F
100
AcDbEntity
  8
0
  6
CONTINUOUS
 62
     7
100
AcDbPolyline
 90
        5
 70
   128
 43
0.0
 10
6.3265711069
 20
89.64799875
 10
6.6441677266
 20
88.8860299219
 10
7.342876125
 20
88.6320403125
 10
8.0415845234
 20
88.8860299219
 10
8.35917925
 20
89.64799875
  0
LWPOLYLINE
  5
DA
330
1F
100
AcDbEntity
  8
0
  6
CONTINUOUS
 62
     7
100
AcDbPolyline
 90
        5
 70
   128
 43
0.0
 10
8.3591789007
 20
87.108275
 10
8.0415845234
 20
87.8702438281
 10
7.342876125
 20
88.1242334375
 10
6.6441677266
 20
87.8702438281
 10
6.326573
 20
87.108275
  0
LWPOLYLINE
  5
DB
330
1F
100
AcDbEntity
  8
0
  6
CONTINUOUS
 62
     7
100
AcDbPolyline
 90
        5
 70
   128
 43
0.0
 10
6.3265711069
 20
87.108275
 10
6.6441677266
 20
86.3463061719
 10
7.342876125
 20
86.0923165625
 10
8.0415845234
 20
86.3463061719
 10
8.35917925
 20
87.108275
  0
LWPOLYLINE
  5
DC
330
1F
100
AcDbEntity
  8
0
  6
CONTINUOUS
 62
     7
100
AcDbPolyline
 90
        5
 70
   128
 43
0.0
 10
8.3591789007
 20
79.48910125
 10
8.0415845234
 20
80.2510707813
 10
7.342876125
 20
80.505060625
 10
6.6441677266
 20
80.2510707813
 10
6.326573
 20
79.48910125
  0
LWPOLYLINE
  5
DD
330
1F
100
AcDbEntity
  8
0
  6
CONTINUOUS
 62
     7
100
AcDbPolyline
 90
        5
 70
   128
 43
0.0
 10
6.3265711069
 20
79.48910125
 10
6.6441677266
 20
78.7263575781
 10
7.342876125
 20
78.4721096875
 10
8.0415845234
 20
78.7263575781
 10
8.35917925
 20
79.48910125
  0
LWPOLYLINE
  5
DE
330
1F
100
AcDbEntity
  8
0
  6
CONTINUOUS
 62
     7
100
AcDbPolyline
 90
        5
 70
   128
 43
0.0
 10
8.3591789007
 20
76.94799875
 10
8.0415845234
 20
77.7099682812
 10
7.342876125
 20
77.963958125
 10
6.6441677266
 20
77.7099682812
 10
6.326573
 20
76.94799875
  0
LWPOLYLINE
  5
DF
330
1F
100
AcDbEntity
  8
0
  6
CONTINUOUS
 62
     7
100
AcDbPolyline
 90
        5
 70
   128
 43
0.0
 10
6.3265711069
 20
76.94799875
 10
6.6441677266
 20
76.1860299219
 10
7.342876125
 20
75.9320403125
 10
8.0415845234
 20
76.1860299219
 10
8.35917925
 20
76.94799875
  0
LWPOLYLINE
  5
E0
330
1F
100
AcDbEntity
  8
0
  6
CONTINUOUS
 62
     7
100
AcDbPolyline
 90
        5
 70
   128
 43
0.0
 10
8.3591789007
 20
74.408275
 10
8.0415845234
 20
75.1702438281
 10
7.342876125
 20
75.4242334375
 10
6.6441677266
 20
75.1702438281
 10
6.326573
 20
74.408275
  0
LWPOLYLINE
  5
E1
330
1F
100
AcDbEntity
  8
0
  6
CONTINUOUS
 62
     7
100
AcDbPolyline
 90
        5
 70
   128
 43
0.0
 10
6.3265711069
 20
74.408275
 10
6.6441677266
 20
73.6463061719
 10
7.342876125
 20
73.3923165625
 10
8.0415845234
 20
73.6463061719
 10
8.35917925
 20
74.408275
  0
LWPOLYLINE
  5
E2
330
1F
100
AcDbEntity
  8
0
  6
CONTINUOUS
 62
     7
100
AcDbPolyline
 90
        5
 70
   128
 43
0.0
 10
8.3591789007
 20
71.86855
 10
8.0415845234
 20
72.6305195313
 10
7.342876125
 20
72.884509375
 10
6.6441677266
 20
72.6305195313
 10
6.326573
 20
71.86855
  0
LWPOLYLINE
  5
E3
330
1F
100
AcDbEntity
  8
0
  6
CONTINUOUS
 62
     7
100
AcDbPolyline
 90
        5
 70
   128
 43
0.0
 10
6.3265711069
 20
71.86855
 10
6.6441677266
 20
71.1065811719
 10
7.342876125
 20
70.8525915625
 10
8.0415845234
 20
71.1065811719
 10
8.35917925
 20
71.86855
  0
LWPOLYLINE
  5
E4
330
1F
100
AcDbEntity
  8
0
  6
CONTINUOUS
 62
     7
100
AcDbPolyline
 90
        5
 70
   128
 43
0.0
 10
8.3591789007
 20
69.32882625
 10
8.0415845234
 20
70.0907950781
 10
7.342876125
 20
70.3447846875
 10
6.6441677266
 20
70.0907950781
 10
6.326573
 20
69.32882625
  0
LWPOLYLINE
  5
E5
330
1F
100
AcDbEntity
  8
0
  6
CONTINUOUS
 62
     7
100
AcDbPolyline
 90
        5
 70
   128
 43
0.0
 10
6.3265711069
 20
69.32882625
 10
6.6441677266
 20
68.5668574219
 10
7.342876125
 20
68.3128678125
 10
8.0415845234
 20
68.5668574219
 10
8.35917925
 20
69.32882625
  0
LWPOLYLINE
  5
E6
330
1F
100
AcDbEntity
  8
0
  6
CONTINUOUS
 62
     7
100
AcDbPolyline
 90
        5
 70
   128
 43
0.0
 10
8.3591789007
 20
66.78910125
 10
8.0415845234
 20
67.5510707813
 10
7.342876125
 20
67.805060625
 10
6.6441677266
 20
67.5510707813
 10
6.326573
 20
66.78910125
  0
LWPOLYLINE
  5
E7
330
1F
100
AcDbEntity
  8
0
  6
CONTINUOUS
 62
     7
100
AcDbPolyline
 90
        5
 70
   128
 43
0.0
 10
6.3265711069
 20
66.78910125
 10
6.6441677266
 20
66.0263575781
 10
7.342876125
 20
65.7721096875
 10
8.0415845234
 20
66.0263575781
 10
8.35917925
 20
66.78910125
  0
LWPOLYLINE
  5
E8
330
1F
100
AcDbEntity
  8
0
  6
CONTINUOUS
 62
     7
100
AcDbPolyline
 90
        5
 70
   128
 43
0.0
 10
8.3591789007
 20
59.16855
 10
8.0415845234
 20
59.9305195313
 10
7.342876125
 20
60.184509375
 10
6.6441677266
 20
59.9305195313
 10
6.326573
 20
59.16855
  0
LWPOLYLINE
  5
E9
330
1F
100
AcDbEntity
  8
0
  6
CONTINUOUS
 62
     7
100
AcDbPolyline
 90
        5
 70
   128
 43
0.0
 10
6.3265711069
 20
59.16855
 10
6.6441677266
 20
58.4065811719
 10
7.342876125
 20
58.1525915625
 10
8.0415845234
 20
58.4065811719
 10
8.35917925
 20
59.16855
  0
LWPOLYLINE
  5
EA
330
1F
100
AcDbEntity
  8
0
  6
CONTINUOUS
 62
     7
100
AcDbPolyline
 90
        5
 70
   128
 43
0.0
 10
8.3591789007
 20
56.62882625
 10
8.0415845234
 20
57.3907950781
 10
7.342876125
 20
57.6447846875
 10
6.6441677266
 20
57.3907950781
 10
6.326573
 20
56.62882625
  0
LWPOLYLINE
  5
EB
330
1F
100
AcDbEntity
  8
0
  6
CONTINUOUS
 62
     7
100
AcDbPolyline
 90
        5
 70
   128
 43
0.0
 10
6.3265711069
 20
56.62882625
 10
6.6441677266
 20
55.8668574219
 10
7.342876125
 20
55.6128678125
 10
8.0415845234
 20
55.8668574219
 10
8.35917925
 20
56.62882625
  0
LWPOLYLINE
  5
EC
330
1F
100
AcDbEntity
  8
0
  6
CONTINUOUS
 62
     7
100
AcDbPolyline
 90
        5
 70
   128
 43
0.0
 10
8.3591789007
 20
54.08910125
 10
8.0415845234
 20
54.8510707813
 10
7.342876125
 20
55.105060625
 10
6.6441677266
 20
54.8510707813
 10
6.326573
 20
54.08910125
  0
LWPOLYLINE
  5
ED
330
1F
100
AcDbEntity
  8
0
  6
CONTINUOUS
 62
     7
100
AcDbPolyline
 90
        5
 70
   128
 43
0.0
 10
6.3265711069
 20
54.08910125
 10
6.6441677266
 20
53.3263575781
 10
7.342876125
 20
53.0721096875
 10
8.0415845234
 20
53.3263575781
 10
8.35917925
 20
54.08910125
  0
LWPOLYLINE
  5
EE
330
1F
100
AcDbEntity
  8
0
  6
CONTINUOUS
 62
     7
100
AcDbPolyline
 90
        5
 70
   128
 43
0.0
 10
85.4148864746
 20
149.4300525
 10
85.0973470234
 20
150.1920213281
 10
84.398638625
 20
150.4460109375
 10
83.6999302266
 20
150.1920213281
 10
83.3823355
 20
149.4300525
  0
LWPOLYLINE
  5
EF
330
1F
100
AcDbEntity
  8
0
  6
CONTINUOUS
 62
     7
100
AcDbPolyline
 90
        5
 70
   128
 43
0.0
 10
83.3823084831
 20
149.4300525
 10
83.6999302266
 20
148.6680836719
 10
84.398638625
 20
148.4140940625
 10
85.0973470234
 20
148.6680836719
 10
85.41494175
 20
149.4300525
  0
LWPOLYLINE
  5
F0
330
1F
100
AcDbEntity
  8
0
  6
CONTINUOUS
 62
     7
100
AcDbPolyline
 90
        5
 70
   128
 43
0.0
 10
8.3591789007
 20
49.008275
 10
8.0415845234
 20
49.7702438281
 10
7.342876125
 20
50.0242334375
 10
6.6441677266
 20
49.7702438281
 10
6.326573
 20
49.008275
  0
LWPOLYLINE
  5
F1
330
1F
100
AcDbEntity
  8
0
  6
CONTINUOUS
 62
     7
100
AcDbPolyline
 90
        5
 70
   128
 43
0.0
 10
6.3265711069
 20
49.008275
 10
6.6441677266
 20
48.2463061719
 10
7.342876125
 20
47.9923165625
 10
8.0415845234
 20
48.2463061719
 10
8.35917925
 20
49.008275
  0
LWPOLYLINE
  5
F2
330
1F
100
AcDbEntity
  8
0
  6
CONTINUOUS
 62
     7
100
AcDbPolyline
 90
        5
 70
   128
 43
0.0
 10
8.3591789007
 20
41.38910125
 10
8.0415845234
 20
42.1510707812
 10
7.342876125
 20
42.405060625
 10
6.6441677266
 20
42.1510707812
 10
6.326573
 20
41.38910125
  0
LWPOLYLINE
  5
F3
330
1F
100
AcDbEntity
  8
0
  6
CONTINUOUS
 62
     7
100
AcDbPolyline
 90
        5
 70
   128
 43
0.0
 10
6.3265711069
 20
41.38910125
 10
6.6441677266
 20
40.6263575781
 10
7.342876125
 20
40.3721096875
 10
8.0415845234
 20
40.6263575781
 10
8.35917925
 20
41.38910125
  0
LWPOLYLINE
  5
F4
330
1F
100
AcDbEntity
  8
0
  6
CONTINUOUS
 62
     7
100
AcDbPolyline
 90
        5
 70
   128
 43
0.0
 10
54.381519556
 20
52.06614125
 10
54.1457479219
 20
52.6319986719
 10
53.6270455
 20
52.8206178125
 10
53.1083430781
 20
52.6319986719
 10
52.87256925
 20
52.06614125
  0
LWPOLYLINE
  5
F5
330
1F
100
AcDbEntity
  8
0
  6
CONTINUOUS
 62
     7
100
AcDbPolyline
 90
        5
 70
   128
 43
0.0
 10
52.8725683689
 20
52.06614125
 10
53.1083430781
 20
51.5002845313
 10
53.6270455
 20
51.311665625
 10
54.1457479219
 20
51.5002845313
 10
54.38152175
 20
52.06614125
  0
LWPOLYLINE
  5
F6
330
1F
100
AcDbEntity
  8
0
  6
CONTINUOUS
 62
     7
100
AcDbPolyline
 90
        5
 70
   128
 43
0.0
 10
55.6506812572
 20
50.79696875
 10
55.4149206172
 20
51.3628254687
 10
54.896218625
 20
51.551444375
 10
54.3775166328
 20
51.3628254687
 10
54.141743
 20
50.79696875
  0
LWPOLYLINE
  5
F7
330
1F
100
AcDbEntity
  8
0
  6
CONTINUOUS
 62
     7
100
AcDbPolyline
 90
        5
 70
   128
 43
0.0
 10
54.1417300701
 20
50.79696875
 10
54.3775166328
 20
50.2311113281
 10
54.896218625
 20
50.0424921875
 10
55.4149206172
 20
50.2311113281
 10
55.65069425
 20
50.79696875
  0
LWPOLYLINE
  5
F8
330
1F
100
AcDbEntity
  8
0
  6
CONTINUOUS
 62
     7
100
AcDbPolyline
 90
        5
 70
   128
 43
0.0
 10
55.6506812572
 20
52.06614125
 10
55.4149206172
 20
52.6319986719
 10
54.896218625
 20
52.8206178125
 10
54.3775166328
 20
52.6319986719
 10
54.141743
 20
52.06614125
  0
LWPOLYLINE
  5
F9
330
1F
100
AcDbEntity
  8
0
  6
CONTINUOUS
 62
     7
100
AcDbPolyline
 90
        5
 70
   128
 43
0.0
 10
54.1417300701
 20
52.06614125
 10
54.3775166328
 20
51.5002845313
 10
54.896218625
 20
51.311665625
 10
55.4149206172
 20
51.5002845313
 10
55.65069425
 20
52.06614125
  0
LWPOLYLINE
  5
FA
330
1F
100
AcDbEntity
  8
0
  6
CONTINUOUS
 62
     7
100
AcDbPolyline
 90
        5
 70
   128
 43
0.0
 10
56.9212436676
 20
50.79696875
 10
56.6854718672
 20
51.3628254687
 10
56.166769875
 20
51.551444375
 10
55.6480678828
 20
51.3628254687
 10
55.41229425
 20
50.79696875
  0
LWPOLYLINE
  5
FB
330
1F
100
AcDbEntity
  8
0
  6
CONTINUOUS
 62
     7
100
AcDbPolyline
 90
        5
 70
   128
 43
0.0
 10
55.4122924805
 20
50.79696875
 10
55.6480678828
 20
50.2311113281
 10
56.166769875
 20
50.0424921875
 10
56.6854718672
 20
50.2311113281
 10
56.9212455
 20
50.79696875
  0
LWPOLYLINE
  5
FC
330
1F
100
AcDbEntity
  8
0
  6
CONTINUOUS
 62
     7
100
AcDbPolyline
 90
        5
 70
   128
 43
0.0
 10
56.9212436676
 20
52.06614125
 10
56.6854718672
 20
52.6319986719
 10
56.166769875
 20
52.8206178125
 10
55.6480678828
 20
52.6319986719
 10
55.41229425
 20
52.06614125
  0
LWPOLYLINE
  5
FD
330
1F
100
AcDbEntity
  8
0
  6
CONTINUOUS
 62
     7
100
AcDbPolyline
 90
        5
 70
   128
 43
0.0
 10
55.4122924805
 20
52.06614125
 10
55.6480678828
 20
51.5002845313
 10
56.166769875
 20
51.311665625
 10
56.6854718672
 20
51.5002845313
 10
56.9212455
 20
52.06614125
  0
LWPOLYLINE
  5
FE
330
1F
100
AcDbEntity
  8
0
  6
CONTINUOUS
 62
     7
100
AcDbPolyline
 90
        5
 70
   128
 43
0.0
 10
58.1904053688
 20
50.79696875
 10
57.9548606562
 20
51.3628254687
 10
57.43663175
 20
51.551444375
 10
56.9184028437
 20
51.3628254687
 10
56.68284425
 20
50.79696875
  0
LWPOLYLINE
  5
FF
330
1F
100
AcDbEntity
  8
0
  6
CONTINUOUS
 62
     7
100
AcDbPolyline
 90
        5
 70
   128
 43
0.0
 10
56.6828250885
 20
50.79696875
 10
56.9184028437
 20
50.2311113281
 10
57.43663175
 20
50.0424921875
 10
57.9548606562
 20
50.2311113281
 10
58.19041925
 20
50.79696875
  0
LWPOLYLINE
  5
100
330
1F
100
AcDbEntity
  8
0
  6
CONTINUOUS
 62
     7
100
AcDbPolyline
 90
        5
 70
   128
 43
0.0
 10
58.1904053688
 20
52.06614125
 10
57.9548606562
 20
52.6319986719
 10
57.43663175
 20
52.8206178125
 10
56.9184028437
 20
52.6319986719
 10
56.68284425
 20
52.06614125
  0
LWPOLYLINE
  5
101
330
1F
100
AcDbEntity
  8
0
  6
CONTINUOUS
 62
     7
100
AcDbPolyline
 90
        5
 70
   128
 43
0.0
 10
56.6828250885
 20
52.06614125
 10
56.9184028437
 20
51.5002845313
 10
57.43663175
 20
51.311665625
 10
57.9548606562
 20
51.5002845313
 10
58.19041925
 20
52.06614125
  0
LWPOLYLINE
  5
102
330
1F
100
AcDbEntity
  8
0
  6
CONTINUOUS
 62
     7
100
AcDbPolyline
 90
        5
 70
   128
 43
0.0
 10
59.4609677792
 20
50.79696875
 10
59.2251956172
 20
51.3628254687
 10
58.706493625
 20
51.551444375
 10
58.1877916328
 20
51.3628254687
 10
57.952018
 20
50.79696875
  0
LWPOLYLINE
  5
103
330
1F
100
AcDbEntity
  8
0
  6
CONTINUOUS
 62
     7
100
AcDbPolyline
 90
        5
 70
   128
 43
0.0
 10
57.952016592
 20
50.79696875
 10
58.1877916328
 20
50.2311113281
 10
58.706493625
 20
50.0424921875
 10
59.2251956172
 20
50.2311113281
 10
59.46096925
 20
50.79696875
  0
LWPOLYLINE
  5
104
330
1F
100
AcDbEntity
  8
0
  6
CONTINUOUS
 62
     7
100
AcDbPolyline
 90
        5
 70
   128
 43
0.0
 10
59.4609677792
 20
52.06614125
 10
59.2251956172
 20
52.6319986719
 10
58.706493625
 20
52.8206178125
 10
58.1877916328
 20
52.6319986719
 10
57.952018
 20
52.06614125
  0
LWPOLYLINE
  5
105
330
1F
100
AcDbEntity
  8
0
  6
CONTINUOUS
 62
     7
100
AcDbPolyline
 90
        5
 70
   128
 43
0.0
 10
57.952016592
 20
52.06614125
 10
58.1877916328
 20
51.5002845313
 10
58.706493625
 20
51.311665625
 10
59.2251956172
 20
51.5002845313
 10
59.46096925
 20
52.06614125
  0
LWPOLYLINE
  5
106
330
1F
100
AcDbEntity
  8
0
  6
CONTINUOUS
 62
     7
100
AcDbPolyline
 90
        5
 70
   128
 43
0.0
 10
57.9147934914
 20
131.179315
 10
57.5972168281
 20
131.9420586719
 10
56.898508
 20
132.1963065625
 10
56.1997991719
 20
131.9420586719
 10
55.88220425
 20
131.179315
  0
LWPOLYLINE
  5
107
330
1F
100
AcDbEntity
  8
0
  6
CONTINUOUS
 62
     7
100
AcDbPolyline
 90
        5
 70
   128
 43
0.0
 10
55.8821856976
 20
131.179315
 10
56.1997991719
 20
130.4173454687
 10
56.898508
 20
130.163355625
 10
57.5972168281
 20
130.4173454687
 10
57.91481175
 20
131.179315
  0
LWPOLYLINE
  5
108
330
1F
100
AcDbEntity
  8
0
  6
CONTINUOUS
 62
     7
100
AcDbPolyline
 90
        5
 70
   128
 43
0.0
 10
63.2436275482
 20
36.93114875
 10
63.0079106172
 20
37.4970054688
 10
62.489208625
 20
37.685624375
 10
61.9705066328
 20
37.4970054688
 10
61.734733
 20
36.93114875
  0
LWPOLYLINE
  5
109
330
1F
100
AcDbEntity
  8
0
  6
CONTINUOUS
 62
     7
100
AcDbPolyline
 90
        5
 70
   128
 43
0.0
 10
61.7347061634
 20
36.93114875
 10
61.9705066328
 20
36.3652913281
 10
62.489208625
 20
36.1766721875
 10
63.0079106172
 20
36.3652913281
 10
63.24368425
 20
36.93114875
  0
LWPOLYLINE
  5
10A
330
1F
100
AcDbEntity
  8
0
  6
CONTINUOUS
 62
     7
100
AcDbPolyline
 90
        5
 70
   128
 43
0.0
 10
71.2238550186
 20
36.93114875
 10
70.9881304219
 20
37.4970054688
 10
70.469428
 20
37.685624375
 10
69.9507255781
 20
37.4970054688
 10
69.71495175
 20
36.93114875
  0
LWPOLYLINE
  5
10B
330
1F
100
AcDbEntity
  8
0
  6
CONTINUOUS
 62
     7
100
AcDbPolyline
 90
        5
 70
   128
 43
0.0
 10
69.7149038315
 20
36.93114875
 10
69.9507255781
 20
36.3652913281
 10
70.469428
 20
36.1766721875
 10
70.9881304219
 20
36.3652913281
 10
71.22390425
 20
36.93114875
  0
LWPOLYLINE
  5
10C
330
1F
100
AcDbEntity
  8
0
  6
CONTINUOUS
 62
     7
100
AcDbPolyline
 90
        5
 70
   128
 43
0.0
 10
102.4529933929
 20
142.16090125
 10
102.1354107734
 20
142.9228700781
 10
101.436702375
 20
143.1768596875
 10
100.7379939766
 20
142.9228700781
 10
100.42039925
 20
142.16090125
  0
LWPOLYLINE
  5
10D
330
1F
100
AcDbEntity
  8
0
  6
CONTINUOUS
 62
     7
100
AcDbPolyline
 90
        5
 70
   128
 43
0.0
 10
100.4203557968
 20
142.16090125
 10
100.7379939766
 20
141.3989317188
 10
101.436702375
 20
141.144941875
 10
102.1354107734
 20
141.3989317188
 10
102.4530055
 20
142.16090125
  0
LWPOLYLINE
  5
10E
330
1F
100
AcDbEntity
  8
0
  6
CONTINUOUS
 62
     7
100
AcDbPolyline
 90
        5
 70
   128
 43
0.0
 10
99.9132394791
 20
129.46090125
 10
99.5956857734
 20
130.2228700781
 10
98.896977375
 20
130.4768596875
 10
98.1982689766
 20
130.2228700781
 10
97.88067425
 20
129.46090125
  0
LWPOLYLINE
  5
10F
330
1F
100
AcDbEntity
  8
0
  6
CONTINUOUS
 62
     7
100
AcDbPolyline
 90
        5
 70
   128
 43
0.0
 10
97.8806614876
 20
129.46090125
 10
98.1982689766
 20
128.6989317188
 10
98.896977375
 20
128.444941875
 10
99.5956857734
 20
128.6989317188
 10
99.9132805
 20
129.46090125
  0
LWPOLYLINE
  5
110
330
1F
100
AcDbEntity
  8
0
  6
CONTINUOUS
 62
     7
100
AcDbPolyline
 90
        5
 70
   128
 43
0.0
 10
102.4529933929
 20
139.61979875
 10
102.1354107734
 20
140.3817675781
 10
101.436702375
 20
140.6357571875
 10
100.7379939766
 20
140.3817675781
 10
100.42039925
 20
139.61979875
  0
LWPOLYLINE
  5
111
330
1F
100
AcDbEntity
  8
0
  6
CONTINUOUS
 62
     7
100
AcDbPolyline
 90
        5
 70
   128
 43
0.0
 10
100.4203557968
 20
139.61979875
 10
100.7379939766
 20
138.8578292187
 10
101.436702375
 20
138.603839375
 10
102.1354107734
 20
138.8578292187
 10
102.4530055
 20
139.61979875
  0
LWPOLYLINE
  5
112
330
1F
100
AcDbEntity
  8
0
  6
CONTINUOUS
 62
     7
100
AcDbPolyline
 90
        5
 70
   128
 43
0.0
 10
99.9132394791
 20
126.91979875
 10
99.5956857734
 20
127.6817675781
 10
98.896977375
 20
127.9357571875
 10
98.1982689766
 20
127.6817675781
 10
97.88067425
 20
126.91979875
  0
LWPOLYLINE
  5
113
330
1F
100
AcDbEntity
  8
0
  6
CONTINUOUS
 62
     7
100
AcDbPolyline
 90
        5
 70
   128
 43
0.0
 10
97.8806614876
 20
126.91979875
 10
98.1982689766
 20
126.1578292188
 10
98.896977375
 20
125.903839375
 10
99.5956857734
 20
126.1578292188
 10
99.9132805
 20
126.91979875
  0
LWPOLYLINE
  5
114
330
1F
100
AcDbEntity
  8
0
  6
CONTINUOUS
 62
     7
100
AcDbPolyline
 90
        5
 70
   128
 43
0.0
 10
102.4529933929
 20
137.08007375
 10
102.1354107734
 20
137.8420425781
 10
101.436702375
 20
138.0960321875
 10
100.7379939766
 20
137.8420425781
 10
100.42039925
 20
137.08007375
  0
LWPOLYLINE
  5
115
330
1F
100
AcDbEntity
  8
0
  6
CONTINUOUS
 62
     7
100
AcDbPolyline
 90
        5
 70
   128
 43
0.0
 10
100.4203557968
 20
137.08007375
 10
100.7379939766
 20
136.3181049219
 10
101.436702375
 20
136.0641153125
 10
102.1354107734
 20
136.3181049219
 10
102.4530055
 20
137.08007375
  0
LWPOLYLINE
  5
116
330
1F
100
AcDbEntity
  8
0
  6
CONTINUOUS
 62
     7
100
AcDbPolyline
 90
        5
 70
   128
 43
0.0
 10
99.9132394791
 20
124.38007375
 10
99.5956857734
 20
125.1420425781
 10
98.896977375
 20
125.3960321875
 10
98.1982689766
 20
125.1420425781
 10
97.88067425
 20
124.38007375
  0
LWPOLYLINE
  5
117
330
1F
100
AcDbEntity
  8
0
  6
CONTINUOUS
 62
     7
100
AcDbPolyline
 90
        5
 70
   128
 43
0.0
 10
97.8806614876
 20
124.38007375
 10
98.1982689766
 20
123.6181049219
 10
98.896977375
 20
123.3641153125
 10
99.5956857734
 20
123.6181049219
 10
99.9132805
 20
124.38007375
  0
LWPOLYLINE
  5
118
330
1F
100
AcDbEntity
  8
0
  6
CONTINUOUS
 62
     7
100
AcDbPolyline
 90
        5
 70
   128
 43
0.0
 10
102.4529933929
 20
134.54035
 10
102.1354107734
 20
135.3023188281
 10
101.436702375
 20
135.5563084375
 10
100.7379939766
 20
135.3023188281
 10
100.42039925
 20
134.54035
  0
LWPOLYLINE
  5
119
330
1F
100
AcDbEntity
  8
0
  6
CONTINUOUS
 62
     7
100
AcDbPolyline
 90
        5
 70
   128
 43
0.0
 10
100.4203557968
 20
134.54035
 10
100.7379939766
 20
133.7783804688
 10
101.436702375
 20
133.524390625
 10
102.1354107734
 20
133.7783804688
 10
102.4530055
 20
134.54035
  0
LWPOLYLINE
  5
11A
330
1F
100
AcDbEntity
  8
0
  6
CONTINUOUS
 62
     7
100
AcDbPolyline
 90
        5
 70
   128
 43
0.0
 10
99.9132394791
 20
121.84035
 10
99.5956857734
 20
122.6023188281
 10
98.896977375
 20
122.8563084375
 10
98.1982689766
 20
122.6023188281
 10
97.88067425
 20
121.84035
  0
LWPOLYLINE
  5
11B
330
1F
100
AcDbEntity
  8
0
  6
CONTINUOUS
 62
     7
100
AcDbPolyline
 90
        5
 70
   128
 43
0.0
 10
97.8806614876
 20
121.84035
 10
98.1982689766
 20
121.0783804688
 10
98.896977375
 20
120.824390625
 10
99.5956857734
 20
121.0783804688
 10
99.9132805
 20
121.84035
  0
LWPOLYLINE
  5
11C
330
1F
100
AcDbEntity
  8
0
  6
CONTINUOUS
 62
     7
100
AcDbPolyline
 90
        5
 70
   128
 43
0.0
 10
102.4529933929
 20
132.000625
 10
102.1354107734
 20
132.7625938281
 10
101.436702375
 20
133.0165834375
 10
100.7379939766
 20
132.7625938281
 10
100.42039925
 20
132.000625
  0
LWPOLYLINE
  5
11D
330
1F
100
AcDbEntity
  8
0
  6
CONTINUOUS
 62
     7
100
AcDbPolyline
 90
        5
 70
   128
 43
0.0
 10
100.4203557968
 20
132.000625
 10
100.7379939766
 20
131.2386561719
 10
101.436702375
 20
130.9846665625
 10
102.1354107734
 20
131.2386561719
 10
102.4530055
 20
132.000625
  0
LWPOLYLINE
  5
11E
330
1F
100
AcDbEntity
  8
0
  6
CONTINUOUS
 62
     7
100
AcDbPolyline
 90
        5
 70
   128
 43
0.0
 10
99.9132394791
 20
119.300625
 10
99.5956857734
 20
120.0625938281
 10
98.896977375
 20
120.3165834375
 10
98.1982689766
 20
120.0625938281
 10
97.88067425
 20
119.300625
  0
LWPOLYLINE
  5
11F
330
1F
100
AcDbEntity
  8
0
  6
CONTINUOUS
 62
     7
100
AcDbPolyline
 90
        5
 70
   128
 43
0.0
 10
97.8806614876
 20
119.300625
 10
98.1982689766
 20
118.5386561719
 10
98.896977375
 20
118.2846665625
 10
99.5956857734
 20
118.5386561719
 10
99.9132805
 20
119.300625
  0
LWPOLYLINE
  5
120
330
1F
100
AcDbEntity
  8
0
  6
CONTINUOUS
 62
     7
100
AcDbPolyline
 90
        5
 70
   128
 43
0.0
 10
102.4529933929
 20
129.46090125
 10
102.1354107734
 20
130.2228700781
 10
101.436702375
 20
130.4768596875
 10
100.7379939766
 20
130.2228700781
 10
100.42039925
 20
129.46090125
  0
LWPOLYLINE
  5
121
330
1F
100
AcDbEntity
  8
0
  6
CONTINUOUS
 62
     7
100
AcDbPolyline
 90
        5
 70
   128
 43
0.0
 10
100.4203557968
 20
129.46090125
 10
100.7379939766
 20
128.6989317188
 10
101.436702375
 20
128.444941875
 10
102.1354107734
 20
128.6989317188
 10
102.4530055
 20
129.46090125
  0
LWPOLYLINE
  5
122
330
1F
100
AcDbEntity
  8
0
  6
CONTINUOUS
 62
     7
100
AcDbPolyline
 90
        5
 70
   128
 43
0.0
 10
99.9132394791
 20
116.76090125
 10
99.5956857734
 20
117.5228700781
 10
98.896977375
 20
117.7768596875
 10
98.1982689766
 20
117.5228700781
 10
97.88067425
 20
116.76090125
  0
LWPOLYLINE
  5
123
330
1F
100
AcDbEntity
  8
0
  6
CONTINUOUS
 62
     7
100
AcDbPolyline
 90
        5
 70
   128
 43
0.0
 10
97.8806614876
 20
116.76090125
 10
98.1982689766
 20
115.9989317188
 10
98.896977375
 20
115.744941875
 10
99.5956857734
 20
115.9989317188
 10
99.9132805
 20
116.76090125
  0
LWPOLYLINE
  5
124
330
1F
100
AcDbEntity
  8
0
  6
CONTINUOUS
 62
     7
100
AcDbPolyline
 90
        5
 70
   128
 43
0.0
 10
102.4529933929
 20
126.91979875
 10
102.1354107734
 20
127.6817675781
 10
101.436702375
 20
127.9357571875
 10
100.7379939766
 20
127.6817675781
 10
100.42039925
 20
126.91979875
  0
LWPOLYLINE
  5
125
330
1F
100
AcDbEntity
  8
0
  6
CONTINUOUS
 62
     7
100
AcDbPolyline
 90
        5
 70
   128
 43
0.0
 10
100.4203557968
 20
126.91979875
 10
100.7379939766
 20
126.1578292188
 10
101.436702375
 20
125.903839375
 10
102.1354107734
 20
126.1578292188
 10
102.4530055
 20
126.91979875
  0
LWPOLYLINE
  5
126
330
1F
100
AcDbEntity
  8
0
  6
CONTINUOUS
 62
     7
100
AcDbPolyline
 90
        5
 70
   128
 43
0.0
 10
99.9132394791
 20
114.21979875
 10
99.5956857734
 20
114.9817675781
 10
98.896977375
 20
115.2357571875
 10
98.1982689766
 20
114.9817675781
 10
97.88067425
 20
114.21979875
  0
LWPOLYLINE
  5
127
330
1F
100
AcDbEntity
  8
0
  6
CONTINUOUS
 62
     7
100
AcDbPolyline
 90
        5
 70
   128
 43
0.0
 10
97.8806614876
 20
114.21979875
 10
98.1982689766
 20
113.4578292188
 10
98.896977375
 20
113.203839375
 10
99.5956857734
 20
113.4578292188
 10
99.9132805
 20
114.21979875
  0
LWPOLYLINE
  5
128
330
1F
100
AcDbEntity
  8
0
  6
CONTINUOUS
 62
     7
100
AcDbPolyline
 90
        5
 70
   128
 43
0.0
 10
102.4529933929
 20
124.38007375
 10
102.1354107734
 20
125.1420425781
 10
101.436702375
 20
125.3960321875
 10
100.7379939766
 20
125.1420425781
 10
100.42039925
 20
124.38007375
  0
LWPOLYLINE
  5
129
330
1F
100
AcDbEntity
  8
0
  6
CONTINUOUS
 62
     7
100
AcDbPolyline
 90
        5
 70
   128
 43
0.0
 10
100.4203557968
 20
124.38007375
 10
100.7379939766
 20
123.6181049219
 10
101.436702375
 20
123.3641153125
 10
102.1354107734
 20
123.6181049219
 10
102.4530055
 20
124.38007375
  0
LWPOLYLINE
  5
12A
330
1F
100
AcDbEntity
  8
0
  6
CONTINUOUS
 62
     7
100
AcDbPolyline
 90
        5
 70
   128
 43
0.0
 10
99.9132394791
 20
111.68007375
 10
99.5956857734
 20
112.4420425781
 10
98.896977375
 20
112.6960321875
 10
98.1982689766
 20
112.4420425781
 10
97.88067425
 20
111.68007375
  0
LWPOLYLINE
  5
12B
330
1F
100
AcDbEntity
  8
0
  6
CONTINUOUS
 62
     7
100
AcDbPolyline
 90
        5
 70
   128
 43
0.0
 10
97.8806614876
 20
111.68007375
 10
98.1982689766
 20
110.9181049219
 10
98.896977375
 20
110.6641153125
 10
99.5956857734
 20
110.9181049219
 10
99.9132805
 20
111.68007375
  0
LWPOLYLINE
  5
12C
330
1F
100
AcDbEntity
  8
0
  6
CONTINUOUS
 62
     7
100
AcDbPolyline
 90
        5
 70
   128
 43
0.0
 10
102.4529933929
 20
121.84035
 10
102.1354107734
 20
122.6023188281
 10
101.436702375
 20
122.8563084375
 10
100.7379939766
 20
122.6023188281
 10
100.42039925
 20
121.84035
  0
LWPOLYLINE
  5
12D
330
1F
100
AcDbEntity
  8
0
  6
CONTINUOUS
 62
     7
100
AcDbPolyline
 90
        5
 70
   128
 43
0.0
 10
100.4203557968
 20
121.84035
 10
100.7379939766
 20
121.0783804688
 10
101.436702375
 20
120.824390625
 10
102.1354107734
 20
121.0783804688
 10
102.4530055
 20
121.84035
  0
LWPOLYLINE
  5
12E
330
1F
100
AcDbEntity
  8
0
  6
CONTINUOUS
 62
     7
100
AcDbPolyline
 90
        5
 70
   128
 43
0.0
 10
99.9132394791
 20
109.14035
 10
99.5956857734
 20
109.9023188281
 10
98.896977375
 20
110.1563084375
 10
98.1982689766
 20
109.9023188281
 10
97.88067425
 20
109.14035
  0
LWPOLYLINE
  5
12F
330
1F
100
AcDbEntity
  8
0
  6
CONTINUOUS
 62
     7
100
AcDbPolyline
 90
        5
 70
   128
 43
0.0
 10
97.8806614876
 20
109.14035
 10
98.1982689766
 20
108.3783804688
 10
98.896977375
 20
108.124390625
 10
99.5956857734
 20
108.3783804688
 10
99.9132805
 20
109.14035
  0
LWPOLYLINE
  5
130
330
1F
100
AcDbEntity
  8
0
  6
CONTINUOUS
 62
     7
100
AcDbPolyline
 90
        5
 70
   128
 43
0.0
 10
102.4529933929
 20
119.300625
 10
102.1354107734
 20
120.0625938281
 10
101.436702375
 20
120.3165834375
 10
100.7379939766
 20
120.0625938281
 10
100.42039925
 20
119.300625
  0
LWPOLYLINE
  5
131
330
1F
100
AcDbEntity
  8
0
  6
CONTINUOUS
 62
     7
100
AcDbPolyline
 90
        5
 70
   128
 43
0.0
 10
100.4203557968
 20
119.300625
 10
100.7379939766
 20
118.5386561719
 10
101.436702375
 20
118.2846665625
 10
102.1354107734
 20
118.5386561719
 10
102.4530055
 20
119.300625
  0
LWPOLYLINE
  5
132
330
1F
100
AcDbEntity
  8
0
  6
CONTINUOUS
 62
     7
100
AcDbPolyline
 90
        5
 70
   128
 43
0.0
 10
99.9132394791
 20
106.600625
 10
99.5956857734
 20
107.3625938281
 10
98.896977375
 20
107.6165834375
 10
98.1982689766
 20
107.3625938281
 10
97.88067425
 20
106.600625
  0
LWPOLYLINE
  5
133
330
1F
100
AcDbEntity
  8
0
  6
CONTINUOUS
 62
     7
100
AcDbPolyline
 90
        5
 70
   128
 43
0.0
 10
97.8806614876
 20
106.600625
 10
98.1982689766
 20
105.8386561719
 10
98.896977375
 20
105.5846665625
 10
99.5956857734
 20
105.8386561719
 10
99.9132805
 20
106.600625
  0
LWPOLYLINE
  5
134
330
1F
100
AcDbEntity
  8
0
  6
CONTINUOUS
 62
     7
100
AcDbPolyline
 90
        5
 70
   128
 43
0.0
 10
102.4529933929
 20
116.76090125
 10
102.1354107734
 20
117.5228700781
 10
101.436702375
 20
117.7768596875
 10
100.7379939766
 20
117.5228700781
 10
100.42039925
 20
116.76090125
  0
LWPOLYLINE
  5
135
330
1F
100
AcDbEntity
  8
0
  6
CONTINUOUS
 62
     7
100
AcDbPolyline
 90
        5
 70
   128
 43
0.0
 10
100.4203557968
 20
116.76090125
 10
100.7379939766
 20
115.9989317188
 10
101.436702375
 20
115.744941875
 10
102.1354107734
 20
115.9989317188
 10
102.4530055
 20
116.76090125
  0
LWPOLYLINE
  5
136
330
1F
100
AcDbEntity
  8
0
  6
CONTINUOUS
 62
     7
100
AcDbPolyline
 90
        5
 70
   128
 43
0.0
 10
99.9132394791
 20
104.06090125
 10
99.5956857734
 20
104.8228700781
 10
98.896977375
 20
105.0768596875
 10
98.1982689766
 20
104.8228700781
 10
97.88067425
 20
104.06090125
  0
LWPOLYLINE
  5
137
330
1F
100
AcDbEntity
  8
0
  6
CONTINUOUS
 62
     7
100
AcDbPolyline
 90
        5
 70
   128
 43
0.0
 10
97.8806614876
 20
104.06090125
 10
98.1982689766
 20
103.2989317187
 10
98.896977375
 20
103.044941875
 10
99.5956857734
 20
103.2989317187
 10
99.9132805
 20
104.06090125
  0
LWPOLYLINE
  5
138
330
1F
100
AcDbEntity
  8
0
  6
CONTINUOUS
 62
     7
100
AcDbPolyline
 90
        5
 70
   128
 43
0.0
 10
102.4529933929
 20
114.21979875
 10
102.1354107734
 20
114.9817675781
 10
101.436702375
 20
115.2357571875
 10
100.7379939766
 20
114.9817675781
 10
100.42039925
 20
114.21979875
  0
LWPOLYLINE
  5
139
330
1F
100
AcDbEntity
  8
0
  6
CONTINUOUS
 62
     7
100
AcDbPolyline
 90
        5
 70
   128
 43
0.0
 10
100.4203557968
 20
114.21979875
 10
100.7379939766
 20
113.4578292188
 10
101.436702375
 20
113.203839375
 10
102.1354107734
 20
113.4578292188
 10
102.4530055
 20
114.21979875
  0
LWPOLYLINE
  5
13A
330
1F
100
AcDbEntity
  8
0
  6
CONTINUOUS
 62
     7
100
AcDbPolyline
 90
        5
 70
   128
 43
0.0
 10
102.4529933929
 20
111.68007375
 10
102.1354107734
 20
112.4420425781
 10
101.436702375
 20
112.6960321875
 10
100.7379939766
 20
112.4420425781
 10
100.42039925
 20
111.68007375
  0
LWPOLYLINE
  5
13B
330
1F
100
AcDbEntity
  8
0
  6
CONTINUOUS
 62
     7
100
AcDbPolyline
 90
        5
 70
   128
 43
0.0
 10
100.4203557968
 20
111.68007375
 10
100.7379939766
 20
110.9181049219
 10
101.436702375
 20
110.6641153125
 10
102.1354107734
 20
110.9181049219
 10
102.4530055
 20
111.68007375
  0
LWPOLYLINE
  5
13C
330
1F
100
AcDbEntity
  8
0
  6
CONTINUOUS
 62
     7
100
AcDbPolyline
 90
        5
 70
   128
 43
0.0
 10
99.9132394791
 20
101.51979875
 10
99.5956857734
 20
102.2817675781
 10
98.896977375
 20
102.5357571875
 10
98.1982689766
 20
102.2817675781
 10
97.88067425
 20
101.51979875
  0
LWPOLYLINE
  5
13D
330
1F
100
AcDbEntity
  8
0
  6
CONTINUOUS
 62
     7
100
AcDbPolyline
 90
        5
 70
   128
 43
0.0
 10
97.8806614876
 20
101.51979875
 10
98.1982689766
 20
100.7578292188
 10
98.896977375
 20
100.503839375
 10
99.5956857734
 20
100.7578292188
 10
99.9132805
 20
101.51979875
  0
LWPOLYLINE
  5
13E
330
1F
100
AcDbEntity
  8
0
  6
CONTINUOUS
 62
     7
100
AcDbPolyline
 90
        5
 70
   128
 43
0.0
 10
102.4529933929
 20
109.14035
 10
102.1354107734
 20
109.9023188281
 10
101.436702375
 20
110.1563084375
 10
100.7379939766
 20
109.9023188281
 10
100.42039925
 20
109.14035
  0
LWPOLYLINE
  5
13F
330
1F
100
AcDbEntity
  8
0
  6
CONTINUOUS
 62
     7
100
AcDbPolyline
 90
        5
 70
   128
 43
0.0
 10
100.4203557968
 20
109.14035
 10
100.7379939766
 20
108.3783804688
 10
101.436702375
 20
108.124390625
 10
102.1354107734
 20
108.3783804688
 10
102.4530055
 20
109.14035
  0
LWPOLYLINE
  5
140
330
1F
100
AcDbEntity
  8
0
  6
CONTINUOUS
 62
     7
100
AcDbPolyline
 90
        5
 70
   128
 43
0.0
 10
102.4529933929
 20
104.06090125
 10
102.1354107734
 20
104.8228700781
 10
101.436702375
 20
105.0768596875
 10
100.7379939766
 20
104.8228700781
 10
100.42039925
 20
104.06090125
  0
LWPOLYLINE
  5
141
330
1F
100
AcDbEntity
  8
0
  6
CONTINUOUS
 62
     7
100
AcDbPolyline
 90
        5
 70
   128
 43
0.0
 10
100.4203557968
 20
104.06090125
 10
100.7379939766
 20
103.2989317187
 10
101.436702375
 20
103.044941875
 10
102.1354107734
 20
103.2989317187
 10
102.4530055
 20
104.06090125
  0
LWPOLYLINE
  5
142
330
1F
100
AcDbEntity
  8
0
  6
CONTINUOUS
 62
     7
100
AcDbPolyline
 90
        5
 70
   128
 43
0.0
 10
102.4529933929
 20
101.51979875
 10
102.1354107734
 20
102.2817675781
 10
101.436702375
 20
102.5357571875
 10
100.7379939766
 20
102.2817675781
 10
100.42039925
 20
101.51979875
  0
LWPOLYLINE
  5
143
330
1F
100
AcDbEntity
  8
0
  6
CONTINUOUS
 62
     7
100
AcDbPolyline
 90
        5
 70
   128
 43
0.0
 10
100.4203557968
 20
101.51979875
 10
100.7379939766
 20
100.7578292188
 10
101.436702375
 20
100.503839375
 10
102.1354107734
 20
100.7578292188
 10
102.4530055
 20
101.51979875
  0
LWPOLYLINE
  5
144
330
1F
100
AcDbEntity
  8
0
  6
CONTINUOUS
 62
     7
100
AcDbPolyline
 90
        5
 70
   128
 43
0.0
 10
102.4529933929
 20
98.98007375
 10
102.1354107734
 20
99.7420425781
 10
101.436702375
 20
99.9960321875
 10
100.7379939766
 20
99.7420425781
 10
100.42039925
 20
98.98007375
  0
LWPOLYLINE
  5
145
330
1F
100
AcDbEntity
  8
0
  6
CONTINUOUS
 62
     7
100
AcDbPolyline
 90
        5
 70
   128
 43
0.0
 10
100.4203557968
 20
98.98007375
 10
100.7379939766
 20
98.2181049219
 10
101.436702375
 20
97.9641153125
 10
102.1354107734
 20
98.2181049219
 10
102.4530055
 20
98.98007375
  0
LWPOLYLINE
  5
146
330
1F
100
AcDbEntity
  8
0
  6
CONTINUOUS
 62
     7
100
AcDbPolyline
 90
        5
 70
   128
 43
0.0
 10
102.4529933929
 20
96.44035
 10
102.1354107734
 20
97.2023188281
 10
101.436702375
 20
97.4563084375
 10
100.7379939766
 20
97.2023188281
 10
100.42039925
 20
96.44035
  0
LWPOLYLINE
  5
147
330
1F
100
AcDbEntity
  8
0
  6
CONTINUOUS
 62
     7
100
AcDbPolyline
 90
        5
 70
   128
 43
0.0
 10
100.4203557968
 20
96.44035
 10
100.7379939766
 20
95.6783804687
 10
101.436702375
 20
95.424390625
 10
102.1354107734
 20
95.6783804687
 10
102.4530055
 20
96.44035
  0
LWPOLYLINE
  5
148
330
1F
100
AcDbEntity
  8
0
  6
CONTINUOUS
 62
     7
100
AcDbPolyline
 90
        5
 70
   128
 43
0.0
 10
99.9132394791
 20
98.98007375
 10
99.5956857734
 20
99.7420425781
 10
98.896977375
 20
99.9960321875
 10
98.1982689766
 20
99.7420425781
 10
97.88067425
 20
98.98007375
  0
LWPOLYLINE
  5
149
330
1F
100
AcDbEntity
  8
0
  6
CONTINUOUS
 62
     7
100
AcDbPolyline
 90
        5
 70
   128
 43
0.0
 10
97.8806614876
 20
98.98007375
 10
98.1982689766
 20
98.2181049219
 10
98.896977375
 20
97.9641153125
 10
99.5956857734
 20
98.2181049219
 10
99.9132805
 20
98.98007375
  0
LWPOLYLINE
  5
14A
330
1F
100
AcDbEntity
  8
0
  6
CONTINUOUS
 62
     7
100
AcDbPolyline
 90
        5
 70
   128
 43
0.0
 10
99.9132394791
 20
96.44035
 10
99.5956857734
 20
97.2023188281
 10
98.896977375
 20
97.4563084375
 10
98.1982689766
 20
97.2023188281
 10
97.88067425
 20
96.44035
  0
LWPOLYLINE
  5
14B
330
1F
100
AcDbEntity
  8
0
  6
CONTINUOUS
 62
     7
100
AcDbPolyline
 90
        5
 70
   128
 43
0.0
 10
97.8806614876
 20
96.44035
 10
98.1982689766
 20
95.6783804687
 10
98.896977375
 20
95.424390625
 10
99.5956857734
 20
95.6783804687
 10
99.9132805
 20
96.44035
  0
LWPOLYLINE
  5
14C
330
1F
100
AcDbEntity
  8
0
  6
CONTINUOUS
 62
     7
100
AcDbPolyline
 90
        5
 70
   128
 43
0.0
 10
99.9132394791
 20
139.61979875
 10
99.5956857734
 20
140.3817675781
 10
98.896977375
 20
140.6357571875
 10
98.1982689766
 20
140.3817675781
 10
97.88067425
 20
139.61979875
  0
LWPOLYLINE
  5
14D
330
1F
100
AcDbEntity
  8
0
  6
CONTINUOUS
 62
     7
100
AcDbPolyline
 90
        5
 70
   128
 43
0.0
 10
97.8806614876
 20
139.61979875
 10
98.1982689766
 20
138.8578292187
 10
98.896977375
 20
138.603839375
 10
99.5956857734
 20
138.8578292187
 10
99.9132805
 20
139.61979875
  0
LWPOLYLINE
  5
14E
330
1F
100
AcDbEntity
  8
0
  6
CONTINUOUS
 62
     7
100
AcDbPolyline
 90
        5
 70
   128
 43
0.0
 10
99.9132394791
 20
137.08007375
 10
99.5956857734
 20
137.8420425781
 10
98.896977375
 20
138.0960321875
 10
98.1982689766
 20
137.8420425781
 10
97.88067425
 20
137.08007375
  0
LWPOLYLINE
  5
14F
330
1F
100
AcDbEntity
  8
0
  6
CONTINUOUS
 62
     7
100
AcDbPolyline
 90
        5
 70
   128
 43
0.0
 10
97.8806614876
 20
137.08007375
 10
98.1982689766
 20
136.3181049219
 10
98.896977375
 20
136.0641153125
 10
99.5956857734
 20
136.3181049219
 10
99.9132805
 20
137.08007375
  0
LWPOLYLINE
  5
150
330
1F
100
AcDbEntity
  8
0
  6
CONTINUOUS
 62
     7
100
AcDbPolyline
 90
        5
 70
   128
 43
0.0
 10
99.9132394791
 20
134.54035
 10
99.5956857734
 20
135.3023188281
 10
98.896977375
 20
135.5563084375
 10
98.1982689766
 20
135.3023188281
 10
97.88067425
 20
134.54035
  0
LWPOLYLINE
  5
151
330
1F
100
AcDbEntity
  8
0
  6
CONTINUOUS
 62
     7
100
AcDbPolyline
 90
        5
 70
   128
 43
0.0
 10
97.8806614876
 20
134.54035
 10
98.1982689766
 20
133.7783804688
 10
98.896977375
 20
133.524390625
 10
99.5956857734
 20
133.7783804688
 10
99.9132805
 20
134.54035
  0
LWPOLYLINE
  5
152
330
1F
100
AcDbEntity
  8
0
  6
CONTINUOUS
 62
     7
100
AcDbPolyline
 90
        5
 70
   128
 43
0.0
 10
99.9132394791
 20
132.000625
 10
99.5956857734
 20
132.7625938281
 10
98.896977375
 20
133.0165834375
 10
98.1982689766
 20
132.7625938281
 10
97.88067425
 20
132.000625
  0
LWPOLYLINE
  5
153
330
1F
100
AcDbEntity
  8
0
  6
CONTINUOUS
 62
     7
100
AcDbPolyline
 90
        5
 70
   128
 43
0.0
 10
97.8806614876
 20
132.000625
 10
98.1982689766
 20
131.2386561719
 10
98.896977375
 20
130.9846665625
 10
99.5956857734
 20
131.2386561719
 10
99.9132805
 20
132.000625
  0
LWPOLYLINE
  5
154
330
1F
100
AcDbEntity
  8
0
  6
CONTINUOUS
 62
     7
100
AcDbPolyline
 90
        5
 70
   128
 43
0.0
 10
99.9132394791
 20
93.900625
 10
99.5956857734
 20
94.6625938281
 10
98.896977375
 20
94.9165834375
 10
98.1982689766
 20
94.6625938281
 10
97.88067425
 20
93.900625
  0
LWPOLYLINE
  5
155
330
1F
100
AcDbEntity
  8
0
  6
CONTINUOUS
 62
     7
100
AcDbPolyline
 90
        5
 70
   128
 43
0.0
 10
97.8806614876
 20
93.900625
 10
98.1982689766
 20
93.1386561719
 10
98.896977375
 20
92.8846665625
 10
99.5956857734
 20
93.1386561719
 10
99.9132805
 20
93.900625
  0
LWPOLYLINE
  5
156
330
1F
100
AcDbEntity
  8
0
  6
CONTINUOUS
 62
     7
100
AcDbPolyline
 90
        5
 70
   128
 43
0.0
 10
102.4529933929
 20
93.900625
 10
102.1354107734
 20
94.6625938281
 10
101.436702375
 20
94.9165834375
 10
100.7379939766
 20
94.6625938281
 10
100.42039925
 20
93.900625
  0
LWPOLYLINE
  5
157
330
1F
100
AcDbEntity
  8
0
  6
CONTINUOUS
 62
     7
100
AcDbPolyline
 90
        5
 70
   128
 43
0.0
 10
100.4203557968
 20
93.900625
 10
100.7379939766
 20
93.1386561719
 10
101.436702375
 20
92.8846665625
 10
102.1354107734
 20
93.1386561719
 10
102.4530055
 20
93.900625
  0
LWPOLYLINE
  5
158
330
1F
100
AcDbEntity
  8
0
  6
CONTINUOUS
 62
     7
100
AcDbPolyline
 90
        5
 70
   128
 43
0.0
 10
102.4529933929
 20
106.600625
 10
102.1354107734
 20
107.3625938281
 10
101.436702375
 20
107.6165834375
 10
100.7379939766
 20
107.3625938281
 10
100.42039925
 20
106.600625
  0
LWPOLYLINE
  5
159
330
1F
100
AcDbEntity
  8
0
  6
CONTINUOUS
 62
     7
100
AcDbPolyline
 90
        5
 70
   128
 43
0.0
 10
100.4203557968
 20
106.600625
 10
100.7379939766
 20
105.8386561719
 10
101.436702375
 20
105.5846665625
 10
102.1354107734
 20
105.8386561719
 10
102.4530055
 20
106.600625
  0
LWPOLYLINE
  5
15A
330
1F
100
AcDbEntity
  8
0
  6
CONTINUOUS
 62
     7
100
AcDbPolyline
 90
        5
 70
   128
 43
0.0
 10
99.9132394791
 20
91.36090125
 10
99.5956857734
 20
92.1228700781
 10
98.896977375
 20
92.3768596875
 10
98.1982689766
 20
92.1228700781
 10
97.88067425
 20
91.36090125
  0
LWPOLYLINE
  5
15B
330
1F
100
AcDbEntity
  8
0
  6
CONTINUOUS
 62
     7
100
AcDbPolyline
 90
        5
 70
   128
 43
0.0
 10
97.8806614876
 20
91.36090125
 10
98.1982689766
 20
90.5989317187
 10
98.896977375
 20
90.344941875
 10
99.5956857734
 20
90.5989317187
 10
99.9132805
 20
91.36090125
  0
LWPOLYLINE
  5
15C
330
1F
100
AcDbEntity
  8
0
  6
CONTINUOUS
 62
     7
100
AcDbPolyline
 90
        5
 70
   128
 43
0.0
 10
102.4529933929
 20
91.36090125
 10
102.1354107734
 20
92.1228700781
 10
101.436702375
 20
92.3768596875
 10
100.7379939766
 20
92.1228700781
 10
100.42039925
 20
91.36090125
  0
LWPOLYLINE
  5
15D
330
1F
100
AcDbEntity
  8
0
  6
CONTINUOUS
 62
     7
100
AcDbPolyline
 90
        5
 70
   128
 43
0.0
 10
100.4203557968
 20
91.36090125
 10
100.7379939766
 20
90.5989317187
 10
101.436702375
 20
90.344941875
 10
102.1354107734
 20
90.5989317187
 10
102.4530055
 20
91.36090125
  0
LWPOLYLINE
  5
15E
330
1F
100
AcDbEntity
  8
0
  6
CONTINUOUS
 62
     7
100
AcDbPolyline
 90
        5
 70
   128
 43
0.0
 10
99.9132394791
 20
88.81979875
 10
99.5956857734
 20
89.5817675781
 10
98.896977375
 20
89.8357571875
 10
98.1982689766
 20
89.5817675781
 10
97.88067425
 20
88.81979875
  0
LWPOLYLINE
  5
15F
330
1F
100
AcDbEntity
  8
0
  6
CONTINUOUS
 62
     7
100
AcDbPolyline
 90
        5
 70
   128
 43
0.0
 10
97.8806614876
 20
88.81979875
 10
98.1982689766
 20
88.0578292188
 10
98.896977375
 20
87.803839375
 10
99.5956857734
 20
88.0578292188
 10
99.9132805
 20
88.81979875
  0
LWPOLYLINE
  5
160
330
1F
100
AcDbEntity
  8
0
  6
CONTINUOUS
 62
     7
100
AcDbPolyline
 90
        5
 70
   128
 43
0.0
 10
102.4529933929
 20
88.81979875
 10
102.1354107734
 20
89.5817675781
 10
101.436702375
 20
89.8357571875
 10
100.7379939766
 20
89.5817675781
 10
100.42039925
 20
88.81979875
  0
LWPOLYLINE
  5
161
330
1F
100
AcDbEntity
  8
0
  6
CONTINUOUS
 62
     7
100
AcDbPolyline
 90
        5
 70
   128
 43
0.0
 10
100.4203557968
 20
88.81979875
 10
100.7379939766
 20
88.0578292188
 10
101.436702375
 20
87.803839375
 10
102.1354107734
 20
88.0578292188
 10
102.4530055
 20
88.81979875
  0
LWPOLYLINE
  5
162
330
1F
100
AcDbEntity
  8
0
  6
CONTINUOUS
 62
     7
100
AcDbPolyline
 90
        5
 70
   128
 43
0.0
 10
99.9132394791
 20
86.28007375
 10
99.5956857734
 20
87.0420425781
 10
98.896977375
 20
87.2960321875
 10
98.1982689766
 20
87.0420425781
 10
97.88067425
 20
86.28007375
  0
LWPOLYLINE
  5
163
330
1F
100
AcDbEntity
  8
0
  6
CONTINUOUS
 62
     7
100
AcDbPolyline
 90
        5
 70
   128
 43
0.0
 10
97.8806614876
 20
86.28007375
 10
98.1982689766
 20
85.5181049219
 10
98.896977375
 20
85.2641153125
 10
99.5956857734
 20
85.5181049219
 10
99.9132805
 20
86.28007375
  0
LWPOLYLINE
  5
164
330
1F
100
AcDbEntity
  8
0
  6
CONTINUOUS
 62
     7
100
AcDbPolyline
 90
        5
 70
   128
 43
0.0
 10
102.4529933929
 20
86.28007375
 10
102.1354107734
 20
87.0420425781
 10
101.436702375
 20
87.2960321875
 10
100.7379939766
 20
87.0420425781
 10
100.42039925
 20
86.28007375
  0
LWPOLYLINE
  5
165
330
1F
100
AcDbEntity
  8
0
  6
CONTINUOUS
 62
     7
100
AcDbPolyline
 90
        5
 70
   128
 43
0.0
 10
100.4203557968
 20
86.28007375
 10
100.7379939766
 20
85.5181049219
 10
101.436702375
 20
85.2641153125
 10
102.1354107734
 20
85.5181049219
 10
102.4530055
 20
86.28007375
  0
LWPOLYLINE
  5
166
330
1F
100
AcDbEntity
  8
0
  6
CONTINUOUS
 62
     7
100
AcDbPolyline
 90
        5
 70
   128
 43
0.0
 10
99.9132394791
 20
83.74035
 10
99.5956857734
 20
84.5023188281
 10
98.896977375
 20
84.7563084375
 10
98.1982689766
 20
84.5023188281
 10
97.88067425
 20
83.74035
  0
LWPOLYLINE
  5
167
330
1F
100
AcDbEntity
  8
0
  6
CONTINUOUS
 62
     7
100
AcDbPolyline
 90
        5
 70
   128
 43
0.0
 10
97.8806614876
 20
83.74035
 10
98.1982689766
 20
82.9783804688
 10
98.896977375
 20
82.724390625
 10
99.5956857734
 20
82.9783804688
 10
99.9132805
 20
83.74035
  0
LWPOLYLINE
  5
168
330
1F
100
AcDbEntity
  8
0
  6
CONTINUOUS
 62
     7
100
AcDbPolyline
 90
        5
 70
   128
 43
0.0
 10
102.4529933929
 20
83.74035
 10
102.1354107734
 20
84.5023188281
 10
101.436702375
 20
84.7563084375
 10
100.7379939766
 20
84.5023188281
 10
100.42039925
 20
83.74035
  0
LWPOLYLINE
  5
169
330
1F
100
AcDbEntity
  8
0
  6
CONTINUOUS
 62
     7
100
AcDbPolyline
 90
        5
 70
   128
 43
0.0
 10
100.4203557968
 20
83.74035
 10
100.7379939766
 20
82.9783804688
 10
101.436702375
 20
82.724390625
 10
102.1354107734
 20
82.9783804688
 10
102.4530055
 20
83.74035
  0
LWPOLYLINE
  5
16A
330
1F
100
AcDbEntity
  8
0
  6
CONTINUOUS
 62
     7
100
AcDbPolyline
 90
        5
 70
   128
 43
0.0
 10
99.9132394791
 20
81.200625
 10
99.5956857734
 20
81.9625938281
 10
98.896977375
 20
82.2165834375
 10
98.1982689766
 20
81.9625938281
 10
97.88067425
 20
81.200625
  0
LWPOLYLINE
  5
16B
330
1F
100
AcDbEntity
  8
0
  6
CONTINUOUS
 62
     7
100
AcDbPolyline
 90
        5
 70
   128
 43
0.0
 10
97.8806614876
 20
81.200625
 10
98.1982689766
 20
80.4386561719
 10
98.896977375
 20
80.1846665625
 10
99.5956857734
 20
80.4386561719
 10
99.9132805
 20
81.200625
  0
LWPOLYLINE
  5
16C
330
1F
100
AcDbEntity
  8
0
  6
CONTINUOUS
 62
     7
100
AcDbPolyline
 90
        5
 70
   128
 43
0.0
 10
102.4529933929
 20
81.200625
 10
102.1354107734
 20
81.9625938281
 10
101.436702375
 20
82.2165834375
 10
100.7379939766
 20
81.9625938281
 10
100.42039925
 20
81.200625
  0
LWPOLYLINE
  5
16D
330
1F
100
AcDbEntity
  8
0
  6
CONTINUOUS
 62
     7
100
AcDbPolyline
 90
        5
 70
   128
 43
0.0
 10
100.4203557968
 20
81.200625
 10
100.7379939766
 20
80.4386561719
 10
101.436702375
 20
80.1846665625
 10
102.1354107734
 20
80.4386561719
 10
102.4530055
 20
81.200625
  0
LWPOLYLINE
  5
16E
330
1F
100
AcDbEntity
  8
0
  6
CONTINUOUS
 62
     7
100
AcDbPolyline
 90
        5
 70
   128
 43
0.0
 10
49.9455928802
 20
37.30459625
 10
49.7100581563
 20
37.8704536719
 10
49.19182925
 20
38.0590728125
 10
48.6736003437
 20
37.8704536719
 10
48.43804175
 20
37.30459625
  0
LWPOLYLINE
  5
16F
330
1F
100
AcDbEntity
  8
0
  6
CONTINUOUS
 62
     7
100
AcDbPolyline
 90
        5
 70
   128
 43
0.0
 10
48.4380125999
 20
37.05517125
 10
48.6736003437
 20
36.4893145313
 10
49.19182925
 20
36.300695625
 10
49.7100581563
 20
36.4893145313
 10
49.94561675
 20
37.05517125
  0
LWPOLYLINE
  5
170
330
1F
100
AcDbEntity
  8
0
  6
CONTINUOUS
 62
     7
100
AcDbPolyline
 90
        5
 70
   128
 43
0.0
 10
54.3966591358
 20
37.30459625
 10
54.1609056172
 20
37.8704536719
 10
53.642203625
 20
38.0590728125
 10
53.1235016328
 20
37.8704536719
 10
52.887728
 20
37.30459625
  0
LWPOLYLINE
  5
171
330
1F
100
AcDbEntity
  8
0
  6
CONTINUOUS
 62
     7
100
AcDbPolyline
 90
        5
 70
   128
 43
0.0
 10
52.8877079487
 20
37.05517125
 10
53.1235016328
 20
36.4893145313
 10
53.642203625
 20
36.300695625
 10
54.1609056172
 20
36.4893145313
 10
54.39667925
 20
37.05517125
  0
LWPOLYLINE
  5
172
330
1F
100
AcDbEntity
  8
0
  6
CONTINUOUS
 62
     7
100
AcDbPolyline
 90
        5
 70
   128
 43
0.0
 10
56.7200481892
 20
34.09928
 10
56.3438904219
 20
35.0023252344
 10
55.5163355
 20
35.3033403125
 10
54.6887805781
 20
35.0023252344
 10
54.31261925
 20
34.09928
  0
LWPOLYLINE
  5
173
330
1F
100
AcDbEntity
  8
0
  6
CONTINUOUS
 62
     7
100
AcDbPolyline
 90
        5
 70
   128
 43
0.0
 10
54.3126165867
 20
33.89946375
 10
54.6887805781
 20
32.9964185156
 10
55.5163355
 20
32.6954034375
 10
56.3438904219
 20
32.9964185156
 10
56.72005175
 20
33.89946375
  0
LWPOLYLINE
  5
174
330
1F
100
AcDbEntity
  8
0
  6
CONTINUOUS
 62
     7
100
AcDbPolyline
 90
        5
 70
   128
 43
0.0
 10
48.5207140446
 20
34.09928
 10
48.1445639766
 20
35.0023252344
 10
47.317008625
 20
35.3033403125
 10
46.4894532734
 20
35.0023252344
 10
46.11329175
 20
34.09928
  0
LWPOLYLINE
  5
175
330
1F
100
AcDbEntity
  8
0
  6
CONTINUOUS
 62
     7
100
AcDbPolyline
 90
        5
 70
   128
 43
0.0
 10
46.1132824421
 20
33.89946375
 10
46.4894532734
 20
32.9964185156
 10
47.317008625
 20
32.6954034375
 10
48.1445639766
 20
32.9964185156
 10
48.5207255
 20
33.89946375
  0
LWPOLYLINE
  5
176
330
1F
100
AcDbEntity
  8
0
  6
CONTINUOUS
 62
     7
100
AcDbPolyline
 90
        5
 70
   128
 43
0.0
 10
54.4710755348
 20
34.00006125
 10
54.2587890938
 20
34.5093325781
 10
53.7917205
 20
34.6790896875
 10
53.3246519062
 20
34.5093325781
 10
53.112348
 20
34.00006125
  0
LWPOLYLINE
  5
177
330
1F
100
AcDbEntity
  8
0
  6
CONTINUOUS
 62
     7
100
AcDbPolyline
 90
        5
 70
   128
 43
0.0
 10
53.1123280525
 20
34.00006125
 10
53.3246519062
 20
33.490014375
 10
53.7917205
 20
33.31999875
 10
54.2587890938
 20
33.490014375
 10
54.471093
 20
34.00006125
  0
LWPOLYLINE
  5
178
330
1F
100
AcDbEntity
  8
0
  6
CONTINUOUS
 62
     7
100
AcDbPolyline
 90
        5
 70
   128
 43
0.0
 10
49.7209727764
 20
34.00006125
 10
49.5086915938
 20
34.5093325781
 10
49.041623
 20
34.6790896875
 10
48.5745544063
 20
34.5093325781
 10
48.3622505
 20
34.00006125
  0
LWPOLYLINE
  5
179
330
1F
100
AcDbEntity
  8
0
  6
CONTINUOUS
 62
     7
100
AcDbPolyline
 90
        5
 70
   128
 43
0.0
 10
48.3622252941
 20
34.00006125
 10
48.5745544063
 20
33.490014375
 10
49.041623
 20
33.31999875
 10
49.5086915938
 20
33.490014375
 10
49.7209955
 20
34.00006125
  0
LWPOLYLINE
  5
17A
330
1F
100
AcDbEntity
  8
0
  6
CONTINUOUS
 62
     7
100
AcDbPolyline
 90
        5
 70
   128
 43
0.0
 10
84.6059918404
 20
43.6821575
 10
84.011108
 20
45.1099772656
 10
82.702273
 20
45.5859171875
 10
81.393438
 20
45.1099772656
 10
80.798513
 20
43.6821575
  0
LWPOLYLINE
  5
17B
330
1F
100
AcDbEntity
  8
0
  6
CONTINUOUS
 62
     7
100
AcDbPolyline
 90
        5
 70
   128
 43
0.0
 10
80.7985067368
 20
43.6821575
 10
81.393438
 20
42.2543377344
 10
82.702273
 20
41.7783978125
 10
84.011108
 20
42.2543377344
 10
84.606033
 20
43.6821575
  0
LWPOLYLINE
  5
17C
330
1F
100
AcDbEntity
  8
0
  6
CONTINUOUS
 62
     7
100
AcDbPolyline
 90
        5
 70
   128
 43
0.0
 10
96.0354804993
 20
43.6821575
 10
95.44055675
 20
45.1099772656
 10
94.13172175
 20
45.5859171875
 10
92.82288675
 20
45.1099772656
 10
92.22796175
 20
43.6821575
  0
LWPOLYLINE
  5
17D
330
1F
100
AcDbEntity
  8
0
  6
CONTINUOUS
 62
     7
100
AcDbPolyline
 90
        5
 70
   128
 43
0.0
 10
92.227935791
 20
43.6821575
 10
92.82288675
 20
42.2543377344
 10
94.13172175
 20
41.7783978125
 10
95.44055675
 20
42.2543377344
 10
96.03548175
 20
43.6821575
  0
LWPOLYLINE
  5
17E
330
1F
100
AcDbEntity
  8
0
  6
CONTINUOUS
 62
     7
100
AcDbPolyline
 90
        5
 70
   128
 43
0.0
 10
93.8774347305
 20
52.57188125
 10
93.5600947578
 20
53.3338507812
 10
92.861859875
 20
53.587840625
 10
92.1636249922
 20
53.3338507812
 10
91.8462455
 20
52.57188125
  0
LWPOLYLINE
  5
17F
330
1F
100
AcDbEntity
  8
0
  6
CONTINUOUS
 62
     7
100
AcDbPolyline
 90
        5
 70
   128
 43
0.0
 10
91.8462276459
 20
52.57188125
 10
92.1636249922
 20
51.8099124219
 10
92.861859875
 20
51.5559228125
 10
93.5600947578
 20
51.8099124219
 10
93.87747425
 20
52.57188125
  0
LWPOLYLINE
  5
180
330
1F
100
AcDbEntity
  8
0
  6
CONTINUOUS
 62
     7
100
AcDbPolyline
 90
        5
 70
   128
 43
0.0
 10
92.6123857498
 20
50.0321575
 10
92.2950549531
 20
50.7941263281
 10
91.5968205
 20
51.0481159375
 10
90.8985860469
 20
50.7941263281
 10
90.58120675
 20
50.0321575
  0
LWPOLYLINE
  5
181
330
1F
100
AcDbEntity
  8
0
  6
CONTINUOUS
 62
     7
100
AcDbPolyline
 90
        5
 70
   128
 43
0.0
 10
90.5811786652
 20
50.0321575
 10
90.8985860469
 20
49.2701879688
 10
91.5968205
 20
49.016198125
 10
92.2950549531
 20
49.2701879688
 10
92.61243425
 20
50.0321575
  0
LWPOLYLINE
  5
182
330
1F
100
AcDbEntity
  8
0
  6
CONTINUOUS
 62
     7
100
AcDbPolyline
 90
        5
 70
   128
 43
0.0
 10
91.3377404213
 20
52.57188125
 10
91.0203699531
 20
53.3338507812
 10
90.3221355
 20
53.587840625
 10
89.6239010469
 20
53.3338507812
 10
89.30652175
 20
52.57188125
  0
LWPOLYLINE
  5
183
330
1F
100
AcDbEntity
  8
0
  6
CONTINUOUS
 62
     7
100
AcDbPolyline
 90
        5
 70
   128
 43
0.0
 10
89.306473732
 20
52.57188125
 10
89.6239010469
 20
51.8099124219
 10
90.3221355
 20
51.5559228125
 10
91.0203699531
 20
51.8099124219
 10
91.33774925
 20
52.57188125
  0
LWPOLYLINE
  5
184
330
1F
100
AcDbEntity
  8
0
  6
CONTINUOUS
 62
     7
100
AcDbPolyline
 90
        5
 70
   128
 43
0.0
 10
90.0726914406
 20
50.0321575
 10
89.7553310078
 20
50.7941263281
 10
89.057096125
 20
51.0481159375
 10
88.3588612422
 20
50.7941263281
 10
88.04148175
 20
50.0321575
  0
LWPOLYLINE
  5
185
330
1F
100
AcDbEntity
  8
0
  6
CONTINUOUS
 62
     7
100
AcDbPolyline
 90
        5
 70
   128
 43
0.0
 10
88.0414247513
 20
50.0321575
 10
88.3588612422
 20
49.2701879688
 10
89.057096125
 20
49.016198125
 10
89.7553310078
 20
49.2701879688
 10
90.0727105
 20
50.0321575
  0
LWPOLYLINE
  5
186
330
1F
100
AcDbEntity
  8
0
  6
CONTINUOUS
 62
     7
100
AcDbPolyline
 90
        5
 70
   128
 43
0.0
 10
88.7979865074
 20
52.57188125
 10
88.4804297188
 20
53.3338507812
 10
87.78172175
 20
53.587840625
 10
87.0830137813
 20
53.3338507812
 10
86.76541925
 20
52.57188125
  0
LWPOLYLINE
  5
187
330
1F
100
AcDbEntity
  8
0
  6
CONTINUOUS
 62
     7
100
AcDbPolyline
 90
        5
 70
   128
 43
0.0
 10
86.7654085159
 20
52.57188125
 10
87.0830137813
 20
51.8099124219
 10
87.78172175
 20
51.5559228125
 10
88.4804297188
 20
51.8099124219
 10
88.79802425
 20
52.57188125
  0
LWPOLYLINE
  5
188
330
1F
100
AcDbEntity
  8
0
  6
CONTINUOUS
 62
     7
100
AcDbPolyline
 90
        5
 70
   128
 43
0.0
 10
87.5329375267
 20
50.0321575
 10
87.2156062031
 20
50.7941263281
 10
86.51737175
 20
51.0481159375
 10
85.8191372969
 20
50.7941263281
 10
85.501758
 20
50.0321575
  0
LWPOLYLINE
  5
189
330
1F
100
AcDbEntity
  8
0
  6
CONTINUOUS
 62
     7
100
AcDbPolyline
 90
        5
 70
   128
 43
0.0
 10
85.501730442
 20
50.0321575
 10
85.8191372969
 20
49.2701879688
 10
86.51737175
 20
49.016198125
 10
87.2156062031
 20
49.2701879688
 10
87.5329855
 20
50.0321575
  0
LWPOLYLINE
  5
18A
330
1F
100
AcDbEntity
  8
0
  6
CONTINUOUS
 62
     7
100
AcDbPolyline
 90
        5
 70
   128
 43
0.0
 10
86.2582921982
 20
52.57188125
 10
85.9407057734
 20
53.3338507812
 10
85.241997375
 20
53.587840625
 10
84.5432889766
 20
53.3338507812
 10
84.22569425
 20
52.57188125
  0
LWPOLYLINE
  5
18B
330
1F
100
AcDbEntity
  8
0
  6
CONTINUOUS
 62
     7
100
AcDbPolyline
 90
        5
 70
   128
 43
0.0
 10
84.2256546021
 20
52.57188125
 10
84.5432889766
 20
51.8099124219
 10
85.241997375
 20
51.5559228125
 10
85.9407057734
 20
51.8099124219
 10
86.2583005
 20
52.57188125
  0
LWPOLYLINE
  5
18C
330
1F
100
AcDbEntity
  8
0
  6
CONTINUOUS
 62
     7
100
AcDbPolyline
 90
        5
 70
   128
 43
0.0
 10
82.1944475174
 20
46.73313375
 10
81.718181125
 20
47.8756999219
 10
80.6703555
 20
48.2565553125
 10
79.622529875
 20
47.8756999219
 10
79.1462455
 20
46.73313375
  0
LWPOLYLINE
  5
18D
330
1F
100
AcDbEntity
  8
0
  6
CONTINUOUS
 62
     7
100
AcDbPolyline
 90
        5
 70
   128
 43
0.0
 10
79.1462063789
 20
46.73313375
 10
79.622529875
 20
45.5897927344
 10
80.6703555
 20
45.2086790625
 10
81.718181125
 20
45.5897927344
 10
82.1944655
 20
46.73313375
  0
LWPOLYLINE
  5
18E
330
1F
100
AcDbEntity
  8
0
  6
CONTINUOUS
 62
     7
100
AcDbPolyline
 90
        5
 70
   128
 43
0.0
 10
97.6877212524
 20
46.7303775
 10
97.211464875
 20
47.8729436719
 10
96.16363925
 20
48.2537990625
 10
95.115813625
 20
47.8729436719
 10
94.63952925
 20
46.7303775
  0
LWPOLYLINE
  5
18F
330
1F
100
AcDbEntity
  8
0
  6
CONTINUOUS
 62
     7
100
AcDbPolyline
 90
        5
 70
   128
 43
0.0
 10
94.639480114
 20
46.7303775
 10
95.115813625
 20
45.5870364844
 10
96.16363925
 20
45.2059228125
 10
97.211464875
 20
45.5870364844
 10
97.68774925
 20
46.7303775
  0
LWPOLYLINE
  5
190
330
1F
100
AcDbEntity
  8
0
  6
CONTINUOUS
 62
     7
100
AcDbPolyline
 90
        5
 70
   128
 43
0.0
 10
93.517780304
 20
38.78185375
 10
93.2002107734
 20
39.5438225781
 10
92.501502375
 20
39.7978121875
 10
91.8027939766
 20
39.5438225781
 10
91.48519925
 20
38.78185375
  0
LWPOLYLINE
  5
191
330
1F
100
AcDbEntity
  8
0
  6
CONTINUOUS
 62
     7
100
AcDbPolyline
 90
        5
 70
   128
 43
0.0
 10
91.4851427078
 20
38.78185375
 10
91.8027939766
 20
38.0198849219
 10
92.501502375
 20
37.7658953125
 10
93.2002107734
 20
38.0198849219
 10
93.5178055
 20
38.78185375
  0
LWPOLYLINE
  5
192
330
1F
100
AcDbEntity
  8
0
  6
CONTINUOUS
 62
     7
100
AcDbPolyline
 90
        5
 70
   128
 43
0.0
 10
85.3487849236
 20
38.78185375
 10
85.0312007734
 20
39.5438225781
 10
84.332492375
 20
39.7978121875
 10
83.6337839766
 20
39.5438225781
 10
83.31618925
 20
38.78185375
  0
LWPOLYLINE
  5
193
330
1F
100
AcDbEntity
  8
0
  6
CONTINUOUS
 62
     7
100
AcDbPolyline
 90
        5
 70
   128
 43
0.0
 10
83.3161473274
 20
38.78185375
 10
83.6337839766
 20
38.0198849219
 10
84.332492375
 20
37.7658953125
 10
85.0312007734
 20
38.0198849219
 10
85.3487955
 20
38.78185375
  0
LWPOLYLINE
  5
194
330
1F
100
AcDbEntity
  8
0
  6
CONTINUOUS
 62
     7
100
AcDbPolyline
 90
        5
 70
   128
 43
0.0
 10
96.0574746132
 20
38.78185375
 10
95.7399357734
 20
39.5438225781
 10
95.041227375
 20
39.7978121875
 10
94.3425189766
 20
39.5438225781
 10
94.02492425
 20
38.78185375
  0
LWPOLYLINE
  5
195
330
1F
100
AcDbEntity
  8
0
  6
CONTINUOUS
 62
     7
100
AcDbPolyline
 90
        5
 70
   128
 43
0.0
 10
94.0248966217
 20
38.78185375
 10
94.3425189766
 20
38.0198849219
 10
95.041227375
 20
37.7658953125
 10
95.7399357734
 20
38.0198849219
 10
96.0575305
 20
38.78185375
  0
LWPOLYLINE
  5
196
330
1F
100
AcDbEntity
  8
0
  6
CONTINUOUS
 62
     7
100
AcDbPolyline
 90
        5
 70
   128
 43
0.0
 10
82.8090310097
 20
38.78185375
 10
82.4914757734
 20
39.5438225781
 10
81.792767375
 20
39.7978121875
 10
81.0940589766
 20
39.5438225781
 10
80.77646425
 20
38.78185375
  0
LWPOLYLINE
  5
197
330
1F
100
AcDbEntity
  8
0
  6
CONTINUOUS
 62
     7
100
AcDbPolyline
 90
        5
 70
   128
 43
0.0
 10
80.7764530182
 20
38.78185375
 10
81.0940589766
 20
38.0198849219
 10
81.792767375
 20
37.7658953125
 10
82.4914757734
 20
38.0198849219
 10
82.8090705
 20
38.78185375
  0
LWPOLYLINE
  5
198
330
1F
100
AcDbEntity
  8
0
  6
CONTINUOUS
 62
     7
100
AcDbPolyline
 90
        3
 70
   128
 43
0.0
 10
102.9214859009
 20
36.181495
 10
101.9272239318
 20
38.3003949037
 10
100.1668405
 20
38.93619375
  0
LWPOLYLINE
  5
199
330
1F
100
AcDbEntity
  8
0
  6
CONTINUOUS
 62
     7
100
AcDbPolyline
 90
        3
 70
   128
 43
0.0
 10
100.1667976379
 20
38.93619375
 10
98.0479405963
 20
37.9418794623
 10
97.41214175
 20
36.181495
  0
LWPOLYLINE
  5
19A
330
1F
100
AcDbEntity
  8
0
  6
CONTINUOUS
 62
     7
100
AcDbPolyline
 90
        3
 70
   128
 43
0.0
 10
97.412109375
 20
36.181495
 10
98.4064560377
 20
34.0625962398
 10
100.1668405
 20
33.4267975
  0
LWPOLYLINE
  5
19B
330
1F
100
AcDbEntity
  8
0
  6
CONTINUOUS
 62
     7
100
AcDbPolyline
 90
        3
 70
   128
 43
0.0
 10
100.1667976379
 20
33.4267975
 10
102.2857392602
 20
34.4211115682
 10
102.921538
 20
36.181495
  0
LWPOLYLINE
  5
19C
330
1F
100
AcDbEntity
  8
0
  6
CONTINUOUS
 62
     7
100
AcDbPolyline
 90
        3
 70
   128
 43
0.0
 10
10.9223276377
 20
36.181495
 10
9.9280162123
 20
38.3003949037
 10
8.16763175
 20
38.93619375
  0
LWPOLYLINE
  5
19D
330
1F
100
AcDbEntity
  8
0
  6
CONTINUOUS
 62
     7
100
AcDbPolyline
 90
        3
 70
   128
 43
0.0
 10
8.1676244736
 20
38.93619375
 10
6.0487329898
 20
37.9418794623
 10
5.41293425
 20
36.181495
  0
LWPOLYLINE
  5
19E
330
1F
100
AcDbEntity
  8
0
  6
CONTINUOUS
 62
     7
100
AcDbPolyline
 90
        3
 70
   128
 43
0.0
 10
5.4129324853
 20
36.181495
 10
6.4072483182
 20
34.0625962398
 10
8.16763175
 20
33.4267975
  0
LWPOLYLINE
  5
19F
330
1F
100
AcDbEntity
  8
0
  6
CONTINUOUS
 62
     7
100
AcDbPolyline
 90
        3
 70
   128
 43
0.0
 10
8.1676244736
 20
33.4267975
 10
10.2865316537
 20
34.4211115682
 10
10.9223305
 20
36.181495
  0
LWPOLYLINE
  5
1A0
330
1F
100
AcDbEntity
  8
0
  6
CONTINUOUS
 62
     7
100
AcDbPolyline
 90
        3
 70
   128
 43
0.0
 10
10.9223276377
 20
151.18016
 10
9.9280162123
 20
153.2990599037
 10
8.16763175
 20
153.93485875
  0
LWPOLYLINE
  5
1A1
330
1F
100
AcDbEntity
  8
0
  6
CONTINUOUS
 62
     7
100
AcDbPolyline
 90
        3
 70
   128
 43
0.0
 10
8.1676244736
 20
153.93485875
 10
6.0487329898
 20
152.9405444623
 10
5.41293425
 20
151.18016
  0
LWPOLYLINE
  5
1A2
330
1F
100
AcDbEntity
  8
0
  6
CONTINUOUS
 62
     7
100
AcDbPolyline
 90
        3
 70
   128
 43
0.0
 10
5.4129324853
 20
151.18016
 10
6.4072483182
 20
149.0612612398
 10
8.16763175
 20
148.4254625
  0
LWPOLYLINE
  5
1A3
330
1F
100
AcDbEntity
  8
0
  6
CONTINUOUS
 62
     7
100
AcDbPolyline
 90
        3
 70
   128
 43
0.0
 10
8.1676244736
 20
148.4254625
 10
10.2865316537
 20
149.4197765682
 10
10.9223305
 20
151.18016
  0
LWPOLYLINE
  5
1A4
330
1F
100
AcDbEntity
  8
0
  6
CONTINUOUS
 62
     7
100
AcDbPolyline
 90
        3
 70
   128
 43
0.0
 10
102.9214859009
 20
151.18016
 10
101.9272239318
 20
153.2990599037
 10
100.1668405
 20
153.93485875
  0
LWPOLYLINE
  5
1A5
330
1F
100
AcDbEntity
  8
0
  6
CONTINUOUS
 62
     7
100
AcDbPolyline
 90
        3
 70
   128
 43
0.0
 10
100.1667976379
 20
153.93485875
 10
98.0479405963
 20
152.9405444623
 10
97.41214175
 20
151.18016
  0
LWPOLYLINE
  5
1A6
330
1F
100
AcDbEntity
  8
0
  6
CONTINUOUS
 62
     7
100
AcDbPolyline
 90
        3
 70
   128
 43
0.0
 10
97.412109375
 20
151.18016
 10
98.4064560377
 20
149.0612612398
 10
100.1668405
 20
148.4254625
  0
LWPOLYLINE
  5
1A7
330
1F
100
AcDbEntity
  8
0
  6
CONTINUOUS
 62
     7
100
AcDbPolyline
 90
        3
 70
   128
 43
0.0
 10
100.1667976379
 20
148.4254625
 10
102.2857392602
 20
149.4197765682
 10
102.921538
 20
151.18016
  0
LWPOLYLINE
  5
1A8
330
1F
100
AcDbEntity
  8
0
  6
CONTINUOUS
 62
     7
100
AcDbPolyline
 90
        5
 70
   128
 43
0.0
 10
44.321835041
 20
98.68104
 10
44.1172902656
 20
99.1717073438
 10
43.66727425
 20
99.335263125
 10
43.2172582344
 20
99.1717073438
 10
43.0127055
 20
98.68104
  0
LWPOLYLINE
  5
1A9
330
1F
100
AcDbEntity
  8
0
  6
CONTINUOUS
 62
     7
100
AcDbPolyline
 90
        5
 70
   128
 43
0.0
 10
43.0126786232
 20
98.68104
 10
43.2172582344
 20
98.1903719531
 10
43.66727425
 20
98.0268159375
 10
44.1172902656
 20
98.1903719531
 10
44.321843
 20
98.68104
  0
LWPOLYLINE
  5
1AA
330
1F
100
AcDbEntity
  8
0
  6
CONTINUOUS
 62
     7
100
AcDbPolyline
 90
        5
 70
   128
 43
0.0
 10
43.8216030598
 20
138.9321575
 10
43.6170617109
 20
139.4228248437
 10
43.167046125
 20
139.586380625
 10
42.7170305391
 20
139.4228248437
 10
42.512478
 20
138.9321575
  0
LWPOLYLINE
  5
1AB
330
1F
100
AcDbEntity
  8
0
  6
CONTINUOUS
 62
     7
100
AcDbPolyline
 90
        5
 70
   128
 43
0.0
 10
42.5124764442
 20
138.9321575
 10
42.7170305391
 20
138.4414894531
 10
43.167046125
 20
138.2779334375
 10
43.6170617109
 20
138.4414894531
 10
43.82161425
 20
138.9321575
  0
LWPOLYLINE
  5
1AC
330
1F
100
AcDbEntity
  8
0
  6
CONTINUOUS
 62
     7
100
AcDbPolyline
 90
        5
 70
   128
 43
0.0
 10
44.321835041
 20
119.18073625
 10
44.1172902656
 20
119.6714035938
 10
43.66727425
 20
119.834959375
 10
43.2172582344
 20
119.6714035938
 10
43.0127055
 20
119.18073625
  0
LWPOLYLINE
  5
1AD
330
1F
100
AcDbEntity
  8
0
  6
CONTINUOUS
 62
     7
100
AcDbPolyline
 90
        5
 70
   128
 43
0.0
 10
43.0126786232
 20
119.18073625
 10
43.2172582344
 20
118.6900682031
 10
43.66727425
 20
118.5265121875
 10
44.1172902656
 20
118.6900682031
 10
44.321843
 20
119.18073625
  0
LWPOLYLINE
  5
1AE
330
1F
100
AcDbEntity
  8
0
  6
CONTINUOUS
 62
     7
100
AcDbPolyline
 90
        5
 70
   128
 43
0.0
 10
41.8220758438
 20
76.930085
 10
41.6177433906
 20
77.4207523437
 10
41.16820175
 20
77.584308125
 10
40.7186601094
 20
77.4207523437
 10
40.514323
 20
76.930085
  0
LWPOLYLINE
  5
1AF
330
1F
100
AcDbEntity
  8
0
  6
CONTINUOUS
 62
     7
100
AcDbPolyline
 90
        5
 70
   128
 43
0.0
 10
40.5143201351
 20
76.930085
 10
40.7186601094
 20
76.4401925
 10
41.16820175
 20
76.276895
 10
41.6177433906
 20
76.4401925
 10
41.8220805
 20
76.930085
  0
LWPOLYLINE
  5
1B0
330
1F
100
AcDbEntity
  8
0
  6
CONTINUOUS
 62
     7
100
AcDbPolyline
 90
        5
 70
   128
 43
0.0
 10
34.4550609589
 20
71.93194
 10
34.1374945234
 20
72.6939088281
 10
33.438786125
 20
72.9478984375
 10
32.7400777266
 20
72.6939088281
 10
32.422483
 20
71.93194
  0
LWPOLYLINE
  5
1B1
330
1F
100
AcDbEntity
  8
0
  6
CONTINUOUS
 62
     7
100
AcDbPolyline
 90
        5
 70
   128
 43
0.0
 10
32.4224829674
 20
71.93194
 10
32.7400777266
 20
71.1699711719
 10
33.438786125
 20
70.9159815625
 10
34.1374945234
 20
71.1699711719
 10
34.45508925
 20
71.93194
  0
LWPOLYLINE
  5
1B2
330
1F
100
AcDbEntity
  8
0
  6
CONTINUOUS
 62
     7
100
AcDbPolyline
 90
        5
 70
   128
 43
0.0
 10
34.4550609589
 20
69.18137625
 10
34.1374945234
 20
69.9433450781
 10
33.438786125
 20
70.1973346875
 10
32.7400777266
 20
69.9433450781
 10
32.422483
 20
69.18137625
  0
LWPOLYLINE
  5
1B3
330
1F
100
AcDbEntity
  8
0
  6
CONTINUOUS
 62
     7
100
AcDbPolyline
 90
        5
 70
   128
 43
0.0
 10
32.4224829674
 20
69.18137625
 10
32.7400777266
 20
68.4194067188
 10
33.438786125
 20
68.165416875
 10
34.1374945234
 20
68.4194067188
 10
34.45508925
 20
69.18137625
  0
LWPOLYLINE
  5
1B4
330
1F
100
AcDbEntity
  8
0
  6
CONTINUOUS
 62
     7
100
AcDbPolyline
 90
        5
 70
   128
 43
0.0
 10
34.4550609589
 20
109.68191875
 10
34.1374945234
 20
110.4438875781
 10
33.438786125
 20
110.6978771875
 10
32.7400777266
 20
110.4438875781
 10
32.422483
 20
109.68191875
  0
LWPOLYLINE
  5
1B5
330
1F
100
AcDbEntity
  8
0
  6
CONTINUOUS
 62
     7
100
AcDbPolyline
 90
        5
 70
   128
 43
0.0
 10
32.4224829674
 20
109.68191875
 10
32.7400777266
 20
108.9199499219
 10
33.438786125
 20
108.6659603125
 10
34.1374945234
 20
108.9199499219
 10
34.45508925
 20
109.68191875
  0
LWPOLYLINE
  5
1B6
330
1F
100
AcDbEntity
  8
0
  6
CONTINUOUS
 62
     7
100
AcDbPolyline
 90
        5
 70
   128
 43
0.0
 10
34.4550609589
 20
112.42972625
 10
34.1374945234
 20
113.1916957813
 10
33.438786125
 20
113.445685625
 10
32.7400777266
 20
113.1916957813
 10
32.422483
 20
112.42972625
  0
LWPOLYLINE
  5
1B7
330
1F
100
AcDbEntity
  8
0
  6
CONTINUOUS
 62
     7
100
AcDbPolyline
 90
        5
 70
   128
 43
0.0
 10
32.4224829674
 20
112.42972625
 10
32.7400777266
 20
111.6677574219
 10
33.438786125
 20
111.4137678125
 10
34.1374945234
 20
111.6677574219
 10
34.45508925
 20
112.42972625
  0
LWPOLYLINE
  5
1B8
330
1F
100
AcDbEntity
  8
0
  6
CONTINUOUS
 62
     7
100
AcDbPolyline
 90
        5
 70
   128
 43
0.0
 10
34.4550609589
 20
92.18083375
 10
34.1374945234
 20
92.9428025781
 10
33.438786125
 20
93.1967921875
 10
32.7400777266
 20
92.9428025781
 10
32.422483
 20
92.18083375
  0
LWPOLYLINE
  5
1B9
330
1F
100
AcDbEntity
  8
0
  6
CONTINUOUS
 62
     7
100
AcDbPolyline
 90
        5
 70
   128
 43
0.0
 10
32.4224829674
 20
92.18083375
 10
32.7400777266
 20
91.4188649219
 10
33.438786125
 20
91.1648753125
 10
34.1374945234
 20
91.4188649219
 10
34.45508925
 20
92.18083375
  0
LWPOLYLINE
  5
1BA
330
1F
100
AcDbEntity
  8
0
  6
CONTINUOUS
 62
     7
100
AcDbPolyline
 90
        5
 70
   128
 43
0.0
 10
34.4550609589
 20
89.43026875
 10
34.1374945234
 20
90.1922382812
 10
33.438786125
 20
90.446228125
 10
32.7400777266
 20
90.1922382812
 10
32.422483
 20
89.43026875
  0
LWPOLYLINE
  5
1BB
330
1F
100
AcDbEntity
  8
0
  6
CONTINUOUS
 62
     7
100
AcDbPolyline
 90
        5
 70
   128
 43
0.0
 10
32.4224829674
 20
89.43026875
 10
32.7400777266
 20
88.6682999219
 10
33.438786125
 20
88.4143103125
 10
34.1374945234
 20
88.6682999219
 10
34.45508925
 20
89.43026875
  0
LWPOLYLINE
  5
1BC
330
1F
100
AcDbEntity
  8
0
  6
CONTINUOUS
 62
     7
100
AcDbPolyline
 90
        5
 70
   128
 43
0.0
 10
34.4550609589
 20
129.68138625
 10
34.1374945234
 20
130.4433557813
 10
33.438786125
 20
130.697345625
 10
32.7400777266
 20
130.4433557813
 10
32.422483
 20
129.68138625
  0
LWPOLYLINE
  5
1BD
330
1F
100
AcDbEntity
  8
0
  6
CONTINUOUS
 62
     7
100
AcDbPolyline
 90
        5
 70
   128
 43
0.0
 10
32.4224829674
 20
129.68138625
 10
32.7400777266
 20
128.9194174219
 10
33.438786125
 20
128.6654278125
 10
34.1374945234
 20
128.9194174219
 10
34.45508925
 20
129.68138625
  0
LWPOLYLINE
  5
1BE
330
1F
100
AcDbEntity
  8
0
  6
CONTINUOUS
 62
     7
100
AcDbPolyline
 90
        5
 70
   128
 43
0.0
 10
34.4550609589
 20
132.43195125
 10
34.1374945234
 20
133.1939200781
 10
33.438786125
 20
133.4479096875
 10
32.7400777266
 20
133.1939200781
 10
32.422483
 20
132.43195125
  0
LWPOLYLINE
  5
1BF
330
1F
100
AcDbEntity
  8
0
  6
CONTINUOUS
 62
     7
100
AcDbPolyline
 90
        5
 70
   128
 43
0.0
 10
32.4224829674
 20
132.43195125
 10
32.7400777266
 20
131.6699824219
 10
33.438786125
 20
131.4159928125
 10
34.1374945234
 20
131.6699824219
 10
34.45508925
 20
132.43195125
  0
LWPOLYLINE
  5
1C0
330
1F
100
AcDbEntity
  8
0
  6
CONTINUOUS
 62
     7
100
AcDbPolyline
 90
        5
 70
   128
 43
0.0
 10
50.1922667027
 20
138.70064625
 10
49.8749060078
 20
139.4626157813
 10
49.176671125
 20
139.716605625
 10
48.4784362422
 20
139.4626157813
 10
48.16105675
 20
138.70064625
  0
LWPOLYLINE
  5
1C1
330
1F
100
AcDbEntity
  8
0
  6
CONTINUOUS
 62
     7
100
AcDbPolyline
 90
        5
 70
   128
 43
0.0
 10
48.1610298157
 20
138.70064625
 10
48.4784362422
 20
137.9386774219
 10
49.176671125
 20
137.6846878125
 10
49.8749060078
 20
137.9386774219
 10
50.1922855
 20
138.70064625
  0
LWPOLYLINE
  5
1C2
330
1F
100
AcDbEntity
  8
0
  6
CONTINUOUS
 62
     7
100
AcDbPolyline
 90
        5
 70
   128
 43
0.0
 10
52.7319908142
 20
136.1609225
 10
52.4146297578
 20
136.9228913281
 10
51.716394875
 20
137.1768809375
 10
51.0181599922
 20
136.9228913281
 10
50.7007805
 20
136.1609225
  0
LWPOLYLINE
  5
1C3
330
1F
100
AcDbEntity
  8
0
  6
CONTINUOUS
 62
     7
100
AcDbPolyline
 90
        5
 70
   128
 43
0.0
 10
50.7007539272
 20
136.1609225
 10
51.0181599922
 20
135.3989536719
 10
51.716394875
 20
135.1449640625
 10
52.4146297578
 20
135.3989536719
 10
52.73200925
 20
136.1609225
  0
LWPOLYLINE
  5
1C4
330
1F
100
AcDbEntity
  8
0
  6
CONTINUOUS
 62
     7
100
AcDbPolyline
 90
        5
 70
   128
 43
0.0
 10
52.7319908142
 20
138.70064625
 10
52.4146297578
 20
139.4626157813
 10
51.716394875
 20
139.716605625
 10
51.0181599922
 20
139.4626157813
 10
50.7007805
 20
138.70064625
  0
LWPOLYLINE
  5
1C5
330
1F
100
AcDbEntity
  8
0
  6
CONTINUOUS
 62
     7
100
AcDbPolyline
 90
        5
 70
   128
 43
0.0
 10
50.7007539272
 20
138.70064625
 10
51.0181599922
 20
137.9386774219
 10
51.716394875
 20
137.6846878125
 10
52.4146297578
 20
137.9386774219
 10
52.73200925
 20
138.70064625
  0
LWPOLYLINE
  5
1C6
330
1F
100
AcDbEntity
  8
0
  6
CONTINUOUS
 62
     7
100
AcDbPolyline
 90
        5
 70
   128
 43
0.0
 10
55.2730858326
 20
136.1609225
 10
54.9555170234
 20
136.9228913281
 10
54.256808625
 20
137.1768809375
 10
53.5581002266
 20
136.9228913281
 10
53.2405055
 20
136.1609225
  0
LWPOLYLINE
  5
1C7
330
1F
100
AcDbEntity
  8
0
  6
CONTINUOUS
 62
     7
100
AcDbPolyline
 90
        5
 70
   128
 43
0.0
 10
53.2404780388
 20
136.1609225
 10
53.5581002266
 20
135.3989536719
 10
54.256808625
 20
135.1449640625
 10
54.9555170234
 20
135.3989536719
 10
55.27311175
 20
136.1609225
  0
LWPOLYLINE
  5
1C8
330
1F
100
AcDbEntity
  8
0
  6
CONTINUOUS
 62
     7
100
AcDbPolyline
 90
        5
 70
   128
 43
0.0
 10
55.2730858326
 20
138.70064625
 10
54.9555170234
 20
139.4626157813
 10
54.256808625
 20
139.716605625
 10
53.5581002266
 20
139.4626157813
 10
53.2405055
 20
138.70064625
  0
LWPOLYLINE
  5
1C9
330
1F
100
AcDbEntity
  8
0
  6
CONTINUOUS
 62
     7
100
AcDbPolyline
 90
        5
 70
   128
 43
0.0
 10
53.2404780388
 20
138.70064625
 10
53.5581002266
 20
137.9386774219
 10
54.256808625
 20
137.6846878125
 10
54.9555170234
 20
137.9386774219
 10
55.27311175
 20
138.70064625
  0
LWPOLYLINE
  5
1CA
330
1F
100
AcDbEntity
  8
0
  6
CONTINUOUS
 62
     7
100
AcDbPolyline
 90
        5
 70
   128
 43
0.0
 10
57.8128099442
 20
136.1609225
 10
57.4952418281
 20
136.9228913281
 10
56.796533
 20
137.1768809375
 10
56.0978241719
 20
136.9228913281
 10
55.78022925
 20
136.1609225
  0
LWPOLYLINE
  5
1CB
330
1F
100
AcDbEntity
  8
0
  6
CONTINUOUS
 62
     7
100
AcDbPolyline
 90
        5
 70
   128
 43
0.0
 10
55.7802021503
 20
136.1609225
 10
56.0978241719
 20
135.3989536719
 10
56.796533
 20
135.1449640625
 10
57.4952418281
 20
135.3989536719
 10
57.81283675
 20
136.1609225
  0
LWPOLYLINE
  5
1CC
330
1F
100
AcDbEntity
  8
0
  6
CONTINUOUS
 62
     7
100
AcDbPolyline
 90
        5
 70
   128
 43
0.0
 10
57.8128099442
 20
138.70064625
 10
57.4952418281
 20
139.4626157813
 10
56.796533
 20
139.716605625
 10
56.0978241719
 20
139.4626157813
 10
55.78022925
 20
138.70064625
  0
LWPOLYLINE
  5
1CD
330
1F
100
AcDbEntity
  8
0
  6
CONTINUOUS
 62
     7
100
AcDbPolyline
 90
        5
 70
   128
 43
0.0
 10
55.7802021503
 20
138.70064625
 10
56.0978241719
 20
137.9386774219
 10
56.796533
 20
137.6846878125
 10
57.4952418281
 20
137.9386774219
 10
57.81283675
 20
138.70064625
  0
LWPOLYLINE
  5
1CE
330
1F
100
AcDbEntity
  8
0
  6
CONTINUOUS
 62
     7
100
AcDbPolyline
 90
        5
 70
   128
 43
0.0
 10
60.3525340557
 20
136.1609225
 10
60.0349657734
 20
136.9228913281
 10
59.336257375
 20
137.1768809375
 10
58.6375489766
 20
136.9228913281
 10
58.31995425
 20
136.1609225
  0
LWPOLYLINE
  5
1CF
330
1F
100
AcDbEntity
  8
0
  6
CONTINUOUS
 62
     7
100
AcDbPolyline
 90
        5
 70
   128
 43
0.0
 10
58.3199262619
 20
136.1609225
 10
58.6375489766
 20
135.3989536719
 10
59.336257375
 20
135.1449640625
 10
60.0349657734
 20
135.3989536719
 10
60.3525605
 20
136.1609225
  0
LWPOLYLINE
  5
1D0
330
1F
100
AcDbEntity
  8
0
  6
CONTINUOUS
 62
     7
100
AcDbPolyline
 90
        5
 70
   128
 43
0.0
 10
60.3525340557
 20
138.70064625
 10
60.0349657734
 20
139.4626157813
 10
59.336257375
 20
139.716605625
 10
58.6375489766
 20
139.4626157813
 10
58.31995425
 20
138.70064625
  0
LWPOLYLINE
  5
1D1
330
1F
100
AcDbEntity
  8
0
  6
CONTINUOUS
 62
     7
100
AcDbPolyline
 90
        5
 70
   128
 43
0.0
 10
58.3199262619
 20
138.70064625
 10
58.6375489766
 20
137.9386774219
 10
59.336257375
 20
137.6846878125
 10
60.0349657734
 20
137.9386774219
 10
60.3525605
 20
138.70064625
  0
LWPOLYLINE
  5
1D2
330
1F
100
AcDbEntity
  8
0
  6
CONTINUOUS
 62
     7
100
AcDbPolyline
 90
        5
 70
   128
 43
0.0
 10
62.8922581673
 20
136.1609225
 10
62.5749060078
 20
136.9228913281
 10
61.876671125
 20
137.1768809375
 10
61.1784362422
 20
136.9228913281
 10
60.86105675
 20
136.1609225
  0
LWPOLYLINE
  5
1D3
330
1F
100
AcDbEntity
  8
0
  6
CONTINUOUS
 62
     7
100
AcDbPolyline
 90
        5
 70
   128
 43
0.0
 10
60.8610510826
 20
136.1609225
 10
61.1784362422
 20
135.3989536719
 10
61.876671125
 20
135.1449640625
 10
62.5749060078
 20
135.3989536719
 10
62.8922855
 20
136.1609225
  0
LWPOLYLINE
  5
1D4
330
1F
100
AcDbEntity
  8
0
  6
CONTINUOUS
 62
     7
100
AcDbPolyline
 90
        5
 70
   128
 43
0.0
 10
62.8922581673
 20
138.70064625
 10
62.5749060078
 20
139.4626157813
 10
61.876671125
 20
139.716605625
 10
61.1784362422
 20
139.4626157813
 10
60.86105675
 20
138.70064625
  0
LWPOLYLINE
  5
1D5
330
1F
100
AcDbEntity
  8
0
  6
CONTINUOUS
 62
     7
100
AcDbPolyline
 90
        5
 70
   128
 43
0.0
 10
60.8610510826
 20
138.70064625
 10
61.1784362422
 20
137.9386774219
 10
61.876671125
 20
137.6846878125
 10
62.5749060078
 20
137.9386774219
 10
62.8922855
 20
138.70064625
  0
LWPOLYLINE
  5
1D6
330
1F
100
AcDbEntity
  8
0
  6
CONTINUOUS
 62
     7
100
AcDbPolyline
 90
        5
 70
   128
 43
0.0
 10
65.4319524765
 20
136.1609225
 10
65.1146299531
 20
136.9228913281
 10
64.4163955
 20
137.1768809375
 10
63.7181610469
 20
136.9228913281
 10
63.40078175
 20
136.1609225
  0
LWPOLYLINE
  5
1D7
330
1F
100
AcDbEntity
  8
0
  6
CONTINUOUS
 62
     7
100
AcDbPolyline
 90
        5
 70
   128
 43
0.0
 10
63.4007453918
 20
136.1609225
 10
63.7181610469
 20
135.3989536719
 10
64.4163955
 20
135.1449640625
 10
65.1146299531
 20
135.3989536719
 10
65.43200925
 20
136.1609225
  0
LWPOLYLINE
  5
1D8
330
1F
100
AcDbEntity
  8
0
  6
CONTINUOUS
 62
     7
100
AcDbPolyline
 90
        5
 70
   128
 43
0.0
 10
65.4319524765
 20
138.70064625
 10
65.1146299531
 20
139.4626157813
 10
64.4163955
 20
139.716605625
 10
63.7181610469
 20
139.4626157813
 10
63.40078175
 20
138.70064625
  0
LWPOLYLINE
  5
1D9
330
1F
100
AcDbEntity
  8
0
  6
CONTINUOUS
 62
     7
100
AcDbPolyline
 90
        5
 70
   128
 43
0.0
 10
63.4007453918
 20
138.70064625
 10
63.7181610469
 20
137.9386774219
 10
64.4163955
 20
137.6846878125
 10
65.1146299531
 20
137.9386774219
 10
65.43200925
 20
138.70064625
  0
LWPOLYLINE
  5
1DA
330
1F
100
AcDbEntity
  8
0
  6
CONTINUOUS
 62
     7
100
AcDbPolyline
 90
        5
 70
   128
 43
0.0
 10
67.9730772972
 20
136.1609225
 10
67.6555170234
 20
136.9228913281
 10
66.956808625
 20
137.1768809375
 10
66.2581002266
 20
136.9228913281
 10
65.9405055
 20
136.1609225
  0
LWPOLYLINE
  5
1DB
330
1F
100
AcDbEntity
  8
0
  6
CONTINUOUS
 62
     7
100
AcDbPolyline
 90
        5
 70
   128
 43
0.0
 10
65.9404993057
 20
136.1609225
 10
66.2581002266
 20
135.3989536719
 10
66.956808625
 20
135.1449640625
 10
67.6555170234
 20
135.3989536719
 10
67.97311175
 20
136.1609225
  0
LWPOLYLINE
  5
1DC
330
1F
100
AcDbEntity
  8
0
  6
CONTINUOUS
 62
     7
100
AcDbPolyline
 90
        5
 70
   128
 43
0.0
 10
67.9730772972
 20
138.70064625
 10
67.6555170234
 20
139.4626157813
 10
66.956808625
 20
139.716605625
 10
66.2581002266
 20
139.4626157813
 10
65.9405055
 20
138.70064625
  0
LWPOLYLINE
  5
1DD
330
1F
100
AcDbEntity
  8
0
  6
CONTINUOUS
 62
     7
100
AcDbPolyline
 90
        5
 70
   128
 43
0.0
 10
65.9404993057
 20
138.70064625
 10
66.2581002266
 20
137.9386774219
 10
66.956808625
 20
137.6846878125
 10
67.6555170234
 20
137.9386774219
 10
67.97311175
 20
138.70064625
  0
LWPOLYLINE
  5
1DE
330
1F
100
AcDbEntity
  8
0
  6
CONTINUOUS
 62
     7
100
AcDbPolyline
 90
        5
 70
   128
 43
0.0
 10
70.5128312111
 20
136.1609225
 10
70.1952418281
 20
136.9228913281
 10
69.496533
 20
137.1768809375
 10
68.7978241719
 20
136.9228913281
 10
68.48022925
 20
136.1609225
  0
LWPOLYLINE
  5
1DF
330
1F
100
AcDbEntity
  8
0
  6
CONTINUOUS
 62
     7
100
AcDbPolyline
 90
        5
 70
   128
 43
0.0
 10
68.480193615
 20
136.1609225
 10
68.7978241719
 20
135.3989536719
 10
69.496533
 20
135.1449640625
 10
70.1952418281
 20
135.3989536719
 10
70.51283675
 20
136.1609225
  0
LWPOLYLINE
  5
1E0
330
1F
100
AcDbEntity
  8
0
  6
CONTINUOUS
 62
     7
100
AcDbPolyline
 90
        5
 70
   128
 43
0.0
 10
70.5128312111
 20
138.70064625
 10
70.1952418281
 20
139.4626157813
 10
69.496533
 20
139.716605625
 10
68.7978241719
 20
139.4626157813
 10
68.48022925
 20
138.70064625
  0
LWPOLYLINE
  5
1E1
330
1F
100
AcDbEntity
  8
0
  6
CONTINUOUS
 62
     7
100
AcDbPolyline
 90
        5
 70
   128
 43
0.0
 10
68.480193615
 20
138.70064625
 10
68.7978241719
 20
137.9386774219
 10
69.496533
 20
137.6846878125
 10
70.1952418281
 20
137.9386774219
 10
70.51283675
 20
138.70064625
  0
LWPOLYLINE
  5
1E2
330
1F
100
AcDbEntity
  8
0
  6
CONTINUOUS
 62
     7
100
AcDbPolyline
 90
        5
 70
   128
 43
0.0
 10
73.0525255203
 20
136.1609225
 10
72.7349657734
 20
136.9228913281
 10
72.036257375
 20
137.1768809375
 10
71.3375489766
 20
136.9228913281
 10
71.01995425
 20
136.1609225
  0
LWPOLYLINE
  5
1E3
330
1F
100
AcDbEntity
  8
0
  6
CONTINUOUS
 62
     7
100
AcDbPolyline
 90
        5
 70
   128
 43
0.0
 10
71.0199475288
 20
136.1609225
 10
71.3375489766
 20
135.3989536719
 10
72.036257375
 20
135.1449640625
 10
72.7349657734
 20
135.3989536719
 10
73.0525605
 20
136.1609225
  0
LWPOLYLINE
  5
1E4
330
1F
100
AcDbEntity
  8
0
  6
CONTINUOUS
 62
     7
100
AcDbPolyline
 90
        5
 70
   128
 43
0.0
 10
73.0525255203
 20
138.70064625
 10
72.7349657734
 20
139.4626157813
 10
72.036257375
 20
139.716605625
 10
71.3375489766
 20
139.4626157813
 10
71.01995425
 20
138.70064625
  0
LWPOLYLINE
  5
1E5
330
1F
100
AcDbEntity
  8
0
  6
CONTINUOUS
 62
     7
100
AcDbPolyline
 90
        5
 70
   128
 43
0.0
 10
71.0199475288
 20
138.70064625
 10
71.3375489766
 20
137.9386774219
 10
72.036257375
 20
137.6846878125
 10
72.7349657734
 20
137.9386774219
 10
73.0525605
 20
138.70064625
  0
LWPOLYLINE
  5
1E6
330
1F
100
AcDbEntity
  8
0
  6
CONTINUOUS
 62
     7
100
AcDbPolyline
 90
        5
 70
   128
 43
0.0
 10
75.5922794342
 20
136.1609225
 10
75.2749060078
 20
136.9228913281
 10
74.576671125
 20
137.1768809375
 10
73.8784362422
 20
136.9228913281
 10
73.56105675
 20
136.1609225
  0
LWPOLYLINE
  5
1E7
330
1F
100
AcDbEntity
  8
0
  6
CONTINUOUS
 62
     7
100
AcDbPolyline
 90
        5
 70
   128
 43
0.0
 10
73.5610127449
 20
136.1609225
 10
73.8784362422
 20
135.3989536719
 10
74.576671125
 20
135.1449640625
 10
75.2749060078
 20
135.3989536719
 10
75.5922855
 20
136.1609225
  0
LWPOLYLINE
  5
1E8
330
1F
100
AcDbEntity
  8
0
  6
CONTINUOUS
 62
     7
100
AcDbPolyline
 90
        5
 70
   128
 43
0.0
 10
75.5922794342
 20
138.70064625
 10
75.2749060078
 20
139.4626157813
 10
74.576671125
 20
139.716605625
 10
73.8784362422
 20
139.4626157813
 10
73.56105675
 20
138.70064625
  0
LWPOLYLINE
  5
1E9
330
1F
100
AcDbEntity
  8
0
  6
CONTINUOUS
 62
     7
100
AcDbPolyline
 90
        5
 70
   128
 43
0.0
 10
73.5610127449
 20
138.70064625
 10
73.8784362422
 20
137.9386774219
 10
74.576671125
 20
137.6846878125
 10
75.2749060078
 20
137.9386774219
 10
75.5922855
 20
138.70064625
  0
LWPOLYLINE
  5
1EA
330
1F
100
AcDbEntity
  8
0
  6
CONTINUOUS
 62
     7
100
AcDbPolyline
 90
        5
 70
   128
 43
0.0
 10
78.1319737434
 20
136.1609225
 10
77.8146297578
 20
136.9228913281
 10
77.116394875
 20
137.1768809375
 10
76.4181599922
 20
136.9228913281
 10
76.1007805
 20
136.1609225
  0
LWPOLYLINE
  5
1EB
330
1F
100
AcDbEntity
  8
0
  6
CONTINUOUS
 62
     7
100
AcDbPolyline
 90
        5
 70
   128
 43
0.0
 10
76.1007666588
 20
136.1609225
 10
76.4181599922
 20
135.3989536719
 10
77.116394875
 20
135.1449640625
 10
77.8146297578
 20
135.3989536719
 10
78.13200925
 20
136.1609225
  0
LWPOLYLINE
  5
1EC
330
1F
100
AcDbEntity
  8
0
  6
CONTINUOUS
 62
     7
100
AcDbPolyline
 90
        5
 70
   128
 43
0.0
 10
78.1319737434
 20
138.70064625
 10
77.8146297578
 20
139.4626157813
 10
77.116394875
 20
139.716605625
 10
76.4181599922
 20
139.4626157813
 10
76.1007805
 20
138.70064625
  0
LWPOLYLINE
  5
1ED
330
1F
100
AcDbEntity
  8
0
  6
CONTINUOUS
 62
     7
100
AcDbPolyline
 90
        5
 70
   128
 43
0.0
 10
76.1007666588
 20
138.70064625
 10
76.4181599922
 20
137.9386774219
 10
77.116394875
 20
137.6846878125
 10
77.8146297578
 20
137.9386774219
 10
78.13200925
 20
138.70064625
  0
LWPOLYLINE
  5
1EE
330
1F
100
AcDbEntity
  8
0
  6
CONTINUOUS
 62
     7
100
AcDbPolyline
 90
        5
 70
   128
 43
0.0
 10
80.6730985641
 20
136.1609225
 10
80.3555170234
 20
136.9228913281
 10
79.656808625
 20
137.1768809375
 10
78.9581002266
 20
136.9228913281
 10
78.6405055
 20
136.1609225
  0
LWPOLYLINE
  5
1EF
330
1F
100
AcDbEntity
  8
0
  6
CONTINUOUS
 62
     7
100
AcDbPolyline
 90
        5
 70
   128
 43
0.0
 10
78.640460968
 20
136.1609225
 10
78.9581002266
 20
135.3989536719
 10
79.656808625
 20
135.1449640625
 10
80.3555170234
 20
135.3989536719
 10
80.67311175
 20
136.1609225
  0
LWPOLYLINE
  5
1F0
330
1F
100
AcDbEntity
  8
0
  6
CONTINUOUS
 62
     7
100
AcDbPolyline
 90
        5
 70
   128
 43
0.0
 10
80.6730985641
 20
138.70064625
 10
80.3555170234
 20
139.4626157813
 10
79.656808625
 20
139.716605625
 10
78.9581002266
 20
139.4626157813
 10
78.6405055
 20
138.70064625
  0
LWPOLYLINE
  5
1F1
330
1F
100
AcDbEntity
  8
0
  6
CONTINUOUS
 62
     7
100
AcDbPolyline
 90
        5
 70
   128
 43
0.0
 10
78.640460968
 20
138.70064625
 10
78.9581002266
 20
137.9386774219
 10
79.656808625
 20
137.6846878125
 10
80.3555170234
 20
137.9386774219
 10
80.67311175
 20
138.70064625
  0
LWPOLYLINE
  5
1F2
330
1F
100
AcDbEntity
  8
0
  6
CONTINUOUS
 62
     7
100
AcDbPolyline
 90
        5
 70
   128
 43
0.0
 10
15.9783512354
 20
122.66855
 10
15.6609735078
 20
123.4305195312
 10
14.962738625
 20
123.684509375
 10
14.2645037422
 20
123.4305195312
 10
13.94712425
 20
122.66855
  0
LWPOLYLINE
  5
1F3
330
1F
100
AcDbEntity
  8
0
  6
CONTINUOUS
 62
     7
100
AcDbPolyline
 90
        5
 70
   128
 43
0.0
 10
13.947121799
 20
122.66855
 10
14.2645037422
 20
121.9065811719
 10
14.962738625
 20
121.6525915625
 10
15.6609735078
 20
121.9065811719
 10
15.978353
 20
122.66855
  0
LWPOLYLINE
  5
1F4
330
1F
100
AcDbEntity
  8
0
  6
CONTINUOUS
 62
     7
100
AcDbPolyline
 90
        5
 70
   128
 43
0.0
 10
13.4386271238
 20
109.96855
 10
13.1212485078
 20
110.7305195313
 10
12.423013625
 20
110.984509375
 10
11.7247787422
 20
110.7305195313
 10
11.40739925
 20
109.96855
  0
LWPOLYLINE
  5
1F5
330
1F
100
AcDbEntity
  8
0
  6
CONTINUOUS
 62
     7
100
AcDbPolyline
 90
        5
 70
   128
 43
0.0
 10
11.4073976874
 20
109.96855
 10
11.7247787422
 20
109.2065811719
 10
12.423013625
 20
108.9525915625
 10
13.1212485078
 20
109.2065811719
 10
13.438628
 20
109.96855
  0
LWPOLYLINE
  5
1F6
330
1F
100
AcDbEntity
  8
0
  6
CONTINUOUS
 62
     7
100
AcDbPolyline
 90
        5
 70
   128
 43
0.0
 10
15.9783512354
 20
120.12882625
 10
15.6609735078
 20
120.8907950781
 10
14.962738625
 20
121.1447846875
 10
14.2645037422
 20
120.8907950781
 10
13.94712425
 20
120.12882625
  0
LWPOLYLINE
  5
1F7
330
1F
100
AcDbEntity
  8
0
  6
CONTINUOUS
 62
     7
100
AcDbPolyline
 90
        5
 70
   128
 43
0.0
 10
13.947121799
 20
120.12882625
 10
14.2645037422
 20
119.3668574219
 10
14.962738625
 20
119.1128678125
 10
15.6609735078
 20
119.3668574219
 10
15.978353
 20
120.12882625
  0
LWPOLYLINE
  5
1F8
330
1F
100
AcDbEntity
  8
0
  6
CONTINUOUS
 62
     7
100
AcDbPolyline
 90
        5
 70
   128
 43
0.0
 10
13.4386271238
 20
107.42882625
 10
13.1212485078
 20
108.1907950781
 10
12.423013625
 20
108.4447846875
 10
11.7247787422
 20
108.1907950781
 10
11.40739925
 20
107.42882625
  0
LWPOLYLINE
  5
1F9
330
1F
100
AcDbEntity
  8
0
  6
CONTINUOUS
 62
     7
100
AcDbPolyline
 90
        5
 70
   128
 43
0.0
 10
11.4073976874
 20
107.42882625
 10
11.7247787422
 20
106.6668574219
 10
12.423013625
 20
106.4128678125
 10
13.1212485078
 20
106.6668574219
 10
13.438628
 20
107.42882625
  0
LWPOLYLINE
  5
1FA
330
1F
100
AcDbEntity
  8
0
  6
CONTINUOUS
 62
     7
100
AcDbPolyline
 90
        5
 70
   128
 43
0.0
 10
15.9783512354
 20
117.58910125
 10
15.6609735078
 20
118.3510707813
 10
14.962738625
 20
118.605060625
 10
14.2645037422
 20
118.3510707813
 10
13.94712425
 20
117.58910125
  0
LWPOLYLINE
  5
1FB
330
1F
100
AcDbEntity
  8
0
  6
CONTINUOUS
 62
     7
100
AcDbPolyline
 90
        5
 70
   128
 43
0.0
 10
13.947121799
 20
117.58910125
 10
14.2645037422
 20
116.8263575781
 10
14.962738625
 20
116.5721096875
 10
15.6609735078
 20
116.8263575781
 10
15.978353
 20
117.58910125
  0
LWPOLYLINE
  5
1FC
330
1F
100
AcDbEntity
  8
0
  6
CONTINUOUS
 62
     7
100
AcDbPolyline
 90
        5
 70
   128
 43
0.0
 10
13.4386271238
 20
104.88910125
 10
13.1212485078
 20
105.6510707813
 10
12.423013625
 20
105.905060625
 10
11.7247787422
 20
105.6510707813
 10
11.40739925
 20
104.88910125
  0
LWPOLYLINE
  5
1FD
330
1F
100
AcDbEntity
  8
0
  6
CONTINUOUS
 62
     7
100
AcDbPolyline
 90
        5
 70
   128
 43
0.0
 10
11.4073976874
 20
104.88910125
 10
11.7247787422
 20
104.1263575781
 10
12.423013625
 20
103.8721096875
 10
13.1212485078
 20
104.1263575781
 10
13.438628
 20
104.88910125
  0
LWPOLYLINE
  5
1FE
330
1F
100
AcDbEntity
  8
0
  6
CONTINUOUS
 62
     7
100
AcDbPolyline
 90
        5
 70
   128
 43
0.0
 10
15.9783512354
 20
115.04799875
 10
15.6609735078
 20
115.8099682813
 10
14.962738625
 20
116.063958125
 10
14.2645037422
 20
115.8099682813
 10
13.94712425
 20
115.04799875
  0
LWPOLYLINE
  5
1FF
330
1F
100
AcDbEntity
  8
0
  6
CONTINUOUS
 62
     7
100
AcDbPolyline
 90
        5
 70
   128
 43
0.0
 10
13.947121799
 20
115.04799875
 10
14.2645037422
 20
114.2860299219
 10
14.962738625
 20
114.0320403125
 10
15.6609735078
 20
114.2860299219
 10
15.978353
 20
115.04799875
  0
LWPOLYLINE
  5
200
330
1F
100
AcDbEntity
  8
0
  6
CONTINUOUS
 62
     7
100
AcDbPolyline
 90
        5
 70
   128
 43
0.0
 10
13.4386271238
 20
102.34799875
 10
13.1212485078
 20
103.1099682813
 10
12.423013625
 20
103.363958125
 10
11.7247787422
 20
103.1099682813
 10
11.40739925
 20
102.34799875
  0
LWPOLYLINE
  5
201
330
1F
100
AcDbEntity
  8
0
  6
CONTINUOUS
 62
     7
100
AcDbPolyline
 90
        5
 70
   128
 43
0.0
 10
11.4073976874
 20
102.34799875
 10
11.7247787422
 20
101.5860299219
 10
12.423013625
 20
101.3320403125
 10
13.1212485078
 20
101.5860299219
 10
13.438628
 20
102.34799875
  0
LWPOLYLINE
  5
202
330
1F
100
AcDbEntity
  8
0
  6
CONTINUOUS
 62
     7
100
AcDbPolyline
 90
        5
 70
   128
 43
0.0
 10
15.9783512354
 20
112.508275
 10
15.6609735078
 20
113.2702438281
 10
14.962738625
 20
113.5242334375
 10
14.2645037422
 20
113.2702438281
 10
13.94712425
 20
112.508275
  0
LWPOLYLINE
  5
203
330
1F
100
AcDbEntity
  8
0
  6
CONTINUOUS
 62
     7
100
AcDbPolyline
 90
        5
 70
   128
 43
0.0
 10
13.947121799
 20
112.508275
 10
14.2645037422
 20
111.7463061719
 10
14.962738625
 20
111.4923165625
 10
15.6609735078
 20
111.7463061719
 10
15.978353
 20
112.508275
  0
LWPOLYLINE
  5
204
330
1F
100
AcDbEntity
  8
0
  6
CONTINUOUS
 62
     7
100
AcDbPolyline
 90
        5
 70
   128
 43
0.0
 10
13.4386271238
 20
99.808275
 10
13.1212485078
 20
100.5702438281
 10
12.423013625
 20
100.8242334375
 10
11.7247787422
 20
100.5702438281
 10
11.40739925
 20
99.808275
  0
LWPOLYLINE
  5
205
330
1F
100
AcDbEntity
  8
0
  6
CONTINUOUS
 62
     7
100
AcDbPolyline
 90
        5
 70
   128
 43
0.0
 10
11.4073976874
 20
99.808275
 10
11.7247787422
 20
99.0463061719
 10
12.423013625
 20
98.7923165625
 10
13.1212485078
 20
99.0463061719
 10
13.438628
 20
99.808275
  0
LWPOLYLINE
  5
206
330
1F
100
AcDbEntity
  8
0
  6
CONTINUOUS
 62
     7
100
AcDbPolyline
 90
        5
 70
   128
 43
0.0
 10
15.9783512354
 20
109.96855
 10
15.6609735078
 20
110.7305195313
 10
14.962738625
 20
110.984509375
 10
14.2645037422
 20
110.7305195313
 10
13.94712425
 20
109.96855
  0
LWPOLYLINE
  5
207
330
1F
100
AcDbEntity
  8
0
  6
CONTINUOUS
 62
     7
100
AcDbPolyline
 90
        5
 70
   128
 43
0.0
 10
13.947121799
 20
109.96855
 10
14.2645037422
 20
109.2065811719
 10
14.962738625
 20
108.9525915625
 10
15.6609735078
 20
109.2065811719
 10
15.978353
 20
109.96855
  0
LWPOLYLINE
  5
208
330
1F
100
AcDbEntity
  8
0
  6
CONTINUOUS
 62
     7
100
AcDbPolyline
 90
        5
 70
   128
 43
0.0
 10
13.4386271238
 20
97.26855
 10
13.1212485078
 20
98.0305195312
 10
12.423013625
 20
98.284509375
 10
11.7247787422
 20
98.0305195312
 10
11.40739925
 20
97.26855
  0
LWPOLYLINE
  5
209
330
1F
100
AcDbEntity
  8
0
  6
CONTINUOUS
 62
     7
100
AcDbPolyline
 90
        5
 70
   128
 43
0.0
 10
11.4073976874
 20
97.26855
 10
11.7247787422
 20
96.5065811719
 10
12.423013625
 20
96.2525915625
 10
13.1212485078
 20
96.5065811719
 10
13.438628
 20
97.26855
  0
LWPOLYLINE
  5
20A
330
1F
100
AcDbEntity
  8
0
  6
CONTINUOUS
 62
     7
100
AcDbPolyline
 90
        5
 70
   128
 43
0.0
 10
15.9783512354
 20
107.42882625
 10
15.6609735078
 20
108.1907950781
 10
14.962738625
 20
108.4447846875
 10
14.2645037422
 20
108.1907950781
 10
13.94712425
 20
107.42882625
  0
LWPOLYLINE
  5
20B
330
1F
100
AcDbEntity
  8
0
  6
CONTINUOUS
 62
     7
100
AcDbPolyline
 90
        5
 70
   128
 43
0.0
 10
13.947121799
 20
107.42882625
 10
14.2645037422
 20
106.6668574219
 10
14.962738625
 20
106.4128678125
 10
15.6609735078
 20
106.6668574219
 10
15.978353
 20
107.42882625
  0
LWPOLYLINE
  5
20C
330
1F
100
AcDbEntity
  8
0
  6
CONTINUOUS
 62
     7
100
AcDbPolyline
 90
        5
 70
   128
 43
0.0
 10
13.4386271238
 20
94.72882625
 10
13.1212485078
 20
95.4907950781
 10
12.423013625
 20
95.7447846875
 10
11.7247787422
 20
95.4907950781
 10
11.40739925
 20
94.72882625
  0
LWPOLYLINE
  5
20D
330
1F
100
AcDbEntity
  8
0
  6
CONTINUOUS
 62
     7
100
AcDbPolyline
 90
        5
 70
   128
 43
0.0
 10
11.4073976874
 20
94.72882625
 10
11.7247787422
 20
93.9668574219
 10
12.423013625
 20
93.7128678125
 10
13.1212485078
 20
93.9668574219
 10
13.438628
 20
94.72882625
  0
LWPOLYLINE
  5
20E
330
1F
100
AcDbEntity
  8
0
  6
CONTINUOUS
 62
     7
100
AcDbPolyline
 90
        5
 70
   128
 43
0.0
 10
15.9783512354
 20
104.88910125
 10
15.6609735078
 20
105.6510707813
 10
14.962738625
 20
105.905060625
 10
14.2645037422
 20
105.6510707813
 10
13.94712425
 20
104.88910125
  0
LWPOLYLINE
  5
20F
330
1F
100
AcDbEntity
  8
0
  6
CONTINUOUS
 62
     7
100
AcDbPolyline
 90
        5
 70
   128
 43
0.0
 10
13.947121799
 20
104.88910125
 10
14.2645037422
 20
104.1263575781
 10
14.962738625
 20
103.8721096875
 10
15.6609735078
 20
104.1263575781
 10
15.978353
 20
104.88910125
  0
LWPOLYLINE
  5
210
330
1F
100
AcDbEntity
  8
0
  6
CONTINUOUS
 62
     7
100
AcDbPolyline
 90
        5
 70
   128
 43
0.0
 10
13.4386271238
 20
92.18910125
 10
13.1212485078
 20
92.9510707813
 10
12.423013625
 20
93.205060625
 10
11.7247787422
 20
92.9510707813
 10
11.40739925
 20
92.18910125
  0
LWPOLYLINE
  5
211
330
1F
100
AcDbEntity
  8
0
  6
CONTINUOUS
 62
     7
100
AcDbPolyline
 90
        5
 70
   128
 43
0.0
 10
11.4073976874
 20
92.18910125
 10
11.7247787422
 20
91.4263575781
 10
12.423013625
 20
91.1721096875
 10
13.1212485078
 20
91.4263575781
 10
13.438628
 20
92.18910125
  0
LWPOLYLINE
  5
212
330
1F
100
AcDbEntity
  8
0
  6
CONTINUOUS
 62
     7
100
AcDbPolyline
 90
        5
 70
   128
 43
0.0
 10
15.9783512354
 20
102.34799875
 10
15.6609735078
 20
103.1099682813
 10
14.962738625
 20
103.363958125
 10
14.2645037422
 20
103.1099682813
 10
13.94712425
 20
102.34799875
  0
LWPOLYLINE
  5
213
330
1F
100
AcDbEntity
  8
0
  6
CONTINUOUS
 62
     7
100
AcDbPolyline
 90
        5
 70
   128
 43
0.0
 10
13.947121799
 20
102.34799875
 10
14.2645037422
 20
101.5860299219
 10
14.962738625
 20
101.3320403125
 10
15.6609735078
 20
101.5860299219
 10
15.978353
 20
102.34799875
  0
LWPOLYLINE
  5
214
330
1F
100
AcDbEntity
  8
0
  6
CONTINUOUS
 62
     7
100
AcDbPolyline
 90
        5
 70
   128
 43
0.0
 10
13.4386271238
 20
89.64799875
 10
13.1212485078
 20
90.4099682812
 10
12.423013625
 20
90.663958125
 10
11.7247787422
 20
90.4099682812
 10
11.40739925
 20
89.64799875
  0
LWPOLYLINE
  5
215
330
1F
100
AcDbEntity
  8
0
  6
CONTINUOUS
 62
     7
100
AcDbPolyline
 90
        5
 70
   128
 43
0.0
 10
11.4073976874
 20
89.64799875
 10
11.7247787422
 20
88.8860299219
 10
12.423013625
 20
88.6320403125
 10
13.1212485078
 20
88.8860299219
 10
13.438628
 20
89.64799875
  0
LWPOLYLINE
  5
216
330
1F
100
AcDbEntity
  8
0
  6
CONTINUOUS
 62
     7
100
AcDbPolyline
 90
        5
 70
   128
 43
0.0
 10
15.9783512354
 20
99.808275
 10
15.6609735078
 20
100.5702438281
 10
14.962738625
 20
100.8242334375
 10
14.2645037422
 20
100.5702438281
 10
13.94712425
 20
99.808275
  0
LWPOLYLINE
  5
217
330
1F
100
AcDbEntity
  8
0
  6
CONTINUOUS
 62
     7
100
AcDbPolyline
 90
        5
 70
   128
 43
0.0
 10
13.947121799
 20
99.808275
 10
14.2645037422
 20
99.0463061719
 10
14.962738625
 20
98.7923165625
 10
15.6609735078
 20
99.0463061719
 10
15.978353
 20
99.808275
  0
LWPOLYLINE
  5
218
330
1F
100
AcDbEntity
  8
0
  6
CONTINUOUS
 62
     7
100
AcDbPolyline
 90
        5
 70
   128
 43
0.0
 10
13.4386271238
 20
87.108275
 10
13.1212485078
 20
87.8702438281
 10
12.423013625
 20
88.1242334375
 10
11.7247787422
 20
87.8702438281
 10
11.40739925
 20
87.108275
  0
LWPOLYLINE
  5
219
330
1F
100
AcDbEntity
  8
0
  6
CONTINUOUS
 62
     7
100
AcDbPolyline
 90
        5
 70
   128
 43
0.0
 10
11.4073976874
 20
87.108275
 10
11.7247787422
 20
86.3463061719
 10
12.423013625
 20
86.0923165625
 10
13.1212485078
 20
86.3463061719
 10
13.438628
 20
87.108275
  0
LWPOLYLINE
  5
21A
330
1F
100
AcDbEntity
  8
0
  6
CONTINUOUS
 62
     7
100
AcDbPolyline
 90
        5
 70
   128
 43
0.0
 10
15.9783512354
 20
97.26855
 10
15.6609735078
 20
98.0305195312
 10
14.962738625
 20
98.284509375
 10
14.2645037422
 20
98.0305195312
 10
13.94712425
 20
97.26855
  0
LWPOLYLINE
  5
21B
330
1F
100
AcDbEntity
  8
0
  6
CONTINUOUS
 62
     7
100
AcDbPolyline
 90
        5
 70
   128
 43
0.0
 10
13.947121799
 20
97.26855
 10
14.2645037422
 20
96.5065811719
 10
14.962738625
 20
96.2525915625
 10
15.6609735078
 20
96.5065811719
 10
15.978353
 20
97.26855
  0
LWPOLYLINE
  5
21C
330
1F
100
AcDbEntity
  8
0
  6
CONTINUOUS
 62
     7
100
AcDbPolyline
 90
        5
 70
   128
 43
0.0
 10
13.4386271238
 20
84.56855
 10
13.1212485078
 20
85.3305195312
 10
12.423013625
 20
85.584509375
 10
11.7247787422
 20
85.3305195312
 10
11.40739925
 20
84.56855
  0
LWPOLYLINE
  5
21D
330
1F
100
AcDbEntity
  8
0
  6
CONTINUOUS
 62
     7
100
AcDbPolyline
 90
        5
 70
   128
 43
0.0
 10
11.4073976874
 20
84.56855
 10
11.7247787422
 20
83.8065811719
 10
12.423013625
 20
83.5525915625
 10
13.1212485078
 20
83.8065811719
 10
13.438628
 20
84.56855
  0
LWPOLYLINE
  5
21E
330
1F
100
AcDbEntity
  8
0
  6
CONTINUOUS
 62
     7
100
AcDbPolyline
 90
        5
 70
   128
 43
0.0
 10
15.9783512354
 20
94.72882625
 10
15.6609735078
 20
95.4907950781
 10
14.962738625
 20
95.7447846875
 10
14.2645037422
 20
95.4907950781
 10
13.94712425
 20
94.72882625
  0
LWPOLYLINE
  5
21F
330
1F
100
AcDbEntity
  8
0
  6
CONTINUOUS
 62
     7
100
AcDbPolyline
 90
        5
 70
   128
 43
0.0
 10
13.947121799
 20
94.72882625
 10
14.2645037422
 20
93.9668574219
 10
14.962738625
 20
93.7128678125
 10
15.6609735078
 20
93.9668574219
 10
15.978353
 20
94.72882625
  0
LWPOLYLINE
  5
220
330
1F
100
AcDbEntity
  8
0
  6
CONTINUOUS
 62
     7
100
AcDbPolyline
 90
        5
 70
   128
 43
0.0
 10
15.9783512354
 20
92.18910125
 10
15.6609735078
 20
92.9510707813
 10
14.962738625
 20
93.205060625
 10
14.2645037422
 20
92.9510707813
 10
13.94712425
 20
92.18910125
  0
LWPOLYLINE
  5
221
330
1F
100
AcDbEntity
  8
0
  6
CONTINUOUS
 62
     7
100
AcDbPolyline
 90
        5
 70
   128
 43
0.0
 10
13.947121799
 20
92.18910125
 10
14.2645037422
 20
91.4263575781
 10
14.962738625
 20
91.1721096875
 10
15.6609735078
 20
91.4263575781
 10
15.978353
 20
92.18910125
  0
LWPOLYLINE
  5
222
330
1F
100
AcDbEntity
  8
0
  6
CONTINUOUS
 62
     7
100
AcDbPolyline
 90
        5
 70
   128
 43
0.0
 10
13.4386271238
 20
82.02882625
 10
13.1212485078
 20
82.7907950781
 10
12.423013625
 20
83.0447846875
 10
11.7247787422
 20
82.7907950781
 10
11.40739925
 20
82.02882625
  0
LWPOLYLINE
  5
223
330
1F
100
AcDbEntity
  8
0
  6
CONTINUOUS
 62
     7
100
AcDbPolyline
 90
        5
 70
   128
 43
0.0
 10
11.4073976874
 20
82.02882625
 10
11.7247787422
 20
81.2668574219
 10
12.423013625
 20
81.0128678125
 10
13.1212485078
 20
81.2668574219
 10
13.438628
 20
82.02882625
  0
LWPOLYLINE
  5
224
330
1F
100
AcDbEntity
  8
0
  6
CONTINUOUS
 62
     7
100
AcDbPolyline
 90
        5
 70
   128
 43
0.0
 10
15.9783512354
 20
89.64799875
 10
15.6609735078
 20
90.4099682812
 10
14.962738625
 20
90.663958125
 10
14.2645037422
 20
90.4099682812
 10
13.94712425
 20
89.64799875
  0
LWPOLYLINE
  5
225
330
1F
100
AcDbEntity
  8
0
  6
CONTINUOUS
 62
     7
100
AcDbPolyline
 90
        5
 70
   128
 43
0.0
 10
13.947121799
 20
89.64799875
 10
14.2645037422
 20
88.8860299219
 10
14.962738625
 20
88.6320403125
 10
15.6609735078
 20
88.8860299219
 10
15.978353
 20
89.64799875
  0
LWPOLYLINE
  5
226
330
1F
100
AcDbEntity
  8
0
  6
CONTINUOUS
 62
     7
100
AcDbPolyline
 90
        5
 70
   128
 43
0.0
 10
15.9783512354
 20
84.56855
 10
15.6609735078
 20
85.3305195312
 10
14.962738625
 20
85.584509375
 10
14.2645037422
 20
85.3305195312
 10
13.94712425
 20
84.56855
  0
LWPOLYLINE
  5
227
330
1F
100
AcDbEntity
  8
0
  6
CONTINUOUS
 62
     7
100
AcDbPolyline
 90
        5
 70
   128
 43
0.0
 10
13.947121799
 20
84.56855
 10
14.2645037422
 20
83.8065811719
 10
14.962738625
 20
83.5525915625
 10
15.6609735078
 20
83.8065811719
 10
15.978353
 20
84.56855
  0
LWPOLYLINE
  5
228
330
1F
100
AcDbEntity
  8
0
  6
CONTINUOUS
 62
     7
100
AcDbPolyline
 90
        5
 70
   128
 43
0.0
 10
15.9783512354
 20
82.02882625
 10
15.6609735078
 20
82.7907950781
 10
14.962738625
 20
83.0447846875
 10
14.2645037422
 20
82.7907950781
 10
13.94712425
 20
82.02882625
  0
LWPOLYLINE
  5
229
330
1F
100
AcDbEntity
  8
0
  6
CONTINUOUS
 62
     7
100
AcDbPolyline
 90
        5
 70
   128
 43
0.0
 10
13.947121799
 20
82.02882625
 10
14.2645037422
 20
81.2668574219
 10
14.962738625
 20
81.0128678125
 10
15.6609735078
 20
81.2668574219
 10
15.978353
 20
82.02882625
  0
LWPOLYLINE
  5
22A
330
1F
100
AcDbEntity
  8
0
  6
CONTINUOUS
 62
     7
100
AcDbPolyline
 90
        5
 70
   128
 43
0.0
 10
15.9783512354
 20
79.48910125
 10
15.6609735078
 20
80.2510707813
 10
14.962738625
 20
80.505060625
 10
14.2645037422
 20
80.2510707813
 10
13.94712425
 20
79.48910125
  0
LWPOLYLINE
  5
22B
330
1F
100
AcDbEntity
  8
0
  6
CONTINUOUS
 62
     7
100
AcDbPolyline
 90
        5
 70
   128
 43
0.0
 10
13.947121799
 20
79.48910125
 10
14.2645037422
 20
78.7263575781
 10
14.962738625
 20
78.4721096875
 10
15.6609735078
 20
78.7263575781
 10
15.978353
 20
79.48910125
  0
LWPOLYLINE
  5
22C
330
1F
100
AcDbEntity
  8
0
  6
CONTINUOUS
 62
     7
100
AcDbPolyline
 90
        5
 70
   128
 43
0.0
 10
15.9783512354
 20
76.94799875
 10
15.6609735078
 20
77.7099682812
 10
14.962738625
 20
77.963958125
 10
14.2645037422
 20
77.7099682812
 10
13.94712425
 20
76.94799875
  0
LWPOLYLINE
  5
22D
330
1F
100
AcDbEntity
  8
0
  6
CONTINUOUS
 62
     7
100
AcDbPolyline
 90
        5
 70
   128
 43
0.0
 10
13.947121799
 20
76.94799875
 10
14.2645037422
 20
76.1860299219
 10
14.962738625
 20
75.9320403125
 10
15.6609735078
 20
76.1860299219
 10
15.978353
 20
76.94799875
  0
LWPOLYLINE
  5
22E
330
1F
100
AcDbEntity
  8
0
  6
CONTINUOUS
 62
     7
100
AcDbPolyline
 90
        5
 70
   128
 43
0.0
 10
13.4386271238
 20
79.48910125
 10
13.1212485078
 20
80.2510707813
 10
12.423013625
 20
80.505060625
 10
11.7247787422
 20
80.2510707813
 10
11.40739925
 20
79.48910125
  0
LWPOLYLINE
  5
22F
330
1F
100
AcDbEntity
  8
0
  6
CONTINUOUS
 62
     7
100
AcDbPolyline
 90
        5
 70
   128
 43
0.0
 10
11.4073976874
 20
79.48910125
 10
11.7247787422
 20
78.7263575781
 10
12.423013625
 20
78.4721096875
 10
13.1212485078
 20
78.7263575781
 10
13.438628
 20
79.48910125
  0
LWPOLYLINE
  5
230
330
1F
100
AcDbEntity
  8
0
  6
CONTINUOUS
 62
     7
100
AcDbPolyline
 90
        5
 70
   128
 43
0.0
 10
13.4386271238
 20
76.94799875
 10
13.1212485078
 20
77.7099682812
 10
12.423013625
 20
77.963958125
 10
11.7247787422
 20
77.7099682812
 10
11.40739925
 20
76.94799875
  0
LWPOLYLINE
  5
231
330
1F
100
AcDbEntity
  8
0
  6
CONTINUOUS
 62
     7
100
AcDbPolyline
 90
        5
 70
   128
 43
0.0
 10
11.4073976874
 20
76.94799875
 10
11.7247787422
 20
76.1860299219
 10
12.423013625
 20
75.9320403125
 10
13.1212485078
 20
76.1860299219
 10
13.438628
 20
76.94799875
  0
LWPOLYLINE
  5
232
330
1F
100
AcDbEntity
  8
0
  6
CONTINUOUS
 62
     7
100
AcDbPolyline
 90
        5
 70
   128
 43
0.0
 10
13.4386271238
 20
120.12882625
 10
13.1212485078
 20
120.8907950781
 10
12.423013625
 20
121.1447846875
 10
11.7247787422
 20
120.8907950781
 10
11.40739925
 20
120.12882625
  0
LWPOLYLINE
  5
233
330
1F
100
AcDbEntity
  8
0
  6
CONTINUOUS
 62
     7
100
AcDbPolyline
 90
        5
 70
   128
 43
0.0
 10
11.4073976874
 20
120.12882625
 10
11.7247787422
 20
119.3668574219
 10
12.423013625
 20
119.1128678125
 10
13.1212485078
 20
119.3668574219
 10
13.438628
 20
120.12882625
  0
LWPOLYLINE
  5
234
330
1F
100
AcDbEntity
  8
0
  6
CONTINUOUS
 62
     7
100
AcDbPolyline
 90
        5
 70
   128
 43
0.0
 10
13.4386271238
 20
117.58910125
 10
13.1212485078
 20
118.3510707813
 10
12.423013625
 20
118.605060625
 10
11.7247787422
 20
118.3510707813
 10
11.40739925
 20
117.58910125
  0
LWPOLYLINE
  5
235
330
1F
100
AcDbEntity
  8
0
  6
CONTINUOUS
 62
     7
100
AcDbPolyline
 90
        5
 70
   128
 43
0.0
 10
11.4073976874
 20
117.58910125
 10
11.7247787422
 20
116.8263575781
 10
12.423013625
 20
116.5721096875
 10
13.1212485078
 20
116.8263575781
 10
13.438628
 20
117.58910125
  0
LWPOLYLINE
  5
236
330
1F
100
AcDbEntity
  8
0
  6
CONTINUOUS
 62
     7
100
AcDbPolyline
 90
        5
 70
   128
 43
0.0
 10
13.4386271238
 20
115.04799875
 10
13.1212485078
 20
115.8099682813
 10
12.423013625
 20
116.063958125
 10
11.7247787422
 20
115.8099682813
 10
11.40739925
 20
115.04799875
  0
LWPOLYLINE
  5
237
330
1F
100
AcDbEntity
  8
0
  6
CONTINUOUS
 62
     7
100
AcDbPolyline
 90
        5
 70
   128
 43
0.0
 10
11.4073976874
 20
115.04799875
 10
11.7247787422
 20
114.2860299219
 10
12.423013625
 20
114.0320403125
 10
13.1212485078
 20
114.2860299219
 10
13.438628
 20
115.04799875
  0
LWPOLYLINE
  5
238
330
1F
100
AcDbEntity
  8
0
  6
CONTINUOUS
 62
     7
100
AcDbPolyline
 90
        5
 70
   128
 43
0.0
 10
13.4386271238
 20
112.508275
 10
13.1212485078
 20
113.2702438281
 10
12.423013625
 20
113.5242334375
 10
11.7247787422
 20
113.2702438281
 10
11.40739925
 20
112.508275
  0
LWPOLYLINE
  5
239
330
1F
100
AcDbEntity
  8
0
  6
CONTINUOUS
 62
     7
100
AcDbPolyline
 90
        5
 70
   128
 43
0.0
 10
11.4073976874
 20
112.508275
 10
11.7247787422
 20
111.7463061719
 10
12.423013625
 20
111.4923165625
 10
13.1212485078
 20
111.7463061719
 10
13.438628
 20
112.508275
  0
LWPOLYLINE
  5
23A
330
1F
100
AcDbEntity
  8
0
  6
CONTINUOUS
 62
     7
100
AcDbPolyline
 90
        5
 70
   128
 43
0.0
 10
13.4386271238
 20
74.408275
 10
13.1212485078
 20
75.1702438281
 10
12.423013625
 20
75.4242334375
 10
11.7247787422
 20
75.1702438281
 10
11.40739925
 20
74.408275
  0
LWPOLYLINE
  5
23B
330
1F
100
AcDbEntity
  8
0
  6
CONTINUOUS
 62
     7
100
AcDbPolyline
 90
        5
 70
   128
 43
0.0
 10
11.4073976874
 20
74.408275
 10
11.7247787422
 20
73.6463061719
 10
12.423013625
 20
73.3923165625
 10
13.1212485078
 20
73.6463061719
 10
13.438628
 20
74.408275
  0
LWPOLYLINE
  5
23C
330
1F
100
AcDbEntity
  8
0
  6
CONTINUOUS
 62
     7
100
AcDbPolyline
 90
        5
 70
   128
 43
0.0
 10
15.9783512354
 20
74.408275
 10
15.6609735078
 20
75.1702438281
 10
14.962738625
 20
75.4242334375
 10
14.2645037422
 20
75.1702438281
 10
13.94712425
 20
74.408275
  0
LWPOLYLINE
  5
23D
330
1F
100
AcDbEntity
  8
0
  6
CONTINUOUS
 62
     7
100
AcDbPolyline
 90
        5
 70
   128
 43
0.0
 10
13.947121799
 20
74.408275
 10
14.2645037422
 20
73.6463061719
 10
14.962738625
 20
73.3923165625
 10
15.6609735078
 20
73.6463061719
 10
15.978353
 20
74.408275
  0
LWPOLYLINE
  5
23E
330
1F
100
AcDbEntity
  8
0
  6
CONTINUOUS
 62
     7
100
AcDbPolyline
 90
        5
 70
   128
 43
0.0
 10
15.9783512354
 20
87.108275
 10
15.6609735078
 20
87.8702438281
 10
14.962738625
 20
88.1242334375
 10
14.2645037422
 20
87.8702438281
 10
13.94712425
 20
87.108275
  0
LWPOLYLINE
  5
23F
330
1F
100
AcDbEntity
  8
0
  6
CONTINUOUS
 62
     7
100
AcDbPolyline
 90
        5
 70
   128
 43
0.0
 10
13.947121799
 20
87.108275
 10
14.2645037422
 20
86.3463061719
 10
14.962738625
 20
86.0923165625
 10
15.6609735078
 20
86.3463061719
 10
15.978353
 20
87.108275
  0
LWPOLYLINE
  5
240
330
1F
100
AcDbEntity
  8
0
  6
CONTINUOUS
 62
     7
100
AcDbPolyline
 90
        3
 70
   128
 43
0.0
 10
101.1700034142
 20
42.18147375
 10
100.4478725647
 20
43.7206066113
 10
99.1691405
 20
44.182385
  0
LWPOLYLINE
  5
241
330
1F
100
AcDbEntity
  8
0
  6
CONTINUOUS
 62
     7
100
AcDbPolyline
 90
        3
 70
   128
 43
0.0
 10
99.1691350937
 20
44.182385
 10
97.6291947718
 20
43.4602058147
 10
97.1668505
 20
42.18147375
  0
LWPOLYLINE
  5
242
330
1F
100
AcDbEntity
  8
0
  6
CONTINUOUS
 62
     7
100
AcDbPolyline
 90
        3
 70
   128
 43
0.0
 10
97.1668362617
 20
42.18147375
 10
97.8898425522
 20
40.6410795862
 10
99.1691405
 20
40.17918375
  0
LWPOLYLINE
  5
243
330
1F
100
AcDbEntity
  8
0
  6
CONTINUOUS
 62
     7
100
AcDbPolyline
 90
        3
 70
   128
 43
0.0
 10
99.1691350937
 20
40.17918375
 10
100.7082733613
 20
40.9016050658
 10
101.17005175
 20
42.18147375
  0
LWPOLYLINE
  5
244
330
1F
100
AcDbEntity
  8
0
  6
CONTINUOUS
 62
     7
100
AcDbPolyline
 90
        3
 70
   128
 43
0.0
 10
56.1688244343
 20
119.18073625
 10
55.4466575647
 20
120.7206812412
 10
54.1679255
 20
121.183025
  0
LWPOLYLINE
  5
245
330
1F
100
AcDbEntity
  8
0
  6
CONTINUOUS
 62
     7
100
AcDbPolyline
 90
        3
 70
   128
 43
0.0
 10
54.1678965092
 20
121.183025
 10
52.6279797718
 20
120.4600336848
 10
52.1656355
 20
119.18073625
  0
LWPOLYLINE
  5
246
330
1F
100
AcDbEntity
  8
0
  6
CONTINUOUS
 62
     7
100
AcDbPolyline
 90
        3
 70
   128
 43
0.0
 10
52.1656274796
 20
119.18073625
 10
52.8886275522
 20
117.6416022452
 10
54.1679255
 20
117.17982375
  0
LWPOLYLINE
  5
247
330
1F
100
AcDbEntity
  8
0
  6
CONTINUOUS
 62
     7
100
AcDbPolyline
 90
        3
 70
   128
 43
0.0
 10
54.1678965092
 20
117.17982375
 10
55.7070583613
 20
117.9020031548
 10
56.16883675
 20
119.18073625
  0
LWPOLYLINE
  5
248
330
1F
100
AcDbEntity
  8
0
  6
CONTINUOUS
 62
     7
100
AcDbPolyline
 90
        3
 70
   128
 43
0.0
 10
16.1698907614
 20
150.1810825
 10
15.4469079348
 20
151.7214766638
 10
14.1676105
 20
152.1833725
  0
LWPOLYLINE
  5
249
330
1F
100
AcDbEntity
  8
0
  6
CONTINUOUS
 62
     7
100
AcDbPolyline
 90
        3
 70
   128
 43
0.0
 10
14.1676068306
 20
152.1833725
 10
12.6284776387
 20
151.4609511842
 10
12.16669925
 20
150.1810825
  0
LWPOLYLINE
  5
24A
330
1F
100
AcDbEntity
  8
0
  6
CONTINUOUS
 62
     7
100
AcDbPolyline
 90
        3
 70
   128
 43
0.0
 10
12.1666938066
 20
150.1810825
 10
12.8888784353
 20
148.6419496387
 10
14.1676105
 20
148.18017125
  0
LWPOLYLINE
  5
24B
330
1F
100
AcDbEntity
  8
0
  6
CONTINUOUS
 62
     7
100
AcDbPolyline
 90
        3
 70
   128
 43
0.0
 10
14.1676068306
 20
148.18017125
 10
15.7075554912
 20
148.9023504353
 10
16.16989925
 20
150.1810825
  0
CIRCLE
  5
24C
330
1F
100
AcDbEntity
  8
0
  6
CONTINUOUS
 62
     7
100
AcDbCircle
 10
8.16763175
 20
36.181495625
 30
0.0
 40
2.099999999999996
  0
CIRCLE
  5
24D
330
1F
100
AcDbEntity
  8
0
  6
CONTINUOUS
 62
     7
100
AcDbCircle
 10
100.1668405
 20
151.18016
 30
0.0
 40
2.099999999999966
  0
CIRCLE
  5
252
330
1F
100
AcDbEntity
  8
0
  6
CONTINUOUS
 62
     7
100
AcDbCircle
 10
8.16763175
 20
151.18016
 30
0.0
 40
2.099999999999996
  0
CIRCLE
  5
253
330
1F
100
AcDbEntity
  8
0
  6
CONTINUOUS
 62
     7
100
AcDbCircle
 10
100.1668405
 20
36.181495
 30
0.0
 40
2.099999999999994
  0
LINE
  5
254
330
1F
100
AcDbEntity
  8
0
  6
CONTINUOUS
 62
     7
100
AcDbLine
 10
4.167188
 20
32.18105
 30
0.0
 11
104.16728925
 21
32.18105
 31
0.0
  0
LINE
  5
255
330
1F
100
AcDbEntity
  8
0
  6
CONTINUOUS
 62
     7
100
AcDbLine
 10
4.167188
 20
155.1806075
 30
0.0
 11
4.167188
 21
32.18105
 31
0.0
  0
LINE
  5
256
330
1F
100
AcDbEntity
  8
0
  6
CONTINUOUS
 62
     7
100
AcDbLine
 10
104.16728925
 20
155.1806075
 30
0.0
 11
4.167188
 21
155.1806075
 31
0.0
  0
LINE
  5
257
330
1F
100
AcDbEntity
  8
0
  6
CONTINUOUS
 62
     7
100
AcDbLine
 10
104.16728925
 20
32.18105
 30
0.0
 11
104.16728925
 21
155.1806075
 31
0.0
  0
ENDSEC
  0
SECTION
  2
OBJECTS
  0
DICTIONARY
  5
C
330
0
100
AcDbDictionary
  3
ACAD_GROUP
350
D
  3
ACAD_MLINESTYLE
350
17
  0
DICTIONARY
  5
D
102
{ACAD_REACTORS
330
C
102
}
330
C
100
AcDbDictionary
  0
DICTIONARY
  5
17
102
{ACAD_REACTORS
330
C
102
}
330
C
100
AcDbDictionary
  3
STANDARD
350
18
  0
MLINESTYLE
  5
18
102
{ACAD_REACTORS
330
17
102
}
330
17
100
AcDbMlineStyle
  2
Standard
 70
     0
  3

 62
   256
 51
90.0
 52
90.0
 71
     2
 49
0.5
 62
   256
  6
BYLAYER
 49
-0.5
 62
   256
  6
BYLAYER
  0
ENDSEC
  0
EOF
