  0
SECTION
  2
HEADER
  9
$ACADVER
  1
AC1015
  9
$ACADMAINTVER
 70
     6
  9
$DWGCODEPAGE
  3
ANSI_1252
  9
$INSBASE
 10
0.0
 20
0.0
 30
0.0
  9
$EXTMIN
 10
0.167188
 20
18.18105
 30
0.0
  9
$EXTMAX
 10
108.16728925
 20
159.1806075
 30
0.0
  9
$LIMMIN
 10
0.0
 20
0.0
  9
$LIMMAX
 10
420.0
 20
297.0
  9
$ORTHOMODE
 70
     0
  9
$REGENMODE
 70
     1
  9
$FILLMODE
 70
     1
  9
$QTEXTMODE
 70
     0
  9
$MIRRTEXT
 70
     1
  9
$LTSCALE
 40
1.0
  9
$ATTMODE
 70
     1
  9
$TEXTSIZE
 40
3.5
  9
$TRACEWID
 40
1.0
  9
$TEXTSTYLE
  7
Standard
  9
$CLAYER
  8
0
  9
$CELTYPE
  6
ByLayer
  9
$CECOLOR
 62
   256
  9
$CELTSCALE
 40
1.0
  9
$DISPSILH
 70
     0
  9
$DIMSCALE
 40
1.0
  9
$DIMASZ
 40
3.302
  9
$DIMEXO
 40
1.0
  9
$DIMDLI
 40
3.75
  9
$DIMRND
 40
0.0
  9
$DIMDLE
 40
0.0
  9
$DIMEXE
 40
1.0
  9
$DIMTP
 40
0.0
  9
$DIMTM
 40
0.0
  9
$DIMTXT
 40
3.5
  9
$DIMCEN
 40
2.5
  9
$DIMTSZ
 40
0.0
  9
$DIMTOL
 70
     0
  9
$DIMLIM
 70
     0
  9
$DIMTIH
 70
     1
  9
$DIMTOH
 70
     1
  9
$DIMSE1
 70
     0
  9
$DIMSE2
 70
     0
  9
$DIMTAD
 70
     1
  9
$DIMZIN
 70
     0
  9
$DIMBLK
  1

  9
$DIMASO
 70
     1
  9
$DIMSHO
 70
     1
  9
$DIMPOST
  1

  9
$DIMAPOST
  1

  9
$DIMALT
 70
     0
  9
$DIMALTD
 70
     3
  9
$DIMALTF
 40
0.0393700787
  9
$DIMLFAC
 40
1.0
  9
$DIMTOFL
 70
     1
  9
$DIMTVP
 40
0.0
  9
$DIMTIX
 70
     0
  9
$DIMSOXD
 70
     0
  9
$DIMSAH
 70
     0
  9
$DIMBLK1
  1

  9
$DIMBLK2
  1

  9
$DIMSTYLE
  2
ISO-25
  9
$DIMCLRD
 70
     0
  9
$DIMCLRE
 70
     0
  9
$DIMCLRT
 70
     0
  9
$DIMTFAC
 40
1.0
  9
$DIMGAP
 40
1.524
  9
$DIMJUST
 70
     0
  9
$DIMSD1
 70
     0
  9
$DIMSD2
 70
     0
  9
$DIMTOLJ
 70
     0
  9
$DIMTZIN
 70
     0
  9
$DIMALTZ
 70
     0
  9
$DIMALTTZ
 70
     0
  9
$DIMUPT
 70
     0
  9
$DIMDEC
 70
     2
  9
$DIMTDEC
 70
     2
  9
$DIMALTU
 70
     2
  9
$DIMALTTD
 70
     3
  9
$DIMTXSTY
  7
Standard
  9
$DIMAUNIT
 70
     0
  9
$DIMADEC
 70
     2
  9
$DIMALTRND
 40
0.0
  9
$DIMAZIN
 70
     0
  9
$DIMDSEP
 70
    44
  9
$DIMATFIT
 70
     3
  9
$DIMFRAC
 70
     0
  9
$DIMLDRBLK
  1

  9
$DIMLUNIT
 70
     2
  9
$DIMLWD
 70
    -2
  9
$DIMLWE
 70
    -2
  9
$DIMTMOVE
 70
     0
  9
$LUNITS
 70
     2
  9
$LUPREC
 70
     2
  9
$SKETCHINC
 40
1.0
  9
$FILLETRAD
 40
10.0
  9
$AUNITS
 70
     0
  9
$AUPREC
 70
     2
  9
$MENU
  1
.
  9
$ELEVATION
 40
0.0
  9
$PELEVATION
 40
0.0
  9
$THICKNESS
 40
0.0
  9
$LIMCHECK
 70
     0
  9
$CHAMFERA
 40
10.0
  9
$CHAMFERB
 40
10.0
  9
$CHAMFERC
 40
20.0
  9
$CHAMFERD
 40
0.0
  9
$SKPOLY
 70
     0
  9
$TDCREATE
 40
2456644.862635578
  9
$TDUCREATE
 40
2456644.862635578
  9
$TDUPDATE
 40
2456644.862651505
  9
$TDUUPDATE
 40
2456644.862651505
  9
$TDINDWG
 40
0.0000000116
  9
$TDUSRTIMER
 40
0.0000000116
  9
$USRTIMER
 70
     1
  9
$ANGBASE
 50
0.0
  9
$ANGDIR
 70
     0
  9
$PDMODE
 70
     0
  9
$PDSIZE
 40
-1.0
  9
$PLINEWID
 40
0.0
  9
$SPLFRAME
 70
     0
  9
$SPLINETYPE
 70
     6
  9
$SPLINESEGS
 70
     8
  9
$HANDSEED
  5
90
  9
$SURFTAB1
 70
     6
  9
$SURFTAB2
 70
     6
  9
$SURFTYPE
 70
     6
  9
$SURFU
 70
     6
  9
$SURFV
 70
     6
  9
$UCSBASE
  2

  9
$UCSNAME
  2

  9
$UCSORG
 10
0.0
 20
0.0
 30
0.0
  9
$UCSXDIR
 10
1.0
 20
0.0
 30
0.0
  9
$UCSYDIR
 10
0.0
 20
1.0
 30
0.0
  9
$UCSORTHOREF
  2

  9
$UCSORTHOVIEW
 70
     0
  9
$UCSORGTOP
 10
0.0
 20
0.0
 30
0.0
  9
$UCSORGBOTTOM
 10
0.0
 20
0.0
 30
0.0
  9
$UCSORGLEFT
 10
0.0
 20
0.0
 30
0.0
  9
$UCSORGRIGHT
 10
0.0
 20
0.0
 30
0.0
  9
$UCSORGFRONT
 10
0.0
 20
0.0
 30
0.0
  9
$UCSORGBACK
 10
0.0
 20
0.0
 30
0.0
  9
$PUCSBASE
  2

  9
$PUCSNAME
  2

  9
$PUCSORG
 10
0.0
 20
0.0
 30
0.0
  9
$PUCSXDIR
 10
1.0
 20
0.0
 30
0.0
  9
$PUCSYDIR
 10
0.0
 20
1.0
 30
0.0
  9
$PUCSORTHOREF
  2

  9
$PUCSORTHOVIEW
 70
     0
  9
$PUCSORGTOP
 10
0.0
 20
0.0
 30
0.0
  9
$PUCSORGBOTTOM
 10
0.0
 20
0.0
 30
0.0
  9
$PUCSORGLEFT
 10
0.0
 20
0.0
 30
0.0
  9
$PUCSORGRIGHT
 10
0.0
 20
0.0
 30
0.0
  9
$PUCSORGFRONT
 10
0.0
 20
0.0
 30
0.0
  9
$PUCSORGBACK
 10
0.0
 20
0.0
 30
0.0
  9
$USERI1
 70
     0
  9
$USERI2
 70
     0
  9
$USERI3
 70
     0
  9
$USERI4
 70
     0
  9
$USERI5
 70
     0
  9
$USERR1
 40
0.0
  9
$USERR2
 40
0.0
  9
$USERR3
 40
0.0
  9
$USERR4
 40
0.0
  9
$USERR5
 40
0.0
  9
$WORLDVIEW
 70
     1
  9
$SHADEDGE
 70
     3
  9
$SHADEDIF
 70
    70
  9
$TILEMODE
 70
     1
  9
$MAXACTVP
 70
    64
  9
$PINSBASE
 10
0.0
 20
0.0
 30
0.0
  9
$PLIMCHECK
 70
     0
  9
$PEXTMIN
 10
1.0000000000E+20
 20
1.0000000000E+20
 30
1.0000000000E+20
  9
$PEXTMAX
 10
-1.0000000000E+20
 20
-1.0000000000E+20
 30
-1.0000000000E+20
  9
$PLIMMIN
 10
0.0
 20
0.0
  9
$PLIMMAX
 10
420.0
 20
297.0
  9
$UNITMODE
 70
     0
  9
$VISRETAIN
 70
     1
  9
$PLINEGEN
 70
     0
  9
$PSLTSCALE
 70
     1
  9
$TREEDEPTH
 70
  3020
  9
$CMLSTYLE
  2
Standard
  9
$CMLJUST
 70
     0
  9
$CMLSCALE
 40
20.0
  9
$PROXYGRAPHICS
 70
     1
  9
$MEASUREMENT
 70
     1
  9
$CELWEIGHT
370
    -1
  9
$ENDCAPS
280
     0
  9
$JOINSTYLE
280
     0
  9
$LWDISPLAY
290
     1
  9
$INSUNITS
 70
     4
  9
$HYPERLINKBASE
  1

  9
$STYLESHEET
  1

  9
$XEDIT
290
     1
  9
$CEPSNTYPE
380
     0
  9
$PSTYLEMODE
290
     1
  9
$FINGERPRINTGUID
  2
{474711F2-6666-4048-BFF0-28318CCF43FF}
  9
$VERSIONGUID
  2
{FAEB1C32-E019-11D5-929B-00C0DF256EC4}
  9
$EXTNAMES
290
     1
  9
$PSVPSCALE
 40
0.0
  9
$OLESTARTUP
290
     0
  0
ENDSEC
  0
SECTION
  2
CLASSES
  0
CLASS
  1
ACDBDICTIONARYWDFLT
  2
AcDbDictionaryWithDefault
  3
ObjectDBX Classes
 90
        0
280
     0
281
     0
  0
CLASS
  1
VISUALSTYLE
  2
AcDbVisualStyle
  3
ObjectDBX Classes
 90
     4095
280
     0
281
     0
  0
CLASS
  1
MATERIAL
  2
AcDbMaterial
  3
ObjectDBX Classes
 90
     1153
280
     0
281
     0
  0
CLASS
  1
ACDBPLACEHOLDER
  2
AcDbPlaceHolder
  3
ObjectDBX Classes
 90
        0
280
     0
281
     0
  0
CLASS
  1
LAYOUT
  2
AcDbLayout
  3
ObjectDBX Classes
 90
        0
280
     0
281
     0
  0
ENDSEC
  0
SECTION
  2
TABLES
  0
TABLE
  2
VPORT
  5
8
330
0
100
AcDbSymbolTable
 70
     1
  0
VPORT
  5
29
330
8
100
AcDbSymbolTableRecord
100
AcDbViewportTableRecord
  2
*Active
 70
     0
 10
0.0
 20
0.0
 11
1.0
 21
1.0
 12
54.167238625
 22
88.68082875
 13
0.0
 23
0.0
 14
10.0
 24
10.0
 15
10.0
 25
10.0
 16
0.0
 26
0.0
 36
1.0
 17
0.0
 27
0.0
 37
0.0
 40
143.81954865
 41
0.7659605687
 42
50.0
 43
0.0
 44
0.0
 50
0.0
 51
0.0
 71
     0
 72
   100
 73
     1
 74
     3
 75
     0
 76
     0
 77
     0
 78
     0
281
     0
 65
     1
110
0.0
120
0.0
130
0.0
111
1.0
121
0.0
131
0.0
112
0.0
122
1.0
132
0.0
 79
     0
146
0.0
  0
ENDTAB
  0
TABLE
  2
LTYPE
  5
5
330
0
100
AcDbSymbolTable
 70
     6
  0
LTYPE
  5
14
330
5
100
AcDbSymbolTableRecord
100
AcDbLinetypeTableRecord
  2
ByBlock
 70
     0
  3

 72
    65
 73
     0
 40
0.0
  0
LTYPE
  5
15
330
5
100
AcDbSymbolTableRecord
100
AcDbLinetypeTableRecord
  2
ByLayer
 70
     0
  3

 72
    65
 73
     0
 40
0.0
  0
LTYPE
  5
16
330
5
100
AcDbSymbolTableRecord
100
AcDbLinetypeTableRecord
  2
Continuous
 70
     0
  3
Solid line
 72
    65
 73
     0
 40
0.0
  0
LTYPE
  5
3F
330
5
100
AcDbSymbolTableRecord
100
AcDbLinetypeTableRecord
  2
HIDDEN
 70
     0
  3
Hidden __ __ __ __ __ __ __ __ __ __ __ __ __ __
 72
    65
 73
     2
 40
1.905
 49
1.27
 74
     0
 49
-0.635
 74
     0
  0
LTYPE
  5
40
330
5
100
AcDbSymbolTableRecord
100
AcDbLinetypeTableRecord
  2
PHANTOM
 70
     0
  3
Phantom ______  __  __  ______  __  __  ______
 72
    65
 73
     6
 40
12.7
 49
6.35
 74
     0
 49
-1.27
 74
     0
 49
1.27
 74
     0
 49
-1.27
 74
     0
 49
1.27
 74
     0
 49
-1.27
 74
     0
  0
LTYPE
  5
41
330
5
100
AcDbSymbolTableRecord
100
AcDbLinetypeTableRecord
  2
CENTER
 70
     0
  3
Center ____ _ ____ _ ____ _ ____ _ ____ _ ____
 72
    65
 73
     4
 40
10.16
 49
6.35
 74
     0
 49
-1.27
 74
     0
 49
1.27
 74
     0
 49
-1.27
 74
     0
  0
LTYPE
  5
42
330
5
100
AcDbSymbolTableRecord
100
AcDbLinetypeTableRecord
  2
CENTERX2
 70
     0
  3
Center (2x) ________  __  ________  __  _____
 72
    65
 73
     4
 40
20.32
 49
12.7
 74
     0
 49
-2.54
 74
     0
 49
2.54
 74
     0
 49
-2.54
 74
     0
  0
LTYPE
  5
43
330
5
100
AcDbSymbolTableRecord
100
AcDbLinetypeTableRecord
  2
DOT2
 70
     0
  3
Dot (.5x) ........................................
 72
    65
 73
     2
 40
0.635
 49
0.0
 74
     0
 49
-0.635
 74
     0
  0
ENDTAB
  0
TABLE
  2
LAYER
  5
2
330
0
100
AcDbSymbolTable
 70
     1
  0
LAYER
  5
10
330
2
100
AcDbSymbolTableRecord
100
AcDbLayerTableRecord
  2
0
 70
     0
 62
     7
  6
Continuous
370
    -3
390
F
  0
ENDTAB
  0
TABLE
  2
STYLE
  5
3
330
0
100
AcDbSymbolTable
 70
     1
  0
STYLE
  5
11
330
3
100
AcDbSymbolTableRecord
100
AcDbTextStyleTableRecord
  2
Standard
 70
     0
 40
0.0
 41
1.0
 50
0.0
 71
     0
 42
3.5
  3
txt
  4

  0
ENDTAB
  0
TABLE
  2
VIEW
  5
6
330
0
100
AcDbSymbolTable
 70
     0
  0
ENDTAB
  0
TABLE
  2
UCS
  5
7
330
0
100
AcDbSymbolTable
 70
     0
  0
ENDTAB
  0
TABLE
  2
APPID
  5
9
330
0
100
AcDbSymbolTable
 70
     1
  0
APPID
  5
12
330
9
100
AcDbSymbolTableRecord
100
AcDbRegAppTableRecord
  2
ACAD
 70
     0
  0
ENDTAB
  0
TABLE
  2
DIMSTYLE
  5
A
330
0
100
AcDbSymbolTable
 70
     1
100
AcDbDimStyleTable
  0
DIMSTYLE
105
27
330
A
100
AcDbSymbolTableRecord
100
AcDbDimStyleTableRecord
  2
ISO-25
 70
     0
 41
2.5
 42
0.625
 43
3.75
 44
1.25
 73
     0
 74
     0
 77
     1
 78
     8
140
2.5
141
2.5
143
0.0393700787
147
0.625
171
     3
172
     1
178
     0
271
     2
272
     2
274
     3
278
    44
283
     0
284
     8
340
11
  0
ENDTAB
  0
TABLE
  2
BLOCK_RECORD
  5
1
330
0
100
AcDbSymbolTable
 70
     1
  0
BLOCK_RECORD
  5
1F
330
1
100
AcDbSymbolTableRecord
100
AcDbBlockTableRecord
  2
*Model_Space
340
22
  0
BLOCK_RECORD
  5
1B
330
1
100
AcDbSymbolTableRecord
100
AcDbBlockTableRecord
  2
*Paper_Space
340
1E
  0
BLOCK_RECORD
  5
23
330
1
100
AcDbSymbolTableRecord
100
AcDbBlockTableRecord
  2
*Paper_Space0
340
26
  0
ENDTAB
  0
ENDSEC
  0
SECTION
  2
BLOCKS
  0
BLOCK
  5
20
330
1F
100
AcDbEntity
  8
0
100
AcDbBlockBegin
  2
*Model_Space
 70
     0
 10
0.0
 20
0.0
 30
0.0
  3
*Model_Space
  1

  0
ENDBLK
  5
21
330
1F
100
AcDbEntity
  8
0
100
AcDbBlockEnd
  0
BLOCK
  5
1C
330
1B
100
AcDbEntity
 67
     1
  8
0
100
AcDbBlockBegin
  2
*Paper_Space
 70
     0
 10
0.0
 20
0.0
 30
0.0
  3
*Paper_Space
  1

  0
ENDBLK
  5
1D
330
1B
100
AcDbEntity
 67
     1
  8
0
100
AcDbBlockEnd
  0
BLOCK
  5
24
330
23
100
AcDbEntity
  8
0
100
AcDbBlockBegin
  2
*Paper_Space0
 70
     0
 10
0.0
 20
0.0
 30
0.0
  3
*Paper_Space0
  1

  0
ENDBLK
  5
25
330
23
100
AcDbEntity
  8
0
100
AcDbBlockEnd
  0
ENDSEC
  0
SECTION
  2
ENTITIES
  0
CIRCLE
  5
44
330
1F
100
AcDbEntity
  8
0
  6
Continuous
 62
     7
370
    15
100
AcDbCircle
 10
8.16763175
 20
36.181495
 30
0.0
 40
2.099999999999989
  0
CIRCLE
  5
45
330
1F
100
AcDbEntity
  8
0
  6
Continuous
 62
     7
370
    15
100
AcDbCircle
 10
100.1668405
 20
151.180160625
 30
0.0
 40
1.84999999999998
  0
CIRCLE
  5
46
330
1F
100
AcDbEntity
  8
0
  6
Continuous
 62
     7
370
    15
100
AcDbCircle
 10
8.16763175
 20
151.180160625
 30
0.0
 40
2.099999999999989
  0
CIRCLE
  5
55
330
1F
100
AcDbEntity
  8
0
  6
Continuous
 62
     7
370
    15
100
AcDbCircle
 10
28.16763175
 20
23.18105
 30
0.0
 40
2.100000000000001
  0
CIRCLE
  5
56
330
1F
100
AcDbEntity
  8
0
  6
Continuous
 62
     7
370
    15
100
AcDbCircle
 10
100.1668405
 20
36.181495
 30
0.0
 40
1.849999999999994
  0
SPLINE
  5
57
330
1F
100
AcDbEntity
  8
0
  6
Continuous
 62
     7
370
    15
100
AcDbSpline
210
0.0
220
0.0
230
1.0
 70
     8
 71
     3
 72
    10
 73
     6
 74
     0
 42
0.00000001
 43
0.00000001
 12
1.0
 22
0.0
 32
0.0
 13
1.0
 23
0.0
 33
0.0
 40
0.0
 40
0.0
 40
0.0
 40
0.0
 40
0.3223380228853713
 40
0.663827767507758
 40
1.0
 40
1.0
 40
1.0
 40
1.0
 10
90.26046713682437
 20
117.2881397273296
 30
0.0
 10
90.2553807788262
 20
117.3407733668077
 30
0.0
 10
90.24490585674144
 20
117.4491678747771
 30
0.0
 10
90.18110737913298
 20
117.6034002901447
 30
0.0
 10
90.11061575160426
 20
117.6893608296114
 30
0.0
 10
90.07564650646638
 20
117.7320038395996
 30
0.0
  0
SPLINE
  5
59
330
1F
100
AcDbEntity
  8
0
  6
Continuous
 62
     7
370
    15
100
AcDbSpline
210
0.0
220
0.0
230
1.0
 70
     8
 71
     3
 72
    22
 73
    18
 74
     0
 42
0.00000001
 43
0.00000001
 12
1.0
 22
0.0
 32
0.0
 13
1.0
 23
0.0
 33
0.0
 40
0.0
 40
0.0
 40
0.0
 40
0.0
 40
0.0004890916328881
 40
0.0009575843226257
 40
0.001406885187846
 40
0.0551551517144204
 40
0.1110269913420397
 40
0.168427121943463
 40
0.2806443525045469
 40
0.3898095210481249
 40
0.5021897220227971
 40
0.6143540846452349
 40
0.7231706813236607
 40
0.8353164485520683
 40
0.8913840315383355
 40
0.9475461213966402
 40
1.0
 40
1.0
 40
1.0
 40
1.0
 10
85.22249221279438
 20
122.5854401327077
 30
0.0
 10
85.2183216544758
 20
122.5899064749419
 30
0.0
 10
85.21015618814211
 20
122.5986510516539
 30
0.0
 10
85.19769032862781
 20
122.6110533839611
 30
0.0
 10
84.69136780877155
 20
123.0695319872243
 30
0.0
 10
83.64602043920782
 20
123.9629681037305
 30
0.0
 10
81.84163980711692
 20
125.0631432891149
 30
0.0
 10
79.01868914538659
 20
125.6209250844932
 30
0.0
 10
75.48342972876608
 20
124.5786595460873
 30
0.0
 10
72.42141320322817
 20
121.5110542121754
 30
0.0
 10
71.27796914319879
 20
117.2911055562258
 30
0.0
 10
72.41913425316801
 20
113.0741634549782
 30
0.0
 10
75.48745007956427
 20
110.0191296166441
 30
0.0
 10
79.0079393077154
 20
109.0104930934742
 30
0.0
 10
81.80297877051309
 20
109.5210718495684
 30
0.0
 10
83.67661257997372
 20
110.4349626004566
 30
0.0
 10
84.71906227806146
 20
111.3086137450419
 30
0.0
 10
85.22249221279435
 20
111.7305258425796
 30
0.0
  0
SPLINE
  5
5B
330
1F
100
AcDbEntity
  8
0
  6
Continuous
 62
     7
370
    15
100
AcDbSpline
210
0.0
220
0.0
230
1.0
 70
     8
 71
     3
 72
    10
 73
     6
 74
     0
 42
0.00000001
 43
0.00000001
 12
1.0
 22
0.0
 32
0.0
 13
1.0
 23
0.0
 33
0.0
 40
0.0
 40
0.0
 40
0.0
 40
0.0
 40
0.3388850391973224
 40
0.6697773003067691
 40
1.0
 40
1.0
 40
1.0
 40
1.0
 10
90.07564650646636
 20
116.8803655428796
 30
0.0
 10
90.10952230723929
 20
116.9195006878844
 30
0.0
 10
90.17647493058666
 20
116.9968479553546
 30
0.0
 10
90.24573958544859
 20
117.1365759771642
 30
0.0
 10
90.25556126875439
 20
117.2376525999363
 30
0.0
 10
90.26046713682437
 20
117.2881397273296
 30
0.0
  0
SPLINE
  5
5D
330
1F
100
AcDbEntity
  8
0
  6
Continuous
 62
     7
370
    15
100
AcDbSpline
210
0.0
220
0.0
230
1.0
 70
     8
 71
     3
 72
    13
 73
     9
 74
     0
 42
0.00000001
 43
0.00000001
 12
1.0
 22
0.0
 32
0.0
 13
1.0
 23
0.0
 33
0.0
 40
0.0
 40
0.0
 40
0.0
 40
0.0
 40
0.2274927272441944
 40
0.4459722366811384
 40
0.6633731242854596
 40
0.7871154248554532
 40
0.8960057332534405
 40
1.0
 40
1.0
 40
1.0
 40
1.0
 10
92.04237857299435
 20
109.9155214725956
 30
0.0
 10
92.04405354930073
 20
109.893385661724
 30
0.0
 10
92.04733713967651
 20
109.8499910565216
 30
0.0
 10
92.05501711719161
 20
109.7848227449094
 30
0.0
 10
92.08102696404819
 20
109.7356362839242
 30
0.0
 10
92.10648293010348
 20
109.6996563758136
 30
0.0
 10
92.12987333734101
 20
109.6763536078098
 30
0.0
 10
92.14498990091714
 20
109.6620535714577
 30
0.0
 10
92.15237435300233
 20
109.6550679935036
 30
0.0
  0
SPLINE
  5
5F
330
1F
100
AcDbEntity
  8
0
  6
Continuous
 62
     7
370
    15
100
AcDbSpline
210
0.0
220
0.0
230
1.0
 70
     8
 71
     3
 72
    19
 73
    15
 74
     0
 42
0.00000001
 43
0.00000001
 12
1.0
 22
0.0
 32
0.0
 13
1.0
 23
0.0
 33
0.0
 40
0.0
 40
0.0
 40
0.0
 40
0.0
 40
0.1043451343032138
 40
0.2089311660977599
 40
0.3135654452177657
 40
0.3979953196092882
 40
0.4828111867798021
 40
0.5678940791823736
 40
0.7011865650137045
 40
0.8367154245776223
 40
0.9732466411015506
 40
0.9821627587850704
 40
0.9910644778239981
 40
1.0
 40
1.0
 40
1.0
 40
1.0
 10
95.07943849886233
 20
106.7281108474296
 30
0.0
 10
95.1187271472053
 20
106.6991403288547
 30
0.0
 10
95.19739514804236
 20
106.6411324086127
 30
0.0
 10
95.34558712508638
 20
106.6171130643145
 30
0.0
 10
95.48151177273544
 20
106.6443517758753
 30
0.0
 10
95.59101616968994
 20
106.711660968551
 30
0.0
 10
95.66991843783677
 20
106.8021214791297
 30
0.0
 10
95.71930249658354
 20
106.9350968700285
 30
0.0
 10
95.75159319807521
 20
107.0952321249909
 30
0.0
 10
95.7849043907282
 20
107.2803390079474
 30
0.0
 10
95.78235048685681
 20
107.410685631791
 30
0.0
 10
95.78386870928409
 20
107.4820016372198
 30
0.0
 10
95.78449307268254
 20
107.4943691515016
 30
0.0
 10
95.78390878698796
 20
107.5026020432802
 30
0.0
 10
95.78361609050434
 20
107.5067262901956
 30
0.0
  0
SPLINE
  5
61
330
1F
100
AcDbEntity
  8
0
  6
Continuous
 62
     7
370
    15
100
AcDbSpline
210
0.0
220
0.0
230
1.0
 70
     8
 71
     3
 72
    10
 73
     6
 74
     0
 42
0.00000001
 43
0.00000001
 12
1.0
 22
0.0
 32
0.0
 13
1.0
 23
0.0
 33
0.0
 40
0.0
 40
0.0
 40
0.0
 40
0.0
 40
0.3361538416809899
 40
0.6637716356897557
 40
1.0
 40
1.0
 40
1.0
 40
1.0
 10
95.7836160905044
 20
124.9942383151016
 30
0.0
 10
95.58408669360914
 20
126.2431167619401
 30
0.0
 10
95.19009460509676
 20
128.7091605390698
 30
0.0
 10
92.34960985267529
 20
131.5497064547388
 30
0.0
 10
89.88326298497546
 20
131.9436827759466
 30
0.0
 10
88.6340943895764
 20
132.1432260170977
 30
0.0
  0
SPLINE
  5
63
330
1F
100
AcDbEntity
  8
0
  6
Continuous
 62
     7
370
    15
100
AcDbSpline
210
0.0
220
0.0
230
1.0
 70
     8
 71
     3
 72
    19
 73
    15
 74
     0
 42
0.00000001
 43
0.00000001
 12
1.0
 22
0.0
 32
0.0
 13
1.0
 23
0.0
 33
0.0
 40
0.0
 40
0.0
 40
0.0
 40
0.0
 40
0.0086218638528517
 40
0.0170309693264208
 40
0.0256432383034714
 40
0.1626381475531438
 40
0.2982453879094225
 40
0.4319013829303145
 40
0.5163917757749611
 40
0.6010071585767939
 40
0.6859568090593292
 40
0.7901420085967868
 40
0.8950368058917261
 40
1.0
 40
1.0
 40
1.0
 40
1.0
 10
71.14696936389642
 20
132.1418150199198
 30
0.0
 10
71.14298781479509
 20
132.1421091019303
 30
0.0
 10
71.13512296773028
 20
132.1426900090039
 30
0.0
 10
71.12326144565482
 20
132.1420650859622
 30
0.0
 10
71.05205647157818
 20
132.1404983941957
 30
0.0
 10
70.92147262596109
 20
132.1435369578487
 30
0.0
 10
70.73597829982607
 20
132.1097478992102
 30
0.0
 10
70.57510880493201
 20
132.079955220431
 30
0.0
 10
70.44304318327457
 20
132.0284458120981
 30
0.0
 10
70.35275814932206
 20
131.9497883730034
 30
0.0
 10
70.28475240296572
 20
131.8406014851062
 30
0.0
 10
70.25749215759105
 20
131.7043604557139
 30
0.0
 10
70.28182721706939
 20
131.555831374634
 30
0.0
 10
70.34054130568245
 20
131.4770446364402
 30
0.0
 10
70.36990791802242
 20
131.4376384282758
 30
0.0
  0
SPLINE
  5
65
330
1F
100
AcDbEntity
  8
0
  6
Continuous
 62
     7
370
    15
100
AcDbSpline
210
0.0
220
0.0
230
1.0
 70
     8
 71
     3
 72
    13
 73
     9
 74
     0
 42
0.00000001
 43
0.00000001
 12
1.0
 22
0.0
 32
0.0
 13
1.0
 23
0.0
 33
0.0
 40
0.0
 40
0.0
 40
0.0
 40
0.0
 40
0.1312854553005737
 40
0.2576298112414244
 40
0.3909723460450472
 40
0.594165007866985
 40
0.788898107636489
 40
1.0
 40
1.0
 40
1.0
 40
1.0
 10
73.2968290641684
 20
128.5120612794418
 30
0.0
 10
73.3060923434666
 20
128.5031165648776
 30
0.0
 10
73.32427026646357
 20
128.4855637817496
 30
0.0
 10
73.35127868219925
 20
128.4583662636725
 30
0.0
 10
73.38682910174704
 20
128.4296779492256
 30
0.0
 10
73.43592251474338
 20
128.4097460426081
 30
0.0
 10
73.49518065442352
 20
128.4001614751025
 30
0.0
 10
73.53503607789075
 20
128.4004390941724
 30
0.0
 10
73.5557675462904
 20
128.4005835023978
 30
0.0
  0
SPLINE
  5
67
330
1F
100
AcDbEntity
  8
0
  6
Continuous
 62
     7
370
    15
100
AcDbSpline
210
0.0
220
0.0
230
1.0
 70
     8
 71
     3
 72
    10
 73
     6
 74
     0
 42
0.00000001
 43
0.00000001
 12
1.0
 22
0.0
 32
0.0
 13
1.0
 23
0.0
 33
0.0
 40
0.0
 40
0.0
 40
0.0
 40
0.0
 40
0.3384097487739332
 40
0.6613921998282116
 40
1.0
 40
1.0
 40
1.0
 40
1.0
 10
88.63409438957639
 20
128.4019944995757
 30
0.0
 10
89.23802873106105
 20
128.3137637647857
 30
0.0
 10
90.41836547996832
 20
128.1413245251167
 30
0.0
 10
91.78142027018673
 20
126.7793377944433
 30
0.0
 10
91.95403355299882
 20
125.598567234702
 30
0.0
 10
92.04237857299438
 20
124.9942383151016
 30
0.0
  0
SPLINE
  5
69
330
1F
100
AcDbEntity
  8
0
  6
Continuous
 62
     7
370
    15
100
AcDbSpline
210
0.0
220
0.0
230
1.0
 70
     8
 71
     3
 72
    13
 73
     9
 74
     0
 42
0.00000001
 43
0.00000001
 12
1.0
 22
0.0
 32
0.0
 13
1.0
 23
0.0
 33
0.0
 40
0.0
 40
0.0
 40
0.0
 40
0.0
 40
0.1967455592034564
 40
0.3616083859415355
 40
0.5572615991874924
 40
0.6927663780444245
 40
0.8395631363947034
 40
1.0
 40
1.0
 40
1.0
 40
1.0
 10
69.84733796316439
 20
124.6964579106637
 30
0.0
 10
69.84660676556166
 20
124.7155806629907
 30
0.0
 10
69.84526286135362
 20
124.7507273144918
 30
0.0
 10
69.83682824368815
 20
124.8046907921734
 30
0.0
 10
69.81648242336001
 20
124.8489905134495
 30
0.0
 10
69.79273786205555
 20
124.8889735149203
 30
0.0
 10
69.76672150453521
 20
124.9234554439479
 30
0.0
 10
69.7464473266094
 20
124.94543611928
 30
0.0
 10
69.73586018612038
 20
124.9569143897497
 30
0.0
  0
SPLINE
  5
6B
330
1F
100
AcDbEntity
  8
0
  6
Continuous
 62
     7
370
    15
100
AcDbSpline
210
0.0
220
0.0
230
1.0
 70
     8
 71
     3
 72
    19
 73
    15
 74
     0
 42
0.00000001
 43
0.00000001
 12
1.0
 22
0.0
 32
0.0
 13
1.0
 23
0.0
 33
0.0
 40
0.0
 40
0.0
 40
0.0
 40
0.0
 40
0.1043847536538798
 40
0.2089502264938078
 40
0.3135691762190888
 40
0.3980934867088533
 40
0.4830124636379337
 40
0.5676123638927757
 40
0.7009151537957571
 40
0.836484685300372
 40
0.9730434924624796
 40
0.9821120088834583
 40
0.991066087749973
 40
1.0
 40
1.0
 40
1.0
 40
1.0
 10
66.80891404002439
 20
127.8838695358278
 30
0.0
 10
66.76960583059683
 20
127.9128408312875
 30
0.0
 10
66.69092135824383
 20
127.9708335796174
 30
0.0
 10
66.54275593663213
 20
127.9948565965414
 30
0.0
 10
66.40676959523383
 20
127.9676783434557
 30
0.0
 10
66.29733684273099
 20
127.900050885791
 30
0.0
 10
66.21867653488184
 20
127.8096429932257
 30
0.0
 10
66.16872407584033
 20
127.6771548364229
 30
0.0
 10
66.13617289217217
 20
127.517049928373
 30
0.0
 10
66.10590230469806
 20
127.3319970048988
 30
0.0
 10
66.10040095238445
 20
127.2014468377888
 30
0.0
 10
66.10561878864786
 20
127.1301104028317
 30
0.0
 10
66.10498561397355
 20
127.1176495138054
 30
0.0
 10
66.10481810730072
 20
127.1093841272216
 30
0.0
 10
66.1047344483864
 20
127.1052560930577
 30
0.0
  0
SPLINE
  5
6D
330
1F
100
AcDbEntity
  8
0
  6
Continuous
 62
     7
370
    15
100
AcDbSpline
210
0.0
220
0.0
230
1.0
 70
     8
 71
     3
 72
    10
 73
     6
 74
     0
 42
0.00000001
 43
0.00000001
 12
1.0
 22
0.0
 32
0.0
 13
1.0
 23
0.0
 33
0.0
 40
0.0
 40
0.0
 40
0.0
 40
0.0
 40
0.3361566438805642
 40
0.6638059114067807
 40
1.0
 40
1.0
 40
1.0
 40
1.0
 10
66.10473444838632
 20
109.6181310673777
 30
0.0
 10
66.30438689632427
 20
108.3691203903965
 30
0.0
 10
66.69863903317962
 20
105.9027087163053
 30
0.0
 10
69.53944506387967
 20
103.061623579382
 30
0.0
 10
72.00621988867869
 20
102.6680633725174
 30
0.0
 10
73.25548314686031
 20
102.4687503661677
 30
0.0
  0
SPLINE
  5
6F
330
1F
100
AcDbEntity
  8
0
  6
Continuous
 62
     7
370
    15
100
AcDbSpline
210
0.0
220
0.0
230
1.0
 70
     8
 71
     3
 72
    19
 73
    15
 74
     0
 42
0.00000001
 43
0.00000001
 12
1.0
 22
0.0
 32
0.0
 13
1.0
 23
0.0
 33
0.0
 40
0.0
 40
0.0
 40
0.0
 40
0.0
 40
0.0089534819616547
 40
0.0179466918695419
 40
0.027021307061642
 40
0.1634909929131596
 40
0.2989490581322739
 40
0.4321650066213552
 40
0.5167760326509111
 40
0.6016012278169746
 40
0.6860347007501583
 40
0.7906723783840099
 40
0.8952629724516327
 40
1.0
 40
1.0
 40
1.0
 40
1.0
 10
90.74126617522433
 20
102.4701613633456
 30
0.0
 10
90.745400423847
 20
102.4698691865521
 30
0.0
 10
90.75368726537536
 20
102.4692835365326
 30
0.0
 10
90.76618382370448
 20
102.4699112544703
 30
0.0
 10
90.83761659582963
 20
102.4713953435173
 30
0.0
 10
90.96803667885581
 20
102.4688535693406
 30
0.0
 10
91.15308366716957
 20
102.5022312591703
 30
0.0
 10
91.31315442521733
 20
102.5340644124843
 30
0.0
 10
91.44565526107382
 20
102.5840709477109
 30
0.0
 10
91.53607164233115
 20
102.6626602342723
 30
0.0
 10
91.6036699426769
 20
102.7720965594196
 30
0.0
 10
91.63086497116771
 20
102.9081212240822
 30
0.0
 10
91.60651986456416
 20
103.0565890736022
 30
0.0
 10
91.54783405312786
 20
103.1350726936568
 30
0.0
 10
91.5184706208123
 20
103.1743419549816
 30
0.0
  0
SPLINE
  5
71
330
1F
100
AcDbEntity
  8
0
  6
Continuous
 62
     7
370
    15
100
AcDbSpline
210
0.0
220
0.0
230
1.0
 70
     8
 71
     3
 72
    13
 73
     9
 74
     0
 42
0.00000001
 43
0.00000001
 12
1.0
 22
0.0
 32
0.0
 13
1.0
 23
0.0
 33
0.0
 40
0.0
 40
0.0
 40
0.0
 40
0.0
 40
0.1345815292556566
 40
0.2649282488400231
 40
0.404990742076147
 40
0.5860478497421788
 40
0.7798900726513245
 40
1.0
 40
1.0
 40
1.0
 40
1.0
 10
88.59151247474031
 20
106.1012621011296
 30
0.0
 10
88.58231407366056
 20
106.110851525261
 30
0.0
 10
88.56420671298734
 20
106.1297286279106
 30
0.0
 10
88.53640346813242
 20
106.1582934718932
 30
0.0
 10
88.50316140754522
 20
106.1887408784676
 30
0.0
 10
88.45371054932006
 20
106.2055392562921
 30
0.0
 10
88.39514707885166
 20
106.2101602364172
 30
0.0
 10
88.35429642627675
 20
106.2109473504123
 30
0.0
 10
88.33257499261632
 20
106.2113658809216
 30
0.0
  0
SPLINE
  5
73
330
1F
100
AcDbEntity
  8
0
  6
Continuous
 62
     7
370
    15
100
AcDbSpline
210
0.0
220
0.0
230
1.0
 70
     8
 71
     3
 72
    10
 73
     6
 74
     0
 42
0.00000001
 43
0.00000001
 12
1.0
 22
0.0
 32
0.0
 13
1.0
 23
0.0
 33
0.0
 40
0.0
 40
0.0
 40
0.0
 40
0.0
 40
0.3384060100404664
 40
0.6613719994944158
 40
1.0
 40
1.0
 40
1.0
 40
1.0
 10
73.25548314686031
 20
106.2102368831797
 30
0.0
 10
72.6513915236128
 20
106.2981700441918
 30
0.0
 10
71.47077039724077
 20
106.4700243517246
 30
0.0
 10
70.1080756270056
 20
107.8328562894758
 30
0.0
 10
69.93561144105699
 20
109.0137212122086
 30
0.0
 10
69.84733796316434
 20
109.6181310673777
 30
0.0
  0
LINE
  5
74
330
1F
100
AcDbEntity
  8
0
  6
Continuous
 62
     7
370
    15
100
AcDbLine
 10
23.16763175
 20
25.18105
 30
0.0
 11
23.16763175
 21
23.18105
 31
0.0
  0
LINE
  5
75
330
1F
100
AcDbEntity
  8
0
  6
Continuous
 62
     7
370
    15
100
AcDbLine
 10
2.167188
 20
28.18105
 30
0.0
 11
20.16763175
 21
28.18105
 31
0.0
  0
LINE
  5
76
330
1F
100
AcDbEntity
  8
0
  6
Continuous
 62
     7
370
    15
100
AcDbLine
 10
0.167188
 20
157.1806075
 30
0.0
 11
0.167188
 21
30.18105
 31
0.0
  0
LINE
  5
77
330
1F
100
AcDbEntity
  8
0
  6
Continuous
 62
     7
370
    15
100
AcDbLine
 10
106.16728925
 20
159.1806075
 30
0.0
 11
2.167188
 21
159.1806075
 31
0.0
  0
LINE
  5
78
330
1F
100
AcDbEntity
  8
0
  6
Continuous
 62
     7
370
    15
100
AcDbLine
 10
108.16728925
 20
30.18105
 30
0.0
 11
108.16728925
 21
157.1806075
 31
0.0
  0
LINE
  5
79
330
1F
100
AcDbEntity
  8
0
  6
Continuous
 62
     7
370
    15
100
AcDbLine
 10
36.16763175
 20
28.18105
 30
0.0
 11
106.16728925
 21
28.18105
 31
0.0
  0
LINE
  5
7A
330
1F
100
AcDbEntity
  8
0
  6
Continuous
 62
     7
370
    15
100
AcDbLine
 10
33.16763175
 20
23.18105
 30
0.0
 11
33.16763175
 21
25.18105
 31
0.0
  0
LINE
  5
7B
330
1F
100
AcDbEntity
  8
0
  6
Continuous
 62
     7
370
    15
100
AcDbLine
 10
90.0756465065
 20
117.7320038396
 30
0.0
 11
85.2224922128
 21
122.5854401327
 31
0.0
  0
LINE
  5
7C
330
1F
100
AcDbEntity
  8
0
  6
Continuous
 62
     7
370
    15
100
AcDbLine
 10
85.2224922128
 20
111.7305258426
 30
0.0
 11
90.0756465065
 21
116.8803655429
 31
0.0
  0
LINE
  5
7D
330
1F
100
AcDbEntity
  8
0
  6
Continuous
 62
     7
370
    15
100
AcDbLine
 10
92.042378573
 20
124.9942383151
 30
0.0
 11
92.042378573
 21
109.9155214726
 31
0.0
  0
LINE
  5
7E
330
1F
100
AcDbEntity
  8
0
  6
Continuous
 62
     7
370
    15
100
AcDbLine
 10
92.152374353
 20
109.6550679935
 30
0.0
 11
95.0794384989
 21
106.7281108474
 31
0.0
  0
LINE
  5
7F
330
1F
100
AcDbEntity
  8
0
  6
Continuous
 62
     7
370
    15
100
AcDbLine
 10
95.7836160905
 20
107.5067262902
 30
0.0
 11
95.7836160905
 21
124.9942383151
 31
0.0
  0
LINE
  5
80
330
1F
100
AcDbEntity
  8
0
  6
Continuous
 62
     7
370
    15
100
AcDbLine
 10
88.6340943896
 20
132.1432260171
 30
0.0
 11
71.1469693639
 21
132.1418150199
 31
0.0
  0
LINE
  5
81
330
1F
100
AcDbEntity
  8
0
  6
Continuous
 62
     7
370
    15
100
AcDbLine
 10
70.369907918
 20
131.4376384283
 30
0.0
 11
73.2968290642
 21
128.5120612794
 31
0.0
  0
LINE
  5
82
330
1F
100
AcDbEntity
  8
0
  6
Continuous
 62
     7
370
    15
100
AcDbLine
 10
73.5557675463
 20
128.4005835024
 30
0.0
 11
88.6340943896
 21
128.4019944996
 31
0.0
  0
LINE
  5
83
330
1F
100
AcDbEntity
  8
0
  6
Continuous
 62
     7
370
    15
100
AcDbLine
 10
69.8473379632
 20
109.6181310674
 30
0.0
 11
69.8473379632
 21
124.6964579107
 31
0.0
  0
LINE
  5
84
330
1F
100
AcDbEntity
  8
0
  6
Continuous
 62
     7
370
    15
100
AcDbLine
 10
69.7358601861
 20
124.9569143897
 30
0.0
 11
66.80891404
 21
127.8838695358
 31
0.0
  0
LINE
  5
85
330
1F
100
AcDbEntity
  8
0
  6
Continuous
 62
     7
370
    15
100
AcDbLine
 10
66.1047344484
 20
127.1052560931
 30
0.0
 11
66.1047344484
 21
109.6181310674
 31
0.0
  0
LINE
  5
86
330
1F
100
AcDbEntity
  8
0
  6
Continuous
 62
     7
370
    15
100
AcDbLine
 10
73.2554831469
 20
102.4687503662
 30
0.0
 11
90.7412661752
 21
102.4701613633
 31
0.0
  0
LINE
  5
87
330
1F
100
AcDbEntity
  8
0
  6
Continuous
 62
     7
370
    15
100
AcDbLine
 10
91.5184706208
 20
103.174341955
 30
0.0
 11
88.5915124747
 21
106.1012621011
 31
0.0
  0
LINE
  5
88
330
1F
100
AcDbEntity
  8
0
  6
Continuous
 62
     7
370
    15
100
AcDbLine
 10
88.3325749926
 20
106.2113658809
 30
0.0
 11
73.2554831469
 21
106.2102368832
 31
0.0
  0
ARC
  5
89
330
1F
100
AcDbEntity
  8
0
  6
Continuous
 62
     7
370
    15
100
AcDbCircle
 10
28.16763175
 20
23.18105
 30
0.0
 40
5.0
100
AcDbArc
 50
180.0
 51
0.0
  0
ARC
  5
8A
330
1F
100
AcDbEntity
  8
0
  6
Continuous
 62
     7
370
    15
100
AcDbCircle
 10
20.16763175
 20
25.18105
 30
0.0
 40
3.0
100
AcDbArc
 50
0.0
 51
90.0
  0
ARC
  5
8B
330
1F
100
AcDbEntity
  8
0
  6
Continuous
 62
     7
370
    15
100
AcDbCircle
 10
2.167188
 20
30.18105
 30
0.0
 40
2.000000000000011
100
AcDbArc
 50
180.0
 51
270.0
  0
ARC
  5
8C
330
1F
100
AcDbEntity
  8
0
  6
Continuous
 62
     7
370
    15
100
AcDbCircle
 10
2.167188
 20
157.1806075
 30
0.0
 40
1.999999999999974
100
AcDbArc
 50
90.0
 51
180.0
  0
ARC
  5
8D
330
1F
100
AcDbEntity
  8
0
  6
Continuous
 62
     7
370
    15
100
AcDbCircle
 10
106.16728925
 20
157.1806075
 30
0.0
 40
1.999999999999972
100
AcDbArc
 50
0.0
 51
90.0
  0
ARC
  5
8E
330
1F
100
AcDbEntity
  8
0
  6
Continuous
 62
     7
370
    15
100
AcDbCircle
 10
106.16728925
 20
30.18105
 30
0.0
 40
2.000000000000043
100
AcDbArc
 50
270.0
 51
0.0
  0
ARC
  5
8F
330
1F
100
AcDbEntity
  8
0
  6
Continuous
 62
     7
370
    15
100
AcDbCircle
 10
36.16763175
 20
25.18105
 30
0.0
 40
2.999999999999993
100
AcDbArc
 50
90.0
 51
180.0
  0
ENDSEC
  0
SECTION
  2
OBJECTS
  0
DICTIONARY
  5
C
330
0
100
AcDbDictionary
281
     1
  3
ACAD_GROUP
350
D
  3
ACAD_LAYOUT
350
1A
  3
ACAD_MLINESTYLE
350
17
  3
ACAD_PLOTSETTINGS
350
19
  3
ACAD_PLOTSTYLENAME
350
E
  0
DICTIONARY
  5
D
102
{ACAD_REACTORS
330
C
102
}
330
C
100
AcDbDictionary
281
     1
  0
DICTIONARY
  5
1A
102
{ACAD_REACTORS
330
C
102
}
330
C
100
AcDbDictionary
281
     1
  3
Layout1
350
1E
  3
Layout2
350
26
  3
Model
350
22
  0
DICTIONARY
  5
17
102
{ACAD_REACTORS
330
C
102
}
330
C
100
AcDbDictionary
281
     1
  3
Standard
350
18
  0
DICTIONARY
  5
19
102
{ACAD_REACTORS
330
C
102
}
330
C
100
AcDbDictionary
281
     1
  0
ACDBDICTIONARYWDFLT
  5
E
102
{ACAD_REACTORS
330
C
102
}
330
C
100
AcDbDictionary
281
     1
  3
Normal
350
F
100
AcDbDictionaryWithDefault
340
F
  0
LAYOUT
  5
1E
102
{ACAD_REACTORS
330
1A
102
}
330
1A
100
AcDbPlotSettings
  1

  2
none_device
  4

  6

 40
0.0
 41
0.0
 42
0.0
 43
0.0
 44
0.0
 45
0.0
 46
0.0
 47
0.0
 48
0.0
 49
0.0
140
0.0
141
0.0
142
1.0
143
1.0
 70
   688
 72
     0
 73
     0
 74
     5
  7

 75
    16
147
1.0
148
0.0
149
0.0
100
AcDbLayout
  1
Layout1
 70
     1
 71
     1
 10
0.0
 20
0.0
 11
420.0
 21
297.0
 12
0.0
 22
0.0
 32
0.0
 14
1.0000000000E+20
 24
1.0000000000E+20
 34
1.0000000000E+20
 15
-1.0000000000E+20
 25
-1.0000000000E+20
 35
-1.0000000000E+20
146
0.0
 13
0.0
 23
0.0
 33
0.0
 16
1.0
 26
0.0
 36
0.0
 17
0.0
 27
1.0
 37
0.0
 76
     0
330
1B
  0
LAYOUT
  5
26
102
{ACAD_REACTORS
330
1A
102
}
330
1A
100
AcDbPlotSettings
  1

  2
none_device
  4

  6

 40
0.0
 41
0.0
 42
0.0
 43
0.0
 44
0.0
 45
0.0
 46
0.0
 47
0.0
 48
0.0
 49
0.0
140
0.0
141
0.0
142
1.0
143
1.0
 70
   688
 72
     0
 73
     0
 74
     5
  7

 75
    16
147
1.0
148
0.0
149
0.0
100
AcDbLayout
  1
Layout2
 70
     1
 71
     2
 10
0.0
 20
0.0
 11
0.0
 21
0.0
 12
0.0
 22
0.0
 32
0.0
 14
0.0
 24
0.0
 34
0.0
 15
0.0
 25
0.0
 35
0.0
146
0.0
 13
0.0
 23
0.0
 33
0.0
 16
1.0
 26
0.0
 36
0.0
 17
0.0
 27
1.0
 37
0.0
 76
     0
330
23
  0
LAYOUT
  5
22
102
{ACAD_REACTORS
330
1A
102
}
330
1A
100
AcDbPlotSettings
  1

  2
none_device
  4
ANSI_A_(11.00_x_8.50_Inches)
  6

 40
6.35
 41
19.05
 42
6.35000508
 43
19.05000254
 44
279.4
 45
215.9
 46
51.2379684847
 47
-45.5311254092
 48
0.0
 49
0.0
140
0.0
141
0.0
142
0.0596810384
143
1.0
 70
  1696
 72
     0
 73
     0
 74
     0
  7

 75
     0
147
0.0179189148
148
0.0
149
0.0
100
AcDbLayout
  1
Model
 70
     1
 71
     0
 10
0.0
 20
0.0
 11
420.0
 21
297.0
 12
0.0
 22
0.0
 32
0.0
 14
0.167188
 24
18.18105
 34
0.0
 15
108.16728925
 25
159.1806075
 35
0.0
146
0.0
 13
0.0
 23
0.0
 33
0.0
 16
1.0
 26
0.0
 36
0.0
 17
0.0
 27
1.0
 37
0.0
 76
     0
330
1F
331
29
  0
MLINESTYLE
  5
18
102
{ACAD_REACTORS
330
17
102
}
330
17
100
AcDbMlineStyle
  2
Standard
 70
     0
  3

 62
   256
 51
90.0
 52
90.0
 71
     2
 49
0.5
 62
   256
  6
BYLAYER
 49
-0.5
 62
   256
  6
BYLAYER
  0
ACDBPLACEHOLDER
  5
F
102
{ACAD_REACTORS
330
E
102
}
330
E
  0
ENDSEC
  0
EOF
