  0
SECTION
  2
HEADER
  9
$ACADVER
  1
AC1014
  9
$ACADMAINTVER
 70
     9
  9
$DWGCODEPAGE
  3
ANSI_1252
  9
$INSBASE
 10
0.0
 20
0.0
 30
0.0
  9
$EXTMIN
 10
-8.732812
 20
-0.5326666941
 30
0.0
  9
$EXTMAX
 10
106.16728925
 20
217.2943241941
 30
0.0
  9
$LIMMIN
 10
0.0
 20
0.0
  9
$LIMMAX
 10
420.0
 20
297.0
  9
$ORTHOMODE
 70
     0
  9
$REGENMODE
 70
     1
  9
$FILLMODE
 70
     1
  9
$QTEXTMODE
 70
     0
  9
$MIRRTEXT
 70
     1
  9
$DRAGMODE
 70
     2
  9
$LTSCALE
 40
1.0
  9
$OSMODE
 70
    37
  9
$ATTMODE
 70
     1
  9
$TEXTSIZE
 40
3.5
  9
$TRACEWID
 40
1.0
  9
$TEXTSTYLE
  7
STANDARD
  9
$CLAYER
  8
0
  9
$CELTYPE
  6
BYLAYER
  9
$CECOLOR
 62
   256
  9
$CELTSCALE
 40
1.0
  9
$DELOBJ
 70
     1
  9
$DISPSILH
 70
     0
  9
$DIMSCALE
 40
1.0
  9
$DIMASZ
 40
3.302
  9
$DIMEXO
 40
1.0
  9
$DIMDLI
 40
3.75
  9
$DIMRND
 40
0.0
  9
$DIMDLE
 40
0.0
  9
$DIMEXE
 40
1.0
  9
$DIMTP
 40
0.0
  9
$DIMTM
 40
0.0
  9
$DIMTXT
 40
3.5
  9
$DIMCEN
 40
2.5
  9
$DIMTSZ
 40
0.0
  9
$DIMTOL
 70
     0
  9
$DIMLIM
 70
     0
  9
$DIMTIH
 70
     1
  9
$DIMTOH
 70
     1
  9
$DIMSE1
 70
     0
  9
$DIMSE2
 70
     0
  9
$DIMTAD
 70
     1
  9
$DIMZIN
 70
     0
  9
$DIMBLK
  1

  9
$DIMASO
 70
     1
  9
$DIMSHO
 70
     1
  9
$DIMPOST
  1

  9
$DIMAPOST
  1

  9
$DIMALT
 70
     0
  9
$DIMALTD
 70
     3
  9
$DIMALTF
 40
0.0393700787
  9
$DIMLFAC
 40
1.0
  9
$DIMTOFL
 70
     1
  9
$DIMTVP
 40
0.0
  9
$DIMTIX
 70
     0
  9
$DIMSOXD
 70
     0
  9
$DIMSAH
 70
     0
  9
$DIMBLK1
  1

  9
$DIMBLK2
  1

  9
$DIMSTYLE
  2
ISO-25
  9
$DIMCLRD
 70
     0
  9
$DIMCLRE
 70
     0
  9
$DIMCLRT
 70
     0
  9
$DIMTFAC
 40
1.0
  9
$DIMGAP
 40
1.524
  9
$DIMJUST
 70
     0
  9
$DIMSD1
 70
     0
  9
$DIMSD2
 70
     0
  9
$DIMTOLJ
 70
     0
  9
$DIMTZIN
 70
     0
  9
$DIMALTZ
 70
     0
  9
$DIMALTTZ
 70
     0
  9
$DIMFIT
 70
     3
  9
$DIMUPT
 70
     0
  9
$DIMUNIT
 70
     2
  9
$DIMDEC
 70
     2
  9
$DIMTDEC
 70
     2
  9
$DIMALTU
 70
     2
  9
$DIMALTTD
 70
     3
  9
$DIMTXSTY
  7
STANDARD
  9
$DIMAUNIT
 70
     0
  9
$LUNITS
 70
     2
  9
$LUPREC
 70
     2
  9
$SKETCHINC
 40
1.0
  9
$FILLETRAD
 40
10.0
  9
$AUNITS
 70
     0
  9
$AUPREC
 70
     2
  9
$MENU
  1
.
  9
$ELEVATION
 40
0.0
  9
$PELEVATION
 40
0.0
  9
$THICKNESS
 40
0.0
  9
$LIMCHECK
 70
     0
  9
$CHAMFERA
 40
10.0
  9
$CHAMFERB
 40
10.0
  9
$CHAMFERC
 40
20.0
  9
$CHAMFERD
 40
0.0
  9
$SKPOLY
 70
     0
  9
$TDCREATE
 40
2456762.423272454
  9
$TDUPDATE
 40
2456762.423518009
  9
$TDINDWG
 40
0.0000000116
  9
$TDUSRTIMER
 40
0.0000000116
  9
$USRTIMER
 70
     1
  9
$ANGBASE
 50
0.0
  9
$ANGDIR
 70
     0
  9
$PDMODE
 70
     0
  9
$PDSIZE
 40
-1.0
  9
$PLINEWID
 40
0.0
  9
$COORDS
 70
     1
  9
$SPLFRAME
 70
     0
  9
$SPLINETYPE
 70
     6
  9
$SPLINESEGS
 70
     8
  9
$ATTDIA
 70
     0
  9
$ATTREQ
 70
     1
  9
$HANDLING
 70
     1
  9
$HANDSEED
  5
29C
  9
$SURFTAB1
 70
     6
  9
$SURFTAB2
 70
     6
  9
$SURFTYPE
 70
     6
  9
$SURFU
 70
     6
  9
$SURFV
 70
     6
  9
$UCSNAME
  2

  9
$UCSORG
 10
0.0
 20
0.0
 30
0.0
  9
$UCSXDIR
 10
1.0
 20
0.0
 30
0.0
  9
$UCSYDIR
 10
0.0
 20
1.0
 30
0.0
  9
$PUCSNAME
  2

  9
$PUCSORG
 10
0.0
 20
0.0
 30
0.0
  9
$PUCSXDIR
 10
1.0
 20
0.0
 30
0.0
  9
$PUCSYDIR
 10
0.0
 20
1.0
 30
0.0
  9
$USERI1
 70
     0
  9
$USERI2
 70
     0
  9
$USERI3
 70
     0
  9
$USERI4
 70
     0
  9
$USERI5
 70
     0
  9
$USERR1
 40
0.0
  9
$USERR2
 40
0.0
  9
$USERR3
 40
0.0
  9
$USERR4
 40
0.0
  9
$USERR5
 40
0.0
  9
$WORLDVIEW
 70
     1
  9
$SHADEDGE
 70
     3
  9
$SHADEDIF
 70
    70
  9
$TILEMODE
 70
     1
  9
$MAXACTVP
 70
    64
  9
$PINSBASE
 10
0.0
 20
0.0
 30
0.0
  9
$PLIMCHECK
 70
     0
  9
$PEXTMIN
 10
1.0000000000E+20
 20
1.0000000000E+20
 30
1.0000000000E+20
  9
$PEXTMAX
 10
-1.0000000000E+20
 20
-1.0000000000E+20
 30
-1.0000000000E+20
  9
$PLIMMIN
 10
0.0
 20
0.0
  9
$PLIMMAX
 10
420.0
 20
297.0
  9
$UNITMODE
 70
     0
  9
$VISRETAIN
 70
     1
  9
$PLINEGEN
 70
     0
  9
$PSLTSCALE
 70
     1
  9
$TREEDEPTH
 70
  3020
  9
$PICKSTYLE
 70
     1
  9
$CMLSTYLE
  2
STANDARD
  9
$CMLJUST
 70
     0
  9
$CMLSCALE
 40
20.0
  9
$PROXYGRAPHICS
 70
     1
  9
$MEASUREMENT
 70
     1
  0
ENDSEC
  0
SECTION
  2
CLASSES
  0
CLASS
  1
ACDBDICTIONARYWDFLT
  2
AcDbDictionaryWithDefault
  3
ObjectDBX Classes
 90
        0
280
     0
281
     0
  0
CLASS
  1
VISUALSTYLE
  2
AcDbVisualStyle
  3
ObjectDBX Classes
 90
     4095
280
     0
281
     0
  0
CLASS
  1
MATERIAL
  2
AcDbMaterial
  3
ObjectDBX Classes
 90
     1153
280
     0
281
     0
  0
CLASS
  1
SCALE
  2
AcDbScale
  3
ObjectDBX Classes
 90
     1153
280
     0
281
     0
  0
CLASS
  1
DICTIONARYVAR
  2
AcDbDictionaryVar
  3
ObjectDBX Classes
 90
        0
280
     0
281
     0
  0
CLASS
  1
XRECORD
  2
AcDbXrecord
  3
AutoCAD 2000
 90
        0
280
     0
281
     0
  0
CLASS
  1
LWPOLYLINE
  2
AcDbPolyline
  3
AutoCAD 2000
 90
        0
280
     0
281
     1
  0
CLASS
  1
HATCH
  2
AcDbHatch
  3
AutoCAD 2000
 90
        0
280
     0
281
     1
  0
ENDSEC
  0
SECTION
  2
TABLES
  0
TABLE
  2
VPORT
  5
8
330
0
100
AcDbSymbolTable
 70
     1
  0
VPORT
  5
29
330
8
100
AcDbSymbolTableRecord
100
AcDbViewportTableRecord
  2
*ACTIVE
 70
     0
 10
0.0
 20
0.0
 11
1.0
 21
1.0
 12
48.717238625
 22
108.38082875
 13
0.0
 23
0.0
 14
10.0
 24
10.0
 15
10.0
 25
10.0
 16
0.0
 26
0.0
 36
1.0
 17
0.0
 27
0.0
 37
0.0
 40
222.183530706
 41
0.5274833058
 42
50.0
 43
0.0
 44
0.0
 50
0.0
 51
0.0
 71
     0
 72
   100
 73
     1
 74
     3
 75
     0
 76
     0
 77
     0
 78
     0
  0
ENDTAB
  0
TABLE
  2
LTYPE
  5
5
330
0
100
AcDbSymbolTable
 70
     6
  0
LTYPE
  5
14
330
5
100
AcDbSymbolTableRecord
100
AcDbLinetypeTableRecord
  2
BYBLOCK
 70
     0
  3

 72
    65
 73
     0
 40
0.0
  0
LTYPE
  5
15
330
5
100
AcDbSymbolTableRecord
100
AcDbLinetypeTableRecord
  2
BYLAYER
 70
     0
  3

 72
    65
 73
     0
 40
0.0
  0
LTYPE
  5
16
330
5
100
AcDbSymbolTableRecord
100
AcDbLinetypeTableRecord
  2
CONTINUOUS
 70
     0
  3
Solid line
 72
    65
 73
     0
 40
0.0
  0
LTYPE
  5
3F
330
5
100
AcDbSymbolTableRecord
100
AcDbLinetypeTableRecord
  2
HIDDEN
 70
     0
  3
Hidden __ __ __ __ __ __ __ __ __ __ __ __ __ __
 72
    65
 73
     2
 40
1.905
 49
1.27
 74
     0
 49
-0.635
 74
     0
  0
LTYPE
  5
40
330
5
100
AcDbSymbolTableRecord
100
AcDbLinetypeTableRecord
  2
PHANTOM
 70
     0
  3
Phantom ______  __  __  ______  __  __  ______
 72
    65
 73
     6
 40
12.7
 49
6.35
 74
     0
 49
-1.27
 74
     0
 49
1.27
 74
     0
 49
-1.27
 74
     0
 49
1.27
 74
     0
 49
-1.27
 74
     0
  0
LTYPE
  5
41
330
5
100
AcDbSymbolTableRecord
100
AcDbLinetypeTableRecord
  2
CENTER
 70
     0
  3
Center ____ _ ____ _ ____ _ ____ _ ____ _ ____
 72
    65
 73
     4
 40
10.16
 49
6.35
 74
     0
 49
-1.27
 74
     0
 49
1.27
 74
     0
 49
-1.27
 74
     0
  0
LTYPE
  5
42
330
5
100
AcDbSymbolTableRecord
100
AcDbLinetypeTableRecord
  2
CENTERX2
 70
     0
  3
Center (2x) ________  __  ________  __  _____
 72
    65
 73
     4
 40
20.32
 49
12.7
 74
     0
 49
-2.54
 74
     0
 49
2.54
 74
     0
 49
-2.54
 74
     0
  0
LTYPE
  5
43
330
5
100
AcDbSymbolTableRecord
100
AcDbLinetypeTableRecord
  2
DOT2
 70
     0
  3
Dot (.5x) ........................................
 72
    65
 73
     2
 40
0.635
 49
0.0
 74
     0
 49
-0.635
 74
     0
  0
ENDTAB
  0
TABLE
  2
LAYER
  5
2
330
0
100
AcDbSymbolTable
 70
     1
  0
LAYER
  5
10
330
2
100
AcDbSymbolTableRecord
100
AcDbLayerTableRecord
  2
0
 70
     0
 62
     7
  6
CONTINUOUS
  0
ENDTAB
  0
TABLE
  2
STYLE
  5
3
330
0
100
AcDbSymbolTable
 70
     1
  0
STYLE
  5
11
330
3
100
AcDbSymbolTableRecord
100
AcDbTextStyleTableRecord
  2
STANDARD
 70
     0
 40
0.0
 41
1.0
 50
0.0
 71
     0
 42
3.5
  3
txt
  4

  0
ENDTAB
  0
TABLE
  2
VIEW
  5
6
330
0
100
AcDbSymbolTable
 70
     0
  0
ENDTAB
  0
TABLE
  2
UCS
  5
7
330
0
100
AcDbSymbolTable
 70
     0
  0
ENDTAB
  0
TABLE
  2
APPID
  5
9
330
0
100
AcDbSymbolTable
 70
     1
  0
APPID
  5
12
330
9
100
AcDbSymbolTableRecord
100
AcDbRegAppTableRecord
  2
ACAD
 70
     0
  0
ENDTAB
  0
TABLE
  2
DIMSTYLE
  5
A
330
0
100
AcDbSymbolTable
 70
     1
  0
DIMSTYLE
105
27
330
A
100
AcDbSymbolTableRecord
100
AcDbDimStyleTableRecord
  2
ISO-25
 70
     0
  3

  4

  5

  6

  7

 40
1.0
 41
2.5
 42
0.625
 43
3.75
 44
1.25
 45
0.0
 46
0.0
 47
0.0
 48
0.0
140
2.5
141
2.5
142
0.0
143
0.0393700787
144
1.0
145
0.0
146
1.0
147
0.625
 71
     0
 72
     0
 73
     0
 74
     0
 75
     0
 76
     0
 77
     1
 78
     8
170
     0
171
     3
172
     1
173
     0
174
     0
175
     0
176
     0
177
     0
178
     0
270
     2
271
     2
272
     2
273
     2
274
     3
340
11
275
     0
280
     0
281
     0
282
     0
283
     0
284
     8
285
     0
286
     0
287
     3
288
     0
  0
ENDTAB
  0
TABLE
  2
BLOCK_RECORD
  5
1
330
0
100
AcDbSymbolTable
 70
     1
  0
BLOCK_RECORD
  5
1F
330
1
100
AcDbSymbolTableRecord
100
AcDbBlockTableRecord
  2
*MODEL_SPACE
  0
BLOCK_RECORD
  5
1B
330
1
100
AcDbSymbolTableRecord
100
AcDbBlockTableRecord
  2
*PAPER_SPACE
  0
BLOCK_RECORD
  5
23
330
1
100
AcDbSymbolTableRecord
100
AcDbBlockTableRecord
  2
*PAPER_SPACE0
  0
ENDTAB
  0
ENDSEC
  0
SECTION
  2
BLOCKS
  0
BLOCK
  5
20
330
1F
100
AcDbEntity
  8
0
100
AcDbBlockBegin
  2
*MODEL_SPACE
 70
     0
 10
0.0
 20
0.0
 30
0.0
  3
*MODEL_SPACE
  1

  0
ENDBLK
  5
21
330
1F
100
AcDbEntity
  8
0
100
AcDbBlockEnd
  0
BLOCK
  5
1C
330
1B
100
AcDbEntity
 67
     1
  8
0
100
AcDbBlockBegin
  2
*PAPER_SPACE
 70
     0
 10
0.0
 20
0.0
 30
0.0
  3
*PAPER_SPACE
  1

  0
ENDBLK
  5
1D
330
1B
100
AcDbEntity
 67
     1
  8
0
100
AcDbBlockEnd
  0
BLOCK
  5
24
330
23
100
AcDbEntity
  8
0
100
AcDbBlockBegin
  2
*PAPER_SPACE0
 70
     0
 10
0.0
 20
0.0
 30
0.0
  3
*PAPER_SPACE0
  1

  0
ENDBLK
  5
25
330
23
100
AcDbEntity
  8
0
100
AcDbBlockEnd
  0
ENDSEC
  0
SECTION
  2
ENTITIES
  0
LINE
  5
44
330
1F
100
AcDbEntity
  8
0
  6
CENTERX2
 62
     7
100
AcDbLine
 10
-5.832812
 20
184.6874658471
 30
0.0
 11
106.16728925
 21
184.6874658471
 31
0.0
  0
LINE
  5
45
330
1F
100
AcDbEntity
  8
0
  6
CENTERX2
 62
     7
100
AcDbLine
 10
106.16728925
 20
32.0741916529
 30
0.0
 11
-5.832812
 21
32.0741916529
 31
0.0
  0
CIRCLE
  5
4A
330
1F
100
AcDbEntity
  8
0
  6
CONTINUOUS
 62
     7
100
AcDbCircle
 10
10.167188
 20
190.6943241941
 30
0.0
 40
2.000000000000057
  0
CIRCLE
  5
4B
330
1F
100
AcDbEntity
  8
0
  6
CONTINUOUS
 62
     7
100
AcDbCircle
 10
16.667188
 20
190.6943241941
 30
0.0
 40
2.000000000000057
  0
CIRCLE
  5
4C
330
1F
100
AcDbEntity
  8
0
  6
CONTINUOUS
 62
     7
100
AcDbCircle
 10
23.167188
 20
190.6943241941
 30
0.0
 40
2.000000000000028
  0
CIRCLE
  5
4D
330
1F
100
AcDbEntity
  8
0
  6
CONTINUOUS
 62
     7
100
AcDbCircle
 10
29.667188
 20
190.6943241941
 30
0.0
 40
2.000000000000028
  0
CIRCLE
  5
4E
330
1F
100
AcDbEntity
  8
0
  6
CONTINUOUS
 62
     7
100
AcDbCircle
 10
36.167188
 20
190.6943241941
 30
0.0
 40
2.000000000000028
  0
CIRCLE
  5
4F
330
1F
100
AcDbEntity
  8
0
  6
CONTINUOUS
 62
     7
100
AcDbCircle
 10
42.667188
 20
190.6943241941
 30
0.0
 40
2.000000000000057
  0
CIRCLE
  5
50
330
1F
100
AcDbEntity
  8
0
  6
CONTINUOUS
 62
     7
100
AcDbCircle
 10
49.167188
 20
190.6943241941
 30
0.0
 40
2.000000000000057
  0
CIRCLE
  5
51
330
1F
100
AcDbEntity
  8
0
  6
CONTINUOUS
 62
     7
100
AcDbCircle
 10
55.667188
 20
190.6943241941
 30
0.0
 40
2.000000000000028
  0
CIRCLE
  5
52
330
1F
100
AcDbEntity
  8
0
  6
CONTINUOUS
 62
     7
100
AcDbCircle
 10
62.167188
 20
190.6943241941
 30
0.0
 40
2.000000000000028
  0
CIRCLE
  5
53
330
1F
100
AcDbEntity
  8
0
  6
CONTINUOUS
 62
     7
100
AcDbCircle
 10
68.667188
 20
190.6943241941
 30
0.0
 40
2.0
  0
CIRCLE
  5
54
330
1F
100
AcDbEntity
  8
0
  6
CONTINUOUS
 62
     7
100
AcDbCircle
 10
75.167188
 20
190.6943241941
 30
0.0
 40
2.000000000000057
  0
CIRCLE
  5
55
330
1F
100
AcDbEntity
  8
0
  6
CONTINUOUS
 62
     7
100
AcDbCircle
 10
81.667188
 20
190.6943241941
 30
0.0
 40
2.000000000000057
  0
CIRCLE
  5
56
330
1F
100
AcDbEntity
  8
0
  6
CONTINUOUS
 62
     7
100
AcDbCircle
 10
88.167188
 20
190.6943241941
 30
0.0
 40
2.000000000000028
  0
CIRCLE
  5
57
330
1F
100
AcDbEntity
  8
0
  6
CONTINUOUS
 62
     7
100
AcDbCircle
 10
16.667188
 20
197.1943241941
 30
0.0
 40
2.000000000000057
  0
CIRCLE
  5
58
330
1F
100
AcDbEntity
  8
0
  6
CONTINUOUS
 62
     7
100
AcDbCircle
 10
23.167188
 20
197.1943241941
 30
0.0
 40
2.000000000000028
  0
CIRCLE
  5
59
330
1F
100
AcDbEntity
  8
0
  6
CONTINUOUS
 62
     7
100
AcDbCircle
 10
29.667188
 20
197.1943241941
 30
0.0
 40
2.000000000000057
  0
CIRCLE
  5
5A
330
1F
100
AcDbEntity
  8
0
  6
CONTINUOUS
 62
     7
100
AcDbCircle
 10
36.167188
 20
197.1943241941
 30
0.0
 40
2.000000000000028
  0
CIRCLE
  5
5B
330
1F
100
AcDbEntity
  8
0
  6
CONTINUOUS
 62
     7
100
AcDbCircle
 10
42.667188
 20
197.1943241941
 30
0.0
 40
2.000000000000028
  0
CIRCLE
  5
5C
330
1F
100
AcDbEntity
  8
0
  6
CONTINUOUS
 62
     7
100
AcDbCircle
 10
49.167188
 20
197.1943241941
 30
0.0
 40
2.000000000000057
  0
CIRCLE
  5
5D
330
1F
100
AcDbEntity
  8
0
  6
CONTINUOUS
 62
     7
100
AcDbCircle
 10
55.667188
 20
197.1943241941
 30
0.0
 40
2.000000000000057
  0
CIRCLE
  5
5E
330
1F
100
AcDbEntity
  8
0
  6
CONTINUOUS
 62
     7
100
AcDbCircle
 10
62.167188
 20
197.1943241941
 30
0.0
 40
2.000000000000028
  0
CIRCLE
  5
5F
330
1F
100
AcDbEntity
  8
0
  6
CONTINUOUS
 62
     7
100
AcDbCircle
 10
68.667188
 20
197.1943241941
 30
0.0
 40
2.000000000000057
  0
CIRCLE
  5
60
330
1F
100
AcDbEntity
  8
0
  6
CONTINUOUS
 62
     7
100
AcDbCircle
 10
75.167188
 20
197.1943241941
 30
0.0
 40
2.000000000000057
  0
CIRCLE
  5
61
330
1F
100
AcDbEntity
  8
0
  6
CONTINUOUS
 62
     7
100
AcDbCircle
 10
81.667188
 20
197.1943241941
 30
0.0
 40
2.000000000000057
  0
CIRCLE
  5
62
330
1F
100
AcDbEntity
  8
0
  6
CONTINUOUS
 62
     7
100
AcDbCircle
 10
88.167188
 20
197.1943241941
 30
0.0
 40
2.000000000000028
  0
CIRCLE
  5
63
330
1F
100
AcDbEntity
  8
0
  6
CONTINUOUS
 62
     7
100
AcDbCircle
 10
16.667188
 20
203.6943241941
 30
0.0
 40
2.000000000000028
  0
CIRCLE
  5
64
330
1F
100
AcDbEntity
  8
0
  6
CONTINUOUS
 62
     7
100
AcDbCircle
 10
23.167188
 20
203.6943241941
 30
0.0
 40
2.000000000000028
  0
CIRCLE
  5
65
330
1F
100
AcDbEntity
  8
0
  6
CONTINUOUS
 62
     7
100
AcDbCircle
 10
29.667188
 20
203.6943241941
 30
0.0
 40
2.000000000000057
  0
CIRCLE
  5
66
330
1F
100
AcDbEntity
  8
0
  6
CONTINUOUS
 62
     7
100
AcDbCircle
 10
36.167188
 20
203.6943241941
 30
0.0
 40
2.000000000000028
  0
CIRCLE
  5
67
330
1F
100
AcDbEntity
  8
0
  6
CONTINUOUS
 62
     7
100
AcDbCircle
 10
42.667188
 20
203.6943241941
 30
0.0
 40
2.000000000000057
  0
CIRCLE
  5
68
330
1F
100
AcDbEntity
  8
0
  6
CONTINUOUS
 62
     7
100
AcDbCircle
 10
49.167188
 20
203.6943241941
 30
0.0
 40
2.000000000000057
  0
CIRCLE
  5
69
330
1F
100
AcDbEntity
  8
0
  6
CONTINUOUS
 62
     7
100
AcDbCircle
 10
55.667188
 20
203.6943241941
 30
0.0
 40
2.000000000000057
  0
CIRCLE
  5
6A
330
1F
100
AcDbEntity
  8
0
  6
CONTINUOUS
 62
     7
100
AcDbCircle
 10
62.167188
 20
203.6943241941
 30
0.0
 40
2.000000000000028
  0
CIRCLE
  5
6B
330
1F
100
AcDbEntity
  8
0
  6
CONTINUOUS
 62
     7
100
AcDbCircle
 10
68.667188
 20
203.6943241941
 30
0.0
 40
2.000000000000057
  0
CIRCLE
  5
6C
330
1F
100
AcDbEntity
  8
0
  6
CONTINUOUS
 62
     7
100
AcDbCircle
 10
75.167188
 20
203.6943241941
 30
0.0
 40
2.000000000000057
  0
CIRCLE
  5
6D
330
1F
100
AcDbEntity
  8
0
  6
CONTINUOUS
 62
     7
100
AcDbCircle
 10
81.667188
 20
203.6943241941
 30
0.0
 40
2.000000000000057
  0
CIRCLE
  5
6E
330
1F
100
AcDbEntity
  8
0
  6
CONTINUOUS
 62
     7
100
AcDbCircle
 10
88.167188
 20
203.6943241941
 30
0.0
 40
2.000000000000028
  0
CIRCLE
  5
6F
330
1F
100
AcDbEntity
  8
0
  6
CONTINUOUS
 62
     7
100
AcDbCircle
 10
10.167188
 20
197.1943241941
 30
0.0
 40
2.000000000000057
  0
CIRCLE
  5
70
330
1F
100
AcDbEntity
  8
0
  6
CONTINUOUS
 62
     7
100
AcDbCircle
 10
10.167188
 20
203.6943241941
 30
0.0
 40
2.000000000000057
  0
CIRCLE
  5
E1
330
1F
100
AcDbEntity
  8
0
  6
CONTINUOUS
 62
     7
100
AcDbCircle
 10
90.16728925
 20
168.5806075
 30
0.0
 40
2.0
  0
CIRCLE
  5
E2
330
1F
100
AcDbEntity
  8
0
  6
CONTINUOUS
 62
     7
100
AcDbCircle
 10
83.66728925
 20
168.5806075
 30
0.0
 40
1.999999999999972
  0
CIRCLE
  5
E3
330
1F
100
AcDbEntity
  8
0
  6
CONTINUOUS
 62
     7
100
AcDbCircle
 10
77.16728925
 20
168.5806075
 30
0.0
 40
1.999999999999972
  0
CIRCLE
  5
E4
330
1F
100
AcDbEntity
  8
0
  6
CONTINUOUS
 62
     7
100
AcDbCircle
 10
70.66728925
 20
168.5806075
 30
0.0
 40
1.999999999999972
  0
CIRCLE
  5
E5
330
1F
100
AcDbEntity
  8
0
  6
CONTINUOUS
 62
     7
100
AcDbCircle
 10
64.16728925
 20
168.5806075
 30
0.0
 40
1.999999999999979
  0
CIRCLE
  5
E6
330
1F
100
AcDbEntity
  8
0
  6
CONTINUOUS
 62
     7
100
AcDbCircle
 10
57.66728925
 20
168.5806075
 30
0.0
 40
1.999999999999972
  0
CIRCLE
  5
E7
330
1F
100
AcDbEntity
  8
0
  6
CONTINUOUS
 62
     7
100
AcDbCircle
 10
51.16728925
 20
168.5806075
 30
0.0
 40
1.999999999999972
  0
CIRCLE
  5
E8
330
1F
100
AcDbEntity
  8
0
  6
CONTINUOUS
 62
     7
100
AcDbCircle
 10
44.66728925
 20
168.5806075
 30
0.0
 40
1.999999999999972
  0
CIRCLE
  5
E9
330
1F
100
AcDbEntity
  8
0
  6
CONTINUOUS
 62
     7
100
AcDbCircle
 10
38.16728925
 20
168.5806075
 30
0.0
 40
1.999999999999972
  0
CIRCLE
  5
EA
330
1F
100
AcDbEntity
  8
0
  6
CONTINUOUS
 62
     7
100
AcDbCircle
 10
31.66728925
 20
168.5806075
 30
0.0
 40
1.999999999999972
  0
CIRCLE
  5
EB
330
1F
100
AcDbEntity
  8
0
  6
CONTINUOUS
 62
     7
100
AcDbCircle
 10
25.16728925
 20
168.5806075
 30
0.0
 40
1.999999999999975
  0
CIRCLE
  5
EC
330
1F
100
AcDbEntity
  8
0
  6
CONTINUOUS
 62
     7
100
AcDbCircle
 10
18.66728925
 20
168.5806075
 30
0.0
 40
1.999999999999972
  0
CIRCLE
  5
ED
330
1F
100
AcDbEntity
  8
0
  6
CONTINUOUS
 62
     7
100
AcDbCircle
 10
12.16728925
 20
168.5806075
 30
0.0
 40
1.999999999999972
  0
CIRCLE
  5
EE
330
1F
100
AcDbEntity
  8
0
  6
CONTINUOUS
 62
     7
100
AcDbCircle
 10
83.66728925
 20
162.0806075
 30
0.0
 40
2.0
  0
CIRCLE
  5
EF
330
1F
100
AcDbEntity
  8
0
  6
CONTINUOUS
 62
     7
100
AcDbCircle
 10
77.16728925
 20
162.0806075
 30
0.0
 40
2.0
  0
CIRCLE
  5
F0
330
1F
100
AcDbEntity
  8
0
  6
CONTINUOUS
 62
     7
100
AcDbCircle
 10
70.66728925
 20
162.0806075
 30
0.0
 40
1.999999999999986
  0
CIRCLE
  5
F1
330
1F
100
AcDbEntity
  8
0
  6
CONTINUOUS
 62
     7
100
AcDbCircle
 10
64.16728925
 20
162.0806075
 30
0.0
 40
1.999999999999993
  0
CIRCLE
  5
F2
330
1F
100
AcDbEntity
  8
0
  6
CONTINUOUS
 62
     7
100
AcDbCircle
 10
57.66728925
 20
162.0806075
 30
0.0
 40
1.999999999999993
  0
CIRCLE
  5
F3
330
1F
100
AcDbEntity
  8
0
  6
CONTINUOUS
 62
     7
100
AcDbCircle
 10
51.16728925
 20
162.0806075
 30
0.0
 40
1.999999999999993
  0
CIRCLE
  5
F4
330
1F
100
AcDbEntity
  8
0
  6
CONTINUOUS
 62
     7
100
AcDbCircle
 10
44.66728925
 20
162.0806075
 30
0.0
 40
1.999999999999993
  0
CIRCLE
  5
F5
330
1F
100
AcDbEntity
  8
0
  6
CONTINUOUS
 62
     7
100
AcDbCircle
 10
38.16728925
 20
162.0806075
 30
0.0
 40
1.999999999999993
  0
CIRCLE
  5
F6
330
1F
100
AcDbEntity
  8
0
  6
CONTINUOUS
 62
     7
100
AcDbCircle
 10
31.66728925
 20
162.0806075
 30
0.0
 40
1.999999999999993
  0
CIRCLE
  5
F7
330
1F
100
AcDbEntity
  8
0
  6
CONTINUOUS
 62
     7
100
AcDbCircle
 10
25.16728925
 20
162.0806075
 30
0.0
 40
1.999999999999996
  0
CIRCLE
  5
F8
330
1F
100
AcDbEntity
  8
0
  6
CONTINUOUS
 62
     7
100
AcDbCircle
 10
18.66728925
 20
162.0806075
 30
0.0
 40
1.999999999999989
  0
CIRCLE
  5
F9
330
1F
100
AcDbEntity
  8
0
  6
CONTINUOUS
 62
     7
100
AcDbCircle
 10
12.16728925
 20
162.0806075
 30
0.0
 40
1.999999999999991
  0
CIRCLE
  5
FA
330
1F
100
AcDbEntity
  8
0
  6
CONTINUOUS
 62
     7
100
AcDbCircle
 10
83.66728925
 20
155.5806075
 30
0.0
 40
2.000000000000043
  0
CIRCLE
  5
FB
330
1F
100
AcDbEntity
  8
0
  6
CONTINUOUS
 62
     7
100
AcDbCircle
 10
77.16728925
 20
155.5806075
 30
0.0
 40
2.000000000000043
  0
CIRCLE
  5
FC
330
1F
100
AcDbEntity
  8
0
  6
CONTINUOUS
 62
     7
100
AcDbCircle
 10
70.66728925
 20
155.5806075
 30
0.0
 40
2.000000000000043
  0
CIRCLE
  5
FD
330
1F
100
AcDbEntity
  8
0
  6
CONTINUOUS
 62
     7
100
AcDbCircle
 10
64.16728925
 20
155.5806075
 30
0.0
 40
2.000000000000036
  0
CIRCLE
  5
FE
330
1F
100
AcDbEntity
  8
0
  6
CONTINUOUS
 62
     7
100
AcDbCircle
 10
57.66728925
 20
155.5806075
 30
0.0
 40
2.000000000000036
  0
CIRCLE
  5
FF
330
1F
100
AcDbEntity
  8
0
  6
CONTINUOUS
 62
     7
100
AcDbCircle
 10
51.16728925
 20
155.5806075
 30
0.0
 40
2.000000000000036
  0
CIRCLE
  5
100
330
1F
100
AcDbEntity
  8
0
  6
CONTINUOUS
 62
     7
100
AcDbCircle
 10
44.66728925
 20
155.5806075
 30
0.0
 40
2.000000000000028
  0
CIRCLE
  5
101
330
1F
100
AcDbEntity
  8
0
  6
CONTINUOUS
 62
     7
100
AcDbCircle
 10
38.16728925
 20
155.5806075
 30
0.0
 40
2.000000000000028
  0
CIRCLE
  5
102
330
1F
100
AcDbEntity
  8
0
  6
CONTINUOUS
 62
     7
100
AcDbCircle
 10
31.66728925
 20
155.5806075
 30
0.0
 40
2.000000000000039
  0
CIRCLE
  5
103
330
1F
100
AcDbEntity
  8
0
  6
CONTINUOUS
 62
     7
100
AcDbCircle
 10
25.16728925
 20
155.5806075
 30
0.0
 40
2.000000000000039
  0
CIRCLE
  5
104
330
1F
100
AcDbEntity
  8
0
  6
CONTINUOUS
 62
     7
100
AcDbCircle
 10
18.66728925
 20
155.5806075
 30
0.0
 40
2.000000000000039
  0
CIRCLE
  5
105
330
1F
100
AcDbEntity
  8
0
  6
CONTINUOUS
 62
     7
100
AcDbCircle
 10
12.16728925
 20
155.5806075
 30
0.0
 40
2.000000000000039
  0
CIRCLE
  5
106
330
1F
100
AcDbEntity
  8
0
  6
CONTINUOUS
 62
     7
100
AcDbCircle
 10
83.66728925
 20
149.0806075
 30
0.0
 40
1.999999999999972
  0
CIRCLE
  5
107
330
1F
100
AcDbEntity
  8
0
  6
CONTINUOUS
 62
     7
100
AcDbCircle
 10
77.16728925
 20
149.0806075
 30
0.0
 40
1.999999999999972
  0
CIRCLE
  5
108
330
1F
100
AcDbEntity
  8
0
  6
CONTINUOUS
 62
     7
100
AcDbCircle
 10
70.66728925
 20
149.0806075
 30
0.0
 40
1.999999999999972
  0
CIRCLE
  5
109
330
1F
100
AcDbEntity
  8
0
  6
CONTINUOUS
 62
     7
100
AcDbCircle
 10
64.16728925
 20
149.0806075
 30
0.0
 40
1.999999999999964
  0
CIRCLE
  5
10A
330
1F
100
AcDbEntity
  8
0
  6
CONTINUOUS
 62
     7
100
AcDbCircle
 10
57.66728925
 20
149.0806075
 30
0.0
 40
1.999999999999972
  0
CIRCLE
  5
10B
330
1F
100
AcDbEntity
  8
0
  6
CONTINUOUS
 62
     7
100
AcDbCircle
 10
51.16728925
 20
149.0806075
 30
0.0
 40
1.999999999999972
  0
CIRCLE
  5
10C
330
1F
100
AcDbEntity
  8
0
  6
CONTINUOUS
 62
     7
100
AcDbCircle
 10
44.66728925
 20
149.0806075
 30
0.0
 40
1.999999999999972
  0
CIRCLE
  5
10D
330
1F
100
AcDbEntity
  8
0
  6
CONTINUOUS
 62
     7
100
AcDbCircle
 10
38.16728925
 20
149.0806075
 30
0.0
 40
1.999999999999972
  0
CIRCLE
  5
10E
330
1F
100
AcDbEntity
  8
0
  6
CONTINUOUS
 62
     7
100
AcDbCircle
 10
31.66728925
 20
149.0806075
 30
0.0
 40
1.999999999999972
  0
CIRCLE
  5
10F
330
1F
100
AcDbEntity
  8
0
  6
CONTINUOUS
 62
     7
100
AcDbCircle
 10
25.16728925
 20
149.0806075
 30
0.0
 40
1.999999999999972
  0
CIRCLE
  5
110
330
1F
100
AcDbEntity
  8
0
  6
CONTINUOUS
 62
     7
100
AcDbCircle
 10
18.66728925
 20
149.0806075
 30
0.0
 40
1.999999999999972
  0
CIRCLE
  5
111
330
1F
100
AcDbEntity
  8
0
  6
CONTINUOUS
 62
     7
100
AcDbCircle
 10
12.16728925
 20
149.0806075
 30
0.0
 40
1.999999999999972
  0
CIRCLE
  5
112
330
1F
100
AcDbEntity
  8
0
  6
CONTINUOUS
 62
     7
100
AcDbCircle
 10
83.66728925
 20
142.5806075
 30
0.0
 40
1.999999999999972
  0
CIRCLE
  5
113
330
1F
100
AcDbEntity
  8
0
  6
CONTINUOUS
 62
     7
100
AcDbCircle
 10
77.16728925
 20
142.5806075
 30
0.0
 40
1.999999999999972
  0
CIRCLE
  5
114
330
1F
100
AcDbEntity
  8
0
  6
CONTINUOUS
 62
     7
100
AcDbCircle
 10
70.66728925
 20
142.5806075
 30
0.0
 40
1.999999999999972
  0
CIRCLE
  5
115
330
1F
100
AcDbEntity
  8
0
  6
CONTINUOUS
 62
     7
100
AcDbCircle
 10
64.16728925
 20
142.5806075
 30
0.0
 40
1.999999999999972
  0
CIRCLE
  5
116
330
1F
100
AcDbEntity
  8
0
  6
CONTINUOUS
 62
     7
100
AcDbCircle
 10
57.66728925
 20
142.5806075
 30
0.0
 40
1.999999999999964
  0
CIRCLE
  5
117
330
1F
100
AcDbEntity
  8
0
  6
CONTINUOUS
 62
     7
100
AcDbCircle
 10
51.16728925
 20
142.5806075
 30
0.0
 40
1.999999999999964
  0
CIRCLE
  5
118
330
1F
100
AcDbEntity
  8
0
  6
CONTINUOUS
 62
     7
100
AcDbCircle
 10
44.66728925
 20
142.5806075
 30
0.0
 40
1.999999999999964
  0
CIRCLE
  5
119
330
1F
100
AcDbEntity
  8
0
  6
CONTINUOUS
 62
     7
100
AcDbCircle
 10
38.16728925
 20
142.5806075
 30
0.0
 40
1.999999999999972
  0
CIRCLE
  5
11A
330
1F
100
AcDbEntity
  8
0
  6
CONTINUOUS
 62
     7
100
AcDbCircle
 10
31.66728925
 20
142.5806075
 30
0.0
 40
1.999999999999972
  0
CIRCLE
  5
11B
330
1F
100
AcDbEntity
  8
0
  6
CONTINUOUS
 62
     7
100
AcDbCircle
 10
25.16728925
 20
142.5806075
 30
0.0
 40
1.999999999999972
  0
CIRCLE
  5
11C
330
1F
100
AcDbEntity
  8
0
  6
CONTINUOUS
 62
     7
100
AcDbCircle
 10
18.66728925
 20
142.5806075
 30
0.0
 40
1.999999999999972
  0
CIRCLE
  5
11D
330
1F
100
AcDbEntity
  8
0
  6
CONTINUOUS
 62
     7
100
AcDbCircle
 10
12.16728925
 20
142.5806075
 30
0.0
 40
1.999999999999972
  0
CIRCLE
  5
11E
330
1F
100
AcDbEntity
  8
0
  6
CONTINUOUS
 62
     7
100
AcDbCircle
 10
83.66728925
 20
136.0806075
 30
0.0
 40
1.999999999999972
  0
CIRCLE
  5
11F
330
1F
100
AcDbEntity
  8
0
  6
CONTINUOUS
 62
     7
100
AcDbCircle
 10
77.16728925
 20
136.0806075
 30
0.0
 40
1.999999999999972
  0
CIRCLE
  5
120
330
1F
100
AcDbEntity
  8
0
  6
CONTINUOUS
 62
     7
100
AcDbCircle
 10
70.66728925
 20
136.0806075
 30
0.0
 40
1.999999999999972
  0
CIRCLE
  5
121
330
1F
100
AcDbEntity
  8
0
  6
CONTINUOUS
 62
     7
100
AcDbCircle
 10
64.16728925
 20
136.0806075
 30
0.0
 40
1.999999999999972
  0
CIRCLE
  5
122
330
1F
100
AcDbEntity
  8
0
  6
CONTINUOUS
 62
     7
100
AcDbCircle
 10
57.66728925
 20
136.0806075
 30
0.0
 40
1.999999999999972
  0
CIRCLE
  5
123
330
1F
100
AcDbEntity
  8
0
  6
CONTINUOUS
 62
     7
100
AcDbCircle
 10
51.16728925
 20
136.0806075
 30
0.0
 40
1.999999999999972
  0
CIRCLE
  5
124
330
1F
100
AcDbEntity
  8
0
  6
CONTINUOUS
 62
     7
100
AcDbCircle
 10
44.66728925
 20
136.0806075
 30
0.0
 40
1.999999999999972
  0
CIRCLE
  5
125
330
1F
100
AcDbEntity
  8
0
  6
CONTINUOUS
 62
     7
100
AcDbCircle
 10
38.16728925
 20
136.0806075
 30
0.0
 40
1.999999999999972
  0
CIRCLE
  5
126
330
1F
100
AcDbEntity
  8
0
  6
CONTINUOUS
 62
     7
100
AcDbCircle
 10
31.66728925
 20
136.0806075
 30
0.0
 40
1.999999999999972
  0
CIRCLE
  5
127
330
1F
100
AcDbEntity
  8
0
  6
CONTINUOUS
 62
     7
100
AcDbCircle
 10
25.16728925
 20
136.0806075
 30
0.0
 40
1.999999999999975
  0
CIRCLE
  5
128
330
1F
100
AcDbEntity
  8
0
  6
CONTINUOUS
 62
     7
100
AcDbCircle
 10
18.66728925
 20
136.0806075
 30
0.0
 40
1.999999999999972
  0
CIRCLE
  5
129
330
1F
100
AcDbEntity
  8
0
  6
CONTINUOUS
 62
     7
100
AcDbCircle
 10
12.16728925
 20
136.0806075
 30
0.0
 40
1.999999999999973
  0
CIRCLE
  5
12A
330
1F
100
AcDbEntity
  8
0
  6
CONTINUOUS
 62
     7
100
AcDbCircle
 10
83.66728925
 20
129.5806075
 30
0.0
 40
2.0
  0
CIRCLE
  5
12B
330
1F
100
AcDbEntity
  8
0
  6
CONTINUOUS
 62
     7
100
AcDbCircle
 10
77.16728925
 20
129.5806075
 30
0.0
 40
2.0
  0
CIRCLE
  5
12C
330
1F
100
AcDbEntity
  8
0
  6
CONTINUOUS
 62
     7
100
AcDbCircle
 10
70.66728925
 20
129.5806075
 30
0.0
 40
2.0
  0
CIRCLE
  5
12D
330
1F
100
AcDbEntity
  8
0
  6
CONTINUOUS
 62
     7
100
AcDbCircle
 10
64.16728925
 20
129.5806075
 30
0.0
 40
2.0
  0
CIRCLE
  5
12E
330
1F
100
AcDbEntity
  8
0
  6
CONTINUOUS
 62
     7
100
AcDbCircle
 10
57.66728925
 20
129.5806075
 30
0.0
 40
1.999999999999993
  0
CIRCLE
  5
12F
330
1F
100
AcDbEntity
  8
0
  6
CONTINUOUS
 62
     7
100
AcDbCircle
 10
51.16728925
 20
129.5806075
 30
0.0
 40
1.999999999999993
  0
CIRCLE
  5
130
330
1F
100
AcDbEntity
  8
0
  6
CONTINUOUS
 62
     7
100
AcDbCircle
 10
44.66728925
 20
129.5806075
 30
0.0
 40
2.000000000000007
  0
CIRCLE
  5
131
330
1F
100
AcDbEntity
  8
0
  6
CONTINUOUS
 62
     7
100
AcDbCircle
 10
38.16728925
 20
129.5806075
 30
0.0
 40
2.0
  0
CIRCLE
  5
132
330
1F
100
AcDbEntity
  8
0
  6
CONTINUOUS
 62
     7
100
AcDbCircle
 10
31.66728925
 20
129.5806075
 30
0.0
 40
1.999999999999996
  0
CIRCLE
  5
133
330
1F
100
AcDbEntity
  8
0
  6
CONTINUOUS
 62
     7
100
AcDbCircle
 10
25.16728925
 20
129.5806075
 30
0.0
 40
1.999999999999996
  0
CIRCLE
  5
134
330
1F
100
AcDbEntity
  8
0
  6
CONTINUOUS
 62
     7
100
AcDbCircle
 10
18.66728925
 20
129.5806075
 30
0.0
 40
1.999999999999996
  0
CIRCLE
  5
135
330
1F
100
AcDbEntity
  8
0
  6
CONTINUOUS
 62
     7
100
AcDbCircle
 10
12.16728925
 20
129.5806075
 30
0.0
 40
1.999999999999998
  0
CIRCLE
  5
136
330
1F
100
AcDbEntity
  8
0
  6
CONTINUOUS
 62
     7
100
AcDbCircle
 10
83.66728925
 20
123.0806075
 30
0.0
 40
2.0
  0
CIRCLE
  5
137
330
1F
100
AcDbEntity
  8
0
  6
CONTINUOUS
 62
     7
100
AcDbCircle
 10
77.16728925
 20
123.0806075
 30
0.0
 40
2.0
  0
CIRCLE
  5
138
330
1F
100
AcDbEntity
  8
0
  6
CONTINUOUS
 62
     7
100
AcDbCircle
 10
70.66728925
 20
123.0806075
 30
0.0
 40
2.0
  0
CIRCLE
  5
139
330
1F
100
AcDbEntity
  8
0
  6
CONTINUOUS
 62
     7
100
AcDbCircle
 10
64.16728925
 20
123.0806075
 30
0.0
 40
2.000000000000007
  0
CIRCLE
  5
13A
330
1F
100
AcDbEntity
  8
0
  6
CONTINUOUS
 62
     7
100
AcDbCircle
 10
57.66728925
 20
123.0806075
 30
0.0
 40
1.999999999999972
  0
CIRCLE
  5
13B
330
1F
100
AcDbEntity
  8
0
  6
CONTINUOUS
 62
     7
100
AcDbCircle
 10
51.16728925
 20
123.0806075
 30
0.0
 40
1.999999999999964
  0
CIRCLE
  5
13C
330
1F
100
AcDbEntity
  8
0
  6
CONTINUOUS
 62
     7
100
AcDbCircle
 10
44.66728925
 20
123.0806075
 30
0.0
 40
1.999999999999964
  0
CIRCLE
  5
13D
330
1F
100
AcDbEntity
  8
0
  6
CONTINUOUS
 62
     7
100
AcDbCircle
 10
38.16728925
 20
123.0806075
 30
0.0
 40
1.999999999999972
  0
CIRCLE
  5
13E
330
1F
100
AcDbEntity
  8
0
  6
CONTINUOUS
 62
     7
100
AcDbCircle
 10
31.66728925
 20
123.0806075
 30
0.0
 40
1.999999999999975
  0
CIRCLE
  5
13F
330
1F
100
AcDbEntity
  8
0
  6
CONTINUOUS
 62
     7
100
AcDbCircle
 10
25.16728925
 20
123.0806075
 30
0.0
 40
1.999999999999979
  0
CIRCLE
  5
140
330
1F
100
AcDbEntity
  8
0
  6
CONTINUOUS
 62
     7
100
AcDbCircle
 10
18.66728925
 20
123.0806075
 30
0.0
 40
1.999999999999975
  0
CIRCLE
  5
141
330
1F
100
AcDbEntity
  8
0
  6
CONTINUOUS
 62
     7
100
AcDbCircle
 10
12.16728925
 20
123.0806075
 30
0.0
 40
1.999999999999975
  0
CIRCLE
  5
142
330
1F
100
AcDbEntity
  8
0
  6
CONTINUOUS
 62
     7
100
AcDbCircle
 10
83.66728925
 20
116.5806075
 30
0.0
 40
1.999999999999986
  0
CIRCLE
  5
143
330
1F
100
AcDbEntity
  8
0
  6
CONTINUOUS
 62
     7
100
AcDbCircle
 10
77.16728925
 20
116.5806075
 30
0.0
 40
1.999999999999986
  0
CIRCLE
  5
144
330
1F
100
AcDbEntity
  8
0
  6
CONTINUOUS
 62
     7
100
AcDbCircle
 10
70.66728925
 20
116.5806075
 30
0.0
 40
1.999999999999986
  0
CIRCLE
  5
145
330
1F
100
AcDbEntity
  8
0
  6
CONTINUOUS
 62
     7
100
AcDbCircle
 10
64.16728925
 20
116.5806075
 30
0.0
 40
1.999999999999993
  0
CIRCLE
  5
146
330
1F
100
AcDbEntity
  8
0
  6
CONTINUOUS
 62
     7
100
AcDbCircle
 10
57.66728925
 20
116.5806075
 30
0.0
 40
2.0
  0
CIRCLE
  5
147
330
1F
100
AcDbEntity
  8
0
  6
CONTINUOUS
 62
     7
100
AcDbCircle
 10
51.16728925
 20
116.5806075
 30
0.0
 40
2.0
  0
CIRCLE
  5
148
330
1F
100
AcDbEntity
  8
0
  6
CONTINUOUS
 62
     7
100
AcDbCircle
 10
44.66728925
 20
116.5806075
 30
0.0
 40
2.0
  0
CIRCLE
  5
149
330
1F
100
AcDbEntity
  8
0
  6
CONTINUOUS
 62
     7
100
AcDbCircle
 10
38.16728925
 20
116.5806075
 30
0.0
 40
2.0
  0
CIRCLE
  5
14A
330
1F
100
AcDbEntity
  8
0
  6
CONTINUOUS
 62
     7
100
AcDbCircle
 10
31.66728925
 20
116.5806075
 30
0.0
 40
2.0
  0
CIRCLE
  5
14B
330
1F
100
AcDbEntity
  8
0
  6
CONTINUOUS
 62
     7
100
AcDbCircle
 10
25.16728925
 20
116.5806075
 30
0.0
 40
2.000000000000004
  0
CIRCLE
  5
14C
330
1F
100
AcDbEntity
  8
0
  6
CONTINUOUS
 62
     7
100
AcDbCircle
 10
18.66728925
 20
116.5806075
 30
0.0
 40
2.0
  0
CIRCLE
  5
14D
330
1F
100
AcDbEntity
  8
0
  6
CONTINUOUS
 62
     7
100
AcDbCircle
 10
12.16728925
 20
116.5806075
 30
0.0
 40
1.999999999999996
  0
CIRCLE
  5
14E
330
1F
100
AcDbEntity
  8
0
  6
CONTINUOUS
 62
     7
100
AcDbCircle
 10
83.66728925
 20
110.0806075
 30
0.0
 40
2.0
  0
CIRCLE
  5
14F
330
1F
100
AcDbEntity
  8
0
  6
CONTINUOUS
 62
     7
100
AcDbCircle
 10
77.16728925
 20
110.0806075
 30
0.0
 40
1.999999999999986
  0
CIRCLE
  5
150
330
1F
100
AcDbEntity
  8
0
  6
CONTINUOUS
 62
     7
100
AcDbCircle
 10
70.66728925
 20
110.0806075
 30
0.0
 40
2.0
  0
CIRCLE
  5
151
330
1F
100
AcDbEntity
  8
0
  6
CONTINUOUS
 62
     7
100
AcDbCircle
 10
64.16728925
 20
110.0806075
 30
0.0
 40
1.999999999999986
  0
CIRCLE
  5
152
330
1F
100
AcDbEntity
  8
0
  6
CONTINUOUS
 62
     7
100
AcDbCircle
 10
57.66728925
 20
110.0806075
 30
0.0
 40
1.999999999999993
  0
CIRCLE
  5
153
330
1F
100
AcDbEntity
  8
0
  6
CONTINUOUS
 62
     7
100
AcDbCircle
 10
51.16728925
 20
110.0806075
 30
0.0
 40
1.999999999999993
  0
CIRCLE
  5
154
330
1F
100
AcDbEntity
  8
0
  6
CONTINUOUS
 62
     7
100
AcDbCircle
 10
44.66728925
 20
110.0806075
 30
0.0
 40
1.999999999999993
  0
CIRCLE
  5
155
330
1F
100
AcDbEntity
  8
0
  6
CONTINUOUS
 62
     7
100
AcDbCircle
 10
38.16728925
 20
110.0806075
 30
0.0
 40
1.999999999999993
  0
CIRCLE
  5
156
330
1F
100
AcDbEntity
  8
0
  6
CONTINUOUS
 62
     7
100
AcDbCircle
 10
31.66728925
 20
110.0806075
 30
0.0
 40
2.0
  0
CIRCLE
  5
157
330
1F
100
AcDbEntity
  8
0
  6
CONTINUOUS
 62
     7
100
AcDbCircle
 10
25.16728925
 20
110.0806075
 30
0.0
 40
2.0
  0
CIRCLE
  5
158
330
1F
100
AcDbEntity
  8
0
  6
CONTINUOUS
 62
     7
100
AcDbCircle
 10
18.66728925
 20
110.0806075
 30
0.0
 40
1.999999999999996
  0
CIRCLE
  5
159
330
1F
100
AcDbEntity
  8
0
  6
CONTINUOUS
 62
     7
100
AcDbCircle
 10
12.16728925
 20
110.0806075
 30
0.0
 40
1.999999999999998
  0
CIRCLE
  5
15A
330
1F
100
AcDbEntity
  8
0
  6
CONTINUOUS
 62
     7
100
AcDbCircle
 10
83.66728925
 20
103.5806075
 30
0.0
 40
2.000000000000014
  0
CIRCLE
  5
15B
330
1F
100
AcDbEntity
  8
0
  6
CONTINUOUS
 62
     7
100
AcDbCircle
 10
77.16728925
 20
103.5806075
 30
0.0
 40
2.000000000000014
  0
CIRCLE
  5
15C
330
1F
100
AcDbEntity
  8
0
  6
CONTINUOUS
 62
     7
100
AcDbCircle
 10
70.66728925
 20
103.5806075
 30
0.0
 40
2.000000000000028
  0
CIRCLE
  5
15D
330
1F
100
AcDbEntity
  8
0
  6
CONTINUOUS
 62
     7
100
AcDbCircle
 10
64.16728925
 20
103.5806075
 30
0.0
 40
1.999999999999979
  0
CIRCLE
  5
15E
330
1F
100
AcDbEntity
  8
0
  6
CONTINUOUS
 62
     7
100
AcDbCircle
 10
57.66728925
 20
103.5806075
 30
0.0
 40
1.999999999999972
  0
CIRCLE
  5
15F
330
1F
100
AcDbEntity
  8
0
  6
CONTINUOUS
 62
     7
100
AcDbCircle
 10
51.16728925
 20
103.5806075
 30
0.0
 40
1.999999999999972
  0
CIRCLE
  5
160
330
1F
100
AcDbEntity
  8
0
  6
CONTINUOUS
 62
     7
100
AcDbCircle
 10
44.66728925
 20
103.5806075
 30
0.0
 40
1.999999999999972
  0
CIRCLE
  5
161
330
1F
100
AcDbEntity
  8
0
  6
CONTINUOUS
 62
     7
100
AcDbCircle
 10
38.16728925
 20
103.5806075
 30
0.0
 40
1.999999999999972
  0
CIRCLE
  5
162
330
1F
100
AcDbEntity
  8
0
  6
CONTINUOUS
 62
     7
100
AcDbCircle
 10
31.66728925
 20
103.5806075
 30
0.0
 40
1.999999999999972
  0
CIRCLE
  5
163
330
1F
100
AcDbEntity
  8
0
  6
CONTINUOUS
 62
     7
100
AcDbCircle
 10
25.16728925
 20
103.5806075
 30
0.0
 40
1.999999999999972
  0
CIRCLE
  5
164
330
1F
100
AcDbEntity
  8
0
  6
CONTINUOUS
 62
     7
100
AcDbCircle
 10
18.66728925
 20
103.5806075
 30
0.0
 40
1.999999999999972
  0
CIRCLE
  5
165
330
1F
100
AcDbEntity
  8
0
  6
CONTINUOUS
 62
     7
100
AcDbCircle
 10
12.16728925
 20
103.5806075
 30
0.0
 40
1.999999999999975
  0
CIRCLE
  5
166
330
1F
100
AcDbEntity
  8
0
  6
CONTINUOUS
 62
     7
100
AcDbCircle
 10
83.66728925
 20
97.0806075
 30
0.0
 40
1.999999999999986
  0
CIRCLE
  5
167
330
1F
100
AcDbEntity
  8
0
  6
CONTINUOUS
 62
     7
100
AcDbCircle
 10
77.16728925
 20
97.0806075
 30
0.0
 40
2.0
  0
CIRCLE
  5
168
330
1F
100
AcDbEntity
  8
0
  6
CONTINUOUS
 62
     7
100
AcDbCircle
 10
70.66728925
 20
97.0806075
 30
0.0
 40
1.999999999999972
  0
CIRCLE
  5
169
330
1F
100
AcDbEntity
  8
0
  6
CONTINUOUS
 62
     7
100
AcDbCircle
 10
64.16728925
 20
97.0806075
 30
0.0
 40
1.999999999999993
  0
CIRCLE
  5
16A
330
1F
100
AcDbEntity
  8
0
  6
CONTINUOUS
 62
     7
100
AcDbCircle
 10
57.66728925
 20
97.0806075
 30
0.0
 40
1.999999999999993
  0
CIRCLE
  5
16B
330
1F
100
AcDbEntity
  8
0
  6
CONTINUOUS
 62
     7
100
AcDbCircle
 10
51.16728925
 20
97.0806075
 30
0.0
 40
2.000000000000014
  0
CIRCLE
  5
16C
330
1F
100
AcDbEntity
  8
0
  6
CONTINUOUS
 62
     7
100
AcDbCircle
 10
44.66728925
 20
97.0806075
 30
0.0
 40
2.0
  0
CIRCLE
  5
16D
330
1F
100
AcDbEntity
  8
0
  6
CONTINUOUS
 62
     7
100
AcDbCircle
 10
38.16728925
 20
97.0806075
 30
0.0
 40
2.0
  0
CIRCLE
  5
16E
330
1F
100
AcDbEntity
  8
0
  6
CONTINUOUS
 62
     7
100
AcDbCircle
 10
31.66728925
 20
97.0806075
 30
0.0
 40
1.999999999999996
  0
CIRCLE
  5
16F
330
1F
100
AcDbEntity
  8
0
  6
CONTINUOUS
 62
     7
100
AcDbCircle
 10
25.16728925
 20
97.0806075
 30
0.0
 40
2.0
  0
CIRCLE
  5
170
330
1F
100
AcDbEntity
  8
0
  6
CONTINUOUS
 62
     7
100
AcDbCircle
 10
18.66728925
 20
97.0806075
 30
0.0
 40
2.0
  0
CIRCLE
  5
171
330
1F
100
AcDbEntity
  8
0
  6
CONTINUOUS
 62
     7
100
AcDbCircle
 10
12.16728925
 20
97.0806075
 30
0.0
 40
1.999999999999996
  0
CIRCLE
  5
172
330
1F
100
AcDbEntity
  8
0
  6
CONTINUOUS
 62
     7
100
AcDbCircle
 10
83.66728925
 20
90.5806075
 30
0.0
 40
2.000000000000014
  0
CIRCLE
  5
173
330
1F
100
AcDbEntity
  8
0
  6
CONTINUOUS
 62
     7
100
AcDbCircle
 10
77.16728925
 20
90.5806075
 30
0.0
 40
2.000000000000014
  0
CIRCLE
  5
174
330
1F
100
AcDbEntity
  8
0
  6
CONTINUOUS
 62
     7
100
AcDbCircle
 10
70.66728925
 20
90.5806075
 30
0.0
 40
2.000000000000014
  0
CIRCLE
  5
175
330
1F
100
AcDbEntity
  8
0
  6
CONTINUOUS
 62
     7
100
AcDbCircle
 10
64.16728925
 20
90.5806075
 30
0.0
 40
1.999999999999964
  0
CIRCLE
  5
176
330
1F
100
AcDbEntity
  8
0
  6
CONTINUOUS
 62
     7
100
AcDbCircle
 10
57.66728925
 20
90.5806075
 30
0.0
 40
1.999999999999964
  0
CIRCLE
  5
177
330
1F
100
AcDbEntity
  8
0
  6
CONTINUOUS
 62
     7
100
AcDbCircle
 10
51.16728925
 20
90.5806075
 30
0.0
 40
1.999999999999964
  0
CIRCLE
  5
178
330
1F
100
AcDbEntity
  8
0
  6
CONTINUOUS
 62
     7
100
AcDbCircle
 10
44.66728925
 20
90.5806075
 30
0.0
 40
1.999999999999964
  0
CIRCLE
  5
179
330
1F
100
AcDbEntity
  8
0
  6
CONTINUOUS
 62
     7
100
AcDbCircle
 10
38.16728925
 20
90.5806075
 30
0.0
 40
1.999999999999972
  0
CIRCLE
  5
17A
330
1F
100
AcDbEntity
  8
0
  6
CONTINUOUS
 62
     7
100
AcDbCircle
 10
31.66728925
 20
90.5806075
 30
0.0
 40
1.999999999999982
  0
CIRCLE
  5
17B
330
1F
100
AcDbEntity
  8
0
  6
CONTINUOUS
 62
     7
100
AcDbCircle
 10
25.16728925
 20
90.5806075
 30
0.0
 40
1.999999999999979
  0
CIRCLE
  5
17C
330
1F
100
AcDbEntity
  8
0
  6
CONTINUOUS
 62
     7
100
AcDbCircle
 10
18.66728925
 20
90.5806075
 30
0.0
 40
1.999999999999975
  0
CIRCLE
  5
17D
330
1F
100
AcDbEntity
  8
0
  6
CONTINUOUS
 62
     7
100
AcDbCircle
 10
12.16728925
 20
90.5806075
 30
0.0
 40
1.999999999999975
  0
CIRCLE
  5
17E
330
1F
100
AcDbEntity
  8
0
  6
CONTINUOUS
 62
     7
100
AcDbCircle
 10
83.66728925
 20
84.0806075
 30
0.0
 40
1.999999999999986
  0
CIRCLE
  5
17F
330
1F
100
AcDbEntity
  8
0
  6
CONTINUOUS
 62
     7
100
AcDbCircle
 10
77.16728925
 20
84.0806075
 30
0.0
 40
1.999999999999986
  0
CIRCLE
  5
180
330
1F
100
AcDbEntity
  8
0
  6
CONTINUOUS
 62
     7
100
AcDbCircle
 10
70.66728925
 20
84.0806075
 30
0.0
 40
1.999999999999986
  0
CIRCLE
  5
181
330
1F
100
AcDbEntity
  8
0
  6
CONTINUOUS
 62
     7
100
AcDbCircle
 10
64.16728925
 20
84.0806075
 30
0.0
 40
2.0
  0
CIRCLE
  5
182
330
1F
100
AcDbEntity
  8
0
  6
CONTINUOUS
 62
     7
100
AcDbCircle
 10
57.66728925
 20
84.0806075
 30
0.0
 40
2.0
  0
CIRCLE
  5
183
330
1F
100
AcDbEntity
  8
0
  6
CONTINUOUS
 62
     7
100
AcDbCircle
 10
51.16728925
 20
84.0806075
 30
0.0
 40
2.0
  0
CIRCLE
  5
184
330
1F
100
AcDbEntity
  8
0
  6
CONTINUOUS
 62
     7
100
AcDbCircle
 10
44.66728925
 20
84.0806075
 30
0.0
 40
2.0
  0
CIRCLE
  5
185
330
1F
100
AcDbEntity
  8
0
  6
CONTINUOUS
 62
     7
100
AcDbCircle
 10
38.16728925
 20
84.0806075
 30
0.0
 40
2.0
  0
CIRCLE
  5
186
330
1F
100
AcDbEntity
  8
0
  6
CONTINUOUS
 62
     7
100
AcDbCircle
 10
31.66728925
 20
84.0806075
 30
0.0
 40
2.0
  0
CIRCLE
  5
187
330
1F
100
AcDbEntity
  8
0
  6
CONTINUOUS
 62
     7
100
AcDbCircle
 10
25.16728925
 20
84.0806075
 30
0.0
 40
2.0
  0
CIRCLE
  5
188
330
1F
100
AcDbEntity
  8
0
  6
CONTINUOUS
 62
     7
100
AcDbCircle
 10
18.66728925
 20
84.0806075
 30
0.0
 40
2.0
  0
CIRCLE
  5
189
330
1F
100
AcDbEntity
  8
0
  6
CONTINUOUS
 62
     7
100
AcDbCircle
 10
12.16728925
 20
84.0806075
 30
0.0
 40
1.999999999999998
  0
CIRCLE
  5
18A
330
1F
100
AcDbEntity
  8
0
  6
CONTINUOUS
 62
     7
100
AcDbCircle
 10
83.66728925
 20
77.5806075
 30
0.0
 40
2.000000000000028
  0
CIRCLE
  5
18B
330
1F
100
AcDbEntity
  8
0
  6
CONTINUOUS
 62
     7
100
AcDbCircle
 10
77.16728925
 20
77.5806075
 30
0.0
 40
2.000000000000014
  0
CIRCLE
  5
18C
330
1F
100
AcDbEntity
  8
0
  6
CONTINUOUS
 62
     7
100
AcDbCircle
 10
70.66728925
 20
77.5806075
 30
0.0
 40
2.000000000000014
  0
CIRCLE
  5
18D
330
1F
100
AcDbEntity
  8
0
  6
CONTINUOUS
 62
     7
100
AcDbCircle
 10
64.16728925
 20
77.5806075
 30
0.0
 40
1.999999999999972
  0
CIRCLE
  5
18E
330
1F
100
AcDbEntity
  8
0
  6
CONTINUOUS
 62
     7
100
AcDbCircle
 10
57.66728925
 20
77.5806075
 30
0.0
 40
1.999999999999979
  0
CIRCLE
  5
18F
330
1F
100
AcDbEntity
  8
0
  6
CONTINUOUS
 62
     7
100
AcDbCircle
 10
51.16728925
 20
77.5806075
 30
0.0
 40
1.999999999999979
  0
CIRCLE
  5
190
330
1F
100
AcDbEntity
  8
0
  6
CONTINUOUS
 62
     7
100
AcDbCircle
 10
44.66728925
 20
77.5806075
 30
0.0
 40
1.999999999999979
  0
CIRCLE
  5
191
330
1F
100
AcDbEntity
  8
0
  6
CONTINUOUS
 62
     7
100
AcDbCircle
 10
38.16728925
 20
77.5806075
 30
0.0
 40
1.999999999999986
  0
CIRCLE
  5
192
330
1F
100
AcDbEntity
  8
0
  6
CONTINUOUS
 62
     7
100
AcDbCircle
 10
31.66728925
 20
77.5806075
 30
0.0
 40
1.999999999999972
  0
CIRCLE
  5
193
330
1F
100
AcDbEntity
  8
0
  6
CONTINUOUS
 62
     7
100
AcDbCircle
 10
25.16728925
 20
77.5806075
 30
0.0
 40
1.999999999999975
  0
CIRCLE
  5
194
330
1F
100
AcDbEntity
  8
0
  6
CONTINUOUS
 62
     7
100
AcDbCircle
 10
18.66728925
 20
77.5806075
 30
0.0
 40
1.999999999999975
  0
CIRCLE
  5
195
330
1F
100
AcDbEntity
  8
0
  6
CONTINUOUS
 62
     7
100
AcDbCircle
 10
12.16728925
 20
77.5806075
 30
0.0
 40
1.999999999999975
  0
CIRCLE
  5
196
330
1F
100
AcDbEntity
  8
0
  6
CONTINUOUS
 62
     7
100
AcDbCircle
 10
83.66728925
 20
71.0806075
 30
0.0
 40
2.0
  0
CIRCLE
  5
197
330
1F
100
AcDbEntity
  8
0
  6
CONTINUOUS
 62
     7
100
AcDbCircle
 10
77.16728925
 20
71.0806075
 30
0.0
 40
2.0
  0
CIRCLE
  5
198
330
1F
100
AcDbEntity
  8
0
  6
CONTINUOUS
 62
     7
100
AcDbCircle
 10
70.66728925
 20
71.0806075
 30
0.0
 40
2.0
  0
CIRCLE
  5
199
330
1F
100
AcDbEntity
  8
0
  6
CONTINUOUS
 62
     7
100
AcDbCircle
 10
64.16728925
 20
71.0806075
 30
0.0
 40
2.0
  0
CIRCLE
  5
19A
330
1F
100
AcDbEntity
  8
0
  6
CONTINUOUS
 62
     7
100
AcDbCircle
 10
57.66728925
 20
71.0806075
 30
0.0
 40
2.0
  0
CIRCLE
  5
19B
330
1F
100
AcDbEntity
  8
0
  6
CONTINUOUS
 62
     7
100
AcDbCircle
 10
51.16728925
 20
71.0806075
 30
0.0
 40
2.0
  0
CIRCLE
  5
19C
330
1F
100
AcDbEntity
  8
0
  6
CONTINUOUS
 62
     7
100
AcDbCircle
 10
44.66728925
 20
71.0806075
 30
0.0
 40
1.999999999999993
  0
CIRCLE
  5
19D
330
1F
100
AcDbEntity
  8
0
  6
CONTINUOUS
 62
     7
100
AcDbCircle
 10
38.16728925
 20
71.0806075
 30
0.0
 40
2.0
  0
CIRCLE
  5
19E
330
1F
100
AcDbEntity
  8
0
  6
CONTINUOUS
 62
     7
100
AcDbCircle
 10
31.66728925
 20
71.0806075
 30
0.0
 40
2.000000000000004
  0
CIRCLE
  5
19F
330
1F
100
AcDbEntity
  8
0
  6
CONTINUOUS
 62
     7
100
AcDbCircle
 10
25.16728925
 20
71.0806075
 30
0.0
 40
1.999999999999996
  0
CIRCLE
  5
1A0
330
1F
100
AcDbEntity
  8
0
  6
CONTINUOUS
 62
     7
100
AcDbCircle
 10
18.66728925
 20
71.0806075
 30
0.0
 40
2.0
  0
CIRCLE
  5
1A1
330
1F
100
AcDbEntity
  8
0
  6
CONTINUOUS
 62
     7
100
AcDbCircle
 10
12.16728925
 20
71.0806075
 30
0.0
 40
1.999999999999998
  0
CIRCLE
  5
1A2
330
1F
100
AcDbEntity
  8
0
  6
CONTINUOUS
 62
     7
100
AcDbCircle
 10
83.66728925
 20
64.5806075
 30
0.0
 40
2.000000000000014
  0
CIRCLE
  5
1A3
330
1F
100
AcDbEntity
  8
0
  6
CONTINUOUS
 62
     7
100
AcDbCircle
 10
77.16728925
 20
64.5806075
 30
0.0
 40
2.000000000000014
  0
CIRCLE
  5
1A4
330
1F
100
AcDbEntity
  8
0
  6
CONTINUOUS
 62
     7
100
AcDbCircle
 10
70.66728925
 20
64.5806075
 30
0.0
 40
2.000000000000014
  0
CIRCLE
  5
1A5
330
1F
100
AcDbEntity
  8
0
  6
CONTINUOUS
 62
     7
100
AcDbCircle
 10
64.16728925
 20
64.5806075
 30
0.0
 40
2.0
  0
CIRCLE
  5
1A6
330
1F
100
AcDbEntity
  8
0
  6
CONTINUOUS
 62
     7
100
AcDbCircle
 10
57.66728925
 20
64.5806075
 30
0.0
 40
1.999999999999993
  0
CIRCLE
  5
1A7
330
1F
100
AcDbEntity
  8
0
  6
CONTINUOUS
 62
     7
100
AcDbCircle
 10
51.16728925
 20
64.5806075
 30
0.0
 40
1.999999999999986
  0
CIRCLE
  5
1A8
330
1F
100
AcDbEntity
  8
0
  6
CONTINUOUS
 62
     7
100
AcDbCircle
 10
44.66728925
 20
64.5806075
 30
0.0
 40
1.999999999999986
  0
CIRCLE
  5
1A9
330
1F
100
AcDbEntity
  8
0
  6
CONTINUOUS
 62
     7
100
AcDbCircle
 10
38.16728925
 20
64.5806075
 30
0.0
 40
1.999999999999993
  0
CIRCLE
  5
1AA
330
1F
100
AcDbEntity
  8
0
  6
CONTINUOUS
 62
     7
100
AcDbCircle
 10
31.66728925
 20
64.5806075
 30
0.0
 40
1.999999999999996
  0
CIRCLE
  5
1AB
330
1F
100
AcDbEntity
  8
0
  6
CONTINUOUS
 62
     7
100
AcDbCircle
 10
25.16728925
 20
64.5806075
 30
0.0
 40
1.999999999999993
  0
CIRCLE
  5
1AC
330
1F
100
AcDbEntity
  8
0
  6
CONTINUOUS
 62
     7
100
AcDbCircle
 10
18.66728925
 20
64.5806075
 30
0.0
 40
1.999999999999996
  0
CIRCLE
  5
1AD
330
1F
100
AcDbEntity
  8
0
  6
CONTINUOUS
 62
     7
100
AcDbCircle
 10
12.16728925
 20
64.5806075
 30
0.0
 40
1.999999999999998
  0
CIRCLE
  5
1AE
330
1F
100
AcDbEntity
  8
0
  6
CONTINUOUS
 62
     7
100
AcDbCircle
 10
83.66728925
 20
58.0806075
 30
0.0
 40
1.999999999999986
  0
CIRCLE
  5
1AF
330
1F
100
AcDbEntity
  8
0
  6
CONTINUOUS
 62
     7
100
AcDbCircle
 10
77.16728925
 20
58.0806075
 30
0.0
 40
2.0
  0
CIRCLE
  5
1B0
330
1F
100
AcDbEntity
  8
0
  6
CONTINUOUS
 62
     7
100
AcDbCircle
 10
70.66728925
 20
58.0806075
 30
0.0
 40
1.999999999999986
  0
CIRCLE
  5
1B1
330
1F
100
AcDbEntity
  8
0
  6
CONTINUOUS
 62
     7
100
AcDbCircle
 10
64.16728925
 20
58.0806075
 30
0.0
 40
2.000000000000007
  0
CIRCLE
  5
1B2
330
1F
100
AcDbEntity
  8
0
  6
CONTINUOUS
 62
     7
100
AcDbCircle
 10
57.66728925
 20
58.0806075
 30
0.0
 40
2.0
  0
CIRCLE
  5
1B3
330
1F
100
AcDbEntity
  8
0
  6
CONTINUOUS
 62
     7
100
AcDbCircle
 10
51.16728925
 20
58.0806075
 30
0.0
 40
2.0
  0
CIRCLE
  5
1B4
330
1F
100
AcDbEntity
  8
0
  6
CONTINUOUS
 62
     7
100
AcDbCircle
 10
44.66728925
 20
58.0806075
 30
0.0
 40
2.0
  0
CIRCLE
  5
1B5
330
1F
100
AcDbEntity
  8
0
  6
CONTINUOUS
 62
     7
100
AcDbCircle
 10
38.16728925
 20
58.0806075
 30
0.0
 40
2.0
  0
CIRCLE
  5
1B6
330
1F
100
AcDbEntity
  8
0
  6
CONTINUOUS
 62
     7
100
AcDbCircle
 10
31.66728925
 20
58.0806075
 30
0.0
 40
2.000000000000004
  0
CIRCLE
  5
1B7
330
1F
100
AcDbEntity
  8
0
  6
CONTINUOUS
 62
     7
100
AcDbCircle
 10
25.16728925
 20
58.0806075
 30
0.0
 40
2.000000000000004
  0
CIRCLE
  5
1B8
330
1F
100
AcDbEntity
  8
0
  6
CONTINUOUS
 62
     7
100
AcDbCircle
 10
18.66728925
 20
58.0806075
 30
0.0
 40
2.0
  0
CIRCLE
  5
1B9
330
1F
100
AcDbEntity
  8
0
  6
CONTINUOUS
 62
     7
100
AcDbCircle
 10
12.16728925
 20
58.0806075
 30
0.0
 40
1.999999999999993
  0
CIRCLE
  5
1BA
330
1F
100
AcDbEntity
  8
0
  6
CONTINUOUS
 62
     7
100
AcDbCircle
 10
83.66728925
 20
51.5806075
 30
0.0
 40
2.0
  0
CIRCLE
  5
1BB
330
1F
100
AcDbEntity
  8
0
  6
CONTINUOUS
 62
     7
100
AcDbCircle
 10
77.16728925
 20
51.5806075
 30
0.0
 40
2.000000000000014
  0
CIRCLE
  5
1BC
330
1F
100
AcDbEntity
  8
0
  6
CONTINUOUS
 62
     7
100
AcDbCircle
 10
70.66728925
 20
51.5806075
 30
0.0
 40
2.0
  0
CIRCLE
  5
1BD
330
1F
100
AcDbEntity
  8
0
  6
CONTINUOUS
 62
     7
100
AcDbCircle
 10
64.16728925
 20
51.5806075
 30
0.0
 40
2.0
  0
CIRCLE
  5
1BE
330
1F
100
AcDbEntity
  8
0
  6
CONTINUOUS
 62
     7
100
AcDbCircle
 10
57.66728925
 20
51.5806075
 30
0.0
 40
2.0
  0
CIRCLE
  5
1BF
330
1F
100
AcDbEntity
  8
0
  6
CONTINUOUS
 62
     7
100
AcDbCircle
 10
51.16728925
 20
51.5806075
 30
0.0
 40
2.0
  0
CIRCLE
  5
1C0
330
1F
100
AcDbEntity
  8
0
  6
CONTINUOUS
 62
     7
100
AcDbCircle
 10
44.66728925
 20
51.5806075
 30
0.0
 40
2.0
  0
CIRCLE
  5
1C1
330
1F
100
AcDbEntity
  8
0
  6
CONTINUOUS
 62
     7
100
AcDbCircle
 10
38.16728925
 20
51.5806075
 30
0.0
 40
2.0
  0
CIRCLE
  5
1C2
330
1F
100
AcDbEntity
  8
0
  6
CONTINUOUS
 62
     7
100
AcDbCircle
 10
31.66728925
 20
51.5806075
 30
0.0
 40
2.0
  0
CIRCLE
  5
1C3
330
1F
100
AcDbEntity
  8
0
  6
CONTINUOUS
 62
     7
100
AcDbCircle
 10
25.16728925
 20
51.5806075
 30
0.0
 40
2.000000000000004
  0
CIRCLE
  5
1C4
330
1F
100
AcDbEntity
  8
0
  6
CONTINUOUS
 62
     7
100
AcDbCircle
 10
18.66728925
 20
51.5806075
 30
0.0
 40
1.999999999999996
  0
CIRCLE
  5
1C5
330
1F
100
AcDbEntity
  8
0
  6
CONTINUOUS
 62
     7
100
AcDbCircle
 10
12.16728925
 20
51.5806075
 30
0.0
 40
1.999999999999986
  0
CIRCLE
  5
1C6
330
1F
100
AcDbEntity
  8
0
  6
CONTINUOUS
 62
     7
100
AcDbCircle
 10
90.16728925
 20
162.0806075
 30
0.0
 40
2.0
  0
CIRCLE
  5
1C7
330
1F
100
AcDbEntity
  8
0
  6
CONTINUOUS
 62
     7
100
AcDbCircle
 10
90.16728925
 20
155.5806075
 30
0.0
 40
2.000000000000043
  0
CIRCLE
  5
1C8
330
1F
100
AcDbEntity
  8
0
  6
CONTINUOUS
 62
     7
100
AcDbCircle
 10
90.16728925
 20
149.0806075
 30
0.0
 40
1.999999999999972
  0
CIRCLE
  5
1C9
330
1F
100
AcDbEntity
  8
0
  6
CONTINUOUS
 62
     7
100
AcDbCircle
 10
90.16728925
 20
142.5806075
 30
0.0
 40
1.999999999999957
  0
CIRCLE
  5
1CA
330
1F
100
AcDbEntity
  8
0
  6
CONTINUOUS
 62
     7
100
AcDbCircle
 10
90.16728925
 20
136.0806075
 30
0.0
 40
1.999999999999957
  0
CIRCLE
  5
1CB
330
1F
100
AcDbEntity
  8
0
  6
CONTINUOUS
 62
     7
100
AcDbCircle
 10
90.16728925
 20
129.5806075
 30
0.0
 40
2.0
  0
CIRCLE
  5
1CC
330
1F
100
AcDbEntity
  8
0
  6
CONTINUOUS
 62
     7
100
AcDbCircle
 10
90.16728925
 20
123.0806075
 30
0.0
 40
2.000000000000014
  0
CIRCLE
  5
1CD
330
1F
100
AcDbEntity
  8
0
  6
CONTINUOUS
 62
     7
100
AcDbCircle
 10
90.16728925
 20
116.5806075
 30
0.0
 40
2.0
  0
CIRCLE
  5
1CE
330
1F
100
AcDbEntity
  8
0
  6
CONTINUOUS
 62
     7
100
AcDbCircle
 10
90.16728925
 20
110.0806075
 30
0.0
 40
1.999999999999986
  0
CIRCLE
  5
1CF
330
1F
100
AcDbEntity
  8
0
  6
CONTINUOUS
 62
     7
100
AcDbCircle
 10
90.16728925
 20
103.5806075
 30
0.0
 40
2.000000000000014
  0
CIRCLE
  5
1D0
330
1F
100
AcDbEntity
  8
0
  6
CONTINUOUS
 62
     7
100
AcDbCircle
 10
90.16728925
 20
97.0806075
 30
0.0
 40
2.0
  0
CIRCLE
  5
1D1
330
1F
100
AcDbEntity
  8
0
  6
CONTINUOUS
 62
     7
100
AcDbCircle
 10
90.16728925
 20
90.5806075
 30
0.0
 40
2.000000000000014
  0
CIRCLE
  5
1D2
330
1F
100
AcDbEntity
  8
0
  6
CONTINUOUS
 62
     7
100
AcDbCircle
 10
90.16728925
 20
84.0806075
 30
0.0
 40
1.999999999999986
  0
CIRCLE
  5
1D3
330
1F
100
AcDbEntity
  8
0
  6
CONTINUOUS
 62
     7
100
AcDbCircle
 10
90.16728925
 20
77.5806075
 30
0.0
 40
2.000000000000014
  0
CIRCLE
  5
1D4
330
1F
100
AcDbEntity
  8
0
  6
CONTINUOUS
 62
     7
100
AcDbCircle
 10
90.16728925
 20
71.0806075
 30
0.0
 40
2.0
  0
CIRCLE
  5
1D5
330
1F
100
AcDbEntity
  8
0
  6
CONTINUOUS
 62
     7
100
AcDbCircle
 10
90.16728925
 20
64.5806075
 30
0.0
 40
2.000000000000014
  0
CIRCLE
  5
1D6
330
1F
100
AcDbEntity
  8
0
  6
CONTINUOUS
 62
     7
100
AcDbCircle
 10
90.16728925
 20
58.0806075
 30
0.0
 40
1.999999999999986
  0
CIRCLE
  5
1D7
330
1F
100
AcDbEntity
  8
0
  6
CONTINUOUS
 62
     7
100
AcDbCircle
 10
90.16728925
 20
51.5806075
 30
0.0
 40
2.000000000000014
  0
LINE
  5
1EE
330
1F
100
AcDbEntity
  8
0
  6
CONTINUOUS
 62
     7
100
AcDbLine
 10
56.86728925
 20
11.0673333059
 30
0.0
 11
56.86728925
 21
8.0673333059
 31
0.0
  0
LINE
  5
1EF
330
1F
100
AcDbEntity
  8
0
  6
CONTINUOUS
 62
     7
100
AcDbLine
 10
76.66728925
 20
10.0673333059
 30
0.0
 11
76.66728925
 21
8.0673333059
 31
0.0
  0
LINE
  5
1F0
330
1F
100
AcDbEntity
  8
0
  6
CONTINUOUS
 62
     7
100
AcDbLine
 10
61.66728925
 20
10.0673333059
 30
0.0
 11
76.66728925
 21
10.0673333059
 31
0.0
  0
LINE
  5
1F1
330
1F
100
AcDbEntity
  8
0
  6
CONTINUOUS
 62
     7
100
AcDbLine
 10
61.66728925
 20
8.0673333059
 30
0.0
 11
61.66728925
 21
10.0673333059
 31
0.0
  0
LINE
  5
1F2
330
1F
100
AcDbEntity
  8
0
  6
CONTINUOUS
 62
     7
100
AcDbLine
 10
105.68728925
 20
151.68105
 30
0.0
 11
106.16728925
 21
151.80105
 31
0.0
  0
LINE
  5
1F3
330
1F
100
AcDbEntity
  8
0
  6
CONTINUOUS
 62
     7
100
AcDbLine
 10
105.68728925
 20
151.68105
 30
0.0
 11
105.56728925
 21
151.68105
 31
0.0
  0
LINE
  5
1F4
330
1F
100
AcDbEntity
  8
0
  6
CONTINUOUS
 62
     7
100
AcDbLine
 10
105.56728925
 20
151.68105
 30
0.0
 11
105.56728925
 21
148.08105
 31
0.0
  0
LINE
  5
1F5
330
1F
100
AcDbEntity
  8
0
  6
CONTINUOUS
 62
     7
100
AcDbLine
 10
105.56728925
 20
148.08105
 30
0.0
 11
105.68728925
 21
148.08105
 31
0.0
  0
LINE
  5
1F6
330
1F
100
AcDbEntity
  8
0
  6
CONTINUOUS
 62
     7
100
AcDbLine
 10
106.16728925
 20
147.96105
 30
0.0
 11
105.68728925
 21
148.08105
 31
0.0
  0
LINE
  5
1F7
330
1F
100
AcDbEntity
  8
0
  6
CONTINUOUS
 62
     7
100
AcDbLine
 10
106.16728925
 20
140.20105
 30
0.0
 11
106.16728925
 21
147.96105
 31
0.0
  0
LINE
  5
1F8
330
1F
100
AcDbEntity
  8
0
  6
CONTINUOUS
 62
     7
100
AcDbLine
 10
105.68728925
 20
140.08105
 30
0.0
 11
106.16728925
 21
140.20105
 31
0.0
  0
LINE
  5
1F9
330
1F
100
AcDbEntity
  8
0
  6
CONTINUOUS
 62
     7
100
AcDbLine
 10
105.68728925
 20
140.08105
 30
0.0
 11
105.56728925
 21
140.08105
 31
0.0
  0
LINE
  5
1FA
330
1F
100
AcDbEntity
  8
0
  6
CONTINUOUS
 62
     7
100
AcDbLine
 10
105.56728925
 20
140.08105
 30
0.0
 11
105.56728925
 21
136.48105
 31
0.0
  0
LINE
  5
1FB
330
1F
100
AcDbEntity
  8
0
  6
CONTINUOUS
 62
     7
100
AcDbLine
 10
105.56728925
 20
136.48105
 30
0.0
 11
105.68728925
 21
136.48105
 31
0.0
  0
LINE
  5
1FC
330
1F
100
AcDbEntity
  8
0
  6
CONTINUOUS
 62
     7
100
AcDbLine
 10
106.16728925
 20
136.36105
 30
0.0
 11
105.68728925
 21
136.48105
 31
0.0
  0
LINE
  5
1FD
330
1F
100
AcDbEntity
  8
0
  6
CONTINUOUS
 62
     7
100
AcDbLine
 10
106.16728925
 20
70.80105
 30
0.0
 11
106.16728925
 21
136.36105
 31
0.0
  0
LINE
  5
1FE
330
1F
100
AcDbEntity
  8
0
  6
CONTINUOUS
 62
     7
100
AcDbLine
 10
105.68728925
 20
70.68105
 30
0.0
 11
106.16728925
 21
70.80105
 31
0.0
  0
LINE
  5
1FF
330
1F
100
AcDbEntity
  8
0
  6
CONTINUOUS
 62
     7
100
AcDbLine
 10
105.68728925
 20
70.68105
 30
0.0
 11
105.56728925
 21
70.68105
 31
0.0
  0
LINE
  5
200
330
1F
100
AcDbEntity
  8
0
  6
CONTINUOUS
 62
     7
100
AcDbLine
 10
105.56728925
 20
70.68105
 30
0.0
 11
105.56728925
 21
67.08105
 31
0.0
  0
LINE
  5
201
330
1F
100
AcDbEntity
  8
0
  6
CONTINUOUS
 62
     7
100
AcDbLine
 10
105.56728925
 20
67.08105
 30
0.0
 11
105.68728925
 21
67.08105
 31
0.0
  0
LINE
  5
202
330
1F
100
AcDbEntity
  8
0
  6
CONTINUOUS
 62
     7
100
AcDbLine
 10
106.16728925
 20
66.96105
 30
0.0
 11
105.68728925
 21
67.08105
 31
0.0
  0
LINE
  5
203
330
1F
100
AcDbEntity
  8
0
  6
CONTINUOUS
 62
     7
100
AcDbLine
 10
106.16728925
 20
59.20105
 30
0.0
 11
106.16728925
 21
66.96105
 31
0.0
  0
LINE
  5
204
330
1F
100
AcDbEntity
  8
0
  6
CONTINUOUS
 62
     7
100
AcDbLine
 10
105.68728925
 20
59.08105
 30
0.0
 11
106.16728925
 21
59.20105
 31
0.0
  0
LINE
  5
205
330
1F
100
AcDbEntity
  8
0
  6
CONTINUOUS
 62
     7
100
AcDbLine
 10
105.68728925
 20
59.08105
 30
0.0
 11
105.56728925
 21
59.08105
 31
0.0
  0
LINE
  5
206
330
1F
100
AcDbEntity
  8
0
  6
CONTINUOUS
 62
     7
100
AcDbLine
 10
105.56728925
 20
59.08105
 30
0.0
 11
105.56728925
 21
55.48105
 31
0.0
  0
LINE
  5
207
330
1F
100
AcDbEntity
  8
0
  6
CONTINUOUS
 62
     7
100
AcDbLine
 10
105.56728925
 20
55.48105
 30
0.0
 11
105.68728925
 21
55.48105
 31
0.0
  0
LINE
  5
208
330
1F
100
AcDbEntity
  8
0
  6
CONTINUOUS
 62
     7
100
AcDbLine
 10
106.16728925
 20
55.36105
 30
0.0
 11
105.68728925
 21
55.48105
 31
0.0
  0
LINE
  5
209
330
1F
100
AcDbEntity
  8
0
  6
CONTINUOUS
 62
     7
100
AcDbLine
 10
91.16728925
 20
-0.5326666941
 30
0.0
 11
98.5213028339
 21
-0.5326666941
 31
0.0
  0
LINE
  5
20A
330
1F
100
AcDbEntity
  8
0
  6
CONTINUOUS
 62
     7
100
AcDbLine
 10
91.16728925
 20
1.9673333059
 30
0.0
 11
91.16728925
 21
-0.5326666941
 31
0.0
  0
LINE
  5
20B
330
1F
100
AcDbEntity
  8
0
  6
CONTINUOUS
 62
     7
100
AcDbLine
 10
1.167188
 20
1.9673333059
 30
0.0
 11
1.167188
 21
-0.5326666941
 31
0.0
  0
LINE
  5
20C
330
1F
100
AcDbEntity
  8
0
  6
CONTINUOUS
 62
     7
100
AcDbLine
 10
1.167188
 20
1.9673333059
 30
0.0
 11
-5.832812
 21
1.9673333059
 31
0.0
  0
LINE
  5
20D
330
1F
100
AcDbEntity
  8
0
  6
CONTINUOUS
 62
     7
100
AcDbLine
 10
-5.352812
 20
55.48105
 30
0.0
 11
-5.832812
 21
55.36105
 31
0.0
  0
LINE
  5
20E
330
1F
100
AcDbEntity
  8
0
  6
CONTINUOUS
 62
     7
100
AcDbLine
 10
-5.352812
 20
55.48105
 30
0.0
 11
-5.232812
 21
55.48105
 31
0.0
  0
LINE
  5
20F
330
1F
100
AcDbEntity
  8
0
  6
CONTINUOUS
 62
     7
100
AcDbLine
 10
-5.232812
 20
55.48105
 30
0.0
 11
-5.232812
 21
59.08105
 31
0.0
  0
LINE
  5
210
330
1F
100
AcDbEntity
  8
0
  6
CONTINUOUS
 62
     7
100
AcDbLine
 10
-5.232812
 20
59.08105
 30
0.0
 11
-5.352812
 21
59.08105
 31
0.0
  0
LINE
  5
211
330
1F
100
AcDbEntity
  8
0
  6
CONTINUOUS
 62
     7
100
AcDbLine
 10
-5.832812
 20
59.20105
 30
0.0
 11
-5.352812
 21
59.08105
 31
0.0
  0
LINE
  5
212
330
1F
100
AcDbEntity
  8
0
  6
CONTINUOUS
 62
     7
100
AcDbLine
 10
-5.832812
 20
66.96105
 30
0.0
 11
-5.832812
 21
59.20105
 31
0.0
  0
LINE
  5
213
330
1F
100
AcDbEntity
  8
0
  6
CONTINUOUS
 62
     7
100
AcDbLine
 10
-5.352812
 20
67.08105
 30
0.0
 11
-5.832812
 21
66.96105
 31
0.0
  0
LINE
  5
214
330
1F
100
AcDbEntity
  8
0
  6
CONTINUOUS
 62
     7
100
AcDbLine
 10
-5.352812
 20
67.08105
 30
0.0
 11
-5.232812
 21
67.08105
 31
0.0
  0
LINE
  5
215
330
1F
100
AcDbEntity
  8
0
  6
CONTINUOUS
 62
     7
100
AcDbLine
 10
-5.232812
 20
67.08105
 30
0.0
 11
-5.232812
 21
70.68105
 31
0.0
  0
LINE
  5
216
330
1F
100
AcDbEntity
  8
0
  6
CONTINUOUS
 62
     7
100
AcDbLine
 10
-5.232812
 20
70.68105
 30
0.0
 11
-5.832812
 21
70.68105
 31
0.0
  0
LINE
  5
217
330
1F
100
AcDbEntity
  8
0
  6
CONTINUOUS
 62
     7
100
AcDbLine
 10
-5.832812
 20
76.48105
 30
0.0
 11
-5.232812
 21
76.48105
 31
0.0
  0
LINE
  5
218
330
1F
100
AcDbEntity
  8
0
  6
CONTINUOUS
 62
     7
100
AcDbLine
 10
-5.232812
 20
76.48105
 30
0.0
 11
-5.232812
 21
79.48105
 31
0.0
  0
LINE
  5
219
330
1F
100
AcDbEntity
  8
0
  6
CONTINUOUS
 62
     7
100
AcDbLine
 10
-5.232812
 20
79.48105
 30
0.0
 11
-5.352812
 21
79.48105
 31
0.0
  0
LINE
  5
21A
330
1F
100
AcDbEntity
  8
0
  6
CONTINUOUS
 62
     7
100
AcDbLine
 10
-5.832812
 20
79.60105
 30
0.0
 11
-5.352812
 21
79.48105
 31
0.0
  0
LINE
  5
21B
330
1F
100
AcDbEntity
  8
0
  6
CONTINUOUS
 62
     7
100
AcDbLine
 10
-5.832812
 20
87.56105
 30
0.0
 11
-5.832812
 21
79.60105
 31
0.0
  0
LINE
  5
21C
330
1F
100
AcDbEntity
  8
0
  6
CONTINUOUS
 62
     7
100
AcDbLine
 10
-5.352812
 20
87.68105
 30
0.0
 11
-5.832812
 21
87.56105
 31
0.0
  0
LINE
  5
21D
330
1F
100
AcDbEntity
  8
0
  6
CONTINUOUS
 62
     7
100
AcDbLine
 10
-5.352812
 20
87.68105
 30
0.0
 11
-5.232812
 21
87.68105
 31
0.0
  0
LINE
  5
21E
330
1F
100
AcDbEntity
  8
0
  6
CONTINUOUS
 62
     7
100
AcDbLine
 10
-5.232812
 20
87.68105
 30
0.0
 11
-5.232812
 21
90.68105
 31
0.0
  0
LINE
  5
21F
330
1F
100
AcDbEntity
  8
0
  6
CONTINUOUS
 62
     7
100
AcDbLine
 10
-5.232812
 20
90.68105
 30
0.0
 11
-5.832812
 21
90.68105
 31
0.0
  0
LINE
  5
220
330
1F
100
AcDbEntity
  8
0
  6
CONTINUOUS
 62
     7
100
AcDbLine
 10
-5.832812
 20
96.48105
 30
0.0
 11
-5.232812
 21
96.48105
 31
0.0
  0
LINE
  5
221
330
1F
100
AcDbEntity
  8
0
  6
CONTINUOUS
 62
     7
100
AcDbLine
 10
-5.232812
 20
96.48105
 30
0.0
 11
-5.232812
 21
99.48105
 31
0.0
  0
LINE
  5
222
330
1F
100
AcDbEntity
  8
0
  6
CONTINUOUS
 62
     7
100
AcDbLine
 10
-5.232812
 20
99.48105
 30
0.0
 11
-5.352812
 21
99.48105
 31
0.0
  0
LINE
  5
223
330
1F
100
AcDbEntity
  8
0
  6
CONTINUOUS
 62
     7
100
AcDbLine
 10
-5.832812
 20
99.60105
 30
0.0
 11
-5.352812
 21
99.48105
 31
0.0
  0
LINE
  5
224
330
1F
100
AcDbEntity
  8
0
  6
CONTINUOUS
 62
     7
100
AcDbLine
 10
-5.832812
 20
107.56105
 30
0.0
 11
-5.832812
 21
99.60105
 31
0.0
  0
LINE
  5
225
330
1F
100
AcDbEntity
  8
0
  6
CONTINUOUS
 62
     7
100
AcDbLine
 10
-5.352812
 20
107.68105
 30
0.0
 11
-5.832812
 21
107.56105
 31
0.0
  0
LINE
  5
226
330
1F
100
AcDbEntity
  8
0
  6
CONTINUOUS
 62
     7
100
AcDbLine
 10
-5.352812
 20
107.68105
 30
0.0
 11
-5.232812
 21
107.68105
 31
0.0
  0
LINE
  5
227
330
1F
100
AcDbEntity
  8
0
  6
CONTINUOUS
 62
     7
100
AcDbLine
 10
-5.232812
 20
107.68105
 30
0.0
 11
-5.232812
 21
110.68105
 31
0.0
  0
LINE
  5
228
330
1F
100
AcDbEntity
  8
0
  6
CONTINUOUS
 62
     7
100
AcDbLine
 10
-5.232812
 20
110.68105
 30
0.0
 11
-5.832812
 21
110.68105
 31
0.0
  0
LINE
  5
229
330
1F
100
AcDbEntity
  8
0
  6
CONTINUOUS
 62
     7
100
AcDbLine
 10
-5.832812
 20
116.48105
 30
0.0
 11
-5.232812
 21
116.48105
 31
0.0
  0
LINE
  5
22A
330
1F
100
AcDbEntity
  8
0
  6
CONTINUOUS
 62
     7
100
AcDbLine
 10
-5.232812
 20
116.48105
 30
0.0
 11
-5.232812
 21
119.48105
 31
0.0
  0
LINE
  5
22B
330
1F
100
AcDbEntity
  8
0
  6
CONTINUOUS
 62
     7
100
AcDbLine
 10
-5.232812
 20
119.48105
 30
0.0
 11
-5.352812
 21
119.48105
 31
0.0
  0
LINE
  5
22C
330
1F
100
AcDbEntity
  8
0
  6
CONTINUOUS
 62
     7
100
AcDbLine
 10
-5.832812
 20
119.60105
 30
0.0
 11
-5.352812
 21
119.48105
 31
0.0
  0
LINE
  5
22D
330
1F
100
AcDbEntity
  8
0
  6
CONTINUOUS
 62
     7
100
AcDbLine
 10
-5.832812
 20
127.56105
 30
0.0
 11
-5.832812
 21
119.60105
 31
0.0
  0
LINE
  5
22E
330
1F
100
AcDbEntity
  8
0
  6
CONTINUOUS
 62
     7
100
AcDbLine
 10
-5.352812
 20
127.68105
 30
0.0
 11
-5.832812
 21
127.56105
 31
0.0
  0
LINE
  5
22F
330
1F
100
AcDbEntity
  8
0
  6
CONTINUOUS
 62
     7
100
AcDbLine
 10
-5.352812
 20
127.68105
 30
0.0
 11
-5.232812
 21
127.68105
 31
0.0
  0
LINE
  5
230
330
1F
100
AcDbEntity
  8
0
  6
CONTINUOUS
 62
     7
100
AcDbLine
 10
-5.232812
 20
127.68105
 30
0.0
 11
-5.232812
 21
130.68105
 31
0.0
  0
LINE
  5
231
330
1F
100
AcDbEntity
  8
0
  6
CONTINUOUS
 62
     7
100
AcDbLine
 10
-5.232812
 20
130.68105
 30
0.0
 11
-5.832812
 21
130.68105
 31
0.0
  0
LINE
  5
232
330
1F
100
AcDbEntity
  8
0
  6
CONTINUOUS
 62
     7
100
AcDbLine
 10
-5.832812
 20
136.48105
 30
0.0
 11
-5.232812
 21
136.48105
 31
0.0
  0
LINE
  5
233
330
1F
100
AcDbEntity
  8
0
  6
CONTINUOUS
 62
     7
100
AcDbLine
 10
-5.232812
 20
136.48105
 30
0.0
 11
-5.232812
 21
140.08105
 31
0.0
  0
LINE
  5
234
330
1F
100
AcDbEntity
  8
0
  6
CONTINUOUS
 62
     7
100
AcDbLine
 10
-5.232812
 20
140.08105
 30
0.0
 11
-5.352812
 21
140.08105
 31
0.0
  0
LINE
  5
235
330
1F
100
AcDbEntity
  8
0
  6
CONTINUOUS
 62
     7
100
AcDbLine
 10
-5.832812
 20
140.20105
 30
0.0
 11
-5.352812
 21
140.08105
 31
0.0
  0
LINE
  5
236
330
1F
100
AcDbEntity
  8
0
  6
CONTINUOUS
 62
     7
100
AcDbLine
 10
-5.832812
 20
147.96105
 30
0.0
 11
-5.832812
 21
140.20105
 31
0.0
  0
LINE
  5
237
330
1F
100
AcDbEntity
  8
0
  6
CONTINUOUS
 62
     7
100
AcDbLine
 10
-5.352812
 20
148.08105
 30
0.0
 11
-5.832812
 21
147.96105
 31
0.0
  0
LINE
  5
238
330
1F
100
AcDbEntity
  8
0
  6
CONTINUOUS
 62
     7
100
AcDbLine
 10
-5.352812
 20
148.08105
 30
0.0
 11
-5.232812
 21
148.08105
 31
0.0
  0
LINE
  5
239
330
1F
100
AcDbEntity
  8
0
  6
CONTINUOUS
 62
     7
100
AcDbLine
 10
-5.232812
 20
148.08105
 30
0.0
 11
-5.232812
 21
151.68105
 31
0.0
  0
LINE
  5
23A
330
1F
100
AcDbEntity
  8
0
  6
CONTINUOUS
 62
     7
100
AcDbLine
 10
-5.232812
 20
151.68105
 30
0.0
 11
-5.352812
 21
151.68105
 31
0.0
  0
LINE
  5
23B
330
1F
100
AcDbEntity
  8
0
  6
CONTINUOUS
 62
     7
100
AcDbLine
 10
-5.832812
 20
151.80105
 30
0.0
 11
-5.352812
 21
151.68105
 31
0.0
  0
LINE
  5
23C
330
1F
100
AcDbEntity
  8
0
  6
CONTINUOUS
 62
     7
100
AcDbLine
 10
-5.832812
 20
214.7943241941
 30
0.0
 11
-5.832812
 21
151.80105
 31
0.0
  0
LINE
  5
23D
330
1F
100
AcDbEntity
  8
0
  6
CONTINUOUS
 62
     7
100
AcDbLine
 10
-5.832812
 20
214.7943241941
 30
0.0
 11
1.167188
 21
214.7943241941
 31
0.0
  0
LINE
  5
23E
330
1F
100
AcDbEntity
  8
0
  6
CONTINUOUS
 62
     7
100
AcDbLine
 10
1.167188
 20
214.7943241941
 30
0.0
 11
1.167188
 21
217.2943241941
 31
0.0
  0
LINE
  5
23F
330
1F
100
AcDbEntity
  8
0
  6
CONTINUOUS
 62
     7
100
AcDbLine
 10
1.167188
 20
217.2943241941
 30
0.0
 11
2.6383154338
 21
217.2943241941
 31
0.0
  0
LINE
  5
240
330
1F
100
AcDbEntity
  8
0
  6
CONTINUOUS
 62
     7
100
AcDbLine
 10
9.167188
 20
214.8444489859
 30
0.0
 11
9.167188
 21
214.7943241941
 31
0.0
  0
LINE
  5
241
330
1F
100
AcDbEntity
  8
0
  6
CONTINUOUS
 62
     7
100
AcDbLine
 10
9.167188
 20
214.7943241941
 30
0.0
 11
46.167238625
 21
214.7943241941
 31
0.0
  0
LINE
  5
242
330
1F
100
AcDbEntity
  8
0
  6
CONTINUOUS
 62
     7
100
AcDbLine
 10
46.167238625
 20
214.7943241941
 30
0.0
 11
46.167238625
 21
217.2943241941
 31
0.0
  0
LINE
  5
243
330
1F
100
AcDbEntity
  8
0
  6
CONTINUOUS
 62
     7
100
AcDbLine
 10
46.167238625
 20
217.2943241941
 30
0.0
 11
52.899983875
 21
217.2943241941
 31
0.0
  0
LINE
  5
244
330
1F
100
AcDbEntity
  8
0
  6
CONTINUOUS
 62
     7
100
AcDbLine
 10
54.167238625
 20
214.8905903461
 30
0.0
 11
54.167238625
 21
214.7943241941
 31
0.0
  0
LINE
  5
245
330
1F
100
AcDbEntity
  8
0
  6
CONTINUOUS
 62
     7
100
AcDbLine
 10
54.167238625
 20
214.7943241941
 30
0.0
 11
91.16728925
 21
214.7943241941
 31
0.0
  0
LINE
  5
246
330
1F
100
AcDbEntity
  8
0
  6
CONTINUOUS
 62
     7
100
AcDbLine
 10
91.16728925
 20
214.7943241941
 30
0.0
 11
91.16728925
 21
217.2943241941
 31
0.0
  0
LINE
  5
247
330
1F
100
AcDbEntity
  8
0
  6
CONTINUOUS
 62
     7
100
AcDbLine
 10
91.16728925
 20
217.2943241941
 30
0.0
 11
98.5213028339
 21
217.2943241941
 31
0.0
  0
LINE
  5
248
330
1F
100
AcDbEntity
  8
0
  6
CONTINUOUS
 62
     7
100
AcDbLine
 10
99.16728925
 20
215.1424710939
 30
0.0
 11
99.16728925
 21
214.7943241941
 31
0.0
  0
LINE
  5
249
330
1F
100
AcDbEntity
  8
0
  6
CONTINUOUS
 62
     7
100
AcDbLine
 10
99.16728925
 20
214.7943241941
 30
0.0
 11
106.16728925
 21
214.7943241941
 31
0.0
  0
LINE
  5
24A
330
1F
100
AcDbEntity
  8
0
  6
CONTINUOUS
 62
     7
100
AcDbLine
 10
106.16728925
 20
151.80105
 30
0.0
 11
106.16728925
 21
214.7943241941
 31
0.0
  0
LINE
  5
24B
330
1F
100
AcDbEntity
  8
0
  6
CONTINUOUS
 62
     7
100
AcDbLine
 10
-2.832812
 20
145.18105
 30
0.0
 11
-2.832812
 21
142.98105
 31
0.0
  0
LINE
  5
24C
330
1F
100
AcDbEntity
  8
0
  6
CONTINUOUS
 62
     7
100
AcDbLine
 10
-0.632812
 20
142.98105
 30
0.0
 11
-0.632812
 21
145.18105
 31
0.0
  0
LINE
  5
24D
330
1F
100
AcDbEntity
  8
0
  6
CONTINUOUS
 62
     7
100
AcDbLine
 10
-2.832812
 20
64.18105
 30
0.0
 11
-2.832812
 21
61.98105
 31
0.0
  0
LINE
  5
24E
330
1F
100
AcDbEntity
  8
0
  6
CONTINUOUS
 62
     7
100
AcDbLine
 10
-0.632812
 20
61.98105
 30
0.0
 11
-0.632812
 21
64.18105
 31
0.0
  0
LINE
  5
24F
330
1F
100
AcDbEntity
  8
0
  6
CONTINUOUS
 62
     7
100
AcDbLine
 10
100.96728925
 20
64.18105
 30
0.0
 11
100.96728925
 21
61.98105
 31
0.0
  0
LINE
  5
250
330
1F
100
AcDbEntity
  8
0
  6
CONTINUOUS
 62
     7
100
AcDbLine
 10
103.16728925
 20
61.98105
 30
0.0
 11
103.16728925
 21
64.18105
 31
0.0
  0
LINE
  5
251
330
1F
100
AcDbEntity
  8
0
  6
CONTINUOUS
 62
     7
100
AcDbLine
 10
100.96728925
 20
145.18105
 30
0.0
 11
100.96728925
 21
142.98105
 31
0.0
  0
LINE
  5
252
330
1F
100
AcDbEntity
  8
0
  6
CONTINUOUS
 62
     7
100
AcDbLine
 10
103.16728925
 20
142.98105
 30
0.0
 11
103.16728925
 21
145.18105
 31
0.0
  0
LINE
  5
253
330
1F
100
AcDbEntity
  8
0
  6
CONTINUOUS
 62
     7
100
AcDbLine
 10
1.167188
 20
-0.5326666941
 30
0.0
 11
2.6383154338
 21
-0.5326666941
 31
0.0
  0
LINE
  5
254
330
1F
100
AcDbEntity
  8
0
  6
CONTINUOUS
 62
     7
100
AcDbLine
 10
9.167188
 20
1.9172085141
 30
0.0
 11
9.167188
 21
1.9673333059
 31
0.0
  0
LINE
  5
255
330
1F
100
AcDbEntity
  8
0
  6
CONTINUOUS
 62
     7
100
AcDbLine
 10
46.167238625
 20
1.9673333059
 30
0.0
 11
9.167188
 21
1.9673333059
 31
0.0
  0
LINE
  5
256
330
1F
100
AcDbEntity
  8
0
  6
CONTINUOUS
 62
     7
100
AcDbLine
 10
46.167238625
 20
1.9673333059
 30
0.0
 11
46.167238625
 21
-0.5326666941
 31
0.0
  0
LINE
  5
257
330
1F
100
AcDbEntity
  8
0
  6
CONTINUOUS
 62
     7
100
AcDbLine
 10
46.167238625
 20
-0.5326666941
 30
0.0
 11
52.899983875
 21
-0.5326666941
 31
0.0
  0
LINE
  5
258
330
1F
100
AcDbEntity
  8
0
  6
CONTINUOUS
 62
     7
100
AcDbLine
 10
54.167238625
 20
1.8710671539
 30
0.0
 11
54.167238625
 21
1.9673333059
 31
0.0
  0
LINE
  5
259
330
1F
100
AcDbEntity
  8
0
  6
CONTINUOUS
 62
     7
100
AcDbLine
 10
91.16728925
 20
1.9673333059
 30
0.0
 11
54.167238625
 21
1.9673333059
 31
0.0
  0
LINE
  5
25A
330
1F
100
AcDbEntity
  8
0
  6
CONTINUOUS
 62
     7
100
AcDbLine
 10
106.16728925
 20
1.9673333059
 30
0.0
 11
106.16728925
 21
55.36105
 31
0.0
  0
LINE
  5
25B
330
1F
100
AcDbEntity
  8
0
  6
CONTINUOUS
 62
     7
100
AcDbLine
 10
-5.832812
 20
55.36105
 30
0.0
 11
-5.832812
 21
1.9673333059
 31
0.0
  0
LINE
  5
25C
330
1F
100
AcDbEntity
  8
0
  6
CONTINUOUS
 62
     7
100
AcDbLine
 10
99.16728925
 20
1.6191864061
 30
0.0
 11
99.16728925
 21
1.9673333059
 31
0.0
  0
LINE
  5
25D
330
1F
100
AcDbEntity
  8
0
  6
CONTINUOUS
 62
     7
100
AcDbLine
 10
106.16728925
 20
1.9673333059
 30
0.0
 11
99.16728925
 21
1.9673333059
 31
0.0
  0
LINE
  5
25E
330
1F
100
AcDbEntity
  8
0
  6
CONTINUOUS
 62
     7
100
AcDbLine
 10
97.66728925
 20
8.0673333059
 30
0.0
 11
81.66728925
 21
8.0673333059
 31
0.0
  0
LINE
  5
25F
330
1F
100
AcDbEntity
  8
0
  6
CONTINUOUS
 62
     7
100
AcDbLine
 10
81.66728925
 20
8.0673333059
 30
0.0
 11
81.66728925
 21
21.6673333059
 31
0.0
  0
LINE
  5
260
330
1F
100
AcDbEntity
  8
0
  6
CONTINUOUS
 62
     7
100
AcDbLine
 10
81.66728925
 20
21.6673333059
 30
0.0
 11
97.66728925
 21
21.6673333059
 31
0.0
  0
LINE
  5
261
330
1F
100
AcDbEntity
  8
0
  6
CONTINUOUS
 62
     7
100
AcDbLine
 10
97.66728925
 20
21.6673333059
 30
0.0
 11
97.66728925
 21
8.0673333059
 31
0.0
  0
LINE
  5
262
330
1F
100
AcDbEntity
  8
0
  6
CONTINUOUS
 62
     7
100
AcDbLine
 10
56.86728925
 20
8.0673333059
 30
0.0
 11
49.36728925
 21
8.0673333059
 31
0.0
  0
LINE
  5
263
330
1F
100
AcDbEntity
  8
0
  6
CONTINUOUS
 62
     7
100
AcDbLine
 10
49.36728925
 20
8.0673333059
 30
0.0
 11
49.36728925
 21
11.0673333059
 31
0.0
  0
LINE
  5
264
330
1F
100
AcDbEntity
  8
0
  6
CONTINUOUS
 62
     7
100
AcDbLine
 10
49.36728925
 20
11.0673333059
 30
0.0
 11
56.86728925
 21
11.0673333059
 31
0.0
  0
LINE
  5
265
330
1F
100
AcDbEntity
  8
0
  6
CONTINUOUS
 62
     7
100
AcDbLine
 10
76.66728925
 20
8.0673333059
 30
0.0
 11
61.66728925
 21
8.0673333059
 31
0.0
  0
ARC
  5
266
330
1F
100
AcDbEntity
  8
0
  6
CONTINUOUS
 62
     7
100
AcDbCircle
 10
-5.832812
 20
73.58105
 30
0.0
 40
2.900000000000006
100
AcDbArc
 50
90.0
 51
270.0
  0
ARC
  5
267
330
1F
100
AcDbEntity
  8
0
  6
CONTINUOUS
 62
     7
100
AcDbCircle
 10
-5.832812
 20
93.58105
 30
0.0
 40
2.90000000000002
100
AcDbArc
 50
90.0
 51
270.0
  0
ARC
  5
268
330
1F
100
AcDbEntity
  8
0
  6
CONTINUOUS
 62
     7
100
AcDbCircle
 10
-5.832812
 20
113.58105
 30
0.0
 40
2.900000000000006
100
AcDbArc
 50
90.0
 51
270.0
  0
ARC
  5
269
330
1F
100
AcDbEntity
  8
0
  6
CONTINUOUS
 62
     7
100
AcDbCircle
 10
-5.832812
 20
133.58105
 30
0.0
 40
2.900000000000006
100
AcDbArc
 50
90.0
 51
270.0
  0
ARC
  5
26A
330
1F
100
AcDbEntity
  8
0
  6
CONTINUOUS
 62
     7
100
AcDbCircle
 10
-5.832812
 20
184.7943241941
 30
0.0
 40
33.58586011999707
100
AcDbArc
 50
63.4731902217
 51
75.3909012177
  0
ARC
  5
26B
330
1F
100
AcDbEntity
  8
0
  6
CONTINUOUS
 62
     7
100
AcDbCircle
 10
-5.832812
 20
184.7943241941
 30
0.0
 40
67.12519133149038
100
AcDbArc
 50
26.6385265181
 51
28.9581035791
  0
ARC
  5
26C
330
1F
100
AcDbEntity
  8
0
  6
CONTINUOUS
 62
     7
100
AcDbCircle
 10
-5.8328120006
 20
184.7943241939
 30
0.0
 40
109.29790154846
100
AcDbArc
 50
16.1208639456
 51
17.2986549784
  0
ARC
  5
26D
330
1F
100
AcDbEntity
  8
0
  6
CONTINUOUS
 62
     7
100
AcDbCircle
 10
-1.732812
 20
142.98105
 30
0.0
 40
1.099999999999986
100
AcDbArc
 50
180.0
 51
0.0
  0
ARC
  5
26E
330
1F
100
AcDbEntity
  8
0
  6
CONTINUOUS
 62
     7
100
AcDbCircle
 10
-1.732812
 20
145.18105
 30
0.0
 40
1.09999999999999
100
AcDbArc
 50
0.0
 51
180.0
  0
ARC
  5
26F
330
1F
100
AcDbEntity
  8
0
  6
CONTINUOUS
 62
     7
100
AcDbCircle
 10
-1.732812
 20
61.98105
 30
0.0
 40
1.099999999999973
100
AcDbArc
 50
180.0
 51
0.0
  0
ARC
  5
270
330
1F
100
AcDbEntity
  8
0
  6
CONTINUOUS
 62
     7
100
AcDbCircle
 10
-1.732812
 20
64.18105
 30
0.0
 40
1.099999999999993
100
AcDbArc
 50
0.0
 51
180.0
  0
ARC
  5
271
330
1F
100
AcDbEntity
  8
0
  6
CONTINUOUS
 62
     7
100
AcDbCircle
 10
102.06728925
 20
61.98105
 30
0.0
 40
1.09999999999998
100
AcDbArc
 50
180.0
 51
0.0
  0
ARC
  5
272
330
1F
100
AcDbEntity
  8
0
  6
CONTINUOUS
 62
     7
100
AcDbCircle
 10
102.06728925
 20
64.18105
 30
0.0
 40
1.099999999999994
100
AcDbArc
 50
0.0
 51
180.0
  0
ARC
  5
273
330
1F
100
AcDbEntity
  8
0
  6
CONTINUOUS
 62
     7
100
AcDbCircle
 10
102.06728925
 20
142.98105
 30
0.0
 40
1.099999999999994
100
AcDbArc
 50
180.0
 51
0.0
  0
ARC
  5
274
330
1F
100
AcDbEntity
  8
0
  6
CONTINUOUS
 62
     7
100
AcDbCircle
 10
102.06728925
 20
145.18105
 30
0.0
 40
1.099999999999994
100
AcDbArc
 50
0.0
 51
180.0
  0
ARC
  5
275
330
1F
100
AcDbEntity
  8
0
  6
CONTINUOUS
 62
     7
100
AcDbCircle
 10
-5.832812
 20
31.9673333059
 30
0.0
 40
33.58586011999901
100
AcDbArc
 50
284.6090987823
 51
296.5268097783
  0
ARC
  5
276
330
1F
100
AcDbEntity
  8
0
  6
CONTINUOUS
 62
     7
100
AcDbCircle
 10
-5.832812
 20
31.9673333059
 30
0.0
 40
67.12519133149631
100
AcDbArc
 50
331.0418964209
 51
333.3614734819
  0
ARC
  5
277
330
1F
100
AcDbEntity
  8
0
  6
CONTINUOUS
 62
     7
100
AcDbCircle
 10
-5.8328120006
 20
31.9673333061
 30
0.0
 40
109.2979015485025
100
AcDbArc
 50
342.7013450216
 51
343.8791360544
  0
ENDSEC
  0
SECTION
  2
OBJECTS
  0
DICTIONARY
  5
C
330
0
100
AcDbDictionary
  3
ACAD_GROUP
350
D
  3
ACAD_MLINESTYLE
350
17
  3
ACAD_SCALELIST
350
278
  3
ACDBVARIABLEDICTIONARY
350
29A
  0
DICTIONARY
  5
D
102
{ACAD_REACTORS
330
C
102
}
330
C
100
AcDbDictionary
  0
DICTIONARY
  5
17
102
{ACAD_REACTORS
330
C
102
}
330
C
100
AcDbDictionary
  3
STANDARD
350
18
  0
DICTIONARY
  5
278
102
{ACAD_REACTORS
330
C
102
}
330
C
100
AcDbDictionary
  0
DICTIONARY
  5
29A
102
{ACAD_REACTORS
330
C
102
}
330
C
100
AcDbDictionary
  3
CANNOSCALE
350
29B
  0
MLINESTYLE
  5
18
102
{ACAD_REACTORS
330
17
102
}
330
17
100
AcDbMlineStyle
  2
Standard
 70
     0
  3

 62
   256
 51
90.0
 52
90.0
 71
     2
 49
0.5
 62
   256
  6
BYLAYER
 49
-0.5
 62
   256
  6
BYLAYER
  0
DICTIONARYVAR
  5
29B
102
{ACAD_REACTORS
330
29A
102
}
330
29A
100
DictionaryVariables
280
     0
  1
1:1
  0
ENDSEC
  0
EOF
