  0
SECTION
  2
BLOCKS
  0
ENDSEC
  0
SECTION
  2
ENTITIES
  0
LINE
  8
0
 10
-23.998
 11
-23.998
 20
-0.289
 21
0.289
  0
LINE
  8
0
 10
-23.998
 11
-23.301
 20
0.289
 21
0.707
  0
LINE
  8
0
 10
-23.301
 11
-22.653
 20
0.707
 21
1.042
  0
LINE
  8
0
 10
-22.653
 11
-22.061
 20
1.042
 21
1.301
  0
LINE
  8
0
 10
-22.061
 11
-21.531
 20
1.301
 21
1.492
  0
LINE
  8
0
 10
-21.531
 11
-21.071
 20
1.492
 21
1.627
  0
LINE
  8
0
 10
-21.071
 11
-21.05
 20
1.627
 21
1.625
  0
LINE
  8
0
 10
-21.05
 11
-20.99
 20
1.625
 21
2.27
  0
LINE
  8
0
 10
-20.99
 11
-21.011
 20
2.27
 21
2.272
  0
LINE
  8
0
 10
-21.011
 11
-21.439
 20
2.272
 21
2.49
  0
LINE
  8
0
 10
-21.439
 11
-21.924
 20
2.49
 21
2.775
  0
LINE
  8
0
 10
-21.924
 11
-22.459
 20
2.775
 21
3.138
  0
LINE
  8
0
 10
-22.459
 11
-23.034
 20
3.138
 21
3.587
  0
LINE
  8
0
 10
-23.034
 11
-23.642
 20
3.587
 21
4.126
  0
LINE
  8
0
 10
-23.642
 11
-23.536
 20
4.126
 21
4.694
  0
LINE
  8
0
 10
-23.536
 11
-22.774
 20
4.694
 21
4.977
  0
LINE
  8
0
 10
-22.774
 11
-22.076
 20
4.977
 21
5.187
  0
LINE
  8
0
 10
-22.076
 11
-21.446
 20
5.187
 21
5.333
  0
LINE
  8
0
 10
-21.446
 11
-20.89
 20
5.333
 21
5.423
  0
LINE
  8
0
 10
-20.89
 11
-20.413
 20
5.423
 21
5.471
  0
LINE
  8
0
 10
-20.413
 11
-20.393
 20
5.471
 21
5.466
  0
LINE
  8
0
 10
-20.393
 11
-20.216
 20
5.466
 21
6.089
  0
LINE
  8
0
 10
-20.216
 11
-20.236
 20
6.089
 21
6.095
  0
LINE
  8
0
 10
-20.236
 11
-20.616
 20
6.095
 21
6.387
  0
LINE
  8
0
 10
-20.616
 11
-21.041
 20
6.387
 21
6.756
  0
LINE
  8
0
 10
-21.041
 11
-21.5
 20
6.756
 21
7.212
  0
LINE
  8
0
 10
-21.5
 11
-21.983
 20
7.212
 21
7.758
  0
LINE
  8
0
 10
-21.983
 11
-22.482
 20
7.758
 21
8.4
  0
LINE
  8
0
 10
-22.482
 11
-22.273
 20
8.4
 21
8.939
  0
LINE
  8
0
 10
-22.273
 11
-21.472
 20
8.939
 21
9.077
  0
LINE
  8
0
 10
-21.472
 11
-20.747
 20
9.077
 21
9.155
  0
LINE
  8
0
 10
-20.747
 11
-20.101
 20
9.155
 21
9.182
  0
LINE
  8
0
 10
-20.101
 11
-19.538
 20
9.182
 21
9.169
  0
LINE
  8
0
 10
-19.538
 11
-19.06
 20
9.169
 21
9.129
  0
LINE
  8
0
 10
-19.06
 11
-19.042
 20
9.129
 21
9.12
  0
LINE
  8
0
 10
-19.042
 11
-18.753
 20
9.12
 21
9.7
  0
LINE
  8
0
 10
-18.753
 11
-18.771
 20
9.7
 21
9.709
  0
LINE
  8
0
 10
-18.771
 11
-19.091
 20
9.709
 21
10.066
  0
LINE
  8
0
 10
-19.091
 11
-19.442
 20
10.066
 21
10.507
  0
LINE
  8
0
 10
-19.442
 11
-19.809
 20
10.507
 21
11.039
  0
LINE
  8
0
 10
-19.809
 11
-20.183
 20
11.039
 21
11.665
  0
LINE
  8
0
 10
-20.183
 11
-20.556
 20
11.665
 21
12.388
  0
LINE
  8
0
 10
-20.556
 11
-20.251
 20
12.388
 21
12.879
  0
LINE
  8
0
 10
-20.251
 11
-19.439
 20
12.879
 21
12.867
  0
LINE
  8
0
 10
-19.439
 11
-18.711
 20
12.867
 21
12.811
  0
LINE
  8
0
 10
-18.711
 11
-18.072
 20
12.811
 21
12.72
  0
LINE
  8
0
 10
-18.072
 11
-17.521
 20
12.72
 21
12.603
  0
LINE
  8
0
 10
-17.521
 11
-17.058
 20
12.603
 21
12.476
  0
LINE
  8
0
 10
-17.058
 11
-17.042
 20
12.476
 21
12.464
  0
LINE
  8
0
 10
-17.042
 11
-16.652
 20
12.464
 21
12.98
  0
LINE
  8
0
 10
-16.652
 11
-16.668
 20
12.98
 21
12.993
  0
LINE
  8
0
 10
-16.668
 11
-16.917
 20
12.993
 21
13.403
  0
LINE
  8
0
 10
-16.917
 11
-17.18
 20
13.403
 21
13.901
  0
LINE
  8
0
 10
-17.18
 11
-17.443
 20
13.901
 21
14.491
  0
LINE
  8
0
 10
-17.443
 11
-17.696
 20
14.491
 21
15.175
  0
LINE
  8
0
 10
-17.696
 11
-17.929
 20
15.175
 21
15.954
  0
LINE
  8
0
 10
-17.929
 11
-17.54
 20
15.954
 21
16.381
  0
LINE
  8
0
 10
-17.54
 11
-16.743
 20
16.381
 21
16.22
  0
LINE
  8
0
 10
-16.743
 11
-16.039
 20
16.22
 21
16.031
  0
LINE
  8
0
 10
-16.039
 11
-15.427
 20
16.031
 21
15.824
  0
LINE
  8
0
 10
-15.427
 11
-14.906
 20
15.824
 21
15.608
  0
LINE
  8
0
 10
-14.906
 11
-14.476
 20
15.608
 21
15.398
  0
LINE
  8
0
 10
-14.476
 11
-14.462
 20
15.398
 21
15.383
  0
LINE
  8
0
 10
-14.462
 11
-13.983
 20
15.383
 21
15.82
  0
LINE
  8
0
 10
-13.983
 11
-13.996
 20
15.82
 21
15.835
  0
LINE
  8
0
 10
-13.996
 11
-14.166
 20
15.835
 21
16.283
  0
LINE
  8
0
 10
-14.166
 11
-14.333
 20
16.283
 21
16.821
  0
LINE
  8
0
 10
-14.333
 11
-14.483
 20
16.821
 21
17.45
  0
LINE
  8
0
 10
-14.483
 11
-14.606
 20
17.45
 21
18.169
  0
LINE
  8
0
 10
-14.606
 11
-14.693
 20
18.169
 21
18.977
  0
LINE
  8
0
 10
-14.693
 11
-14.231
 20
18.977
 21
19.325
  0
LINE
  8
0
 10
-14.231
 11
-13.478
 20
19.325
 21
19.021
  0
LINE
  8
0
 10
-13.478
 11
-12.82
 20
19.021
 21
18.705
  0
LINE
  8
0
 10
-12.82
 11
-12.257
 20
18.705
 21
18.389
  0
LINE
  8
0
 10
-12.257
 11
-11.785
 20
18.389
 21
18.081
  0
LINE
  8
0
 10
-11.785
 11
-11.4
 20
18.081
 21
17.796
  0
LINE
  8
0
 10
-11.4
 11
-11.389
 20
17.796
 21
17.779
  0
LINE
  8
0
 10
-11.389
 11
-10.838
 20
17.779
 21
18.119
  0
LINE
  8
0
 10
-10.838
 11
-10.849
 20
18.119
 21
18.137
  0
LINE
  8
0
 10
-10.849
 11
-10.933
 20
18.137
 21
18.609
  0
LINE
  8
0
 10
-10.933
 11
-10.998
 20
18.609
 21
19.168
  0
LINE
  8
0
 10
-10.998
 11
-11.03
 20
19.168
 21
19.814
  0
LINE
  8
0
 10
-11.03
 11
-11.019
 20
19.814
 21
20.543
  0
LINE
  8
0
 10
-11.019
 11
-10.956
 20
20.543
 21
21.353
  0
LINE
  8
0
 10
-10.956
 11
-10.438
 20
21.353
 21
21.611
  0
LINE
  8
0
 10
-10.438
 11
-9.753
 20
21.611
 21
21.173
  0
LINE
  8
0
 10
-9.753
 11
-9.165
 20
21.173
 21
20.743
  0
LINE
  8
0
 10
-9.165
 11
-8.669
 20
20.743
 21
20.328
  0
LINE
  8
0
 10
-8.669
 11
-8.262
 20
20.328
 21
19.939
  0
LINE
  8
0
 10
-8.262
 11
-7.936
 20
19.939
 21
19.587
  0
LINE
  8
0
 10
-7.936
 11
-7.928
 20
19.587
 21
19.568
  0
LINE
  8
0
 10
-7.928
 11
-7.324
 20
19.568
 21
19.802
  0
LINE
  8
0
 10
-7.324
 11
-7.331
 20
19.802
 21
19.821
  0
LINE
  8
0
 10
-7.331
 11
-7.327
 20
19.821
 21
20.301
  0
LINE
  8
0
 10
-7.327
 11
-7.289
 20
20.301
 21
20.863
  0
LINE
  8
0
 10
-7.289
 11
-7.202
 20
20.863
 21
21.503
  0
LINE
  8
0
 10
-7.202
 11
-7.057
 20
21.503
 21
22.218
  0
LINE
  8
0
 10
-7.057
 11
-6.845
 20
22.218
 21
23.003
  0
LINE
  8
0
 10
-6.845
 11
-6.289
 20
23.003
 21
23.161
  0
LINE
  8
0
 10
-6.289
 11
-5.697
 20
23.161
 21
22.605
  0
LINE
  8
0
 10
-5.697
 11
-5.197
 20
22.605
 21
22.073
  0
LINE
  8
0
 10
-5.197
 11
-4.786
 20
22.073
 21
21.575
  0
LINE
  8
0
 10
-4.786
 11
-4.457
 20
21.575
 21
21.117
  0
LINE
  8
0
 10
-4.457
 11
-4.201
 20
21.117
 21
20.712
  0
LINE
  8
0
 10
-4.201
 11
-4.197
 20
20.712
 21
20.692
  0
LINE
  8
0
 10
-4.197
 11
-3.56
 20
20.692
 21
20.81
  0
LINE
  8
0
 10
-3.56
 11
-3.564
 20
20.81
 21
20.831
  0
LINE
  8
0
 10
-3.564
 11
-3.472
 20
20.831
 21
21.301
  0
LINE
  8
0
 10
-3.472
 11
-3.331
 20
21.301
 21
21.847
  0
LINE
  8
0
 10
-3.331
 11
-3.128
 20
21.847
 21
22.46
  0
LINE
  8
0
 10
-3.128
 11
-2.854
 20
22.46
 21
23.136
  0
LINE
  8
0
 10
-2.854
 11
-2.502
 20
23.136
 21
23.869
  0
LINE
  8
0
 10
-2.502
 11
-1.926
 20
23.869
 21
23.922
  0
LINE
  8
0
 10
-1.926
 11
-1.446
 20
23.922
 21
23.267
  0
LINE
  8
0
 10
-1.446
 11
-1.053
 20
23.267
 21
22.653
  0
LINE
  8
0
 10
-1.053
 11
-0.74
 20
22.653
 21
22.087
  0
LINE
  8
0
 10
-0.74
 11
-0.501
 20
22.087
 21
21.577
  0
LINE
  8
0
 10
-0.501
 11
-0.324
 20
21.577
 21
21.131
  0
LINE
  8
0
 10
-0.324
 11
-0.324
 20
21.131
 21
21.111
  0
LINE
  8
0
 10
-0.324
 11
0.324
 20
21.111
 21
21.11
  0
LINE
  8
0
 10
0.324
 11
0.324
 20
21.11
 21
21.131
  0
LINE
  8
0
 10
0.324
 11
0.501
 20
21.131
 21
21.577
  0
LINE
  8
0
 10
0.501
 11
0.74
 20
21.577
 21
22.087
  0
LINE
  8
0
 10
0.74
 11
1.053
 20
22.087
 21
22.653
  0
LINE
  8
0
 10
1.053
 11
1.446
 20
22.653
 21
23.267
  0
LINE
  8
0
 10
1.446
 11
1.926
 20
23.267
 21
23.922
  0
LINE
  8
0
 10
1.926
 11
2.502
 20
23.922
 21
23.869
  0
LINE
  8
0
 10
2.502
 11
2.854
 20
23.869
 21
23.136
  0
LINE
  8
0
 10
2.854
 11
3.128
 20
23.136
 21
22.46
  0
LINE
  8
0
 10
3.128
 11
3.331
 20
22.46
 21
21.847
  0
LINE
  8
0
 10
3.331
 11
3.472
 20
21.847
 21
21.301
  0
LINE
  8
0
 10
3.472
 11
3.564
 20
21.301
 21
20.831
  0
LINE
  8
0
 10
3.564
 11
3.56
 20
20.831
 21
20.81
  0
LINE
  8
0
 10
3.56
 11
4.197
 20
20.81
 21
20.692
  0
LINE
  8
0
 10
4.197
 11
4.201
 20
20.692
 21
20.712
  0
LINE
  8
0
 10
4.201
 11
4.457
 20
20.712
 21
21.117
  0
LINE
  8
0
 10
4.457
 11
4.786
 20
21.117
 21
21.575
  0
LINE
  8
0
 10
4.786
 11
5.197
 20
21.575
 21
22.073
  0
LINE
  8
0
 10
5.197
 11
5.697
 20
22.073
 21
22.605
  0
LINE
  8
0
 10
5.697
 11
6.289
 20
22.605
 21
23.161
  0
LINE
  8
0
 10
6.289
 11
6.845
 20
23.161
 21
23.003
  0
LINE
  8
0
 10
6.845
 11
7.057
 20
23.003
 21
22.218
  0
LINE
  8
0
 10
7.057
 11
7.202
 20
22.218
 21
21.503
  0
LINE
  8
0
 10
7.202
 11
7.289
 20
21.503
 21
20.863
  0
LINE
  8
0
 10
7.289
 11
7.327
 20
20.863
 21
20.301
  0
LINE
  8
0
 10
7.327
 11
7.331
 20
20.301
 21
19.821
  0
LINE
  8
0
 10
7.331
 11
7.324
 20
19.821
 21
19.802
  0
LINE
  8
0
 10
7.324
 11
7.928
 20
19.802
 21
19.568
  0
LINE
  8
0
 10
7.928
 11
7.936
 20
19.568
 21
19.587
  0
LINE
  8
0
 10
7.936
 11
8.262
 20
19.587
 21
19.939
  0
LINE
  8
0
 10
8.262
 11
8.669
 20
19.939
 21
20.328
  0
LINE
  8
0
 10
8.669
 11
9.165
 20
20.328
 21
20.743
  0
LINE
  8
0
 10
9.165
 11
9.753
 20
20.743
 21
21.173
  0
LINE
  8
0
 10
9.753
 11
10.438
 20
21.173
 21
21.611
  0
LINE
  8
0
 10
10.438
 11
10.956
 20
21.611
 21
21.353
  0
LINE
  8
0
 10
10.956
 11
11.019
 20
21.353
 21
20.543
  0
LINE
  8
0
 10
11.019
 11
11.03
 20
20.543
 21
19.814
  0
LINE
  8
0
 10
11.03
 11
10.998
 20
19.814
 21
19.168
  0
LINE
  8
0
 10
10.998
 11
10.933
 20
19.168
 21
18.609
  0
LINE
  8
0
 10
10.933
 11
10.849
 20
18.609
 21
18.137
  0
LINE
  8
0
 10
10.849
 11
10.838
 20
18.137
 21
18.119
  0
LINE
  8
0
 10
10.838
 11
11.389
 20
18.119
 21
17.778
  0
LINE
  8
0
 10
11.389
 11
11.4
 20
17.778
 21
17.796
  0
LINE
  8
0
 10
11.4
 11
11.785
 20
17.796
 21
18.081
  0
LINE
  8
0
 10
11.785
 11
12.257
 20
18.081
 21
18.389
  0
LINE
  8
0
 10
12.257
 11
12.82
 20
18.389
 21
18.705
  0
LINE
  8
0
 10
12.82
 11
13.478
 20
18.705
 21
19.021
  0
LINE
  8
0
 10
13.478
 11
14.231
 20
19.021
 21
19.325
  0
LINE
  8
0
 10
14.231
 11
14.693
 20
19.325
 21
18.977
  0
LINE
  8
0
 10
14.693
 11
14.606
 20
18.977
 21
18.169
  0
LINE
  8
0
 10
14.606
 11
14.483
 20
18.169
 21
17.45
  0
LINE
  8
0
 10
14.483
 11
14.333
 20
17.45
 21
16.821
  0
LINE
  8
0
 10
14.333
 11
14.166
 20
16.821
 21
16.283
  0
LINE
  8
0
 10
14.166
 11
13.996
 20
16.283
 21
15.835
  0
LINE
  8
0
 10
13.996
 11
13.983
 20
15.835
 21
15.82
  0
LINE
  8
0
 10
13.983
 11
14.462
 20
15.82
 21
15.383
  0
LINE
  8
0
 10
14.462
 11
14.476
 20
15.383
 21
15.398
  0
LINE
  8
0
 10
14.476
 11
14.906
 20
15.398
 21
15.608
  0
LINE
  8
0
 10
14.906
 11
15.427
 20
15.608
 21
15.824
  0
LINE
  8
0
 10
15.427
 11
16.039
 20
15.824
 21
16.031
  0
LINE
  8
0
 10
16.039
 11
16.743
 20
16.031
 21
16.22
  0
LINE
  8
0
 10
16.743
 11
17.54
 20
16.22
 21
16.381
  0
LINE
  8
0
 10
17.54
 11
17.929
 20
16.381
 21
15.954
  0
LINE
  8
0
 10
17.929
 11
17.696
 20
15.954
 21
15.175
  0
LINE
  8
0
 10
17.696
 11
17.443
 20
15.175
 21
14.491
  0
LINE
  8
0
 10
17.443
 11
17.18
 20
14.491
 21
13.901
  0
LINE
  8
0
 10
17.18
 11
16.917
 20
13.901
 21
13.403
  0
LINE
  8
0
 10
16.917
 11
16.668
 20
13.403
 21
12.993
  0
LINE
  8
0
 10
16.668
 11
16.652
 20
12.993
 21
12.981
  0
LINE
  8
0
 10
16.652
 11
17.042
 20
12.981
 21
12.464
  0
LINE
  8
0
 10
17.042
 11
17.058
 20
12.464
 21
12.476
  0
LINE
  8
0
 10
17.058
 11
17.521
 20
12.476
 21
12.603
  0
LINE
  8
0
 10
17.521
 11
18.072
 20
12.603
 21
12.72
  0
LINE
  8
0
 10
18.072
 11
18.711
 20
12.72
 21
12.811
  0
LINE
  8
0
 10
18.711
 11
19.439
 20
12.811
 21
12.867
  0
LINE
  8
0
 10
19.439
 11
20.251
 20
12.867
 21
12.879
  0
LINE
  8
0
 10
20.251
 11
20.556
 20
12.879
 21
12.388
  0
LINE
  8
0
 10
20.556
 11
20.183
 20
12.388
 21
11.665
  0
LINE
  8
0
 10
20.183
 11
19.809
 20
11.665
 21
11.039
  0
LINE
  8
0
 10
19.809
 11
19.442
 20
11.039
 21
10.507
  0
LINE
  8
0
 10
19.442
 11
19.091
 20
10.507
 21
10.066
  0
LINE
  8
0
 10
19.091
 11
18.771
 20
10.066
 21
9.709
  0
LINE
  8
0
 10
18.771
 11
18.753
 20
9.709
 21
9.7
  0
LINE
  8
0
 10
18.753
 11
19.042
 20
9.7
 21
9.12
  0
LINE
  8
0
 10
19.042
 11
19.06
 20
9.12
 21
9.129
  0
LINE
  8
0
 10
19.06
 11
19.538
 20
9.129
 21
9.169
  0
LINE
  8
0
 10
19.538
 11
20.101
 20
9.169
 21
9.182
  0
LINE
  8
0
 10
20.101
 11
20.747
 20
9.182
 21
9.155
  0
LINE
  8
0
 10
20.747
 11
21.472
 20
9.155
 21
9.077
  0
LINE
  8
0
 10
21.472
 11
22.273
 20
9.077
 21
8.939
  0
LINE
  8
0
 10
22.273
 11
22.482
 20
8.939
 21
8.4
  0
LINE
  8
0
 10
22.482
 11
21.983
 20
8.4
 21
7.758
  0
LINE
  8
0
 10
21.983
 11
21.5
 20
7.758
 21
7.212
  0
LINE
  8
0
 10
21.5
 11
21.041
 20
7.212
 21
6.756
  0
LINE
  8
0
 10
21.041
 11
20.616
 20
6.756
 21
6.387
  0
LINE
  8
0
 10
20.616
 11
20.236
 20
6.387
 21
6.095
  0
LINE
  8
0
 10
20.236
 11
20.216
 20
6.095
 21
6.089
  0
LINE
  8
0
 10
20.216
 11
20.393
 20
6.089
 21
5.466
  0
LINE
  8
0
 10
20.393
 11
20.413
 20
5.466
 21
5.471
  0
LINE
  8
0
 10
20.413
 11
20.89
 20
5.471
 21
5.423
  0
LINE
  8
0
 10
20.89
 11
21.446
 20
5.423
 21
5.333
  0
LINE
  8
0
 10
21.446
 11
22.076
 20
5.333
 21
5.187
  0
LINE
  8
0
 10
22.076
 11
22.774
 20
5.187
 21
4.977
  0
LINE
  8
0
 10
22.774
 11
23.536
 20
4.977
 21
4.694
  0
LINE
  8
0
 10
23.536
 11
23.642
 20
4.694
 21
4.126
  0
LINE
  8
0
 10
23.642
 11
23.034
 20
4.126
 21
3.587
  0
LINE
  8
0
 10
23.034
 11
22.459
 20
3.587
 21
3.138
  0
LINE
  8
0
 10
22.459
 11
21.924
 20
3.138
 21
2.775
  0
LINE
  8
0
 10
21.924
 11
21.439
 20
2.775
 21
2.49
  0
LINE
  8
0
 10
21.439
 11
21.011
 20
2.49
 21
2.272
  0
LINE
  8
0
 10
21.011
 11
20.99
 20
2.272
 21
2.27
  0
LINE
  8
0
 10
20.99
 11
21.051
 20
2.27
 21
1.625
  0
LINE
  8
0
 10
21.051
 11
21.071
 20
1.625
 21
1.627
  0
LINE
  8
0
 10
21.071
 11
21.531
 20
1.627
 21
1.492
  0
LINE
  8
0
 10
21.531
 11
22.061
 20
1.492
 21
1.301
  0
LINE
  8
0
 10
22.061
 11
22.653
 20
1.301
 21
1.042
  0
LINE
  8
0
 10
22.653
 11
23.301
 20
1.042
 21
0.707
  0
LINE
  8
0
 10
23.301
 11
23.998
 20
0.707
 21
0.289
  0
LINE
  8
0
 10
23.998
 11
23.998
 20
0.289
 21
-0.289
  0
LINE
  8
0
 10
23.998
 11
23.301
 20
-0.289
 21
-0.707
  0
LINE
  8
0
 10
23.301
 11
22.653
 20
-0.707
 21
-1.042
  0
LINE
  8
0
 10
22.653
 11
22.061
 20
-1.042
 21
-1.301
  0
LINE
  8
0
 10
22.061
 11
21.531
 20
-1.301
 21
-1.492
  0
LINE
  8
0
 10
21.531
 11
21.071
 20
-1.492
 21
-1.627
  0
LINE
  8
0
 10
21.071
 11
21.05
 20
-1.627
 21
-1.625
  0
LINE
  8
0
 10
21.05
 11
20.99
 20
-1.625
 21
-2.27
  0
LINE
  8
0
 10
20.99
 11
21.011
 20
-2.27
 21
-2.272
  0
LINE
  8
0
 10
21.011
 11
21.439
 20
-2.272
 21
-2.49
  0
LINE
  8
0
 10
21.439
 11
21.924
 20
-2.49
 21
-2.775
  0
LINE
  8
0
 10
21.924
 11
22.459
 20
-2.775
 21
-3.138
  0
LINE
  8
0
 10
22.459
 11
23.034
 20
-3.138
 21
-3.587
  0
LINE
  8
0
 10
23.034
 11
23.642
 20
-3.587
 21
-4.126
  0
LINE
  8
0
 10
23.642
 11
23.536
 20
-4.126
 21
-4.694
  0
LINE
  8
0
 10
23.536
 11
22.774
 20
-4.694
 21
-4.977
  0
LINE
  8
0
 10
22.774
 11
22.076
 20
-4.977
 21
-5.187
  0
LINE
  8
0
 10
22.076
 11
21.446
 20
-5.187
 21
-5.333
  0
LINE
  8
0
 10
21.446
 11
20.89
 20
-5.333
 21
-5.423
  0
LINE
  8
0
 10
20.89
 11
20.413
 20
-5.423
 21
-5.471
  0
LINE
  8
0
 10
20.413
 11
20.393
 20
-5.471
 21
-5.466
  0
LINE
  8
0
 10
20.393
 11
20.216
 20
-5.466
 21
-6.089
  0
LINE
  8
0
 10
20.216
 11
20.236
 20
-6.089
 21
-6.095
  0
LINE
  8
0
 10
20.236
 11
20.616
 20
-6.095
 21
-6.387
  0
LINE
  8
0
 10
20.616
 11
21.041
 20
-6.387
 21
-6.756
  0
LINE
  8
0
 10
21.041
 11
21.5
 20
-6.756
 21
-7.212
  0
LINE
  8
0
 10
21.5
 11
21.983
 20
-7.212
 21
-7.758
  0
LINE
  8
0
 10
21.983
 11
22.482
 20
-7.758
 21
-8.4
  0
LINE
  8
0
 10
22.482
 11
22.273
 20
-8.4
 21
-8.939
  0
LINE
  8
0
 10
22.273
 11
21.472
 20
-8.939
 21
-9.077
  0
LINE
  8
0
 10
21.472
 11
20.747
 20
-9.077
 21
-9.155
  0
LINE
  8
0
 10
20.747
 11
20.101
 20
-9.155
 21
-9.182
  0
LINE
  8
0
 10
20.101
 11
19.538
 20
-9.182
 21
-9.169
  0
LINE
  8
0
 10
19.538
 11
19.06
 20
-9.169
 21
-9.129
  0
LINE
  8
0
 10
19.06
 11
19.042
 20
-9.129
 21
-9.12
  0
LINE
  8
0
 10
19.042
 11
18.753
 20
-9.12
 21
-9.7
  0
LINE
  8
0
 10
18.753
 11
18.771
 20
-9.7
 21
-9.709
  0
LINE
  8
0
 10
18.771
 11
19.091
 20
-9.709
 21
-10.066
  0
LINE
  8
0
 10
19.091
 11
19.442
 20
-10.066
 21
-10.507
  0
LINE
  8
0
 10
19.442
 11
19.809
 20
-10.507
 21
-11.039
  0
LINE
  8
0
 10
19.809
 11
20.183
 20
-11.039
 21
-11.665
  0
LINE
  8
0
 10
20.183
 11
20.556
 20
-11.665
 21
-12.388
  0
LINE
  8
0
 10
20.556
 11
20.251
 20
-12.388
 21
-12.879
  0
LINE
  8
0
 10
20.251
 11
19.439
 20
-12.879
 21
-12.867
  0
LINE
  8
0
 10
19.439
 11
18.711
 20
-12.867
 21
-12.811
  0
LINE
  8
0
 10
18.711
 11
18.072
 20
-12.811
 21
-12.72
  0
LINE
  8
0
 10
18.072
 11
17.521
 20
-12.72
 21
-12.603
  0
LINE
  8
0
 10
17.521
 11
17.058
 20
-12.603
 21
-12.476
  0
LINE
  8
0
 10
17.058
 11
17.042
 20
-12.476
 21
-12.464
  0
LINE
  8
0
 10
17.042
 11
16.652
 20
-12.464
 21
-12.98
  0
LINE
  8
0
 10
16.652
 11
16.668
 20
-12.98
 21
-12.993
  0
LINE
  8
0
 10
16.668
 11
16.917
 20
-12.993
 21
-13.403
  0
LINE
  8
0
 10
16.917
 11
17.18
 20
-13.403
 21
-13.901
  0
LINE
  8
0
 10
17.18
 11
17.443
 20
-13.901
 21
-14.491
  0
LINE
  8
0
 10
17.443
 11
17.696
 20
-14.491
 21
-15.175
  0
LINE
  8
0
 10
17.696
 11
17.929
 20
-15.175
 21
-15.954
  0
LINE
  8
0
 10
17.929
 11
17.54
 20
-15.954
 21
-16.381
  0
LINE
  8
0
 10
17.54
 11
16.743
 20
-16.381
 21
-16.22
  0
LINE
  8
0
 10
16.743
 11
16.039
 20
-16.22
 21
-16.031
  0
LINE
  8
0
 10
16.039
 11
15.427
 20
-16.031
 21
-15.824
  0
LINE
  8
0
 10
15.427
 11
14.906
 20
-15.824
 21
-15.608
  0
LINE
  8
0
 10
14.906
 11
14.476
 20
-15.608
 21
-15.398
  0
LINE
  8
0
 10
14.476
 11
14.462
 20
-15.398
 21
-15.383
  0
LINE
  8
0
 10
14.462
 11
13.983
 20
-15.383
 21
-15.82
  0
LINE
  8
0
 10
13.983
 11
13.996
 20
-15.82
 21
-15.835
  0
LINE
  8
0
 10
13.996
 11
14.166
 20
-15.835
 21
-16.283
  0
LINE
  8
0
 10
14.166
 11
14.333
 20
-16.283
 21
-16.821
  0
LINE
  8
0
 10
14.333
 11
14.483
 20
-16.821
 21
-17.45
  0
LINE
  8
0
 10
14.483
 11
14.606
 20
-17.45
 21
-18.169
  0
LINE
  8
0
 10
14.606
 11
14.693
 20
-18.169
 21
-18.977
  0
LINE
  8
0
 10
14.693
 11
14.231
 20
-18.977
 21
-19.325
  0
LINE
  8
0
 10
14.231
 11
13.478
 20
-19.325
 21
-19.021
  0
LINE
  8
0
 10
13.478
 11
12.82
 20
-19.021
 21
-18.705
  0
LINE
  8
0
 10
12.82
 11
12.257
 20
-18.705
 21
-18.389
  0
LINE
  8
0
 10
12.257
 11
11.785
 20
-18.389
 21
-18.081
  0
LINE
  8
0
 10
11.785
 11
11.4
 20
-18.081
 21
-17.796
  0
LINE
  8
0
 10
11.4
 11
11.389
 20
-17.796
 21
-17.779
  0
LINE
  8
0
 10
11.389
 11
10.838
 20
-17.779
 21
-18.119
  0
LINE
  8
0
 10
10.838
 11
10.849
 20
-18.119
 21
-18.137
  0
LINE
  8
0
 10
10.849
 11
10.933
 20
-18.137
 21
-18.609
  0
LINE
  8
0
 10
10.933
 11
10.998
 20
-18.609
 21
-19.168
  0
LINE
  8
0
 10
10.998
 11
11.03
 20
-19.168
 21
-19.814
  0
LINE
  8
0
 10
11.03
 11
11.019
 20
-19.814
 21
-20.543
  0
LINE
  8
0
 10
11.019
 11
10.956
 20
-20.543
 21
-21.353
  0
LINE
  8
0
 10
10.956
 11
10.438
 20
-21.353
 21
-21.611
  0
LINE
  8
0
 10
10.438
 11
9.753
 20
-21.611
 21
-21.173
  0
LINE
  8
0
 10
9.753
 11
9.165
 20
-21.173
 21
-20.743
  0
LINE
  8
0
 10
9.165
 11
8.669
 20
-20.743
 21
-20.328
  0
LINE
  8
0
 10
8.669
 11
8.262
 20
-20.328
 21
-19.939
  0
LINE
  8
0
 10
8.262
 11
7.936
 20
-19.939
 21
-19.587
  0
LINE
  8
0
 10
7.936
 11
7.928
 20
-19.587
 21
-19.568
  0
LINE
  8
0
 10
7.928
 11
7.324
 20
-19.568
 21
-19.802
  0
LINE
  8
0
 10
7.324
 11
7.331
 20
-19.802
 21
-19.821
  0
LINE
  8
0
 10
7.331
 11
7.327
 20
-19.821
 21
-20.301
  0
LINE
  8
0
 10
7.327
 11
7.289
 20
-20.301
 21
-20.863
  0
LINE
  8
0
 10
7.289
 11
7.202
 20
-20.863
 21
-21.503
  0
LINE
  8
0
 10
7.202
 11
7.057
 20
-21.503
 21
-22.218
  0
LINE
  8
0
 10
7.057
 11
6.845
 20
-22.218
 21
-23.003
  0
LINE
  8
0
 10
6.845
 11
6.289
 20
-23.003
 21
-23.161
  0
LINE
  8
0
 10
6.289
 11
5.697
 20
-23.161
 21
-22.605
  0
LINE
  8
0
 10
5.697
 11
5.197
 20
-22.605
 21
-22.073
  0
LINE
  8
0
 10
5.197
 11
4.786
 20
-22.073
 21
-21.575
  0
LINE
  8
0
 10
4.786
 11
4.457
 20
-21.575
 21
-21.117
  0
LINE
  8
0
 10
4.457
 11
4.201
 20
-21.117
 21
-20.712
  0
LINE
  8
0
 10
4.201
 11
4.197
 20
-20.712
 21
-20.692
  0
LINE
  8
0
 10
4.197
 11
3.56
 20
-20.692
 21
-20.81
  0
LINE
  8
0
 10
3.56
 11
3.564
 20
-20.81
 21
-20.831
  0
LINE
  8
0
 10
3.564
 11
3.472
 20
-20.831
 21
-21.301
  0
LINE
  8
0
 10
3.472
 11
3.331
 20
-21.301
 21
-21.847
  0
LINE
  8
0
 10
3.331
 11
3.128
 20
-21.847
 21
-22.46
  0
LINE
  8
0
 10
3.128
 11
2.854
 20
-22.46
 21
-23.136
  0
LINE
  8
0
 10
2.854
 11
2.502
 20
-23.136
 21
-23.869
  0
LINE
  8
0
 10
2.502
 11
1.926
 20
-23.869
 21
-23.922
  0
LINE
  8
0
 10
1.926
 11
1.446
 20
-23.922
 21
-23.267
  0
LINE
  8
0
 10
1.446
 11
1.053
 20
-23.267
 21
-22.653
  0
LINE
  8
0
 10
1.053
 11
0.74
 20
-22.653
 21
-22.087
  0
LINE
  8
0
 10
0.74
 11
0.501
 20
-22.087
 21
-21.577
  0
LINE
  8
0
 10
0.501
 11
0.324
 20
-21.577
 21
-21.131
  0
LINE
  8
0
 10
0.324
 11
0.324
 20
-21.131
 21
-21.111
  0
LINE
  8
0
 10
0.324
 11
-0.324
 20
-21.111
 21
-21.11
  0
LINE
  8
0
 10
-0.324
 11
-0.324
 20
-21.11
 21
-21.131
  0
LINE
  8
0
 10
-0.324
 11
-0.501
 20
-21.131
 21
-21.577
  0
LINE
  8
0
 10
-0.501
 11
-0.74
 20
-21.577
 21
-22.087
  0
LINE
  8
0
 10
-0.74
 11
-1.053
 20
-22.087
 21
-22.653
  0
LINE
  8
0
 10
-1.053
 11
-1.446
 20
-22.653
 21
-23.267
  0
LINE
  8
0
 10
-1.446
 11
-1.926
 20
-23.267
 21
-23.922
  0
LINE
  8
0
 10
-1.926
 11
-2.502
 20
-23.922
 21
-23.869
  0
LINE
  8
0
 10
-2.502
 11
-2.854
 20
-23.869
 21
-23.136
  0
LINE
  8
0
 10
-2.854
 11
-3.128
 20
-23.136
 21
-22.46
  0
LINE
  8
0
 10
-3.128
 11
-3.331
 20
-22.46
 21
-21.847
  0
LINE
  8
0
 10
-3.331
 11
-3.472
 20
-21.847
 21
-21.301
  0
LINE
  8
0
 10
-3.472
 11
-3.564
 20
-21.301
 21
-20.831
  0
LINE
  8
0
 10
-3.564
 11
-3.56
 20
-20.831
 21
-20.81
  0
LINE
  8
0
 10
-3.56
 11
-4.197
 20
-20.81
 21
-20.692
  0
LINE
  8
0
 10
-4.197
 11
-4.201
 20
-20.692
 21
-20.712
  0
LINE
  8
0
 10
-4.201
 11
-4.457
 20
-20.712
 21
-21.117
  0
LINE
  8
0
 10
-4.457
 11
-4.786
 20
-21.117
 21
-21.575
  0
LINE
  8
0
 10
-4.786
 11
-5.197
 20
-21.575
 21
-22.073
  0
LINE
  8
0
 10
-5.197
 11
-5.697
 20
-22.073
 21
-22.605
  0
LINE
  8
0
 10
-5.697
 11
-6.289
 20
-22.605
 21
-23.161
  0
LINE
  8
0
 10
-6.289
 11
-6.845
 20
-23.161
 21
-23.003
  0
LINE
  8
0
 10
-6.845
 11
-7.057
 20
-23.003
 21
-22.218
  0
LINE
  8
0
 10
-7.057
 11
-7.202
 20
-22.218
 21
-21.503
  0
LINE
  8
0
 10
-7.202
 11
-7.289
 20
-21.503
 21
-20.863
  0
LINE
  8
0
 10
-7.289
 11
-7.327
 20
-20.863
 21
-20.301
  0
LINE
  8
0
 10
-7.327
 11
-7.331
 20
-20.301
 21
-19.821
  0
LINE
  8
0
 10
-7.331
 11
-7.324
 20
-19.821
 21
-19.802
  0
LINE
  8
0
 10
-7.324
 11
-7.928
 20
-19.802
 21
-19.568
  0
LINE
  8
0
 10
-7.928
 11
-7.936
 20
-19.568
 21
-19.587
  0
LINE
  8
0
 10
-7.936
 11
-8.262
 20
-19.587
 21
-19.939
  0
LINE
  8
0
 10
-8.262
 11
-8.669
 20
-19.939
 21
-20.328
  0
LINE
  8
0
 10
-8.669
 11
-9.165
 20
-20.328
 21
-20.743
  0
LINE
  8
0
 10
-9.165
 11
-9.753
 20
-20.743
 21
-21.173
  0
LINE
  8
0
 10
-9.753
 11
-10.438
 20
-21.173
 21
-21.611
  0
LINE
  8
0
 10
-10.438
 11
-10.956
 20
-21.611
 21
-21.353
  0
LINE
  8
0
 10
-10.956
 11
-11.019
 20
-21.353
 21
-20.543
  0
LINE
  8
0
 10
-11.019
 11
-11.03
 20
-20.543
 21
-19.814
  0
LINE
  8
0
 10
-11.03
 11
-10.998
 20
-19.814
 21
-19.168
  0
LINE
  8
0
 10
-10.998
 11
-10.933
 20
-19.168
 21
-18.609
  0
LINE
  8
0
 10
-10.933
 11
-10.849
 20
-18.609
 21
-18.137
  0
LINE
  8
0
 10
-10.849
 11
-10.838
 20
-18.137
 21
-18.119
  0
LINE
  8
0
 10
-10.838
 11
-11.389
 20
-18.119
 21
-17.778
  0
LINE
  8
0
 10
-11.389
 11
-11.4
 20
-17.778
 21
-17.796
  0
LINE
  8
0
 10
-11.4
 11
-11.785
 20
-17.796
 21
-18.081
  0
LINE
  8
0
 10
-11.785
 11
-12.257
 20
-18.081
 21
-18.389
  0
LINE
  8
0
 10
-12.257
 11
-12.82
 20
-18.389
 21
-18.705
  0
LINE
  8
0
 10
-12.82
 11
-13.478
 20
-18.705
 21
-19.021
  0
LINE
  8
0
 10
-13.478
 11
-14.231
 20
-19.021
 21
-19.325
  0
LINE
  8
0
 10
-14.231
 11
-14.693
 20
-19.325
 21
-18.977
  0
LINE
  8
0
 10
-14.693
 11
-14.606
 20
-18.977
 21
-18.169
  0
LINE
  8
0
 10
-14.606
 11
-14.483
 20
-18.169
 21
-17.45
  0
LINE
  8
0
 10
-14.483
 11
-14.333
 20
-17.45
 21
-16.821
  0
LINE
  8
0
 10
-14.333
 11
-14.166
 20
-16.821
 21
-16.283
  0
LINE
  8
0
 10
-14.166
 11
-13.996
 20
-16.283
 21
-15.835
  0
LINE
  8
0
 10
-13.996
 11
-13.983
 20
-15.835
 21
-15.82
  0
LINE
  8
0
 10
-13.983
 11
-14.462
 20
-15.82
 21
-15.383
  0
LINE
  8
0
 10
-14.462
 11
-14.476
 20
-15.383
 21
-15.398
  0
LINE
  8
0
 10
-14.476
 11
-14.906
 20
-15.398
 21
-15.608
  0
LINE
  8
0
 10
-14.906
 11
-15.427
 20
-15.608
 21
-15.824
  0
LINE
  8
0
 10
-15.427
 11
-16.039
 20
-15.824
 21
-16.031
  0
LINE
  8
0
 10
-16.039
 11
-16.743
 20
-16.031
 21
-16.22
  0
LINE
  8
0
 10
-16.743
 11
-17.54
 20
-16.22
 21
-16.381
  0
LINE
  8
0
 10
-17.54
 11
-17.929
 20
-16.381
 21
-15.954
  0
LINE
  8
0
 10
-17.929
 11
-17.696
 20
-15.954
 21
-15.175
  0
LINE
  8
0
 10
-17.696
 11
-17.443
 20
-15.175
 21
-14.491
  0
LINE
  8
0
 10
-17.443
 11
-17.18
 20
-14.491
 21
-13.901
  0
LINE
  8
0
 10
-17.18
 11
-16.917
 20
-13.901
 21
-13.403
  0
LINE
  8
0
 10
-16.917
 11
-16.668
 20
-13.403
 21
-12.993
  0
LINE
  8
0
 10
-16.668
 11
-16.652
 20
-12.993
 21
-12.981
  0
LINE
  8
0
 10
-16.652
 11
-17.042
 20
-12.981
 21
-12.464
  0
LINE
  8
0
 10
-17.042
 11
-17.058
 20
-12.464
 21
-12.476
  0
LINE
  8
0
 10
-17.058
 11
-17.521
 20
-12.476
 21
-12.603
  0
LINE
  8
0
 10
-17.521
 11
-18.072
 20
-12.603
 21
-12.72
  0
LINE
  8
0
 10
-18.072
 11
-18.711
 20
-12.72
 21
-12.811
  0
LINE
  8
0
 10
-18.711
 11
-19.439
 20
-12.811
 21
-12.867
  0
LINE
  8
0
 10
-19.439
 11
-20.251
 20
-12.867
 21
-12.879
  0
LINE
  8
0
 10
-20.251
 11
-20.556
 20
-12.879
 21
-12.388
  0
LINE
  8
0
 10
-20.556
 11
-20.183
 20
-12.388
 21
-11.665
  0
LINE
  8
0
 10
-20.183
 11
-19.809
 20
-11.665
 21
-11.039
  0
LINE
  8
0
 10
-19.809
 11
-19.442
 20
-11.039
 21
-10.507
  0
LINE
  8
0
 10
-19.442
 11
-19.091
 20
-10.507
 21
-10.066
  0
LINE
  8
0
 10
-19.091
 11
-18.771
 20
-10.066
 21
-9.709
  0
LINE
  8
0
 10
-18.771
 11
-18.753
 20
-9.709
 21
-9.7
  0
LINE
  8
0
 10
-18.753
 11
-19.042
 20
-9.7
 21
-9.12
  0
LINE
  8
0
 10
-19.042
 11
-19.06
 20
-9.12
 21
-9.129
  0
LINE
  8
0
 10
-19.06
 11
-19.538
 20
-9.129
 21
-9.169
  0
LINE
  8
0
 10
-19.538
 11
-20.101
 20
-9.169
 21
-9.182
  0
LINE
  8
0
 10
-20.101
 11
-20.747
 20
-9.182
 21
-9.155
  0
LINE
  8
0
 10
-20.747
 11
-21.472
 20
-9.155
 21
-9.077
  0
LINE
  8
0
 10
-21.472
 11
-22.273
 20
-9.077
 21
-8.939
  0
LINE
  8
0
 10
-22.273
 11
-22.482
 20
-8.939
 21
-8.4
  0
LINE
  8
0
 10
-22.482
 11
-21.983
 20
-8.4
 21
-7.758
  0
LINE
  8
0
 10
-21.983
 11
-21.5
 20
-7.758
 21
-7.212
  0
LINE
  8
0
 10
-21.5
 11
-21.041
 20
-7.212
 21
-6.756
  0
LINE
  8
0
 10
-21.041
 11
-20.616
 20
-6.756
 21
-6.387
  0
LINE
  8
0
 10
-20.616
 11
-20.236
 20
-6.387
 21
-6.095
  0
LINE
  8
0
 10
-20.236
 11
-20.216
 20
-6.095
 21
-6.089
  0
LINE
  8
0
 10
-20.216
 11
-20.393
 20
-6.089
 21
-5.466
  0
LINE
  8
0
 10
-20.393
 11
-20.413
 20
-5.466
 21
-5.471
  0
LINE
  8
0
 10
-20.413
 11
-20.89
 20
-5.471
 21
-5.423
  0
LINE
  8
0
 10
-20.89
 11
-21.446
 20
-5.423
 21
-5.333
  0
LINE
  8
0
 10
-21.446
 11
-22.076
 20
-5.333
 21
-5.187
  0
LINE
  8
0
 10
-22.076
 11
-22.774
 20
-5.187
 21
-4.977
  0
LINE
  8
0
 10
-22.774
 11
-23.536
 20
-4.977
 21
-4.694
  0
LINE
  8
0
 10
-23.536
 11
-23.642
 20
-4.694
 21
-4.126
  0
LINE
  8
0
 10
-23.642
 11
-23.034
 20
-4.126
 21
-3.587
  0
LINE
  8
0
 10
-23.034
 11
-22.459
 20
-3.587
 21
-3.138
  0
LINE
  8
0
 10
-22.459
 11
-21.924
 20
-3.138
 21
-2.775
  0
LINE
  8
0
 10
-21.924
 11
-21.439
 20
-2.775
 21
-2.49
  0
LINE
  8
0
 10
-21.439
 11
-21.011
 20
-2.49
 21
-2.272
  0
LINE
  8
0
 10
-21.011
 11
-20.99
 20
-2.272
 21
-2.27
  0
LINE
  8
0
 10
-20.99
 11
-21.051
 20
-2.27
 21
-1.625
  0
LINE
  8
0
 10
-21.051
 11
-21.071
 20
-1.625
 21
-1.627
  0
LINE
  8
0
 10
-21.071
 11
-21.531
 20
-1.627
 21
-1.492
  0
LINE
  8
0
 10
-21.531
 11
-22.061
 20
-1.492
 21
-1.301
  0
LINE
  8
0
 10
-22.061
 11
-22.653
 20
-1.301
 21
-1.042
  0
LINE
  8
0
 10
-22.653
 11
-23.301
 20
-1.042
 21
-0.707
  0
LINE
  8
0
 10
-23.301
 11
-23.998
 20
-0.707
 21
-0.289
  0
LINE
  8
0
 10
-18.133
 11
-17.737
 20
0
 21
3.77
  0
LINE
  8
0
 10
-17.737
 11
-16.566
 20
3.77
 21
7.375
  0
LINE
  8
0
 10
-16.566
 11
-14.67
 20
7.375
 21
10.659
  0
LINE
  8
0
 10
-14.67
 11
-12.134
 20
10.659
 21
13.476
  0
LINE
  8
0
 10
-12.134
 11
-9.067
 20
13.476
 21
15.704
  0
LINE
  8
0
 10
-9.067
 11
-5.604
 20
15.704
 21
17.246
  0
LINE
  8
0
 10
-5.604
 11
-1.895
 20
17.246
 21
18.034
  0
LINE
  8
0
 10
-1.895
 11
1.895
 20
18.034
 21
18.034
  0
LINE
  8
0
 10
1.895
 11
5.604
 20
18.034
 21
17.246
  0
LINE
  8
0
 10
5.604
 11
9.067
 20
17.246
 21
15.704
  0
LINE
  8
0
 10
9.067
 11
12.134
 20
15.704
 21
13.476
  0
LINE
  8
0
 10
12.134
 11
14.67
 20
13.476
 21
10.659
  0
LINE
  8
0
 10
14.67
 11
16.566
 20
10.659
 21
7.375
  0
LINE
  8
0
 10
16.566
 11
17.737
 20
7.375
 21
3.77
  0
LINE
  8
0
 10
17.737
 11
18.133
 20
3.77
 21
0
  0
LINE
  8
0
 10
18.133
 11
17.737
 20
0
 21
-3.77
  0
LINE
  8
0
 10
17.737
 11
16.566
 20
-3.77
 21
-7.375
  0
LINE
  8
0
 10
16.566
 11
14.67
 20
-7.375
 21
-10.659
  0
LINE
  8
0
 10
14.67
 11
12.134
 20
-10.659
 21
-13.476
  0
LINE
  8
0
 10
12.134
 11
9.067
 20
-13.476
 21
-15.704
  0
LINE
  8
0
 10
9.067
 11
5.604
 20
-15.704
 21
-17.246
  0
LINE
  8
0
 10
5.604
 11
1.895
 20
-17.246
 21
-18.034
  0
LINE
  8
0
 10
1.895
 11
-1.895
 20
-18.034
 21
-18.034
  0
LINE
  8
0
 10
-1.895
 11
-5.604
 20
-18.034
 21
-17.246
  0
LINE
  8
0
 10
-5.604
 11
-9.067
 20
-17.246
 21
-15.704
  0
LINE
  8
0
 10
-9.067
 11
-12.134
 20
-15.704
 21
-13.476
  0
LINE
  8
0
 10
-12.134
 11
-14.67
 20
-13.476
 21
-10.659
  0
LINE
  8
0
 10
-14.67
 11
-16.566
 20
-10.659
 21
-7.375
  0
LINE
  8
0
 10
-16.566
 11
-17.737
 20
-7.375
 21
-3.77
  0
LINE
  8
0
 10
-17.737
 11
-18.133
 20
-3.77
 21
0
  0
ENDSEC
  0
SECTION
  2
OBJECTS
  0
DICTIONARY
  0
ENDSEC
  0
EOF
