  0
SECTION
  2
HEADER
  9
$ACADVER
  1
AC1014
  9
$HANDSEED
  5
FFFF
  9
$MEASUREMENT
 70
     1
  0
ENDSEC
  0
SECTION
  2
TABLES
  0
TABLE
  2
VPORT
  5
8
330
0
100
AcDbSymbolTable
 70
     4
  0
VPORT
  5
2E
330
8
100
AcDbSymbolTableRecord
100
AcDbViewportTableRecord
  2
*ACTIVE
 70
     0
 10
0.0
 20
0.0
 11
1.0
 21
1.0
 12
210.0
 22
148.5
 13
0.0
 23
0.0
 14
10.0
 24
10.0
 15
10.0
 25
10.0
 16
0.0
 26
0.0
 36
1.0
 17
0.0
 27
0.0
 37
0.0
 40
341.0
 41
1.24
 42
50.0
 43
0.0
 44
0.0
 50
0.0
 51
0.0
 71
     0
 72
   100
 73
     1
 74
     3
 75
     0
 76
     0
 77
     0
 78
     0
  0
ENDTAB
  0
TABLE
  2
LTYPE
  5
5
330
0
100
AcDbSymbolTable
 70
     1
  0
LTYPE
  5
14
330
5
100
AcDbSymbolTableRecord
100
AcDbLinetypeTableRecord
  2
BYBLOCK
 70
     0
  3

 72
    65
 73
     0
 40
0.0
  0
LTYPE
  5
15
330
5
100
AcDbSymbolTableRecord
100
AcDbLinetypeTableRecord
  2
BYLAYER
 70
     0
  3

 72
    65
 73
     0
 40
0.0
  0
LTYPE
  5
16
330
5
100
AcDbSymbolTableRecord
100
AcDbLinetypeTableRecord
  2
CONTINUOUS
 70
     0
  3
Solid line
 72
    65
 73
     0
 40
0.0
  0
ENDTAB
  0
TABLE
  2
LAYER
  5
2
100
AcDbSymbolTable
 70
2
  0
LAYER
  5
50
100
AcDbSymbolTableRecord
100
AcDbLayerTableRecord
  2
0
 70
0
  6
CONTINUOUS
  0
LAYER
  5
51
100
AcDbSymbolTableRecord
100
AcDbLayerTableRecord
  2
Layer_1
 70
0
  6
CONTINUOUS
  0
ENDTAB
  0
TABLE
  2
STYLE
  5
3
330
0
100
AcDbSymbolTable
 70
     1
  0
STYLE
  5
11
330
3
100
AcDbSymbolTableRecord
100
AcDbTextStyleTableRecord
  2
STANDARD
 70
     0
 40
0.0
 41
1.0
 50
0.0
 71
     0
 42
2.5
  3
txt
  4

  0
ENDTAB
  0
TABLE
  2
VIEW
  5
6
330
0
100
AcDbSymbolTable
 70
     0
  0
ENDTAB
  0
TABLE
  2
UCS
  5
7
330
0
100
AcDbSymbolTable
 70
     0
  0
ENDTAB
  0
TABLE
  2
APPID
  5
9
330
0
100
AcDbSymbolTable
 70
     2
  0
APPID
  5
12
330
9
100
AcDbSymbolTableRecord
100
AcDbRegAppTableRecord
  2
ACAD
 70
     0
  0
ENDTAB
  0
TABLE
  2
DIMSTYLE
  5
A
330
0
100
AcDbSymbolTable
 70
     1
  0
DIMSTYLE
105
27
330
A
100
AcDbSymbolTableRecord
100
AcDbDimStyleTableRecord
  2
ISO-25
 70
     0
  3

  4

  5

  6

  7

 40
1.0
 41
2.5
 42
0.625
 43
3.75
 44
1.25
 45
0.0
 46
0.0
 47
0.0
 48
0.0
140
2.5
141
2.5
142
0.0
143
0.03937007874016
144
1.0
145
0.0
146
1.0
147
0.625
 71
     0
 72
     0
 73
     0
 74
     0
 75
     0
 76
     0
 77
     1
 78
     8
170
     0
171
     3
172
     1
173
     0
174
     0
175
     0
176
     0
177
     0
178
     0
270
     2
271
     2
272
     2
273
     2
274
     3
340
11
275
     0
280
     0
281
     0
282
     0
283
     0
284
     8
285
     0
286
     0
287
     3
288
     0
  0
ENDTAB
  0
TABLE
  2
BLOCK_RECORD
  5
1
330
0
100
AcDbSymbolTable
 70
     1
  0
BLOCK_RECORD
  5
1F
330
1
100
AcDbSymbolTableRecord
100
AcDbBlockTableRecord
  2
*MODEL_SPACE
  0
BLOCK_RECORD
  5
1B
330
1
100
AcDbSymbolTableRecord
100
AcDbBlockTableRecord
  2
*PAPER_SPACE
  0
ENDTAB
  0
ENDSEC
  0
SECTION
  2
BLOCKS
  0
BLOCK
  5
20
330
1F
100
AcDbEntity
  8
0
100
AcDbBlockBegin
  2
*MODEL_SPACE
 70
     0
 10
0.0
 20
0.0
 30
0.0
  3
*MODEL_SPACE
  1

  0
ENDBLK
  5
21
330
1F
100
AcDbEntity
  8
0
100
AcDbBlockEnd
  0
BLOCK
  5
1C
330
1B
100
AcDbEntity
 67
     1
  8
0
100
AcDbBlockBegin
  2
*PAPER_SPACE
  1

  0
ENDBLK
  5
1D
330
1B
100
AcDbEntity
 67
     1
  8
0
100
AcDbBlockEnd
  0
ENDSEC
  0
SECTION
  2
ENTITIES
  0
SPLINE
  5
100
100
AcDbEntity
  8
Layer_1
 62
7
100
AcDbSpline
 70
0
 71
3
 72
10
 73
6
 74
4
 40
0.000000
 40
0.000000
 40
0.000000
 40
0.000000
 40
0.158133
 40
0.325662
 40
0.490581
 40
0.490581
 40
0.490581
 40
0.490581
 10
14.855263
 20
24.157237
 30
0.0
 10
14.802629
 20
24.152151
 30
0.0
 10
14.694234
 20
24.141676
 30
0.0
 10
14.540002
 20
24.077877
 30
0.0
 10
14.454041
 20
24.007385
 30
0.0
 10
14.411398
 20
23.972416
 30
0.0
 11
14.855263
 21
24.157237
 31
0.0
 11
14.698779
 21
24.134462
 31
0.0
 11
14.543894
 21
24.070616
 31
0.0
 11
14.411398
 21
23.972416
 31
0.0
  0
LWPOLYLINE
  5
101
100
AcDbEntity
  8
Layer_1
 62
7
100
AcDbPolyline
 90
2
 70
0
 10
14.411398
 20
23.972416
 30
0.0
 10
9.557952
 20
19.119252
 30
0.0
  0
SPLINE
  5
102
100
AcDbEntity
  8
Layer_1
 62
7
100
AcDbSpline
 70
0
 71
3
 72
22
 73
18
 74
16
 40
0.000000
 40
0.000000
 40
0.000000
 40
0.000000
 40
0.018332
 40
0.035892
 40
0.052732
 40
2.067293
 40
4.161448
 40
6.312886
 40
10.518945
 40
14.610609
 40
18.822777
 40
23.026855
 40
27.105453
 40
31.308834
 40
33.410327
 40
35.515360
 40
37.481406
 40
37.481406
 40
37.481406
 40
37.481406
 10
9.557952
 20
19.119252
 30
0.0
 10
9.553486
 20
19.115081
 30
0.0
 10
9.544741
 20
19.106916
 30
0.0
 10
9.532338
 20
19.094450
 30
0.0
 10
9.073875
 20
18.588112
 30
0.0
 10
8.180414
 20
17.542784
 30
0.0
 10
7.080245
 20
15.738391
 30
0.0
 10
6.522461
 20
12.915437
 30
0.0
 10
7.564729
 20
9.380170
 30
0.0
 10
10.632340
 20
6.318147
 30
0.0
 10
14.852297
 20
5.174701
 30
0.0
 10
19.069248
 20
6.315868
 30
0.0
 10
22.124287
 20
9.384190
 30
0.0
 10
23.132926
 20
12.904686
 30
0.0
 10
22.622347
 20
15.699732
 30
0.0
 10
21.708454
 20
17.573369
 30
0.0
 10
20.834801
 20
18.615821
 30
0.0
 10
20.412888
 20
19.119252
 30
0.0
 11
9.557952
 21
19.119252
 31
0.0
 11
9.544632
 21
19.106657
 31
0.0
 11
9.532272
 21
19.094184
 31
0.0
 11
9.520874
 21
19.081787
 31
0.0
 11
8.237978
 21
17.528522
 31
0.0
 11
7.203673
 21
15.707616
 31
0.0
 11
6.778732
 21
13.598562
 31
0.0
 11
7.886281
 21
9.540943
 31
0.0
 11
10.788615
 21
6.656819
 31
0.0
 11
14.855263
 21
5.559216
 31
0.0
 11
18.913531
 21
6.656819
 31
0.0
 11
21.797417
 21
9.540943
 31
0.0
 11
22.894750
 21
13.598562
 31
0.0
 11
22.530861
 21
15.668309
 31
0.0
 11
21.615447
 21
17.563879
 31
0.0
 11
20.412888
 21
19.119252
 31
0.0
  0
LWPOLYLINE
  5
103
100
AcDbEntity
  8
Layer_1
 62
7
100
AcDbPolyline
 90
2
 70
0
 10
20.412888
 20
19.119252
 30
0.0
 10
15.263038
 20
23.972416
 30
0.0
  0
LWPOLYLINE
  5
104
100
AcDbEntity
  8
Layer_1
 62
7
100
AcDbPolyline
 90
2
 70
0
 10
14.855263
 20
24.157237
 30
0.0
 10
14.855263
 20
24.157237
 30
0.0
  0
SPLINE
  5
105
100
AcDbEntity
  8
Layer_1
 62
7
100
AcDbSpline
 70
0
 71
3
 72
10
 73
6
 74
4
 40
0.000000
 40
0.000000
 40
0.000000
 40
0.000000
 40
0.155125
 40
0.306590
 40
0.457749
 40
0.457749
 40
0.457749
 40
0.457749
 10
15.263038
 20
23.972416
 30
0.0
 10
15.223903
 20
24.006292
 30
0.0
 10
15.146556
 20
24.073245
 30
0.0
 10
15.006827
 20
24.142509
 30
0.0
 10
14.905750
 20
24.152331
 30
0.0
 10
14.855263
 20
24.157237
 30
0.0
 11
15.263038
 21
23.972416
 31
0.0
 11
15.141475
 21
24.068780
 31
0.0
 11
15.004554
 21
24.133545
 31
0.0
 11
14.855263
 21
24.157237
 31
0.0
  0
LWPOLYLINE
  5
106
100
AcDbEntity
  8
Layer_1
 62
7
100
AcDbPolyline
 90
2
 70
0
 10
7.149149
 20
25.939152
 30
0.0
 10
22.227896
 20
25.939152
 30
0.0
  0
SPLINE
  5
107
100
AcDbEntity
  8
Layer_1
 62
7
100
AcDbSpline
 70
0
 71
3
 72
13
 73
9
 74
7
 40
0.000000
 40
0.000000
 40
0.000000
 40
0.000000
 40
0.066745
 40
0.130845
 40
0.194628
 40
0.230933
 40
0.262880
 40
0.293391
 40
0.293391
 40
0.293391
 40
0.293391
 10
22.227896
 20
25.939152
 30
0.0
 10
22.250032
 20
25.940827
 30
0.0
 10
22.293427
 20
25.944110
 30
0.0
 10
22.358595
 20
25.951790
 30
0.0
 10
22.407781
 20
25.977801
 30
0.0
 10
22.443762
 20
26.003256
 30
0.0
 10
22.467064
 20
26.026648
 30
0.0
 10
22.481364
 20
26.041764
 30
0.0
 10
22.488350
 20
26.049148
 30
0.0
 11
22.227896
 21
25.939152
 31
0.0
 11
22.294412
 21
25.944666
 31
0.0
 11
22.357568
 21
25.955625
 31
0.0
 11
22.414913
 21
25.983551
 31
0.0
 11
22.444243
 21
26.004947
 31
0.0
 11
22.467289
 21
26.027072
 31
0.0
 11
22.488350
 21
26.049148
 31
0.0
  0
LWPOLYLINE
  5
108
100
AcDbEntity
  8
Layer_1
 62
7
100
AcDbPolyline
 90
2
 70
0
 10
22.488350
 20
26.049148
 30
0.0
 10
25.415313
 20
28.976218
 30
0.0
  0
SPLINE
  5
109
100
AcDbEntity
  8
Layer_1
 62
7
100
AcDbSpline
 70
0
 71
3
 72
19
 73
15
 74
13
 40
0.000000
 40
0.000000
 40
0.000000
 40
0.000000
 40
0.144706
 40
0.289747
 40
0.434855
 40
0.551944
 40
0.669567
 40
0.787561
 40
0.972412
 40
1.160365
 40
1.349708
 40
1.362073
 40
1.374418
 40
1.386810
 40
1.386810
 40
1.386810
 40
1.386810
 10
25.415313
 20
28.976218
 30
0.0
 10
25.444284
 20
29.015507
 30
0.0
 10
25.502291
 20
29.094175
 30
0.0
 10
25.526312
 20
29.242367
 30
0.0
 10
25.499072
 20
29.378292
 30
0.0
 10
25.431763
 20
29.487797
 30
0.0
 10
25.341302
 20
29.566699
 30
0.0
 10
25.208327
 20
29.616084
 30
0.0
 10
25.048191
 20
29.648373
 30
0.0
 10
24.863084
 20
29.681687
 30
0.0
 10
24.732737
 20
29.679127
 30
0.0
 10
24.661421
 20
29.680650
 30
0.0
 10
24.649053
 20
29.681274
 30
0.0
 10
24.640820
 20
29.680689
 30
0.0
 10
24.636696
 20
29.680397
 30
0.0
 11
25.415313
 21
28.976218
 31
0.0
 11
25.491748
 21
29.099091
 31
0.0
 11
25.517453
 21
29.241836
 31
0.0
 11
25.488338
 21
29.383993
 31
0.0
 11
25.427228
 21
29.483869
 31
0.0
 11
25.337887
 21
29.560377
 31
0.0
 11
25.229010
 21
29.605856
 31
0.0
 11
25.048927
 21
29.647571
 31
0.0
 11
24.863052
 21
29.675441
 31
0.0
 11
24.673774
 21
29.680397
 31
0.0
 11
24.661413
 21
29.680710
 31
0.0
 11
24.649072
 21
29.681024
 31
0.0
 11
24.636696
 21
29.680397
 31
0.0
  0
LWPOLYLINE
  5
10a
100
AcDbEntity
  8
Layer_1
 62
7
100
AcDbPolyline
 90
2
 70
0
 10
24.636696
 20
29.680397
 30
0.0
 10
7.149149
 20
29.680397
 30
0.0
  0
SPLINE
  5
10b
100
AcDbEntity
  8
Layer_1
 62
7
100
AcDbSpline
 70
0
 71
3
 72
10
 73
6
 74
4
 40
0.000000
 40
0.000000
 40
0.000000
 40
0.000000
 40
3.729117
 40
7.363540
 40
11.093484
 40
11.093484
 40
11.093484
 40
11.093484
 10
7.149149
 20
29.680397
 30
0.0
 10
5.900268
 20
29.480867
 30
0.0
 10
3.434219
 20
29.086875
 30
0.0
 10
0.593668
 20
26.246384
 30
0.0
 10
0.199690
 20
23.780032
 30
0.0
 10
0.000147
 20
22.530861
 30
0.0
 11
7.149149
 21
29.680397
 31
0.0
 11
3.551406
 21
28.699295
 31
0.0
 11
0.981443
 21
26.129408
 31
0.0
 11
0.000147
 21
22.530861
 31
0.0
  0
LWPOLYLINE
  5
10c
100
AcDbEntity
  8
Layer_1
 62
7
100
AcDbPolyline
 90
2
 70
0
 10
0.000147
 20
22.530861
 30
0.0
 10
0.001558
 20
5.043701
 30
0.0
  0
SPLINE
  5
10d
100
AcDbEntity
  8
Layer_1
 62
7
100
AcDbSpline
 70
0
 71
3
 72
19
 73
15
 74
13
 40
0.000000
 40
0.000000
 40
0.000000
 40
0.000000
 40
0.011964
 40
0.023633
 40
0.035585
 40
0.225690
 40
0.413871
 40
0.599343
 40
0.716589
 40
0.834008
 40
0.951892
 40
1.096468
 40
1.242029
 40
1.387685
 40
1.387685
 40
1.387685
 40
1.387685
 10
0.001558
 20
5.043701
 30
0.0
 10
0.001264
 20
5.039719
 30
0.0
 10
0.000682
 20
5.031854
 30
0.0
 10
0.001309
 20
5.019993
 30
0.0
 10
0.002871
 20
4.948788
 30
0.0
 10
-0.000162
 20
4.818204
 30
0.0
 10
0.033624
 20
4.632709
 30
0.0
 10
0.063418
 20
4.471839
 30
0.0
 10
0.114928
 20
4.339774
 30
0.0
 10
0.193585
 20
4.249488
 30
0.0
 10
0.302772
 20
4.181483
 30
0.0
 10
0.439013
 20
4.154223
 30
0.0
 10
0.587543
 20
4.178557
 30
0.0
 10
0.666330
 20
4.237272
 30
0.0
 10
0.705736
 20
4.266638
 30
0.0
 11
0.001558
 21
5.043701
 31
0.0
 11
0.000931
 21
5.031753
 31
0.0
 11
0.001244
 21
5.020088
 31
0.0
 11
0.001558
 21
5.008141
 31
0.0
 11
0.006291
 21
4.818094
 31
0.0
 11
0.033859
 21
4.631944
 31
0.0
 11
0.074594
 21
4.451000
 31
0.0
 11
0.120794
 21
4.343240
 31
0.0
 11
0.197250
 21
4.254123
 31
0.0
 11
0.297561
 21
4.192202
 31
0.0
 11
0.439183
 21
4.163124
 31
0.0
 11
0.582397
 21
4.189158
 31
0.0
 11
0.705736
 21
4.266638
 31
0.0
  0
LWPOLYLINE
  5
10e
100
AcDbEntity
  8
Layer_1
 62
7
100
AcDbPolyline
 90
2
 70
0
 10
0.705736
 20
4.266638
 30
0.0
 10
3.631319
 20
7.193565
 30
0.0
  0
SPLINE
  5
10f
100
AcDbEntity
  8
Layer_1
 62
7
100
AcDbSpline
 70
0
 71
3
 72
13
 73
9
 74
7
 40
0.000000
 40
0.000000
 40
0.000000
 40
0.000000
 40
0.038626
 40
0.075799
 40
0.115031
 40
0.174814
 40
0.232108
 40
0.294218
 40
0.294218
 40
0.294218
 40
0.294218
 10
3.631319
 20
7.193565
 30
0.0
 10
3.640264
 20
7.202828
 30
0.0
 10
3.657816
 20
7.221007
 30
0.0
 10
3.685014
 20
7.248014
 30
0.0
 10
3.713703
 20
7.283565
 30
0.0
 10
3.733634
 20
7.332659
 30
0.0
 10
3.743220
 20
7.391917
 30
0.0
 10
3.742942
 20
7.431772
 30
0.0
 10
3.742797
 20
7.452504
 30
0.0
 11
3.631319
 21
7.193565
 31
0.0
 11
3.658249
 21
7.221256
 31
0.0
 11
3.684061
 21
7.248006
 31
0.0
 11
3.708081
 21
7.279025
 31
0.0
 11
3.731692
 21
7.333948
 31
0.0
 11
3.741427
 21
7.390409
 31
0.0
 11
3.742797
 21
7.452504
 31
0.0
  0
LWPOLYLINE
  5
110
100
AcDbEntity
  8
Layer_1
 62
7
100
AcDbPolyline
 90
2
 70
0
 10
3.742797
 20
7.452504
 30
0.0
 10
3.741386
 20
22.530861
 30
0.0
  0
LWPOLYLINE
  5
111
100
AcDbEntity
  8
Layer_1
 62
7
100
AcDbPolyline
 90
2
 70
0
 10
7.149149
 20
25.939152
 30
0.0
 10
7.149149
 20
25.939152
 30
0.0
  0
SPLINE
  5
112
100
AcDbEntity
  8
Layer_1
 62
7
100
AcDbSpline
 70
0
 71
3
 72
10
 73
6
 74
4
 40
0.000000
 40
0.000000
 40
0.000000
 40
0.000000
 40
1.797452
 40
3.512962
 40
5.311466
 40
5.311466
 40
5.311466
 40
5.311466
 10
3.741386
 20
22.530861
 30
0.0
 10
3.829617
 20
23.134797
 30
0.0
 10
4.002056
 20
24.315136
 30
0.0
 10
5.364046
 20
25.678193
 30
0.0
 10
6.544819
 20
25.850806
 30
0.0
 10
7.149149
 20
25.939152
 30
0.0
 11
3.741386
 21
22.530861
 31
0.0
 11
4.196765
 21
24.269672
 31
0.0
 11
5.409424
 21
25.483111
 31
0.0
 11
7.149149
 21
25.939152
 31
0.0
  0
LWPOLYLINE
  5
113
100
AcDbEntity
  8
Layer_1
 62
7
100
AcDbPolyline
 90
2
 70
0
 10
22.525287
 20
3.744067
 30
0.0
 10
7.446930
 20
3.744067
 30
0.0
  0
SPLINE
  5
114
100
AcDbEntity
  8
Layer_1
 62
7
100
AcDbSpline
 70
0
 71
3
 72
13
 73
9
 74
7
 40
0.000000
 40
0.000000
 40
0.000000
 40
0.000000
 40
0.057431
 40
0.105556
 40
0.162670
 40
0.202225
 40
0.245076
 40
0.291908
 40
0.291908
 40
0.291908
 40
0.291908
 10
7.446930
 20
3.744067
 30
0.0
 10
7.427807
 20
3.743336
 30
0.0
 10
7.392661
 20
3.741992
 30
0.0
 10
7.338697
 20
3.733557
 30
0.0
 10
7.294397
 20
3.713212
 30
0.0
 10
7.254414
 20
3.689467
 30
0.0
 10
7.219933
 20
3.663449
 30
0.0
 10
7.197951
 20
3.643176
 30
0.0
 10
7.186473
 20
3.632589
 30
0.0
 11
7.446930
 21
3.744067
 31
0.0
 11
7.389600
 21
3.740651
 31
0.0
 11
7.342246
 21
3.732072
 31
0.0
 11
7.289679
 21
3.709743
 31
0.0
 11
7.255734
 21
3.689437
 31
0.0
 11
7.221439
 21
3.663745
 31
0.0
 11
7.186473
 21
3.632589
 31
0.0
  0
LWPOLYLINE
  5
115
100
AcDbEntity
  8
Layer_1
 62
7
100
AcDbPolyline
 90
2
 70
0
 10
7.186473
 20
3.632589
 30
0.0
 10
4.259512
 20
0.705637
 30
0.0
  0
SPLINE
  5
116
100
AcDbEntity
  8
Layer_1
 62
7
100
AcDbSpline
 70
0
 71
3
 72
19
 73
15
 74
13
 40
0.000000
 40
0.000000
 40
0.000000
 40
0.000000
 40
0.144754
 40
0.289759
 40
0.434838
 40
0.552051
 40
0.669811
 40
0.787129
 40
0.971985
 40
1.159983
 40
1.349355
 40
1.361930
 40
1.374348
 40
1.386736
 40
1.386736
 40
1.386736
 40
1.386736
 10
4.259512
 20
0.705637
 30
0.0
 10
4.230541
 20
0.666329
 30
0.0
 10
4.172548
 20
0.587644
 30
0.0
 10
4.148525
 20
0.439478
 30
0.0
 10
4.175703
 20
0.303492
 30
0.0
 10
4.243330
 20
0.194059
 30
0.0
 10
4.333739
 20
0.115398
 30
0.0
 10
4.466227
 20
0.065445
 30
0.0
 10
4.626332
 20
0.032895
 30
0.0
 10
4.811385
 20
0.002624
 30
0.0
 10
4.941936
 20
-0.002879
 30
0.0
 10
5.013272
 20
0.002341
 30
0.0
 10
5.025733
 20
0.001707
 30
0.0
 10
5.033999
 20
0.001540
 30
0.0
 10
5.038127
 20
0.001456
 30
0.0
 11
4.259512
 21
0.705637
 31
0.0
 11
4.183076
 21
0.582709
 31
0.0
 11
4.157370
 21
0.440001
 31
0.0
 11
4.186487
 21
0.297874
 31
0.0
 11
4.247834
 21
0.197997
 31
0.0
 11
4.337325
 21
0.121454
 31
0.0
 11
4.445426
 21
0.075873
 31
0.0
 11
4.625536
 21
0.034255
 31
0.0
 11
4.811463
 21
0.006419
 31
0.0
 11
5.000769
 21
0.001456
 31
0.0
 11
5.013329
 21
0.002083
 31
0.0
 11
5.025742
 21
0.001770
 31
0.0
 11
5.038127
 21
0.001456
 31
0.0
  0
LWPOLYLINE
  5
117
100
AcDbEntity
  8
Layer_1
 62
7
100
AcDbPolyline
 90
2
 70
0
 10
5.038127
 20
0.001456
 30
0.0
 10
22.525287
 20
0.001456
 30
0.0
  0
SPLINE
  5
118
100
AcDbEntity
  8
Layer_1
 62
7
100
AcDbSpline
 70
0
 71
3
 72
10
 73
6
 74
4
 40
0.000000
 40
0.000000
 40
0.000000
 40
0.000000
 40
3.729625
 40
7.364863
 40
11.094905
 40
11.094905
 40
11.094905
 40
11.094905
 10
22.525287
 20
0.001456
 30
0.0
 10
23.774300
 20
0.201109
 30
0.0
 10
26.240717
 20
0.595362
 30
0.0
 10
29.081808
 20
3.436173
 30
0.0
 10
29.475368
 20
5.902953
 30
0.0
 10
29.674682
 20
7.152219
 30
0.0
 11
22.525287
 21
0.001456
 31
0.0
 11
26.123462
 21
0.982907
 31
0.0
 11
28.693955
 21
3.553416
 31
0.0
 11
29.674682
 21
7.152219
 31
0.0
  0
LWPOLYLINE
  5
119
100
AcDbEntity
  8
Layer_1
 62
7
100
AcDbPolyline
 90
2
 70
0
 10
29.674682
 20
7.152219
 30
0.0
 10
29.673271
 20
24.638037
 30
0.0
  0
SPLINE
  5
11a
100
AcDbEntity
  8
Layer_1
 62
7
100
AcDbSpline
 70
0
 71
3
 72
19
 73
15
 74
13
 40
0.000000
 40
0.000000
 40
0.000000
 40
0.000000
 40
0.012423
 40
0.024899
 40
0.037489
 40
0.226823
 40
0.414755
 40
0.599575
 40
0.716962
 40
0.834646
 40
0.951788
 40
1.096959
 40
1.242065
 40
1.387375
 40
1.387375
 40
1.387375
 40
1.387375
 10
29.673271
 20
24.638037
 30
0.0
 10
29.673563
 20
24.642171
 30
0.0
 10
29.674148
 20
24.650458
 30
0.0
 10
29.673522
 20
24.662955
 30
0.0
 10
29.672032
 20
24.734387
 30
0.0
 10
29.674581
 20
24.864808
 30
0.0
 10
29.641199
 20
25.049855
 30
0.0
 10
29.609369
 20
25.209927
 30
0.0
 10
29.559360
 20
25.342427
 30
0.0
 10
29.480772
 20
25.432844
 30
0.0
 10
29.371335
 20
25.500443
 30
0.0
 10
29.235310
 20
25.527637
 30
0.0
 10
29.086842
 20
25.503293
 30
0.0
 10
29.008359
 20
25.444606
 30
0.0
 10
28.969089
 20
25.415243
 30
0.0
 11
29.673271
 21
24.638037
 31
0.0
 11
29.673898
 21
24.650443
 31
0.0
 11
29.673584
 21
24.662916
 31
0.0
 11
29.673271
 21
24.675502
 31
0.0
 11
29.668326
 21
24.864772
 31
0.0
 11
29.640489
 21
25.050630
 31
0.0
 11
29.598868
 21
25.230703
 31
0.0
 11
29.553298
 21
25.338884
 31
0.0
 11
29.476825
 21
25.428335
 31
0.0
 11
29.377008
 21
25.489642
 31
0.0
 11
29.234782
 21
25.518738
 31
0.0
 11
29.092030
 21
25.492705
 31
0.0
 11
28.969089
 21
25.415243
 31
0.0
  0
LWPOLYLINE
  5
11b
100
AcDbEntity
  8
Layer_1
 62
7
100
AcDbPolyline
 90
2
 70
0
 10
28.969089
 20
25.415243
 30
0.0
 10
26.042163
 20
22.488279
 30
0.0
  0
SPLINE
  5
11c
100
AcDbEntity
  8
Layer_1
 62
7
100
AcDbSpline
 70
0
 71
3
 72
13
 73
9
 74
7
 40
0.000000
 40
0.000000
 40
0.000000
 40
0.000000
 40
0.039843
 40
0.078432
 40
0.119897
 40
0.173498
 40
0.230884
 40
0.296048
 40
0.296048
 40
0.296048
 40
0.296048
 10
26.042163
 20
22.488279
 30
0.0
 10
26.032573
 20
22.479081
 30
0.0
 10
26.013696
 20
22.460973
 30
0.0
 10
25.985132
 20
22.433170
 30
0.0
 10
25.954684
 20
22.399928
 30
0.0
 10
25.937886
 20
22.350477
 30
0.0
 10
25.933264
 20
22.291913
 30
0.0
 10
25.932478
 20
22.251062
 30
0.0
 10
25.932059
 20
22.229341
 30
0.0
 11
26.042163
 21
22.488279
 31
0.0
 11
26.013444
 21
22.460663
 31
0.0
 11
25.986011
 21
22.433524
 31
0.0
 11
25.959576
 21
22.401578
 31
0.0
 11
25.940476
 21
22.351495
 31
0.0
 11
25.934001
 21
22.294475
 31
0.0
 11
25.932059
 21
22.229341
 31
0.0
  0
SPLINE
  5
11d
100
AcDbEntity
  8
Layer_1
 62
7
100
AcDbSpline
 70
0
 71
3
 72
10
 73
6
 74
4
 40
0.000000
 40
0.000000
 40
0.000000
 40
0.000000
 40
1.797617
 40
3.513216
 40
5.311980
 40
5.311980
 40
5.311980
 40
5.311980
 10
25.933188
 20
7.152219
 30
0.0
 10
25.845255
 20
6.548127
 30
0.0
 10
25.673399
 20
5.367503
 30
0.0
 10
24.310573
 20
4.004813
 30
0.0
 10
23.129718
 20
3.832343
 30
0.0
 10
22.525318
 20
3.744067
 30
0.0
 11
25.933188
 21
7.152219
 31
0.0
 11
25.478402
 21
5.413083
 31
0.0
 11
24.265370
 21
4.199892
 31
0.0
 11
22.525318
 21
3.744067
 31
0.0
  0
LWPOLYLINE
  5
11e
100
AcDbEntity
  8
Layer_1
 62
7
100
AcDbPolyline
 90
2
 70
0
 10
25.932059
 20
22.229341
 30
0.0
 10
25.933188
 20
7.152219
 30
0.0
  0
ENDSEC
  0
SECTION
  2
OBJECTS
  0
DICTIONARY
  5
C
330
0
100
AcDbDictionary
  3
ACAD_GROUP
350
D
  3
ACAD_MLINESTYLE
350
17
  0
DICTIONARY
  5
D
330
C
100
AcDbDictionary
  0
DICTIONARY
  5
1A
330
C
100
AcDbDictionary
  0
DICTIONARY
  5
17
330
C
100
AcDbDictionary
  3
STANDARD
350
18
  0
DICTIONARY
  5
19
330
C
100
AcDbDictionary
  0
ENDSEC
  0
EOF
