  0
SECTION
  2
HEADER
  9
$ACADVER
  1
AC1014
  9
$HANDSEED
  5
FFFF
  9
$MEASUREMENT
 70
     1
  0
ENDSEC
  0
SECTION
  2
TABLES
  0
TABLE
  2
VPORT
  5
8
330
0
100
AcDbSymbolTable
 70
     4
  0
VPORT
  5
2E
330
8
100
AcDbSymbolTableRecord
100
AcDbViewportTableRecord
  2
*ACTIVE
 70
     0
 10
0.0
 20
0.0
 11
1.0
 21
1.0
 12
210.0
 22
148.5
 13
0.0
 23
0.0
 14
10.0
 24
10.0
 15
10.0
 25
10.0
 16
0.0
 26
0.0
 36
1.0
 17
0.0
 27
0.0
 37
0.0
 40
341.0
 41
1.24
 42
50.0
 43
0.0
 44
0.0
 50
0.0
 51
0.0
 71
     0
 72
   100
 73
     1
 74
     3
 75
     0
 76
     0
 77
     0
 78
     0
  0
ENDTAB
  0
TABLE
  2
LTYPE
  5
5
330
0
100
AcDbSymbolTable
 70
     1
  0
LTYPE
  5
14
330
5
100
AcDbSymbolTableRecord
100
AcDbLinetypeTableRecord
  2
BYBLOCK
 70
     0
  3

 72
    65
 73
     0
 40
0.0
  0
LTYPE
  5
15
330
5
100
AcDbSymbolTableRecord
100
AcDbLinetypeTableRecord
  2
BYLAYER
 70
     0
  3

 72
    65
 73
     0
 40
0.0
  0
LTYPE
  5
16
330
5
100
AcDbSymbolTableRecord
100
AcDbLinetypeTableRecord
  2
CONTINUOUS
 70
     0
  3
Solid line
 72
    65
 73
     0
 40
0.0
  0
ENDTAB
  0
TABLE
  2
LAYER
  5
2
100
AcDbSymbolTable
 70
1
  0
LAYER
  5
50
100
AcDbSymbolTableRecord
100
AcDbLayerTableRecord
  2
0
 70
0
  6
CONTINUOUS
  0
ENDTAB
  0
TABLE
  2
STYLE
  5
3
330
0
100
AcDbSymbolTable
 70
     1
  0
STYLE
  5
11
330
3
100
AcDbSymbolTableRecord
100
AcDbTextStyleTableRecord
  2
STANDARD
 70
     0
 40
0.0
 41
1.0
 50
0.0
 71
     0
 42
2.5
  3
txt
  4

  0
ENDTAB
  0
TABLE
  2
VIEW
  5
6
330
0
100
AcDbSymbolTable
 70
     0
  0
ENDTAB
  0
TABLE
  2
UCS
  5
7
330
0
100
AcDbSymbolTable
 70
     0
  0
ENDTAB
  0
TABLE
  2
APPID
  5
9
330
0
100
AcDbSymbolTable
 70
     2
  0
APPID
  5
12
330
9
100
AcDbSymbolTableRecord
100
AcDbRegAppTableRecord
  2
ACAD
 70
     0
  0
ENDTAB
  0
TABLE
  2
DIMSTYLE
  5
A
330
0
100
AcDbSymbolTable
 70
     1
  0
DIMSTYLE
105
27
330
A
100
AcDbSymbolTableRecord
100
AcDbDimStyleTableRecord
  2
ISO-25
 70
     0
  3

  4

  5

  6

  7

 40
1.0
 41
2.5
 42
0.625
 43
3.75
 44
1.25
 45
0.0
 46
0.0
 47
0.0
 48
0.0
140
2.5
141
2.5
142
0.0
143
0.03937007874016
144
1.0
145
0.0
146
1.0
147
0.625
 71
     0
 72
     0
 73
     0
 74
     0
 75
     0
 76
     0
 77
     1
 78
     8
170
     0
171
     3
172
     1
173
     0
174
     0
175
     0
176
     0
177
     0
178
     0
270
     2
271
     2
272
     2
273
     2
274
     3
340
11
275
     0
280
     0
281
     0
282
     0
283
     0
284
     8
285
     0
286
     0
287
     3
288
     0
  0
ENDTAB
  0
TABLE
  2
BLOCK_RECORD
  5
1
330
0
100
AcDbSymbolTable
 70
     1
  0
BLOCK_RECORD
  5
1F
330
1
100
AcDbSymbolTableRecord
100
AcDbBlockTableRecord
  2
*MODEL_SPACE
  0
BLOCK_RECORD
  5
1B
330
1
100
AcDbSymbolTableRecord
100
AcDbBlockTableRecord
  2
*PAPER_SPACE
  0
ENDTAB
  0
ENDSEC
  0
SECTION
  2
BLOCKS
  0
BLOCK
  5
20
330
1F
100
AcDbEntity
  8
0
100
AcDbBlockBegin
  2
*MODEL_SPACE
 70
     0
 10
0.0
 20
0.0
 30
0.0
  3
*MODEL_SPACE
  1

  0
ENDBLK
  5
21
330
1F
100
AcDbEntity
  8
0
100
AcDbBlockEnd
  0
BLOCK
  5
1C
330
1B
100
AcDbEntity
 67
     1
  8
0
100
AcDbBlockBegin
  2
*PAPER_SPACE
  1

  0
ENDBLK
  5
1D
330
1B
100
AcDbEntity
 67
     1
  8
0
100
AcDbBlockEnd
  0
ENDSEC
  0
SECTION
  2
ENTITIES
  0
SPLINE
  5
100
100
AcDbEntity
  8
0
 62
7
100
AcDbSpline
 70
8
 71
3
 72
8
 73
4
 74
0
 40
0
 40
0
 40
0
 40
0
 40
1
 40
1
 40
1
 40
1
 10
14.991680
 20
24.568503
 30
0.0
 10
14.841326
 20
24.568503
 30
0.0
 10
14.662185
 20
24.496818
 30
0.0
 10
14.547815
 20
24.383682
 30
0.0
  0
SPLINE
  5
101
100
AcDbEntity
  8
0
 62
7
100
AcDbSpline
 70
8
 71
3
 72
8
 73
4
 74
0
 40
0
 40
0
 40
0
 40
0
 40
1
 40
1
 40
1
 40
1
 10
9.694369
 20
19.530519
 30
0.0
 10
9.680575
 20
19.517854
 30
0.0
 10
9.668192
 20
19.505436
 30
0.0
 10
9.657292
 20
19.493054
 30
0.0
  0
SPLINE
  5
102
100
AcDbEntity
  8
0
 62
7
100
AcDbSpline
 70
8
 71
3
 72
8
 73
4
 74
0
 40
0
 40
0
 40
0
 40
0
 40
1
 40
1
 40
1
 40
1
 10
9.657292
 20
19.493054
 30
0.0
 10
8.370358
 20
18.066773
 30
0.0
 10
6.915150
 20
16.269794
 30
0.0
 10
6.915150
 20
14.009829
 30
0.0
  0
SPLINE
  5
103
100
AcDbEntity
  8
0
 62
7
100
AcDbSpline
 70
8
 71
3
 72
8
 73
4
 74
0
 40
0
 40
0
 40
0
 40
0
 40
1
 40
1
 40
1
 40
1
 10
6.915150
 20
14.009829
 30
0.0
 10
6.915150
 20
9.569803
 30
0.0
 10
10.553030
 20
5.970482
 30
0.0
 10
14.991680
 20
5.970482
 30
0.0
  0
SPLINE
  5
104
100
AcDbEntity
  8
0
 62
7
100
AcDbSpline
 70
8
 71
3
 72
8
 73
4
 74
0
 40
0
 40
0
 40
0
 40
0
 40
1
 40
1
 40
1
 40
1
 10
14.991680
 20
5.970482
 30
0.0
 10
19.433081
 20
5.970482
 30
0.0
 10
23.031168
 20
9.569803
 30
0.0
 10
23.031168
 20
14.009829
 30
0.0
  0
SPLINE
  5
105
100
AcDbEntity
  8
0
 62
7
100
AcDbSpline
 70
8
 71
3
 72
8
 73
4
 74
0
 40
0
 40
0
 40
0
 40
0
 40
1
 40
1
 40
1
 40
1
 10
23.031168
 20
14.009829
 30
0.0
 10
23.031168
 20
16.111326
 30
0.0
 10
21.807311
 20
18.200582
 30
0.0
 10
20.549306
 20
19.530519
 30
0.0
  0
LWPOLYLINE
  5
106
100
AcDbEntity
  8
0
 62
7
100
AcDbPolyline
 90
2
 70
0
 10
14.547815
 20
24.383682
 30
0.0
 10
9.694369
 20
19.530519
 30
0.0
  0
SPLINE
  5
107
100
AcDbEntity
  8
0
 62
7
100
AcDbSpline
 70
8
 71
3
 72
8
 73
4
 74
0
 40
0
 40
0
 40
0
 40
0
 40
1
 40
1
 40
1
 40
1
 10
15.399456
 20
24.383682
 30
0.0
 10
15.286567
 20
24.492691
 30
0.0
 10
15.146161
 20
24.568503
 30
0.0
 10
14.991680
 20
24.568503
 30
0.0
  0
LWPOLYLINE
  5
108
100
AcDbEntity
  8
0
 62
7
100
AcDbPolyline
 90
2
 70
0
 10
20.549306
 20
19.530519
 30
0.0
 10
15.399456
 20
24.383682
 30
0.0
  0
LWPOLYLINE
  5
109
100
AcDbEntity
  8
0
 62
7
100
AcDbPolyline
 90
2
 70
0
 10
14.991680
 20
24.568503
 30
0.0
 10
14.991680
 20
24.568503
 30
0.0
  0
SPLINE
  5
10a
100
AcDbEntity
  8
0
 62
7
100
AcDbSpline
 70
8
 71
3
 72
8
 73
4
 74
0
 40
0
 40
0
 40
0
 40
0
 40
1
 40
1
 40
1
 40
1
 10
22.364312
 20
26.350419
 30
0.0
 10
22.431692
 20
26.357051
 30
0.0
 10
22.496604
 20
26.383227
 30
0.0
 10
22.550226
 20
26.423479
 30
0.0
  0
SPLINE
  5
10b
100
AcDbEntity
  8
0
 62
7
100
AcDbSpline
 70
8
 71
3
 72
8
 73
4
 74
0
 40
0
 40
0
 40
0
 40
0
 40
1
 40
1
 40
1
 40
1
 10
22.550226
 20
26.423479
 30
0.0
 10
22.576402
 20
26.434344
 30
0.0
 10
22.601061
 20
26.445245
 30
0.0
 10
22.624768
 20
26.460415
 30
0.0
  0
LWPOLYLINE
  5
10c
100
AcDbEntity
  8
0
 62
7
100
AcDbPolyline
 90
2
 70
0
 10
7.285567
 20
26.350419
 30
0.0
 10
22.364312
 20
26.350419
 30
0.0
  0
SPLINE
  5
10d
100
AcDbEntity
  8
0
 62
7
100
AcDbSpline
 70
8
 71
3
 72
8
 73
4
 74
0
 40
0
 40
0
 40
0
 40
0
 40
1
 40
1
 40
1
 40
1
 10
25.551730
 20
29.387482
 30
0.0
 10
25.652166
 20
29.493598
 30
0.0
 10
25.682646
 20
29.660215
 30
0.0
 10
25.624755
 20
29.795258
 30
0.0
  0
SPLINE
  5
10e
100
AcDbEntity
  8
0
 62
7
100
AcDbSpline
 70
8
 71
3
 72
8
 73
4
 74
0
 40
0
 40
0
 40
0
 40
0
 40
1
 40
1
 40
1
 40
1
 10
25.624755
 20
29.795258
 30
0.0
 10
25.580657
 20
29.904267
 30
0.0
 10
25.481174
 20
29.989709
 30
0.0
 10
25.365428
 20
30.017120
 30
0.0
  0
SPLINE
  5
10f
100
AcDbEntity
  8
0
 62
7
100
AcDbSpline
 70
8
 71
3
 72
8
 73
4
 74
0
 40
0
 40
0
 40
0
 40
0
 40
1
 40
1
 40
1
 40
1
 10
25.365428
 20
30.017120
 30
0.0
 10
25.189039
 20
30.062734
 30
0.0
 10
25.000373
 20
30.101187
 30
0.0
 10
24.810191
 20
30.091662
 30
0.0
  0
SPLINE
  5
110
100
AcDbEntity
  8
0
 62
7
100
AcDbSpline
 70
8
 71
3
 72
8
 73
4
 74
0
 40
0
 40
0
 40
0
 40
0
 40
1
 40
1
 40
1
 40
1
 10
24.810191
 20
30.091662
 30
0.0
 10
24.797808
 20
30.091662
 30
0.0
 10
24.785532
 20
30.093038
 30
0.0
 10
24.773114
 20
30.091662
 30
0.0
  0
LWPOLYLINE
  5
111
100
AcDbEntity
  8
0
 62
7
100
AcDbPolyline
 90
2
 70
0
 10
22.624768
 20
26.460415
 30
0.0
 10
25.551730
 20
29.387482
 30
0.0
  0
SPLINE
  5
112
100
AcDbEntity
  8
0
 62
7
100
AcDbSpline
 70
8
 71
3
 72
8
 73
4
 74
0
 40
0
 40
0
 40
0
 40
0
 40
1
 40
1
 40
1
 40
1
 10
7.285567
 20
30.091662
 30
0.0
 10
3.360896
 20
30.091662
 30
0.0
 10
0.136563
 20
26.868296
 30
0.0
 10
0.136563
 20
22.942127
 30
0.0
  0
LWPOLYLINE
  5
113
100
AcDbEntity
  8
0
 62
7
100
AcDbPolyline
 90
2
 70
0
 10
24.773114
 20
30.091662
 30
0.0
 10
7.285567
 20
30.091662
 30
0.0
  0
SPLINE
  5
114
100
AcDbEntity
  8
0
 62
7
100
AcDbSpline
 70
8
 71
3
 72
8
 73
4
 74
0
 40
0
 40
0
 40
0
 40
0
 40
1
 40
1
 40
1
 40
1
 10
0.137942
 20
5.454967
 30
0.0
 10
0.136563
 20
5.442691
 30
0.0
 10
0.137942
 20
5.431684
 30
0.0
 10
0.137942
 20
5.419407
 30
0.0
  0
SPLINE
  5
115
100
AcDbEntity
  8
0
 62
7
100
AcDbSpline
 70
8
 71
3
 72
8
 73
4
 74
0
 40
0
 40
0
 40
0
 40
0
 40
1
 40
1
 40
1
 40
1
 10
0.137942
 20
5.419407
 30
0.0
 10
0.128020
 20
5.227849
 30
0.0
 10
0.166880
 20
5.040171
 30
0.0
 10
0.210978
 20
4.862266
 30
0.0
  0
SPLINE
  5
116
100
AcDbEntity
  8
0
 62
7
100
AcDbSpline
 70
8
 71
3
 72
8
 73
4
 74
0
 40
0
 40
0
 40
0
 40
0
 40
1
 40
1
 40
1
 40
1
 10
0.210978
 20
4.862266
 30
0.0
 10
0.239916
 20
4.748036
 30
0.0
 10
0.323839
 20
4.648941
 30
0.0
 10
0.433945
 20
4.603468
 30
0.0
  0
SPLINE
  5
117
100
AcDbEntity
  8
0
 62
7
100
AcDbSpline
 70
8
 71
3
 72
8
 73
4
 74
0
 40
0
 40
0
 40
0
 40
0
 40
1
 40
1
 40
1
 40
1
 10
0.433945
 20
4.603468
 30
0.0
 10
0.567612
 20
4.545612
 30
0.0
 10
0.735873
 20
4.575916
 30
0.0
 10
0.842119
 20
4.677904
 30
0.0
  0
LWPOLYLINE
  5
118
100
AcDbEntity
  8
0
 62
7
100
AcDbPolyline
 90
2
 70
0
 10
0.136563
 20
22.942127
 30
0.0
 10
0.137942
 20
5.454967
 30
0.0
  0
SPLINE
  5
119
100
AcDbEntity
  8
0
 62
7
100
AcDbSpline
 70
8
 71
3
 72
8
 73
4
 74
0
 40
0
 40
0
 40
0
 40
0
 40
1
 40
1
 40
1
 40
1
 10
3.767702
 20
7.604831
 30
0.0
 10
3.782836
 20
7.628114
 30
0.0
 10
3.795113
 20
7.653196
 30
0.0
 10
3.804779
 20
7.679267
 30
0.0
  0
SPLINE
  5
11a
100
AcDbEntity
  8
0
 62
7
100
AcDbSpline
 70
8
 71
3
 72
8
 73
4
 74
0
 40
0
 40
0
 40
0
 40
0
 40
1
 40
1
 40
1
 40
1
 10
3.804779
 20
7.679267
 30
0.0
 10
3.845983
 20
7.731478
 30
0.0
 10
3.872442
 20
7.796389
 30
0.0
 10
3.879180
 20
7.863769
 30
0.0
  0
LWPOLYLINE
  5
11b
100
AcDbEntity
  8
0
 62
7
100
AcDbPolyline
 90
2
 70
0
 10
0.842119
 20
4.677904
 30
0.0
 10
3.767702
 20
7.604831
 30
0.0
  0
SPLINE
  5
11c
100
AcDbEntity
  8
0
 62
7
100
AcDbSpline
 70
8
 71
3
 72
8
 73
4
 74
0
 40
0
 40
0
 40
0
 40
0
 40
1
 40
1
 40
1
 40
1
 10
3.877804
 20
22.942127
 30
0.0
 10
3.877804
 20
24.866282
 30
0.0
 10
5.359047
 20
26.350419
 30
0.0
 10
7.285567
 20
26.350419
 30
0.0
  0
LWPOLYLINE
  5
11d
100
AcDbEntity
  8
0
 62
7
100
AcDbPolyline
 90
2
 70
0
 10
3.879180
 20
7.863769
 30
0.0
 10
3.877804
 20
22.942127
 30
0.0
  0
LWPOLYLINE
  5
11e
100
AcDbEntity
  8
0
 62
7
100
AcDbPolyline
 90
2
 70
0
 10
7.285567
 20
26.350419
 30
0.0
 10
7.285567
 20
26.350419
 30
0.0
  0
SPLINE
  5
11f
100
AcDbEntity
  8
0
 62
7
100
AcDbSpline
 70
8
 71
3
 72
8
 73
4
 74
0
 40
0
 40
0
 40
0
 40
0
 40
1
 40
1
 40
1
 40
1
 10
7.583346
 20
4.155334
 30
0.0
 10
7.515966
 20
4.147220
 30
0.0
 10
7.451055
 20
4.121150
 30
0.0
 10
7.397432
 20
4.081321
 30
0.0
  0
SPLINE
  5
120
100
AcDbEntity
  8
0
 62
7
100
AcDbSpline
 70
8
 71
3
 72
8
 73
4
 74
0
 40
0
 40
0
 40
0
 40
0
 40
1
 40
1
 40
1
 40
1
 10
7.397432
 20
4.081321
 30
0.0
 10
7.371256
 20
4.071408
 30
0.0
 10
7.346174
 20
4.059026
 30
0.0
 10
7.322891
 20
4.043856
 30
0.0
  0
LWPOLYLINE
  5
121
100
AcDbEntity
  8
0
 62
7
100
AcDbPolyline
 90
2
 70
0
 10
22.661704
 20
4.155334
 30
0.0
 10
7.583346
 20
4.155334
 30
0.0
  0
SPLINE
  5
122
100
AcDbEntity
  8
0
 62
7
100
AcDbSpline
 70
8
 71
3
 72
8
 73
4
 74
0
 40
0
 40
0
 40
0
 40
0
 40
1
 40
1
 40
1
 40
1
 10
4.395929
 20
1.116901
 30
0.0
 10
4.295493
 20
1.010652
 30
0.0
 10
4.265013
 20
0.844187
 30
0.0
 10
4.322904
 20
0.709140
 30
0.0
  0
SPLINE
  5
123
100
AcDbEntity
  8
0
 62
7
100
AcDbSpline
 70
8
 71
3
 72
8
 73
4
 74
0
 40
0
 40
0
 40
0
 40
0
 40
1
 40
1
 40
1
 40
1
 10
4.322904
 20
0.709140
 30
0.0
 10
4.367001
 20
0.600135
 30
0.0
 10
4.467613
 20
0.514696
 30
0.0
 10
4.581842
 20
0.487137
 30
0.0
  0
SPLINE
  5
124
100
AcDbEntity
  8
0
 62
7
100
AcDbSpline
 70
8
 71
3
 72
8
 73
4
 74
0
 40
0
 40
0
 40
0
 40
0
 40
1
 40
1
 40
1
 40
1
 10
4.581842
 20
0.487137
 30
0.0
 10
4.758231
 20
0.441660
 30
0.0
 10
4.947003
 20
0.403214
 30
0.0
 10
5.137185
 20
0.412722
 30
0.0
  0
SPLINE
  5
125
100
AcDbEntity
  8
0
 62
7
100
AcDbSpline
 70
8
 71
3
 72
8
 73
4
 74
0
 40
0
 40
0
 40
0
 40
0
 40
1
 40
1
 40
1
 40
1
 10
5.137185
 20
0.412722
 30
0.0
 10
5.149850
 20
0.414239
 30
0.0
 10
5.162127
 20
0.412722
 30
0.0
 10
5.174544
 20
0.412722
 30
0.0
  0
LWPOLYLINE
  5
126
100
AcDbEntity
  8
0
 62
7
100
AcDbPolyline
 90
2
 70
0
 10
7.322891
 20
4.043856
 30
0.0
 10
4.395929
 20
1.116901
 30
0.0
  0
SPLINE
  5
127
100
AcDbEntity
  8
0
 62
7
100
AcDbSpline
 70
8
 71
3
 72
8
 73
4
 74
0
 40
0
 40
0
 40
0
 40
0
 40
1
 40
1
 40
1
 40
1
 10
22.661704
 20
0.412722
 30
0.0
 10
26.586356
 20
0.412722
 30
0.0
 10
29.812615
 20
3.637456
 30
0.0
 10
29.811098
 20
7.563485
 30
0.0
  0
LWPOLYLINE
  5
128
100
AcDbEntity
  8
0
 62
7
100
AcDbPolyline
 90
2
 70
0
 10
5.174544
 20
0.412722
 30
0.0
 10
22.661704
 20
0.412722
 30
0.0
  0
SPLINE
  5
129
100
AcDbEntity
  8
0
 62
7
100
AcDbSpline
 70
8
 71
3
 72
8
 73
4
 74
0
 40
0
 40
0
 40
0
 40
0
 40
1
 40
1
 40
1
 40
1
 10
29.809722
 20
25.049304
 30
0.0
 10
29.811098
 20
25.061686
 30
0.0
 10
29.809722
 20
25.074104
 30
0.0
 10
29.809722
 20
25.086769
 30
0.0
  0
SPLINE
  5
12a
100
AcDbEntity
  8
0
 62
7
100
AcDbSpline
 70
8
 71
3
 72
8
 73
4
 74
0
 40
0
 40
0
 40
0
 40
0
 40
1
 40
1
 40
1
 40
1
 10
29.809722
 20
25.086769
 30
0.0
 10
29.819247
 20
25.276951
 30
0.0
 10
29.780794
 20
25.465581
 30
0.0
 10
29.735321
 20
25.641970
 30
0.0
  0
SPLINE
  5
12b
100
AcDbEntity
  8
0
 62
7
100
AcDbSpline
 70
8
 71
3
 72
8
 73
4
 74
0
 40
0
 40
0
 40
0
 40
0
 40
1
 40
1
 40
1
 40
1
 10
29.735321
 20
25.641970
 30
0.0
 10
29.707734
 20
25.756376
 30
0.0
 10
29.622432
 20
25.856812
 30
0.0
 10
29.513459
 20
25.900909
 30
0.0
  0
SPLINE
  5
12c
100
AcDbEntity
  8
0
 62
7
100
AcDbSpline
 70
8
 71
3
 72
8
 73
4
 74
0
 40
0
 40
0
 40
0
 40
0
 40
1
 40
1
 40
1
 40
1
 10
29.513459
 20
25.900909
 30
0.0
 10
29.378275
 20
25.958800
 30
0.0
 10
29.211799
 20
25.928461
 30
0.0
 10
29.105542
 20
25.826508
 30
0.0
  0
LWPOLYLINE
  5
12d
100
AcDbEntity
  8
0
 62
7
100
AcDbPolyline
 90
2
 70
0
 10
29.811098
 20
7.563485
 30
0.0
 10
29.809722
 20
25.049304
 30
0.0
  0
SPLINE
  5
12e
100
AcDbEntity
  8
0
 62
7
100
AcDbSpline
 70
8
 71
3
 72
8
 73
4
 74
0
 40
0
 40
0
 40
0
 40
0
 40
1
 40
1
 40
1
 40
1
 10
26.178581
 20
22.899546
 30
0.0
 10
26.163446
 20
22.877639
 30
0.0
 10
26.151029
 20
22.851604
 30
0.0
 10
26.141539
 20
22.826521
 30
0.0
  0
SPLINE
  5
12f
100
AcDbEntity
  8
0
 62
7
100
AcDbSpline
 70
8
 71
3
 72
8
 73
4
 74
0
 40
0
 40
0
 40
0
 40
0
 40
1
 40
1
 40
1
 40
1
 10
26.141539
 20
22.826521
 30
0.0
 10
26.101287
 20
22.772899
 30
0.0
 10
26.075252
 20
22.707988
 30
0.0
 10
26.068479
 20
22.640607
 30
0.0
  0
LWPOLYLINE
  5
130
100
AcDbEntity
  8
0
 62
7
100
AcDbPolyline
 90
2
 70
0
 10
29.105542
 20
25.826508
 30
0.0
 10
26.178581
 20
22.899546
 30
0.0
  0
SPLINE
  5
131
100
AcDbEntity
  8
0
 62
7
100
AcDbSpline
 70
8
 71
3
 72
8
 73
4
 74
0
 40
0
 40
0
 40
0
 40
0
 40
1
 40
1
 40
1
 40
1
 10
26.069572
 20
7.563485
 30
0.0
 10
26.070983
 20
5.638518
 30
0.0
 10
24.588188
 20
4.155334
 30
0.0
 10
22.661704
 20
4.155334
 30
0.0
  0
SPLINE
  5
132
100
AcDbEntity
  8
0
 62
7
100
AcDbSpline
 70
8
 71
3
 72
8
 73
4
 74
0
 40
0
 40
0
 40
0
 40
0
 40
1
 40
1
 40
1
 40
1
 10
45.278322
 20
22.039792
 30
0.0
 10
46.829839
 20
22.039792
 30
0.0
 10
48.914756
 20
21.732487
 30
0.0
 10
48.914756
 20
18.883806
 30
0.0
  0
SPLINE
  5
133
100
AcDbEntity
  8
0
 62
7
100
AcDbSpline
 70
8
 71
3
 72
8
 73
4
 74
0
 40
0
 40
0
 40
0
 40
0
 40
1
 40
1
 40
1
 40
1
 10
48.914756
 20
18.883806
 30
0.0
 10
48.914756
 20
15.861912
 30
0.0
 10
46.854533
 20
15.196326
 30
0.0
 10
44.387911
 20
15.196326
 30
0.0
  0
LWPOLYLINE
  5
134
100
AcDbEntity
  8
0
 62
7
100
AcDbPolyline
 90
2
 70
0
 10
26.068479
 20
22.640607
 30
0.0
 10
26.069572
 20
7.563485
 30
0.0
  0
SPLINE
  5
135
100
AcDbEntity
  8
0
 62
7
100
AcDbSpline
 70
8
 71
3
 72
8
 73
4
 74
0
 40
0
 40
0
 40
0
 40
0
 40
1
 40
1
 40
1
 40
1
 10
42.662828
 20
20.562394
 30
0.0
 10
42.662828
 20
21.276345
 30
0.0
 10
43.474217
 20
22.039792
 30
0.0
 10
45.278322
 20
22.039792
 30
0.0
  0
LWPOLYLINE
  5
136
100
AcDbEntity
  8
0
 62
7
100
AcDbPolyline
 90
3
 70
0
 10
44.387911
 20
15.196326
 30
0.0
 10
42.662828
 20
15.196326
 30
0.0
 10
42.662828
 20
20.562394
 30
0.0
  0
SPLINE
  5
137
100
AcDbEntity
  8
0
 62
7
100
AcDbSpline
 70
8
 71
3
 72
8
 73
4
 74
0
 40
0
 40
0
 40
0
 40
0
 40
1
 40
1
 40
1
 40
1
 10
42.662828
 20
14.358479
 30
0.0
 10
44.798544
 20
14.358479
 30
0.0
 10
45.760569
 20
14.004184
 30
0.0
 10
46.140864
 20
13.442209
 30
0.0
  0
LWPOLYLINE
  5
138
100
AcDbEntity
  8
0
 62
7
100
AcDbPolyline
 90
2
 70
0
 10
42.662828
 20
10.445115
 30
0.0
 10
42.662828
 20
14.358479
 30
0.0
  0
SPLINE
  5
139
100
AcDbEntity
  8
0
 62
7
100
AcDbSpline
 70
8
 71
3
 72
8
 73
4
 74
0
 40
0
 40
0
 40
0
 40
0
 40
1
 40
1
 40
1
 40
1
 10
49.117250
 20
9.251597
 30
0.0
 10
49.851733
 20
8.133997
 30
0.0
 10
50.947461
 20
7.092209
 30
0.0
 10
52.474283
 20
7.092209
 30
0.0
  0
SPLINE
  5
13a
100
AcDbEntity
  8
0
 62
7
100
AcDbSpline
 70
8
 71
3
 72
8
 73
4
 74
0
 40
0
 40
0
 40
0
 40
0
 40
1
 40
1
 40
1
 40
1
 10
52.474283
 20
7.092209
 30
0.0
 10
52.857400
 20
7.092209
 30
0.0
 10
53.286025
 20
7.139199
 30
0.0
 10
53.541083
 20
7.265846
 30
0.0
  0
SPLINE
  5
13b
100
AcDbEntity
  8
0
 62
7
100
AcDbSpline
 70
8
 71
3
 72
8
 73
4
 74
0
 40
0
 40
0
 40
0
 40
0
 40
1
 40
1
 40
1
 40
1
 10
53.541083
 20
7.265846
 30
0.0
 10
53.614108
 20
7.446504
 30
0.0
 10
53.614108
 20
7.753667
 30
0.0
 10
53.516036
 20
7.954857
 30
0.0
  0
SPLINE
  5
13c
100
AcDbEntity
  8
0
 62
7
100
AcDbSpline
 70
8
 71
3
 72
8
 73
4
 74
0
 40
0
 40
0
 40
0
 40
0
 40
1
 40
1
 40
1
 40
1
 10
53.516036
 20
7.954857
 30
0.0
 10
52.521203
 20
8.030669
 30
0.0
 10
51.937003
 20
8.667433
 30
0.0
 10
51.275544
 20
9.709115
 30
0.0
  0
LWPOLYLINE
  5
13d
100
AcDbEntity
  8
0
 62
7
100
AcDbPolyline
 90
2
 70
0
 10
46.140864
 20
13.442209
 30
0.0
 10
49.117250
 20
9.251597
 30
0.0
  0
SPLINE
  5
13e
100
AcDbEntity
  8
0
 62
7
100
AcDbSpline
 70
8
 71
3
 72
8
 73
4
 74
0
 40
0
 40
0
 40
0
 40
0
 40
1
 40
1
 40
1
 40
1
 10
47.820792
 20
14.792678
 30
0.0
 10
48.914756
 20
15.121749
 30
0.0
 10
51.455814
 20
16.366419
 30
0.0
 10
51.455814
 20
18.907513
 30
0.0
  0
SPLINE
  5
13f
100
AcDbEntity
  8
0
 62
7
100
AcDbSpline
 70
8
 71
3
 72
8
 73
4
 74
0
 40
0
 40
0
 40
0
 40
0
 40
1
 40
1
 40
1
 40
1
 10
51.455814
 20
18.907513
 30
0.0
 10
51.455814
 20
20.128442
 30
0.0
 10
51.050825
 20
21.170265
 30
0.0
 10
50.137131
 20
21.987298
 30
0.0
  0
SPLINE
  5
140
100
AcDbEntity
  8
0
 62
7
100
AcDbSpline
 70
8
 71
3
 72
8
 73
4
 74
0
 40
0
 40
0
 40
0
 40
0
 40
1
 40
1
 40
1
 40
1
 10
50.137131
 20
21.987298
 30
0.0
 10
48.914756
 20
23.081580
 30
0.0
 10
46.854533
 20
23.081580
 30
0.0
 10
45.256097
 20
23.081580
 30
0.0
  0
SPLINE
  5
141
100
AcDbEntity
  8
0
 62
7
100
AcDbSpline
 70
8
 71
3
 72
8
 73
4
 74
0
 40
0
 40
0
 40
0
 40
0
 40
1
 40
1
 40
1
 40
1
 10
45.256097
 20
23.081580
 30
0.0
 10
44.619333
 20
23.081580
 30
0.0
 10
42.432464
 20
22.926005
 30
0.0
 10
41.463736
 20
22.926005
 30
0.0
  0
SPLINE
  5
142
100
AcDbEntity
  8
0
 62
7
100
AcDbSpline
 70
8
 71
3
 72
8
 73
4
 74
0
 40
0
 40
0
 40
0
 40
0
 40
1
 40
1
 40
1
 40
1
 10
41.463736
 20
22.926005
 30
0.0
 10
40.526758
 20
22.926005
 30
0.0
 10
39.282511
 20
22.953416
 30
0.0
 10
38.188194
 20
22.976734
 30
0.0
  0
SPLINE
  5
143
100
AcDbEntity
  8
0
 62
7
100
AcDbSpline
 70
8
 71
3
 72
8
 73
4
 74
0
 40
0
 40
0
 40
0
 40
0
 40
1
 40
1
 40
1
 40
1
 10
38.188194
 20
22.976734
 30
0.0
 10
38.037911
 20
22.826521
 30
0.0
 10
38.037911
 20
22.190146
 30
0.0
 10
38.188194
 20
22.038416
 30
0.0
  0
SPLINE
  5
144
100
AcDbEntity
  8
0
 62
7
100
AcDbSpline
 70
8
 71
3
 72
8
 73
4
 74
0
 40
0
 40
0
 40
0
 40
0
 40
1
 40
1
 40
1
 40
1
 10
38.188194
 20
22.038416
 30
0.0
 10
39.965842
 20
21.958335
 30
0.0
 10
40.295336
 20
21.831723
 30
0.0
 10
40.295336
 20
19.827910
 30
0.0
  0
LWPOLYLINE
  5
145
100
AcDbEntity
  8
0
 62
7
100
AcDbPolyline
 90
2
 70
0
 10
51.275544
 20
9.709115
 30
0.0
 10
47.820792
 20
14.792678
 30
0.0
  0
SPLINE
  5
146
100
AcDbEntity
  8
0
 62
7
100
AcDbSpline
 70
8
 71
3
 72
8
 73
4
 74
0
 40
0
 40
0
 40
0
 40
0
 40
1
 40
1
 40
1
 40
1
 10
40.295336
 20
10.445115
 30
0.0
 10
40.295336
 20
8.434141
 30
0.0
 10
39.965842
 20
8.309010
 30
0.0
 10
38.188194
 20
8.233093
 30
0.0
  0
SPLINE
  5
147
100
AcDbEntity
  8
0
 62
7
100
AcDbSpline
 70
8
 71
3
 72
8
 73
4
 74
0
 40
0
 40
0
 40
0
 40
0
 40
1
 40
1
 40
1
 40
1
 10
38.188194
 20
8.233093
 30
0.0
 10
38.037911
 20
8.081363
 30
0.0
 10
38.037911
 20
7.446504
 30
0.0
 10
38.188194
 20
7.294774
 30
0.0
  0
SPLINE
  5
148
100
AcDbEntity
  8
0
 62
7
100
AcDbSpline
 70
8
 71
3
 72
8
 73
4
 74
0
 40
0
 40
0
 40
0
 40
0
 40
1
 40
1
 40
1
 40
1
 10
38.188194
 20
7.294774
 30
0.0
 10
39.304383
 20
7.319433
 30
0.0
 10
40.526758
 20
7.347021
 30
0.0
 10
41.494075
 20
7.347021
 30
0.0
  0
SPLINE
  5
149
100
AcDbEntity
  8
0
 62
7
100
AcDbSpline
 70
8
 71
3
 72
8
 73
4
 74
0
 40
0
 40
0
 40
0
 40
0
 40
1
 40
1
 40
1
 40
1
 10
41.494075
 20
7.347021
 30
0.0
 10
42.459981
 20
7.347021
 30
0.0
 10
43.704581
 20
7.319433
 30
0.0
 10
44.874392
 20
7.294774
 30
0.0
  0
SPLINE
  5
14a
100
AcDbEntity
  8
0
 62
7
100
AcDbSpline
 70
8
 71
3
 72
8
 73
4
 74
0
 40
0
 40
0
 40
0
 40
0
 40
1
 40
1
 40
1
 40
1
 10
44.874392
 20
7.294774
 30
0.0
 10
45.024675
 20
7.446504
 30
0.0
 10
45.024675
 20
8.081363
 30
0.0
 10
44.874392
 20
8.233093
 30
0.0
  0
SPLINE
  5
14b
100
AcDbEntity
  8
0
 62
7
100
AcDbSpline
 70
8
 71
3
 72
8
 73
4
 74
0
 40
0
 40
0
 40
0
 40
0
 40
1
 40
1
 40
1
 40
1
 10
44.874392
 20
8.233093
 30
0.0
 10
43.091100
 20
8.309010
 30
0.0
 10
42.662828
 20
8.434141
 30
0.0
 10
42.662828
 20
10.445115
 30
0.0
  0
SPLINE
  5
14c
100
AcDbEntity
  8
0
 62
7
100
AcDbSpline
 70
8
 71
3
 72
8
 73
4
 74
0
 40
0
 40
0
 40
0
 40
0
 40
1
 40
1
 40
1
 40
1
 10
58.160003
 20
14.867114
 30
0.0
 10
58.744556
 20
17.917936
 30
0.0
 10
60.753625
 20
18.780866
 30
0.0
 10
62.380989
 20
18.780866
 30
0.0
  0
SPLINE
  5
14d
100
AcDbEntity
  8
0
 62
7
100
AcDbSpline
 70
8
 71
3
 72
8
 73
4
 74
0
 40
0
 40
0
 40
0
 40
0
 40
1
 40
1
 40
1
 40
1
 10
62.380989
 20
18.780866
 30
0.0
 10
63.601953
 20
18.780866
 30
0.0
 10
65.633247
 20
18.073934
 30
0.0
 10
65.633247
 20
15.631901
 30
0.0
  0
SPLINE
  5
14e
100
AcDbEntity
  8
0
 62
7
100
AcDbSpline
 70
8
 71
3
 72
8
 73
4
 74
0
 40
0
 40
0
 40
0
 40
0
 40
1
 40
1
 40
1
 40
1
 10
65.633247
 20
15.631901
 30
0.0
 10
65.633247
 20
15.376842
 30
0.0
 10
65.481553
 20
14.971818
 30
0.0
 10
65.123483
 20
14.971818
 30
0.0
  0
LWPOLYLINE
  5
14f
100
AcDbEntity
  8
0
 62
7
100
AcDbPolyline
 90
2
 70
0
 10
40.295336
 20
19.827910
 30
0.0
 10
40.295336
 20
10.445115
 30
0.0
  0
SPLINE
  5
150
100
AcDbEntity
  8
0
 62
7
100
AcDbSpline
 70
8
 71
3
 72
8
 73
4
 74
0
 40
0
 40
0
 40
0
 40
0
 40
1
 40
1
 40
1
 40
1
 10
67.619033
 20
10.114104
 30
0.0
 10
66.419942
 20
9.020210
 30
0.0
 10
65.101258
 20
8.361257
 30
0.0
 10
63.195553
 20
8.361257
 30
0.0
  0
SPLINE
  5
151
100
AcDbEntity
  8
0
 62
7
100
AcDbSpline
 70
8
 71
3
 72
8
 73
4
 74
0
 40
0
 40
0
 40
0
 40
0
 40
1
 40
1
 40
1
 40
1
 10
63.195553
 20
8.361257
 30
0.0
 10
61.540319
 20
8.361257
 30
0.0
 10
60.017731
 20
8.922103
 30
0.0
 10
58.975978
 20
10.392481
 30
0.0
  0
SPLINE
  5
152
100
AcDbEntity
  8
0
 62
7
100
AcDbSpline
 70
8
 71
3
 72
8
 73
4
 74
0
 40
0
 40
0
 40
0
 40
0
 40
1
 40
1
 40
1
 40
1
 10
58.975978
 20
10.392481
 30
0.0
 10
58.339214
 20
11.358351
 30
0.0
 10
58.031944
 20
12.145469
 30
0.0
 10
58.031944
 20
13.825291
 30
0.0
  0
LWPOLYLINE
  5
153
100
AcDbEntity
  8
0
 62
7
100
AcDbPolyline
 90
2
 70
0
 10
65.123483
 20
14.971818
 30
0.0
 10
58.160003
 20
14.867114
 30
0.0
  0
SPLINE
  5
154
100
AcDbEntity
  8
0
 62
7
100
AcDbSpline
 70
8
 71
3
 72
8
 73
4
 74
0
 40
0
 40
0
 40
0
 40
0
 40
1
 40
1
 40
1
 40
1
 10
67.566469
 20
13.825291
 30
0.0
 10
67.926303
 20
13.825291
 30
0.0
 10
68.174306
 20
14.259242
 30
0.0
 10
68.174306
 20
14.565171
 30
0.0
  0
SPLINE
  5
155
100
AcDbEntity
  8
0
 62
7
100
AcDbSpline
 70
8
 71
3
 72
8
 73
4
 74
0
 40
0
 40
0
 40
0
 40
0
 40
1
 40
1
 40
1
 40
1
 10
68.174306
 20
14.565171
 30
0.0
 10
68.174306
 20
16.952066
 30
0.0
 10
66.756139
 20
19.797571
 30
0.0
 10
62.432142
 20
19.797571
 30
0.0
  0
SPLINE
  5
156
100
AcDbEntity
  8
0
 62
7
100
AcDbSpline
 70
8
 71
3
 72
8
 73
4
 74
0
 40
0
 40
0
 40
0
 40
0
 40
1
 40
1
 40
1
 40
1
 10
62.432142
 20
19.797571
 30
0.0
 10
58.924825
 20
19.797571
 30
0.0
 10
55.594250
 20
17.385877
 30
0.0
 10
55.594250
 20
13.089431
 30
0.0
  0
SPLINE
  5
157
100
AcDbEntity
  8
0
 62
7
100
AcDbSpline
 70
8
 71
3
 72
8
 73
4
 74
0
 40
0
 40
0
 40
0
 40
0
 40
1
 40
1
 40
1
 40
1
 10
55.594250
 20
13.089431
 30
0.0
 10
55.594250
 20
11.515725
 30
0.0
 10
56.128708
 20
9.963891
 30
0.0
 10
57.170814
 20
8.893175
 30
0.0
  0
SPLINE
  5
158
100
AcDbEntity
  8
0
 62
7
100
AcDbSpline
 70
8
 71
3
 72
8
 73
4
 74
0
 40
0
 40
0
 40
0
 40
0
 40
1
 40
1
 40
1
 40
1
 10
57.170814
 20
8.893175
 30
0.0
 10
58.241494
 20
7.753667
 30
0.0
 10
60.198353
 20
7.092209
 30
0.0
 10
62.432142
 20
7.092209
 30
0.0
  0
SPLINE
  5
159
100
AcDbEntity
  8
0
 62
7
100
AcDbSpline
 70
8
 71
3
 72
8
 73
4
 74
0
 40
0
 40
0
 40
0
 40
0
 40
1
 40
1
 40
1
 40
1
 10
62.432142
 20
7.092209
 30
0.0
 10
64.822917
 20
7.092209
 30
0.0
 10
66.930058
 20
8.081363
 30
0.0
 10
68.203233
 20
9.557526
 30
0.0
  0
SPLINE
  5
15a
100
AcDbEntity
  8
0
 62
7
100
AcDbSpline
 70
8
 71
3
 72
8
 73
4
 74
0
 40
0
 40
0
 40
0
 40
0
 40
1
 40
1
 40
1
 40
1
 10
68.203233
 20
9.557526
 30
0.0
 10
68.128797
 20
9.837279
 30
0.0
 10
68.002150
 20
10.092337
 30
0.0
 10
67.619033
 20
10.114104
 30
0.0
  0
SPLINE
  5
15b
100
AcDbEntity
  8
0
 62
7
100
AcDbSpline
 70
8
 71
3
 72
8
 73
4
 74
0
 40
0
 40
0
 40
0
 40
0
 40
1
 40
1
 40
1
 40
1
 10
75.057706
 20
16.545701
 30
0.0
 10
75.769964
 20
17.534855
 30
0.0
 10
76.864281
 20
18.502101
 30
0.0
 10
78.010808
 20
18.502101
 30
0.0
  0
SPLINE
  5
15c
100
AcDbEntity
  8
0
 62
7
100
AcDbSpline
 70
8
 71
3
 72
8
 73
4
 74
0
 40
0
 40
0
 40
0
 40
0
 40
1
 40
1
 40
1
 40
1
 10
78.010808
 20
18.502101
 30
0.0
 10
80.777997
 20
18.502101
 30
0.0
 10
81.772831
 20
16.469748
 30
0.0
 10
81.772831
 20
13.268713
 30
0.0
  0
SPLINE
  5
15d
100
AcDbEntity
  8
0
 62
7
100
AcDbSpline
 70
8
 71
3
 72
8
 73
4
 74
0
 40
0
 40
0
 40
0
 40
0
 40
1
 40
1
 40
1
 40
1
 10
81.772831
 20
13.268713
 30
0.0
 10
81.772831
 20
10.039703
 30
0.0
 10
80.220961
 20
8.157281
 30
0.0
 10
77.679903
 20
8.157281
 30
0.0
  0
SPLINE
  5
15e
100
AcDbEntity
  8
0
 62
7
100
AcDbSpline
 70
8
 71
3
 72
8
 73
4
 74
0
 40
0
 40
0
 40
0
 40
0
 40
1
 40
1
 40
1
 40
1
 10
77.679903
 20
8.157281
 30
0.0
 10
76.481164
 20
8.157281
 30
0.0
 10
74.629081
 20
9.454162
 30
0.0
 10
74.427997
 20
10.930184
 30
0.0
  0
LWPOLYLINE
  5
15f
100
AcDbEntity
  8
0
 62
7
100
AcDbPolyline
 90
2
 70
0
 10
58.031944
 20
13.825291
 30
0.0
 10
67.566469
 20
13.825291
 30
0.0
  0
SPLINE
  5
160
100
AcDbEntity
  8
0
 62
7
100
AcDbSpline
 70
8
 71
3
 72
8
 73
4
 74
0
 40
0
 40
0
 40
0
 40
0
 40
1
 40
1
 40
1
 40
1
 10
74.427997
 20
14.941515
 30
0.0
 10
74.427997
 20
15.527196
 30
0.0
 10
74.728211
 20
16.111326
 30
0.0
 10
75.057706
 20
16.545701
 30
0.0
  0
SPLINE
  5
161
100
AcDbEntity
  8
0
 62
7
100
AcDbSpline
 70
8
 71
3
 72
8
 73
4
 74
0
 40
0
 40
0
 40
0
 40
0
 40
1
 40
1
 40
1
 40
1
 10
74.427997
 20
17.534855
 30
0.0
 10
74.427997
 20
18.375454
 30
0.0
 10
74.397658
 20
19.365031
 30
0.0
 10
74.270658
 20
19.672335
 30
0.0
  0
SPLINE
  5
162
100
AcDbEntity
  8
0
 62
7
100
AcDbSpline
 70
8
 71
3
 72
8
 73
4
 74
0
 40
0
 40
0
 40
0
 40
0
 40
1
 40
1
 40
1
 40
1
 10
74.270658
 20
19.672335
 30
0.0
 10
74.223739
 20
19.798947
 30
0.0
 10
74.172939
 20
19.903687
 30
0.0
 10
73.940106
 20
19.903687
 30
0.0
  0
SPLINE
  5
163
100
AcDbEntity
  8
0
 62
7
100
AcDbSpline
 70
8
 71
3
 72
8
 73
4
 74
0
 40
0
 40
0
 40
0
 40
0
 40
1
 40
1
 40
1
 40
1
 10
73.940106
 20
19.903687
 30
0.0
 10
73.153058
 20
19.596523
 30
0.0
 10
72.007942
 20
19.318182
 30
0.0
 10
70.049672
 20
19.063088
 30
0.0
  0
SPLINE
  5
164
100
AcDbEntity
  8
0
 62
7
100
AcDbSpline
 70
8
 71
3
 72
8
 73
4
 74
0
 40
0
 40
0
 40
0
 40
0
 40
1
 40
1
 40
1
 40
1
 10
70.049672
 20
19.063088
 30
0.0
 10
70.004517
 20
18.883806
 30
0.0
 10
70.078600
 20
18.449996
 30
0.0
 10
70.131164
 20
18.276358
 30
0.0
  0
SPLINE
  5
165
100
AcDbEntity
  8
0
 62
7
100
AcDbSpline
 70
8
 71
3
 72
8
 73
4
 74
0
 40
0
 40
0
 40
0
 40
0
 40
1
 40
1
 40
1
 40
1
 10
70.131164
 20
18.276358
 30
0.0
 10
71.653753
 20
18.120360
 30
0.0
 10
72.214669
 20
17.993748
 30
0.0
 10
72.214669
 20
16.342854
 30
0.0
  0
LWPOLYLINE
  5
166
100
AcDbEntity
  8
0
 62
7
100
AcDbPolyline
 90
2
 70
0
 10
74.427997
 20
10.930184
 30
0.0
 10
74.427997
 20
14.941515
 30
0.0
  0
SPLINE
  5
167
100
AcDbEntity
  8
0
 62
7
100
AcDbSpline
 70
8
 71
3
 72
8
 73
4
 74
0
 40
0
 40
0
 40
0
 40
0
 40
1
 40
1
 40
1
 40
1
 10
72.214669
 20
4.650317
 30
0.0
 10
72.214669
 20
2.543168
 30
0.0
 10
71.677389
 20
2.415148
 30
0.0
 10
70.131164
 20
2.333569
 30
0.0
  0
SPLINE
  5
168
100
AcDbEntity
  8
0
 62
7
100
AcDbSpline
 70
8
 71
3
 72
8
 73
4
 74
0
 40
0
 40
0
 40
0
 40
0
 40
1
 40
1
 40
1
 40
1
 10
70.131164
 20
2.333569
 30
0.0
 10
69.975236
 20
2.183638
 30
0.0
 10
69.975236
 20
1.546987
 30
0.0
 10
70.131164
 20
1.395264
 30
0.0
  0
SPLINE
  5
169
100
AcDbEntity
  8
0
 62
7
100
AcDbSpline
 70
8
 71
3
 72
8
 73
4
 74
0
 40
0
 40
0
 40
0
 40
0
 40
1
 40
1
 40
1
 40
1
 10
70.131164
 20
1.395264
 30
0.0
 10
71.196200
 20
1.418830
 30
0.0
 10
72.059094
 20
1.449282
 30
0.0
 10
73.332269
 20
1.449282
 30
0.0
  0
SPLINE
  5
16a
100
AcDbEntity
  8
0
 62
7
100
AcDbSpline
 70
8
 71
3
 72
8
 73
4
 74
0
 40
0
 40
0
 40
0
 40
0
 40
1
 40
1
 40
1
 40
1
 10
73.332269
 20
1.449282
 30
0.0
 10
74.755728
 20
1.449282
 30
0.0
 10
75.925892
 20
1.418830
 30
0.0
 10
77.021267
 20
1.395264
 30
0.0
  0
SPLINE
  5
16b
100
AcDbEntity
  8
0
 62
7
100
AcDbSpline
 70
8
 71
3
 72
8
 73
4
 74
0
 40
0
 40
0
 40
0
 40
0
 40
1
 40
1
 40
1
 40
1
 10
77.021267
 20
1.395264
 30
0.0
 10
77.170139
 20
1.546987
 30
0.0
 10
77.170139
 20
2.183638
 30
0.0
 10
77.021267
 20
2.333569
 30
0.0
  0
SPLINE
  5
16c
100
AcDbEntity
  8
0
 62
7
100
AcDbSpline
 70
8
 71
3
 72
8
 73
4
 74
0
 40
0
 40
0
 40
0
 40
0
 40
1
 40
1
 40
1
 40
1
 10
77.021267
 20
2.333569
 30
0.0
 10
74.704928
 20
2.438439
 30
0.0
 10
74.427997
 20
2.543168
 30
0.0
 10
74.427997
 20
4.650317
 30
0.0
  0
LWPOLYLINE
  5
16d
100
AcDbEntity
  8
0
 62
7
100
AcDbPolyline
 90
2
 70
0
 10
72.214669
 20
16.342854
 30
0.0
 10
72.214669
 20
4.650317
 30
0.0
  0
SPLINE
  5
16e
100
AcDbEntity
  8
0
 62
7
100
AcDbSpline
 70
8
 71
3
 72
8
 73
4
 74
0
 40
0
 40
0
 40
0
 40
0
 40
1
 40
1
 40
1
 40
1
 10
74.427997
 20
8.562587
 30
0.0
 10
75.236917
 20
7.677891
 30
0.0
 10
76.354517
 20
7.092209
 30
0.0
 10
77.853822
 20
7.092209
 30
0.0
  0
SPLINE
  5
16f
100
AcDbEntity
  8
0
 62
7
100
AcDbSpline
 70
8
 71
3
 72
8
 73
4
 74
0
 40
0
 40
0
 40
0
 40
0
 40
1
 40
1
 40
1
 40
1
 10
77.853822
 20
7.092209
 30
0.0
 10
79.432856
 20
7.092209
 30
0.0
 10
80.904644
 20
7.573151
 30
0.0
 10
82.074456
 20
8.667433
 30
0.0
  0
SPLINE
  5
170
100
AcDbEntity
  8
0
 62
7
100
AcDbSpline
 70
8
 71
3
 72
8
 73
4
 74
0
 40
0
 40
0
 40
0
 40
0
 40
1
 40
1
 40
1
 40
1
 10
82.074456
 20
8.667433
 30
0.0
 10
83.398783
 20
9.963891
 30
0.0
 10
84.209114
 20
11.741432
 30
0.0
 10
84.209114
 20
14.027891
 30
0.0
  0
SPLINE
  5
171
100
AcDbEntity
  8
0
 62
7
100
AcDbSpline
 70
8
 71
3
 72
8
 73
4
 74
0
 40
0
 40
0
 40
0
 40
0
 40
1
 40
1
 40
1
 40
1
 10
84.209114
 20
14.027891
 30
0.0
 10
84.209114
 20
17.489382
 30
0.0
 10
82.380667
 20
19.798947
 30
0.0
 10
78.873350
 20
19.798947
 30
0.0
  0
SPLINE
  5
172
100
AcDbEntity
  8
0
 62
7
100
AcDbSpline
 70
8
 71
3
 72
8
 73
4
 74
0
 40
0
 40
0
 40
0
 40
0
 40
1
 40
1
 40
1
 40
1
 10
78.873350
 20
19.798947
 30
0.0
 10
76.915081
 20
19.798947
 30
0.0
 10
75.746681
 20
18.862040
 30
0.0
 10
74.652364
 20
17.437135
 30
0.0
  0
SPLINE
  5
173
100
AcDbEntity
  8
0
 62
7
100
AcDbSpline
 70
8
 71
3
 72
8
 73
4
 74
0
 40
0
 40
0
 40
0
 40
0
 40
1
 40
1
 40
1
 40
1
 10
74.652364
 20
17.437135
 30
0.0
 10
74.553233
 20
17.332290
 30
0.0
 10
74.427997
 20
17.332290
 30
0.0
 10
74.427997
 20
17.534855
 30
0.0
  0
SPLINE
  5
174
100
AcDbEntity
  8
0
 62
7
100
AcDbSpline
 70
8
 71
3
 72
8
 73
4
 74
0
 40
0
 40
0
 40
0
 40
0
 40
1
 40
1
 40
1
 40
1
 10
93.702364
 20
22.039792
 30
0.0
 10
95.254233
 20
22.039792
 30
0.0
 10
97.337739
 20
21.732487
 30
0.0
 10
97.337739
 20
18.883806
 30
0.0
  0
SPLINE
  5
175
100
AcDbEntity
  8
0
 62
7
100
AcDbSpline
 70
8
 71
3
 72
8
 73
4
 74
0
 40
0
 40
0
 40
0
 40
0
 40
1
 40
1
 40
1
 40
1
 10
97.337739
 20
18.883806
 30
0.0
 10
97.337739
 20
15.861912
 30
0.0
 10
95.277517
 20
15.196326
 30
0.0
 10
92.812306
 20
15.196326
 30
0.0
  0
LWPOLYLINE
  5
176
100
AcDbEntity
  8
0
 62
7
100
AcDbPolyline
 90
2
 70
0
 10
74.427997
 20
4.650317
 30
0.0
 10
74.427997
 20
8.562587
 30
0.0
  0
SPLINE
  5
177
100
AcDbEntity
  8
0
 62
7
100
AcDbSpline
 70
8
 71
3
 72
8
 73
4
 74
0
 40
0
 40
0
 40
0
 40
0
 40
1
 40
1
 40
1
 40
1
 10
91.086869
 20
20.562394
 30
0.0
 10
91.086869
 20
21.276345
 30
0.0
 10
91.897200
 20
22.039792
 30
0.0
 10
93.702364
 20
22.039792
 30
0.0
  0
LWPOLYLINE
  5
178
100
AcDbEntity
  8
0
 62
7
100
AcDbPolyline
 90
3
 70
0
 10
92.812306
 20
15.196326
 30
0.0
 10
91.086869
 20
15.196326
 30
0.0
 10
91.086869
 20
20.562394
 30
0.0
  0
SPLINE
  5
179
100
AcDbEntity
  8
0
 62
7
100
AcDbSpline
 70
8
 71
3
 72
8
 73
4
 74
0
 40
0
 40
0
 40
0
 40
0
 40
1
 40
1
 40
1
 40
1
 10
91.086869
 20
14.358479
 30
0.0
 10
93.222939
 20
14.358479
 30
0.0
 10
94.188844
 20
14.004184
 30
0.0
 10
94.565258
 20
13.442209
 30
0.0
  0
LWPOLYLINE
  5
17a
100
AcDbEntity
  8
0
 62
7
100
AcDbPolyline
 90
2
 70
0
 10
91.086869
 20
10.445115
 30
0.0
 10
91.086869
 20
14.358479
 30
0.0
  0
SPLINE
  5
17b
100
AcDbEntity
  8
0
 62
7
100
AcDbSpline
 70
8
 71
3
 72
8
 73
4
 74
0
 40
0
 40
0
 40
0
 40
0
 40
1
 40
1
 40
1
 40
1
 10
97.540233
 20
9.251597
 30
0.0
 10
98.281772
 20
8.133997
 30
0.0
 10
99.371856
 20
7.092209
 30
0.0
 10
100.898678
 20
7.092209
 30
0.0
  0
SPLINE
  5
17c
100
AcDbEntity
  8
0
 62
7
100
AcDbSpline
 70
8
 71
3
 72
8
 73
4
 74
0
 40
0
 40
0
 40
0
 40
0
 40
1
 40
1
 40
1
 40
1
 10
100.898678
 20
7.092209
 30
0.0
 10
101.281794
 20
7.092209
 30
0.0
 10
101.710067
 20
7.139199
 30
0.0
 10
101.963714
 20
7.265846
 30
0.0
  0
SPLINE
  5
17d
100
AcDbEntity
  8
0
 62
7
100
AcDbSpline
 70
8
 71
3
 72
8
 73
4
 74
0
 40
0
 40
0
 40
0
 40
0
 40
1
 40
1
 40
1
 40
1
 10
101.963714
 20
7.265846
 30
0.0
 10
102.038150
 20
7.446504
 30
0.0
 10
102.038150
 20
7.753667
 30
0.0
 10
101.940431
 20
7.954857
 30
0.0
  0
SPLINE
  5
17e
100
AcDbEntity
  8
0
 62
7
100
AcDbSpline
 70
8
 71
3
 72
8
 73
4
 74
0
 40
0
 40
0
 40
0
 40
0
 40
1
 40
1
 40
1
 40
1
 10
101.940431
 20
7.954857
 30
0.0
 10
100.950889
 20
8.030669
 30
0.0
 10
100.365278
 20
8.667433
 30
0.0
 10
99.699586
 20
9.709115
 30
0.0
  0
LWPOLYLINE
  5
17f
100
AcDbEntity
  8
0
 62
7
100
AcDbPolyline
 90
2
 70
0
 10
94.565258
 20
13.442209
 30
0.0
 10
97.540233
 20
9.251597
 30
0.0
  0
SPLINE
  5
180
100
AcDbEntity
  8
0
 62
7
100
AcDbSpline
 70
8
 71
3
 72
8
 73
4
 74
0
 40
0
 40
0
 40
0
 40
0
 40
1
 40
1
 40
1
 40
1
 10
96.243422
 20
14.792678
 30
0.0
 10
97.337739
 20
15.121749
 30
0.0
 10
99.878797
 20
16.366419
 30
0.0
 10
99.878797
 20
18.907513
 30
0.0
  0
SPLINE
  5
181
100
AcDbEntity
  8
0
 62
7
100
AcDbSpline
 70
8
 71
3
 72
8
 73
4
 74
0
 40
0
 40
0
 40
0
 40
0
 40
1
 40
1
 40
1
 40
1
 10
99.878797
 20
18.907513
 30
0.0
 10
99.878797
 20
20.128442
 30
0.0
 10
99.475219
 20
21.170265
 30
0.0
 10
98.560114
 20
21.987298
 30
0.0
  0
SPLINE
  5
182
100
AcDbEntity
  8
0
 62
7
100
AcDbSpline
 70
8
 71
3
 72
8
 73
4
 74
0
 40
0
 40
0
 40
0
 40
0
 40
1
 40
1
 40
1
 40
1
 10
98.560114
 20
21.987298
 30
0.0
 10
97.337739
 20
23.081580
 30
0.0
 10
95.277517
 20
23.081580
 30
0.0
 10
93.680492
 20
23.081580
 30
0.0
  0
SPLINE
  5
183
100
AcDbEntity
  8
0
 62
7
100
AcDbSpline
 70
8
 71
3
 72
8
 73
4
 74
0
 40
0
 40
0
 40
0
 40
0
 40
1
 40
1
 40
1
 40
1
 10
93.680492
 20
23.081580
 30
0.0
 10
93.043728
 20
23.081580
 30
0.0
 10
90.854036
 20
22.926005
 30
0.0
 10
89.888131
 20
22.926005
 30
0.0
  0
SPLINE
  5
184
100
AcDbEntity
  8
0
 62
7
100
AcDbSpline
 70
8
 71
3
 72
8
 73
4
 74
0
 40
0
 40
0
 40
0
 40
0
 40
1
 40
1
 40
1
 40
1
 10
89.888131
 20
22.926005
 30
0.0
 10
88.949742
 20
22.926005
 30
0.0
 10
87.705142
 20
22.953416
 30
0.0
 10
86.611178
 20
22.976734
 30
0.0
  0
SPLINE
  5
185
100
AcDbEntity
  8
0
 62
7
100
AcDbSpline
 70
8
 71
3
 72
8
 73
4
 74
0
 40
0
 40
0
 40
0
 40
0
 40
1
 40
1
 40
1
 40
1
 10
86.611178
 20
22.976734
 30
0.0
 10
86.462306
 20
22.826521
 30
0.0
 10
86.462306
 20
22.190146
 30
0.0
 10
86.611178
 20
22.038416
 30
0.0
  0
SPLINE
  5
186
100
AcDbEntity
  8
0
 62
7
100
AcDbSpline
 70
8
 71
3
 72
8
 73
4
 74
0
 40
0
 40
0
 40
0
 40
0
 40
1
 40
1
 40
1
 40
1
 10
86.611178
 20
22.038416
 30
0.0
 10
88.388825
 20
21.958335
 30
0.0
 10
88.719378
 20
21.831723
 30
0.0
 10
88.719378
 20
19.827910
 30
0.0
  0
LWPOLYLINE
  5
187
100
AcDbEntity
  8
0
 62
7
100
AcDbPolyline
 90
2
 70
0
 10
99.699586
 20
9.709115
 30
0.0
 10
96.243422
 20
14.792678
 30
0.0
  0
SPLINE
  5
188
100
AcDbEntity
  8
0
 62
7
100
AcDbSpline
 70
8
 71
3
 72
8
 73
4
 74
0
 40
0
 40
0
 40
0
 40
0
 40
1
 40
1
 40
1
 40
1
 10
88.719378
 20
10.445115
 30
0.0
 10
88.719378
 20
8.434141
 30
0.0
 10
88.388825
 20
8.309010
 30
0.0
 10
86.611178
 20
8.233093
 30
0.0
  0
SPLINE
  5
189
100
AcDbEntity
  8
0
 62
7
100
AcDbSpline
 70
8
 71
3
 72
8
 73
4
 74
0
 40
0
 40
0
 40
0
 40
0
 40
1
 40
1
 40
1
 40
1
 10
86.611178
 20
8.233093
 30
0.0
 10
86.462306
 20
8.081363
 30
0.0
 10
86.462306
 20
7.446504
 30
0.0
 10
86.611178
 20
7.294774
 30
0.0
  0
SPLINE
  5
18a
100
AcDbEntity
  8
0
 62
7
100
AcDbSpline
 70
8
 71
3
 72
8
 73
4
 74
0
 40
0
 40
0
 40
0
 40
0
 40
1
 40
1
 40
1
 40
1
 10
86.611178
 20
7.294774
 30
0.0
 10
87.728778
 20
7.319433
 30
0.0
 10
88.949742
 20
7.347021
 30
0.0
 10
89.918469
 20
7.347021
 30
0.0
  0
SPLINE
  5
18b
100
AcDbEntity
  8
0
 62
7
100
AcDbSpline
 70
8
 71
3
 72
8
 73
4
 74
0
 40
0
 40
0
 40
0
 40
0
 40
1
 40
1
 40
1
 40
1
 10
89.918469
 20
7.347021
 30
0.0
 10
90.884375
 20
7.347021
 30
0.0
 10
92.128622
 20
7.319433
 30
0.0
 10
93.298786
 20
7.294774
 30
0.0
  0
SPLINE
  5
18c
100
AcDbEntity
  8
0
 62
7
100
AcDbSpline
 70
8
 71
3
 72
8
 73
4
 74
0
 40
0
 40
0
 40
0
 40
0
 40
1
 40
1
 40
1
 40
1
 10
93.298786
 20
7.294774
 30
0.0
 10
93.447658
 20
7.446504
 30
0.0
 10
93.447658
 20
8.081363
 30
0.0
 10
93.298786
 20
8.233093
 30
0.0
  0
SPLINE
  5
18d
100
AcDbEntity
  8
0
 62
7
100
AcDbSpline
 70
8
 71
3
 72
8
 73
4
 74
0
 40
0
 40
0
 40
0
 40
0
 40
1
 40
1
 40
1
 40
1
 10
93.298786
 20
8.233093
 30
0.0
 10
91.515494
 20
8.309010
 30
0.0
 10
91.086869
 20
8.434141
 30
0.0
 10
91.086869
 20
10.445115
 30
0.0
  0
LWPOLYLINE
  5
18e
100
AcDbEntity
  8
0
 62
7
100
AcDbPolyline
 90
2
 70
0
 10
88.719378
 20
19.827910
 30
0.0
 10
88.719378
 20
10.445115
 30
0.0
  0
SPLINE
  5
18f
100
AcDbEntity
  8
0
 62
7
100
AcDbSpline
 70
8
 71
3
 72
8
 73
4
 74
0
 40
0
 40
0
 40
0
 40
0
 40
1
 40
1
 40
1
 40
1
 10
112.811631
 20
10.293385
 30
0.0
 10
112.782703
 20
9.887973
 30
0.0
 10
112.556925
 20
9.680152
 30
0.0
 10
112.301867
 20
9.506267
 30
0.0
  0
SPLINE
  5
190
100
AcDbEntity
  8
0
 62
7
100
AcDbSpline
 70
8
 71
3
 72
8
 73
4
 74
0
 40
0
 40
0
 40
0
 40
0
 40
1
 40
1
 40
1
 40
1
 10
112.301867
 20
9.506267
 30
0.0
 10
111.433681
 20
8.944292
 30
0.0
 10
109.888867
 20
8.233092
 30
0.0
 10
108.944833
 20
8.233092
 30
0.0
  0
SPLINE
  5
191
100
AcDbEntity
  8
0
 62
7
100
AcDbSpline
 70
8
 71
3
 72
8
 73
4
 74
0
 40
0
 40
0
 40
0
 40
0
 40
1
 40
1
 40
1
 40
1
 10
108.944833
 20
8.233092
 30
0.0
 10
107.243033
 20
8.233092
 30
0.0
 10
106.606269
 20
9.327374
 30
0.0
 10
106.606269
 20
10.190057
 30
0.0
  0
SPLINE
  5
192
100
AcDbEntity
  8
0
 62
7
100
AcDbSpline
 70
8
 71
3
 72
8
 73
4
 74
0
 40
0
 40
0
 40
0
 40
0
 40
1
 40
1
 40
1
 40
1
 10
106.606269
 20
10.190057
 30
0.0
 10
106.606269
 20
11.613409
 30
0.0
 10
107.775022
 20
12.685536
 30
0.0
 10
109.934375
 20
13.112715
 30
0.0
  0
LWPOLYLINE
  5
193
100
AcDbEntity
  8
0
 62
7
100
AcDbPolyline
 90
2
 70
0
 10
112.985197
 20
13.697021
 30
0.0
 10
112.811631
 20
10.293385
 30
0.0
  0
SPLINE
  5
194
100
AcDbEntity
  8
0
 62
7
100
AcDbSpline
 70
8
 71
3
 72
8
 73
4
 74
0
 40
0
 40
0
 40
0
 40
0
 40
1
 40
1
 40
1
 40
1
 10
112.811631
 20
8.742821
 30
0.0
 10
112.940042
 20
7.880315
 30
0.0
 10
113.240256
 20
7.092209
 30
0.0
 10
114.993208
 20
7.092209
 30
0.0
  0
SPLINE
  5
195
100
AcDbEntity
  8
0
 62
7
100
AcDbSpline
 70
8
 71
3
 72
8
 73
4
 74
0
 40
0
 40
0
 40
0
 40
0
 40
1
 40
1
 40
1
 40
1
 10
114.993208
 20
7.092209
 30
0.0
 10
116.927842
 20
7.092209
 30
0.0
 10
117.993231
 20
8.180846
 30
0.0
 10
117.993231
 20
8.488151
 30
0.0
  0
SPLINE
  5
196
100
AcDbEntity
  8
0
 62
7
100
AcDbSpline
 70
8
 71
3
 72
8
 73
4
 74
0
 40
0
 40
0
 40
0
 40
0
 40
1
 40
1
 40
1
 40
1
 10
117.993231
 20
8.488151
 30
0.0
 10
117.993231
 20
8.689234
 30
0.0
 10
117.714889
 20
8.974596
 30
0.0
 10
117.564606
 20
8.974596
 30
0.0
  0
SPLINE
  5
197
100
AcDbEntity
  8
0
 62
7
100
AcDbSpline
 70
8
 71
3
 72
8
 73
4
 74
0
 40
0
 40
0
 40
0
 40
0
 40
1
 40
1
 40
1
 40
1
 10
117.564606
 20
8.974596
 30
0.0
 10
117.362111
 20
8.974596
 30
0.0
 10
117.258747
 20
8.510058
 30
0.0
 10
116.568361
 20
8.510058
 30
0.0
  0
SPLINE
  5
198
100
AcDbEntity
  8
0
 62
7
100
AcDbSpline
 70
8
 71
3
 72
8
 73
4
 74
0
 40
0
 40
0
 40
0
 40
0
 40
1
 40
1
 40
1
 40
1
 10
116.568361
 20
8.510058
 30
0.0
 10
115.301889
 20
8.510058
 30
0.0
 10
114.942056
 20
9.657997
 30
0.0
 10
115.023547
 20
10.930184
 30
0.0
  0
LWPOLYLINE
  5
199
100
AcDbEntity
  8
0
 62
7
100
AcDbPolyline
 90
2
 70
0
 10
109.934375
 20
13.112715
 30
0.0
 10
112.985197
 20
13.697021
 30
0.0
  0
SPLINE
  5
19a
100
AcDbEntity
  8
0
 62
7
100
AcDbSpline
 70
8
 71
3
 72
8
 73
4
 74
0
 40
0
 40
0
 40
0
 40
0
 40
1
 40
1
 40
1
 40
1
 10
115.197114
 20
15.024065
 30
0.0
 10
115.427125
 20
19.010877
 30
0.0
 10
112.909703
 20
19.798947
 30
0.0
 10
110.519986
 20
19.798947
 30
0.0
  0
SPLINE
  5
19b
100
AcDbEntity
  8
0
 62
7
100
AcDbSpline
 70
8
 71
3
 72
8
 73
4
 74
0
 40
0
 40
0
 40
0
 40
0
 40
1
 40
1
 40
1
 40
1
 10
110.519986
 20
19.798947
 30
0.0
 10
107.850869
 20
19.798947
 30
0.0
 10
105.083681
 20
18.194937
 30
0.0
 10
105.083681
 20
16.673724
 30
0.0
  0
SPLINE
  5
19c
100
AcDbEntity
  8
0
 62
7
100
AcDbSpline
 70
8
 71
3
 72
8
 73
4
 74
0
 40
0
 40
0
 40
0
 40
0
 40
1
 40
1
 40
1
 40
1
 10
105.083681
 20
16.673724
 30
0.0
 10
105.083681
 20
15.983303
 30
0.0
 10
105.564517
 20
15.682771
 30
0.0
 10
106.224564
 20
15.682771
 30
0.0
  0
SPLINE
  5
19d
100
AcDbEntity
  8
0
 62
7
100
AcDbSpline
 70
8
 71
3
 72
8
 73
4
 74
0
 40
0
 40
0
 40
0
 40
0
 40
1
 40
1
 40
1
 40
1
 10
106.224564
 20
15.682771
 30
0.0
 10
107.011611
 20
15.682771
 30
0.0
 10
107.624739
 20
16.140289
 30
0.0
 10
107.624739
 20
16.493067
 30
0.0
  0
SPLINE
  5
19e
100
AcDbEntity
  8
0
 62
7
100
AcDbSpline
 70
8
 71
3
 72
8
 73
4
 74
0
 40
0
 40
0
 40
0
 40
0
 40
1
 40
1
 40
1
 40
1
 10
107.624739
 20
16.493067
 30
0.0
 10
107.624739
 20
16.697007
 30
0.0
 10
107.573939
 20
16.927407
 30
0.0
 10
107.521375
 20
17.031723
 30
0.0
  0
SPLINE
  5
19f
100
AcDbEntity
  8
0
 62
7
100
AcDbSpline
 70
8
 71
3
 72
8
 73
4
 74
0
 40
0
 40
0
 40
0
 40
0
 40
1
 40
1
 40
1
 40
1
 10
107.521375
 20
17.031723
 30
0.0
 10
107.498092
 20
17.107641
 30
0.0
 10
107.469164
 20
17.280184
 30
0.0
 10
107.469164
 20
17.587348
 30
0.0
  0
SPLINE
  5
1a0
100
AcDbEntity
  8
0
 62
7
100
AcDbSpline
 70
8
 71
3
 72
8
 73
4
 74
0
 40
0
 40
0
 40
0
 40
0
 40
1
 40
1
 40
1
 40
1
 10
107.469164
 20
17.587348
 30
0.0
 10
107.469164
 20
18.478817
 30
0.0
 10
109.019269
 20
18.780866
 30
0.0
 10
110.270572
 20
18.780866
 30
0.0
  0
SPLINE
  5
1a1
100
AcDbEntity
  8
0
 62
7
100
AcDbSpline
 70
8
 71
3
 72
8
 73
4
 74
0
 40
0
 40
0
 40
0
 40
0
 40
1
 40
1
 40
1
 40
1
 10
110.270572
 20
18.780866
 30
0.0
 10
111.643231
 20
18.780866
 30
0.0
 10
113.037761
 20
18.073934
 30
0.0
 10
113.037761
 20
14.971818
 30
0.0
  0
SPLINE
  5
1a2
100
AcDbEntity
  8
0
 62
7
100
AcDbSpline
 70
8
 71
3
 72
8
 73
4
 74
0
 40
0
 40
0
 40
0
 40
0
 40
1
 40
1
 40
1
 40
1
 10
113.037761
 20
14.971818
 30
0.0
 10
113.037761
 20
14.768971
 30
0.0
 10
112.858550
 20
14.640983
 30
0.0
 10
112.782703
 20
14.612020
 30
0.0
  0
LWPOLYLINE
  5
1a3
100
AcDbEntity
  8
0
 62
7
100
AcDbPolyline
 90
2
 70
0
 10
115.023547
 20
10.930184
 30
0.0
 10
115.197114
 20
15.024065
 30
0.0
  0
SPLINE
  5
1a4
100
AcDbEntity
  8
0
 62
7
100
AcDbSpline
 70
8
 71
3
 72
8
 73
4
 74
0
 40
0
 40
0
 40
0
 40
0
 40
1
 40
1
 40
1
 40
1
 10
109.478233
 20
14.055443
 30
0.0
 10
105.842858
 20
13.420019
 30
0.0
 10
104.088847
 20
11.944421
 30
0.0
 10
104.088847
 20
10.061892
 30
0.0
  0
SPLINE
  5
1a5
100
AcDbEntity
  8
0
 62
7
100
AcDbSpline
 70
8
 71
3
 72
8
 73
4
 74
0
 40
0
 40
0
 40
0
 40
0
 40
1
 40
1
 40
1
 40
1
 10
104.088847
 20
10.061892
 30
0.0
 10
104.088847
 20
7.902646
 30
0.0
 10
105.842858
 20
7.092209
 30
0.0
 10
108.181422
 20
7.092209
 30
0.0
  0
SPLINE
  5
1a6
100
AcDbEntity
  8
0
 62
7
100
AcDbSpline
 70
8
 71
3
 72
8
 73
4
 74
0
 40
0
 40
0
 40
0
 40
0
 40
1
 40
1
 40
1
 40
1
 10
108.181422
 20
7.092209
 30
0.0
 10
109.733292
 20
7.092209
 30
0.0
 10
110.519986
 20
7.319433
 30
0.0
 10
112.019292
 20
8.262020
 30
0.0
  0
LWPOLYLINE
  5
1a7
100
AcDbEntity
  8
0
 62
7
100
AcDbPolyline
 90
2
 70
0
 10
112.782703
 20
14.612020
 30
0.0
 10
109.478233
 20
14.055443
 30
0.0
  0
SPLINE
  5
1a8
100
AcDbEntity
  8
0
 62
7
100
AcDbSpline
 70
8
 71
3
 72
8
 73
4
 74
0
 40
0
 40
0
 40
0
 40
0
 40
1
 40
1
 40
1
 40
1
 10
123.973872
 20
16.545701
 30
0.0
 10
124.680839
 20
17.534855
 30
0.0
 10
125.774803
 20
18.502101
 30
0.0
 10
126.919919
 20
18.502101
 30
0.0
  0
SPLINE
  5
1a9
100
AcDbEntity
  8
0
 62
7
100
AcDbSpline
 70
8
 71
3
 72
8
 73
4
 74
0
 40
0
 40
0
 40
0
 40
0
 40
1
 40
1
 40
1
 40
1
 10
126.919919
 20
18.502101
 30
0.0
 10
129.692753
 20
18.502101
 30
0.0
 10
130.682294
 20
16.469748
 30
0.0
 10
130.682294
 20
13.268713
 30
0.0
  0
SPLINE
  5
1aa
100
AcDbEntity
  8
0
 62
7
100
AcDbSpline
 70
8
 71
3
 72
8
 73
4
 74
0
 40
0
 40
0
 40
0
 40
0
 40
1
 40
1
 40
1
 40
1
 10
130.682294
 20
13.268713
 30
0.0
 10
130.682294
 20
10.039703
 30
0.0
 10
129.131836
 20
8.157281
 30
0.0
 10
126.590778
 20
8.157281
 30
0.0
  0
SPLINE
  5
1ab
100
AcDbEntity
  8
0
 62
7
100
AcDbSpline
 70
8
 71
3
 72
8
 73
4
 74
0
 40
0
 40
0
 40
0
 40
0
 40
1
 40
1
 40
1
 40
1
 10
126.590778
 20
8.157281
 30
0.0
 10
125.391686
 20
8.157281
 30
0.0
 10
123.539603
 20
9.454162
 30
0.0
 10
123.337108
 20
10.930184
 30
0.0
  0
LWPOLYLINE
  5
1ac
100
AcDbEntity
  8
0
 62
7
100
AcDbPolyline
 90
3
 70
0
 10
112.019292
 20
8.262020
 30
0.0
 10
112.730492
 20
8.742821
 30
0.0
 10
112.811631
 20
8.742821
 30
0.0
  0
SPLINE
  5
1ad
100
AcDbEntity
  8
0
 62
7
100
AcDbSpline
 70
8
 71
3
 72
8
 73
4
 74
0
 40
0
 40
0
 40
0
 40
0
 40
1
 40
1
 40
1
 40
1
 10
123.337108
 20
14.941515
 30
0.0
 10
123.337108
 20
15.527196
 30
0.0
 10
123.639086
 20
16.111326
 30
0.0
 10
123.973872
 20
16.545701
 30
0.0
  0
SPLINE
  5
1ae
100
AcDbEntity
  8
0
 62
7
100
AcDbSpline
 70
8
 71
3
 72
8
 73
4
 74
0
 40
0
 40
0
 40
0
 40
0
 40
1
 40
1
 40
1
 40
1
 10
123.337108
 20
17.534855
 30
0.0
 10
123.337108
 20
18.375454
 30
0.0
 10
123.308181
 20
19.365031
 30
0.0
 10
123.181533
 20
19.672335
 30
0.0
  0
SPLINE
  5
1af
100
AcDbEntity
  8
0
 62
7
100
AcDbSpline
 70
8
 71
3
 72
8
 73
4
 74
0
 40
0
 40
0
 40
0
 40
0
 40
1
 40
1
 40
1
 40
1
 10
123.181533
 20
19.672335
 30
0.0
 10
123.134614
 20
19.798947
 30
0.0
 10
123.083461
 20
19.903687
 30
0.0
 10
122.850628
 20
19.903687
 30
0.0
  0
SPLINE
  5
1b0
100
AcDbEntity
  8
0
 62
7
100
AcDbSpline
 70
8
 71
3
 72
8
 73
4
 74
0
 40
0
 40
0
 40
0
 40
0
 40
1
 40
1
 40
1
 40
1
 10
122.850628
 20
19.903687
 30
0.0
 10
122.063933
 20
19.596523
 30
0.0
 10
120.922697
 20
19.318182
 30
0.0
 10
118.960547
 20
19.063088
 30
0.0
  0
SPLINE
  5
1b1
100
AcDbEntity
  8
0
 62
7
100
AcDbSpline
 70
8
 71
3
 72
8
 73
4
 74
0
 40
0
 40
0
 40
0
 40
0
 40
1
 40
1
 40
1
 40
1
 10
118.960547
 20
19.063088
 30
0.0
 10
118.915039
 20
18.883806
 30
0.0
 10
118.989475
 20
18.449996
 30
0.0
 10
119.041686
 20
18.276358
 30
0.0
  0
SPLINE
  5
1b2
100
AcDbEntity
  8
0
 62
7
100
AcDbSpline
 70
8
 71
3
 72
8
 73
4
 74
0
 40
0
 40
0
 40
0
 40
0
 40
1
 40
1
 40
1
 40
1
 10
119.041686
 20
18.276358
 30
0.0
 10
120.564628
 20
18.120360
 30
0.0
 10
121.125544
 20
17.993748
 30
0.0
 10
121.125544
 20
16.342854
 30
0.0
  0
LWPOLYLINE
  5
1b3
100
AcDbEntity
  8
0
 62
7
100
AcDbPolyline
 90
2
 70
0
 10
123.337108
 20
10.930184
 30
0.0
 10
123.337108
 20
14.941515
 30
0.0
  0
SPLINE
  5
1b4
100
AcDbEntity
  8
0
 62
7
100
AcDbSpline
 70
8
 71
3
 72
8
 73
4
 74
0
 40
0
 40
0
 40
0
 40
0
 40
1
 40
1
 40
1
 40
1
 10
121.125544
 20
4.650317
 30
0.0
 10
121.125544
 20
2.543168
 30
0.0
 10
120.587911
 20
2.415148
 30
0.0
 10
119.041686
 20
2.333569
 30
0.0
  0
SPLINE
  5
1b5
100
AcDbEntity
  8
0
 62
7
100
AcDbSpline
 70
8
 71
3
 72
8
 73
4
 74
0
 40
0
 40
0
 40
0
 40
0
 40
1
 40
1
 40
1
 40
1
 10
119.041686
 20
2.333569
 30
0.0
 10
118.886111
 20
2.183638
 30
0.0
 10
118.886111
 20
1.546987
 30
0.0
 10
119.041686
 20
1.395264
 30
0.0
  0
SPLINE
  5
1b6
100
AcDbEntity
  8
0
 62
7
100
AcDbSpline
 70
8
 71
3
 72
8
 73
4
 74
0
 40
0
 40
0
 40
0
 40
0
 40
1
 40
1
 40
1
 40
1
 10
119.041686
 20
1.395264
 30
0.0
 10
120.107075
 20
1.418830
 30
0.0
 10
120.969617
 20
1.449282
 30
0.0
 10
122.243144
 20
1.449282
 30
0.0
  0
SPLINE
  5
1b7
100
AcDbEntity
  8
0
 62
7
100
AcDbSpline
 70
8
 71
3
 72
8
 73
4
 74
0
 40
0
 40
0
 40
0
 40
0
 40
1
 40
1
 40
1
 40
1
 10
122.243144
 20
1.449282
 30
0.0
 10
123.666603
 20
1.449282
 30
0.0
 10
124.836414
 20
1.418830
 30
0.0
 10
125.930731
 20
1.395264
 30
0.0
  0
SPLINE
  5
1b8
100
AcDbEntity
  8
0
 62
7
100
AcDbSpline
 70
8
 71
3
 72
8
 73
4
 74
0
 40
0
 40
0
 40
0
 40
0
 40
1
 40
1
 40
1
 40
1
 10
125.930731
 20
1.395264
 30
0.0
 10
126.081014
 20
1.546987
 30
0.0
 10
126.081014
 20
2.183638
 30
0.0
 10
125.930731
 20
2.333569
 30
0.0
  0
SPLINE
  5
1b9
100
AcDbEntity
  8
0
 62
7
100
AcDbSpline
 70
8
 71
3
 72
8
 73
4
 74
0
 40
0
 40
0
 40
0
 40
0
 40
1
 40
1
 40
1
 40
1
 10
125.930731
 20
2.333569
 30
0.0
 10
123.615450
 20
2.438439
 30
0.0
 10
123.337108
 20
2.543168
 30
0.0
 10
123.337108
 20
4.650317
 30
0.0
  0
LWPOLYLINE
  5
1ba
100
AcDbEntity
  8
0
 62
7
100
AcDbPolyline
 90
2
 70
0
 10
121.125544
 20
16.342854
 30
0.0
 10
121.125544
 20
4.650317
 30
0.0
  0
SPLINE
  5
1bb
100
AcDbEntity
  8
0
 62
7
100
AcDbSpline
 70
8
 71
3
 72
8
 73
4
 74
0
 40
0
 40
0
 40
0
 40
0
 40
1
 40
1
 40
1
 40
1
 10
123.337108
 20
8.562587
 30
0.0
 10
124.147439
 20
7.677891
 30
0.0
 10
125.265039
 20
7.092209
 30
0.0
 10
126.769989
 20
7.092209
 30
0.0
  0
SPLINE
  5
1bc
100
AcDbEntity
  8
0
 62
7
100
AcDbSpline
 70
8
 71
3
 72
8
 73
4
 74
0
 40
0
 40
0
 40
0
 40
0
 40
1
 40
1
 40
1
 40
1
 10
126.769989
 20
7.092209
 30
0.0
 10
128.343731
 20
7.092209
 30
0.0
 10
129.814108
 20
7.573151
 30
0.0
 10
130.985331
 20
8.667433
 30
0.0
  0
SPLINE
  5
1bd
100
AcDbEntity
  8
0
 62
7
100
AcDbSpline
 70
8
 71
3
 72
8
 73
4
 74
0
 40
0
 40
0
 40
0
 40
0
 40
1
 40
1
 40
1
 40
1
 10
130.985331
 20
8.667433
 30
0.0
 10
132.309658
 20
9.963891
 30
0.0
 10
133.119989
 20
11.741432
 30
0.0
 10
133.119989
 20
14.027891
 30
0.0
  0
SPLINE
  5
1be
100
AcDbEntity
  8
0
 62
7
100
AcDbSpline
 70
8
 71
3
 72
8
 73
4
 74
0
 40
0
 40
0
 40
0
 40
0
 40
1
 40
1
 40
1
 40
1
 10
133.119989
 20
14.027891
 30
0.0
 10
133.119989
 20
17.489382
 30
0.0
 10
131.291189
 20
19.798947
 30
0.0
 10
127.782814
 20
19.798947
 30
0.0
  0
SPLINE
  5
1bf
100
AcDbEntity
  8
0
 62
7
100
AcDbSpline
 70
8
 71
3
 72
8
 73
4
 74
0
 40
0
 40
0
 40
0
 40
0
 40
1
 40
1
 40
1
 40
1
 10
127.782814
 20
19.798947
 30
0.0
 10
125.825956
 20
19.798947
 30
0.0
 10
124.657203
 20
18.862040
 30
0.0
 10
123.563239
 20
17.437135
 30
0.0
  0
SPLINE
  5
1c0
100
AcDbEntity
  8
0
 62
7
100
AcDbSpline
 70
8
 71
3
 72
8
 73
4
 74
0
 40
0
 40
0
 40
0
 40
0
 40
1
 40
1
 40
1
 40
1
 10
123.563239
 20
17.437135
 30
0.0
 10
123.464108
 20
17.332290
 30
0.0
 10
123.337108
 20
17.332290
 30
0.0
 10
123.337108
 20
17.534855
 30
0.0
  0
SPLINE
  5
1c1
100
AcDbEntity
  8
0
 62
7
100
AcDbSpline
 70
8
 71
3
 72
8
 73
4
 74
0
 40
0
 40
0
 40
0
 40
0
 40
1
 40
1
 40
1
 40
1
 10
140.000567
 20
20.562394
 30
0.0
 10
140.000567
 20
21.455627
 30
0.0
 10
140.735050
 20
22.063075
 30
0.0
 10
142.773047
 20
22.063075
 30
0.0
  0
SPLINE
  5
1c2
100
AcDbEntity
  8
0
 62
7
100
AcDbSpline
 70
8
 71
3
 72
8
 73
4
 74
0
 40
0
 40
0
 40
0
 40
0
 40
1
 40
1
 40
1
 40
1
 10
142.773047
 20
22.063075
 30
0.0
 10
144.601847
 20
22.063075
 30
0.0
 10
146.303647
 20
21.656710
 30
0.0
 10
146.303647
 20
18.576502
 30
0.0
  0
SPLINE
  5
1c3
100
AcDbEntity
  8
0
 62
7
100
AcDbSpline
 70
8
 71
3
 72
8
 73
4
 74
0
 40
0
 40
0
 40
0
 40
0
 40
1
 40
1
 40
1
 40
1
 10
146.303647
 20
18.576502
 30
0.0
 10
146.303647
 20
15.961113
 30
0.0
 10
145.314106
 20
14.867114
 30
0.0
 10
142.563497
 20
14.867114
 30
0.0
  0
SPLINE
  5
1c4
100
AcDbEntity
  8
0
 62
7
100
AcDbSpline
 70
8
 71
3
 72
8
 73
4
 74
0
 40
0
 40
0
 40
0
 40
0
 40
1
 40
1
 40
1
 40
1
 10
142.563497
 20
14.867114
 30
0.0
 10
141.857942
 20
14.867114
 30
0.0
 10
140.277497
 20
14.943032
 30
0.0
 10
140.000567
 20
15.024065
 30
0.0
  0
LWPOLYLINE
  5
1c5
100
AcDbEntity
  8
0
 62
7
100
AcDbPolyline
 90
2
 70
0
 10
123.337108
 20
4.650317
 30
0.0
 10
123.337108
 20
8.562587
 30
0.0
  0
LWPOLYLINE
  5
1c6
100
AcDbEntity
  8
0
 62
7
100
AcDbPolyline
 90
2
 70
0
 10
140.000567
 20
15.024065
 30
0.0
 10
140.000567
 20
20.562394
 30
0.0
  0
SPLINE
  5
1c7
100
AcDbEntity
  8
0
 62
7
100
AcDbSpline
 70
8
 71
3
 72
8
 73
4
 74
0
 40
0
 40
0
 40
0
 40
0
 40
1
 40
1
 40
1
 40
1
 10
137.638367
 20
10.445115
 30
0.0
 10
137.638367
 20
8.434141
 30
0.0
 10
136.949392
 20
8.309010
 30
0.0
 10
135.171744
 20
8.233092
 30
0.0
  0
SPLINE
  5
1c8
100
AcDbEntity
  8
0
 62
7
100
AcDbSpline
 70
8
 71
3
 72
8
 73
4
 74
0
 40
0
 40
0
 40
0
 40
0
 40
1
 40
1
 40
1
 40
1
 10
135.171744
 20
8.233092
 30
0.0
 10
135.014758
 20
8.081363
 30
0.0
 10
135.014758
 20
7.446504
 30
0.0
 10
135.171744
 20
7.294774
 30
0.0
  0
SPLINE
  5
1c9
100
AcDbEntity
  8
0
 62
7
100
AcDbSpline
 70
8
 71
3
 72
8
 73
4
 74
0
 40
0
 40
0
 40
0
 40
0
 40
1
 40
1
 40
1
 40
1
 10
135.171744
 20
7.294774
 30
0.0
 10
136.415992
 20
7.319433
 30
0.0
 10
137.736439
 20
7.347021
 30
0.0
 10
138.935178
 20
7.347021
 30
0.0
  0
SPLINE
  5
1ca
100
AcDbEntity
  8
0
 62
7
100
AcDbSpline
 70
8
 71
3
 72
8
 73
4
 74
0
 40
0
 40
0
 40
0
 40
0
 40
1
 40
1
 40
1
 40
1
 10
138.935178
 20
7.347021
 30
0.0
 10
139.924719
 20
7.347021
 30
0.0
 10
141.829014
 20
7.319433
 30
0.0
 10
143.102542
 20
7.294774
 30
0.0
  0
SPLINE
  5
1cb
100
AcDbEntity
  8
0
 62
7
100
AcDbSpline
 70
8
 71
3
 72
8
 73
4
 74
0
 40
0
 40
0
 40
0
 40
0
 40
1
 40
1
 40
1
 40
1
 10
143.102542
 20
7.294774
 30
0.0
 10
143.252472
 20
7.446504
 30
0.0
 10
143.252472
 20
8.081363
 30
0.0
 10
143.102542
 20
8.233092
 30
0.0
  0
SPLINE
  5
1cc
100
AcDbEntity
  8
0
 62
7
100
AcDbSpline
 70
8
 71
3
 72
8
 73
4
 74
0
 40
0
 40
0
 40
0
 40
0
 40
1
 40
1
 40
1
 40
1
 10
143.102542
 20
8.233092
 30
0.0
 10
141.118167
 20
8.336456
 30
0.0
 10
140.000567
 20
8.434141
 30
0.0
 10
140.000567
 20
10.445115
 30
0.0
  0
LWPOLYLINE
  5
1cd
100
AcDbEntity
  8
0
 62
7
100
AcDbPolyline
 90
2
 70
0
 10
137.638367
 20
19.827910
 30
0.0
 10
137.638367
 20
10.445115
 30
0.0
  0
SPLINE
  5
1ce
100
AcDbEntity
  8
0
 62
7
100
AcDbSpline
 70
8
 71
3
 72
8
 73
4
 74
0
 40
0
 40
0
 40
0
 40
0
 40
1
 40
1
 40
1
 40
1
 10
140.000567
 20
14.230315
 30
0.0
 10
140.560072
 20
14.055443
 30
0.0
 10
141.700956
 20
13.899868
 30
0.0
 10
142.691556
 20
13.899868
 30
0.0
  0
SPLINE
  5
1cf
100
AcDbEntity
  8
0
 62
7
100
AcDbSpline
 70
8
 71
3
 72
8
 73
4
 74
0
 40
0
 40
0
 40
0
 40
0
 40
1
 40
1
 40
1
 40
1
 10
142.691556
 20
13.899868
 30
0.0
 10
147.826236
 20
13.899868
 30
0.0
 10
148.867989
 20
16.823902
 30
0.0
 10
148.867989
 20
19.010877
 30
0.0
  0
SPLINE
  5
1d0
100
AcDbEntity
  8
0
 62
7
100
AcDbSpline
 70
8
 71
3
 72
8
 73
4
 74
0
 40
0
 40
0
 40
0
 40
0
 40
1
 40
1
 40
1
 40
1
 10
148.867989
 20
19.010877
 30
0.0
 10
148.867989
 20
20.435746
 30
0.0
 10
147.953236
 20
23.081580
 30
0.0
 10
142.974131
 20
23.081580
 30
0.0
  0
SPLINE
  5
1d1
100
AcDbEntity
  8
0
 62
7
100
AcDbSpline
 70
8
 71
3
 72
8
 73
4
 74
0
 40
0
 40
0
 40
0
 40
0
 40
1
 40
1
 40
1
 40
1
 10
142.974131
 20
23.081580
 30
0.0
 10
142.232944
 20
23.081580
 30
0.0
 10
139.924719
 20
22.926005
 30
0.0
 10
138.904839
 20
22.926005
 30
0.0
  0
SPLINE
  5
1d2
100
AcDbEntity
  8
0
 62
7
100
AcDbSpline
 70
8
 71
3
 72
8
 73
4
 74
0
 40
0
 40
0
 40
0
 40
0
 40
1
 40
1
 40
1
 40
1
 10
138.904839
 20
22.926005
 30
0.0
 10
137.810875
 20
22.926005
 30
0.0
 10
136.596614
 20
22.953416
 30
0.0
 10
135.426803
 20
22.976734
 30
0.0
  0
SPLINE
  5
1d3
100
AcDbEntity
  8
0
 62
7
100
AcDbSpline
 70
8
 71
3
 72
8
 73
4
 74
0
 40
0
 40
0
 40
0
 40
0
 40
1
 40
1
 40
1
 40
1
 10
135.426803
 20
22.976734
 30
0.0
 10
135.269464
 20
22.826521
 30
0.0
 10
135.269464
 20
22.190146
 30
0.0
 10
135.426803
 20
22.038416
 30
0.0
  0
SPLINE
  5
1d4
100
AcDbEntity
  8
0
 62
7
100
AcDbSpline
 70
8
 71
3
 72
8
 73
4
 74
0
 40
0
 40
0
 40
0
 40
0
 40
1
 40
1
 40
1
 40
1
 10
135.426803
 20
22.038416
 30
0.0
 10
137.204450
 20
21.958335
 30
0.0
 10
137.638367
 20
21.831723
 30
0.0
 10
137.638367
 20
19.827910
 30
0.0
  0
SPLINE
  5
1d5
100
AcDbEntity
  8
0
 62
7
100
AcDbSpline
 70
8
 71
3
 72
8
 73
4
 74
0
 40
0
 40
0
 40
0
 40
0
 40
1
 40
1
 40
1
 40
1
 10
157.118403
 20
17.663266
 30
0.0
 10
157.118403
 20
19.035536
 30
0.0
 10
157.045378
 20
19.417242
 30
0.0
 10
156.917319
 20
19.672335
 30
0.0
  0
SPLINE
  5
1d6
100
AcDbEntity
  8
0
 62
7
100
AcDbSpline
 70
8
 71
3
 72
8
 73
4
 74
0
 40
0
 40
0
 40
0
 40
0
 40
1
 40
1
 40
1
 40
1
 10
156.917319
 20
19.672335
 30
0.0
 10
156.863344
 20
19.798947
 30
0.0
 10
156.817836
 20
19.873383
 30
0.0
 10
156.610050
 20
19.873383
 30
0.0
  0
SPLINE
  5
1d7
100
AcDbEntity
  8
0
 62
7
100
AcDbSpline
 70
8
 71
3
 72
8
 73
4
 74
0
 40
0
 40
0
 40
0
 40
0
 40
1
 40
1
 40
1
 40
1
 10
156.610050
 20
19.873383
 30
0.0
 10
155.492450
 20
19.672335
 30
0.0
 10
153.513367
 20
19.365031
 30
0.0
 10
151.757944
 20
19.138900
 30
0.0
  0
SPLINE
  5
1d8
100
AcDbEntity
  8
0
 62
7
100
AcDbSpline
 70
8
 71
3
 72
8
 73
4
 74
0
 40
0
 40
0
 40
0
 40
0
 40
1
 40
1
 40
1
 40
1
 10
151.757944
 20
19.138900
 30
0.0
 10
151.706792
 20
18.988687
 30
0.0
 10
151.757944
 20
18.576502
 30
0.0
 10
151.810156
 20
18.428088
 30
0.0
  0
SPLINE
  5
1d9
100
AcDbEntity
  8
0
 62
7
100
AcDbSpline
 70
8
 71
3
 72
8
 73
4
 74
0
 40
0
 40
0
 40
0
 40
0
 40
1
 40
1
 40
1
 40
1
 10
151.810156
 20
18.428088
 30
0.0
 10
152.395767
 20
18.428088
 30
0.0
 10
154.247850
 20
18.223724
 30
0.0
 10
154.502908
 20
18.073934
 30
0.0
  0
SPLINE
  5
1da
100
AcDbEntity
  8
0
 62
7
100
AcDbSpline
 70
8
 71
3
 72
8
 73
4
 74
0
 40
0
 40
0
 40
0
 40
0
 40
1
 40
1
 40
1
 40
1
 10
154.502908
 20
18.073934
 30
0.0
 10
154.832403
 20
17.865725
 30
0.0
 10
154.907897
 20
17.534855
 30
0.0
 10
154.907897
 20
16.697007
 30
0.0
  0
LWPOLYLINE
  5
1db
100
AcDbEntity
  8
0
 62
7
100
AcDbPolyline
 90
2
 70
0
 10
140.000567
 20
10.445115
 30
0.0
 10
140.000567
 20
14.230315
 30
0.0
  0
SPLINE
  5
1dc
100
AcDbEntity
  8
0
 62
7
100
AcDbSpline
 70
8
 71
3
 72
8
 73
4
 74
0
 40
0
 40
0
 40
0
 40
0
 40
1
 40
1
 40
1
 40
1
 10
154.907897
 20
10.548479
 30
0.0
 10
154.907897
 20
9.327374
 30
0.0
 10
154.779839
 20
8.846326
 30
0.0
 10
154.427061
 20
8.591515
 30
0.0
  0
SPLINE
  5
1dd
100
AcDbEntity
  8
0
 62
7
100
AcDbSpline
 70
8
 71
3
 72
8
 73
4
 74
0
 40
0
 40
0
 40
0
 40
0
 40
1
 40
1
 40
1
 40
1
 10
154.427061
 20
8.591515
 30
0.0
 10
154.172003
 20
8.412374
 30
0.0
 10
152.112133
 20
8.285727
 30
0.0
 10
151.070028
 20
8.233092
 30
0.0
  0
SPLINE
  5
1de
100
AcDbEntity
  8
0
 62
7
100
AcDbSpline
 70
8
 71
3
 72
8
 73
4
 74
0
 40
0
 40
0
 40
0
 40
0
 40
1
 40
1
 40
1
 40
1
 10
151.070028
 20
8.233092
 30
0.0
 10
150.920097
 20
8.081363
 30
0.0
 10
150.920097
 20
7.446504
 30
0.0
 10
151.070028
 20
7.294774
 30
0.0
  0
SPLINE
  5
1df
100
AcDbEntity
  8
0
 62
7
100
AcDbSpline
 70
8
 71
3
 72
8
 73
4
 74
0
 40
0
 40
0
 40
0
 40
0
 40
1
 40
1
 40
1
 40
1
 10
151.070028
 20
7.294774
 30
0.0
 10
152.141061
 20
7.319433
 30
0.0
 10
155.314650
 20
7.347021
 30
0.0
 10
156.331708
 20
7.347021
 30
0.0
  0
SPLINE
  5
1e0
100
AcDbEntity
  8
0
 62
7
100
AcDbSpline
 70
8
 71
3
 72
8
 73
4
 74
0
 40
0
 40
0
 40
0
 40
0
 40
1
 40
1
 40
1
 40
1
 10
156.331708
 20
7.347021
 30
0.0
 10
157.373461
 20
7.347021
 30
0.0
 10
160.476847
 20
7.319433
 30
0.0
 10
161.570811
 20
7.294774
 30
0.0
  0
SPLINE
  5
1e1
100
AcDbEntity
  8
0
 62
7
100
AcDbSpline
 70
8
 71
3
 72
8
 73
4
 74
0
 40
0
 40
0
 40
0
 40
0
 40
1
 40
1
 40
1
 40
1
 10
161.570811
 20
7.294774
 30
0.0
 10
161.722506
 20
7.446504
 30
0.0
 10
161.722506
 20
8.081363
 30
0.0
 10
161.570811
 20
8.233092
 30
0.0
  0
SPLINE
  5
1e2
100
AcDbEntity
  8
0
 62
7
100
AcDbSpline
 70
8
 71
3
 72
8
 73
4
 74
0
 40
0
 40
0
 40
0
 40
0
 40
1
 40
1
 40
1
 40
1
 10
161.570811
 20
8.233092
 30
0.0
 10
160.680753
 20
8.262020
 30
0.0
 10
157.988000
 20
8.434141
 30
0.0
 10
157.680731
 20
8.591515
 30
0.0
  0
SPLINE
  5
1e3
100
AcDbEntity
  8
0
 62
7
100
AcDbSpline
 70
8
 71
3
 72
8
 73
4
 74
0
 40
0
 40
0
 40
0
 40
0
 40
1
 40
1
 40
1
 40
1
 10
157.680731
 20
8.591515
 30
0.0
 10
157.224589
 20
8.846326
 30
0.0
 10
157.118403
 20
9.303808
 30
0.0
 10
157.118403
 20
10.548479
 30
0.0
  0
LWPOLYLINE
  5
1e4
100
AcDbEntity
  8
0
 62
7
100
AcDbPolyline
 90
2
 70
0
 10
154.907897
 20
16.697007
 30
0.0
 10
154.907897
 20
10.548479
 30
0.0
  0
SPLINE
  5
1e5
100
AcDbEntity
  8
0
 62
7
100
AcDbSpline
 70
8
 71
3
 72
8
 73
4
 74
0
 40
0
 40
0
 40
0
 40
0
 40
1
 40
1
 40
1
 40
1
 10
157.118403
 20
14.055443
 30
0.0
 10
157.118403
 20
14.716901
 30
0.0
 10
157.351236
 20
15.248819
 30
0.0
 10
157.732942
 20
15.682771
 30
0.0
  0
SPLINE
  5
1e6
100
AcDbEntity
  8
0
 62
7
100
AcDbSpline
 70
8
 71
3
 72
8
 73
4
 74
0
 40
0
 40
0
 40
0
 40
0
 40
1
 40
1
 40
1
 40
1
 10
157.732942
 20
15.682771
 30
0.0
 10
159.156400
 20
17.257854
 30
0.0
 10
160.401000
 20
18.299642
 30
0.0
 10
161.391600
 20
18.299642
 30
0.0
  0
SPLINE
  5
1e7
100
AcDbEntity
  8
0
 62
7
100
AcDbSpline
 70
8
 71
3
 72
8
 73
4
 74
0
 40
0
 40
0
 40
0
 40
0
 40
1
 40
1
 40
1
 40
1
 10
161.391600
 20
18.299642
 30
0.0
 10
161.744378
 20
18.299642
 30
0.0
 10
162.328931
 20
17.993748
 30
0.0
 10
162.509200
 20
17.789913
 30
0.0
  0
SPLINE
  5
1e8
100
AcDbEntity
  8
0
 62
7
100
AcDbSpline
 70
8
 71
3
 72
8
 73
4
 74
0
 40
0
 40
0
 40
0
 40
0
 40
1
 40
1
 40
1
 40
1
 10
162.509200
 20
17.789913
 30
0.0
 10
162.787542
 20
17.489382
 30
0.0
 10
163.167836
 20
17.107641
 30
0.0
 10
163.677953
 20
17.107641
 30
0.0
  0
SPLINE
  5
1e9
100
AcDbEntity
  8
0
 62
7
100
AcDbSpline
 70
8
 71
3
 72
8
 73
4
 74
0
 40
0
 40
0
 40
0
 40
0
 40
1
 40
1
 40
1
 40
1
 10
163.677953
 20
17.107641
 30
0.0
 10
164.338000
 20
17.107641
 30
0.0
 10
164.876692
 20
17.820252
 30
0.0
 10
164.876692
 20
18.502101
 30
0.0
  0
SPLINE
  5
1ea
100
AcDbEntity
  8
0
 62
7
100
AcDbSpline
 70
8
 71
3
 72
8
 73
4
 74
0
 40
0
 40
0
 40
0
 40
0
 40
1
 40
1
 40
1
 40
1
 10
164.876692
 20
18.502101
 30
0.0
 10
164.876692
 20
19.010877
 30
0.0
 10
164.569422
 20
19.798947
 30
0.0
 10
163.422894
 20
19.798947
 30
0.0
  0
SPLINE
  5
1eb
100
AcDbEntity
  8
0
 62
7
100
AcDbSpline
 70
8
 71
3
 72
8
 73
4
 74
0
 40
0
 40
0
 40
0
 40
0
 40
1
 40
1
 40
1
 40
1
 10
163.422894
 20
19.798947
 30
0.0
 10
160.349847
 20
19.798947
 30
0.0
 10
159.076672
 20
18.629136
 30
0.0
 10
157.373461
 20
16.852865
 30
0.0
  0
SPLINE
  5
1ec
100
AcDbEntity
  8
0
 62
7
100
AcDbSpline
 70
8
 71
3
 72
8
 73
4
 74
0
 40
0
 40
0
 40
0
 40
0
 40
1
 40
1
 40
1
 40
1
 10
157.373461
 20
16.852865
 30
0.0
 10
157.148742
 20
16.597912
 30
0.0
 10
157.118403
 20
16.823902
 30
0.0
 10
157.118403
 20
17.663266
 30
0.0
  0
SPLINE
  5
1ed
100
AcDbEntity
  8
0
 62
7
100
AcDbSpline
 70
8
 71
3
 72
8
 73
4
 74
0
 40
0
 40
0
 40
0
 40
0
 40
1
 40
1
 40
1
 40
1
 10
166.540039
 20
13.188668
 30
0.0
 10
166.540039
 20
10.293385
 30
0.0
 10
168.676108
 20
7.092209
 30
0.0
 10
173.121461
 20
7.092209
 30
0.0
  0
SPLINE
  5
1ee
100
AcDbEntity
  8
0
 62
7
100
AcDbSpline
 70
8
 71
3
 72
8
 73
4
 74
0
 40
0
 40
0
 40
0
 40
0
 40
1
 40
1
 40
1
 40
1
 10
173.121461
 20
7.092209
 30
0.0
 10
175.130883
 20
7.092209
 30
0.0
 10
176.659117
 20
7.723364
 30
0.0
 10
177.724153
 20
8.667432
 30
0.0
  0
SPLINE
  5
1ef
100
AcDbEntity
  8
0
 62
7
100
AcDbSpline
 70
8
 71
3
 72
8
 73
4
 74
0
 40
0
 40
0
 40
0
 40
0
 40
1
 40
1
 40
1
 40
1
 10
177.724153
 20
8.667432
 30
0.0
 10
179.147611
 20
9.913056
 30
0.0
 10
179.755447
 20
11.716773
 30
0.0
 10
179.755447
 20
13.442209
 30
0.0
  0
SPLINE
  5
1f0
100
AcDbEntity
  8
0
 62
7
100
AcDbSpline
 70
8
 71
3
 72
8
 73
4
 74
0
 40
0
 40
0
 40
0
 40
0
 40
1
 40
1
 40
1
 40
1
 10
179.755447
 20
13.442209
 30
0.0
 10
179.755447
 20
16.395347
 30
0.0
 10
177.955575
 20
19.798947
 30
0.0
 10
173.172614
 20
19.798947
 30
0.0
  0
SPLINE
  5
1f1
100
AcDbEntity
  8
0
 62
7
100
AcDbSpline
 70
8
 71
3
 72
8
 73
4
 74
0
 40
0
 40
0
 40
0
 40
0
 40
1
 40
1
 40
1
 40
1
 10
173.172614
 20
19.798947
 30
0.0
 10
171.113803
 20
19.798947
 30
0.0
 10
169.440931
 20
19.035536
 30
0.0
 10
168.292992
 20
17.820252
 30
0.0
  0
SPLINE
  5
1f2
100
AcDbEntity
  8
0
 62
7
100
AcDbSpline
 70
8
 71
3
 72
8
 73
4
 74
0
 40
0
 40
0
 40
0
 40
0
 40
1
 40
1
 40
1
 40
1
 10
168.292992
 20
17.820252
 30
0.0
 10
167.176803
 20
16.597912
 30
0.0
 10
166.540039
 20
14.971818
 30
0.0
 10
166.540039
 20
13.188668
 30
0.0
  0
SPLINE
  5
1f3
100
AcDbEntity
  8
0
 62
7
100
AcDbSpline
 70
8
 71
3
 72
8
 73
4
 74
0
 40
0
 40
0
 40
0
 40
0
 40
1
 40
1
 40
1
 40
1
 10
172.665319
 20
18.757159
 30
0.0
 10
175.564800
 20
18.757159
 30
0.0
 10
177.317753
 20
16.673724
 30
0.0
 10
177.317753
 20
12.504879
 30
0.0
  0
SPLINE
  5
1f4
100
AcDbEntity
  8
0
 62
7
100
AcDbSpline
 70
8
 71
3
 72
8
 73
4
 74
0
 40
0
 40
0
 40
0
 40
0
 40
1
 40
1
 40
1
 40
1
 10
177.317753
 20
12.504879
 30
0.0
 10
177.317753
 20
8.868516
 30
0.0
 10
175.183094
 20
8.133997
 30
0.0
 10
173.579014
 20
8.133997
 30
0.0
  0
SPLINE
  5
1f5
100
AcDbEntity
  8
0
 62
7
100
AcDbSpline
 70
8
 71
3
 72
8
 73
4
 74
0
 40
0
 40
0
 40
0
 40
0
 40
1
 40
1
 40
1
 40
1
 10
173.579014
 20
8.133997
 30
0.0
 10
170.099567
 20
8.133997
 30
0.0
 10
168.981967
 20
11.590126
 30
0.0
 10
168.981967
 20
13.825291
 30
0.0
  0
SPLINE
  5
1f6
100
AcDbEntity
  8
0
 62
7
100
AcDbSpline
 70
8
 71
3
 72
8
 73
4
 74
0
 40
0
 40
0
 40
0
 40
0
 40
1
 40
1
 40
1
 40
1
 10
168.981967
 20
13.825291
 30
0.0
 10
168.981967
 20
16.342854
 30
0.0
 10
169.694225
 20
18.757159
 30
0.0
 10
172.665319
 20
18.757159
 30
0.0
  0
LWPOLYLINE
  5
1f7
100
AcDbEntity
  8
0
 62
7
100
AcDbPolyline
 90
2
 70
0
 10
157.118403
 20
10.548479
 30
0.0
 10
157.118403
 20
14.055443
 30
0.0
  0
ENDSEC
  0
SECTION
  2
OBJECTS
  0
DICTIONARY
  5
C
330
0
100
AcDbDictionary
  3
ACAD_GROUP
350
D
  3
ACAD_MLINESTYLE
350
17
  0
DICTIONARY
  5
D
330
C
100
AcDbDictionary
  0
DICTIONARY
  5
1A
330
C
100
AcDbDictionary
  0
DICTIONARY
  5
17
330
C
100
AcDbDictionary
  3
STANDARD
350
18
  0
DICTIONARY
  5
19
330
C
100
AcDbDictionary
  0
ENDSEC
  0
EOF
