  0
SECTION
  2
BLOCKS
  0
ENDSEC
  0
SECTION
  2
ENTITIES
  0
LINE
  8
0
 10
-8.37
 11
-7.801
 20
-2.248
 21
-1.524
  0
LINE
  8
0
 10
-7.801
 11
-7.265
 20
-1.524
 21
-1.048
  0
LINE
  8
0
 10
-7.265
 11
-6.829
 20
-1.048
 21
-0.78
  0
LINE
  8
0
 10
-6.829
 11
-6.543
 20
-0.78
 21
-0.667
  0
LINE
  8
0
 10
-6.543
 11
-6.442
 20
-0.667
 21
-0.645
  0
LINE
  8
0
 10
-6.442
 11
-5.741
 20
-0.645
 21
-0.575
  0
LINE
  8
0
 10
-5.741
 11
-5.741
 20
-0.575
 21
0.575
  0
LINE
  8
0
 10
-5.741
 11
-6.442
 20
0.575
 21
0.645
  0
LINE
  8
0
 10
-6.442
 11
-6.543
 20
0.645
 21
0.667
  0
LINE
  8
0
 10
-6.543
 11
-6.829
 20
0.667
 21
0.78
  0
LINE
  8
0
 10
-6.829
 11
-7.265
 20
0.78
 21
1.048
  0
LINE
  8
0
 10
-7.265
 11
-7.801
 20
1.048
 21
1.524
  0
LINE
  8
0
 10
-7.801
 11
-8.37
 20
1.524
 21
2.248
  0
LINE
  8
0
 10
-8.37
 11
-8.256
 20
2.248
 21
2.634
  0
LINE
  8
0
 10
-8.256
 11
-7.386
 20
2.634
 21
2.935
  0
LINE
  8
0
 10
-7.386
 11
-6.678
 20
2.935
 21
3.046
  0
LINE
  8
0
 10
-6.678
 11
-6.167
 20
3.046
 21
3.035
  0
LINE
  8
0
 10
-6.167
 11
-5.865
 20
3.035
 21
2.976
  0
LINE
  8
0
 10
-5.865
 11
-5.768
 20
2.976
 21
2.94
  0
LINE
  8
0
 10
-5.768
 11
-5.14
 20
2.94
 21
2.62
  0
LINE
  8
0
 10
-5.14
 11
-4.518
 20
2.62
 21
3.587
  0
LINE
  8
0
 10
-4.518
 11
-5.071
 20
3.587
 21
4.026
  0
LINE
  8
0
 10
-5.071
 11
-5.143
 20
4.026
 21
4.099
  0
LINE
  8
0
 10
-5.143
 11
-5.323
 20
4.099
 21
4.348
  0
LINE
  8
0
 10
-5.323
 11
-5.545
 20
4.348
 21
4.81
  0
LINE
  8
0
 10
-5.545
 11
-5.738
 20
4.81
 21
5.5
  0
LINE
  8
0
 10
-5.738
 11
-5.826
 20
5.5
 21
6.416
  0
LINE
  8
0
 10
-5.826
 11
-5.522
 20
6.416
 21
6.679
  0
LINE
  8
0
 10
-5.522
 11
-4.627
 20
6.679
 21
6.462
  0
LINE
  8
0
 10
-4.627
 11
-3.971
 20
6.462
 21
6.173
  0
LINE
  8
0
 10
-3.971
 11
-3.547
 20
6.173
 21
5.887
  0
LINE
  8
0
 10
-3.547
 11
-3.325
 20
5.887
 21
5.674
  0
LINE
  8
0
 10
-3.325
 11
-3.263
 20
5.674
 21
5.592
  0
LINE
  8
0
 10
-3.263
 11
-2.908
 20
5.592
 21
4.983
  0
LINE
  8
0
 10
-2.908
 11
-1.862
 20
4.983
 21
5.461
  0
LINE
  8
0
 10
-1.862
 11
-2.089
 20
5.461
 21
6.128
  0
LINE
  8
0
 10
-2.089
 11
-2.111
 20
6.128
 21
6.229
  0
LINE
  8
0
 10
-2.111
 11
-2.127
 20
6.229
 21
6.536
  0
LINE
  8
0
 10
-2.127
 11
-2.064
 20
6.536
 21
7.044
  0
LINE
  8
0
 10
-2.064
 11
-1.854
 20
7.044
 21
7.729
  0
LINE
  8
0
 10
-1.854
 11
-1.432
 20
7.729
 21
8.547
  0
LINE
  8
0
 10
-1.432
 11
-1.034
 20
8.547
 21
8.604
  0
LINE
  8
0
 10
-1.034
 11
-0.399
 20
8.604
 21
7.938
  0
LINE
  8
0
 10
-0.399
 11
-0.004
 20
7.938
 21
7.34
  0
LINE
  8
0
 10
-0.004
 11
0.199
 20
7.34
 21
6.87
  0
LINE
  8
0
 10
0.199
 11
0.271
 20
6.87
 21
6.571
  0
LINE
  8
0
 10
0.271
 11
0.278
 20
6.571
 21
6.468
  0
LINE
  8
0
 10
0.278
 11
0.248
 20
6.468
 21
5.764
  0
LINE
  8
0
 10
0.248
 11
1.386
 20
5.764
 21
5.601
  0
LINE
  8
0
 10
1.386
 11
1.555
 20
5.601
 21
6.285
  0
LINE
  8
0
 10
1.555
 11
1.592
 20
6.285
 21
6.381
  0
LINE
  8
0
 10
1.592
 11
1.744
 20
6.381
 21
6.648
  0
LINE
  8
0
 10
1.744
 11
2.071
 20
6.648
 21
7.042
  0
LINE
  8
0
 10
2.071
 11
2.619
 20
7.042
 21
7.504
  0
LINE
  8
0
 10
2.619
 11
3.416
 20
7.504
 21
7.965
  0
LINE
  8
0
 10
3.416
 11
3.782
 20
7.965
 21
7.798
  0
LINE
  8
0
 10
3.782
 11
3.956
 20
7.798
 21
6.893
  0
LINE
  8
0
 10
3.956
 11
3.965
 20
6.893
 21
6.177
  0
LINE
  8
0
 10
3.965
 11
3.882
 20
6.177
 21
5.672
  0
LINE
  8
0
 10
3.882
 11
3.78
 20
5.672
 21
5.382
  0
LINE
  8
0
 10
3.78
 11
3.731
 20
5.382
 21
5.291
  0
LINE
  8
0
 10
3.731
 11
3.325
 20
5.291
 21
4.715
  0
LINE
  8
0
 10
3.325
 11
4.194
 20
4.715
 21
3.962
  0
LINE
  8
0
 10
4.194
 11
4.706
 20
3.962
 21
4.446
  0
LINE
  8
0
 10
4.706
 11
4.789
 20
4.446
 21
4.508
  0
LINE
  8
0
 10
4.789
 11
5.062
 20
4.508
 21
4.65
  0
LINE
  8
0
 10
5.062
 11
5.55
 20
4.65
 21
4.804
  0
LINE
  8
0
 10
5.55
 11
6.26
 20
4.804
 21
4.897
  0
LINE
  8
0
 10
6.26
 11
7.18
 20
4.897
 21
4.853
  0
LINE
  8
0
 10
7.18
 11
7.397
 20
4.853
 21
4.515
  0
LINE
  8
0
 10
7.397
 11
7.055
 20
4.515
 21
3.66
  0
LINE
  8
0
 10
7.055
 11
6.675
 20
3.66
 21
3.053
  0
LINE
  8
0
 10
6.675
 11
6.332
 20
3.053
 21
2.673
  0
LINE
  8
0
 10
6.332
 11
6.09
 20
2.673
 21
2.484
  0
LINE
  8
0
 10
6.09
 11
6
 20
2.484
 21
2.434
  0
LINE
  8
0
 10
6
 11
5.347
 20
2.434
 21
2.169
  0
LINE
  8
0
 10
5.347
 11
5.67
 20
2.169
 21
1.066
  0
LINE
  8
0
 10
5.67
 11
6.363
 20
1.066
 21
1.196
  0
LINE
  8
0
 10
6.363
 11
6.466
 20
1.196
 21
1.203
  0
LINE
  8
0
 10
6.466
 11
6.772
 20
1.203
 21
1.175
  0
LINE
  8
0
 10
6.772
 11
7.266
 20
1.175
 21
1.041
  0
LINE
  8
0
 10
7.266
 11
7.914
 20
1.041
 21
0.735
  0
LINE
  8
0
 10
7.914
 11
8.664
 20
0.735
 21
0.201
  0
LINE
  8
0
 10
8.664
 11
8.664
 20
0.201
 21
-0.201
  0
LINE
  8
0
 10
8.664
 11
7.914
 20
-0.201
 21
-0.735
  0
LINE
  8
0
 10
7.914
 11
7.266
 20
-0.735
 21
-1.041
  0
LINE
  8
0
 10
7.266
 11
6.772
 20
-1.041
 21
-1.175
  0
LINE
  8
0
 10
6.772
 11
6.466
 20
-1.175
 21
-1.203
  0
LINE
  8
0
 10
6.466
 11
6.363
 20
-1.203
 21
-1.196
  0
LINE
  8
0
 10
6.363
 11
5.67
 20
-1.196
 21
-1.066
  0
LINE
  8
0
 10
5.67
 11
5.346
 20
-1.066
 21
-2.169
  0
LINE
  8
0
 10
5.346
 11
6
 20
-2.169
 21
-2.434
  0
LINE
  8
0
 10
6
 11
6.09
 20
-2.434
 21
-2.484
  0
LINE
  8
0
 10
6.09
 11
6.332
 20
-2.484
 21
-2.673
  0
LINE
  8
0
 10
6.332
 11
6.675
 20
-2.673
 21
-3.053
  0
LINE
  8
0
 10
6.675
 11
7.055
 20
-3.053
 21
-3.66
  0
LINE
  8
0
 10
7.055
 11
7.397
 20
-3.66
 21
-4.515
  0
LINE
  8
0
 10
7.397
 11
7.18
 20
-4.515
 21
-4.853
  0
LINE
  8
0
 10
7.18
 11
6.26
 20
-4.853
 21
-4.897
  0
LINE
  8
0
 10
6.26
 11
5.55
 20
-4.897
 21
-4.804
  0
LINE
  8
0
 10
5.55
 11
5.062
 20
-4.804
 21
-4.65
  0
LINE
  8
0
 10
5.062
 11
4.789
 20
-4.65
 21
-4.508
  0
LINE
  8
0
 10
4.789
 11
4.706
 20
-4.508
 21
-4.446
  0
LINE
  8
0
 10
4.706
 11
4.194
 20
-4.446
 21
-3.962
  0
LINE
  8
0
 10
4.194
 11
3.325
 20
-3.962
 21
-4.715
  0
LINE
  8
0
 10
3.325
 11
3.731
 20
-4.715
 21
-5.291
  0
LINE
  8
0
 10
3.731
 11
3.78
 20
-5.291
 21
-5.382
  0
LINE
  8
0
 10
3.78
 11
3.882
 20
-5.382
 21
-5.672
  0
LINE
  8
0
 10
3.882
 11
3.965
 20
-5.672
 21
-6.177
  0
LINE
  8
0
 10
3.965
 11
3.956
 20
-6.177
 21
-6.893
  0
LINE
  8
0
 10
3.956
 11
3.782
 20
-6.893
 21
-7.798
  0
LINE
  8
0
 10
3.782
 11
3.416
 20
-7.798
 21
-7.965
  0
LINE
  8
0
 10
3.416
 11
2.619
 20
-7.965
 21
-7.504
  0
LINE
  8
0
 10
2.619
 11
2.071
 20
-7.504
 21
-7.042
  0
LINE
  8
0
 10
2.071
 11
1.744
 20
-7.042
 21
-6.648
  0
LINE
  8
0
 10
1.744
 11
1.592
 20
-6.648
 21
-6.381
  0
LINE
  8
0
 10
1.592
 11
1.555
 20
-6.381
 21
-6.285
  0
LINE
  8
0
 10
1.555
 11
1.386
 20
-6.285
 21
-5.601
  0
LINE
  8
0
 10
1.386
 11
0.248
 20
-5.601
 21
-5.764
  0
LINE
  8
0
 10
0.248
 11
0.278
 20
-5.764
 21
-6.468
  0
LINE
  8
0
 10
0.278
 11
0.271
 20
-6.468
 21
-6.571
  0
LINE
  8
0
 10
0.271
 11
0.199
 20
-6.571
 21
-6.87
  0
LINE
  8
0
 10
0.199
 11
-0.004
 20
-6.87
 21
-7.34
  0
LINE
  8
0
 10
-0.004
 11
-0.399
 20
-7.34
 21
-7.938
  0
LINE
  8
0
 10
-0.399
 11
-1.034
 20
-7.938
 21
-8.604
  0
LINE
  8
0
 10
-1.034
 11
-1.432
 20
-8.604
 21
-8.547
  0
LINE
  8
0
 10
-1.432
 11
-1.854
 20
-8.547
 21
-7.729
  0
LINE
  8
0
 10
-1.854
 11
-2.064
 20
-7.729
 21
-7.044
  0
LINE
  8
0
 10
-2.064
 11
-2.127
 20
-7.044
 21
-6.536
  0
LINE
  8
0
 10
-2.127
 11
-2.111
 20
-6.536
 21
-6.229
  0
LINE
  8
0
 10
-2.111
 11
-2.089
 20
-6.229
 21
-6.128
  0
LINE
  8
0
 10
-2.089
 11
-1.862
 20
-6.128
 21
-5.461
  0
LINE
  8
0
 10
-1.862
 11
-2.908
 20
-5.461
 21
-4.983
  0
LINE
  8
0
 10
-2.908
 11
-3.263
 20
-4.983
 21
-5.592
  0
LINE
  8
0
 10
-3.263
 11
-3.325
 20
-5.592
 21
-5.674
  0
LINE
  8
0
 10
-3.325
 11
-3.547
 20
-5.674
 21
-5.887
  0
LINE
  8
0
 10
-3.547
 11
-3.971
 20
-5.887
 21
-6.173
  0
LINE
  8
0
 10
-3.971
 11
-4.627
 20
-6.173
 21
-6.462
  0
LINE
  8
0
 10
-4.627
 11
-5.522
 20
-6.462
 21
-6.679
  0
LINE
  8
0
 10
-5.522
 11
-5.826
 20
-6.679
 21
-6.416
  0
LINE
  8
0
 10
-5.826
 11
-5.738
 20
-6.416
 21
-5.5
  0
LINE
  8
0
 10
-5.738
 11
-5.545
 20
-5.5
 21
-4.81
  0
LINE
  8
0
 10
-5.545
 11
-5.323
 20
-4.81
 21
-4.348
  0
LINE
  8
0
 10
-5.323
 11
-5.143
 20
-4.348
 21
-4.099
  0
LINE
  8
0
 10
-5.143
 11
-5.071
 20
-4.099
 21
-4.026
  0
LINE
  8
0
 10
-5.071
 11
-4.519
 20
-4.026
 21
-3.587
  0
LINE
  8
0
 10
-4.519
 11
-5.141
 20
-3.587
 21
-2.62
  0
LINE
  8
0
 10
-5.141
 11
-5.768
 20
-2.62
 21
-2.94
  0
LINE
  8
0
 10
-5.768
 11
-5.865
 20
-2.94
 21
-2.976
  0
LINE
  8
0
 10
-5.865
 11
-6.167
 20
-2.976
 21
-3.035
  0
LINE
  8
0
 10
-6.167
 11
-6.678
 20
-3.035
 21
-3.046
  0
LINE
  8
0
 10
-6.678
 11
-7.386
 20
-3.046
 21
-2.935
  0
LINE
  8
0
 10
-7.386
 11
-8.256
 20
-2.935
 21
-2.634
  0
LINE
  8
0
 10
-8.256
 11
-8.37
 20
-2.634
 21
-2.248
  0
ENDSEC
  0
SECTION
  2
OBJECTS
  0
DICTIONARY
  0
ENDSEC
  0
EOF
