999
dxfrw 0.5.11
0
SECTION
2
HEADER
9
$ACADVER
1
AC1009
9
$DWGCODEPAGE
3
ANSI_1252
9
$INSBASE
10
0
20
0
30
0
9
$EXTMIN
10
6.25
20
5
30
0
9
$EXTMAX
10
592.383392471
20
137.386943638
30
0
9
$LIMMIN
10
0
20
0
9
$LIMMAX
10
420
20
297
9
$ORTHOMODE
70
0
9
$LTSCALE
40
1
9
$TEXTSTYLE
7
STANDARD
9
$CLAYER
8
0
9
$DIMASZ
40
3.302
9
$DIMLFAC
40
1
9
$DIMSCALE
40
1
9
$DIMEXO
40
1
9
$DIMEXE
40
1
9
$DIMTXT
40
3.5
9
$DIMTSZ
40
0
9
$DIMUNIT
70
2
9
$DIMSTYLE
2
ISO-25
9
$DIMGAP
40
1.524
9
$DIMTIH
70
1
9
$LUNITS
70
2
9
$LUPREC
70
2
9
$AUNITS
70
0
9
$AUPREC
70
2
9
$GRIDMODE
70
0
9
$SNAPSTYLE
70
0
9
$PLIMMIN
10
0
20
0
9
$PLIMMAX
10
420
20
297
0
ENDSEC
0
SECTION
2
CLASSES
0
ENDSEC
0
SECTION
2
TABLES
0
TABLE
2
VPORT
70
1
0
VPORT
2
*ACTIVE
70
0
10
0
20
0
11
1
21
1
12
333.87132233
22
147.592990098
13
0
23
0
14
10
24
10
15
10
25
10
16
0
26
0
36
1
17
0
27
0
37
0
40
423.015806377
41
2.20477137177
42
50
43
0
44
0
50
0
51
0
71
0
72
100
73
1
74
3
75
0
76
0
77
0
78
0
0
ENDTAB
0
TABLE
2
LTYPE
70
4
0
LTYPE
2
BYBLOCK
70
0
3

72
65
73
0
40
0
0
LTYPE
2
BYLAYER
70
0
3

72
65
73
0
40
0
0
LTYPE
2
CONTINUOUS
70
0
3
Solid line
72
65
73
0
40
0
0
LTYPE
2
DOT
70
0
3
Dot . . . . . . . . . . . . . . . . . . . . . .
72
65
73
2
40
6.35
49
0
49
-6.35
0
LTYPE
2
DOT2
70
0
3
Dot (.5x) .....................................
72
65
73
2
40
3.175
49
0
49
-3.175
0
LTYPE
2
DOTX2
70
0
3
Dot (2x) .  .  .  .  .  .  .  .  .  .  .  .  .
72
65
73
2
40
12.7
49
0
49
-12.7
0
LTYPE
2
DASHED
70
0
3
Dot . . . . . . . . . . . . . . . . . . . . . .
72
65
73
2
40
19.05
49
12.7
49
-6.35
0
LTYPE
2
DASHED2
70
0
3
Dashed (.5x) _ _ _ _ _ _ _ _ _ _ _ _ _ _ _ _ _
72
65
73
2
40
9.525
49
6.35
49
-3.175
0
LTYPE
2
DASHEDX2
70
0
3
Dashed (2x) ____  ____  ____  ____  ____  ___
72
65
73
2
40
38.1
49
25.4
49
-12.7
0
LTYPE
2
DASHDOT
70
0
3
Dash dot __ . __ . __ . __ . __ . __ . __ . __
72
65
73
4
40
25.4
49
12.7
49
-6.35
49
0
49
-6.35
0
LTYPE
2
DASHDOT2
70
0
3
Dash dot (.5x) _._._._._._._._._._._._._._._.
72
65
73
4
40
12.7
49
6.35
49
-3.175
49
0
49
-3.175
0
LTYPE
2
DASHDOTX2
70
0
3
Dash dot (2x) ____  .  ____  .  ____  .  ___
72
65
73
4
40
50.8
49
25.4
49
-12.7
49
0
49
-12.7
0
LTYPE
2
DIVIDE
70
0
3
Divide ____ . . ____ . . ____ . . ____ . . ____
72
65
73
6
40
31.75
49
12.7
49
-6.35
49
0
49
-6.35
49
0
49
-6.35
0
LTYPE
2
DIVIDE2
70
0
3
Divide (.5x) __..__..__..__..__..__..__..__.._
72
65
73
6
40
15.875
49
6.35
49
-3.175
49
0
49
-3.175
49
0
49
-3.175
0
LTYPE
2
DIVIDEX2
70
0
3
Divide (2x) ________  .  .  ________  .  .  _
72
65
73
6
40
63.5
49
25.4
49
-12.7
49
0
49
-12.7
49
0
49
-12.7
0
LTYPE
2
BORDER
70
0
3
Border __ __ . __ __ . __ __ . __ __ . __ __ .
72
65
73
6
40
44.45
49
12.7
49
-6.35
49
12.7
49
-6.35
49
0
49
-6.35
0
LTYPE
2
BORDER2
70
0
3
Border (.5x) __.__.__.__.__.__.__.__.__.__.__.
72
65
73
6
40
22.225
49
6.35
49
-3.175
49
6.35
49
-3.175
49
0
49
-3.175
0
LTYPE
2
BORDERX2
70
0
3
Border (2x) ____  ____  .  ____  ____  .  ___
72
65
73
6
40
88.9
49
25.4
49
-12.7
49
25.4
49
-12.7
49
0
49
-12.7
0
LTYPE
2
CENTER
70
0
3
Center ____ _ ____ _ ____ _ ____ _ ____ _ ____
72
65
73
4
40
50.8
49
31.75
49
-6.35
49
6.35
49
-6.35
0
LTYPE
2
CENTER2
70
0
3
Center (.5x) ___ _ ___ _ ___ _ ___ _ ___ _ ___
72
65
73
4
40
28.575
49
19.05
49
-3.175
49
3.175
49
-3.175
0
LTYPE
2
CENTERX2
70
0
3
Center (2x) ________  __  ________  __  _____
72
65
73
4
40
101.6
49
63.5
49
-12.7
49
12.7
49
-12.7
0
ENDTAB
0
TABLE
2
LAYER
70
1
0
LAYER
2
0
70
0
62
7
6
CONTINUOUS
0
ENDTAB
0
TABLE
2
STYLE
70
3
0
STYLE
2
STANDARD
70
0
40
0
41
1
50
0
71
0
42
1
3
TXT
4

0
ENDTAB
0
TABLE
2
VIEW
70
0
0
ENDTAB
0
TABLE
2
UCS
70
0
0
ENDTAB
0
TABLE
2
APPID
70
1
0
APPID
2
ACAD
70
0
0
ENDTAB
0
TABLE
2
DIMSTYLE
70
1
0
DIMSTYLE
2
STANDARD
70
0
3

4

5

6

7

40
1
41
3.302
42
1
43
0.38
44
1
45
0
46
0
47
0
48
0
140
3.5
141
0.09
142
0
143
25.4
144
1
145
0
146
1
147
1.524
71
0
72
0
73
0
74
1
75
0
76
0
77
0
78
0
170
0
171
2
172
0
173
0
174
0
175
0
176
0
177
0
178
0
0
ENDTAB
0
ENDSEC
0
SECTION
2
BLOCKS
0
BLOCK
8
0
2
$MODEL_SPACE
70
0
10
0
20
0
30
0
3
$MODEL_SPACE
1

0
ENDBLK
8
0
0
BLOCK
8
0
2
$PAPER_SPACE
70
0
10
0
20
0
30
0
3
$PAPER_SPACE
1

0
ENDBLK
8
0
0
ENDSEC
0
SECTION
2
ENTITIES
0
CIRCLE
5
31
8
0
6
CONTINUOUS
62
7
10
60
20
105
40
1.6
0
CIRCLE
5
32
8
0
6
CONTINUOUS
62
7
10
11.25
20
30
40
2.1
0
CIRCLE
5
33
8
0
6
CONTINUOUS
62
7
10
60
20
10
40
2.1
0
CIRCLE
5
34
8
0
6
CONTINUOUS
62
7
10
108.75
20
30
40
2.1
0
POLYLINE
5
35
8
0
6
CONTINUOUS
62
7
66
1
10
0
20
0
30
0
70
0
0
VERTEX
5
36
8
0
6
CONTINUOUS
62
7
10
60
20
66.1691548991
30
0
0
VERTEX
5
37
8
0
6
CONTINUOUS
62
7
10
59.7335933103
20
66.1067576816
30
0
0
VERTEX
5
38
8
0
6
CONTINUOUS
62
7
10
59.5561358877
20
65.9843342688
30
0
0
SEQEND
5
39
8
0
6
CONTINUOUS
62
7
0
POLYLINE
5
3A
8
0
6
CONTINUOUS
62
7
66
1
10
0
20
0
30
0
70
0
0
VERTEX
5
3B
8
0
6
CONTINUOUS
62
7
10
54.7026995946
20
61.1311799751
30
0
0
VERTEX
5
3C
8
0
6
CONTINUOUS
62
7
10
53.9326921016
20
60.2489749864
30
0
0
VERTEX
5
3D
8
0
6
CONTINUOUS
62
7
10
53.2228199363
20
59.3151240933
30
0
0
VERTEX
5
3E
8
0
6
CONTINUOUS
62
7
10
52.6151322408
20
58.3101006271
30
0
0
VERTEX
5
3F
8
0
6
CONTINUOUS
62
7
10
52.1786390876
20
57.2230076521
30
0
0
VERTEX
5
40
8
0
6
CONTINUOUS
62
7
10
51.9257869157
20
55.676898664
30
0
0
VERTEX
5
41
8
0
6
CONTINUOUS
62
7
10
52.0472109717
20
54.1101123125
30
0
0
VERTEX
5
42
8
0
6
CONTINUOUS
62
7
10
52.5057082807
20
52.5955997912
30
0
0
VERTEX
5
43
8
0
6
CONTINUOUS
62
7
10
53.2549117752
20
51.1982429188
30
0
0
VERTEX
5
44
8
0
6
CONTINUOUS
62
7
10
54.2518549681
20
49.9748751552
30
0
0
VERTEX
5
45
8
0
6
CONTINUOUS
62
7
10
55.4599191837
20
48.9673099125
30
0
0
VERTEX
5
46
8
0
6
CONTINUOUS
62
7
10
56.8420990179
20
48.2147103485
30
0
0
VERTEX
5
47
8
0
6
CONTINUOUS
62
7
10
58.3477547247
20
47.743545553
30
0
0
VERTEX
5
48
8
0
6
CONTINUOUS
62
7
10
59.9169170766
20
47.5715985292
30
0
0
VERTEX
5
49
8
0
6
CONTINUOUS
62
7
10
61.4893162007
20
47.7116199905
30
0
0
VERTEX
5
4A
8
0
6
CONTINUOUS
62
7
10
63.0041231765
20
48.1535788189
30
0
0
VERTEX
5
4B
8
0
6
CONTINUOUS
62
7
10
64.4004121528
20
48.8807104171
30
0
0
VERTEX
5
4C
8
0
6
CONTINUOUS
62
7
10
65.6248956777
20
49.8683981536
30
0
0
VERTEX
5
4D
8
0
6
CONTINUOUS
62
7
10
66.6388989937
20
51.0770056331
30
0
0
VERTEX
5
4E
8
0
6
CONTINUOUS
62
7
10
67.405295959
20
52.4640586948
30
0
0
VERTEX
5
4F
8
0
6
CONTINUOUS
62
7
10
67.8857004091
20
53.9726281133
30
0
0
VERTEX
5
50
8
0
6
CONTINUOUS
62
7
10
68.0408624611
20
55.5358760348
30
0
0
VERTEX
5
51
8
0
6
CONTINUOUS
62
7
10
67.8438585252
20
57.0873617943
30
0
0
VERTEX
5
52
8
0
6
CONTINUOUS
62
7
10
67.3247825393
20
58.5637673148
30
0
0
VERTEX
5
53
8
0
6
CONTINUOUS
62
7
10
66.531382479
20
59.9088880329
30
0
0
VERTEX
5
54
8
0
6
CONTINUOUS
62
7
10
65.5576138848
20
61.1311799751
30
0
0
SEQEND
5
55
8
0
6
CONTINUOUS
62
7
0
POLYLINE
5
56
8
0
6
CONTINUOUS
62
7
66
1
10
0
20
0
30
0
70
0
0
VERTEX
5
57
8
0
6
CONTINUOUS
62
7
10
60.4077741844
20
65.9843342688
30
0
0
VERTEX
5
58
8
0
6
CONTINUOUS
62
7
10
60.1966920042
20
66.1287906309
30
0
0
VERTEX
5
59
8
0
6
CONTINUOUS
62
7
10
60
20
66.1691548991
30
0
0
SEQEND
5
5A
8
0
6
CONTINUOUS
62
7
0
POLYLINE
5
5B
8
0
6
CONTINUOUS
62
7
66
1
10
0
20
0
30
0
70
0
0
VERTEX
5
5C
8
0
6
CONTINUOUS
62
7
10
70.5600288799
20
70.9881262612
30
0
0
VERTEX
5
5D
8
0
6
CONTINUOUS
62
7
10
70.6462274772
20
71.1378494387
30
0
0
VERTEX
5
5E
8
0
6
CONTINUOUS
62
7
10
70.6570798921
20
71.3109474561
30
0
0
VERTEX
5
5F
8
0
6
CONTINUOUS
62
7
10
70.6148263549
20
71.4336805797
30
0
0
VERTEX
5
60
8
0
6
CONTINUOUS
62
7
10
70.5333954984
20
71.5351406343
30
0
0
VERTEX
5
61
8
0
6
CONTINUOUS
62
7
10
70.2971058312
20
71.6380873368
30
0
0
VERTEX
5
62
8
0
6
CONTINUOUS
62
7
10
69.7814134371
20
71.6923038528
30
0
0
SEQEND
5
63
8
0
6
CONTINUOUS
62
7
0
POLYLINE
5
64
8
0
6
CONTINUOUS
62
7
66
1
10
0
20
0
30
0
70
0
0
VERTEX
5
65
8
0
6
CONTINUOUS
62
7
10
45.1463247074
20
47.0556571262
30
0
0
VERTEX
5
66
8
0
6
CONTINUOUS
62
7
10
45.1992864523
20
46.5393633038
30
0
0
VERTEX
5
67
8
0
6
CONTINUOUS
62
7
10
45.3036478709
20
46.3036714253
30
0
0
VERTEX
5
68
8
0
6
CONTINUOUS
62
7
10
45.4051590713
20
46.22218674
30
0
0
VERTEX
5
69
8
0
6
CONTINUOUS
62
7
10
45.5279775866
20
46.1799742667
30
0
0
VERTEX
5
6A
8
0
6
CONTINUOUS
62
7
10
45.7011425852
20
46.1915294986
30
0
0
VERTEX
5
6B
8
0
6
CONTINUOUS
62
7
10
45.8505012991
20
46.2785956803
30
0
0
SEQEND
5
6C
8
0
6
CONTINUOUS
62
7
0
POLYLINE
5
6D
8
0
6
CONTINUOUS
62
7
66
1
10
0
20
0
30
0
70
0
0
VERTEX
5
6E
8
0
6
CONTINUOUS
62
7
10
48.7760784479
20
49.2055168265
30
0
0
VERTEX
5
6F
8
0
6
CONTINUOUS
62
7
10
48.8735505983
20
49.3362219117
30
0
0
VERTEX
5
70
8
0
6
CONTINUOUS
62
7
10
48.8875562249
20
49.4644553086
30
0
0
SEQEND
5
71
8
0
6
CONTINUOUS
62
7
0
POLYLINE
5
72
8
0
6
CONTINUOUS
62
7
66
1
10
0
20
0
30
0
70
0
0
VERTEX
5
73
8
0
6
CONTINUOUS
62
7
10
67.3726182547
20
67.9510663353
30
0
0
VERTEX
5
74
8
0
6
CONTINUOUS
62
7
10
67.5331988475
20
67.9802626682
30
0
0
VERTEX
5
75
8
0
6
CONTINUOUS
62
7
10
67.6330717338
20
68.0610621153
30
0
0
SEQEND
5
76
8
0
6
CONTINUOUS
62
7
0
POLYLINE
5
77
8
0
6
CONTINUOUS
62
7
66
1
10
0
20
0
30
0
70
0
0
VERTEX
5
78
8
0
6
CONTINUOUS
62
7
10
49.4042701915
20
42.7176018023
30
0
0
VERTEX
5
79
8
0
6
CONTINUOUS
62
7
10
49.3180907018
20
42.5678773935
30
0
0
VERTEX
5
7A
8
0
6
CONTINUOUS
62
7
10
49.3071983549
20
42.394785022
30
0
0
VERTEX
5
7B
8
0
6
CONTINUOUS
62
7
10
49.3495197792
20
42.2720916298
30
0
0
VERTEX
5
7C
8
0
6
CONTINUOUS
62
7
10
49.4310818342
20
42.1707445432
30
0
0
VERTEX
5
7D
8
0
6
CONTINUOUS
62
7
10
49.6671568821
20
42.0672318497
30
0
0
VERTEX
5
7E
8
0
6
CONTINUOUS
62
7
10
50.1828836343
20
42.0134222107
30
0
0
SEQEND
5
7F
8
0
6
CONTINUOUS
62
7
0
POLYLINE
5
80
8
0
6
CONTINUOUS
62
7
66
1
10
0
20
0
30
0
70
0
0
VERTEX
5
81
8
0
6
CONTINUOUS
62
7
10
74.817978364
20
66.6499539375
30
0
0
VERTEX
5
82
8
0
6
CONTINUOUS
62
7
10
74.7639694646
20
67.1659107439
30
0
0
VERTEX
5
83
8
0
6
CONTINUOUS
62
7
10
74.6604718668
20
67.4020532107
30
0
0
VERTEX
5
84
8
0
6
CONTINUOUS
62
7
10
74.5590005173
20
67.4835398365
30
0
0
VERTEX
5
85
8
0
6
CONTINUOUS
62
7
10
74.4361831076
20
67.5256991057
30
0
0
VERTEX
5
86
8
0
6
CONTINUOUS
62
7
10
74.2630448518
20
67.5143128818
30
0
0
VERTEX
5
87
8
0
6
CONTINUOUS
62
7
10
74.1137977723
20
67.4271583831
30
0
0
SEQEND
5
88
8
0
6
CONTINUOUS
62
7
0
POLYLINE
5
89
8
0
6
CONTINUOUS
62
7
66
1
10
0
20
0
30
0
70
0
0
VERTEX
5
8A
8
0
6
CONTINUOUS
62
7
10
52.5916818166
20
45.7560257255
30
0
0
VERTEX
5
8B
8
0
6
CONTINUOUS
62
7
10
52.433725266
20
45.7213221932
30
0
0
VERTEX
5
8C
8
0
6
CONTINUOUS
62
7
10
52.3312253376
20
45.6445479484
30
0
0
SEQEND
5
8D
8
0
6
CONTINUOUS
62
7
0
LINE
5
8E
8
0
6
CONTINUOUS
62
7
10
53.1500029493
20
109.132498083
11
6.9687518433
21
32.5828113018
0
LINE
5
8F
8
0
6
CONTINUOUS
62
7
10
113.031177917
20
32.5829277267
11
66.7459249931
21
109.300290221
0
LINE
5
90
8
0
6
CONTINUOUS
62
7
10
59.5561358877
20
65.9843342688
11
54.7026995946
21
61.1311799751
0
LINE
5
91
8
0
6
CONTINUOUS
62
7
10
65.5576138848
20
61.1311799751
11
60.4077741844
21
65.9843342688
0
LINE
5
92
8
0
6
CONTINUOUS
62
7
10
67.6330717338
20
68.0610621153
11
70.5600288799
21
70.9881262612
0
LINE
5
93
8
0
6
CONTINUOUS
62
7
10
69.7814134371
20
71.6923038528
11
52.2939014122
21
71.6923038528
0
LINE
5
94
8
0
6
CONTINUOUS
62
7
10
45.1449137102
20
64.5427821519
11
45.1463247074
21
47.0556571262
0
LINE
5
95
8
0
6
CONTINUOUS
62
7
10
45.8505012991
20
46.2785956803
11
48.7760784479
21
49.2055168265
0
LINE
5
96
8
0
6
CONTINUOUS
62
7
10
48.8875562249
20
49.4644553086
11
48.8861452277
21
64.5427821519
0
LINE
5
97
8
0
6
CONTINUOUS
62
7
10
52.2939014122
20
67.9510663353
11
67.3726182547
21
67.9510663353
0
LINE
5
98
8
0
6
CONTINUOUS
62
7
10
52.3312253376
20
45.6445479484
11
49.4042701915
21
42.7176018023
0
LINE
5
99
8
0
6
CONTINUOUS
62
7
10
50.1828836343
20
42.0134222107
11
67.6700086599
21
42.0134222107
0
LINE
5
9A
8
0
6
CONTINUOUS
62
7
10
74.8193893612
20
49.1641709091
11
74.817978364
21
66.6499539375
0
LINE
5
9B
8
0
6
CONTINUOUS
62
7
10
74.1137977723
20
67.4271583831
11
71.1868776262
21
64.500200237
0
LINE
5
9C
8
0
6
CONTINUOUS
62
7
10
71.0767738464
20
64.2412627549
11
71.0779028441
21
49.1641709092
0
LINE
5
9D
8
0
6
CONTINUOUS
62
7
10
67.67000866
20
45.7560257255
11
52.5916818166
21
45.7560257255
0
ARC
5
9E
8
0
6
CONTINUOUS
62
7
10
11.25
20
-39.4140625
40
64.4140625
50
45.3875898902
51
90
0
ARC
5
9F
8
0
6
CONTINUOUS
62
7
10
11.25
20
30
40
5
50
148.898064074
51
270
0
ARC
5
A0
8
0
6
CONTINUOUS
62
7
10
60
20
105
40
8
50
32.5160795624
51
148.898064074
0
ARC
5
A1
8
0
6
CONTINUOUS
62
7
10
108.75
20
30
40
5
50
270
51
31.1034940488
0
ARC
5
A2
8
0
6
CONTINUOUS
62
7
10
108.75
20
-39.4140625
40
64.4140625
50
90
51
134.61241011
0
ARC
5
A3
8
0
6
CONTINUOUS
62
7
10
60
20
10
40
5
50
225.38758989
51
314.61241011
0
ARC
5
A4
8
0
6
CONTINUOUS
62
7
10
52.4610763487
20
64.3761536807
40
7.31805990685
50
91.3089878616
51
178.695291729
0
ARC
5
A5
8
0
6
CONTINUOUS
62
7
10
52.3771192704
20
64.4601051435
40
3.49195292843
50
91.3655635074
51
178.643313232
0
ARC
5
A6
8
0
6
CONTINUOUS
62
7
10
67.5029185496
20
49.3298611874
40
7.3183466989
50
271.308272274
51
358.70268993
0
ARC
5
A7
8
0
6
CONTINUOUS
62
7
10
71.3365343864
20
64.2836865616
40
0.263202046899
50
124.652677269
51
189.27559295
0
ARC
5
A8
8
0
6
CONTINUOUS
62
7
10
67.5882373466
20
49.24568521
40
3.49061740467
50
271.34233553
51
358.661884286
0
CIRCLE
5
A9
8
0
6
CONTINUOUS
62
7
10
119.77710291
20
36.883217948
40
1.6
0
CIRCLE
5
AA
8
0
6
CONTINUOUS
62
7
10
168.52710291
20
111.883217948
40
2.1
0
CIRCLE
5
AB
8
0
6
CONTINUOUS
62
7
10
119.77710291
20
131.883217948
40
2.1
0
CIRCLE
5
AC
8
0
6
CONTINUOUS
62
7
10
71.0271029103
20
111.883217948
40
2.1
0
POLYLINE
5
AD
8
0
6
CONTINUOUS
62
7
66
1
10
0
20
0
30
0
70
0
0
VERTEX
5
AE
8
0
6
CONTINUOUS
62
7
10
119.77710291
20
75.7140630489
30
0
0
VERTEX
5
AF
8
0
6
CONTINUOUS
62
7
10
120.0435096
20
75.7764602664
30
0
0
VERTEX
5
B0
8
0
6
CONTINUOUS
62
7
10
120.220967023
20
75.8988836792
30
0
0
SEQEND
5
B1
8
0
6
CONTINUOUS
62
7
0
POLYLINE
5
B2
8
0
6
CONTINUOUS
62
7
66
1
10
0
20
0
30
0
70
0
0
VERTEX
5
B3
8
0
6
CONTINUOUS
62
7
10
125.074403316
20
80.7520379729
30
0
0
VERTEX
5
B4
8
0
6
CONTINUOUS
62
7
10
125.844410809
20
81.6342429616
30
0
0
VERTEX
5
B5
8
0
6
CONTINUOUS
62
7
10
126.554282974
20
82.5680938547
30
0
0
VERTEX
5
B6
8
0
6
CONTINUOUS
62
7
10
127.161970669
20
83.5731173209
30
0
0
VERTEX
5
B7
8
0
6
CONTINUOUS
62
7
10
127.598463823
20
84.6602102959
30
0
0
VERTEX
5
B8
8
0
6
CONTINUOUS
62
7
10
127.851315995
20
86.206319284
30
0
0
VERTEX
5
B9
8
0
6
CONTINUOUS
62
7
10
127.729891939
20
87.7731056355
30
0
0
VERTEX
5
BA
8
0
6
CONTINUOUS
62
7
10
127.27139463
20
89.2876181568
30
0
0
VERTEX
5
BB
8
0
6
CONTINUOUS
62
7
10
126.522191135
20
90.6849750292
30
0
0
VERTEX
5
BC
8
0
6
CONTINUOUS
62
7
10
125.525247942
20
91.9083427928
30
0
0
VERTEX
5
BD
8
0
6
CONTINUOUS
62
7
10
124.317183727
20
92.9159080355
30
0
0
VERTEX
5
BE
8
0
6
CONTINUOUS
62
7
10
122.935003892
20
93.6685075995
30
0
0
VERTEX
5
BF
8
0
6
CONTINUOUS
62
7
10
121.429348186
20
94.139672395
30
0
0
VERTEX
5
C0
8
0
6
CONTINUOUS
62
7
10
119.860185834
20
94.3116194188
30
0
0
VERTEX
5
C1
8
0
6
CONTINUOUS
62
7
10
118.28778671
20
94.1715979575
30
0
0
VERTEX
5
C2
8
0
6
CONTINUOUS
62
7
10
116.772979734
20
93.7296391291
30
0
0
VERTEX
5
C3
8
0
6
CONTINUOUS
62
7
10
115.376690757
20
93.0025075309
30
0
0
VERTEX
5
C4
8
0
6
CONTINUOUS
62
7
10
114.152207233
20
92.0148197944
30
0
0
VERTEX
5
C5
8
0
6
CONTINUOUS
62
7
10
113.138203917
20
90.8062123149
30
0
0
VERTEX
5
C6
8
0
6
CONTINUOUS
62
7
10
112.371806951
20
89.4191592532
30
0
0
VERTEX
5
C7
8
0
6
CONTINUOUS
62
7
10
111.891402501
20
87.9105898347
30
0
0
VERTEX
5
C8
8
0
6
CONTINUOUS
62
7
10
111.736240449
20
86.3473419132
30
0
0
VERTEX
5
C9
8
0
6
CONTINUOUS
62
7
10
111.933244385
20
84.7958561537
30
0
0
VERTEX
5
CA
8
0
6
CONTINUOUS
62
7
10
112.452320371
20
83.3194506332
30
0
0
VERTEX
5
CB
8
0
6
CONTINUOUS
62
7
10
113.245720431
20
81.9743299151
30
0
0
VERTEX
5
CC
8
0
6
CONTINUOUS
62
7
10
114.219489025
20
80.7520379729
30
0
0
SEQEND
5
CD
8
0
6
CONTINUOUS
62
7
0
POLYLINE
5
CE
8
0
6
CONTINUOUS
62
7
66
1
10
0
20
0
30
0
70
0
0
VERTEX
5
CF
8
0
6
CONTINUOUS
62
7
10
119.369328726
20
75.8988836792
30
0
0
VERTEX
5
D0
8
0
6
CONTINUOUS
62
7
10
119.580410906
20
75.7544273171
30
0
0
VERTEX
5
D1
8
0
6
CONTINUOUS
62
7
10
119.77710291
20
75.7140630489
30
0
0
SEQEND
5
D2
8
0
6
CONTINUOUS
62
7
0
POLYLINE
5
D3
8
0
6
CONTINUOUS
62
7
66
1
10
0
20
0
30
0
70
0
0
VERTEX
5
D4
8
0
6
CONTINUOUS
62
7
10
109.21707403
20
70.8950916868
30
0
0
VERTEX
5
D5
8
0
6
CONTINUOUS
62
7
10
109.130875433
20
70.7453685093
30
0
0
VERTEX
5
D6
8
0
6
CONTINUOUS
62
7
10
109.120023018
20
70.5722704919
30
0
0
VERTEX
5
D7
8
0
6
CONTINUOUS
62
7
10
109.162276555
20
70.4495373683
30
0
0
VERTEX
5
D8
8
0
6
CONTINUOUS
62
7
10
109.243707412
20
70.3480773137
30
0
0
VERTEX
5
D9
8
0
6
CONTINUOUS
62
7
10
109.479997079
20
70.2451306112
30
0
0
VERTEX
5
DA
8
0
6
CONTINUOUS
62
7
10
109.995689473
20
70.1909140952
30
0
0
SEQEND
5
DB
8
0
6
CONTINUOUS
62
7
0
POLYLINE
5
DC
8
0
6
CONTINUOUS
62
7
66
1
10
0
20
0
30
0
70
0
0
VERTEX
5
DD
8
0
6
CONTINUOUS
62
7
10
134.630778203
20
94.8275608218
30
0
0
VERTEX
5
DE
8
0
6
CONTINUOUS
62
7
10
134.577816458
20
95.3438546442
30
0
0
VERTEX
5
DF
8
0
6
CONTINUOUS
62
7
10
134.473455039
20
95.5795465227
30
0
0
VERTEX
5
E0
8
0
6
CONTINUOUS
62
7
10
134.371943839
20
95.661031208
30
0
0
VERTEX
5
E1
8
0
6
CONTINUOUS
62
7
10
134.249125324
20
95.7032436813
30
0
0
VERTEX
5
E2
8
0
6
CONTINUOUS
62
7
10
134.075960325
20
95.6916884494
30
0
0
VERTEX
5
E3
8
0
6
CONTINUOUS
62
7
10
133.926601611
20
95.6046222677
30
0
0
SEQEND
5
E4
8
0
6
CONTINUOUS
62
7
0
POLYLINE
5
E5
8
0
6
CONTINUOUS
62
7
66
1
10
0
20
0
30
0
70
0
0
VERTEX
5
E6
8
0
6
CONTINUOUS
62
7
10
131.001024462
20
92.6777011215
30
0
0
VERTEX
5
E7
8
0
6
CONTINUOUS
62
7
10
130.903552312
20
92.5469960363
30
0
0
VERTEX
5
E8
8
0
6
CONTINUOUS
62
7
10
130.889546685
20
92.4187626394
30
0
0
SEQEND
5
E9
8
0
6
CONTINUOUS
62
7
0
POLYLINE
5
EA
8
0
6
CONTINUOUS
62
7
66
1
10
0
20
0
30
0
70
0
0
VERTEX
5
EB
8
0
6
CONTINUOUS
62
7
10
112.404484656
20
73.9321516127
30
0
0
VERTEX
5
EC
8
0
6
CONTINUOUS
62
7
10
112.243904063
20
73.9029552798
30
0
0
VERTEX
5
ED
8
0
6
CONTINUOUS
62
7
10
112.144031176
20
73.8221558327
30
0
0
SEQEND
5
EE
8
0
6
CONTINUOUS
62
7
0
POLYLINE
5
EF
8
0
6
CONTINUOUS
62
7
66
1
10
0
20
0
30
0
70
0
0
VERTEX
5
F0
8
0
6
CONTINUOUS
62
7
10
130.372832719
20
99.1656161457
30
0
0
VERTEX
5
F1
8
0
6
CONTINUOUS
62
7
10
130.459012208
20
99.3153405545
30
0
0
VERTEX
5
F2
8
0
6
CONTINUOUS
62
7
10
130.469904555
20
99.488432926
30
0
0
VERTEX
5
F3
8
0
6
CONTINUOUS
62
7
10
130.427583131
20
99.6111263182
30
0
0
VERTEX
5
F4
8
0
6
CONTINUOUS
62
7
10
130.346021076
20
99.7124734048
30
0
0
VERTEX
5
F5
8
0
6
CONTINUOUS
62
7
10
130.109946028
20
99.8159860983
30
0
0
VERTEX
5
F6
8
0
6
CONTINUOUS
62
7
10
129.594219276
20
99.8697957373
30
0
0
SEQEND
5
F7
8
0
6
CONTINUOUS
62
7
0
POLYLINE
5
F8
8
0
6
CONTINUOUS
62
7
66
1
10
0
20
0
30
0
70
0
0
VERTEX
5
F9
8
0
6
CONTINUOUS
62
7
10
104.959124546
20
75.2332640105
30
0
0
VERTEX
5
FA
8
0
6
CONTINUOUS
62
7
10
105.013133446
20
74.7173072041
30
0
0
VERTEX
5
FB
8
0
6
CONTINUOUS
62
7
10
105.116631043
20
74.4811647373
30
0
0
VERTEX
5
FC
8
0
6
CONTINUOUS
62
7
10
105.218102393
20
74.3996781115
30
0
0
VERTEX
5
FD
8
0
6
CONTINUOUS
62
7
10
105.340919803
20
74.3575188423
30
0
0
VERTEX
5
FE
8
0
6
CONTINUOUS
62
7
10
105.514058058
20
74.3689050662
30
0
0
VERTEX
5
FF
8
0
6
CONTINUOUS
62
7
10
105.663305138
20
74.4560595649
30
0
0
SEQEND
5
100
8
0
6
CONTINUOUS
62
7
0
POLYLINE
5
101
8
0
6
CONTINUOUS
62
7
66
1
10
0
20
0
30
0
70
0
0
VERTEX
5
102
8
0
6
CONTINUOUS
62
7
10
127.185421094
20
96.1271922225
30
0
0
VERTEX
5
103
8
0
6
CONTINUOUS
62
7
10
127.343377644
20
96.1618957548
30
0
0
VERTEX
5
104
8
0
6
CONTINUOUS
62
7
10
127.445877573
20
96.2386699996
30
0
0
SEQEND
5
105
8
0
6
CONTINUOUS
62
7
0
LINE
5
106
8
0
6
CONTINUOUS
62
7
10
126.627099961
20
32.7507198651
11
172.808351067
21
109.300406646
0
LINE
5
107
8
0
6
CONTINUOUS
62
7
10
120.220967023
20
75.8988836792
11
125.074403316
21
80.7520379729
0
LINE
5
108
8
0
6
CONTINUOUS
62
7
10
114.219489025
20
80.7520379729
11
119.369328726
21
75.8988836792
0
LINE
5
109
8
0
6
CONTINUOUS
62
7
10
112.144031176
20
73.8221558327
11
109.21707403
21
70.8950916868
0
LINE
5
10A
8
0
6
CONTINUOUS
62
7
10
109.995689473
20
70.1909140952
11
127.483201498
21
70.1909140952
0
LINE
5
10B
8
0
6
CONTINUOUS
62
7
10
134.6321892
20
77.3404357961
11
134.630778203
21
94.8275608218
0
LINE
5
10C
8
0
6
CONTINUOUS
62
7
10
133.926601611
20
95.6046222677
11
131.001024462
21
92.6777011215
0
LINE
5
10D
8
0
6
CONTINUOUS
62
7
10
130.889546685
20
92.4187626394
11
130.890957683
21
77.3404357961
0
LINE
5
10E
8
0
6
CONTINUOUS
62
7
10
127.483201498
20
73.9321516127
11
112.404484656
21
73.9321516127
0
LINE
5
10F
8
0
6
CONTINUOUS
62
7
10
127.445877573
20
96.2386699996
11
130.372832719
21
99.1656161457
0
LINE
5
110
8
0
6
CONTINUOUS
62
7
10
129.594219276
20
99.8697957373
11
112.10709425
21
99.8697957373
0
LINE
5
111
8
0
6
CONTINUOUS
62
7
10
104.957713549
20
92.7190470389
11
104.959124546
21
75.2332640105
0
LINE
5
112
8
0
6
CONTINUOUS
62
7
10
105.663305138
20
74.4560595649
11
108.590225284
21
77.383017711
0
LINE
5
113
8
0
6
CONTINUOUS
62
7
10
108.700329064
20
77.6419551931
11
108.699200066
21
92.7190470388
0
LINE
5
114
8
0
6
CONTINUOUS
62
7
10
112.10709425
20
96.1271922225
11
127.185421094
21
96.1271922225
0
ARC
5
115
8
0
6
CONTINUOUS
62
7
10
168.52710291
20
181.297280448
40
64.4140625
50
225.38758989
51
270
0
ARC
5
116
8
0
6
CONTINUOUS
62
7
10
168.52710291
20
111.883217948
40
5
50
328.898064074
51
90
0
ARC
5
117
8
0
6
CONTINUOUS
62
7
10
119.77710291
20
36.883217948
40
8
50
212.516079562
51
328.898064074
0
ARC
5
118
8
0
6
CONTINUOUS
62
7
10
71.0271029103
20
111.883217948
40
5
50
90
51
211.103494049
0
ARC
5
119
8
0
6
CONTINUOUS
62
7
10
71.0271029103
20
181.297280448
40
64.4140625
50
270
51
314.61241011
0
ARC
5
11A
8
0
6
CONTINUOUS
62
7
10
119.77710291
20
131.883217948
40
5
50
45.3875898902
51
134.61241011
0
ARC
5
11B
8
0
6
CONTINUOUS
62
7
10
127.316026562
20
77.5070642673
40
7.31805990685
50
271.308987862
51
358.695291729
0
ARC
5
11C
8
0
6
CONTINUOUS
62
7
10
127.39998364
20
77.4231128045
40
3.49195292843
50
271.365563507
51
358.643313232
0
ARC
5
11D
8
0
6
CONTINUOUS
62
7
10
112.274184361
20
92.5533567606
40
7.3183466989
50
91.3082722739
51
178.70268993
0
ARC
5
11E
8
0
6
CONTINUOUS
62
7
10
108.440568524
20
77.5995313864
40
0.263202046899
50
304.652677269
51
9.2755929496
0
ARC
5
11F
8
0
6
CONTINUOUS
62
7
10
112.188865564
20
92.637532738
40
3.49061740467
50
91.34233553
51
178.661884286
0
CIRCLE
5
120
8
0
6
CONTINUOUS
62
7
10
179.658348118
20
105.167908563
40
1.6
0
CIRCLE
5
121
8
0
6
CONTINUOUS
62
7
10
130.908348118
20
30.1679085633
40
2.1
0
CIRCLE
5
122
8
0
6
CONTINUOUS
62
7
10
179.658348118
20
10.1679085633
40
2.1
0
CIRCLE
5
123
8
0
6
CONTINUOUS
62
7
10
228.408348118
20
30.1679085633
40
2.1
0
POLYLINE
5
124
8
0
6
CONTINUOUS
62
7
66
1
10
0
20
0
30
0
70
0
0
VERTEX
5
125
8
0
6
CONTINUOUS
62
7
10
179.658348118
20
66.3370634624
30
0
0
VERTEX
5
126
8
0
6
CONTINUOUS
62
7
10
179.391941428
20
66.2746662449
30
0
0
VERTEX
5
127
8
0
6
CONTINUOUS
62
7
10
179.214484005
20
66.1522428321
30
0
0
SEQEND
5
128
8
0
6
CONTINUOUS
62
7
0
POLYLINE
5
129
8
0
6
CONTINUOUS
62
7
66
1
10
0
20
0
30
0
70
0
0
VERTEX
5
12A
8
0
6
CONTINUOUS
62
7
10
174.361047712
20
61.2990885384
30
0
0
VERTEX
5
12B
8
0
6
CONTINUOUS
62
7
10
173.591040219
20
60.4168835497
30
0
0
VERTEX
5
12C
8
0
6
CONTINUOUS
62
7
10
172.881168054
20
59.4830326566
30
0
0
VERTEX
5
12D
8
0
6
CONTINUOUS
62
7
10
172.273480358
20
58.4780091904
30
0
0
VERTEX
5
12E
8
0
6
CONTINUOUS
62
7
10
171.836987205
20
57.3909162154
30
0
0
VERTEX
5
12F
8
0
6
CONTINUOUS
62
7
10
171.584135033
20
55.8448072273
30
0
0
VERTEX
5
130
8
0
6
CONTINUOUS
62
7
10
171.705559089
20
54.2780208758
30
0
0
VERTEX
5
131
8
0
6
CONTINUOUS
62
7
10
172.164056398
20
52.7635083545
30
0
0
VERTEX
5
132
8
0
6
CONTINUOUS
62
7
10
172.913259893
20
51.3661514821
30
0
0
VERTEX
5
133
8
0
6
CONTINUOUS
62
7
10
173.910203086
20
50.1427837185
30
0
0
VERTEX
5
134
8
0
6
CONTINUOUS
62
7
10
175.118267301
20
49.1352184758
30
0
0
VERTEX
5
135
8
0
6
CONTINUOUS
62
7
10
176.500447136
20
48.3826189118
30
0
0
VERTEX
5
136
8
0
6
CONTINUOUS
62
7
10
178.006102842
20
47.9114541163
30
0
0
VERTEX
5
137
8
0
6
CONTINUOUS
62
7
10
179.575265194
20
47.7395070925
30
0
0
VERTEX
5
138
8
0
6
CONTINUOUS
62
7
10
181.147664318
20
47.8795285538
30
0
0
VERTEX
5
139
8
0
6
CONTINUOUS
62
7
10
182.662471294
20
48.3214873822
30
0
0
VERTEX
5
13A
8
0
6
CONTINUOUS
62
7
10
184.05876027
20
49.0486189804
30
0
0
VERTEX
5
13B
8
0
6
CONTINUOUS
62
7
10
185.283243795
20
50.0363067169
30
0
0
VERTEX
5
13C
8
0
6
CONTINUOUS
62
7
10
186.297247111
20
51.2449141964
30
0
0
VERTEX
5
13D
8
0
6
CONTINUOUS
62
7
10
187.063644077
20
52.6319672581
30
0
0
VERTEX
5
13E
8
0
6
CONTINUOUS
62
7
10
187.544048527
20
54.1405366766
30
0
0
VERTEX
5
13F
8
0
6
CONTINUOUS
62
7
10
187.699210579
20
55.7037845981
30
0
0
VERTEX
5
140
8
0
6
CONTINUOUS
62
7
10
187.502206643
20
57.2552703576
30
0
0
VERTEX
5
141
8
0
6
CONTINUOUS
62
7
10
186.983130657
20
58.7316758781
30
0
0
VERTEX
5
142
8
0
6
CONTINUOUS
62
7
10
186.189730597
20
60.0767965962
30
0
0
VERTEX
5
143
8
0
6
CONTINUOUS
62
7
10
185.215962002
20
61.2990885384
30
0
0
SEQEND
5
144
8
0
6
CONTINUOUS
62
7
0
POLYLINE
5
145
8
0
6
CONTINUOUS
62
7
66
1
10
0
20
0
30
0
70
0
0
VERTEX
5
146
8
0
6
CONTINUOUS
62
7
10
180.066122302
20
66.1522428321
30
0
0
VERTEX
5
147
8
0
6
CONTINUOUS
62
7
10
179.855040122
20
66.2966991942
30
0
0
VERTEX
5
148
8
0
6
CONTINUOUS
62
7
10
179.658348118
20
66.3370634624
30
0
0
SEQEND
5
149
8
0
6
CONTINUOUS
62
7
0
POLYLINE
5
14A
8
0
6
CONTINUOUS
62
7
66
1
10
0
20
0
30
0
70
0
0
VERTEX
5
14B
8
0
6
CONTINUOUS
62
7
10
190.218376998
20
71.1560348245
30
0
0
VERTEX
5
14C
8
0
6
CONTINUOUS
62
7
10
190.304575595
20
71.305758002
30
0
0
VERTEX
5
14D
8
0
6
CONTINUOUS
62
7
10
190.31542801
20
71.4788560194
30
0
0
VERTEX
5
14E
8
0
6
CONTINUOUS
62
7
10
190.273174473
20
71.601589143
30
0
0
VERTEX
5
14F
8
0
6
CONTINUOUS
62
7
10
190.191743616
20
71.7030491976
30
0
0
VERTEX
5
150
8
0
6
CONTINUOUS
62
7
10
189.955453949
20
71.8059959001
30
0
0
VERTEX
5
151
8
0
6
CONTINUOUS
62
7
10
189.439761555
20
71.8602124161
30
0
0
SEQEND
5
152
8
0
6
CONTINUOUS
62
7
0
POLYLINE
5
153
8
0
6
CONTINUOUS
62
7
66
1
10
0
20
0
30
0
70
0
0
VERTEX
5
154
8
0
6
CONTINUOUS
62
7
10
164.804672825
20
47.2235656895
30
0
0
VERTEX
5
155
8
0
6
CONTINUOUS
62
7
10
164.85763457
20
46.7072718671
30
0
0
VERTEX
5
156
8
0
6
CONTINUOUS
62
7
10
164.961995989
20
46.4715799886
30
0
0
VERTEX
5
157
8
0
6
CONTINUOUS
62
7
10
165.063507189
20
46.3900953033
30
0
0
VERTEX
5
158
8
0
6
CONTINUOUS
62
7
10
165.186325704
20
46.34788283
30
0
0
VERTEX
5
159
8
0
6
CONTINUOUS
62
7
10
165.359490703
20
46.3594380619
30
0
0
VERTEX
5
15A
8
0
6
CONTINUOUS
62
7
10
165.508849417
20
46.4465042436
30
0
0
SEQEND
5
15B
8
0
6
CONTINUOUS
62
7
0
POLYLINE
5
15C
8
0
6
CONTINUOUS
62
7
66
1
10
0
20
0
30
0
70
0
0
VERTEX
5
15D
8
0
6
CONTINUOUS
62
7
10
168.434426566
20
49.3734253898
30
0
0
VERTEX
5
15E
8
0
6
CONTINUOUS
62
7
10
168.531898716
20
49.504130475
30
0
0
VERTEX
5
15F
8
0
6
CONTINUOUS
62
7
10
168.545904343
20
49.6323638719
30
0
0
SEQEND
5
160
8
0
6
CONTINUOUS
62
7
0
POLYLINE
5
161
8
0
6
CONTINUOUS
62
7
66
1
10
0
20
0
30
0
70
0
0
VERTEX
5
162
8
0
6
CONTINUOUS
62
7
10
187.030966372
20
68.1189748986
30
0
0
VERTEX
5
163
8
0
6
CONTINUOUS
62
7
10
187.191546965
20
68.1481712315
30
0
0
VERTEX
5
164
8
0
6
CONTINUOUS
62
7
10
187.291419851
20
68.2289706786
30
0
0
SEQEND
5
165
8
0
6
CONTINUOUS
62
7
0
POLYLINE
5
166
8
0
6
CONTINUOUS
62
7
66
1
10
0
20
0
30
0
70
0
0
VERTEX
5
167
8
0
6
CONTINUOUS
62
7
10
169.062618309
20
42.8855103656
30
0
0
VERTEX
5
168
8
0
6
CONTINUOUS
62
7
10
168.976438819
20
42.7357859568
30
0
0
VERTEX
5
169
8
0
6
CONTINUOUS
62
7
10
168.965546473
20
42.5626935853
30
0
0
VERTEX
5
16A
8
0
6
CONTINUOUS
62
7
10
169.007867897
20
42.4400001931
30
0
0
VERTEX
5
16B
8
0
6
CONTINUOUS
62
7
10
169.089429952
20
42.3386531065
30
0
0
VERTEX
5
16C
8
0
6
CONTINUOUS
62
7
10
169.325505
20
42.235140413
30
0
0
VERTEX
5
16D
8
0
6
CONTINUOUS
62
7
10
169.841231752
20
42.181330774
30
0
0
SEQEND
5
16E
8
0
6
CONTINUOUS
62
7
0
POLYLINE
5
16F
8
0
6
CONTINUOUS
62
7
66
1
10
0
20
0
30
0
70
0
0
VERTEX
5
170
8
0
6
CONTINUOUS
62
7
10
194.476326482
20
66.8178625008
30
0
0
VERTEX
5
171
8
0
6
CONTINUOUS
62
7
10
194.422317582
20
67.3338193072
30
0
0
VERTEX
5
172
8
0
6
CONTINUOUS
62
7
10
194.318819984
20
67.569961774
30
0
0
VERTEX
5
173
8
0
6
CONTINUOUS
62
7
10
194.217348635
20
67.6514483998
30
0
0
VERTEX
5
174
8
0
6
CONTINUOUS
62
7
10
194.094531225
20
67.693607669
30
0
0
VERTEX
5
175
8
0
6
CONTINUOUS
62
7
10
193.921392969
20
67.6822214451
30
0
0
VERTEX
5
176
8
0
6
CONTINUOUS
62
7
10
193.77214589
20
67.5950669464
30
0
0
SEQEND
5
177
8
0
6
CONTINUOUS
62
7
0
POLYLINE
5
178
8
0
6
CONTINUOUS
62
7
66
1
10
0
20
0
30
0
70
0
0
VERTEX
5
179
8
0
6
CONTINUOUS
62
7
10
172.250029934
20
45.9239342888
30
0
0
VERTEX
5
17A
8
0
6
CONTINUOUS
62
7
10
172.092073384
20
45.8892307565
30
0
0
VERTEX
5
17B
8
0
6
CONTINUOUS
62
7
10
171.989573455
20
45.8124565117
30
0
0
SEQEND
5
17C
8
0
6
CONTINUOUS
62
7
0
LINE
5
17D
8
0
6
CONTINUOUS
62
7
10
232.689526035
20
32.75083629
11
186.404273111
21
109.468198785
0
LINE
5
17E
8
0
6
CONTINUOUS
62
7
10
179.214484005
20
66.1522428321
11
174.361047712
21
61.2990885384
0
LINE
5
17F
8
0
6
CONTINUOUS
62
7
10
185.215962002
20
61.2990885384
11
180.066122302
21
66.1522428321
0
LINE
5
180
8
0
6
CONTINUOUS
62
7
10
187.291419851
20
68.2289706786
11
190.218376998
21
71.1560348245
0
LINE
5
181
8
0
6
CONTINUOUS
62
7
10
189.439761555
20
71.8602124161
11
171.95224953
21
71.8602124161
0
LINE
5
182
8
0
6
CONTINUOUS
62
7
10
164.803261828
20
64.7106907152
11
164.804672825
21
47.2235656895
0
LINE
5
183
8
0
6
CONTINUOUS
62
7
10
165.508849417
20
46.4465042436
11
168.434426566
21
49.3734253898
0
LINE
5
184
8
0
6
CONTINUOUS
62
7
10
168.545904343
20
49.6323638719
11
168.544493345
21
64.7106907152
0
LINE
5
185
8
0
6
CONTINUOUS
62
7
10
171.95224953
20
68.1189748986
11
187.030966372
21
68.1189748986
0
LINE
5
186
8
0
6
CONTINUOUS
62
7
10
171.989573455
20
45.8124565117
11
169.062618309
21
42.8855103656
0
LINE
5
187
8
0
6
CONTINUOUS
62
7
10
169.841231752
20
42.181330774
11
187.328356778
21
42.181330774
0
LINE
5
188
8
0
6
CONTINUOUS
62
7
10
194.477737479
20
49.3320794724
11
194.476326482
21
66.8178625008
0
LINE
5
189
8
0
6
CONTINUOUS
62
7
10
193.77214589
20
67.5950669464
11
190.845225744
21
64.6681088003
0
LINE
5
18A
8
0
6
CONTINUOUS
62
7
10
190.735121964
20
64.4091713182
11
190.736250962
21
49.3320794725
0
LINE
5
18B
8
0
6
CONTINUOUS
62
7
10
187.328356778
20
45.9239342888
11
172.250029934
21
45.9239342888
0
ARC
5
18C
8
0
6
CONTINUOUS
62
7
10
130.908348118
20
-39.2461539367
40
64.4140625
50
45.3875898902
51
90
0
ARC
5
18D
8
0
6
CONTINUOUS
62
7
10
130.908348118
20
30.1679085633
40
5
50
148.898064074
51
270
0
ARC
5
18E
8
0
6
CONTINUOUS
62
7
10
179.658348118
20
105.167908563
40
8
50
32.5160795624
51
148.898064074
0
ARC
5
18F
8
0
6
CONTINUOUS
62
7
10
228.408348118
20
30.1679085633
40
5
50
270
51
31.1034940488
0
ARC
5
190
8
0
6
CONTINUOUS
62
7
10
228.408348118
20
-39.2461539367
40
64.4140625
50
90
51
134.61241011
0
ARC
5
191
8
0
6
CONTINUOUS
62
7
10
179.658348118
20
10.1679085633
40
5
50
225.38758989
51
314.61241011
0
ARC
5
192
8
0
6
CONTINUOUS
62
7
10
172.119424466
20
64.544062244
40
7.31805990685
50
91.3089878616
51
178.695291729
0
ARC
5
193
8
0
6
CONTINUOUS
62
7
10
172.035467388
20
64.6280137068
40
3.49195292843
50
91.3655635074
51
178.643313232
0
ARC
5
194
8
0
6
CONTINUOUS
62
7
10
187.161266667
20
49.4977697507
40
7.3183466989
50
271.308272274
51
358.70268993
0
ARC
5
195
8
0
6
CONTINUOUS
62
7
10
190.994882504
20
64.4515951249
40
0.263202046899
50
124.652677269
51
189.27559295
0
ARC
5
196
8
0
6
CONTINUOUS
62
7
10
187.246585464
20
49.4135937733
40
3.49061740467
50
271.34233553
51
358.661884286
0
CIRCLE
5
197
8
0
6
CONTINUOUS
62
7
10
239.435451028
20
37.0511265113
40
1.6
0
CIRCLE
5
198
8
0
6
CONTINUOUS
62
7
10
288.185451028
20
112.051126511
40
2.1
0
CIRCLE
5
199
8
0
6
CONTINUOUS
62
7
10
239.435451028
20
132.051126511
40
2.1
0
CIRCLE
5
19A
8
0
6
CONTINUOUS
62
7
10
190.685451028
20
112.051126511
40
2.1
0
POLYLINE
5
19B
8
0
6
CONTINUOUS
62
7
66
1
10
0
20
0
30
0
70
0
0
VERTEX
5
19C
8
0
6
CONTINUOUS
62
7
10
239.435451028
20
75.8819716122
30
0
0
VERTEX
5
19D
8
0
6
CONTINUOUS
62
7
10
239.701857718
20
75.9443688297
30
0
0
VERTEX
5
19E
8
0
6
CONTINUOUS
62
7
10
239.87931514
20
76.0667922425
30
0
0
SEQEND
5
19F
8
0
6
CONTINUOUS
62
7
0
POLYLINE
5
1A0
8
0
6
CONTINUOUS
62
7
66
1
10
0
20
0
30
0
70
0
0
VERTEX
5
1A1
8
0
6
CONTINUOUS
62
7
10
244.732751433
20
80.9199465362
30
0
0
VERTEX
5
1A2
8
0
6
CONTINUOUS
62
7
10
245.502758926
20
81.8021515249
30
0
0
VERTEX
5
1A3
8
0
6
CONTINUOUS
62
7
10
246.212631092
20
82.736002418
30
0
0
VERTEX
5
1A4
8
0
6
CONTINUOUS
62
7
10
246.820318787
20
83.7410258842
30
0
0
VERTEX
5
1A5
8
0
6
CONTINUOUS
62
7
10
247.25681194
20
84.8281188592
30
0
0
VERTEX
5
1A6
8
0
6
CONTINUOUS
62
7
10
247.509664112
20
86.3742278473
30
0
0
VERTEX
5
1A7
8
0
6
CONTINUOUS
62
7
10
247.388240056
20
87.9410141988
30
0
0
VERTEX
5
1A8
8
0
6
CONTINUOUS
62
7
10
246.929742747
20
89.4555267201
30
0
0
VERTEX
5
1A9
8
0
6
CONTINUOUS
62
7
10
246.180539253
20
90.8528835925
30
0
0
VERTEX
5
1AA
8
0
6
CONTINUOUS
62
7
10
245.18359606
20
92.0762513561
30
0
0
VERTEX
5
1AB
8
0
6
CONTINUOUS
62
7
10
243.975531844
20
93.0838165988
30
0
0
VERTEX
5
1AC
8
0
6
CONTINUOUS
62
7
10
242.59335201
20
93.8364161628
30
0
0
VERTEX
5
1AD
8
0
6
CONTINUOUS
62
7
10
241.087696303
20
94.3075809583
30
0
0
VERTEX
5
1AE
8
0
6
CONTINUOUS
62
7
10
239.518533951
20
94.4795279821
30
0
0
VERTEX
5
1AF
8
0
6
CONTINUOUS
62
7
10
237.946134827
20
94.3395065208
30
0
0
VERTEX
5
1B0
8
0
6
CONTINUOUS
62
7
10
236.431327851
20
93.8975476924
30
0
0
VERTEX
5
1B1
8
0
6
CONTINUOUS
62
7
10
235.035038875
20
93.1704160942
30
0
0
VERTEX
5
1B2
8
0
6
CONTINUOUS
62
7
10
233.81055535
20
92.1827283577
30
0
0
VERTEX
5
1B3
8
0
6
CONTINUOUS
62
7
10
232.796552034
20
90.9741208782
30
0
0
VERTEX
5
1B4
8
0
6
CONTINUOUS
62
7
10
232.030155069
20
89.5870678165
30
0
0
VERTEX
5
1B5
8
0
6
CONTINUOUS
62
7
10
231.549750619
20
88.078498398
30
0
0
VERTEX
5
1B6
8
0
6
CONTINUOUS
62
7
10
231.394588567
20
86.5152504765
30
0
0
VERTEX
5
1B7
8
0
6
CONTINUOUS
62
7
10
231.591592503
20
84.963764717
30
0
0
VERTEX
5
1B8
8
0
6
CONTINUOUS
62
7
10
232.110668489
20
83.4873591965
30
0
0
VERTEX
5
1B9
8
0
6
CONTINUOUS
62
7
10
232.904068549
20
82.1422384784
30
0
0
VERTEX
5
1BA
8
0
6
CONTINUOUS
62
7
10
233.877837143
20
80.9199465362
30
0
0
SEQEND
5
1BB
8
0
6
CONTINUOUS
62
7
0
POLYLINE
5
1BC
8
0
6
CONTINUOUS
62
7
66
1
10
0
20
0
30
0
70
0
0
VERTEX
5
1BD
8
0
6
CONTINUOUS
62
7
10
239.027676844
20
76.0667922425
30
0
0
VERTEX
5
1BE
8
0
6
CONTINUOUS
62
7
10
239.238759024
20
75.9223358804
30
0
0
VERTEX
5
1BF
8
0
6
CONTINUOUS
62
7
10
239.435451028
20
75.8819716122
30
0
0
SEQEND
5
1C0
8
0
6
CONTINUOUS
62
7
0
POLYLINE
5
1C1
8
0
6
CONTINUOUS
62
7
66
1
10
0
20
0
30
0
70
0
0
VERTEX
5
1C2
8
0
6
CONTINUOUS
62
7
10
228.875422148
20
71.0630002501
30
0
0
VERTEX
5
1C3
8
0
6
CONTINUOUS
62
7
10
228.789223551
20
70.9132770726
30
0
0
VERTEX
5
1C4
8
0
6
CONTINUOUS
62
7
10
228.778371136
20
70.7401790552
30
0
0
VERTEX
5
1C5
8
0
6
CONTINUOUS
62
7
10
228.820624673
20
70.6174459316
30
0
0
VERTEX
5
1C6
8
0
6
CONTINUOUS
62
7
10
228.90205553
20
70.515985877
30
0
0
VERTEX
5
1C7
8
0
6
CONTINUOUS
62
7
10
229.138345197
20
70.4130391745
30
0
0
VERTEX
5
1C8
8
0
6
CONTINUOUS
62
7
10
229.654037591
20
70.3588226585
30
0
0
SEQEND
5
1C9
8
0
6
CONTINUOUS
62
7
0
POLYLINE
5
1CA
8
0
6
CONTINUOUS
62
7
66
1
10
0
20
0
30
0
70
0
0
VERTEX
5
1CB
8
0
6
CONTINUOUS
62
7
10
254.289126321
20
94.9954693851
30
0
0
VERTEX
5
1CC
8
0
6
CONTINUOUS
62
7
10
254.236164576
20
95.5117632075
30
0
0
VERTEX
5
1CD
8
0
6
CONTINUOUS
62
7
10
254.131803157
20
95.747455086
30
0
0
VERTEX
5
1CE
8
0
6
CONTINUOUS
62
7
10
254.030291957
20
95.8289397713
30
0
0
VERTEX
5
1CF
8
0
6
CONTINUOUS
62
7
10
253.907473441
20
95.8711522446
30
0
0
VERTEX
5
1D0
8
0
6
CONTINUOUS
62
7
10
253.734308443
20
95.8595970127
30
0
0
VERTEX
5
1D1
8
0
6
CONTINUOUS
62
7
10
253.584949729
20
95.772530831
30
0
0
SEQEND
5
1D2
8
0
6
CONTINUOUS
62
7
0
POLYLINE
5
1D3
8
0
6
CONTINUOUS
62
7
66
1
10
0
20
0
30
0
70
0
0
VERTEX
5
1D4
8
0
6
CONTINUOUS
62
7
10
250.65937258
20
92.8456096848
30
0
0
VERTEX
5
1D5
8
0
6
CONTINUOUS
62
7
10
250.56190043
20
92.7149045996
30
0
0
VERTEX
5
1D6
8
0
6
CONTINUOUS
62
7
10
250.547894803
20
92.5866712027
30
0
0
SEQEND
5
1D7
8
0
6
CONTINUOUS
62
7
0
POLYLINE
5
1D8
8
0
6
CONTINUOUS
62
7
66
1
10
0
20
0
30
0
70
0
0
VERTEX
5
1D9
8
0
6
CONTINUOUS
62
7
10
232.062832773
20
74.100060176
30
0
0
VERTEX
5
1DA
8
0
6
CONTINUOUS
62
7
10
231.90225218
20
74.0708638431
30
0
0
VERTEX
5
1DB
8
0
6
CONTINUOUS
62
7
10
231.802379294
20
73.990064396
30
0
0
SEQEND
5
1DC
8
0
6
CONTINUOUS
62
7
0
POLYLINE
5
1DD
8
0
6
CONTINUOUS
62
7
66
1
10
0
20
0
30
0
70
0
0
VERTEX
5
1DE
8
0
6
CONTINUOUS
62
7
10
250.031180836
20
99.333524709
30
0
0
VERTEX
5
1DF
8
0
6
CONTINUOUS
62
7
10
250.117360326
20
99.4832491178
30
0
0
VERTEX
5
1E0
8
0
6
CONTINUOUS
62
7
10
250.128252673
20
99.6563414893
30
0
0
VERTEX
5
1E1
8
0
6
CONTINUOUS
62
7
10
250.085931249
20
99.7790348815
30
0
0
VERTEX
5
1E2
8
0
6
CONTINUOUS
62
7
10
250.004369194
20
99.8803819681
30
0
0
VERTEX
5
1E3
8
0
6
CONTINUOUS
62
7
10
249.768294146
20
99.9838946616
30
0
0
VERTEX
5
1E4
8
0
6
CONTINUOUS
62
7
10
249.252567394
20
100.037704301
30
0
0
SEQEND
5
1E5
8
0
6
CONTINUOUS
62
7
0
POLYLINE
5
1E6
8
0
6
CONTINUOUS
62
7
66
1
10
0
20
0
30
0
70
0
0
VERTEX
5
1E7
8
0
6
CONTINUOUS
62
7
10
224.617472664
20
75.4011725738
30
0
0
VERTEX
5
1E8
8
0
6
CONTINUOUS
62
7
10
224.671481563
20
74.8852157674
30
0
0
VERTEX
5
1E9
8
0
6
CONTINUOUS
62
7
10
224.774979161
20
74.6490733006
30
0
0
VERTEX
5
1EA
8
0
6
CONTINUOUS
62
7
10
224.876450511
20
74.5675866748
30
0
0
VERTEX
5
1EB
8
0
6
CONTINUOUS
62
7
10
224.99926792
20
74.5254274056
30
0
0
VERTEX
5
1EC
8
0
6
CONTINUOUS
62
7
10
225.172406176
20
74.5368136295
30
0
0
VERTEX
5
1ED
8
0
6
CONTINUOUS
62
7
10
225.321653256
20
74.6239681282
30
0
0
SEQEND
5
1EE
8
0
6
CONTINUOUS
62
7
0
POLYLINE
5
1EF
8
0
6
CONTINUOUS
62
7
66
1
10
0
20
0
30
0
70
0
0
VERTEX
5
1F0
8
0
6
CONTINUOUS
62
7
10
246.843769211
20
96.2951007858
30
0
0
VERTEX
5
1F1
8
0
6
CONTINUOUS
62
7
10
247.001725762
20
96.3298043181
30
0
0
VERTEX
5
1F2
8
0
6
CONTINUOUS
62
7
10
247.10422569
20
96.4065785629
30
0
0
SEQEND
5
1F3
8
0
6
CONTINUOUS
62
7
0
LINE
5
1F4
8
0
6
CONTINUOUS
62
7
10
246.285448079
20
32.9186284284
11
292.466699185
21
109.46831521
0
LINE
5
1F5
8
0
6
CONTINUOUS
62
7
10
239.87931514
20
76.0667922425
11
244.732751433
21
80.9199465362
0
LINE
5
1F6
8
0
6
CONTINUOUS
62
7
10
233.877837143
20
80.9199465362
11
239.027676844
21
76.0667922425
0
LINE
5
1F7
8
0
6
CONTINUOUS
62
7
10
231.802379294
20
73.990064396
11
228.875422148
21
71.0630002501
0
LINE
5
1F8
8
0
6
CONTINUOUS
62
7
10
229.654037591
20
70.3588226585
11
247.141549616
21
70.3588226585
0
LINE
5
1F9
8
0
6
CONTINUOUS
62
7
10
254.290537318
20
77.5083443594
11
254.289126321
21
94.9954693851
0
LINE
5
1FA
8
0
6
CONTINUOUS
62
7
10
253.584949729
20
95.772530831
11
250.65937258
21
92.8456096848
0
LINE
5
1FB
8
0
6
CONTINUOUS
62
7
10
250.547894803
20
92.5866712027
11
250.5493058
21
77.5083443594
0
LINE
5
1FC
8
0
6
CONTINUOUS
62
7
10
247.141549616
20
74.100060176
11
232.062832773
21
74.100060176
0
LINE
5
1FD
8
0
6
CONTINUOUS
62
7
10
247.10422569
20
96.4065785629
11
250.031180836
21
99.333524709
0
LINE
5
1FE
8
0
6
CONTINUOUS
62
7
10
249.252567394
20
100.037704301
11
231.765442368
21
100.037704301
0
LINE
5
1FF
8
0
6
CONTINUOUS
62
7
10
224.616061667
20
92.8869556022
11
224.617472664
21
75.4011725738
0
LINE
5
200
8
0
6
CONTINUOUS
62
7
10
225.321653256
20
74.6239681282
11
228.248573402
21
77.5509262743
0
LINE
5
201
8
0
6
CONTINUOUS
62
7
10
228.358677182
20
77.8098637564
11
228.357548184
21
92.8869556021
0
LINE
5
202
8
0
6
CONTINUOUS
62
7
10
231.765442368
20
96.2951007858
11
246.843769211
21
96.2951007858
0
ARC
5
203
8
0
6
CONTINUOUS
62
7
10
288.185451028
20
181.465189011
40
64.4140625
50
225.38758989
51
270
0
ARC
5
204
8
0
6
CONTINUOUS
62
7
10
288.185451028
20
112.051126511
40
5
50
328.898064074
51
90
0
ARC
5
205
8
0
6
CONTINUOUS
62
7
10
239.435451028
20
37.0511265113
40
8
50
212.516079562
51
328.898064074
0
ARC
5
206
8
0
6
CONTINUOUS
62
7
10
190.685451028
20
112.051126511
40
5
50
90
51
211.103494049
0
ARC
5
207
8
0
6
CONTINUOUS
62
7
10
190.685451028
20
181.465189011
40
64.4140625
50
270
51
314.61241011
0
ARC
5
208
8
0
6
CONTINUOUS
62
7
10
239.435451028
20
132.051126511
40
5
50
45.3875898902
51
134.61241011
0
ARC
5
209
8
0
6
CONTINUOUS
62
7
10
246.974374679
20
77.6749728306
40
7.31805990685
50
271.308987862
51
358.695291729
0
ARC
5
20A
8
0
6
CONTINUOUS
62
7
10
247.058331758
20
77.5910213678
40
3.49195292843
50
271.365563507
51
358.643313232
0
ARC
5
20B
8
0
6
CONTINUOUS
62
7
10
231.932532478
20
92.7212653239
40
7.3183466989
50
91.3082722739
51
178.70268993
0
ARC
5
20C
8
0
6
CONTINUOUS
62
7
10
228.098916642
20
77.7674399497
40
0.263202046899
50
304.652677269
51
9.2755929496
0
ARC
5
20D
8
0
6
CONTINUOUS
62
7
10
231.847213681
20
92.8054413013
40
3.49061740467
50
91.34233553
51
178.661884286
0
CIRCLE
5
20E
8
0
6
CONTINUOUS
62
7
10
299.316696235
20
105.335817127
40
1.6
0
CIRCLE
5
20F
8
0
6
CONTINUOUS
62
7
10
250.566696235
20
30.3358171266
40
2.1
0
CIRCLE
5
210
8
0
6
CONTINUOUS
62
7
10
299.316696235
20
10.3358171266
40
2.1
0
CIRCLE
5
211
8
0
6
CONTINUOUS
62
7
10
348.066696235
20
30.3358171266
40
2.1
0
POLYLINE
5
212
8
0
6
CONTINUOUS
62
7
66
1
10
0
20
0
30
0
70
0
0
VERTEX
5
213
8
0
6
CONTINUOUS
62
7
10
299.316696235
20
66.5049720257
30
0
0
VERTEX
5
214
8
0
6
CONTINUOUS
62
7
10
299.050289546
20
66.4425748082
30
0
0
VERTEX
5
215
8
0
6
CONTINUOUS
62
7
10
298.872832123
20
66.3201513954
30
0
0
SEQEND
5
216
8
0
6
CONTINUOUS
62
7
0
POLYLINE
5
217
8
0
6
CONTINUOUS
62
7
66
1
10
0
20
0
30
0
70
0
0
VERTEX
5
218
8
0
6
CONTINUOUS
62
7
10
294.01939583
20
61.4669971017
30
0
0
VERTEX
5
219
8
0
6
CONTINUOUS
62
7
10
293.249388337
20
60.584792113
30
0
0
VERTEX
5
21A
8
0
6
CONTINUOUS
62
7
10
292.539516172
20
59.6509412199
30
0
0
VERTEX
5
21B
8
0
6
CONTINUOUS
62
7
10
291.931828476
20
58.6459177537
30
0
0
VERTEX
5
21C
8
0
6
CONTINUOUS
62
7
10
291.495335323
20
57.5588247787
30
0
0
VERTEX
5
21D
8
0
6
CONTINUOUS
62
7
10
291.242483151
20
56.0127157906
30
0
0
VERTEX
5
21E
8
0
6
CONTINUOUS
62
7
10
291.363907207
20
54.4459294391
30
0
0
VERTEX
5
21F
8
0
6
CONTINUOUS
62
7
10
291.822404516
20
52.9314169178
30
0
0
VERTEX
5
220
8
0
6
CONTINUOUS
62
7
10
292.571608011
20
51.5340600454
30
0
0
VERTEX
5
221
8
0
6
CONTINUOUS
62
7
10
293.568551203
20
50.3106922818
30
0
0
VERTEX
5
222
8
0
6
CONTINUOUS
62
7
10
294.776615419
20
49.3031270391
30
0
0
VERTEX
5
223
8
0
6
CONTINUOUS
62
7
10
296.158795253
20
48.5505274751
30
0
0
VERTEX
5
224
8
0
6
CONTINUOUS
62
7
10
297.66445096
20
48.0793626796
30
0
0
VERTEX
5
225
8
0
6
CONTINUOUS
62
7
10
299.233613312
20
47.9074156558
30
0
0
VERTEX
5
226
8
0
6
CONTINUOUS
62
7
10
300.806012436
20
48.0474371171
30
0
0
VERTEX
5
227
8
0
6
CONTINUOUS
62
7
10
302.320819412
20
48.4893959455
30
0
0
VERTEX
5
228
8
0
6
CONTINUOUS
62
7
10
303.717108388
20
49.2165275437
30
0
0
VERTEX
5
229
8
0
6
CONTINUOUS
62
7
10
304.941591913
20
50.2042152802
30
0
0
VERTEX
5
22A
8
0
6
CONTINUOUS
62
7
10
305.955595229
20
51.4128227597
30
0
0
VERTEX
5
22B
8
0
6
CONTINUOUS
62
7
10
306.721992194
20
52.7998758214
30
0
0
VERTEX
5
22C
8
0
6
CONTINUOUS
62
7
10
307.202396644
20
54.3084452399
30
0
0
VERTEX
5
22D
8
0
6
CONTINUOUS
62
7
10
307.357558696
20
55.8716931614
30
0
0
VERTEX
5
22E
8
0
6
CONTINUOUS
62
7
10
307.160554761
20
57.4231789209
30
0
0
VERTEX
5
22F
8
0
6
CONTINUOUS
62
7
10
306.641478775
20
58.8995844414
30
0
0
VERTEX
5
230
8
0
6
CONTINUOUS
62
7
10
305.848078714
20
60.2447051595
30
0
0
VERTEX
5
231
8
0
6
CONTINUOUS
62
7
10
304.87431012
20
61.4669971017
30
0
0
SEQEND
5
232
8
0
6
CONTINUOUS
62
7
0
POLYLINE
5
233
8
0
6
CONTINUOUS
62
7
66
1
10
0
20
0
30
0
70
0
0
VERTEX
5
234
8
0
6
CONTINUOUS
62
7
10
299.72447042
20
66.3201513954
30
0
0
VERTEX
5
235
8
0
6
CONTINUOUS
62
7
10
299.51338824
20
66.4646077575
30
0
0
VERTEX
5
236
8
0
6
CONTINUOUS
62
7
10
299.316696235
20
66.5049720257
30
0
0
SEQEND
5
237
8
0
6
CONTINUOUS
62
7
0
POLYLINE
5
238
8
0
6
CONTINUOUS
62
7
66
1
10
0
20
0
30
0
70
0
0
VERTEX
5
239
8
0
6
CONTINUOUS
62
7
10
309.876725115
20
71.3239433878
30
0
0
VERTEX
5
23A
8
0
6
CONTINUOUS
62
7
10
309.962923713
20
71.4736665653
30
0
0
VERTEX
5
23B
8
0
6
CONTINUOUS
62
7
10
309.973776127
20
71.6467645827
30
0
0
VERTEX
5
23C
8
0
6
CONTINUOUS
62
7
10
309.93152259
20
71.7694977063
30
0
0
VERTEX
5
23D
8
0
6
CONTINUOUS
62
7
10
309.850091734
20
71.8709577609
30
0
0
VERTEX
5
23E
8
0
6
CONTINUOUS
62
7
10
309.613802067
20
71.9739044634
30
0
0
VERTEX
5
23F
8
0
6
CONTINUOUS
62
7
10
309.098109672
20
72.0281209794
30
0
0
SEQEND
5
240
8
0
6
CONTINUOUS
62
7
0
POLYLINE
5
241
8
0
6
CONTINUOUS
62
7
66
1
10
0
20
0
30
0
70
0
0
VERTEX
5
242
8
0
6
CONTINUOUS
62
7
10
284.463020943
20
47.3914742528
30
0
0
VERTEX
5
243
8
0
6
CONTINUOUS
62
7
10
284.515982688
20
46.8751804304
30
0
0
VERTEX
5
244
8
0
6
CONTINUOUS
62
7
10
284.620344106
20
46.6394885519
30
0
0
VERTEX
5
245
8
0
6
CONTINUOUS
62
7
10
284.721855307
20
46.5580038666
30
0
0
VERTEX
5
246
8
0
6
CONTINUOUS
62
7
10
284.844673822
20
46.5157913933
30
0
0
VERTEX
5
247
8
0
6
CONTINUOUS
62
7
10
285.017838821
20
46.5273466252
30
0
0
VERTEX
5
248
8
0
6
CONTINUOUS
62
7
10
285.167197534
20
46.6144128069
30
0
0
SEQEND
5
249
8
0
6
CONTINUOUS
62
7
0
POLYLINE
5
24A
8
0
6
CONTINUOUS
62
7
66
1
10
0
20
0
30
0
70
0
0
VERTEX
5
24B
8
0
6
CONTINUOUS
62
7
10
288.092774683
20
49.5413339531
30
0
0
VERTEX
5
24C
8
0
6
CONTINUOUS
62
7
10
288.190246834
20
49.6720390383
30
0
0
VERTEX
5
24D
8
0
6
CONTINUOUS
62
7
10
288.20425246
20
49.8002724352
30
0
0
SEQEND
5
24E
8
0
6
CONTINUOUS
62
7
0
POLYLINE
5
24F
8
0
6
CONTINUOUS
62
7
66
1
10
0
20
0
30
0
70
0
0
VERTEX
5
250
8
0
6
CONTINUOUS
62
7
10
306.68931449
20
68.2868834619
30
0
0
VERTEX
5
251
8
0
6
CONTINUOUS
62
7
10
306.849895083
20
68.3160797948
30
0
0
VERTEX
5
252
8
0
6
CONTINUOUS
62
7
10
306.949767969
20
68.3968792419
30
0
0
SEQEND
5
253
8
0
6
CONTINUOUS
62
7
0
POLYLINE
5
254
8
0
6
CONTINUOUS
62
7
66
1
10
0
20
0
30
0
70
0
0
VERTEX
5
255
8
0
6
CONTINUOUS
62
7
10
288.720966427
20
43.0534189289
30
0
0
VERTEX
5
256
8
0
6
CONTINUOUS
62
7
10
288.634786937
20
42.9036945201
30
0
0
VERTEX
5
257
8
0
6
CONTINUOUS
62
7
10
288.62389459
20
42.7306021486
30
0
0
VERTEX
5
258
8
0
6
CONTINUOUS
62
7
10
288.666216015
20
42.6079087564
30
0
0
VERTEX
5
259
8
0
6
CONTINUOUS
62
7
10
288.74777807
20
42.5065616698
30
0
0
VERTEX
5
25A
8
0
6
CONTINUOUS
62
7
10
288.983853117
20
42.4030489763
30
0
0
VERTEX
5
25B
8
0
6
CONTINUOUS
62
7
10
289.49957987
20
42.3492393373
30
0
0
SEQEND
5
25C
8
0
6
CONTINUOUS
62
7
0
POLYLINE
5
25D
8
0
6
CONTINUOUS
62
7
66
1
10
0
20
0
30
0
70
0
0
VERTEX
5
25E
8
0
6
CONTINUOUS
62
7
10
314.134674599
20
66.9857710641
30
0
0
VERTEX
5
25F
8
0
6
CONTINUOUS
62
7
10
314.0806657
20
67.5017278705
30
0
0
VERTEX
5
260
8
0
6
CONTINUOUS
62
7
10
313.977168102
20
67.7378703373
30
0
0
VERTEX
5
261
8
0
6
CONTINUOUS
62
7
10
313.875696753
20
67.8193569631
30
0
0
VERTEX
5
262
8
0
6
CONTINUOUS
62
7
10
313.752879343
20
67.8615162323
30
0
0
VERTEX
5
263
8
0
6
CONTINUOUS
62
7
10
313.579741087
20
67.8501300084
30
0
0
VERTEX
5
264
8
0
6
CONTINUOUS
62
7
10
313.430494008
20
67.7629755097
30
0
0
SEQEND
5
265
8
0
6
CONTINUOUS
62
7
0
POLYLINE
5
266
8
0
6
CONTINUOUS
62
7
66
1
10
0
20
0
30
0
70
0
0
VERTEX
5
267
8
0
6
CONTINUOUS
62
7
10
291.908378052
20
46.0918428521
30
0
0
VERTEX
5
268
8
0
6
CONTINUOUS
62
7
10
291.750421501
20
46.0571393198
30
0
0
VERTEX
5
269
8
0
6
CONTINUOUS
62
7
10
291.647921573
20
45.980365075
30
0
0
SEQEND
5
26A
8
0
6
CONTINUOUS
62
7
0
LINE
5
26B
8
0
6
CONTINUOUS
62
7
10
352.347874153
20
32.9187448533
11
306.062621228
21
109.636107348
0
LINE
5
26C
8
0
6
CONTINUOUS
62
7
10
298.872832123
20
66.3201513954
11
294.01939583
21
61.4669971017
0
LINE
5
26D
8
0
6
CONTINUOUS
62
7
10
304.87431012
20
61.4669971017
11
299.72447042
21
66.3201513954
0
LINE
5
26E
8
0
6
CONTINUOUS
62
7
10
306.949767969
20
68.3968792419
11
309.876725115
21
71.3239433878
0
LINE
5
26F
8
0
6
CONTINUOUS
62
7
10
309.098109672
20
72.0281209794
11
291.610597648
21
72.0281209794
0
LINE
5
270
8
0
6
CONTINUOUS
62
7
10
284.461609946
20
64.8785992785
11
284.463020943
21
47.3914742528
0
LINE
5
271
8
0
6
CONTINUOUS
62
7
10
285.167197534
20
46.6144128069
11
288.092774683
21
49.5413339531
0
LINE
5
272
8
0
6
CONTINUOUS
62
7
10
288.20425246
20
49.8002724352
11
288.202841463
21
64.8785992785
0
LINE
5
273
8
0
6
CONTINUOUS
62
7
10
291.610597648
20
68.2868834619
11
306.68931449
21
68.2868834619
0
LINE
5
274
8
0
6
CONTINUOUS
62
7
10
291.647921573
20
45.980365075
11
288.720966427
21
43.0534189289
0
LINE
5
275
8
0
6
CONTINUOUS
62
7
10
289.49957987
20
42.3492393373
11
306.986704895
21
42.3492393373
0
LINE
5
276
8
0
6
CONTINUOUS
62
7
10
314.136085597
20
49.4999880357
11
314.134674599
21
66.9857710641
0
LINE
5
277
8
0
6
CONTINUOUS
62
7
10
313.430494008
20
67.7629755097
11
310.503573862
21
64.8360173636
0
LINE
5
278
8
0
6
CONTINUOUS
62
7
10
310.393470082
20
64.5770798815
11
310.394599079
21
49.4999880358
0
LINE
5
279
8
0
6
CONTINUOUS
62
7
10
306.986704895
20
46.0918428521
11
291.908378052
21
46.0918428521
0
ARC
5
27A
8
0
6
CONTINUOUS
62
7
10
250.566696235
20
-39.0782453734
40
64.4140625
50
45.3875898902
51
90
0
ARC
5
27B
8
0
6
CONTINUOUS
62
7
10
250.566696235
20
30.3358171266
40
5
50
148.898064074
51
270
0
ARC
5
27C
8
0
6
CONTINUOUS
62
7
10
299.316696235
20
105.335817127
40
8
50
32.5160795624
51
148.898064074
0
ARC
5
27D
8
0
6
CONTINUOUS
62
7
10
348.066696235
20
30.3358171266
40
5
50
270
51
31.1034940488
0
ARC
5
27E
8
0
6
CONTINUOUS
62
7
10
348.066696235
20
-39.0782453734
40
64.4140625
50
90
51
134.61241011
0
ARC
5
27F
8
0
6
CONTINUOUS
62
7
10
299.316696235
20
10.3358171266
40
5
50
225.38758989
51
314.61241011
0
ARC
5
280
8
0
6
CONTINUOUS
62
7
10
291.777772584
20
64.7119708073
40
7.31805990685
50
91.3089878616
51
178.695291729
0
ARC
5
281
8
0
6
CONTINUOUS
62
7
10
291.693815506
20
64.7959222701
40
3.49195292843
50
91.3655635074
51
178.643313232
0
ARC
5
282
8
0
6
CONTINUOUS
62
7
10
306.819614785
20
49.665678314
40
7.3183466989
50
271.308272274
51
358.70268993
0
ARC
5
283
8
0
6
CONTINUOUS
62
7
10
310.653230622
20
64.6195036882
40
0.263202046899
50
124.652677269
51
189.27559295
0
ARC
5
284
8
0
6
CONTINUOUS
62
7
10
306.904933582
20
49.5815023366
40
3.49061740467
50
271.34233553
51
358.661884286
0
CIRCLE
5
285
8
0
6
CONTINUOUS
62
7
10
359.093799146
20
37.2190350746
40
1.6
0
CIRCLE
5
286
8
0
6
CONTINUOUS
62
7
10
407.843799146
20
112.219035075
40
2.1
0
CIRCLE
5
287
8
0
6
CONTINUOUS
62
7
10
359.093799146
20
132.219035075
40
2.1
0
CIRCLE
5
288
8
0
6
CONTINUOUS
62
7
10
310.343799146
20
112.219035075
40
2.1
0
POLYLINE
5
289
8
0
6
CONTINUOUS
62
7
66
1
10
0
20
0
30
0
70
0
0
VERTEX
5
28A
8
0
6
CONTINUOUS
62
7
10
359.093799146
20
76.0498801755
30
0
0
VERTEX
5
28B
8
0
6
CONTINUOUS
62
7
10
359.360205835
20
76.112277393
30
0
0
VERTEX
5
28C
8
0
6
CONTINUOUS
62
7
10
359.537663258
20
76.2347008058
30
0
0
SEQEND
5
28D
8
0
6
CONTINUOUS
62
7
0
POLYLINE
5
28E
8
0
6
CONTINUOUS
62
7
66
1
10
0
20
0
30
0
70
0
0
VERTEX
5
28F
8
0
6
CONTINUOUS
62
7
10
364.391099551
20
81.0878550995
30
0
0
VERTEX
5
290
8
0
6
CONTINUOUS
62
7
10
365.161107044
20
81.9700600882
30
0
0
VERTEX
5
291
8
0
6
CONTINUOUS
62
7
10
365.870979209
20
82.9039109813
30
0
0
VERTEX
5
292
8
0
6
CONTINUOUS
62
7
10
366.478666905
20
83.9089344475
30
0
0
VERTEX
5
293
8
0
6
CONTINUOUS
62
7
10
366.915160058
20
84.9960274225
30
0
0
VERTEX
5
294
8
0
6
CONTINUOUS
62
7
10
367.16801223
20
86.5421364106
30
0
0
VERTEX
5
295
8
0
6
CONTINUOUS
62
7
10
367.046588174
20
88.1089227621
30
0
0
VERTEX
5
296
8
0
6
CONTINUOUS
62
7
10
366.588090865
20
89.6234352834
30
0
0
VERTEX
5
297
8
0
6
CONTINUOUS
62
7
10
365.83888737
20
91.0207921558
30
0
0
VERTEX
5
298
8
0
6
CONTINUOUS
62
7
10
364.841944177
20
92.2441599194
30
0
0
VERTEX
5
299
8
0
6
CONTINUOUS
62
7
10
363.633879962
20
93.2517251621
30
0
0
VERTEX
5
29A
8
0
6
CONTINUOUS
62
7
10
362.251700128
20
94.0043247261
30
0
0
VERTEX
5
29B
8
0
6
CONTINUOUS
62
7
10
360.746044421
20
94.4754895216
30
0
0
VERTEX
5
29C
8
0
6
CONTINUOUS
62
7
10
359.176882069
20
94.6474365454
30
0
0
VERTEX
5
29D
8
0
6
CONTINUOUS
62
7
10
357.604482945
20
94.5074150841
30
0
0
VERTEX
5
29E
8
0
6
CONTINUOUS
62
7
10
356.089675969
20
94.0654562557
30
0
0
VERTEX
5
29F
8
0
6
CONTINUOUS
62
7
10
354.693386993
20
93.3383246575
30
0
0
VERTEX
5
2A0
8
0
6
CONTINUOUS
62
7
10
353.468903468
20
92.350636921
30
0
0
VERTEX
5
2A1
8
0
6
CONTINUOUS
62
7
10
352.454900152
20
91.1420294415
30
0
0
VERTEX
5
2A2
8
0
6
CONTINUOUS
62
7
10
351.688503187
20
89.7549763798
30
0
0
VERTEX
5
2A3
8
0
6
CONTINUOUS
62
7
10
351.208098736
20
88.2464069613
30
0
0
VERTEX
5
2A4
8
0
6
CONTINUOUS
62
7
10
351.052936684
20
86.6831590398
30
0
0
VERTEX
5
2A5
8
0
6
CONTINUOUS
62
7
10
351.24994062
20
85.1316732803
30
0
0
VERTEX
5
2A6
8
0
6
CONTINUOUS
62
7
10
351.769016606
20
83.6552677598
30
0
0
VERTEX
5
2A7
8
0
6
CONTINUOUS
62
7
10
352.562416667
20
82.3101470417
30
0
0
VERTEX
5
2A8
8
0
6
CONTINUOUS
62
7
10
353.536185261
20
81.0878550995
30
0
0
SEQEND
5
2A9
8
0
6
CONTINUOUS
62
7
0
POLYLINE
5
2AA
8
0
6
CONTINUOUS
62
7
66
1
10
0
20
0
30
0
70
0
0
VERTEX
5
2AB
8
0
6
CONTINUOUS
62
7
10
358.686024961
20
76.2347008058
30
0
0
VERTEX
5
2AC
8
0
6
CONTINUOUS
62
7
10
358.897107141
20
76.0902444437
30
0
0
VERTEX
5
2AD
8
0
6
CONTINUOUS
62
7
10
359.093799146
20
76.0498801755
30
0
0
SEQEND
5
2AE
8
0
6
CONTINUOUS
62
7
0
POLYLINE
5
2AF
8
0
6
CONTINUOUS
62
7
66
1
10
0
20
0
30
0
70
0
0
VERTEX
5
2B0
8
0
6
CONTINUOUS
62
7
10
348.533770266
20
71.2309088134
30
0
0
VERTEX
5
2B1
8
0
6
CONTINUOUS
62
7
10
348.447571668
20
71.0811856359
30
0
0
VERTEX
5
2B2
8
0
6
CONTINUOUS
62
7
10
348.436719253
20
70.9080876185
30
0
0
VERTEX
5
2B3
8
0
6
CONTINUOUS
62
7
10
348.478972791
20
70.7853544949
30
0
0
VERTEX
5
2B4
8
0
6
CONTINUOUS
62
7
10
348.560403647
20
70.6838944403
30
0
0
VERTEX
5
2B5
8
0
6
CONTINUOUS
62
7
10
348.796693314
20
70.5809477378
30
0
0
VERTEX
5
2B6
8
0
6
CONTINUOUS
62
7
10
349.312385708
20
70.5267312218
30
0
0
SEQEND
5
2B7
8
0
6
CONTINUOUS
62
7
0
POLYLINE
5
2B8
8
0
6
CONTINUOUS
62
7
66
1
10
0
20
0
30
0
70
0
0
VERTEX
5
2B9
8
0
6
CONTINUOUS
62
7
10
373.947474438
20
95.1633779484
30
0
0
VERTEX
5
2BA
8
0
6
CONTINUOUS
62
7
10
373.894512693
20
95.6796717708
30
0
0
VERTEX
5
2BB
8
0
6
CONTINUOUS
62
7
10
373.790151275
20
95.9153636493
30
0
0
VERTEX
5
2BC
8
0
6
CONTINUOUS
62
7
10
373.688640074
20
95.9968483346
30
0
0
VERTEX
5
2BD
8
0
6
CONTINUOUS
62
7
10
373.565821559
20
96.0390608079
30
0
0
VERTEX
5
2BE
8
0
6
CONTINUOUS
62
7
10
373.39265656
20
96.027505576
30
0
0
VERTEX
5
2BF
8
0
6
CONTINUOUS
62
7
10
373.243297846
20
95.9404393943
30
0
0
SEQEND
5
2C0
8
0
6
CONTINUOUS
62
7
0
POLYLINE
5
2C1
8
0
6
CONTINUOUS
62
7
66
1
10
0
20
0
30
0
70
0
0
VERTEX
5
2C2
8
0
6
CONTINUOUS
62
7
10
370.317720698
20
93.0135182481
30
0
0
VERTEX
5
2C3
8
0
6
CONTINUOUS
62
7
10
370.220248547
20
92.8828131629
30
0
0
VERTEX
5
2C4
8
0
6
CONTINUOUS
62
7
10
370.206242921
20
92.754579766
30
0
0
SEQEND
5
2C5
8
0
6
CONTINUOUS
62
7
0
POLYLINE
5
2C6
8
0
6
CONTINUOUS
62
7
66
1
10
0
20
0
30
0
70
0
0
VERTEX
5
2C7
8
0
6
CONTINUOUS
62
7
10
351.721180891
20
74.2679687393
30
0
0
VERTEX
5
2C8
8
0
6
CONTINUOUS
62
7
10
351.560600298
20
74.2387724064
30
0
0
VERTEX
5
2C9
8
0
6
CONTINUOUS
62
7
10
351.460727412
20
74.1579729593
30
0
0
SEQEND
5
2CA
8
0
6
CONTINUOUS
62
7
0
POLYLINE
5
2CB
8
0
6
CONTINUOUS
62
7
66
1
10
0
20
0
30
0
70
0
0
VERTEX
5
2CC
8
0
6
CONTINUOUS
62
7
10
369.689528954
20
99.5014332723
30
0
0
VERTEX
5
2CD
8
0
6
CONTINUOUS
62
7
10
369.775708444
20
99.6511576811
30
0
0
VERTEX
5
2CE
8
0
6
CONTINUOUS
62
7
10
369.786600791
20
99.8242500526
30
0
0
VERTEX
5
2CF
8
0
6
CONTINUOUS
62
7
10
369.744279366
20
99.9469434448
30
0
0
VERTEX
5
2D0
8
0
6
CONTINUOUS
62
7
10
369.662717311
20
100.048290531
30
0
0
VERTEX
5
2D1
8
0
6
CONTINUOUS
62
7
10
369.426642263
20
100.151803225
30
0
0
VERTEX
5
2D2
8
0
6
CONTINUOUS
62
7
10
368.910915511
20
100.205612864
30
0
0
SEQEND
5
2D3
8
0
6
CONTINUOUS
62
7
0
POLYLINE
5
2D4
8
0
6
CONTINUOUS
62
7
66
1
10
0
20
0
30
0
70
0
0
VERTEX
5
2D5
8
0
6
CONTINUOUS
62
7
10
344.275820782
20
75.5690811371
30
0
0
VERTEX
5
2D6
8
0
6
CONTINUOUS
62
7
10
344.329829681
20
75.0531243307
30
0
0
VERTEX
5
2D7
8
0
6
CONTINUOUS
62
7
10
344.433327279
20
74.8169818639
30
0
0
VERTEX
5
2D8
8
0
6
CONTINUOUS
62
7
10
344.534798628
20
74.7354952381
30
0
0
VERTEX
5
2D9
8
0
6
CONTINUOUS
62
7
10
344.657616038
20
74.6933359689
30
0
0
VERTEX
5
2DA
8
0
6
CONTINUOUS
62
7
10
344.830754294
20
74.7047221928
30
0
0
VERTEX
5
2DB
8
0
6
CONTINUOUS
62
7
10
344.980001373
20
74.7918766915
30
0
0
SEQEND
5
2DC
8
0
6
CONTINUOUS
62
7
0
POLYLINE
5
2DD
8
0
6
CONTINUOUS
62
7
66
1
10
0
20
0
30
0
70
0
0
VERTEX
5
2DE
8
0
6
CONTINUOUS
62
7
10
366.502117329
20
96.4630093491
30
0
0
VERTEX
5
2DF
8
0
6
CONTINUOUS
62
7
10
366.66007388
20
96.4977128814
30
0
0
VERTEX
5
2E0
8
0
6
CONTINUOUS
62
7
10
366.762573808
20
96.5744871262
30
0
0
SEQEND
5
2E1
8
0
6
CONTINUOUS
62
7
0
LINE
5
2E2
8
0
6
CONTINUOUS
62
7
10
365.943796196
20
33.0865369917
11
412.125047302
21
109.636223773
0
LINE
5
2E3
8
0
6
CONTINUOUS
62
7
10
359.537663258
20
76.2347008058
11
364.391099551
21
81.0878550995
0
LINE
5
2E4
8
0
6
CONTINUOUS
62
7
10
353.536185261
20
81.0878550995
11
358.686024961
21
76.2347008058
0
LINE
5
2E5
8
0
6
CONTINUOUS
62
7
10
351.460727412
20
74.1579729593
11
348.533770266
21
71.2309088134
0
LINE
5
2E6
8
0
6
CONTINUOUS
62
7
10
349.312385708
20
70.5267312218
11
366.799897733
21
70.5267312218
0
LINE
5
2E7
8
0
6
CONTINUOUS
62
7
10
373.948885435
20
77.6762529227
11
373.947474438
21
95.1633779484
0
LINE
5
2E8
8
0
6
CONTINUOUS
62
7
10
373.243297846
20
95.9404393943
11
370.317720698
21
93.0135182481
0
LINE
5
2E9
8
0
6
CONTINUOUS
62
7
10
370.206242921
20
92.754579766
11
370.207653918
21
77.6762529227
0
LINE
5
2EA
8
0
6
CONTINUOUS
62
7
10
366.799897733
20
74.2679687393
11
351.721180891
21
74.2679687393
0
LINE
5
2EB
8
0
6
CONTINUOUS
62
7
10
366.762573808
20
96.5744871262
11
369.689528954
21
99.5014332723
0
LINE
5
2EC
8
0
6
CONTINUOUS
62
7
10
368.910915511
20
100.205612864
11
351.423790486
21
100.205612864
0
LINE
5
2ED
8
0
6
CONTINUOUS
62
7
10
344.274409784
20
93.0548641655
11
344.275820782
21
75.5690811371
0
LINE
5
2EE
8
0
6
CONTINUOUS
62
7
10
344.980001373
20
74.7918766915
11
347.906921519
21
77.7188348376
0
LINE
5
2EF
8
0
6
CONTINUOUS
62
7
10
348.017025299
20
77.9777723197
11
348.015896301
21
93.0548641654
0
LINE
5
2F0
8
0
6
CONTINUOUS
62
7
10
351.423790486
20
96.4630093491
11
366.502117329
21
96.4630093491
0
ARC
5
2F1
8
0
6
CONTINUOUS
62
7
10
407.843799146
20
181.633097575
40
64.4140625
50
225.38758989
51
270
0
ARC
5
2F2
8
0
6
CONTINUOUS
62
7
10
407.843799146
20
112.219035075
40
5
50
328.898064074
51
90
0
ARC
5
2F3
8
0
6
CONTINUOUS
62
7
10
359.093799146
20
37.2190350746
40
8
50
212.516079562
51
328.898064074
0
ARC
5
2F4
8
0
6
CONTINUOUS
62
7
10
310.343799146
20
112.219035075
40
5
50
90
51
211.103494049
0
ARC
5
2F5
8
0
6
CONTINUOUS
62
7
10
310.343799146
20
181.633097575
40
64.4140625
50
270
51
314.61241011
0
ARC
5
2F6
8
0
6
CONTINUOUS
62
7
10
359.093799146
20
132.219035075
40
5
50
45.3875898902
51
134.61241011
0
ARC
5
2F7
8
0
6
CONTINUOUS
62
7
10
366.632722797
20
77.8428813939
40
7.31805990685
50
271.308987862
51
358.695291729
0
ARC
5
2F8
8
0
6
CONTINUOUS
62
7
10
366.716679875
20
77.7589299311
40
3.49195292843
50
271.365563507
51
358.643313232
0
ARC
5
2F9
8
0
6
CONTINUOUS
62
7
10
351.590880596
20
92.8891738872
40
7.3183466989
50
91.3082722739
51
178.70268993
0
ARC
5
2FA
8
0
6
CONTINUOUS
62
7
10
347.757264759
20
77.935348513
40
0.263202046899
50
304.652677269
51
9.2755929496
0
ARC
5
2FB
8
0
6
CONTINUOUS
62
7
10
351.505561799
20
92.9733498646
40
3.49061740467
50
91.34233553
51
178.661884286
0
CIRCLE
5
2FC
8
0
6
CONTINUOUS
62
7
10
418.975044353
20
105.50372569
40
1.6
0
CIRCLE
5
2FD
8
0
6
CONTINUOUS
62
7
10
370.225044353
20
30.5037256899
40
2.1
0
CIRCLE
5
2FE
8
0
6
CONTINUOUS
62
7
10
418.975044353
20
10.5037256899
40
2.1
0
CIRCLE
5
2FF
8
0
6
CONTINUOUS
62
7
10
467.725044353
20
30.5037256899
40
2.1
0
POLYLINE
5
300
8
0
6
CONTINUOUS
62
7
66
1
10
0
20
0
30
0
70
0
0
VERTEX
5
301
8
0
6
CONTINUOUS
62
7
10
418.975044353
20
66.672880589
30
0
0
VERTEX
5
302
8
0
6
CONTINUOUS
62
7
10
418.708637663
20
66.6104833715
30
0
0
VERTEX
5
303
8
0
6
CONTINUOUS
62
7
10
418.531180241
20
66.4880599587
30
0
0
SEQEND
5
304
8
0
6
CONTINUOUS
62
7
0
POLYLINE
5
305
8
0
6
CONTINUOUS
62
7
66
1
10
0
20
0
30
0
70
0
0
VERTEX
5
306
8
0
6
CONTINUOUS
62
7
10
413.677743948
20
61.634905665
30
0
0
VERTEX
5
307
8
0
6
CONTINUOUS
62
7
10
412.907736455
20
60.7527006763
30
0
0
VERTEX
5
308
8
0
6
CONTINUOUS
62
7
10
412.197864289
20
59.8188497832
30
0
0
VERTEX
5
309
8
0
6
CONTINUOUS
62
7
10
411.590176594
20
58.813826317
30
0
0
VERTEX
5
30A
8
0
6
CONTINUOUS
62
7
10
411.153683441
20
57.726733342
30
0
0
VERTEX
5
30B
8
0
6
CONTINUOUS
62
7
10
410.900831269
20
56.1806243539
30
0
0
VERTEX
5
30C
8
0
6
CONTINUOUS
62
7
10
411.022255325
20
54.6138380024
30
0
0
VERTEX
5
30D
8
0
6
CONTINUOUS
62
7
10
411.480752634
20
53.0993254811
30
0
0
VERTEX
5
30E
8
0
6
CONTINUOUS
62
7
10
412.229956128
20
51.7019686087
30
0
0
VERTEX
5
30F
8
0
6
CONTINUOUS
62
7
10
413.226899321
20
50.4786008451
30
0
0
VERTEX
5
310
8
0
6
CONTINUOUS
62
7
10
414.434963537
20
49.4710356024
30
0
0
VERTEX
5
311
8
0
6
CONTINUOUS
62
7
10
415.817143371
20
48.7184360384
30
0
0
VERTEX
5
312
8
0
6
CONTINUOUS
62
7
10
417.322799078
20
48.2472712429
30
0
0
VERTEX
5
313
8
0
6
CONTINUOUS
62
7
10
418.89196143
20
48.0753242191
30
0
0
VERTEX
5
314
8
0
6
CONTINUOUS
62
7
10
420.464360554
20
48.2153456804
30
0
0
VERTEX
5
315
8
0
6
CONTINUOUS
62
7
10
421.979167529
20
48.6573045088
30
0
0
VERTEX
5
316
8
0
6
CONTINUOUS
62
7
10
423.375456506
20
49.384436107
30
0
0
VERTEX
5
317
8
0
6
CONTINUOUS
62
7
10
424.599940031
20
50.3721238435
30
0
0
VERTEX
5
318
8
0
6
CONTINUOUS
62
7
10
425.613943347
20
51.580731323
30
0
0
VERTEX
5
319
8
0
6
CONTINUOUS
62
7
10
426.380340312
20
52.9677843847
30
0
0
VERTEX
5
31A
8
0
6
CONTINUOUS
62
7
10
426.860744762
20
54.4763538032
30
0
0
VERTEX
5
31B
8
0
6
CONTINUOUS
62
7
10
427.015906814
20
56.0396017247
30
0
0
VERTEX
5
31C
8
0
6
CONTINUOUS
62
7
10
426.818902878
20
57.5910874842
30
0
0
VERTEX
5
31D
8
0
6
CONTINUOUS
62
7
10
426.299826892
20
59.0674930047
30
0
0
VERTEX
5
31E
8
0
6
CONTINUOUS
62
7
10
425.506426832
20
60.4126137228
30
0
0
VERTEX
5
31F
8
0
6
CONTINUOUS
62
7
10
424.532658238
20
61.634905665
30
0
0
SEQEND
5
320
8
0
6
CONTINUOUS
62
7
0
POLYLINE
5
321
8
0
6
CONTINUOUS
62
7
66
1
10
0
20
0
30
0
70
0
0
VERTEX
5
322
8
0
6
CONTINUOUS
62
7
10
419.382818537
20
66.4880599587
30
0
0
VERTEX
5
323
8
0
6
CONTINUOUS
62
7
10
419.171736357
20
66.6325163208
30
0
0
VERTEX
5
324
8
0
6
CONTINUOUS
62
7
10
418.975044353
20
66.672880589
30
0
0
SEQEND
5
325
8
0
6
CONTINUOUS
62
7
0
POLYLINE
5
326
8
0
6
CONTINUOUS
62
7
66
1
10
0
20
0
30
0
70
0
0
VERTEX
5
327
8
0
6
CONTINUOUS
62
7
10
429.535073233
20
71.4918519511
30
0
0
VERTEX
5
328
8
0
6
CONTINUOUS
62
7
10
429.62127183
20
71.6415751286
30
0
0
VERTEX
5
329
8
0
6
CONTINUOUS
62
7
10
429.632124245
20
71.814673146
30
0
0
VERTEX
5
32A
8
0
6
CONTINUOUS
62
7
10
429.589870708
20
71.9374062696
30
0
0
VERTEX
5
32B
8
0
6
CONTINUOUS
62
7
10
429.508439851
20
72.0388663242
30
0
0
VERTEX
5
32C
8
0
6
CONTINUOUS
62
7
10
429.272150184
20
72.1418130267
30
0
0
VERTEX
5
32D
8
0
6
CONTINUOUS
62
7
10
428.75645779
20
72.1960295427
30
0
0
SEQEND
5
32E
8
0
6
CONTINUOUS
62
7
0
POLYLINE
5
32F
8
0
6
CONTINUOUS
62
7
66
1
10
0
20
0
30
0
70
0
0
VERTEX
5
330
8
0
6
CONTINUOUS
62
7
10
404.12136906
20
47.5593828161
30
0
0
VERTEX
5
331
8
0
6
CONTINUOUS
62
7
10
404.174330805
20
47.0430889937
30
0
0
VERTEX
5
332
8
0
6
CONTINUOUS
62
7
10
404.278692224
20
46.8073971152
30
0
0
VERTEX
5
333
8
0
6
CONTINUOUS
62
7
10
404.380203424
20
46.7259124299
30
0
0
VERTEX
5
334
8
0
6
CONTINUOUS
62
7
10
404.50302194
20
46.6836999566
30
0
0
VERTEX
5
335
8
0
6
CONTINUOUS
62
7
10
404.676186938
20
46.6952551885
30
0
0
VERTEX
5
336
8
0
6
CONTINUOUS
62
7
10
404.825545652
20
46.7823213702
30
0
0
SEQEND
5
337
8
0
6
CONTINUOUS
62
7
0
POLYLINE
5
338
8
0
6
CONTINUOUS
62
7
66
1
10
0
20
0
30
0
70
0
0
VERTEX
5
339
8
0
6
CONTINUOUS
62
7
10
407.751122801
20
49.7092425164
30
0
0
VERTEX
5
33A
8
0
6
CONTINUOUS
62
7
10
407.848594951
20
49.8399476016
30
0
0
VERTEX
5
33B
8
0
6
CONTINUOUS
62
7
10
407.862600578
20
49.9681809985
30
0
0
SEQEND
5
33C
8
0
6
CONTINUOUS
62
7
0
POLYLINE
5
33D
8
0
6
CONTINUOUS
62
7
66
1
10
0
20
0
30
0
70
0
0
VERTEX
5
33E
8
0
6
CONTINUOUS
62
7
10
426.347662608
20
68.4547920252
30
0
0
VERTEX
5
33F
8
0
6
CONTINUOUS
62
7
10
426.5082432
20
68.4839883581
30
0
0
VERTEX
5
340
8
0
6
CONTINUOUS
62
7
10
426.608116087
20
68.5647878052
30
0
0
SEQEND
5
341
8
0
6
CONTINUOUS
62
7
0
POLYLINE
5
342
8
0
6
CONTINUOUS
62
7
66
1
10
0
20
0
30
0
70
0
0
VERTEX
5
343
8
0
6
CONTINUOUS
62
7
10
408.379314544
20
43.2213274922
30
0
0
VERTEX
5
344
8
0
6
CONTINUOUS
62
7
10
408.293135055
20
43.0716030834
30
0
0
VERTEX
5
345
8
0
6
CONTINUOUS
62
7
10
408.282242708
20
42.8985107119
30
0
0
VERTEX
5
346
8
0
6
CONTINUOUS
62
7
10
408.324564132
20
42.7758173197
30
0
0
VERTEX
5
347
8
0
6
CONTINUOUS
62
7
10
408.406126187
20
42.6744702331
30
0
0
VERTEX
5
348
8
0
6
CONTINUOUS
62
7
10
408.642201235
20
42.5709575396
30
0
0
VERTEX
5
349
8
0
6
CONTINUOUS
62
7
10
409.157927987
20
42.5171479006
30
0
0
SEQEND
5
34A
8
0
6
CONTINUOUS
62
7
0
POLYLINE
5
34B
8
0
6
CONTINUOUS
62
7
66
1
10
0
20
0
30
0
70
0
0
VERTEX
5
34C
8
0
6
CONTINUOUS
62
7
10
433.793022717
20
67.1536796274
30
0
0
VERTEX
5
34D
8
0
6
CONTINUOUS
62
7
10
433.739013818
20
67.6696364338
30
0
0
VERTEX
5
34E
8
0
6
CONTINUOUS
62
7
10
433.63551622
20
67.9057789006
30
0
0
VERTEX
5
34F
8
0
6
CONTINUOUS
62
7
10
433.53404487
20
67.9872655264
30
0
0
VERTEX
5
350
8
0
6
CONTINUOUS
62
7
10
433.411227461
20
68.0294247956
30
0
0
VERTEX
5
351
8
0
6
CONTINUOUS
62
7
10
433.238089205
20
68.0180385717
30
0
0
VERTEX
5
352
8
0
6
CONTINUOUS
62
7
10
433.088842125
20
67.930884073
30
0
0
SEQEND
5
353
8
0
6
CONTINUOUS
62
7
0
POLYLINE
5
354
8
0
6
CONTINUOUS
62
7
66
1
10
0
20
0
30
0
70
0
0
VERTEX
5
355
8
0
6
CONTINUOUS
62
7
10
411.56672617
20
46.2597514154
30
0
0
VERTEX
5
356
8
0
6
CONTINUOUS
62
7
10
411.408769619
20
46.2250478831
30
0
0
VERTEX
5
357
8
0
6
CONTINUOUS
62
7
10
411.306269691
20
46.1482736383
30
0
0
SEQEND
5
358
8
0
6
CONTINUOUS
62
7
0
LINE
5
359
8
0
6
CONTINUOUS
62
7
10
472.00622227
20
33.0866534166
11
425.720969346
21
109.804015911
0
LINE
5
35A
8
0
6
CONTINUOUS
62
7
10
418.531180241
20
66.4880599587
11
413.677743948
21
61.634905665
0
LINE
5
35B
8
0
6
CONTINUOUS
62
7
10
424.532658238
20
61.634905665
11
419.382818537
21
66.4880599587
0
LINE
5
35C
8
0
6
CONTINUOUS
62
7
10
426.608116087
20
68.5647878052
11
429.535073233
21
71.4918519511
0
LINE
5
35D
8
0
6
CONTINUOUS
62
7
10
428.75645779
20
72.1960295427
11
411.268945765
21
72.1960295427
0
LINE
5
35E
8
0
6
CONTINUOUS
62
7
10
404.119958063
20
65.0465078418
11
404.12136906
21
47.5593828161
0
LINE
5
35F
8
0
6
CONTINUOUS
62
7
10
404.825545652
20
46.7823213702
11
407.751122801
21
49.7092425164
0
LINE
5
360
8
0
6
CONTINUOUS
62
7
10
407.862600578
20
49.9681809985
11
407.861189581
21
65.0465078418
0
LINE
5
361
8
0
6
CONTINUOUS
62
7
10
411.268945765
20
68.4547920252
11
426.347662608
21
68.4547920252
0
LINE
5
362
8
0
6
CONTINUOUS
62
7
10
411.306269691
20
46.1482736383
11
408.379314544
21
43.2213274922
0
LINE
5
363
8
0
6
CONTINUOUS
62
7
10
409.157927987
20
42.5171479006
11
426.645053013
21
42.5171479006
0
LINE
5
364
8
0
6
CONTINUOUS
62
7
10
433.794433714
20
49.667896599
11
433.793022717
21
67.1536796274
0
LINE
5
365
8
0
6
CONTINUOUS
62
7
10
433.088842125
20
67.930884073
11
430.161921979
21
65.0039259269
0
LINE
5
366
8
0
6
CONTINUOUS
62
7
10
430.051818199
20
64.7449884448
11
430.052947197
21
49.6678965991
0
LINE
5
367
8
0
6
CONTINUOUS
62
7
10
426.645053013
20
46.2597514154
11
411.56672617
21
46.2597514154
0
ARC
5
368
8
0
6
CONTINUOUS
62
7
10
370.225044353
20
-38.9103368101
40
64.4140625
50
45.3875898902
51
90
0
ARC
5
369
8
0
6
CONTINUOUS
62
7
10
370.225044353
20
30.5037256899
40
5
50
148.898064074
51
270
0
ARC
5
36A
8
0
6
CONTINUOUS
62
7
10
418.975044353
20
105.50372569
40
8
50
32.5160795624
51
148.898064074
0
ARC
5
36B
8
0
6
CONTINUOUS
62
7
10
467.725044353
20
30.5037256899
40
5
50
270
51
31.1034940488
0
ARC
5
36C
8
0
6
CONTINUOUS
62
7
10
467.725044353
20
-38.9103368101
40
64.4140625
50
90
51
134.61241011
0
ARC
5
36D
8
0
6
CONTINUOUS
62
7
10
418.975044353
20
10.5037256899
40
5
50
225.38758989
51
314.61241011
0
ARC
5
36E
8
0
6
CONTINUOUS
62
7
10
411.436120702
20
64.8798793706
40
7.31805990685
50
91.3089878616
51
178.695291729
0
ARC
5
36F
8
0
6
CONTINUOUS
62
7
10
411.352163623
20
64.9638308334
40
3.49195292843
50
91.3655635074
51
178.643313232
0
ARC
5
370
8
0
6
CONTINUOUS
62
7
10
426.477962903
20
49.8335868773
40
7.3183466989
50
271.308272274
51
358.70268993
0
ARC
5
371
8
0
6
CONTINUOUS
62
7
10
430.311578739
20
64.7874122515
40
0.263202046899
50
124.652677269
51
189.27559295
0
ARC
5
372
8
0
6
CONTINUOUS
62
7
10
426.5632817
20
49.7494108999
40
3.49061740467
50
271.34233553
51
358.661884286
0
CIRCLE
5
373
8
0
6
CONTINUOUS
62
7
10
478.752147263
20
37.3869436379
40
1.6
0
CIRCLE
5
374
8
0
6
CONTINUOUS
62
7
10
527.502147263
20
112.386943638
40
2.1
0
CIRCLE
5
375
8
0
6
CONTINUOUS
62
7
10
478.752147263
20
132.386943638
40
2.1
0
CIRCLE
5
376
8
0
6
CONTINUOUS
62
7
10
430.002147263
20
112.386943638
40
2.1
0
POLYLINE
5
377
8
0
6
CONTINUOUS
62
7
66
1
10
0
20
0
30
0
70
0
0
VERTEX
5
378
8
0
6
CONTINUOUS
62
7
10
478.752147263
20
76.2177887388
30
0
0
VERTEX
5
379
8
0
6
CONTINUOUS
62
7
10
479.018553953
20
76.2801859563
30
0
0
VERTEX
5
37A
8
0
6
CONTINUOUS
62
7
10
479.196011376
20
76.4026093691
30
0
0
SEQEND
5
37B
8
0
6
CONTINUOUS
62
7
0
POLYLINE
5
37C
8
0
6
CONTINUOUS
62
7
66
1
10
0
20
0
30
0
70
0
0
VERTEX
5
37D
8
0
6
CONTINUOUS
62
7
10
484.049447669
20
81.2557636628
30
0
0
VERTEX
5
37E
8
0
6
CONTINUOUS
62
7
10
484.819455162
20
82.1379686515
30
0
0
VERTEX
5
37F
8
0
6
CONTINUOUS
62
7
10
485.529327327
20
83.0718195446
30
0
0
VERTEX
5
380
8
0
6
CONTINUOUS
62
7
10
486.137015022
20
84.0768430108
30
0
0
VERTEX
5
381
8
0
6
CONTINUOUS
62
7
10
486.573508176
20
85.1639359858
30
0
0
VERTEX
5
382
8
0
6
CONTINUOUS
62
7
10
486.826360348
20
86.7100449739
30
0
0
VERTEX
5
383
8
0
6
CONTINUOUS
62
7
10
486.704936292
20
88.2768313254
30
0
0
VERTEX
5
384
8
0
6
CONTINUOUS
62
7
10
486.246438983
20
89.7913438467
30
0
0
VERTEX
5
385
8
0
6
CONTINUOUS
62
7
10
485.497235488
20
91.1887007191
30
0
0
VERTEX
5
386
8
0
6
CONTINUOUS
62
7
10
484.500292295
20
92.4120684827
30
0
0
VERTEX
5
387
8
0
6
CONTINUOUS
62
7
10
483.29222808
20
93.4196337254
30
0
0
VERTEX
5
388
8
0
6
CONTINUOUS
62
7
10
481.910048245
20
94.1722332894
30
0
0
VERTEX
5
389
8
0
6
CONTINUOUS
62
7
10
480.404392539
20
94.6433980849
30
0
0
VERTEX
5
38A
8
0
6
CONTINUOUS
62
7
10
478.835230187
20
94.8153451087
30
0
0
VERTEX
5
38B
8
0
6
CONTINUOUS
62
7
10
477.262831063
20
94.6753236474
30
0
0
VERTEX
5
38C
8
0
6
CONTINUOUS
62
7
10
475.748024087
20
94.233364819
30
0
0
VERTEX
5
38D
8
0
6
CONTINUOUS
62
7
10
474.35173511
20
93.5062332208
30
0
0
VERTEX
5
38E
8
0
6
CONTINUOUS
62
7
10
473.127251586
20
92.5185454843
30
0
0
VERTEX
5
38F
8
0
6
CONTINUOUS
62
7
10
472.11324827
20
91.3099380048
30
0
0
VERTEX
5
390
8
0
6
CONTINUOUS
62
7
10
471.346851304
20
89.9228849431
30
0
0
VERTEX
5
391
8
0
6
CONTINUOUS
62
7
10
470.866446854
20
88.4143155246
30
0
0
VERTEX
5
392
8
0
6
CONTINUOUS
62
7
10
470.711284802
20
86.8510676031
30
0
0
VERTEX
5
393
8
0
6
CONTINUOUS
62
7
10
470.908288738
20
85.2995818436
30
0
0
VERTEX
5
394
8
0
6
CONTINUOUS
62
7
10
471.427364724
20
83.8231763231
30
0
0
VERTEX
5
395
8
0
6
CONTINUOUS
62
7
10
472.220764784
20
82.478055605
30
0
0
VERTEX
5
396
8
0
6
CONTINUOUS
62
7
10
473.194533378
20
81.2557636628
30
0
0
SEQEND
5
397
8
0
6
CONTINUOUS
62
7
0
POLYLINE
5
398
8
0
6
CONTINUOUS
62
7
66
1
10
0
20
0
30
0
70
0
0
VERTEX
5
399
8
0
6
CONTINUOUS
62
7
10
478.344373079
20
76.4026093691
30
0
0
VERTEX
5
39A
8
0
6
CONTINUOUS
62
7
10
478.555455259
20
76.258153007
30
0
0
VERTEX
5
39B
8
0
6
CONTINUOUS
62
7
10
478.752147263
20
76.2177887388
30
0
0
SEQEND
5
39C
8
0
6
CONTINUOUS
62
7
0
POLYLINE
5
39D
8
0
6
CONTINUOUS
62
7
66
1
10
0
20
0
30
0
70
0
0
VERTEX
5
39E
8
0
6
CONTINUOUS
62
7
10
468.192118383
20
71.3988173767
30
0
0
VERTEX
5
39F
8
0
6
CONTINUOUS
62
7
10
468.105919786
20
71.2490941992
30
0
0
VERTEX
5
3A0
8
0
6
CONTINUOUS
62
7
10
468.095067371
20
71.0759961818
30
0
0
VERTEX
5
3A1
8
0
6
CONTINUOUS
62
7
10
468.137320908
20
70.9532630582
30
0
0
VERTEX
5
3A2
8
0
6
CONTINUOUS
62
7
10
468.218751765
20
70.8518030036
30
0
0
VERTEX
5
3A3
8
0
6
CONTINUOUS
62
7
10
468.455041432
20
70.7488563011
30
0
0
VERTEX
5
3A4
8
0
6
CONTINUOUS
62
7
10
468.970733826
20
70.6946397851
30
0
0
SEQEND
5
3A5
8
0
6
CONTINUOUS
62
7
0
POLYLINE
5
3A6
8
0
6
CONTINUOUS
62
7
66
1
10
0
20
0
30
0
70
0
0
VERTEX
5
3A7
8
0
6
CONTINUOUS
62
7
10
493.605822556
20
95.3312865117
30
0
0
VERTEX
5
3A8
8
0
6
CONTINUOUS
62
7
10
493.552860811
20
95.8475803341
30
0
0
VERTEX
5
3A9
8
0
6
CONTINUOUS
62
7
10
493.448499392
20
96.0832722126
30
0
0
VERTEX
5
3AA
8
0
6
CONTINUOUS
62
7
10
493.346988192
20
96.1647568979
30
0
0
VERTEX
5
3AB
8
0
6
CONTINUOUS
62
7
10
493.224169677
20
96.2069693712
30
0
0
VERTEX
5
3AC
8
0
6
CONTINUOUS
62
7
10
493.051004678
20
96.1954141393
30
0
0
VERTEX
5
3AD
8
0
6
CONTINUOUS
62
7
10
492.901645964
20
96.1083479576
30
0
0
SEQEND
5
3AE
8
0
6
CONTINUOUS
62
7
0
POLYLINE
5
3AF
8
0
6
CONTINUOUS
62
7
66
1
10
0
20
0
30
0
70
0
0
VERTEX
5
3B0
8
0
6
CONTINUOUS
62
7
10
489.976068815
20
93.1814268114
30
0
0
VERTEX
5
3B1
8
0
6
CONTINUOUS
62
7
10
489.878596665
20
93.0507217262
30
0
0
VERTEX
5
3B2
8
0
6
CONTINUOUS
62
7
10
489.864591038
20
92.9224883293
30
0
0
SEQEND
5
3B3
8
0
6
CONTINUOUS
62
7
0
POLYLINE
5
3B4
8
0
6
CONTINUOUS
62
7
66
1
10
0
20
0
30
0
70
0
0
VERTEX
5
3B5
8
0
6
CONTINUOUS
62
7
10
471.379529009
20
74.4358773026
30
0
0
VERTEX
5
3B6
8
0
6
CONTINUOUS
62
7
10
471.218948416
20
74.4066809697
30
0
0
VERTEX
5
3B7
8
0
6
CONTINUOUS
62
7
10
471.119075529
20
74.3258815226
30
0
0
SEQEND
5
3B8
8
0
6
CONTINUOUS
62
7
0
POLYLINE
5
3B9
8
0
6
CONTINUOUS
62
7
66
1
10
0
20
0
30
0
70
0
0
VERTEX
5
3BA
8
0
6
CONTINUOUS
62
7
10
489.347877072
20
99.6693418356
30
0
0
VERTEX
5
3BB
8
0
6
CONTINUOUS
62
7
10
489.434056561
20
99.8190662444
30
0
0
VERTEX
5
3BC
8
0
6
CONTINUOUS
62
7
10
489.444948908
20
99.9921586159
30
0
0
VERTEX
5
3BD
8
0
6
CONTINUOUS
62
7
10
489.402627484
20
100.114852008
30
0
0
VERTEX
5
3BE
8
0
6
CONTINUOUS
62
7
10
489.321065429
20
100.216199095
30
0
0
VERTEX
5
3BF
8
0
6
CONTINUOUS
62
7
10
489.084990381
20
100.319711788
30
0
0
VERTEX
5
3C0
8
0
6
CONTINUOUS
62
7
10
488.569263629
20
100.373521427
30
0
0
SEQEND
5
3C1
8
0
6
CONTINUOUS
62
7
0
POLYLINE
5
3C2
8
0
6
CONTINUOUS
62
7
66
1
10
0
20
0
30
0
70
0
0
VERTEX
5
3C3
8
0
6
CONTINUOUS
62
7
10
463.934168899
20
75.7369897004
30
0
0
VERTEX
5
3C4
8
0
6
CONTINUOUS
62
7
10
463.988177799
20
75.221032894
30
0
0
VERTEX
5
3C5
8
0
6
CONTINUOUS
62
7
10
464.091675396
20
74.9848904272
30
0
0
VERTEX
5
3C6
8
0
6
CONTINUOUS
62
7
10
464.193146746
20
74.9034038014
30
0
0
VERTEX
5
3C7
8
0
6
CONTINUOUS
62
7
10
464.315964156
20
74.8612445322
30
0
0
VERTEX
5
3C8
8
0
6
CONTINUOUS
62
7
10
464.489102411
20
74.8726307561
30
0
0
VERTEX
5
3C9
8
0
6
CONTINUOUS
62
7
10
464.638349491
20
74.9597852548
30
0
0
SEQEND
5
3CA
8
0
6
CONTINUOUS
62
7
0
POLYLINE
5
3CB
8
0
6
CONTINUOUS
62
7
66
1
10
0
20
0
30
0
70
0
0
VERTEX
5
3CC
8
0
6
CONTINUOUS
62
7
10
486.160465447
20
96.6309179124
30
0
0
VERTEX
5
3CD
8
0
6
CONTINUOUS
62
7
10
486.318421997
20
96.6656214447
30
0
0
VERTEX
5
3CE
8
0
6
CONTINUOUS
62
7
10
486.420921926
20
96.7423956895
30
0
0
SEQEND
5
3CF
8
0
6
CONTINUOUS
62
7
0
LINE
5
3D0
8
0
6
CONTINUOUS
62
7
10
479.196011376
20
76.4026093691
11
484.049447669
21
81.2557636628
0
LINE
5
3D1
8
0
6
CONTINUOUS
62
7
10
473.194533378
20
81.2557636628
11
478.344373079
21
76.4026093691
0
LINE
5
3D2
8
0
6
CONTINUOUS
62
7
10
471.119075529
20
74.3258815226
11
468.192118383
21
71.3988173767
0
LINE
5
3D3
8
0
6
CONTINUOUS
62
7
10
468.970733826
20
70.6946397851
11
486.458245851
21
70.6946397851
0
LINE
5
3D4
8
0
6
CONTINUOUS
62
7
10
493.607233553
20
77.844161486
11
493.605822556
21
95.3312865117
0
LINE
5
3D5
8
0
6
CONTINUOUS
62
7
10
492.901645964
20
96.1083479576
11
489.976068815
21
93.1814268114
0
LINE
5
3D6
8
0
6
CONTINUOUS
62
7
10
489.864591038
20
92.9224883293
11
489.866002036
21
77.844161486
0
LINE
5
3D7
8
0
6
CONTINUOUS
62
7
10
486.458245851
20
74.4358773026
11
471.379529009
21
74.4358773026
0
LINE
5
3D8
8
0
6
CONTINUOUS
62
7
10
486.420921926
20
96.7423956895
11
489.347877072
21
99.6693418356
0
LINE
5
3D9
8
0
6
CONTINUOUS
62
7
10
488.569263629
20
100.373521427
11
471.082138603
21
100.373521427
0
LINE
5
3DA
8
0
6
CONTINUOUS
62
7
10
463.932757902
20
93.2227727288
11
463.934168899
21
75.7369897004
0
LINE
5
3DB
8
0
6
CONTINUOUS
62
7
10
464.638349491
20
74.9597852548
11
467.565269637
21
77.8867434009
0
LINE
5
3DC
8
0
6
CONTINUOUS
62
7
10
467.675373417
20
78.145680883
11
467.674244419
21
93.2227727287
0
LINE
5
3DD
8
0
6
CONTINUOUS
62
7
10
471.082138603
20
96.6309179124
11
486.160465447
21
96.6309179124
0
ARC
5
3DE
8
0
6
CONTINUOUS
62
7
10
527.502147263
20
181.801006138
40
64.4140625
50
225.38758989
51
270
0
ARC
5
3DF
8
0
6
CONTINUOUS
62
7
10
527.502147263
20
112.386943638
40
5
50
328.898064074
51
90
0
ARC
5
3E0
8
0
6
CONTINUOUS
62
7
10
478.752147263
20
37.3869436379
40
8
50
212.516079562
51
328.898064074
0
ARC
5
3E1
8
0
6
CONTINUOUS
62
7
10
430.002147263
20
112.386943638
40
5
50
90
51
211.103494049
0
ARC
5
3E2
8
0
6
CONTINUOUS
62
7
10
430.002147263
20
181.801006138
40
64.4140625
50
270
51
314.61241011
0
ARC
5
3E3
8
0
6
CONTINUOUS
62
7
10
478.752147263
20
132.386943638
40
5
50
45.3875898902
51
134.61241011
0
ARC
5
3E4
8
0
6
CONTINUOUS
62
7
10
486.291070915
20
78.0107899572
40
7.31805990685
50
271.308987862
51
358.695291729
0
ARC
5
3E5
8
0
6
CONTINUOUS
62
7
10
486.375027993
20
77.9268384944
40
3.49195292843
50
271.365563507
51
358.643313232
0
ARC
5
3E6
8
0
6
CONTINUOUS
62
7
10
471.249228714
20
93.0570824505
40
7.3183466989
50
91.3082722739
51
178.70268993
0
ARC
5
3E7
8
0
6
CONTINUOUS
62
7
10
467.415612877
20
78.1032570763
40
0.263202046899
50
304.652677269
51
9.2755929496
0
ARC
5
3E8
8
0
6
CONTINUOUS
62
7
10
471.163909917
20
93.1412584279
40
3.49061740467
50
91.34233553
51
178.661884286
0
CIRCLE
5
3E9
8
0
6
CONTINUOUS
62
7
10
538.633392471
20
105.671634253
40
1.6
0
CIRCLE
5
3EA
8
0
6
CONTINUOUS
62
7
10
489.883392471
20
30.6716342532
40
2.1
0
CIRCLE
5
3EB
8
0
6
CONTINUOUS
62
7
10
538.633392471
20
10.6716342532
40
2.1
0
CIRCLE
5
3EC
8
0
6
CONTINUOUS
62
7
10
587.383392471
20
30.6716342532
40
2.1
0
POLYLINE
5
3ED
8
0
6
CONTINUOUS
62
7
66
1
10
0
20
0
30
0
70
0
0
VERTEX
5
3EE
8
0
6
CONTINUOUS
62
7
10
538.633392471
20
66.8407891523
30
0
0
VERTEX
5
3EF
8
0
6
CONTINUOUS
62
7
10
538.366985781
20
66.7783919348
30
0
0
VERTEX
5
3F0
8
0
6
CONTINUOUS
62
7
10
538.189528358
20
66.655968522
30
0
0
SEQEND
5
3F1
8
0
6
CONTINUOUS
62
7
0
POLYLINE
5
3F2
8
0
6
CONTINUOUS
62
7
66
1
10
0
20
0
30
0
70
0
0
VERTEX
5
3F3
8
0
6
CONTINUOUS
62
7
10
533.336092065
20
61.8028142283
30
0
0
VERTEX
5
3F4
8
0
6
CONTINUOUS
62
7
10
532.566084572
20
60.9206092396
30
0
0
VERTEX
5
3F5
8
0
6
CONTINUOUS
62
7
10
531.856212407
20
59.9867583465
30
0
0
VERTEX
5
3F6
8
0
6
CONTINUOUS
62
7
10
531.248524711
20
58.9817348803
30
0
0
VERTEX
5
3F7
8
0
6
CONTINUOUS
62
7
10
530.812031558
20
57.8946419053
30
0
0
VERTEX
5
3F8
8
0
6
CONTINUOUS
62
7
10
530.559179386
20
56.3485329172
30
0
0
VERTEX
5
3F9
8
0
6
CONTINUOUS
62
7
10
530.680603442
20
54.7817465657
30
0
0
VERTEX
5
3FA
8
0
6
CONTINUOUS
62
7
10
531.139100751
20
53.2672340444
30
0
0
VERTEX
5
3FB
8
0
6
CONTINUOUS
62
7
10
531.888304246
20
51.869877172
30
0
0
VERTEX
5
3FC
8
0
6
CONTINUOUS
62
7
10
532.885247439
20
50.6465094084
30
0
0
VERTEX
5
3FD
8
0
6
CONTINUOUS
62
7
10
534.093311654
20
49.6389441657
30
0
0
VERTEX
5
3FE
8
0
6
CONTINUOUS
62
7
10
535.475491489
20
48.8863446017
30
0
0
VERTEX
5
3FF
8
0
6
CONTINUOUS
62
7
10
536.981147195
20
48.4151798062
30
0
0
VERTEX
5
400
8
0
6
CONTINUOUS
62
7
10
538.550309547
20
48.2432327824
30
0
0
VERTEX
5
401
8
0
6
CONTINUOUS
62
7
10
540.122708671
20
48.3832542437
30
0
0
VERTEX
5
402
8
0
6
CONTINUOUS
62
7
10
541.637515647
20
48.8252130721
30
0
0
VERTEX
5
403
8
0
6
CONTINUOUS
62
7
10
543.033804623
20
49.5523446703
30
0
0
VERTEX
5
404
8
0
6
CONTINUOUS
62
7
10
544.258288148
20
50.5400324068
30
0
0
VERTEX
5
405
8
0
6
CONTINUOUS
62
7
10
545.272291464
20
51.7486398863
30
0
0
VERTEX
5
406
8
0
6
CONTINUOUS
62
7
10
546.03868843
20
53.135692948
30
0
0
VERTEX
5
407
8
0
6
CONTINUOUS
62
7
10
546.51909288
20
54.6442623665
30
0
0
VERTEX
5
408
8
0
6
CONTINUOUS
62
7
10
546.674254932
20
56.207510288
30
0
0
VERTEX
5
409
8
0
6
CONTINUOUS
62
7
10
546.477250996
20
57.7589960475
30
0
0
VERTEX
5
40A
8
0
6
CONTINUOUS
62
7
10
545.95817501
20
59.235401568
30
0
0
VERTEX
5
40B
8
0
6
CONTINUOUS
62
7
10
545.16477495
20
60.5805222861
30
0
0
VERTEX
5
40C
8
0
6
CONTINUOUS
62
7
10
544.191006355
20
61.8028142283
30
0
0
SEQEND
5
40D
8
0
6
CONTINUOUS
62
7
0
POLYLINE
5
40E
8
0
6
CONTINUOUS
62
7
66
1
10
0
20
0
30
0
70
0
0
VERTEX
5
40F
8
0
6
CONTINUOUS
62
7
10
539.041166655
20
66.655968522
30
0
0
VERTEX
5
410
8
0
6
CONTINUOUS
62
7
10
538.830084475
20
66.8004248841
30
0
0
VERTEX
5
411
8
0
6
CONTINUOUS
62
7
10
538.633392471
20
66.8407891523
30
0
0
SEQEND
5
412
8
0
6
CONTINUOUS
62
7
0
POLYLINE
5
413
8
0
6
CONTINUOUS
62
7
66
1
10
0
20
0
30
0
70
0
0
VERTEX
5
414
8
0
6
CONTINUOUS
62
7
10
549.193421351
20
71.6597605144
30
0
0
VERTEX
5
415
8
0
6
CONTINUOUS
62
7
10
549.279619948
20
71.8094836919
30
0
0
VERTEX
5
416
8
0
6
CONTINUOUS
62
7
10
549.290472363
20
71.9825817093
30
0
0
VERTEX
5
417
8
0
6
CONTINUOUS
62
7
10
549.248218826
20
72.1053148329
30
0
0
VERTEX
5
418
8
0
6
CONTINUOUS
62
7
10
549.166787969
20
72.2067748875
30
0
0
VERTEX
5
419
8
0
6
CONTINUOUS
62
7
10
548.930498302
20
72.30972159
30
0
0
VERTEX
5
41A
8
0
6
CONTINUOUS
62
7
10
548.414805908
20
72.363938106
30
0
0
SEQEND
5
41B
8
0
6
CONTINUOUS
62
7
0
POLYLINE
5
41C
8
0
6
CONTINUOUS
62
7
66
1
10
0
20
0
30
0
70
0
0
VERTEX
5
41D
8
0
6
CONTINUOUS
62
7
10
523.779717178
20
47.7272913794
30
0
0
VERTEX
5
41E
8
0
6
CONTINUOUS
62
7
10
523.832678923
20
47.210997557
30
0
0
VERTEX
5
41F
8
0
6
CONTINUOUS
62
7
10
523.937040342
20
46.9753056785
30
0
0
VERTEX
5
420
8
0
6
CONTINUOUS
62
7
10
524.038551542
20
46.8938209932
30
0
0
VERTEX
5
421
8
0
6
CONTINUOUS
62
7
10
524.161370057
20
46.8516085199
30
0
0
VERTEX
5
422
8
0
6
CONTINUOUS
62
7
10
524.334535056
20
46.8631637518
30
0
0
VERTEX
5
423
8
0
6
CONTINUOUS
62
7
10
524.48389377
20
46.9502299335
30
0
0
SEQEND
5
424
8
0
6
CONTINUOUS
62
7
0
POLYLINE
5
425
8
0
6
CONTINUOUS
62
7
66
1
10
0
20
0
30
0
70
0
0
VERTEX
5
426
8
0
6
CONTINUOUS
62
7
10
527.409470919
20
49.8771510797
30
0
0
VERTEX
5
427
8
0
6
CONTINUOUS
62
7
10
527.506943069
20
50.0078561649
30
0
0
VERTEX
5
428
8
0
6
CONTINUOUS
62
7
10
527.520948696
20
50.1360895618
30
0
0
SEQEND
5
429
8
0
6
CONTINUOUS
62
7
0
POLYLINE
5
42A
8
0
6
CONTINUOUS
62
7
66
1
10
0
20
0
30
0
70
0
0
VERTEX
5
42B
8
0
6
CONTINUOUS
62
7
10
546.006010725
20
68.6227005885
30
0
0
VERTEX
5
42C
8
0
6
CONTINUOUS
62
7
10
546.166591318
20
68.6518969214
30
0
0
VERTEX
5
42D
8
0
6
CONTINUOUS
62
7
10
546.266464204
20
68.7326963685
30
0
0
SEQEND
5
42E
8
0
6
CONTINUOUS
62
7
0
POLYLINE
5
42F
8
0
6
CONTINUOUS
62
7
66
1
10
0
20
0
30
0
70
0
0
VERTEX
5
430
8
0
6
CONTINUOUS
62
7
10
528.037662662
20
43.3892360555
30
0
0
VERTEX
5
431
8
0
6
CONTINUOUS
62
7
10
527.951483172
20
43.2395116467
30
0
0
VERTEX
5
432
8
0
6
CONTINUOUS
62
7
10
527.940590826
20
43.0664192752
30
0
0
VERTEX
5
433
8
0
6
CONTINUOUS
62
7
10
527.98291225
20
42.943725883
30
0
0
VERTEX
5
434
8
0
6
CONTINUOUS
62
7
10
528.064474305
20
42.8423787964
30
0
0
VERTEX
5
435
8
0
6
CONTINUOUS
62
7
10
528.300549353
20
42.7388661029
30
0
0
VERTEX
5
436
8
0
6
CONTINUOUS
62
7
10
528.816276105
20
42.6850564639
30
0
0
SEQEND
5
437
8
0
6
CONTINUOUS
62
7
0
POLYLINE
5
438
8
0
6
CONTINUOUS
62
7
66
1
10
0
20
0
30
0
70
0
0
VERTEX
5
439
8
0
6
CONTINUOUS
62
7
10
553.451370835
20
67.3215881907
30
0
0
VERTEX
5
43A
8
0
6
CONTINUOUS
62
7
10
553.397361935
20
67.8375449971
30
0
0
VERTEX
5
43B
8
0
6
CONTINUOUS
62
7
10
553.293864337
20
68.0736874639
30
0
0
VERTEX
5
43C
8
0
6
CONTINUOUS
62
7
10
553.192392988
20
68.1551740897
30
0
0
VERTEX
5
43D
8
0
6
CONTINUOUS
62
7
10
553.069575578
20
68.1973333589
30
0
0
VERTEX
5
43E
8
0
6
CONTINUOUS
62
7
10
552.896437322
20
68.185947135
30
0
0
VERTEX
5
43F
8
0
6
CONTINUOUS
62
7
10
552.747190243
20
68.0987926363
30
0
0
SEQEND
5
440
8
0
6
CONTINUOUS
62
7
0
POLYLINE
5
441
8
0
6
CONTINUOUS
62
7
66
1
10
0
20
0
30
0
70
0
0
VERTEX
5
442
8
0
6
CONTINUOUS
62
7
10
531.225074287
20
46.4276599787
30
0
0
VERTEX
5
443
8
0
6
CONTINUOUS
62
7
10
531.067117737
20
46.3929564464
30
0
0
VERTEX
5
444
8
0
6
CONTINUOUS
62
7
10
530.964617808
20
46.3161822016
30
0
0
SEQEND
5
445
8
0
6
CONTINUOUS
62
7
0
LINE
5
446
8
0
6
CONTINUOUS
62
7
10
531.78339542
20
109.804132336
11
485.602144314
21
33.254445555
0
LINE
5
447
8
0
6
CONTINUOUS
62
7
10
538.189528358
20
66.655968522
11
533.336092065
21
61.8028142283
0
LINE
5
448
8
0
6
CONTINUOUS
62
7
10
544.191006355
20
61.8028142283
11
539.041166655
21
66.655968522
0
LINE
5
449
8
0
6
CONTINUOUS
62
7
10
546.266464204
20
68.7326963685
11
549.193421351
21
71.6597605144
0
LINE
5
44A
8
0
6
CONTINUOUS
62
7
10
548.414805908
20
72.363938106
11
530.927293883
21
72.363938106
0
LINE
5
44B
8
0
6
CONTINUOUS
62
7
10
523.778306181
20
65.2144164051
11
523.779717178
21
47.7272913794
0
LINE
5
44C
8
0
6
CONTINUOUS
62
7
10
524.48389377
20
46.9502299335
11
527.409470919
21
49.8771510797
0
LINE
5
44D
8
0
6
CONTINUOUS
62
7
10
527.520948696
20
50.1360895618
11
527.519537698
21
65.2144164051
0
LINE
5
44E
8
0
6
CONTINUOUS
62
7
10
530.927293883
20
68.6227005885
11
546.006010725
21
68.6227005885
0
LINE
5
44F
8
0
6
CONTINUOUS
62
7
10
530.964617808
20
46.3161822016
11
528.037662662
21
43.3892360555
0
LINE
5
450
8
0
6
CONTINUOUS
62
7
10
528.816276105
20
42.6850564639
11
546.303401131
21
42.6850564639
0
LINE
5
451
8
0
6
CONTINUOUS
62
7
10
553.452781832
20
49.8358051623
11
553.451370835
21
67.3215881907
0
LINE
5
452
8
0
6
CONTINUOUS
62
7
10
552.747190243
20
68.0987926363
11
549.820270097
21
65.1718344902
0
LINE
5
453
8
0
6
CONTINUOUS
62
7
10
549.710166317
20
64.9128970081
11
549.711295315
21
49.8358051624
0
LINE
5
454
8
0
6
CONTINUOUS
62
7
10
546.303401131
20
46.4276599787
11
531.225074287
21
46.4276599787
0
ARC
5
455
8
0
6
CONTINUOUS
62
7
10
489.883392471
20
-38.7424282468
40
64.4140625
50
45.3875898902
51
90
0
ARC
5
456
8
0
6
CONTINUOUS
62
7
10
489.883392471
20
30.6716342532
40
5
50
148.898064074
51
270
0
ARC
5
457
8
0
6
CONTINUOUS
62
7
10
538.633392471
20
105.671634253
40
8
50
32.5160795624
51
148.898064074
0
ARC
5
458
8
0
6
CONTINUOUS
62
7
10
587.383392471
20
30.6716342532
40
5
50
270
51
31.1034940488
0
ARC
5
459
8
0
6
CONTINUOUS
62
7
10
587.383392471
20
-38.7424282468
40
64.4140625
50
90
51
134.61241011
0
ARC
5
45A
8
0
6
CONTINUOUS
62
7
10
538.633392471
20
10.6716342532
40
5
50
225.38758989
51
314.61241011
0
ARC
5
45B
8
0
6
CONTINUOUS
62
7
10
531.094468819
20
65.0477879339
40
7.31805990685
50
91.3089878616
51
178.695291729
0
ARC
5
45C
8
0
6
CONTINUOUS
62
7
10
531.010511741
20
65.1317393967
40
3.49195292843
50
91.3655635074
51
178.643313232
0
ARC
5
45D
8
0
6
CONTINUOUS
62
7
10
546.13631102
20
50.0014954406
40
7.3183466989
50
271.308272274
51
358.70268993
0
ARC
5
45E
8
0
6
CONTINUOUS
62
7
10
549.969926857
20
64.9553208148
40
0.263202046899
50
124.652677269
51
189.27559295
0
ARC
5
45F
8
0
6
CONTINUOUS
62
7
10
546.221629817
20
49.9173194632
40
3.49061740467
50
271.34233553
51
358.661884286
0
LINE
5
460
8
0
6
BYLAYER
62
256
10
545.379317464
20
109.971924474
11
591.664570388
21
33.2545619799
0
ENDSEC
0
EOF
