999
dxflib 2.2.0.0
  0
SECTION
  2
HEADER
  9
$ACADVER
  1
AC1015
  9
$HANDSEED
  5
FFFF
  9
$DIMLIM
 70
0
  9
$DIMLUNIT
 70
2
  9
$DIMTIX
 70
0
  9
$AUNITS
 70
0
  9
$QTEXTMODE
 70
0
  9
$USERR1
 40
0.0
  9
$DIMALTU
 70
2
  9
$UCSORGBOTTOM
 10
0.0
 20
0.0
 30
0.0
  9
$USERR2
 40
0.0
  9
$USERR3
 40
0.0
  9
$USERR4
 40
0.0
  9
$LIMMAX
 10
420.0
 20
297.0
  9
$USERR5
 40
0.0
  9
$PELEVATION
 40
0.0
  9
$DIMALTZ
 70
0
  9
$DIMADEC
 70
2
  9
$JOINSTYLE
280
0
  9
$DIMATFIT
 70
3
  9
$TILEMODE
 70
1
  9
$PEXTMIN
 10
100000000000000000000.0
 20
100000000000000000000.0
 30
100000000000000000000.0
  9
$TDUSRTIMER
 40
0.0000000116
  9
$DWGCODEPAGE
  3
ANSI_1252
  9
$UCSORTHOVIEW
 70
0
  9
$DIMSOXD
 70
0
  9
$DIMTZIN
 70
0
  9
$SPLINETYPE
 70
6
  9
$DIMLFAC
 40
1.0
  9
$DIMSE1
 70
0
  9
$FILLETRAD
 40
10.0
  9
$DIMSE2
 70
0
  9
$PSTYLEMODE
290
1
  9
$TEXTSTYLE
  7
Standard
  9
$DIMTSZ
 40
0.0
  9
$PUCSXDIR
 10
1.0
 20
0.0
 30
0.0
  9
$DIMTXSTY
  7
Standard
  9
$PLIMMAX
 10
420.0
 20
297.0
  9
$DIMTM
 40
0.0
  9
$UCSORG
 10
0.0
 20
0.0
 30
0.0
  9
$DIMTP
 40
0.0
  9
$PSLTSCALE
 70
1
  9
$ANGBASE
 50
0.0
  9
$PUCSYDIR
 10
0.0
 20
1.0
 30
0.0
  9
$EXTNAMES
290
1
  9
$DIMASZ
 40
3.302
  9
$PUCSORTHOVIEW
 70
0
  9
$INSBASE
 10
0.0
 20
0.0
 30
0.0
  9
$UNITMODE
 70
0
  9
$MEASUREMENT
 70
1
  9
$EXTMAX
 10
166.5
 20
21.0
 30
0.0
  9
$ELEVATION
 40
0.0
  9
$TDCREATE
 40
2456607.9574485421180725
  9
$DIMDEC
 70
2
  9
$CELTYPE
  6
ByLayer
  9
$MENU
  1
.
  9
$ANGDIR
 70
0
  9
$DIMALTTD
 70
3
  9
$TREEDEPTH
 70
3020
  9
$LTSCALE
 40
1.0
  9
$PROXYGRAPHICS
 70
1
  9
$DIMTMOVE
 70
0
  9
$DIMAZIN
 70
0
  9
$TDUPDATE
 40
2456607.9574764929711819
  9
$DIMTOLJ
 70
0
  9
$DIMCEN
 40
2.5
  9
$DIMTVP
 40
0.0
  9
$TRACEWID
 40
1.0
  9
$CMLSTYLE
  2
Standard
  9
$DISPSILH
 70
0
  9
$DIMSTYLE
  2
ISO-25
  9
$SKETCHINC
 40
1.0
  9
$FILLMODE
 70
1
  9
$PLINEGEN
 70
0
  9
$DIMLWD
 70
-2
  9
$THICKNESS
 40
0.0
  9
$DIMLWE
 70
-2
  9
$CELTSCALE
 40
1.0
  9
$PUCSORG
 10
0.0
 20
0.0
 30
0.0
  9
$DIMALTTZ
 70
0
  9
$INSUNITS
 70
4
  9
$UCSORGBACK
 10
0.0
 20
0.0
 30
0.0
  9
$PLINEWID
 40
0.0
  9
$PEXTMAX
 10
-100000000000000000000.0
 20
-100000000000000000000.0
 30
-100000000000000000000.0
  9
$DIMJUST
 70
0
  9
$UCSYDIR
 10
0.0
 20
1.0
 30
0.0
  9
$PUCSORGBACK
 10
0.0
 20
0.0
 30
0.0
  9
$PDSIZE
 40
-1.0
  9
$PUCSORGBOTTOM
 10
0.0
 20
0.0
 30
0.0
  9
$DIMUPT
 70
0
  9
$DIMTAD
 70
1
  9
$UCSXDIR
 10
1.0
 20
0.0
 30
0.0
  9
$MAXACTVP
 70
64
  9
$DIMSAH
 70
0
  9
$TDUCREATE
 40
2456607.9574485421180725
  9
$DIMFRAC
 70
0
  9
$USERI1
 70
0
  9
$USERI2
 70
0
  9
$UCSORGRIGHT
 10
0.0
 20
0.0
 30
0.0
  9
$USERI3
 70
0
  9
$CELWEIGHT
370
-1
  9
$LWDISPLAY
290
1
  9
$SKPOLY
 70
0
  9
$USERI4
 70
0
  9
$USERI5
 70
0
  9
$UCSORGTOP
 10
0.0
 20
0.0
 30
0.0
  9
$LIMMIN
 10
0.0
 20
0.0
  9
$ACADMAINTVER
 70
6
  9
$MIRRTEXT
 70
1
  9
$TDUUPDATE
 40
2456607.9574764929711819
  9
$TEXTSIZE
 40
3.5
  9
$DIMGAP
 40
1.524
  9
$LUPREC
 70
2
  9
$CECOLOR
 62
256
  9
$DIMSD1
 70
0
  9
$DIMSD2
 70
0
  9
$WORLDVIEW
 70
1
  9
$PUCSORGRIGHT
 10
0.0
 20
0.0
 30
0.0
  9
$PLIMCHECK
 70
0
  9
$DIMTFAC
 40
1.0
  9
$CMLJUST
 70
0
  9
$USRTIMER
 70
1
  9
$SURFU
 70
6
  9
$SURFV
 70
6
  9
$DIMASO
 70
1
  9
$DIMDLE
 40
0.0
  9
$EXTMIN
 10
4.5
 20
-22.0
 30
0.0
  9
$UCSORGLEFT
 10
0.0
 20
0.0
 30
0.0
  9
$OLESTARTUP
290
0
  9
$PUCSORGFRONT
 10
0.0
 20
0.0
 30
0.0
  9
$DIMDLI
 40
3.75
  9
$LUNITS
 70
2
  9
$DIMCLRD
 70
0
  9
$SHADEDIF
 70
70
  9
$DIMCLRE
 70
0
  9
$SPLINESEGS
 70
8
  9
$PUCSORGLEFT
 10
0.0
 20
0.0
 30
0.0
  9
$DIMALTRND
 40
0.0
  9
$DIMRND
 40
0.0
  9
$DIMALT
 70
0
  9
$FINGERPRINTGUID
  2
{E074C5B2-F685-4C56-AAED-D738214D0488}
  9
$DIMCLRT
 70
0
  9
$PUCSORGTOP
 10
0.0
 20
0.0
 30
0.0
  9
$DIMTOH
 70
1
  9
$UCSORGFRONT
 10
0.0
 20
0.0
 30
0.0
  9
$VISRETAIN
 70
1
  9
$SHADEDGE
 70
3
  9
$DIMTOL
 70
0
  9
$SURFTYPE
 70
6
  9
$VERSIONGUID
  2
{FAEB1C32-E019-11D5-929B-00C0DF256EC4}
  9
$CHAMFERA
 40
10.0
  9
$SURFTAB1
 70
6
  9
$CHAMFERB
 40
10.0
  9
$SURFTAB2
 70
6
  9
$CHAMFERC
 40
20.0
  9
$AUPREC
 70
2
  9
$CHAMFERD
 40
0.0
  9
$DIMTDEC
 70
2
  9
$PDMODE
 70
0
  9
$SPLFRAME
 70
0
  9
$PLIMMIN
 10
0.0
 20
0.0
  9
$XEDIT
290
1
  9
$DIMDSEP
 70
44
  9
$LIMCHECK
 70
0
  9
$PINSBASE
 10
0.0
 20
0.0
 30
0.0
  9
$ORTHOMODE
 70
0
  9
$PSVPSCALE
 40
0.0
  9
$CLAYER
  8
0
  9
$DIMSHO
 70
1
  9
$DIMTOFL
 70
1
  9
$DIMTXT
 40
3.5
  9
$DIMEXE
 40
1.0
  9
$TDINDWG
 40
0.0000000116
  9
$REGENMODE
 70
1
  9
$ATTMODE
 70
1
  9
$CMLSCALE
 40
20.0
  9
$DIMTIH
 70
1
  9
$DIMZIN
 70
0
  9
$CEPSNTYPE
380
0
  9
$DIMSCALE
 40
1.0
  9
$DIMALTD
 70
3
  9
$DIMAUNIT
 70
0
  9
$DIMALTF
 40
0.0393700787
  9
$DIMEXO
 40
1.0
  9
$ENDCAPS
280
0
  0
ENDSEC
  0
SECTION
  2
TABLES
  0
TABLE
  2
VPORT
  5
8
100
AcDbSymbolTable
 70
1
  0
VPORT
  5
30
100
AcDbSymbolTableRecord
100
AcDbViewportTableRecord
  2
*Active
 70
0
 10
0.0
 20
0.0
 11
1.0
 21
1.0
 12
286.3055555555554861
 22
148.5
 13
0.0
 23
0.0
 14
10.0
 24
10.0
 15
10.0
 25
10.0
 16
0.0
 26
0.0
 36
1.0
 17
0.0
 27
0.0
 37
0.0
 40
297.0
 41
1.92798353909465
 42
50.0
 43
0.0
 44
0.0
 50
0.0
 51
0.0
 71
0
 72
100
 73
1
 74
3
 75
1
 76
1
 77
0
 78
0
281
0
 65
1
110
0.0
120
0.0
130
0.0
111
1.0
121
0.0
131
0.0
112
0.0
122
1.0
132
0.0
 79
0
146
0.0
  0
ENDTAB
  0
TABLE
  2
LTYPE
  5
5
100
AcDbSymbolTable
 70
21
  0
LTYPE
  5
14
100
AcDbSymbolTableRecord
100
AcDbLinetypeTableRecord
  2
ByBlock
 70
0
  3

 72
65
 73
0
 40
0.0
  0
LTYPE
  5
15
100
AcDbSymbolTableRecord
100
AcDbLinetypeTableRecord
  2
ByLayer
 70
0
  3

 72
65
 73
0
 40
0.0
  0
LTYPE
  5
16
100
AcDbSymbolTableRecord
100
AcDbLinetypeTableRecord
  2
CONTINUOUS
 70
0
  3
Solid line
 72
65
 73
0
 40
0.0
  0
LTYPE
  5
31
100
AcDbSymbolTableRecord
100
AcDbLinetypeTableRecord
  2
DOT
 70
0
  3
Dot . . . . . . . . . . . . . . . . . . . . . .
 72
65
 73
2
 40
6.3499999999999996
 49
0.0
 74
0
 49
-6.3499999999999996
 74
0
  0
LTYPE
  5
32
100
AcDbSymbolTableRecord
100
AcDbLinetypeTableRecord
  2
DOT2
 70
0
  3
Dot (.5x) .....................................
 72
65
 73
2
 40
3.1749999999999998
 49
0.0
 74
0
 49
-3.1749999999999998
 74
0
  0
LTYPE
  5
33
100
AcDbSymbolTableRecord
100
AcDbLinetypeTableRecord
  2
DOTX2
 70
0
  3
Dot (2x) .  .  .  .  .  .  .  .  .  .  .  .  .
 72
65
 73
2
 40
12.6999999999999993
 49
0.0
 74
0
 49
-12.6999999999999993
 74
0
  0
LTYPE
  5
34
100
AcDbSymbolTableRecord
100
AcDbLinetypeTableRecord
  2
DASHED
 70
0
  3
Dashed __ __ __ __ __ __ __ __ __ __ __ __ __ _
 72
65
 73
2
 40
19.0500000000000007
 49
12.6999999999999993
 74
0
 49
-6.3499999999999996
 74
0
  0
LTYPE
  5
35
100
AcDbSymbolTableRecord
100
AcDbLinetypeTableRecord
  2
DASHED2
 70
0
  3
Dashed (.5x) _ _ _ _ _ _ _ _ _ _ _ _ _ _ _ _ _
 72
65
 73
2
 40
9.5250000000000004
 49
6.3499999999999996
 74
0
 49
-3.1749999999999998
 74
0
  0
LTYPE
  5
36
100
AcDbSymbolTableRecord
100
AcDbLinetypeTableRecord
  2
DASHEDX2
 70
0
  3
Dashed (2x) ____  ____  ____  ____  ____  ___
 72
65
 73
2
 40
38.1000000000000014
 49
25.3999999999999986
 74
0
 49
-12.6999999999999993
 74
0
  0
LTYPE
  5
37
100
AcDbSymbolTableRecord
100
AcDbLinetypeTableRecord
  2
DASHDOT
 70
0
  3
Dash dot __ . __ . __ . __ . __ . __ . __ . __
 72
65
 73
4
 40
25.3999999999999986
 49
12.6999999999999993
 74
0
 49
-6.3499999999999996
 74
0
 49
0.0
 74
0
 49
-6.3499999999999996
 74
0
  0
LTYPE
  5
38
100
AcDbSymbolTableRecord
100
AcDbLinetypeTableRecord
  2
DASHDOT2
 70
0
  3
Dash dot (.5x) _._._._._._._._._._._._._._._.
 72
65
 73
4
 40
12.6999999999999993
 49
6.3499999999999996
 74
0
 49
-3.1749999999999998
 74
0
 49
0.0
 74
0
 49
-3.1749999999999998
 74
0
  0
LTYPE
  5
39
100
AcDbSymbolTableRecord
100
AcDbLinetypeTableRecord
  2
DASHDOTX2
 70
0
  3
Dash dot (2x) ____  .  ____  .  ____  .  ___
 72
65
 73
4
 40
50.7999999999999972
 49
25.3999999999999986
 74
0
 49
-12.6999999999999993
 74
0
 49
0.0
 74
0
 49
-12.6999999999999993
 74
0
  0
LTYPE
  5
3A
100
AcDbSymbolTableRecord
100
AcDbLinetypeTableRecord
  2
DIVIDE
 70
0
  3
Divide ____ . . ____ . . ____ . . ____ . . ____
 72
65
 73
6
 40
31.75
 49
12.6999999999999993
 74
0
 49
-6.3499999999999996
 74
0
 49
0.0
 74
0
 49
-6.3499999999999996
 74
0
 49
0.0
 74
0
 49
-6.3499999999999996
 74
0
  0
LTYPE
  5
3B
100
AcDbSymbolTableRecord
100
AcDbLinetypeTableRecord
  2
DIVIDE2
 70
0
  3
Divide (.5x) __..__..__..__..__..__..__..__.._
 72
65
 73
6
 40
15.875
 49
6.3499999999999996
 74
0
 49
-3.1749999999999998
 74
0
 49
0.0
 74
0
 49
-3.1749999999999998
 74
0
 49
0.0
 74
0
 49
-3.1749999999999998
 74
0
  0
LTYPE
  5
3C
100
AcDbSymbolTableRecord
100
AcDbLinetypeTableRecord
  2
DIVIDEX2
 70
0
  3
Divide (2x) ________  .  .  ________  .  .  _
 72
65
 73
6
 40
63.5
 49
25.3999999999999986
 74
0
 49
-12.6999999999999993
 74
0
 49
0.0
 74
0
 49
-12.6999999999999993
 74
0
 49
0.0
 74
0
 49
-12.6999999999999993
 74
0
  0
LTYPE
  5
3D
100
AcDbSymbolTableRecord
100
AcDbLinetypeTableRecord
  2
CENTER
 70
0
  3
Center ____ _ ____ _ ____ _ ____ _ ____ _ ____
 72
65
 73
4
 40
50.7999999999999972
 49
31.75
 74
0
 49
-6.3499999999999996
 74
0
 49
6.3499999999999996
 74
0
 49
-6.3499999999999996
 74
0
  0
LTYPE
  5
3E
100
AcDbSymbolTableRecord
100
AcDbLinetypeTableRecord
  2
CENTER2
 70
0
  3
Center (.5x) ___ _ ___ _ ___ _ ___ _ ___ _ ___
 72
65
 73
4
 40
28.5749999999999993
 49
19.0500000000000007
 74
0
 49
-3.1749999999999998
 74
0
 49
3.1749999999999998
 74
0
 49
-3.1749999999999998
 74
0
  0
LTYPE
  5
3F
100
AcDbSymbolTableRecord
100
AcDbLinetypeTableRecord
  2
CENTERX2
 70
0
  3
Center (2x) ________  __  ________  __  _____
 72
65
 73
4
 40
101.5999999999999943
 49
63.5
 74
0
 49
-12.6999999999999993
 74
0
 49
12.6999999999999993
 74
0
 49
-12.6999999999999993
 74
0
  0
LTYPE
  5
40
100
AcDbSymbolTableRecord
100
AcDbLinetypeTableRecord
  2
BORDER
 70
0
  3
Border __ __ . __ __ . __ __ . __ __ . __ __ .
 72
65
 73
6
 40
44.4500000000000028
 49
12.6999999999999993
 74
0
 49
-6.3499999999999996
 74
0
 49
12.6999999999999993
 74
0
 49
-6.3499999999999996
 74
0
 49
0.0
 74
0
 49
-6.3499999999999996
 74
0
  0
LTYPE
  5
41
100
AcDbSymbolTableRecord
100
AcDbLinetypeTableRecord
  2
BORDER2
 70
0
  3
Border (.5x) __.__.__.__.__.__.__.__.__.__.__.
 72
65
 73
6
 40
22.2250000000000014
 49
6.3499999999999996
 74
0
 49
-3.1749999999999998
 74
0
 49
6.3499999999999996
 74
0
 49
-3.1749999999999998
 74
0
 49
0.0
 74
0
 49
-3.1749999999999998
 74
0
  0
LTYPE
  5
42
100
AcDbSymbolTableRecord
100
AcDbLinetypeTableRecord
  2
BORDERX2
 70
0
  3
Border (2x) ____  ____  .  ____  ____  .  ___
 72
65
 73
6
 40
88.9000000000000057
 49
25.3999999999999986
 74
0
 49
-12.6999999999999993
 74
0
 49
25.3999999999999986
 74
0
 49
-12.6999999999999993
 74
0
 49
0.0
 74
0
 49
-12.6999999999999993
 74
0
  0
ENDTAB
  0
TABLE
  2
LAYER
  5
2
100
AcDbSymbolTable
 70
1
  0
LAYER
  5
10
100
AcDbSymbolTableRecord
100
AcDbLayerTableRecord
  2
0
 70
0
 62
7
  6
CONTINUOUS
370
-3
390
F
  0
ENDTAB
  0
TABLE
  2
STYLE
  5
3
100
AcDbSymbolTable
 70
1
  0
STYLE
  5
11
100
AcDbSymbolTableRecord
100
AcDbTextStyleTableRecord
  2
Standard
 70
0
 40
0.0
 41
0.75
 50
0.0
 71
0
 42
2.5
  3
txt
  4

  0
ENDTAB
  0
TABLE
  2
VIEW
  5
6
100
AcDbSymbolTable
 70
0
  0
ENDTAB
  0
TABLE
  2
UCS
  5
7
100
AcDbSymbolTable
 70
0
  0
ENDTAB
  0
TABLE
  2
APPID
  5
9
100
AcDbSymbolTable
 70
1
  0
APPID
  5
12
100
AcDbSymbolTableRecord
100
AcDbRegAppTableRecord
  2
ACAD
 70
0
  0
ENDTAB
  0
TABLE
  2
DIMSTYLE
  5
A
100
AcDbSymbolTable
 70
1
100
AcDbDimStyleTable
 71
0
  0
DIMSTYLE
105
27
100
AcDbSymbolTableRecord
100
AcDbDimStyleTableRecord
  2
Standard
 41
3.302
 42
1.0
 43
3.75
 44
1.0
 70
0
 73
0
 74
0
 77
1
 78
8
140
3.5
141
2.5
143
0.03937007874016
147
1.524
171
3
172
1
271
2
272
2
274
3
278
44
283
0
284
8
340
11
  0
ENDTAB
  0
TABLE
  2
BLOCK_RECORD
  5
1
100
AcDbSymbolTable
 70
1
  0
BLOCK_RECORD
  5
1F
100
AcDbSymbolTableRecord
100
AcDbBlockTableRecord
  2
*Model_Space
340
22
  0
BLOCK_RECORD
  5
1B
100
AcDbSymbolTableRecord
100
AcDbBlockTableRecord
  2
*Paper_Space
340
1E
  0
BLOCK_RECORD
  5
23
100
AcDbSymbolTableRecord
100
AcDbBlockTableRecord
  2
*Paper_Space0
340
26
  0
ENDTAB
  0
ENDSEC
  0
SECTION
  2
BLOCKS
  0
BLOCK
  5
20
100
AcDbEntity
  8
0
100
AcDbBlockBegin
  2
*Model_Space
 70
0
 10
0.0
 20
0.0
 30
0.0
  3
*Model_Space
  1

  0
ENDBLK
  5
21
100
AcDbEntity
  8
0
100
AcDbBlockEnd
  0
BLOCK
  5
1C
100
AcDbEntity
 67
1
  8
0
100
AcDbBlockBegin
  2
*Paper_Space
 70
0
 10
0.0
 20
0.0
 30
0.0
  3
*Paper_Space
  1

  0
ENDBLK
  5
1D
100
AcDbEntity
 67
1
  8
0
100
AcDbBlockEnd
  0
BLOCK
  5
24
100
AcDbEntity
  8
0
100
AcDbBlockBegin
  2
*Paper_Space0
 70
0
 10
0.0
 20
0.0
 30
0.0
  3
*Paper_Space0
  1

  0
ENDBLK
  5
25
100
AcDbEntity
  8
0
100
AcDbBlockEnd
  0
ENDSEC
  0
SECTION
  2
ENTITIES
  0
CIRCLE
  5
43
100
AcDbEntity
100
AcDbCircle
  8
0
 62
7
370
15
  6
CONTINUOUS
 10
23.0
 20
-13.0
 30
0.0
 40
4.9497474683058371
  0
LINE
  5
44
100
AcDbEntity
100
AcDbLine
  8
0
 62
7
370
15
  6
CONTINUOUS
 10
34.5
 20
9.2214215068000005
 30
0.0
 11
34.5
 21
10.332022727
 31
0.0
  0
LINE
  5
45
100
AcDbEntity
100
AcDbLine
  8
0
 62
7
370
15
  6
CONTINUOUS
 10
33.3563934758999991
 20
11.3216575920999993
 30
0.0
 11
26.8571459909000012
 21
10.3785477914000008
 31
0.0
  0
LINE
  5
46
100
AcDbEntity
100
AcDbLine
  8
0
 62
7
370
15
  6
CONTINUOUS
 10
26.1391133704999987
 20
10.3267221168999992
 30
0.0
 11
19.5
 21
10.3267221168999992
 31
0.0
  0
LINE
  5
47
100
AcDbEntity
100
AcDbLine
  8
0
 62
7
370
15
  6
CONTINUOUS
 10
19.5
 20
10.3267221168999992
 30
0.0
 11
19.5
 21
9.2267221168999995
 31
0.0
  0
LINE
  5
48
100
AcDbEntity
100
AcDbLine
  8
0
 62
7
370
15
  6
CONTINUOUS
 10
19.5
 20
9.2267221168999995
 30
0.0
 11
26.1391133704999987
 21
9.2267221168999995
 31
0.0
  0
LINE
  5
49
100
AcDbEntity
100
AcDbLine
  8
0
 62
7
370
15
  6
CONTINUOUS
 10
26.8571459909000012
 20
9.1748964423999997
 30
0.0
 11
33.3563934758999991
 21
8.2317866416999994
 31
0.0
  0
LINE
  5
4A
100
AcDbEntity
100
AcDbLine
  8
0
 62
7
370
15
  6
CONTINUOUS
 10
19.5
 20
-1.05
 30
0.0
 11
19.5
 21
-2.9500000000000002
 31
0.0
  0
LINE
  5
4B
100
AcDbEntity
100
AcDbLine
  8
0
 62
7
370
15
  6
CONTINUOUS
 10
19.5
 20
-2.9500000000000002
 30
0.0
 11
26.0200873749999992
 21
-2.9500000000000002
 31
0.0
  0
LINE
  5
4C
100
AcDbEntity
100
AcDbLine
  8
0
 62
7
370
15
  6
CONTINUOUS
 10
26.9711508150999997
 20
-3.0412854704000001
 30
0.0
 11
33.3097873119999974
 21
-4.2693962916999997
 31
0.0
  0
LINE
  5
4D
100
AcDbEntity
100
AcDbLine
  8
0
 62
7
370
15
  6
CONTINUOUS
 10
34.5
 20
-3.2876533858000001
 30
0.0
 11
34.5
 21
-0.7123466142
 31
0.0
  0
LINE
  5
4E
100
AcDbEntity
100
AcDbLine
  8
0
 62
7
370
15
  6
CONTINUOUS
 10
33.3097873119999974
 20
0.2693962917
 30
0.0
 11
26.9711508150999997
 21
-0.9587145296
 31
0.0
  0
LINE
  5
4F
100
AcDbEntity
100
AcDbLine
  8
0
 62
7
370
15
  6
CONTINUOUS
 10
26.0200873749999992
 20
-1.05
 30
0.0
 11
19.5
 21
-1.05
 31
0.0
  0
LINE
  5
50
100
AcDbEntity
100
AcDbLine
  8
0
 62
7
370
15
  6
CONTINUOUS
 10
16.5
 20
-19.0
 30
0.0
 11
16.5
 21
-22.0
 31
0.0
  0
LINE
  5
51
100
AcDbEntity
100
AcDbLine
  8
0
 62
7
370
15
  6
CONTINUOUS
 10
10.5
 20
-19.0
 30
0.0
 11
16.5
 21
-19.0
 31
0.0
  0
LINE
  5
52
100
AcDbEntity
100
AcDbLine
  8
0
 62
7
370
15
  6
CONTINUOUS
 10
10.5
 20
-21.0
 30
0.0
 11
10.5
 21
-19.0
 31
0.0
  0
LINE
  5
53
100
AcDbEntity
100
AcDbLine
  8
0
 62
7
370
15
  6
CONTINUOUS
 10
8.5
 20
-21.0
 30
0.0
 11
10.5
 21
-21.0
 31
0.0
  0
LINE
  5
54
100
AcDbEntity
100
AcDbLine
  8
0
 62
7
370
15
  6
CONTINUOUS
 10
7.5
 20
-20.0
 30
0.0
 11
8.5
 21
-21.0
 31
0.0
  0
LINE
  5
55
100
AcDbEntity
100
AcDbLine
  8
0
 62
7
370
15
  6
CONTINUOUS
 10
7.5
 20
-7.0
 30
0.0
 11
7.5
 21
-20.0
 31
0.0
  0
LINE
  5
56
100
AcDbEntity
100
AcDbLine
  8
0
 62
7
370
15
  6
CONTINUOUS
 10
15.5
 20
-7.0
 30
0.0
 11
7.5
 21
-7.0
 31
0.0
  0
LINE
  5
57
100
AcDbEntity
100
AcDbLine
  8
0
 62
7
370
15
  6
CONTINUOUS
 10
16.5
 20
8.0
 30
0.0
 11
16.5
 21
-6.0
 31
0.0
  0
LINE
  5
58
100
AcDbEntity
100
AcDbLine
  8
0
 62
7
370
15
  6
CONTINUOUS
 10
10.5
 20
8.0
 30
0.0
 11
16.5
 21
8.0
 31
0.0
  0
LINE
  5
59
100
AcDbEntity
100
AcDbLine
  8
0
 62
7
370
15
  6
CONTINUOUS
 10
10.5
 20
5.0
 30
0.0
 11
10.5
 21
8.0
 31
0.0
  0
LINE
  5
5A
100
AcDbEntity
100
AcDbLine
  8
0
 62
7
370
15
  6
CONTINUOUS
 10
6.5
 20
5.0
 30
0.0
 11
10.5
 21
5.0
 31
0.0
  0
LINE
  5
5B
100
AcDbEntity
100
AcDbLine
  8
0
 62
7
370
15
  6
CONTINUOUS
 10
4.5
 20
8.0
 30
0.0
 11
6.5
 21
5.0
 31
0.0
  0
LINE
  5
5C
100
AcDbEntity
100
AcDbLine
  8
0
 62
7
370
15
  6
CONTINUOUS
 10
90.1661268153000037
 20
-13.4191662974000003
 30
0.0
 11
166.5
 21
7.3204325670000001
 31
0.0
  0
LINE
  5
5D
100
AcDbEntity
100
AcDbLine
  8
0
 62
7
370
15
  6
CONTINUOUS
 10
69.5979569314000059
 20
-12.0
 30
0.0
 11
39.5
 21
-12.0
 31
0.0
  0
LINE
  5
5E
100
AcDbEntity
100
AcDbLine
  8
0
 62
7
370
15
  6
CONTINUOUS
 10
35.0
 20
-16.5
 30
0.0
 11
35.0
 21
-17.5
 31
0.0
  0
LINE
  5
5F
100
AcDbEntity
100
AcDbLine
  8
0
 62
7
370
15
  6
CONTINUOUS
 10
16.5
 20
-22.0
 30
0.0
 11
30.5
 21
-22.0
 31
0.0
  0
ARC
  5
60
100
AcDbEntity
  8
0
 62
7
370
15
  6
CONTINUOUS
100
AcDbCircle
 10
33.5
 20
9.2214215068000005
 30
0.0
 40
0.9999999999999942
100
AcDbArc
 50
261.7434055932999968
 51
0.0
  0
ARC
  5
61
100
AcDbEntity
  8
0
 62
7
370
15
  6
CONTINUOUS
100
AcDbCircle
 10
33.5
 20
10.332022727
 30
0.0
 40
0.9999999999999946
100
AcDbArc
 50
0.0
 51
98.2565944067000032
  0
ARC
  5
62
100
AcDbEntity
  8
0
 62
7
370
15
  6
CONTINUOUS
100
AcDbCircle
 10
26.1391133704999987
 20
15.3267221168999992
 30
0.0
 40
5.0000000000006324
100
AcDbArc
 50
270.0
 51
278.2565944067000032
  0
ARC
  5
63
100
AcDbEntity
  8
0
 62
7
370
15
  6
CONTINUOUS
100
AcDbCircle
 10
26.1391133704999987
 20
4.2267221169000004
 30
0.0
 40
5.0000000000003064
100
AcDbArc
 50
81.7434055932999968
 51
90.0
  0
ARC
  5
64
100
AcDbEntity
  8
0
 62
7
370
15
  6
CONTINUOUS
100
AcDbCircle
 10
26.0200873749999992
 20
-7.9500000000000002
 30
0.0
 40
4.9999999999999476
100
AcDbArc
 50
79.0348033149000031
 51
90.0
  0
ARC
  5
65
100
AcDbEntity
  8
0
 62
7
370
15
  6
CONTINUOUS
100
AcDbCircle
 10
33.5
 20
-3.2876533858000001
 30
0.0
 40
0.9999999999999929
100
AcDbArc
 50
259.0348033148999889
 51
0.0
  0
ARC
  5
66
100
AcDbEntity
  8
0
 62
7
370
15
  6
CONTINUOUS
100
AcDbCircle
 10
33.5
 20
-0.7123466142
 30
0.0
 40
1.0000000000000011
100
AcDbArc
 50
0.0
 51
100.9651966850999969
  0
ARC
  5
67
100
AcDbEntity
  8
0
 62
7
370
15
  6
CONTINUOUS
100
AcDbCircle
 10
26.0200873749999992
 20
3.9500000000000002
 30
0.0
 40
4.9999999999996607
100
AcDbArc
 50
270.0
 51
280.9651966851000111
  0
ARC
  5
68
100
AcDbEntity
  8
0
 62
7
370
15
  6
CONTINUOUS
100
AcDbCircle
 10
15.5
 20
-6.0
 30
0.0
 40
1.000000000000004
100
AcDbArc
 50
270.0
 51
0.0
  0
ARC
  5
69
100
AcDbEntity
  8
0
 62
7
370
15
  6
CONTINUOUS
100
AcDbCircle
 10
80.0
 20
-11.0
 30
0.0
 40
10.4499999999999904
100
AcDbArc
 50
346.6146499370000242
 51
185.491252402300006
  0
ARC
  5
6A
100
AcDbEntity
  8
0
 62
7
370
15
  6
CONTINUOUS
100
AcDbCircle
 10
39.5
 20
-16.5
 30
0.0
 40
4.5000000000000071
100
AcDbArc
 50
90.0
 51
180.0
  0
ARC
  5
6B
100
AcDbEntity
  8
0
 62
7
370
15
  6
CONTINUOUS
100
AcDbCircle
 10
30.5
 20
-17.5
 30
0.0
 40
4.5000000000000044
100
AcDbArc
 50
270.0
 51
0.0
  0
LINE
  5
6C
100
AcDbEntity
100
AcDbLine
  8
0
 62
7
370
15
  6
CONTINUOUS
 10
10.5
 20
27.0
 30
0.0
 11
10.5
 21
24.0
 31
0.0
  0
LINE
  5
6D
100
AcDbEntity
100
AcDbLine
  8
0
 62
7
370
15
  6
CONTINUOUS
 10
16.5
 20
27.0
 30
0.0
 11
10.5
 21
27.0
 31
0.0
  0
LINE
  5
6E
100
AcDbEntity
100
AcDbLine
  8
0
 62
7
370
15
  6
CONTINUOUS
 10
16.5
 20
24.0
 30
0.0
 11
16.5
 21
27.0
 31
0.0
  0
LINE
  5
6F
100
AcDbEntity
100
AcDbLine
  8
0
 62
7
370
15
  6
CONTINUOUS
 10
68.519999999999996
 20
24.0
 30
0.0
 11
16.5
 21
24.0
 31
0.0
  0
LINE
  5
70
100
AcDbEntity
100
AcDbLine
  8
0
 62
7
370
15
  6
CONTINUOUS
 10
68.519999999999996
 20
19.0
 30
0.0
 11
68.519999999999996
 21
24.0
 31
0.0
  0
LINE
  5
71
100
AcDbEntity
100
AcDbLine
  8
0
 62
7
370
15
  6
CONTINUOUS
 10
66.5499999999999972
 20
19.0
 30
0.0
 11
68.519999999999996
 21
19.0
 31
0.0
  0
LINE
  5
72
100
AcDbEntity
100
AcDbLine
  8
0
 62
7
370
15
  6
CONTINUOUS
 10
66.5499999999999972
 20
18.5
 30
0.0
 11
66.5499999999999972
 21
19.0
 31
0.0
  0
LINE
  5
73
100
AcDbEntity
100
AcDbLine
  8
0
 62
7
370
15
  6
CONTINUOUS
 10
67.2999999999999972
 20
18.5
 30
0.0
 11
66.5499999999999972
 21
18.5
 31
0.0
  0
LINE
  5
74
100
AcDbEntity
100
AcDbLine
  8
0
 62
7
370
15
  6
CONTINUOUS
 10
67.2999999999999972
 20
16.0
 30
0.0
 11
67.2999999999999972
 21
18.5
 31
0.0
  0
LINE
  5
75
100
AcDbEntity
100
AcDbLine
  8
0
 62
7
370
15
  6
CONTINUOUS
 10
68.519999999999996
 20
16.0
 30
0.0
 11
67.2999999999999972
 21
16.0
 31
0.0
  0
LINE
  5
76
100
AcDbEntity
100
AcDbLine
  8
0
 62
7
370
15
  6
CONTINUOUS
 10
68.519999999999996
 20
14.0
 30
0.0
 11
68.519999999999996
 21
16.0
 31
0.0
  0
LINE
  5
77
100
AcDbEntity
100
AcDbLine
  8
0
 62
7
370
15
  6
CONTINUOUS
 10
71.480000000000004
 20
14.0
 30
0.0
 11
68.519999999999996
 21
14.0
 31
0.0
  0
LINE
  5
78
100
AcDbEntity
100
AcDbLine
  8
0
 62
7
370
15
  6
CONTINUOUS
 10
71.480000000000004
 20
16.0
 30
0.0
 11
71.480000000000004
 21
14.0
 31
0.0
  0
LINE
  5
79
100
AcDbEntity
100
AcDbLine
  8
0
 62
7
370
15
  6
CONTINUOUS
 10
72.7000000000000028
 20
16.0
 30
0.0
 11
71.480000000000004
 21
16.0
 31
0.0
  0
LINE
  5
7A
100
AcDbEntity
100
AcDbLine
  8
0
 62
7
370
15
  6
CONTINUOUS
 10
72.7000000000000028
 20
18.5
 30
0.0
 11
72.7000000000000028
 21
16.0
 31
0.0
  0
LINE
  5
7B
100
AcDbEntity
100
AcDbLine
  8
0
 62
7
370
15
  6
CONTINUOUS
 10
73.4500000000000028
 20
18.5
 30
0.0
 11
72.7000000000000028
 21
18.5
 31
0.0
  0
LINE
  5
7C
100
AcDbEntity
100
AcDbLine
  8
0
 62
7
370
15
  6
CONTINUOUS
 10
73.4500000000000028
 20
19.0
 30
0.0
 11
73.4500000000000028
 21
18.5
 31
0.0
  0
LINE
  5
7D
100
AcDbEntity
100
AcDbLine
  8
0
 62
7
370
15
  6
CONTINUOUS
 10
71.480000000000004
 20
19.0
 30
0.0
 11
73.4500000000000028
 21
19.0
 31
0.0
  0
LINE
  5
7E
100
AcDbEntity
100
AcDbLine
  8
0
 62
7
370
15
  6
CONTINUOUS
 10
71.480000000000004
 20
24.0
 30
0.0
 11
71.480000000000004
 21
19.0
 31
0.0
  0
LINE
  5
7F
100
AcDbEntity
100
AcDbLine
  8
0
 62
7
370
15
  6
CONTINUOUS
 10
161.5
 20
26.5
 30
0.0
 11
161.5
 21
24.0
 31
0.0
  0
LINE
  5
80
100
AcDbEntity
100
AcDbLine
  8
0
 62
7
370
15
  6
CONTINUOUS
 10
162.0
 20
27.0
 30
0.0
 11
161.5
 21
26.5
 31
0.0
  0
LINE
  5
81
100
AcDbEntity
100
AcDbLine
  8
0
 62
7
370
15
  6
CONTINUOUS
 10
166.0
 20
27.0
 30
0.0
 11
162.0
 21
27.0
 31
0.0
  0
LINE
  5
82
100
AcDbEntity
100
AcDbLine
  8
0
 62
7
370
15
  6
CONTINUOUS
 10
10.5
 20
24.0
 30
0.0
 11
4.5000000000000018
 21
24.0
 31
0.0
  0
LINE
  5
83
100
AcDbEntity
100
AcDbLine
  8
0
 62
7
370
15
  6
CONTINUOUS
 10
4.5000000000000018
 20
24.0
 30
0.0
 11
4.5
 21
8.0
 31
0.0
  0
LINE
  5
84
100
AcDbEntity
100
AcDbLine
  8
0
 62
7
370
15
  6
CONTINUOUS
 10
166.5
 20
26.5
 30
0.0
 11
166.0
 21
27.0
 31
0.0
  0
LINE
  5
85
100
AcDbEntity
100
AcDbLine
  8
0
 62
7
370
15
  6
CONTINUOUS
 10
166.5
 20
7.3204325670000001
 30
0.0
 11
166.5
 21
26.5
 31
0.0
  0
LINE
  5
86
100
AcDbEntity
100
AcDbLine
  8
0
 62
7
370
15
  6
CONTINUOUS
 10
145.5199999999999818
 20
19.0
 30
0.0
 11
145.5199999999999818
 21
24.0
 31
0.0
  0
LINE
  5
87
100
AcDbEntity
100
AcDbLine
  8
0
 62
7
370
15
  6
CONTINUOUS
 10
143.5500000000000114
 20
19.0
 30
0.0
 11
145.5199999999999818
 21
19.0
 31
0.0
  0
LINE
  5
88
100
AcDbEntity
100
AcDbLine
  8
0
 62
7
370
15
  6
CONTINUOUS
 10
143.5500000000000114
 20
18.5
 30
0.0
 11
143.5500000000000114
 21
19.0
 31
0.0
  0
LINE
  5
89
100
AcDbEntity
100
AcDbLine
  8
0
 62
7
370
15
  6
CONTINUOUS
 10
144.3000000000000114
 20
18.5
 30
0.0
 11
143.5500000000000114
 21
18.5
 31
0.0
  0
LINE
  5
8A
100
AcDbEntity
100
AcDbLine
  8
0
 62
7
370
15
  6
CONTINUOUS
 10
144.3000000000000114
 20
16.0
 30
0.0
 11
144.3000000000000114
 21
18.5
 31
0.0
  0
LINE
  5
8B
100
AcDbEntity
100
AcDbLine
  8
0
 62
7
370
15
  6
CONTINUOUS
 10
145.5199999999999818
 20
16.0
 30
0.0
 11
144.3000000000000114
 21
16.0
 31
0.0
  0
LINE
  5
8C
100
AcDbEntity
100
AcDbLine
  8
0
 62
7
370
15
  6
CONTINUOUS
 10
145.5199999999999818
 20
14.0
 30
0.0
 11
145.5199999999999818
 21
16.0
 31
0.0
  0
LINE
  5
8D
100
AcDbEntity
100
AcDbLine
  8
0
 62
7
370
15
  6
CONTINUOUS
 10
148.4800000000000182
 20
14.0
 30
0.0
 11
145.5199999999999818
 21
14.0
 31
0.0
  0
LINE
  5
8E
100
AcDbEntity
100
AcDbLine
  8
0
 62
7
370
15
  6
CONTINUOUS
 10
148.4800000000000182
 20
16.0
 30
0.0
 11
148.4800000000000182
 21
14.0
 31
0.0
  0
LINE
  5
8F
100
AcDbEntity
100
AcDbLine
  8
0
 62
7
370
15
  6
CONTINUOUS
 10
149.6999999999999886
 20
16.0
 30
0.0
 11
148.4800000000000182
 21
16.0
 31
0.0
  0
LINE
  5
90
100
AcDbEntity
100
AcDbLine
  8
0
 62
7
370
15
  6
CONTINUOUS
 10
149.6999999999999886
 20
18.5
 30
0.0
 11
149.6999999999999886
 21
16.0
 31
0.0
  0
LINE
  5
91
100
AcDbEntity
100
AcDbLine
  8
0
 62
7
370
15
  6
CONTINUOUS
 10
150.4499999999999886
 20
18.5
 30
0.0
 11
149.6999999999999886
 21
18.5
 31
0.0
  0
LINE
  5
92
100
AcDbEntity
100
AcDbLine
  8
0
 62
7
370
15
  6
CONTINUOUS
 10
150.4499999999999886
 20
19.0
 30
0.0
 11
150.4499999999999886
 21
18.5
 31
0.0
  0
LINE
  5
93
100
AcDbEntity
100
AcDbLine
  8
0
 62
7
370
15
  6
CONTINUOUS
 10
148.4800000000000182
 20
19.0
 30
0.0
 11
150.4499999999999886
 21
19.0
 31
0.0
  0
LINE
  5
94
100
AcDbEntity
100
AcDbLine
  8
0
 62
7
370
15
  6
CONTINUOUS
 10
148.4800000000000182
 20
24.0
 30
0.0
 11
148.4800000000000182
 21
19.0
 31
0.0
  0
LINE
  5
95
100
AcDbEntity
100
AcDbLine
  8
0
 62
7
370
15
  6
CONTINUOUS
 10
145.5199999999999818
 20
24.0
 30
0.0
 11
71.480000000000004
 21
24.0
 31
0.0
  0
LINE
  5
96
100
AcDbEntity
100
AcDbLine
  8
0
 62
7
370
15
  6
CONTINUOUS
 10
161.5
 20
24.0
 30
0.0
 11
148.4800000000000182
 21
24.0
 31
0.0
  0
ENDSEC
  0
SECTION
  2
OBJECTS
  0
DICTIONARY
  5
C
100
AcDbDictionary
280
0
281
1
  3
ACAD_GROUP
350
D
  3
ACAD_LAYOUT
350
1A
  3
ACAD_MLINESTYLE
350
17
  3
ACAD_PLOTSETTINGS
350
19
  3
ACAD_PLOTSTYLENAME
350
E
  3
AcDbVariableDictionary
350
97
  0
DICTIONARY
  5
D
100
AcDbDictionary
280
0
281
1
  0
ACDBDICTIONARYWDFLT
  5
E
100
AcDbDictionary
281
1
  3
Normal
350
F
100
AcDbDictionaryWithDefault
340
F
  0
ACDBPLACEHOLDER
  5
F
  0
DICTIONARY
  5
17
100
AcDbDictionary
280
0
281
1
  3
Standard
350
18
  0
MLINESTYLE
  5
18
100
AcDbMlineStyle
  2
STANDARD
 70
0
  3

 62
256
 51
90.0
 52
90.0
 71
2
 49
0.5
 62
256
  6
BYLAYER
 49
-0.5
 62
256
  6
BYLAYER
  0
DICTIONARY
  5
19
100
AcDbDictionary
280
0
281
1
  0
DICTIONARY
  5
1A
100
AcDbDictionary
281
1
  3
Layout1
350
1E
  3
Layout2
350
26
  3
Model
350
22
  0
LAYOUT
  5
1E
100
AcDbPlotSettings
  1

  2
C:\Program Files\AutoCAD 2002\plotters\DWF ePlot (optimized for plotting).pc3
  4

  6

 40
0.0
 41
0.0
 42
0.0
 43
0.0
 44
0.0
 45
0.0
 46
0.0
 47
0.0
 48
0.0
 49
0.0
140
0.0
141
0.0
142
1.0
143
1.0
 70
688
 72
0
 73
0
 74
5
  7

 75
16
147
1.0
148
0.0
149
0.0
100
AcDbLayout
  1
Layout1
 70
1
 71
1
 10
0.0
 20
0.0
 11
420.0
 21
297.0
 12
0.0
 22
0.0
 32
0.0
 14
100000000000000000000.0
 24
100000000000000000000.0
 34
100000000000000000000.0
 15
-100000000000000000000.0
 25
-100000000000000000000.0
 35
-100000000000000000000.0
146
0.0
 13
0.0
 23
0.0
 33
0.0
 16
1.0
 26
0.0
 36
0.0
 17
0.0
 27
1.0
 37
0.0
 76
0
330
1B
  0
LAYOUT
  5
22
100
AcDbPlotSettings
  1

  2
C:\Program Files\AutoCAD 2002\plotters\DWF ePlot (optimized for plotting).pc3
  4

  6

 40
0.0
 41
0.0
 42
0.0
 43
0.0
 44
0.0
 45
0.0
 46
0.0
 47
0.0
 48
0.0
 49
0.0
140
0.0
141
0.0
142
1.0
143
1.0
 70
1712
 72
0
 73
0
 74
0
  7

 75
0
147
1.0
148
0.0
149
0.0
100
AcDbLayout
  1
Model
 70
1
 71
0
 10
0.0
 20
0.0
 11
12.0
 21
9.0
 12
0.0
 22
0.0
 32
0.0
 14
0.0
 24
0.0
 34
0.0
 15
0.0
 25
0.0
 35
0.0
146
0.0
 13
0.0
 23
0.0
 33
0.0
 16
1.0
 26
0.0
 36
0.0
 17
0.0
 27
1.0
 37
0.0
 76
0
330
1F
  0
LAYOUT
  5
26
100
AcDbPlotSettings
  1

  2
C:\Program Files\AutoCAD 2002\plotters\DWF ePlot (optimized for plotting).pc3
  4

  6

 40
0.0
 41
0.0
 42
0.0
 43
0.0
 44
0.0
 45
0.0
 46
0.0
 47
0.0
 48
0.0
 49
0.0
140
0.0
141
0.0
142
1.0
143
1.0
 70
688
 72
0
 73
0
 74
5
  7

 75
16
147
1.0
148
0.0
149
0.0
100
AcDbLayout
  1
Layout2
 70
1
 71
2
 10
0.0
 20
0.0
 11
12.0
 21
9.0
 12
0.0
 22
0.0
 32
0.0
 14
0.0
 24
0.0
 34
0.0
 15
0.0
 25
0.0
 35
0.0
146
0.0
 13
0.0
 23
0.0
 33
0.0
 16
1.0
 26
0.0
 36
0.0
 17
0.0
 27
1.0
 37
0.0
 76
0
330
23
  0
DICTIONARY
  5
97
100
AcDbDictionary
281
1
  3
DIMASSOC
350
99
  3
HIDETEXT
350
98
  0
DICTIONARYVAR
  5
98
100
DictionaryVariables
280
0
  1
2
  0
DICTIONARYVAR
  5
99
100
DictionaryVariables
280
0
  1
1
  0
ENDSEC
  0
EOF
