solid OpenSCAD_Model
  facet normal -1 0 0
    outer loop
      vertex -15.5 -25.5 -5.25
      vertex -15.5 -25.5 10.25
      vertex -15.5 25.5 -5.25
    endloop
  endfacet
  facet normal -1 0 0
    outer loop
      vertex -15.5 25.5 -5.25
      vertex -15.5 -25.5 10.25
      vertex -15.5 25.5 10.25
    endloop
  endfacet
  facet normal 0 -1 0
    outer loop
      vertex -15.5 -25.5 10.25
      vertex -15.5 -25.5 -5.25
      vertex 15.5 -25.5 -5.25
    endloop
  endfacet
  facet normal 0 -1 0
    outer loop
      vertex 15.5 -25.5 10.25
      vertex -15.5 -25.5 10.25
      vertex 15.5 -25.5 -5.25
    endloop
  endfacet
  facet normal 0 0 -1
    outer loop
      vertex -15.5 -25.5 -5.25
      vertex -15.5 25.5 -5.25
      vertex 15.5 -25.5 -5.25
    endloop
  endfacet
  facet normal 0 0 -1
    outer loop
      vertex 15.5 -25.5 -5.25
      vertex -15.5 25.5 -5.25
      vertex 15.5 25.5 -5.25
    endloop
  endfacet
  facet normal 0 1 0
    outer loop
      vertex -15.5 25.5 -5.25
      vertex -15.5 25.5 10.25
      vertex 15.5 25.5 -5.25
    endloop
  endfacet
  facet normal 0 1 0
    outer loop
      vertex 15.5 25.5 -5.25
      vertex -15.5 25.5 10.25
      vertex 15.5 25.5 10.25
    endloop
  endfacet
  facet normal 0 0 1
    outer loop
      vertex -13.5 -23.5 10.25
      vertex -15.5 -25.5 10.25
      vertex 15.5 -25.5 10.25
    endloop
  endfacet
  facet normal 0 0 1
    outer loop
      vertex 13.5 -23.5 10.25
      vertex -13.5 -23.5 10.25
      vertex 15.5 -25.5 10.25
    endloop
  endfacet
  facet normal 0 0 1
    outer loop
      vertex -15.5 25.5 10.25
      vertex -15.5 -25.5 10.25
      vertex -13.5 -23.5 10.25
    endloop
  endfacet
  facet normal 0 0 1
    outer loop
      vertex 15.5 25.5 10.25
      vertex -15.5 25.5 10.25
      vertex -13.5 23.5 10.25
    endloop
  endfacet
  facet normal 0 0 1
    outer loop
      vertex 15.5 25.5 10.25
      vertex 13.5 23.5 10.25
      vertex 15.5 -25.5 10.25
    endloop
  endfacet
  facet normal 0 0 1
    outer loop
      vertex 15.5 25.5 10.25
      vertex -13.5 23.5 10.25
      vertex 13.5 23.5 10.25
    endloop
  endfacet
  facet normal 0 0 1
    outer loop
      vertex 13.5 23.5 10.25
      vertex 13.5 -23.5 10.25
      vertex 15.5 -25.5 10.25
    endloop
  endfacet
  facet normal 0 0 1
    outer loop
      vertex -13.5 -23.5 10.25
      vertex -13.5 23.5 10.25
      vertex -15.5 25.5 10.25
    endloop
  endfacet
  facet normal 1 0 0
    outer loop
      vertex 15.5 -25.5 10.25
      vertex 15.5 -25.5 -5.25
      vertex 15.5 25.5 -5.25
    endloop
  endfacet
  facet normal 1 0 0
    outer loop
      vertex 15.5 25.5 10.25
      vertex 15.5 -25.5 10.25
      vertex 15.5 25.5 -5.25
    endloop
  endfacet
  facet normal 1 0 0
    outer loop
      vertex -13.5 23.5 -3.25
      vertex -13.5 23.5 10.25
      vertex -13.5 -23.5 10.25
    endloop
  endfacet
  facet normal 1 0 0
    outer loop
      vertex -13.5 -23.5 -3.25
      vertex -13.5 23.5 -3.25
      vertex -13.5 -23.5 10.25
    endloop
  endfacet
  facet normal 0 1 0
    outer loop
      vertex 13.5 -23.5 10.25
      vertex 13.5 -23.5 -3.25
      vertex -13.5 -23.5 10.25
    endloop
  endfacet
  facet normal 0 1 0
    outer loop
      vertex -13.5 -23.5 10.25
      vertex 13.5 -23.5 -3.25
      vertex -13.5 -23.5 -3.25
    endloop
  endfacet
  facet normal -1 0 0
    outer loop
      vertex 13.5 23.5 10.25
      vertex 13.5 23.5 -3.25
      vertex 13.5 -23.5 10.25
    endloop
  endfacet
  facet normal -1 0 0
    outer loop
      vertex 13.5 -23.5 10.25
      vertex 13.5 23.5 -3.25
      vertex 13.5 -23.5 -3.25
    endloop
  endfacet
  facet normal 0 -1 0
    outer loop
      vertex 13.5 23.5 -3.25
      vertex 13.5 23.5 10.25
      vertex -13.5 23.5 10.25
    endloop
  endfacet
  facet normal 0 -1 0
    outer loop
      vertex -13.5 23.5 -3.25
      vertex 13.5 23.5 -3.25
      vertex -13.5 23.5 10.25
    endloop
  endfacet
  facet normal 0 0 1
    outer loop
      vertex 13.5 -23.5 -3.25
      vertex 13.5 23.5 -3.25
      vertex -13.5 23.5 -3.25
    endloop
  endfacet
  facet normal 0 0 1
    outer loop
      vertex -13.5 -23.5 -3.25
      vertex 13.5 -23.5 -3.25
      vertex -13.5 23.5 -3.25
    endloop
  endfacet
endsolid OpenSCAD_Model
