solid OpenSCAD_Model
  facet normal -1 0 0
    outer loop
      vertex -20 -20 -1.5
      vertex -20 -20 1.5
      vertex -20 20 -1.5
    endloop
  endfacet
  facet normal -1 0 0
    outer loop
      vertex -20 20 -1.5
      vertex -20 -20 1.5
      vertex -20 20 1.5
    endloop
  endfacet
  facet normal 0 -1 0
    outer loop
      vertex -20 -20 1.5
      vertex -20 -20 -1.5
      vertex 20 -20 -1.5
    endloop
  endfacet
  facet normal 0 -1 0
    outer loop
      vertex 20 -20 1.5
      vertex -20 -20 1.5
      vertex 20 -20 -1.5
    endloop
  endfacet
  facet normal 0 0 -1
    outer loop
      vertex 1.19302 18.9625 -1.5
      vertex -20 20 -1.5
      vertex 20 20 -1.5
    endloop
  endfacet
  facet normal 0 0 -1
    outer loop
      vertex -20 -20 -1.5
      vertex -20 20 -1.5
      vertex -19 0 -1.5
    endloop
  endfacet
  facet normal 0 0 -1
    outer loop
      vertex 13.8504 -13.0064 -1.5
      vertex 14.3 -16 -1.5
      vertex 12.1111 -14.6398 -1.5
    endloop
  endfacet
  facet normal 0 0 -1
    outer loop
      vertex -20 -20 -1.5
      vertex -19 0 -1.5
      vertex -18.8502 -2.38133 -1.5
    endloop
  endfacet
  facet normal 0 0 -1
    outer loop
      vertex -20 -20 -1.5
      vertex -18.8502 -2.38133 -1.5
      vertex -18.4031 -4.72511 -1.5
    endloop
  endfacet
  facet normal 0 0 -1
    outer loop
      vertex 12.1111 -14.6398 -1.5
      vertex 14.6247 -16.9992 -1.5
      vertex 15.0008 -17.3753 -1.5
    endloop
  endfacet
  facet normal 0 0 -1
    outer loop
      vertex -20 -20 -1.5
      vertex -18.4031 -4.72511 -1.5
      vertex -17.6658 -6.99437 -1.5
    endloop
  endfacet
  facet normal 0 0 -1
    outer loop
      vertex 15.0008 -17.3753 -1.5
      vertex 20 -20 -1.5
      vertex 10.1807 -16.0422 -1.5
    endloop
  endfacet
  facet normal 0 0 -1
    outer loop
      vertex -20 -20 -1.5
      vertex -17.6658 -6.99437 -1.5
      vertex -16.6498 -9.15332 -1.5
    endloop
  endfacet
  facet normal 0 0 -1
    outer loop
      vertex 12.1111 -14.6398 -1.5
      vertex 15.0008 -17.3753 -1.5
      vertex 10.1807 -16.0422 -1.5
    endloop
  endfacet
  facet normal 0 0 -1
    outer loop
      vertex -20 -20 -1.5
      vertex -16.6498 -9.15332 -1.5
      vertex -15.3713 -11.1679 -1.5
    endloop
  endfacet
  facet normal 0 0 -1
    outer loop
      vertex -16 -14.3 -1.5
      vertex -15.3713 -11.1679 -1.5
      vertex -13.8504 -13.0064 -1.5
    endloop
  endfacet
  facet normal 0 0 -1
    outer loop
      vertex -14.3832 -15.4747 -1.5
      vertex -13.8504 -13.0064 -1.5
      vertex -12.1111 -14.6398 -1.5
    endloop
  endfacet
  facet normal 0 0 -1
    outer loop
      vertex -15.0008 -17.3753 -1.5
      vertex -12.1111 -14.6398 -1.5
      vertex -10.1807 -16.0422 -1.5
    endloop
  endfacet
  facet normal 0 0 -1
    outer loop
      vertex -20 -20 -1.5
      vertex -10.1807 -16.0422 -1.5
      vertex -8.08981 -17.1917 -1.5
    endloop
  endfacet
  facet normal 0 0 -1
    outer loop
      vertex -20 -20 -1.5
      vertex -8.08981 -17.1917 -1.5
      vertex -5.87132 -18.0701 -1.5
    endloop
  endfacet
  facet normal 0 0 -1
    outer loop
      vertex -20 -20 -1.5
      vertex -5.87132 -18.0701 -1.5
      vertex -3.56024 -18.6635 -1.5
    endloop
  endfacet
  facet normal 0 0 -1
    outer loop
      vertex -20 -20 -1.5
      vertex -3.56024 -18.6635 -1.5
      vertex -1.19302 -18.9625 -1.5
    endloop
  endfacet
  facet normal 0 0 -1
    outer loop
      vertex -20 -20 -1.5
      vertex -1.19302 -18.9625 -1.5
      vertex 20 -20 -1.5
    endloop
  endfacet
  facet normal 0 0 -1
    outer loop
      vertex -1.19302 -18.9625 -1.5
      vertex 1.19302 -18.9625 -1.5
      vertex 20 -20 -1.5
    endloop
  endfacet
  facet normal 0 0 -1
    outer loop
      vertex 5.87132 -18.0701 -1.5
      vertex 20 -20 -1.5
      vertex 3.56024 -18.6635 -1.5
    endloop
  endfacet
  facet normal 0 0 -1
    outer loop
      vertex 8.08981 -17.1917 -1.5
      vertex 20 -20 -1.5
      vertex 5.87132 -18.0701 -1.5
    endloop
  endfacet
  facet normal 0 0 -1
    outer loop
      vertex 10.1807 -16.0422 -1.5
      vertex 20 -20 -1.5
      vertex 8.08981 -17.1917 -1.5
    endloop
  endfacet
  facet normal 0 0 -1
    outer loop
      vertex 12.1111 -14.6398 -1.5
      vertex 14.3832 -16.5253 -1.5
      vertex 14.6247 -16.9992 -1.5
    endloop
  endfacet
  facet normal 0 0 -1
    outer loop
      vertex -16.9992 -17.3753 -1.5
      vertex -20 -20 -1.5
      vertex -17.3753 -16.9992 -1.5
    endloop
  endfacet
  facet normal 0 0 -1
    outer loop
      vertex 16 -17.7 -1.5
      vertex 20 -20 -1.5
      vertex 15.4747 -17.6168 -1.5
    endloop
  endfacet
  facet normal 0 0 -1
    outer loop
      vertex 18.8502 2.38133 -1.5
      vertex 20 20 -1.5
      vertex 19 0 -1.5
    endloop
  endfacet
  facet normal 0 0 -1
    outer loop
      vertex 16 -14.3 -1.5
      vertex 13.8504 -13.0064 -1.5
      vertex 15.3713 -11.1679 -1.5
    endloop
  endfacet
  facet normal 0 0 -1
    outer loop
      vertex 20 -20 -1.5
      vertex 15.3713 -11.1679 -1.5
      vertex 16.6498 -9.15332 -1.5
    endloop
  endfacet
  facet normal 0 0 -1
    outer loop
      vertex 20 -20 -1.5
      vertex 16.6498 -9.15332 -1.5
      vertex 17.6658 -6.99437 -1.5
    endloop
  endfacet
  facet normal 0 0 -1
    outer loop
      vertex 20 -20 -1.5
      vertex 17.6658 -6.99437 -1.5
      vertex 18.4031 -4.72511 -1.5
    endloop
  endfacet
  facet normal 0 0 -1
    outer loop
      vertex 20 -20 -1.5
      vertex 18.4031 -4.72511 -1.5
      vertex 18.8502 -2.38133 -1.5
    endloop
  endfacet
  facet normal 0 0 -1
    outer loop
      vertex 20 -20 -1.5
      vertex 18.8502 -2.38133 -1.5
      vertex 19 0 -1.5
    endloop
  endfacet
  facet normal 0 0 -1
    outer loop
      vertex 20 -20 -1.5
      vertex 19 0 -1.5
      vertex 20 20 -1.5
    endloop
  endfacet
  facet normal 0 0 -1
    outer loop
      vertex 18.4031 4.72511 -1.5
      vertex 20 20 -1.5
      vertex 18.8502 2.38133 -1.5
    endloop
  endfacet
  facet normal 0 0 -1
    outer loop
      vertex 17.6658 6.99437 -1.5
      vertex 20 20 -1.5
      vertex 18.4031 4.72511 -1.5
    endloop
  endfacet
  facet normal 0 0 -1
    outer loop
      vertex 16.6498 9.15332 -1.5
      vertex 20 20 -1.5
      vertex 17.6658 6.99437 -1.5
    endloop
  endfacet
  facet normal 0 0 -1
    outer loop
      vertex -14.3832 16.5253 -1.5
      vertex -12.1111 14.6398 -1.5
      vertex -14.3 16 -1.5
    endloop
  endfacet
  facet normal 0 0 -1
    outer loop
      vertex -3.56024 18.6635 -1.5
      vertex -20 20 -1.5
      vertex -1.19302 18.9625 -1.5
    endloop
  endfacet
  facet normal 0 0 -1
    outer loop
      vertex 16.6498 9.15332 -1.5
      vertex 15.3713 11.1679 -1.5
      vertex 20 20 -1.5
    endloop
  endfacet
  facet normal 0 0 -1
    outer loop
      vertex -10.1807 16.0422 -1.5
      vertex -20 20 -1.5
      vertex -8.08981 17.1917 -1.5
    endloop
  endfacet
  facet normal 0 0 -1
    outer loop
      vertex -8.08981 17.1917 -1.5
      vertex -20 20 -1.5
      vertex -5.87132 18.0701 -1.5
    endloop
  endfacet
  facet normal 0 0 -1
    outer loop
      vertex 15.4747 17.6168 -1.5
      vertex 10.1807 16.0422 -1.5
      vertex 20 20 -1.5
    endloop
  endfacet
  facet normal 0 0 -1
    outer loop
      vertex 10.1807 16.0422 -1.5
      vertex 8.08981 17.1917 -1.5
      vertex 20 20 -1.5
    endloop
  endfacet
  facet normal 0 0 -1
    outer loop
      vertex -5.87132 18.0701 -1.5
      vertex -20 20 -1.5
      vertex -3.56024 18.6635 -1.5
    endloop
  endfacet
  facet normal 0 0 -1
    outer loop
      vertex 8.08981 17.1917 -1.5
      vertex 5.87132 18.0701 -1.5
      vertex 20 20 -1.5
    endloop
  endfacet
  facet normal 0 0 -1
    outer loop
      vertex 5.87132 18.0701 -1.5
      vertex 3.56024 18.6635 -1.5
      vertex 20 20 -1.5
    endloop
  endfacet
  facet normal 0 0 -1
    outer loop
      vertex -1.19302 18.9625 -1.5
      vertex -20 20 -1.5
      vertex 1.19302 18.9625 -1.5
    endloop
  endfacet
  facet normal 0 0 -1
    outer loop
      vertex 3.56024 18.6635 -1.5
      vertex 1.19302 18.9625 -1.5
      vertex 20 20 -1.5
    endloop
  endfacet
  facet normal 0 0 -1
    outer loop
      vertex -13.8504 13.0064 -1.5
      vertex -15.0008 14.6247 -1.5
      vertex -14.6247 15.0008 -1.5
    endloop
  endfacet
  facet normal 0 0 -1
    outer loop
      vertex -15.0008 17.3753 -1.5
      vertex -20 20 -1.5
      vertex -10.1807 16.0422 -1.5
    endloop
  endfacet
  facet normal 0 0 -1
    outer loop
      vertex -16.9992 17.3753 -1.5
      vertex -20 20 -1.5
      vertex -16.5253 17.6168 -1.5
    endloop
  endfacet
  facet normal 0 0 -1
    outer loop
      vertex -16.6498 9.15332 -1.5
      vertex -20 20 -1.5
      vertex -15.3713 11.1679 -1.5
    endloop
  endfacet
  facet normal 0 0 -1
    outer loop
      vertex -17.6658 6.99437 -1.5
      vertex -20 20 -1.5
      vertex -16.6498 9.15332 -1.5
    endloop
  endfacet
  facet normal 0 0 -1
    outer loop
      vertex -18.4031 4.72511 -1.5
      vertex -20 20 -1.5
      vertex -17.6658 6.99437 -1.5
    endloop
  endfacet
  facet normal 0 0 -1
    outer loop
      vertex -18.8502 2.38133 -1.5
      vertex -20 20 -1.5
      vertex -18.4031 4.72511 -1.5
    endloop
  endfacet
  facet normal 0 0 -1
    outer loop
      vertex -19 0 -1.5
      vertex -20 20 -1.5
      vertex -18.8502 2.38133 -1.5
    endloop
  endfacet
  facet normal 0 0 -1
    outer loop
      vertex -16.9992 14.6247 -1.5
      vertex -15.3713 11.1679 -1.5
      vertex -17.3753 15.0008 -1.5
    endloop
  endfacet
  facet normal 0 0 -1
    outer loop
      vertex -20 -20 -1.5
      vertex -17.7 -16 -1.5
      vertex -17.6168 -16.5253 -1.5
    endloop
  endfacet
  facet normal 0 0 -1
    outer loop
      vertex -20 -20 -1.5
      vertex -17.6168 -16.5253 -1.5
      vertex -17.3753 -16.9992 -1.5
    endloop
  endfacet
  facet normal 0 0 -1
    outer loop
      vertex -16 -17.7 -1.5
      vertex -20 -20 -1.5
      vertex -16.5253 -17.6168 -1.5
    endloop
  endfacet
  facet normal 0 0 -1
    outer loop
      vertex -20 -20 -1.5
      vertex -16.9992 -17.3753 -1.5
      vertex -16.5253 -17.6168 -1.5
    endloop
  endfacet
  facet normal 0 0 -1
    outer loop
      vertex -15.0008 -17.3753 -1.5
      vertex -10.1807 -16.0422 -1.5
      vertex -15.4747 -17.6168 -1.5
    endloop
  endfacet
  facet normal 0 0 -1
    outer loop
      vertex -20 -20 -1.5
      vertex -16 -17.7 -1.5
      vertex -15.4747 -17.6168 -1.5
    endloop
  endfacet
  facet normal 0 0 -1
    outer loop
      vertex -20 -20 -1.5
      vertex -15.4747 -17.6168 -1.5
      vertex -10.1807 -16.0422 -1.5
    endloop
  endfacet
  facet normal 0 0 -1
    outer loop
      vertex -14.6247 -16.9992 -1.5
      vertex -12.1111 -14.6398 -1.5
      vertex -15.0008 -17.3753 -1.5
    endloop
  endfacet
  facet normal 0 0 -1
    outer loop
      vertex -14.3 -16 -1.5
      vertex -12.1111 -14.6398 -1.5
      vertex -14.3832 -16.5253 -1.5
    endloop
  endfacet
  facet normal 0 0 -1
    outer loop
      vertex -14.3832 -16.5253 -1.5
      vertex -12.1111 -14.6398 -1.5
      vertex -14.6247 -16.9992 -1.5
    endloop
  endfacet
  facet normal 0 0 -1
    outer loop
      vertex -14.3832 -15.4747 -1.5
      vertex -12.1111 -14.6398 -1.5
      vertex -14.3 -16 -1.5
    endloop
  endfacet
  facet normal 0 0 -1
    outer loop
      vertex -14.6247 -15.0008 -1.5
      vertex -13.8504 -13.0064 -1.5
      vertex -14.3832 -15.4747 -1.5
    endloop
  endfacet
  facet normal 0 0 -1
    outer loop
      vertex -15.4747 -14.3832 -1.5
      vertex -13.8504 -13.0064 -1.5
      vertex -15.0008 -14.6247 -1.5
    endloop
  endfacet
  facet normal 0 0 -1
    outer loop
      vertex -15.0008 -14.6247 -1.5
      vertex -13.8504 -13.0064 -1.5
      vertex -14.6247 -15.0008 -1.5
    endloop
  endfacet
  facet normal 0 0 -1
    outer loop
      vertex 15.0008 17.3753 -1.5
      vertex 10.1807 16.0422 -1.5
      vertex 15.4747 17.6168 -1.5
    endloop
  endfacet
  facet normal 0 0 -1
    outer loop
      vertex -16 -14.3 -1.5
      vertex -13.8504 -13.0064 -1.5
      vertex -15.4747 -14.3832 -1.5
    endloop
  endfacet
  facet normal 0 0 -1
    outer loop
      vertex -16.5253 -14.3832 -1.5
      vertex -15.3713 -11.1679 -1.5
      vertex -16 -14.3 -1.5
    endloop
  endfacet
  facet normal 0 0 -1
    outer loop
      vertex -17.3753 -15.0008 -1.5
      vertex -15.3713 -11.1679 -1.5
      vertex -16.9992 -14.6247 -1.5
    endloop
  endfacet
  facet normal 0 0 -1
    outer loop
      vertex -16.9992 -14.6247 -1.5
      vertex -15.3713 -11.1679 -1.5
      vertex -16.5253 -14.3832 -1.5
    endloop
  endfacet
  facet normal 0 0 -1
    outer loop
      vertex -20 -20 -1.5
      vertex -15.3713 -11.1679 -1.5
      vertex -17.3753 -15.0008 -1.5
    endloop
  endfacet
  facet normal 0 0 -1
    outer loop
      vertex -20 -20 -1.5
      vertex -17.3753 -15.0008 -1.5
      vertex -17.6168 -15.4747 -1.5
    endloop
  endfacet
  facet normal 0 0 -1
    outer loop
      vertex -20 -20 -1.5
      vertex -17.6168 -15.4747 -1.5
      vertex -17.7 -16 -1.5
    endloop
  endfacet
  facet normal 0 0 -1
    outer loop
      vertex -17.6168 15.4747 -1.5
      vertex -20 20 -1.5
      vertex -17.7 16 -1.5
    endloop
  endfacet
  facet normal 0 0 -1
    outer loop
      vertex -17.6168 16.5253 -1.5
      vertex -20 20 -1.5
      vertex -17.3753 16.9992 -1.5
    endloop
  endfacet
  facet normal 0 0 -1
    outer loop
      vertex -17.3753 15.0008 -1.5
      vertex -20 20 -1.5
      vertex -17.6168 15.4747 -1.5
    endloop
  endfacet
  facet normal 0 0 -1
    outer loop
      vertex -15.3713 11.1679 -1.5
      vertex -20 20 -1.5
      vertex -17.3753 15.0008 -1.5
    endloop
  endfacet
  facet normal 0 0 -1
    outer loop
      vertex -15.4747 14.3832 -1.5
      vertex -13.8504 13.0064 -1.5
      vertex -16 14.3 -1.5
    endloop
  endfacet
  facet normal 0 0 -1
    outer loop
      vertex -15.3713 11.1679 -1.5
      vertex -16.9992 14.6247 -1.5
      vertex -13.8504 13.0064 -1.5
    endloop
  endfacet
  facet normal 0 0 -1
    outer loop
      vertex -16.9992 14.6247 -1.5
      vertex -16.5253 14.3832 -1.5
      vertex -13.8504 13.0064 -1.5
    endloop
  endfacet
  facet normal 0 0 -1
    outer loop
      vertex -16.5253 14.3832 -1.5
      vertex -16 14.3 -1.5
      vertex -13.8504 13.0064 -1.5
    endloop
  endfacet
  facet normal 0 0 -1
    outer loop
      vertex 14.3832 -16.5253 -1.5
      vertex 12.1111 -14.6398 -1.5
      vertex 14.3 -16 -1.5
    endloop
  endfacet
  facet normal 0 0 -1
    outer loop
      vertex -15.0008 14.6247 -1.5
      vertex -13.8504 13.0064 -1.5
      vertex -15.4747 14.3832 -1.5
    endloop
  endfacet
  facet normal 0 0 -1
    outer loop
      vertex -13.8504 13.0064 -1.5
      vertex -14.6247 15.0008 -1.5
      vertex -12.1111 14.6398 -1.5
    endloop
  endfacet
  facet normal 0 0 -1
    outer loop
      vertex -17.3753 16.9992 -1.5
      vertex -20 20 -1.5
      vertex -16.9992 17.3753 -1.5
    endloop
  endfacet
  facet normal 0 0 -1
    outer loop
      vertex -14.6247 15.0008 -1.5
      vertex -14.3832 15.4747 -1.5
      vertex -12.1111 14.6398 -1.5
    endloop
  endfacet
  facet normal 0 0 -1
    outer loop
      vertex -14.3832 15.4747 -1.5
      vertex -14.3 16 -1.5
      vertex -12.1111 14.6398 -1.5
    endloop
  endfacet
  facet normal 0 0 -1
    outer loop
      vertex -16 17.7 -1.5
      vertex -20 20 -1.5
      vertex -15.4747 17.6168 -1.5
    endloop
  endfacet
  facet normal 0 0 -1
    outer loop
      vertex -12.1111 14.6398 -1.5
      vertex -14.3832 16.5253 -1.5
      vertex -10.1807 16.0422 -1.5
    endloop
  endfacet
  facet normal 0 0 -1
    outer loop
      vertex -16.5253 17.6168 -1.5
      vertex -20 20 -1.5
      vertex -16 17.7 -1.5
    endloop
  endfacet
  facet normal 0 0 -1
    outer loop
      vertex -14.3832 16.5253 -1.5
      vertex -14.6247 16.9992 -1.5
      vertex -10.1807 16.0422 -1.5
    endloop
  endfacet
  facet normal 0 0 -1
    outer loop
      vertex -15.4747 17.6168 -1.5
      vertex -20 20 -1.5
      vertex -15.0008 17.3753 -1.5
    endloop
  endfacet
  facet normal 0 0 -1
    outer loop
      vertex -14.6247 16.9992 -1.5
      vertex -15.0008 17.3753 -1.5
      vertex -10.1807 16.0422 -1.5
    endloop
  endfacet
  facet normal 0 0 -1
    outer loop
      vertex 16.9992 -17.3753 -1.5
      vertex 20 -20 -1.5
      vertex 16.5253 -17.6168 -1.5
    endloop
  endfacet
  facet normal 0 0 -1
    outer loop
      vertex -17.7 16 -1.5
      vertex -20 20 -1.5
      vertex -17.6168 16.5253 -1.5
    endloop
  endfacet
  facet normal 0 0 -1
    outer loop
      vertex 13.8504 -13.0064 -1.5
      vertex 15.0008 -14.6247 -1.5
      vertex 14.6247 -15.0008 -1.5
    endloop
  endfacet
  facet normal 0 0 -1
    outer loop
      vertex 13.8504 -13.0064 -1.5
      vertex 14.6247 -15.0008 -1.5
      vertex 14.3832 -15.4747 -1.5
    endloop
  endfacet
  facet normal 0 0 -1
    outer loop
      vertex 13.8504 -13.0064 -1.5
      vertex 14.3832 -15.4747 -1.5
      vertex 14.3 -16 -1.5
    endloop
  endfacet
  facet normal 0 0 -1
    outer loop
      vertex 15.0008 -17.3753 -1.5
      vertex 15.4747 -17.6168 -1.5
      vertex 20 -20 -1.5
    endloop
  endfacet
  facet normal 0 0 -1
    outer loop
      vertex 16.5253 -17.6168 -1.5
      vertex 20 -20 -1.5
      vertex 16 -17.7 -1.5
    endloop
  endfacet
  facet normal 0 0 -1
    outer loop
      vertex 14.3 16 -1.5
      vertex 12.1111 14.6398 -1.5
      vertex 14.3832 16.5253 -1.5
    endloop
  endfacet
  facet normal 0 0 -1
    outer loop
      vertex 17.3753 -16.9992 -1.5
      vertex 20 -20 -1.5
      vertex 16.9992 -17.3753 -1.5
    endloop
  endfacet
  facet normal 0 0 -1
    outer loop
      vertex 16.9992 -14.6247 -1.5
      vertex 15.3713 -11.1679 -1.5
      vertex 17.3753 -15.0008 -1.5
    endloop
  endfacet
  facet normal 0 0 -1
    outer loop
      vertex 20 -20 -1.5
      vertex 17.3753 -16.9992 -1.5
      vertex 17.6168 -16.5253 -1.5
    endloop
  endfacet
  facet normal 0 0 -1
    outer loop
      vertex 20 -20 -1.5
      vertex 17.6168 -16.5253 -1.5
      vertex 17.7 -16 -1.5
    endloop
  endfacet
  facet normal 0 0 -1
    outer loop
      vertex 20 -20 -1.5
      vertex 17.7 -16 -1.5
      vertex 17.6168 -15.4747 -1.5
    endloop
  endfacet
  facet normal 0 0 -1
    outer loop
      vertex 20 -20 -1.5
      vertex 17.6168 -15.4747 -1.5
      vertex 17.3753 -15.0008 -1.5
    endloop
  endfacet
  facet normal 0 0 -1
    outer loop
      vertex 20 -20 -1.5
      vertex 17.3753 -15.0008 -1.5
      vertex 15.3713 -11.1679 -1.5
    endloop
  endfacet
  facet normal 0 0 -1
    outer loop
      vertex 16.5253 -14.3832 -1.5
      vertex 15.3713 -11.1679 -1.5
      vertex 16.9992 -14.6247 -1.5
    endloop
  endfacet
  facet normal 0 0 -1
    outer loop
      vertex 16 -14.3 -1.5
      vertex 15.3713 -11.1679 -1.5
      vertex 16.5253 -14.3832 -1.5
    endloop
  endfacet
  facet normal 0 0 -1
    outer loop
      vertex 15.4747 -14.3832 -1.5
      vertex 13.8504 -13.0064 -1.5
      vertex 16 -14.3 -1.5
    endloop
  endfacet
  facet normal 0 0 -1
    outer loop
      vertex 15.0008 -14.6247 -1.5
      vertex 13.8504 -13.0064 -1.5
      vertex 15.4747 -14.3832 -1.5
    endloop
  endfacet
  facet normal 0 0 -1
    outer loop
      vertex 13.8504 13.0064 -1.5
      vertex 12.1111 14.6398 -1.5
      vertex 14.3 16 -1.5
    endloop
  endfacet
  facet normal 0 0 -1
    outer loop
      vertex 13.8504 13.0064 -1.5
      vertex 14.3 16 -1.5
      vertex 14.3832 15.4747 -1.5
    endloop
  endfacet
  facet normal 0 0 -1
    outer loop
      vertex 13.8504 13.0064 -1.5
      vertex 14.3832 15.4747 -1.5
      vertex 14.6247 15.0008 -1.5
    endloop
  endfacet
  facet normal 0 0 -1
    outer loop
      vertex 13.8504 13.0064 -1.5
      vertex 14.6247 15.0008 -1.5
      vertex 15.0008 14.6247 -1.5
    endloop
  endfacet
  facet normal 0 0 -1
    outer loop
      vertex 15.3713 11.1679 -1.5
      vertex 13.8504 13.0064 -1.5
      vertex 15.4747 14.3832 -1.5
    endloop
  endfacet
  facet normal 0 0 -1
    outer loop
      vertex 15.3713 11.1679 -1.5
      vertex 15.4747 14.3832 -1.5
      vertex 16 14.3 -1.5
    endloop
  endfacet
  facet normal 0 0 -1
    outer loop
      vertex 15.3713 11.1679 -1.5
      vertex 16 14.3 -1.5
      vertex 16.5253 14.3832 -1.5
    endloop
  endfacet
  facet normal 0 0 -1
    outer loop
      vertex 15.3713 11.1679 -1.5
      vertex 16.5253 14.3832 -1.5
      vertex 16.9992 14.6247 -1.5
    endloop
  endfacet
  facet normal 0 0 -1
    outer loop
      vertex 15.3713 11.1679 -1.5
      vertex 16.9992 14.6247 -1.5
      vertex 17.3753 15.0008 -1.5
    endloop
  endfacet
  facet normal 0 0 -1
    outer loop
      vertex 15.3713 11.1679 -1.5
      vertex 17.3753 15.0008 -1.5
      vertex 20 20 -1.5
    endloop
  endfacet
  facet normal 0 0 -1
    outer loop
      vertex 17.3753 15.0008 -1.5
      vertex 17.6168 15.4747 -1.5
      vertex 20 20 -1.5
    endloop
  endfacet
  facet normal 0 0 -1
    outer loop
      vertex 17.6168 16.5253 -1.5
      vertex 20 20 -1.5
      vertex 17.7 16 -1.5
    endloop
  endfacet
  facet normal 0 0 -1
    outer loop
      vertex 17.3753 16.9992 -1.5
      vertex 20 20 -1.5
      vertex 17.6168 16.5253 -1.5
    endloop
  endfacet
  facet normal 0 0 -1
    outer loop
      vertex 17.7 16 -1.5
      vertex 20 20 -1.5
      vertex 17.6168 15.4747 -1.5
    endloop
  endfacet
  facet normal 0 0 -1
    outer loop
      vertex 16.9992 17.3753 -1.5
      vertex 20 20 -1.5
      vertex 17.3753 16.9992 -1.5
    endloop
  endfacet
  facet normal 0 0 -1
    outer loop
      vertex 16.5253 17.6168 -1.5
      vertex 20 20 -1.5
      vertex 16.9992 17.3753 -1.5
    endloop
  endfacet
  facet normal 0 0 -1
    outer loop
      vertex 15.4747 14.3832 -1.5
      vertex 13.8504 13.0064 -1.5
      vertex 15.0008 14.6247 -1.5
    endloop
  endfacet
  facet normal 0 0 -1
    outer loop
      vertex 16 17.7 -1.5
      vertex 20 20 -1.5
      vertex 16.5253 17.6168 -1.5
    endloop
  endfacet
  facet normal 0 0 -1
    outer loop
      vertex 16 17.7 -1.5
      vertex 15.4747 17.6168 -1.5
      vertex 20 20 -1.5
    endloop
  endfacet
  facet normal 0 0 -1
    outer loop
      vertex 12.1111 14.6398 -1.5
      vertex 10.1807 16.0422 -1.5
      vertex 15.0008 17.3753 -1.5
    endloop
  endfacet
  facet normal 0 0 -1
    outer loop
      vertex 12.1111 14.6398 -1.5
      vertex 15.0008 17.3753 -1.5
      vertex 14.6247 16.9992 -1.5
    endloop
  endfacet
  facet normal 0 0 -1
    outer loop
      vertex 12.1111 14.6398 -1.5
      vertex 14.6247 16.9992 -1.5
      vertex 14.3832 16.5253 -1.5
    endloop
  endfacet
  facet normal 0 0 -1
    outer loop
      vertex 3.56024 -18.6635 -1.5
      vertex 20 -20 -1.5
      vertex 1.19302 -18.9625 -1.5
    endloop
  endfacet
  facet normal 0 1 0
    outer loop
      vertex -20 20 -1.5
      vertex -20 20 1.5
      vertex 20 20 -1.5
    endloop
  endfacet
  facet normal 0 1 0
    outer loop
      vertex 20 20 -1.5
      vertex -20 20 1.5
      vertex 20 20 1.5
    endloop
  endfacet
  facet normal 0 0 1
    outer loop
      vertex 1.19302 -18.9625 1.5
      vertex -20 -20 1.5
      vertex 20 -20 1.5
    endloop
  endfacet
  facet normal 0 0 1
    outer loop
      vertex -19 0 1.5
      vertex -20 -20 1.5
      vertex -18.8502 -2.38133 1.5
    endloop
  endfacet
  facet normal 0 0 1
    outer loop
      vertex 12.1111 -14.6398 1.5
      vertex 10.1807 -16.0422 1.5
      vertex 15.0008 -17.3753 1.5
    endloop
  endfacet
  facet normal 0 0 1
    outer loop
      vertex -20 20 1.5
      vertex -20 -20 1.5
      vertex -19 0 1.5
    endloop
  endfacet
  facet normal 0 0 1
    outer loop
      vertex 15.0008 -17.3753 1.5
      vertex 10.1807 -16.0422 1.5
      vertex 20 -20 1.5
    endloop
  endfacet
  facet normal 0 0 1
    outer loop
      vertex -20 20 1.5
      vertex -18.8502 2.38133 1.5
      vertex -18.4031 4.72511 1.5
    endloop
  endfacet
  facet normal 0 0 1
    outer loop
      vertex -20 20 1.5
      vertex -18.4031 4.72511 1.5
      vertex -17.6658 6.99437 1.5
    endloop
  endfacet
  facet normal 0 0 1
    outer loop
      vertex 15.0008 -14.6247 1.5
      vertex 15.4747 -14.3832 1.5
      vertex 13.8504 -13.0064 1.5
    endloop
  endfacet
  facet normal 0 0 1
    outer loop
      vertex -20 20 1.5
      vertex -17.6658 6.99437 1.5
      vertex -16.6498 9.15332 1.5
    endloop
  endfacet
  facet normal 0 0 1
    outer loop
      vertex -20 20 1.5
      vertex -16.6498 9.15332 1.5
      vertex -15.3713 11.1679 1.5
    endloop
  endfacet
  facet normal 0 0 1
    outer loop
      vertex -16 14.3 1.5
      vertex -15.3713 11.1679 1.5
      vertex -13.8504 13.0064 1.5
    endloop
  endfacet
  facet normal 0 0 1
    outer loop
      vertex -8.08981 17.1917 1.5
      vertex -20 20 1.5
      vertex -10.1807 16.0422 1.5
    endloop
  endfacet
  facet normal 0 0 1
    outer loop
      vertex 5.87132 18.0701 1.5
      vertex 8.08981 17.1917 1.5
      vertex 20 20 1.5
    endloop
  endfacet
  facet normal 0 0 1
    outer loop
      vertex -5.87132 18.0701 1.5
      vertex -20 20 1.5
      vertex -8.08981 17.1917 1.5
    endloop
  endfacet
  facet normal 0 0 1
    outer loop
      vertex -3.56024 18.6635 1.5
      vertex -20 20 1.5
      vertex -5.87132 18.0701 1.5
    endloop
  endfacet
  facet normal 0 0 1
    outer loop
      vertex -1.19302 18.9625 1.5
      vertex -20 20 1.5
      vertex -3.56024 18.6635 1.5
    endloop
  endfacet
  facet normal 0 0 1
    outer loop
      vertex 20 20 1.5
      vertex -20 20 1.5
      vertex -1.19302 18.9625 1.5
    endloop
  endfacet
  facet normal 0 0 1
    outer loop
      vertex 3.56024 18.6635 1.5
      vertex 5.87132 18.0701 1.5
      vertex 20 20 1.5
    endloop
  endfacet
  facet normal 0 0 1
    outer loop
      vertex 20 20 1.5
      vertex -1.19302 18.9625 1.5
      vertex 1.19302 18.9625 1.5
    endloop
  endfacet
  facet normal 0 0 1
    outer loop
      vertex 19 0 1.5
      vertex 18.8502 -2.38133 1.5
      vertex 20 -20 1.5
    endloop
  endfacet
  facet normal 0 0 1
    outer loop
      vertex 16.6498 -9.15332 1.5
      vertex 15.3713 -11.1679 1.5
      vertex 20 -20 1.5
    endloop
  endfacet
  facet normal 0 0 1
    outer loop
      vertex 20 20 1.5
      vertex 8.08981 17.1917 1.5
      vertex 10.1807 16.0422 1.5
    endloop
  endfacet
  facet normal 0 0 1
    outer loop
      vertex 14.3832 16.5253 1.5
      vertex 10.1807 16.0422 1.5
      vertex 12.1111 14.6398 1.5
    endloop
  endfacet
  facet normal 0 0 1
    outer loop
      vertex 14.3832 15.4747 1.5
      vertex 12.1111 14.6398 1.5
      vertex 13.8504 13.0064 1.5
    endloop
  endfacet
  facet normal 0 0 1
    outer loop
      vertex 16 14.3 1.5
      vertex 13.8504 13.0064 1.5
      vertex 15.3713 11.1679 1.5
    endloop
  endfacet
  facet normal 0 0 1
    outer loop
      vertex 20 20 1.5
      vertex 15.3713 11.1679 1.5
      vertex 16.6498 9.15332 1.5
    endloop
  endfacet
  facet normal 0 0 1
    outer loop
      vertex 20 20 1.5
      vertex 16.6498 9.15332 1.5
      vertex 17.6658 6.99437 1.5
    endloop
  endfacet
  facet normal 0 0 1
    outer loop
      vertex 18.8502 -2.38133 1.5
      vertex 18.4031 -4.72511 1.5
      vertex 20 -20 1.5
    endloop
  endfacet
  facet normal 0 0 1
    outer loop
      vertex 20 20 1.5
      vertex 17.6658 6.99437 1.5
      vertex 18.4031 4.72511 1.5
    endloop
  endfacet
  facet normal 0 0 1
    outer loop
      vertex 18.4031 -4.72511 1.5
      vertex 17.6658 -6.99437 1.5
      vertex 20 -20 1.5
    endloop
  endfacet
  facet normal 0 0 1
    outer loop
      vertex 20 20 1.5
      vertex 18.4031 4.72511 1.5
      vertex 18.8502 2.38133 1.5
    endloop
  endfacet
  facet normal 0 0 1
    outer loop
      vertex 20 20 1.5
      vertex 19 0 1.5
      vertex 20 -20 1.5
    endloop
  endfacet
  facet normal 0 0 1
    outer loop
      vertex 20 20 1.5
      vertex 18.8502 2.38133 1.5
      vertex 19 0 1.5
    endloop
  endfacet
  facet normal 0 0 1
    outer loop
      vertex 17.6168 -15.4747 1.5
      vertex 17.7 -16 1.5
      vertex 20 -20 1.5
    endloop
  endfacet
  facet normal 0 0 1
    outer loop
      vertex 10.1807 -16.0422 1.5
      vertex 8.08981 -17.1917 1.5
      vertex 20 -20 1.5
    endloop
  endfacet
  facet normal 0 0 1
    outer loop
      vertex 8.08981 -17.1917 1.5
      vertex 5.87132 -18.0701 1.5
      vertex 20 -20 1.5
    endloop
  endfacet
  facet normal 0 0 1
    outer loop
      vertex 5.87132 -18.0701 1.5
      vertex 3.56024 -18.6635 1.5
      vertex 20 -20 1.5
    endloop
  endfacet
  facet normal 0 0 1
    outer loop
      vertex 3.56024 -18.6635 1.5
      vertex 1.19302 -18.9625 1.5
      vertex 20 -20 1.5
    endloop
  endfacet
  facet normal 0 0 1
    outer loop
      vertex -1.19302 -18.9625 1.5
      vertex -20 -20 1.5
      vertex 1.19302 -18.9625 1.5
    endloop
  endfacet
  facet normal 0 0 1
    outer loop
      vertex -3.56024 -18.6635 1.5
      vertex -5.87132 -18.0701 1.5
      vertex -20 -20 1.5
    endloop
  endfacet
  facet normal 0 0 1
    outer loop
      vertex -17.3753 -15.0008 1.5
      vertex -16.9992 -14.6247 1.5
      vertex -15.3713 -11.1679 1.5
    endloop
  endfacet
  facet normal 0 0 1
    outer loop
      vertex -8.08981 -17.1917 1.5
      vertex -20 -20 1.5
      vertex -5.87132 -18.0701 1.5
    endloop
  endfacet
  facet normal 0 0 1
    outer loop
      vertex -10.1807 -16.0422 1.5
      vertex -20 -20 1.5
      vertex -8.08981 -17.1917 1.5
    endloop
  endfacet
  facet normal 0 0 1
    outer loop
      vertex -15.0008 -17.3753 1.5
      vertex -20 -20 1.5
      vertex -10.1807 -16.0422 1.5
    endloop
  endfacet
  facet normal 0 0 1
    outer loop
      vertex -15.4747 -17.6168 1.5
      vertex -16 -17.7 1.5
      vertex -20 -20 1.5
    endloop
  endfacet
  facet normal 0 0 1
    outer loop
      vertex -16.6498 -9.15332 1.5
      vertex -20 -20 1.5
      vertex -15.3713 -11.1679 1.5
    endloop
  endfacet
  facet normal 0 0 1
    outer loop
      vertex -17.6658 -6.99437 1.5
      vertex -20 -20 1.5
      vertex -16.6498 -9.15332 1.5
    endloop
  endfacet
  facet normal 0 0 1
    outer loop
      vertex -18.4031 -4.72511 1.5
      vertex -20 -20 1.5
      vertex -17.6658 -6.99437 1.5
    endloop
  endfacet
  facet normal 0 0 1
    outer loop
      vertex -18.8502 -2.38133 1.5
      vertex -20 -20 1.5
      vertex -18.4031 -4.72511 1.5
    endloop
  endfacet
  facet normal 0 0 1
    outer loop
      vertex -15.0008 14.6247 1.5
      vertex -15.4747 14.3832 1.5
      vertex -13.8504 13.0064 1.5
    endloop
  endfacet
  facet normal 0 0 1
    outer loop
      vertex -17.7 -16 1.5
      vertex -20 -20 1.5
      vertex -17.6168 -16.5253 1.5
    endloop
  endfacet
  facet normal 0 0 1
    outer loop
      vertex -17.6168 -15.4747 1.5
      vertex -20 -20 1.5
      vertex -17.7 -16 1.5
    endloop
  endfacet
  facet normal 0 0 1
    outer loop
      vertex -16.9992 -14.6247 1.5
      vertex -16.5253 -14.3832 1.5
      vertex -15.3713 -11.1679 1.5
    endloop
  endfacet
  facet normal 0 0 1
    outer loop
      vertex -17.3753 -15.0008 1.5
      vertex -20 -20 1.5
      vertex -17.6168 -15.4747 1.5
    endloop
  endfacet
  facet normal 0 0 1
    outer loop
      vertex -15.3713 -11.1679 1.5
      vertex -20 -20 1.5
      vertex -17.3753 -15.0008 1.5
    endloop
  endfacet
  facet normal 0 0 1
    outer loop
      vertex -15.3713 -11.1679 1.5
      vertex -16.5253 -14.3832 1.5
      vertex -13.8504 -13.0064 1.5
    endloop
  endfacet
  facet normal 0 0 1
    outer loop
      vertex -16.5253 -14.3832 1.5
      vertex -16 -14.3 1.5
      vertex -13.8504 -13.0064 1.5
    endloop
  endfacet
  facet normal 0 0 1
    outer loop
      vertex -16 -14.3 1.5
      vertex -15.4747 -14.3832 1.5
      vertex -13.8504 -13.0064 1.5
    endloop
  endfacet
  facet normal 0 0 1
    outer loop
      vertex -13.8504 -13.0064 1.5
      vertex -15.0008 -14.6247 1.5
      vertex -12.1111 -14.6398 1.5
    endloop
  endfacet
  facet normal 0 0 1
    outer loop
      vertex -15.0008 -14.6247 1.5
      vertex -14.6247 -15.0008 1.5
      vertex -12.1111 -14.6398 1.5
    endloop
  endfacet
  facet normal 0 0 1
    outer loop
      vertex -15.4747 14.3832 1.5
      vertex -16 14.3 1.5
      vertex -13.8504 13.0064 1.5
    endloop
  endfacet
  facet normal 0 0 1
    outer loop
      vertex -14.6247 -15.0008 1.5
      vertex -14.3832 -15.4747 1.5
      vertex -12.1111 -14.6398 1.5
    endloop
  endfacet
  facet normal 0 0 1
    outer loop
      vertex -14.3832 -15.4747 1.5
      vertex -14.3 -16 1.5
      vertex -12.1111 -14.6398 1.5
    endloop
  endfacet
  facet normal 0 0 1
    outer loop
      vertex -12.1111 -14.6398 1.5
      vertex -14.3832 -16.5253 1.5
      vertex -10.1807 -16.0422 1.5
    endloop
  endfacet
  facet normal 0 0 1
    outer loop
      vertex -14.3832 -16.5253 1.5
      vertex -14.6247 -16.9992 1.5
      vertex -10.1807 -16.0422 1.5
    endloop
  endfacet
  facet normal 0 0 1
    outer loop
      vertex -14.6247 -16.9992 1.5
      vertex -15.0008 -17.3753 1.5
      vertex -10.1807 -16.0422 1.5
    endloop
  endfacet
  facet normal 0 0 1
    outer loop
      vertex -15.4747 -17.6168 1.5
      vertex -20 -20 1.5
      vertex -15.0008 -17.3753 1.5
    endloop
  endfacet
  facet normal 0 0 1
    outer loop
      vertex -16 -17.7 1.5
      vertex -16.5253 -17.6168 1.5
      vertex -20 -20 1.5
    endloop
  endfacet
  facet normal 0 0 1
    outer loop
      vertex -16.5253 -17.6168 1.5
      vertex -16.9992 -17.3753 1.5
      vertex -20 -20 1.5
    endloop
  endfacet
  facet normal 0 0 1
    outer loop
      vertex -16.9992 -17.3753 1.5
      vertex -17.3753 -16.9992 1.5
      vertex -20 -20 1.5
    endloop
  endfacet
  facet normal 0 0 1
    outer loop
      vertex -17.3753 16.9992 1.5
      vertex -16.9992 17.3753 1.5
      vertex -20 20 1.5
    endloop
  endfacet
  facet normal 0 0 1
    outer loop
      vertex -14.3 -16 1.5
      vertex -14.3832 -16.5253 1.5
      vertex -12.1111 -14.6398 1.5
    endloop
  endfacet
  facet normal 0 0 1
    outer loop
      vertex -17.6168 -16.5253 1.5
      vertex -20 -20 1.5
      vertex -17.3753 -16.9992 1.5
    endloop
  endfacet
  facet normal 0 0 1
    outer loop
      vertex -16.9992 14.6247 1.5
      vertex -17.3753 15.0008 1.5
      vertex -15.3713 11.1679 1.5
    endloop
  endfacet
  facet normal 0 0 1
    outer loop
      vertex 14.3832 -16.5253 1.5
      vertex 14.3 -16 1.5
      vertex 12.1111 -14.6398 1.5
    endloop
  endfacet
  facet normal 0 0 1
    outer loop
      vertex -20 20 1.5
      vertex -17.6168 15.4747 1.5
      vertex -17.7 16 1.5
    endloop
  endfacet
  facet normal 0 0 1
    outer loop
      vertex -20 20 1.5
      vertex -17.7 16 1.5
      vertex -17.6168 16.5253 1.5
    endloop
  endfacet
  facet normal 0 0 1
    outer loop
      vertex -14.3832 16.5253 1.5
      vertex -14.3 16 1.5
      vertex -12.1111 14.6398 1.5
    endloop
  endfacet
  facet normal 0 0 1
    outer loop
      vertex -20 20 1.5
      vertex -17.6168 16.5253 1.5
      vertex -17.3753 16.9992 1.5
    endloop
  endfacet
  facet normal 0 0 1
    outer loop
      vertex 17.6658 -6.99437 1.5
      vertex 16.6498 -9.15332 1.5
      vertex 20 -20 1.5
    endloop
  endfacet
  facet normal 0 0 1
    outer loop
      vertex -16.5253 17.6168 1.5
      vertex -20 20 1.5
      vertex -16.9992 17.3753 1.5
    endloop
  endfacet
  facet normal 0 0 1
    outer loop
      vertex -15.4747 17.6168 1.5
      vertex -15.0008 17.3753 1.5
      vertex -10.1807 16.0422 1.5
    endloop
  endfacet
  facet normal 0 0 1
    outer loop
      vertex -15.4747 17.6168 1.5
      vertex -20 20 1.5
      vertex -16 17.7 1.5
    endloop
  endfacet
  facet normal 0 0 1
    outer loop
      vertex -10.1807 16.0422 1.5
      vertex -20 20 1.5
      vertex -15.4747 17.6168 1.5
    endloop
  endfacet
  facet normal 0 0 1
    outer loop
      vertex -10.1807 16.0422 1.5
      vertex -15.0008 17.3753 1.5
      vertex -12.1111 14.6398 1.5
    endloop
  endfacet
  facet normal 0 0 1
    outer loop
      vertex -15.0008 17.3753 1.5
      vertex -14.6247 16.9992 1.5
      vertex -12.1111 14.6398 1.5
    endloop
  endfacet
  facet normal 0 0 1
    outer loop
      vertex -14.6247 16.9992 1.5
      vertex -14.3832 16.5253 1.5
      vertex -12.1111 14.6398 1.5
    endloop
  endfacet
  facet normal 0 0 1
    outer loop
      vertex 1.19302 18.9625 1.5
      vertex 3.56024 18.6635 1.5
      vertex 20 20 1.5
    endloop
  endfacet
  facet normal 0 0 1
    outer loop
      vertex 17.6168 -16.5253 1.5
      vertex 17.3753 -16.9992 1.5
      vertex 20 -20 1.5
    endloop
  endfacet
  facet normal 0 0 1
    outer loop
      vertex -16.5253 17.6168 1.5
      vertex -16 17.7 1.5
      vertex -20 20 1.5
    endloop
  endfacet
  facet normal 0 0 1
    outer loop
      vertex -16.5253 14.3832 1.5
      vertex -15.3713 11.1679 1.5
      vertex -16 14.3 1.5
    endloop
  endfacet
  facet normal 0 0 1
    outer loop
      vertex -16.9992 14.6247 1.5
      vertex -15.3713 11.1679 1.5
      vertex -16.5253 14.3832 1.5
    endloop
  endfacet
  facet normal 0 0 1
    outer loop
      vertex -20 20 1.5
      vertex -17.3753 15.0008 1.5
      vertex -17.6168 15.4747 1.5
    endloop
  endfacet
  facet normal 0 0 1
    outer loop
      vertex -20 20 1.5
      vertex -15.3713 11.1679 1.5
      vertex -17.3753 15.0008 1.5
    endloop
  endfacet
  facet normal 0 0 1
    outer loop
      vertex 14.3 16 1.5
      vertex 14.3832 16.5253 1.5
      vertex 12.1111 14.6398 1.5
    endloop
  endfacet
  facet normal 0 0 1
    outer loop
      vertex 15.0008 -17.3753 1.5
      vertex 20 -20 1.5
      vertex 15.4747 -17.6168 1.5
    endloop
  endfacet
  facet normal 0 0 1
    outer loop
      vertex 12.1111 -14.6398 1.5
      vertex 15.0008 -17.3753 1.5
      vertex 14.6247 -16.9992 1.5
    endloop
  endfacet
  facet normal 0 0 1
    outer loop
      vertex 15.3713 -11.1679 1.5
      vertex 13.8504 -13.0064 1.5
      vertex 15.4747 -14.3832 1.5
    endloop
  endfacet
  facet normal 0 0 1
    outer loop
      vertex 17.3753 -16.9992 1.5
      vertex 16.9992 -17.3753 1.5
      vertex 20 -20 1.5
    endloop
  endfacet
  facet normal 0 0 1
    outer loop
      vertex 15.3713 -11.1679 1.5
      vertex 15.4747 -14.3832 1.5
      vertex 16 -14.3 1.5
    endloop
  endfacet
  facet normal 0 0 1
    outer loop
      vertex 15.3713 -11.1679 1.5
      vertex 16 -14.3 1.5
      vertex 16.5253 -14.3832 1.5
    endloop
  endfacet
  facet normal 0 0 1
    outer loop
      vertex 17.7 -16 1.5
      vertex 17.6168 -16.5253 1.5
      vertex 20 -20 1.5
    endloop
  endfacet
  facet normal 0 0 1
    outer loop
      vertex 15.3713 -11.1679 1.5
      vertex 16.5253 -14.3832 1.5
      vertex 16.9992 -14.6247 1.5
    endloop
  endfacet
  facet normal 0 0 1
    outer loop
      vertex 15.3713 -11.1679 1.5
      vertex 17.3753 -15.0008 1.5
      vertex 20 -20 1.5
    endloop
  endfacet
  facet normal 0 0 1
    outer loop
      vertex 15.3713 -11.1679 1.5
      vertex 16.9992 -14.6247 1.5
      vertex 17.3753 -15.0008 1.5
    endloop
  endfacet
  facet normal 0 0 1
    outer loop
      vertex 17.3753 -15.0008 1.5
      vertex 17.6168 -15.4747 1.5
      vertex 20 -20 1.5
    endloop
  endfacet
  facet normal 0 0 1
    outer loop
      vertex 12.1111 -14.6398 1.5
      vertex 14.6247 -16.9992 1.5
      vertex 14.3832 -16.5253 1.5
    endloop
  endfacet
  facet normal 0 0 1
    outer loop
      vertex 16.9992 -17.3753 1.5
      vertex 16.5253 -17.6168 1.5
      vertex 20 -20 1.5
    endloop
  endfacet
  facet normal 0 0 1
    outer loop
      vertex 16 -17.7 1.5
      vertex 15.4747 -17.6168 1.5
      vertex 20 -20 1.5
    endloop
  endfacet
  facet normal 0 0 1
    outer loop
      vertex -1.19302 -18.9625 1.5
      vertex -3.56024 -18.6635 1.5
      vertex -20 -20 1.5
    endloop
  endfacet
  facet normal 0 0 1
    outer loop
      vertex -15.4747 -14.3832 1.5
      vertex -15.0008 -14.6247 1.5
      vertex -13.8504 -13.0064 1.5
    endloop
  endfacet
  facet normal 0 0 1
    outer loop
      vertex 14.6247 15.0008 1.5
      vertex 14.3832 15.4747 1.5
      vertex 13.8504 13.0064 1.5
    endloop
  endfacet
  facet normal 0 0 1
    outer loop
      vertex 14.3 16 1.5
      vertex 12.1111 14.6398 1.5
      vertex 14.3832 15.4747 1.5
    endloop
  endfacet
  facet normal 0 0 1
    outer loop
      vertex 16.9992 17.3753 1.5
      vertex 17.3753 16.9992 1.5
      vertex 20 20 1.5
    endloop
  endfacet
  facet normal 0 0 1
    outer loop
      vertex 16.5253 17.6168 1.5
      vertex 16.9992 17.3753 1.5
      vertex 20 20 1.5
    endloop
  endfacet
  facet normal 0 0 1
    outer loop
      vertex 14.6247 16.9992 1.5
      vertex 10.1807 16.0422 1.5
      vertex 14.3832 16.5253 1.5
    endloop
  endfacet
  facet normal 0 0 1
    outer loop
      vertex 15.0008 17.3753 1.5
      vertex 10.1807 16.0422 1.5
      vertex 14.6247 16.9992 1.5
    endloop
  endfacet
  facet normal 0 0 1
    outer loop
      vertex 20 20 1.5
      vertex 10.1807 16.0422 1.5
      vertex 15.0008 17.3753 1.5
    endloop
  endfacet
  facet normal 0 0 1
    outer loop
      vertex 16 17.7 1.5
      vertex 16.5253 17.6168 1.5
      vertex 20 20 1.5
    endloop
  endfacet
  facet normal 0 0 1
    outer loop
      vertex 20 20 1.5
      vertex 15.0008 17.3753 1.5
      vertex 15.4747 17.6168 1.5
    endloop
  endfacet
  facet normal 0 0 1
    outer loop
      vertex 17.3753 15.0008 1.5
      vertex 16.9992 14.6247 1.5
      vertex 15.3713 11.1679 1.5
    endloop
  endfacet
  facet normal 0 0 1
    outer loop
      vertex 15.4747 17.6168 1.5
      vertex 16 17.7 1.5
      vertex 20 20 1.5
    endloop
  endfacet
  facet normal 0 0 1
    outer loop
      vertex 16.5253 14.3832 1.5
      vertex 16 14.3 1.5
      vertex 15.3713 11.1679 1.5
    endloop
  endfacet
  facet normal 0 0 1
    outer loop
      vertex 20 20 1.5
      vertex 17.3753 16.9992 1.5
      vertex 17.6168 16.5253 1.5
    endloop
  endfacet
  facet normal 0 0 1
    outer loop
      vertex 16.9992 14.6247 1.5
      vertex 16.5253 14.3832 1.5
      vertex 15.3713 11.1679 1.5
    endloop
  endfacet
  facet normal 0 0 1
    outer loop
      vertex 20 20 1.5
      vertex 17.6168 16.5253 1.5
      vertex 17.7 16 1.5
    endloop
  endfacet
  facet normal 0 0 1
    outer loop
      vertex 15.4747 14.3832 1.5
      vertex 15.0008 14.6247 1.5
      vertex 13.8504 13.0064 1.5
    endloop
  endfacet
  facet normal 0 0 1
    outer loop
      vertex 20 20 1.5
      vertex 17.7 16 1.5
      vertex 17.6168 15.4747 1.5
    endloop
  endfacet
  facet normal 0 0 1
    outer loop
      vertex 20 20 1.5
      vertex 17.3753 15.0008 1.5
      vertex 15.3713 11.1679 1.5
    endloop
  endfacet
  facet normal 0 0 1
    outer loop
      vertex 20 20 1.5
      vertex 17.6168 15.4747 1.5
      vertex 17.3753 15.0008 1.5
    endloop
  endfacet
  facet normal 0 0 1
    outer loop
      vertex 15.4747 14.3832 1.5
      vertex 13.8504 13.0064 1.5
      vertex 16 14.3 1.5
    endloop
  endfacet
  facet normal 0 0 1
    outer loop
      vertex 15.0008 14.6247 1.5
      vertex 14.6247 15.0008 1.5
      vertex 13.8504 13.0064 1.5
    endloop
  endfacet
  facet normal 0 0 1
    outer loop
      vertex -19 0 1.5
      vertex -18.8502 2.38133 1.5
      vertex -20 20 1.5
    endloop
  endfacet
  facet normal 0 0 1
    outer loop
      vertex -14.3 16 1.5
      vertex -14.3832 15.4747 1.5
      vertex -12.1111 14.6398 1.5
    endloop
  endfacet
  facet normal 0 0 1
    outer loop
      vertex -13.8504 13.0064 1.5
      vertex -14.6247 15.0008 1.5
      vertex -15.0008 14.6247 1.5
    endloop
  endfacet
  facet normal 0 0 1
    outer loop
      vertex -13.8504 13.0064 1.5
      vertex -14.3832 15.4747 1.5
      vertex -14.6247 15.0008 1.5
    endloop
  endfacet
  facet normal 0 0 1
    outer loop
      vertex -13.8504 13.0064 1.5
      vertex -12.1111 14.6398 1.5
      vertex -14.3832 15.4747 1.5
    endloop
  endfacet
  facet normal 0 0 1
    outer loop
      vertex 13.8504 -13.0064 1.5
      vertex 14.6247 -15.0008 1.5
      vertex 15.0008 -14.6247 1.5
    endloop
  endfacet
  facet normal 0 0 1
    outer loop
      vertex 13.8504 -13.0064 1.5
      vertex 14.3832 -15.4747 1.5
      vertex 14.6247 -15.0008 1.5
    endloop
  endfacet
  facet normal 0 0 1
    outer loop
      vertex 16.5253 -17.6168 1.5
      vertex 16 -17.7 1.5
      vertex 20 -20 1.5
    endloop
  endfacet
  facet normal 0 0 1
    outer loop
      vertex 13.8504 -13.0064 1.5
      vertex 14.3 -16 1.5
      vertex 14.3832 -15.4747 1.5
    endloop
  endfacet
  facet normal 0 0 1
    outer loop
      vertex 13.8504 -13.0064 1.5
      vertex 12.1111 -14.6398 1.5
      vertex 14.3 -16 1.5
    endloop
  endfacet
  facet normal 1 0 0
    outer loop
      vertex 20 -20 1.5
      vertex 20 -20 -1.5
      vertex 20 20 -1.5
    endloop
  endfacet
  facet normal 1 0 0
    outer loop
      vertex 20 20 1.5
      vertex 20 -20 1.5
      vertex 20 20 -1.5
    endloop
  endfacet
  facet normal 0.998027 -0.0627907 0
    outer loop
      vertex -18.8502 2.38133 -1.5
      vertex -18.8502 2.38133 1.5
      vertex -19 0 1.5
    endloop
  endfacet
  facet normal 0.998027 -0.0627907 0
    outer loop
      vertex -19 0 -1.5
      vertex -18.8502 2.38133 -1.5
      vertex -19 0 1.5
    endloop
  endfacet
  facet normal 0.998027 0.0627907 0
    outer loop
      vertex -19 0 1.5
      vertex -18.8502 -2.38133 1.5
      vertex -18.8502 -2.38133 -1.5
    endloop
  endfacet
  facet normal 0.998027 0.0627907 0
    outer loop
      vertex -19 0 -1.5
      vertex -19 0 1.5
      vertex -18.8502 -2.38133 -1.5
    endloop
  endfacet
  facet normal 0.982287 -0.187381 0
    outer loop
      vertex -18.4031 4.72511 -1.5
      vertex -18.4031 4.72511 1.5
      vertex -18.8502 2.38133 1.5
    endloop
  endfacet
  facet normal 0.982287 -0.187381 0
    outer loop
      vertex -18.8502 2.38133 -1.5
      vertex -18.4031 4.72511 -1.5
      vertex -18.8502 2.38133 1.5
    endloop
  endfacet
  facet normal 0.951057 -0.309017 0
    outer loop
      vertex -17.6658 6.99437 -1.5
      vertex -17.6658 6.99437 1.5
      vertex -18.4031 4.72511 1.5
    endloop
  endfacet
  facet normal 0.951057 -0.309017 0
    outer loop
      vertex -18.4031 4.72511 -1.5
      vertex -17.6658 6.99437 -1.5
      vertex -18.4031 4.72511 1.5
    endloop
  endfacet
  facet normal 0.904827 -0.425779 0
    outer loop
      vertex -16.6498 9.15332 -1.5
      vertex -16.6498 9.15332 1.5
      vertex -17.6658 6.99437 1.5
    endloop
  endfacet
  facet normal 0.904827 -0.425779 0
    outer loop
      vertex -17.6658 6.99437 -1.5
      vertex -16.6498 9.15332 -1.5
      vertex -17.6658 6.99437 1.5
    endloop
  endfacet
  facet normal 0.844328 -0.535827 0
    outer loop
      vertex -15.3713 11.1679 -1.5
      vertex -15.3713 11.1679 1.5
      vertex -16.6498 9.15332 1.5
    endloop
  endfacet
  facet normal 0.844328 -0.535827 0
    outer loop
      vertex -16.6498 9.15332 -1.5
      vertex -15.3713 11.1679 -1.5
      vertex -16.6498 9.15332 1.5
    endloop
  endfacet
  facet normal 0.770513 -0.637424 0
    outer loop
      vertex -13.8504 13.0064 -1.5
      vertex -13.8504 13.0064 1.5
      vertex -15.3713 11.1679 1.5
    endloop
  endfacet
  facet normal 0.770513 -0.637424 0
    outer loop
      vertex -15.3713 11.1679 -1.5
      vertex -13.8504 13.0064 -1.5
      vertex -15.3713 11.1679 1.5
    endloop
  endfacet
  facet normal 0.684547 -0.728969 0
    outer loop
      vertex -12.1111 14.6398 -1.5
      vertex -12.1111 14.6398 1.5
      vertex -13.8504 13.0064 1.5
    endloop
  endfacet
  facet normal 0.684547 -0.728969 0
    outer loop
      vertex -13.8504 13.0064 -1.5
      vertex -12.1111 14.6398 -1.5
      vertex -13.8504 13.0064 1.5
    endloop
  endfacet
  facet normal 0.587785 -0.809017 0
    outer loop
      vertex -10.1807 16.0422 -1.5
      vertex -10.1807 16.0422 1.5
      vertex -12.1111 14.6398 1.5
    endloop
  endfacet
  facet normal 0.587785 -0.809017 0
    outer loop
      vertex -12.1111 14.6398 -1.5
      vertex -10.1807 16.0422 -1.5
      vertex -12.1111 14.6398 1.5
    endloop
  endfacet
  facet normal 0.481754 -0.876307 0
    outer loop
      vertex -8.08981 17.1917 -1.5
      vertex -8.08981 17.1917 1.5
      vertex -10.1807 16.0422 1.5
    endloop
  endfacet
  facet normal 0.481754 -0.876307 0
    outer loop
      vertex -10.1807 16.0422 -1.5
      vertex -8.08981 17.1917 -1.5
      vertex -10.1807 16.0422 1.5
    endloop
  endfacet
  facet normal 0.368125 -0.929776 0
    outer loop
      vertex -5.87132 18.0701 -1.5
      vertex -5.87132 18.0701 1.5
      vertex -8.08981 17.1917 1.5
    endloop
  endfacet
  facet normal 0.368125 -0.929776 0
    outer loop
      vertex -8.08981 17.1917 -1.5
      vertex -5.87132 18.0701 -1.5
      vertex -8.08981 17.1917 1.5
    endloop
  endfacet
  facet normal 0.24869 -0.968583 0
    outer loop
      vertex -3.56024 18.6635 -1.5
      vertex -3.56024 18.6635 1.5
      vertex -5.87132 18.0701 1.5
    endloop
  endfacet
  facet normal 0.24869 -0.968583 0
    outer loop
      vertex -5.87132 18.0701 -1.5
      vertex -3.56024 18.6635 -1.5
      vertex -5.87132 18.0701 1.5
    endloop
  endfacet
  facet normal 0.125333 -0.992115 0
    outer loop
      vertex -1.19302 18.9625 -1.5
      vertex -1.19302 18.9625 1.5
      vertex -3.56024 18.6635 1.5
    endloop
  endfacet
  facet normal 0.125333 -0.992115 0
    outer loop
      vertex -3.56024 18.6635 -1.5
      vertex -1.19302 18.9625 -1.5
      vertex -3.56024 18.6635 1.5
    endloop
  endfacet
  facet normal 0 -1 0
    outer loop
      vertex 1.19302 18.9625 -1.5
      vertex 1.19302 18.9625 1.5
      vertex -1.19302 18.9625 1.5
    endloop
  endfacet
  facet normal 0 -1 0
    outer loop
      vertex -1.19302 18.9625 -1.5
      vertex 1.19302 18.9625 -1.5
      vertex -1.19302 18.9625 1.5
    endloop
  endfacet
  facet normal -0.125333 -0.992115 0
    outer loop
      vertex 3.56024 18.6635 -1.5
      vertex 3.56024 18.6635 1.5
      vertex 1.19302 18.9625 1.5
    endloop
  endfacet
  facet normal -0.125333 -0.992115 0
    outer loop
      vertex 1.19302 18.9625 -1.5
      vertex 3.56024 18.6635 -1.5
      vertex 1.19302 18.9625 1.5
    endloop
  endfacet
  facet normal -0.24869 -0.968583 0
    outer loop
      vertex 5.87132 18.0701 -1.5
      vertex 5.87132 18.0701 1.5
      vertex 3.56024 18.6635 1.5
    endloop
  endfacet
  facet normal -0.24869 -0.968583 0
    outer loop
      vertex 3.56024 18.6635 -1.5
      vertex 5.87132 18.0701 -1.5
      vertex 3.56024 18.6635 1.5
    endloop
  endfacet
  facet normal -0.368125 -0.929776 0
    outer loop
      vertex 8.08981 17.1917 -1.5
      vertex 8.08981 17.1917 1.5
      vertex 5.87132 18.0701 1.5
    endloop
  endfacet
  facet normal -0.368125 -0.929776 0
    outer loop
      vertex 5.87132 18.0701 -1.5
      vertex 8.08981 17.1917 -1.5
      vertex 5.87132 18.0701 1.5
    endloop
  endfacet
  facet normal -0.481754 -0.876307 0
    outer loop
      vertex 10.1807 16.0422 -1.5
      vertex 10.1807 16.0422 1.5
      vertex 8.08981 17.1917 1.5
    endloop
  endfacet
  facet normal -0.481754 -0.876307 0
    outer loop
      vertex 8.08981 17.1917 -1.5
      vertex 10.1807 16.0422 -1.5
      vertex 8.08981 17.1917 1.5
    endloop
  endfacet
  facet normal -0.587785 -0.809017 0
    outer loop
      vertex 12.1111 14.6398 -1.5
      vertex 12.1111 14.6398 1.5
      vertex 10.1807 16.0422 1.5
    endloop
  endfacet
  facet normal -0.587785 -0.809017 0
    outer loop
      vertex 10.1807 16.0422 -1.5
      vertex 12.1111 14.6398 -1.5
      vertex 10.1807 16.0422 1.5
    endloop
  endfacet
  facet normal -0.684547 -0.728969 0
    outer loop
      vertex 13.8504 13.0064 -1.5
      vertex 13.8504 13.0064 1.5
      vertex 12.1111 14.6398 1.5
    endloop
  endfacet
  facet normal -0.684547 -0.728969 0
    outer loop
      vertex 12.1111 14.6398 -1.5
      vertex 13.8504 13.0064 -1.5
      vertex 12.1111 14.6398 1.5
    endloop
  endfacet
  facet normal -0.770513 -0.637424 0
    outer loop
      vertex 15.3713 11.1679 1.5
      vertex 13.8504 13.0064 1.5
      vertex 15.3713 11.1679 -1.5
    endloop
  endfacet
  facet normal -0.770513 -0.637424 0
    outer loop
      vertex 15.3713 11.1679 -1.5
      vertex 13.8504 13.0064 1.5
      vertex 13.8504 13.0064 -1.5
    endloop
  endfacet
  facet normal -0.844328 -0.535827 0
    outer loop
      vertex 16.6498 9.15332 1.5
      vertex 15.3713 11.1679 1.5
      vertex 16.6498 9.15332 -1.5
    endloop
  endfacet
  facet normal -0.844328 -0.535827 0
    outer loop
      vertex 16.6498 9.15332 -1.5
      vertex 15.3713 11.1679 1.5
      vertex 15.3713 11.1679 -1.5
    endloop
  endfacet
  facet normal -0.904827 -0.425779 0
    outer loop
      vertex 17.6658 6.99437 1.5
      vertex 16.6498 9.15332 1.5
      vertex 17.6658 6.99437 -1.5
    endloop
  endfacet
  facet normal -0.904827 -0.425779 0
    outer loop
      vertex 17.6658 6.99437 -1.5
      vertex 16.6498 9.15332 1.5
      vertex 16.6498 9.15332 -1.5
    endloop
  endfacet
  facet normal -0.951057 -0.309017 0
    outer loop
      vertex 18.4031 4.72511 1.5
      vertex 17.6658 6.99437 1.5
      vertex 18.4031 4.72511 -1.5
    endloop
  endfacet
  facet normal -0.951057 -0.309017 0
    outer loop
      vertex 18.4031 4.72511 -1.5
      vertex 17.6658 6.99437 1.5
      vertex 17.6658 6.99437 -1.5
    endloop
  endfacet
  facet normal -0.982287 -0.187381 0
    outer loop
      vertex 18.8502 2.38133 1.5
      vertex 18.4031 4.72511 1.5
      vertex 18.8502 2.38133 -1.5
    endloop
  endfacet
  facet normal -0.982287 -0.187381 0
    outer loop
      vertex 18.8502 2.38133 -1.5
      vertex 18.4031 4.72511 1.5
      vertex 18.4031 4.72511 -1.5
    endloop
  endfacet
  facet normal -0.998027 -0.0627907 0
    outer loop
      vertex 19 0 1.5
      vertex 18.8502 2.38133 1.5
      vertex 19 0 -1.5
    endloop
  endfacet
  facet normal -0.998027 -0.0627907 0
    outer loop
      vertex 19 0 -1.5
      vertex 18.8502 2.38133 1.5
      vertex 18.8502 2.38133 -1.5
    endloop
  endfacet
  facet normal -0.998027 0.0627907 0
    outer loop
      vertex 19 0 1.5
      vertex 19 0 -1.5
      vertex 18.8502 -2.38133 1.5
    endloop
  endfacet
  facet normal -0.998027 0.0627907 0
    outer loop
      vertex 18.8502 -2.38133 1.5
      vertex 19 0 -1.5
      vertex 18.8502 -2.38133 -1.5
    endloop
  endfacet
  facet normal -0.982287 0.187381 0
    outer loop
      vertex 18.8502 -2.38133 1.5
      vertex 18.8502 -2.38133 -1.5
      vertex 18.4031 -4.72511 1.5
    endloop
  endfacet
  facet normal -0.982287 0.187381 0
    outer loop
      vertex 18.4031 -4.72511 1.5
      vertex 18.8502 -2.38133 -1.5
      vertex 18.4031 -4.72511 -1.5
    endloop
  endfacet
  facet normal -0.951057 0.309017 0
    outer loop
      vertex 18.4031 -4.72511 1.5
      vertex 18.4031 -4.72511 -1.5
      vertex 17.6658 -6.99437 1.5
    endloop
  endfacet
  facet normal -0.951057 0.309017 0
    outer loop
      vertex 17.6658 -6.99437 1.5
      vertex 18.4031 -4.72511 -1.5
      vertex 17.6658 -6.99437 -1.5
    endloop
  endfacet
  facet normal -0.904827 0.425779 0
    outer loop
      vertex 17.6658 -6.99437 1.5
      vertex 17.6658 -6.99437 -1.5
      vertex 16.6498 -9.15332 1.5
    endloop
  endfacet
  facet normal -0.904827 0.425779 0
    outer loop
      vertex 16.6498 -9.15332 1.5
      vertex 17.6658 -6.99437 -1.5
      vertex 16.6498 -9.15332 -1.5
    endloop
  endfacet
  facet normal -0.844328 0.535827 0
    outer loop
      vertex 16.6498 -9.15332 1.5
      vertex 16.6498 -9.15332 -1.5
      vertex 15.3713 -11.1679 1.5
    endloop
  endfacet
  facet normal -0.844328 0.535827 0
    outer loop
      vertex 15.3713 -11.1679 1.5
      vertex 16.6498 -9.15332 -1.5
      vertex 15.3713 -11.1679 -1.5
    endloop
  endfacet
  facet normal -0.770513 0.637424 0
    outer loop
      vertex 15.3713 -11.1679 1.5
      vertex 15.3713 -11.1679 -1.5
      vertex 13.8504 -13.0064 1.5
    endloop
  endfacet
  facet normal -0.770513 0.637424 0
    outer loop
      vertex 13.8504 -13.0064 1.5
      vertex 15.3713 -11.1679 -1.5
      vertex 13.8504 -13.0064 -1.5
    endloop
  endfacet
  facet normal -0.684547 0.728969 0
    outer loop
      vertex 13.8504 -13.0064 1.5
      vertex 13.8504 -13.0064 -1.5
      vertex 12.1111 -14.6398 1.5
    endloop
  endfacet
  facet normal -0.684547 0.728969 0
    outer loop
      vertex 12.1111 -14.6398 1.5
      vertex 13.8504 -13.0064 -1.5
      vertex 12.1111 -14.6398 -1.5
    endloop
  endfacet
  facet normal -0.587785 0.809017 0
    outer loop
      vertex 12.1111 -14.6398 1.5
      vertex 12.1111 -14.6398 -1.5
      vertex 10.1807 -16.0422 1.5
    endloop
  endfacet
  facet normal -0.587785 0.809017 0
    outer loop
      vertex 10.1807 -16.0422 1.5
      vertex 12.1111 -14.6398 -1.5
      vertex 10.1807 -16.0422 -1.5
    endloop
  endfacet
  facet normal -0.481754 0.876307 0
    outer loop
      vertex 10.1807 -16.0422 1.5
      vertex 10.1807 -16.0422 -1.5
      vertex 8.08981 -17.1917 1.5
    endloop
  endfacet
  facet normal -0.481754 0.876307 0
    outer loop
      vertex 8.08981 -17.1917 1.5
      vertex 10.1807 -16.0422 -1.5
      vertex 8.08981 -17.1917 -1.5
    endloop
  endfacet
  facet normal -0.368125 0.929776 0
    outer loop
      vertex 8.08981 -17.1917 1.5
      vertex 8.08981 -17.1917 -1.5
      vertex 5.87132 -18.0701 1.5
    endloop
  endfacet
  facet normal -0.368125 0.929776 0
    outer loop
      vertex 5.87132 -18.0701 1.5
      vertex 8.08981 -17.1917 -1.5
      vertex 5.87132 -18.0701 -1.5
    endloop
  endfacet
  facet normal -0.24869 0.968583 0
    outer loop
      vertex 5.87132 -18.0701 1.5
      vertex 5.87132 -18.0701 -1.5
      vertex 3.56024 -18.6635 1.5
    endloop
  endfacet
  facet normal -0.24869 0.968583 0
    outer loop
      vertex 3.56024 -18.6635 1.5
      vertex 5.87132 -18.0701 -1.5
      vertex 3.56024 -18.6635 -1.5
    endloop
  endfacet
  facet normal -0.125333 0.992115 0
    outer loop
      vertex 3.56024 -18.6635 1.5
      vertex 3.56024 -18.6635 -1.5
      vertex 1.19302 -18.9625 1.5
    endloop
  endfacet
  facet normal -0.125333 0.992115 0
    outer loop
      vertex 1.19302 -18.9625 1.5
      vertex 3.56024 -18.6635 -1.5
      vertex 1.19302 -18.9625 -1.5
    endloop
  endfacet
  facet normal 0 1 0
    outer loop
      vertex 1.19302 -18.9625 1.5
      vertex 1.19302 -18.9625 -1.5
      vertex -1.19302 -18.9625 1.5
    endloop
  endfacet
  facet normal 0 1 0
    outer loop
      vertex -1.19302 -18.9625 1.5
      vertex 1.19302 -18.9625 -1.5
      vertex -1.19302 -18.9625 -1.5
    endloop
  endfacet
  facet normal 0.125333 0.992115 0
    outer loop
      vertex -1.19302 -18.9625 1.5
      vertex -1.19302 -18.9625 -1.5
      vertex -3.56024 -18.6635 1.5
    endloop
  endfacet
  facet normal 0.125333 0.992115 0
    outer loop
      vertex -3.56024 -18.6635 1.5
      vertex -1.19302 -18.9625 -1.5
      vertex -3.56024 -18.6635 -1.5
    endloop
  endfacet
  facet normal 0.24869 0.968583 0
    outer loop
      vertex -3.56024 -18.6635 1.5
      vertex -3.56024 -18.6635 -1.5
      vertex -5.87132 -18.0701 1.5
    endloop
  endfacet
  facet normal 0.24869 0.968583 0
    outer loop
      vertex -5.87132 -18.0701 1.5
      vertex -3.56024 -18.6635 -1.5
      vertex -5.87132 -18.0701 -1.5
    endloop
  endfacet
  facet normal 0.368125 0.929776 0
    outer loop
      vertex -5.87132 -18.0701 1.5
      vertex -5.87132 -18.0701 -1.5
      vertex -8.08981 -17.1917 1.5
    endloop
  endfacet
  facet normal 0.368125 0.929776 0
    outer loop
      vertex -8.08981 -17.1917 1.5
      vertex -5.87132 -18.0701 -1.5
      vertex -8.08981 -17.1917 -1.5
    endloop
  endfacet
  facet normal 0.481754 0.876307 0
    outer loop
      vertex -8.08981 -17.1917 1.5
      vertex -8.08981 -17.1917 -1.5
      vertex -10.1807 -16.0422 1.5
    endloop
  endfacet
  facet normal 0.481754 0.876307 0
    outer loop
      vertex -10.1807 -16.0422 1.5
      vertex -8.08981 -17.1917 -1.5
      vertex -10.1807 -16.0422 -1.5
    endloop
  endfacet
  facet normal 0.587785 0.809017 0
    outer loop
      vertex -10.1807 -16.0422 1.5
      vertex -10.1807 -16.0422 -1.5
      vertex -12.1111 -14.6398 1.5
    endloop
  endfacet
  facet normal 0.587785 0.809017 0
    outer loop
      vertex -12.1111 -14.6398 1.5
      vertex -10.1807 -16.0422 -1.5
      vertex -12.1111 -14.6398 -1.5
    endloop
  endfacet
  facet normal 0.684547 0.728969 0
    outer loop
      vertex -12.1111 -14.6398 1.5
      vertex -12.1111 -14.6398 -1.5
      vertex -13.8504 -13.0064 1.5
    endloop
  endfacet
  facet normal 0.684547 0.728969 0
    outer loop
      vertex -13.8504 -13.0064 1.5
      vertex -12.1111 -14.6398 -1.5
      vertex -13.8504 -13.0064 -1.5
    endloop
  endfacet
  facet normal 0.770513 0.637424 0
    outer loop
      vertex -15.3713 -11.1679 1.5
      vertex -13.8504 -13.0064 1.5
      vertex -13.8504 -13.0064 -1.5
    endloop
  endfacet
  facet normal 0.770513 0.637424 0
    outer loop
      vertex -15.3713 -11.1679 -1.5
      vertex -15.3713 -11.1679 1.5
      vertex -13.8504 -13.0064 -1.5
    endloop
  endfacet
  facet normal 0.844328 0.535827 0
    outer loop
      vertex -16.6498 -9.15332 1.5
      vertex -15.3713 -11.1679 1.5
      vertex -15.3713 -11.1679 -1.5
    endloop
  endfacet
  facet normal 0.844328 0.535827 0
    outer loop
      vertex -16.6498 -9.15332 -1.5
      vertex -16.6498 -9.15332 1.5
      vertex -15.3713 -11.1679 -1.5
    endloop
  endfacet
  facet normal 0.904827 0.425779 0
    outer loop
      vertex -17.6658 -6.99437 1.5
      vertex -16.6498 -9.15332 1.5
      vertex -16.6498 -9.15332 -1.5
    endloop
  endfacet
  facet normal 0.904827 0.425779 0
    outer loop
      vertex -17.6658 -6.99437 -1.5
      vertex -17.6658 -6.99437 1.5
      vertex -16.6498 -9.15332 -1.5
    endloop
  endfacet
  facet normal 0.951057 0.309017 0
    outer loop
      vertex -18.4031 -4.72511 1.5
      vertex -17.6658 -6.99437 1.5
      vertex -17.6658 -6.99437 -1.5
    endloop
  endfacet
  facet normal 0.951057 0.309017 0
    outer loop
      vertex -18.4031 -4.72511 -1.5
      vertex -18.4031 -4.72511 1.5
      vertex -17.6658 -6.99437 -1.5
    endloop
  endfacet
  facet normal 0.982287 0.187381 0
    outer loop
      vertex -18.8502 -2.38133 1.5
      vertex -18.4031 -4.72511 1.5
      vertex -18.4031 -4.72511 -1.5
    endloop
  endfacet
  facet normal 0.982287 0.187381 0
    outer loop
      vertex -18.8502 -2.38133 -1.5
      vertex -18.8502 -2.38133 1.5
      vertex -18.4031 -4.72511 -1.5
    endloop
  endfacet
  facet normal 0.987688 -0.156435 0
    outer loop
      vertex -17.6168 -15.4747 -1.5
      vertex -17.6168 -15.4747 1.5
      vertex -17.7 -16 1.5
    endloop
  endfacet
  facet normal 0.987688 -0.156435 0
    outer loop
      vertex -17.7 -16 -1.5
      vertex -17.6168 -15.4747 -1.5
      vertex -17.7 -16 1.5
    endloop
  endfacet
  facet normal 0.987688 0.156435 0
    outer loop
      vertex -17.7 -16 1.5
      vertex -17.6168 -16.5253 1.5
      vertex -17.6168 -16.5253 -1.5
    endloop
  endfacet
  facet normal 0.987688 0.156435 0
    outer loop
      vertex -17.7 -16 -1.5
      vertex -17.7 -16 1.5
      vertex -17.6168 -16.5253 -1.5
    endloop
  endfacet
  facet normal 0.891007 -0.45399 0
    outer loop
      vertex -17.3753 -15.0008 -1.5
      vertex -17.3753 -15.0008 1.5
      vertex -17.6168 -15.4747 1.5
    endloop
  endfacet
  facet normal 0.891007 -0.45399 0
    outer loop
      vertex -17.6168 -15.4747 -1.5
      vertex -17.3753 -15.0008 -1.5
      vertex -17.6168 -15.4747 1.5
    endloop
  endfacet
  facet normal 0.707107 -0.707107 0
    outer loop
      vertex -16.9992 -14.6247 -1.5
      vertex -16.9992 -14.6247 1.5
      vertex -17.3753 -15.0008 1.5
    endloop
  endfacet
  facet normal 0.707107 -0.707107 0
    outer loop
      vertex -17.3753 -15.0008 -1.5
      vertex -16.9992 -14.6247 -1.5
      vertex -17.3753 -15.0008 1.5
    endloop
  endfacet
  facet normal 0.45399 -0.891007 0
    outer loop
      vertex -16.5253 -14.3832 -1.5
      vertex -16.5253 -14.3832 1.5
      vertex -16.9992 -14.6247 1.5
    endloop
  endfacet
  facet normal 0.45399 -0.891007 0
    outer loop
      vertex -16.9992 -14.6247 -1.5
      vertex -16.5253 -14.3832 -1.5
      vertex -16.9992 -14.6247 1.5
    endloop
  endfacet
  facet normal 0.156435 -0.987688 0
    outer loop
      vertex -16 -14.3 -1.5
      vertex -16 -14.3 1.5
      vertex -16.5253 -14.3832 1.5
    endloop
  endfacet
  facet normal 0.156435 -0.987688 0
    outer loop
      vertex -16.5253 -14.3832 -1.5
      vertex -16 -14.3 -1.5
      vertex -16.5253 -14.3832 1.5
    endloop
  endfacet
  facet normal -0.156435 -0.987688 0
    outer loop
      vertex -15.4747 -14.3832 -1.5
      vertex -15.4747 -14.3832 1.5
      vertex -16 -14.3 1.5
    endloop
  endfacet
  facet normal -0.156435 -0.987688 0
    outer loop
      vertex -16 -14.3 -1.5
      vertex -15.4747 -14.3832 -1.5
      vertex -16 -14.3 1.5
    endloop
  endfacet
  facet normal -0.45399 -0.891007 0
    outer loop
      vertex -15.0008 -14.6247 -1.5
      vertex -15.0008 -14.6247 1.5
      vertex -15.4747 -14.3832 1.5
    endloop
  endfacet
  facet normal -0.45399 -0.891007 0
    outer loop
      vertex -15.4747 -14.3832 -1.5
      vertex -15.0008 -14.6247 -1.5
      vertex -15.4747 -14.3832 1.5
    endloop
  endfacet
  facet normal -0.707107 -0.707107 0
    outer loop
      vertex -14.6247 -15.0008 -1.5
      vertex -14.6247 -15.0008 1.5
      vertex -15.0008 -14.6247 1.5
    endloop
  endfacet
  facet normal -0.707107 -0.707107 0
    outer loop
      vertex -15.0008 -14.6247 -1.5
      vertex -14.6247 -15.0008 -1.5
      vertex -15.0008 -14.6247 1.5
    endloop
  endfacet
  facet normal -0.891007 -0.45399 0
    outer loop
      vertex -14.3832 -15.4747 1.5
      vertex -14.6247 -15.0008 1.5
      vertex -14.3832 -15.4747 -1.5
    endloop
  endfacet
  facet normal -0.891007 -0.45399 0
    outer loop
      vertex -14.3832 -15.4747 -1.5
      vertex -14.6247 -15.0008 1.5
      vertex -14.6247 -15.0008 -1.5
    endloop
  endfacet
  facet normal -0.987688 -0.156435 0
    outer loop
      vertex -14.3 -16 1.5
      vertex -14.3832 -15.4747 1.5
      vertex -14.3 -16 -1.5
    endloop
  endfacet
  facet normal -0.987688 -0.156435 0
    outer loop
      vertex -14.3 -16 -1.5
      vertex -14.3832 -15.4747 1.5
      vertex -14.3832 -15.4747 -1.5
    endloop
  endfacet
  facet normal -0.987688 0.156435 0
    outer loop
      vertex -14.3 -16 1.5
      vertex -14.3 -16 -1.5
      vertex -14.3832 -16.5253 1.5
    endloop
  endfacet
  facet normal -0.987688 0.156435 0
    outer loop
      vertex -14.3832 -16.5253 1.5
      vertex -14.3 -16 -1.5
      vertex -14.3832 -16.5253 -1.5
    endloop
  endfacet
  facet normal -0.891007 0.45399 0
    outer loop
      vertex -14.3832 -16.5253 1.5
      vertex -14.3832 -16.5253 -1.5
      vertex -14.6247 -16.9992 1.5
    endloop
  endfacet
  facet normal -0.891007 0.45399 0
    outer loop
      vertex -14.6247 -16.9992 1.5
      vertex -14.3832 -16.5253 -1.5
      vertex -14.6247 -16.9992 -1.5
    endloop
  endfacet
  facet normal -0.707107 0.707107 0
    outer loop
      vertex -14.6247 -16.9992 1.5
      vertex -14.6247 -16.9992 -1.5
      vertex -15.0008 -17.3753 1.5
    endloop
  endfacet
  facet normal -0.707107 0.707107 0
    outer loop
      vertex -15.0008 -17.3753 1.5
      vertex -14.6247 -16.9992 -1.5
      vertex -15.0008 -17.3753 -1.5
    endloop
  endfacet
  facet normal -0.45399 0.891007 0
    outer loop
      vertex -15.0008 -17.3753 1.5
      vertex -15.0008 -17.3753 -1.5
      vertex -15.4747 -17.6168 1.5
    endloop
  endfacet
  facet normal -0.45399 0.891007 0
    outer loop
      vertex -15.4747 -17.6168 1.5
      vertex -15.0008 -17.3753 -1.5
      vertex -15.4747 -17.6168 -1.5
    endloop
  endfacet
  facet normal -0.156435 0.987688 0
    outer loop
      vertex -15.4747 -17.6168 1.5
      vertex -15.4747 -17.6168 -1.5
      vertex -16 -17.7 1.5
    endloop
  endfacet
  facet normal -0.156435 0.987688 0
    outer loop
      vertex -16 -17.7 1.5
      vertex -15.4747 -17.6168 -1.5
      vertex -16 -17.7 -1.5
    endloop
  endfacet
  facet normal 0.156435 0.987688 0
    outer loop
      vertex -16 -17.7 1.5
      vertex -16 -17.7 -1.5
      vertex -16.5253 -17.6168 1.5
    endloop
  endfacet
  facet normal 0.156435 0.987688 0
    outer loop
      vertex -16.5253 -17.6168 1.5
      vertex -16 -17.7 -1.5
      vertex -16.5253 -17.6168 -1.5
    endloop
  endfacet
  facet normal 0.45399 0.891007 0
    outer loop
      vertex -16.5253 -17.6168 1.5
      vertex -16.5253 -17.6168 -1.5
      vertex -16.9992 -17.3753 1.5
    endloop
  endfacet
  facet normal 0.45399 0.891007 0
    outer loop
      vertex -16.9992 -17.3753 1.5
      vertex -16.5253 -17.6168 -1.5
      vertex -16.9992 -17.3753 -1.5
    endloop
  endfacet
  facet normal 0.707107 0.707107 0
    outer loop
      vertex -16.9992 -17.3753 1.5
      vertex -16.9992 -17.3753 -1.5
      vertex -17.3753 -16.9992 1.5
    endloop
  endfacet
  facet normal 0.707107 0.707107 0
    outer loop
      vertex -17.3753 -16.9992 1.5
      vertex -16.9992 -17.3753 -1.5
      vertex -17.3753 -16.9992 -1.5
    endloop
  endfacet
  facet normal 0.891007 0.45399 0
    outer loop
      vertex -17.6168 -16.5253 1.5
      vertex -17.3753 -16.9992 1.5
      vertex -17.3753 -16.9992 -1.5
    endloop
  endfacet
  facet normal 0.891007 0.45399 0
    outer loop
      vertex -17.6168 -16.5253 -1.5
      vertex -17.6168 -16.5253 1.5
      vertex -17.3753 -16.9992 -1.5
    endloop
  endfacet
  facet normal 0.987688 -0.156435 0
    outer loop
      vertex -17.6168 16.5253 -1.5
      vertex -17.6168 16.5253 1.5
      vertex -17.7 16 1.5
    endloop
  endfacet
  facet normal 0.987688 -0.156435 0
    outer loop
      vertex -17.7 16 -1.5
      vertex -17.6168 16.5253 -1.5
      vertex -17.7 16 1.5
    endloop
  endfacet
  facet normal 0.987688 0.156435 0
    outer loop
      vertex -17.7 16 1.5
      vertex -17.6168 15.4747 1.5
      vertex -17.6168 15.4747 -1.5
    endloop
  endfacet
  facet normal 0.987688 0.156435 0
    outer loop
      vertex -17.7 16 -1.5
      vertex -17.7 16 1.5
      vertex -17.6168 15.4747 -1.5
    endloop
  endfacet
  facet normal 0.891007 -0.45399 0
    outer loop
      vertex -17.3753 16.9992 -1.5
      vertex -17.3753 16.9992 1.5
      vertex -17.6168 16.5253 1.5
    endloop
  endfacet
  facet normal 0.891007 -0.45399 0
    outer loop
      vertex -17.6168 16.5253 -1.5
      vertex -17.3753 16.9992 -1.5
      vertex -17.6168 16.5253 1.5
    endloop
  endfacet
  facet normal 0.707107 -0.707107 0
    outer loop
      vertex -16.9992 17.3753 -1.5
      vertex -16.9992 17.3753 1.5
      vertex -17.3753 16.9992 1.5
    endloop
  endfacet
  facet normal 0.707107 -0.707107 0
    outer loop
      vertex -17.3753 16.9992 -1.5
      vertex -16.9992 17.3753 -1.5
      vertex -17.3753 16.9992 1.5
    endloop
  endfacet
  facet normal 0.45399 -0.891007 0
    outer loop
      vertex -16.5253 17.6168 -1.5
      vertex -16.5253 17.6168 1.5
      vertex -16.9992 17.3753 1.5
    endloop
  endfacet
  facet normal 0.45399 -0.891007 0
    outer loop
      vertex -16.9992 17.3753 -1.5
      vertex -16.5253 17.6168 -1.5
      vertex -16.9992 17.3753 1.5
    endloop
  endfacet
  facet normal 0.156435 -0.987688 0
    outer loop
      vertex -16 17.7 -1.5
      vertex -16 17.7 1.5
      vertex -16.5253 17.6168 1.5
    endloop
  endfacet
  facet normal 0.156435 -0.987688 0
    outer loop
      vertex -16.5253 17.6168 -1.5
      vertex -16 17.7 -1.5
      vertex -16.5253 17.6168 1.5
    endloop
  endfacet
  facet normal -0.156435 -0.987688 0
    outer loop
      vertex -15.4747 17.6168 -1.5
      vertex -15.4747 17.6168 1.5
      vertex -16 17.7 1.5
    endloop
  endfacet
  facet normal -0.156435 -0.987688 0
    outer loop
      vertex -16 17.7 -1.5
      vertex -15.4747 17.6168 -1.5
      vertex -16 17.7 1.5
    endloop
  endfacet
  facet normal -0.45399 -0.891007 0
    outer loop
      vertex -15.0008 17.3753 -1.5
      vertex -15.0008 17.3753 1.5
      vertex -15.4747 17.6168 1.5
    endloop
  endfacet
  facet normal -0.45399 -0.891007 0
    outer loop
      vertex -15.4747 17.6168 -1.5
      vertex -15.0008 17.3753 -1.5
      vertex -15.4747 17.6168 1.5
    endloop
  endfacet
  facet normal -0.707107 -0.707107 0
    outer loop
      vertex -14.6247 16.9992 -1.5
      vertex -14.6247 16.9992 1.5
      vertex -15.0008 17.3753 1.5
    endloop
  endfacet
  facet normal -0.707107 -0.707107 0
    outer loop
      vertex -15.0008 17.3753 -1.5
      vertex -14.6247 16.9992 -1.5
      vertex -15.0008 17.3753 1.5
    endloop
  endfacet
  facet normal -0.891007 -0.45399 0
    outer loop
      vertex -14.3832 16.5253 1.5
      vertex -14.6247 16.9992 1.5
      vertex -14.3832 16.5253 -1.5
    endloop
  endfacet
  facet normal -0.891007 -0.45399 0
    outer loop
      vertex -14.3832 16.5253 -1.5
      vertex -14.6247 16.9992 1.5
      vertex -14.6247 16.9992 -1.5
    endloop
  endfacet
  facet normal -0.987688 -0.156435 0
    outer loop
      vertex -14.3 16 1.5
      vertex -14.3832 16.5253 1.5
      vertex -14.3 16 -1.5
    endloop
  endfacet
  facet normal -0.987688 -0.156435 0
    outer loop
      vertex -14.3 16 -1.5
      vertex -14.3832 16.5253 1.5
      vertex -14.3832 16.5253 -1.5
    endloop
  endfacet
  facet normal -0.987688 0.156435 0
    outer loop
      vertex -14.3 16 1.5
      vertex -14.3 16 -1.5
      vertex -14.3832 15.4747 1.5
    endloop
  endfacet
  facet normal -0.987688 0.156435 0
    outer loop
      vertex -14.3832 15.4747 1.5
      vertex -14.3 16 -1.5
      vertex -14.3832 15.4747 -1.5
    endloop
  endfacet
  facet normal -0.891007 0.45399 0
    outer loop
      vertex -14.3832 15.4747 1.5
      vertex -14.3832 15.4747 -1.5
      vertex -14.6247 15.0008 1.5
    endloop
  endfacet
  facet normal -0.891007 0.45399 0
    outer loop
      vertex -14.6247 15.0008 1.5
      vertex -14.3832 15.4747 -1.5
      vertex -14.6247 15.0008 -1.5
    endloop
  endfacet
  facet normal -0.707107 0.707107 0
    outer loop
      vertex -14.6247 15.0008 1.5
      vertex -14.6247 15.0008 -1.5
      vertex -15.0008 14.6247 1.5
    endloop
  endfacet
  facet normal -0.707107 0.707107 0
    outer loop
      vertex -15.0008 14.6247 1.5
      vertex -14.6247 15.0008 -1.5
      vertex -15.0008 14.6247 -1.5
    endloop
  endfacet
  facet normal -0.45399 0.891007 0
    outer loop
      vertex -15.0008 14.6247 1.5
      vertex -15.0008 14.6247 -1.5
      vertex -15.4747 14.3832 1.5
    endloop
  endfacet
  facet normal -0.45399 0.891007 0
    outer loop
      vertex -15.4747 14.3832 1.5
      vertex -15.0008 14.6247 -1.5
      vertex -15.4747 14.3832 -1.5
    endloop
  endfacet
  facet normal -0.156435 0.987688 0
    outer loop
      vertex -15.4747 14.3832 1.5
      vertex -15.4747 14.3832 -1.5
      vertex -16 14.3 1.5
    endloop
  endfacet
  facet normal -0.156435 0.987688 0
    outer loop
      vertex -16 14.3 1.5
      vertex -15.4747 14.3832 -1.5
      vertex -16 14.3 -1.5
    endloop
  endfacet
  facet normal 0.156435 0.987688 0
    outer loop
      vertex -16 14.3 1.5
      vertex -16 14.3 -1.5
      vertex -16.5253 14.3832 1.5
    endloop
  endfacet
  facet normal 0.156435 0.987688 0
    outer loop
      vertex -16.5253 14.3832 1.5
      vertex -16 14.3 -1.5
      vertex -16.5253 14.3832 -1.5
    endloop
  endfacet
  facet normal 0.45399 0.891007 0
    outer loop
      vertex -16.5253 14.3832 1.5
      vertex -16.5253 14.3832 -1.5
      vertex -16.9992 14.6247 1.5
    endloop
  endfacet
  facet normal 0.45399 0.891007 0
    outer loop
      vertex -16.9992 14.6247 1.5
      vertex -16.5253 14.3832 -1.5
      vertex -16.9992 14.6247 -1.5
    endloop
  endfacet
  facet normal 0.707107 0.707107 0
    outer loop
      vertex -16.9992 14.6247 1.5
      vertex -16.9992 14.6247 -1.5
      vertex -17.3753 15.0008 1.5
    endloop
  endfacet
  facet normal 0.707107 0.707107 0
    outer loop
      vertex -17.3753 15.0008 1.5
      vertex -16.9992 14.6247 -1.5
      vertex -17.3753 15.0008 -1.5
    endloop
  endfacet
  facet normal 0.891007 0.45399 0
    outer loop
      vertex -17.6168 15.4747 1.5
      vertex -17.3753 15.0008 1.5
      vertex -17.3753 15.0008 -1.5
    endloop
  endfacet
  facet normal 0.891007 0.45399 0
    outer loop
      vertex -17.6168 15.4747 -1.5
      vertex -17.6168 15.4747 1.5
      vertex -17.3753 15.0008 -1.5
    endloop
  endfacet
  facet normal 0.987688 -0.156435 0
    outer loop
      vertex 14.3832 -15.4747 -1.5
      vertex 14.3832 -15.4747 1.5
      vertex 14.3 -16 1.5
    endloop
  endfacet
  facet normal 0.987688 -0.156435 0
    outer loop
      vertex 14.3 -16 -1.5
      vertex 14.3832 -15.4747 -1.5
      vertex 14.3 -16 1.5
    endloop
  endfacet
  facet normal 0.987688 0.156435 0
    outer loop
      vertex 14.3 -16 1.5
      vertex 14.3832 -16.5253 1.5
      vertex 14.3832 -16.5253 -1.5
    endloop
  endfacet
  facet normal 0.987688 0.156435 0
    outer loop
      vertex 14.3 -16 -1.5
      vertex 14.3 -16 1.5
      vertex 14.3832 -16.5253 -1.5
    endloop
  endfacet
  facet normal 0.891007 -0.45399 0
    outer loop
      vertex 14.6247 -15.0008 -1.5
      vertex 14.6247 -15.0008 1.5
      vertex 14.3832 -15.4747 1.5
    endloop
  endfacet
  facet normal 0.891007 -0.45399 0
    outer loop
      vertex 14.3832 -15.4747 -1.5
      vertex 14.6247 -15.0008 -1.5
      vertex 14.3832 -15.4747 1.5
    endloop
  endfacet
  facet normal 0.707107 -0.707107 0
    outer loop
      vertex 15.0008 -14.6247 -1.5
      vertex 15.0008 -14.6247 1.5
      vertex 14.6247 -15.0008 1.5
    endloop
  endfacet
  facet normal 0.707107 -0.707107 0
    outer loop
      vertex 14.6247 -15.0008 -1.5
      vertex 15.0008 -14.6247 -1.5
      vertex 14.6247 -15.0008 1.5
    endloop
  endfacet
  facet normal 0.45399 -0.891007 0
    outer loop
      vertex 15.4747 -14.3832 -1.5
      vertex 15.4747 -14.3832 1.5
      vertex 15.0008 -14.6247 1.5
    endloop
  endfacet
  facet normal 0.45399 -0.891007 0
    outer loop
      vertex 15.0008 -14.6247 -1.5
      vertex 15.4747 -14.3832 -1.5
      vertex 15.0008 -14.6247 1.5
    endloop
  endfacet
  facet normal 0.156435 -0.987688 0
    outer loop
      vertex 16 -14.3 -1.5
      vertex 16 -14.3 1.5
      vertex 15.4747 -14.3832 1.5
    endloop
  endfacet
  facet normal 0.156435 -0.987688 0
    outer loop
      vertex 15.4747 -14.3832 -1.5
      vertex 16 -14.3 -1.5
      vertex 15.4747 -14.3832 1.5
    endloop
  endfacet
  facet normal -0.156435 -0.987688 0
    outer loop
      vertex 16.5253 -14.3832 -1.5
      vertex 16.5253 -14.3832 1.5
      vertex 16 -14.3 1.5
    endloop
  endfacet
  facet normal -0.156435 -0.987688 0
    outer loop
      vertex 16 -14.3 -1.5
      vertex 16.5253 -14.3832 -1.5
      vertex 16 -14.3 1.5
    endloop
  endfacet
  facet normal -0.45399 -0.891007 0
    outer loop
      vertex 16.9992 -14.6247 -1.5
      vertex 16.9992 -14.6247 1.5
      vertex 16.5253 -14.3832 1.5
    endloop
  endfacet
  facet normal -0.45399 -0.891007 0
    outer loop
      vertex 16.5253 -14.3832 -1.5
      vertex 16.9992 -14.6247 -1.5
      vertex 16.5253 -14.3832 1.5
    endloop
  endfacet
  facet normal -0.707107 -0.707107 0
    outer loop
      vertex 17.3753 -15.0008 -1.5
      vertex 17.3753 -15.0008 1.5
      vertex 16.9992 -14.6247 1.5
    endloop
  endfacet
  facet normal -0.707107 -0.707107 0
    outer loop
      vertex 16.9992 -14.6247 -1.5
      vertex 17.3753 -15.0008 -1.5
      vertex 16.9992 -14.6247 1.5
    endloop
  endfacet
  facet normal -0.891007 -0.45399 0
    outer loop
      vertex 17.6168 -15.4747 1.5
      vertex 17.3753 -15.0008 1.5
      vertex 17.6168 -15.4747 -1.5
    endloop
  endfacet
  facet normal -0.891007 -0.45399 0
    outer loop
      vertex 17.6168 -15.4747 -1.5
      vertex 17.3753 -15.0008 1.5
      vertex 17.3753 -15.0008 -1.5
    endloop
  endfacet
  facet normal -0.987688 -0.156435 0
    outer loop
      vertex 17.7 -16 1.5
      vertex 17.6168 -15.4747 1.5
      vertex 17.7 -16 -1.5
    endloop
  endfacet
  facet normal -0.987688 -0.156435 0
    outer loop
      vertex 17.7 -16 -1.5
      vertex 17.6168 -15.4747 1.5
      vertex 17.6168 -15.4747 -1.5
    endloop
  endfacet
  facet normal -0.987688 0.156435 0
    outer loop
      vertex 17.7 -16 1.5
      vertex 17.7 -16 -1.5
      vertex 17.6168 -16.5253 1.5
    endloop
  endfacet
  facet normal -0.987688 0.156435 0
    outer loop
      vertex 17.6168 -16.5253 1.5
      vertex 17.7 -16 -1.5
      vertex 17.6168 -16.5253 -1.5
    endloop
  endfacet
  facet normal -0.891007 0.45399 0
    outer loop
      vertex 17.6168 -16.5253 1.5
      vertex 17.6168 -16.5253 -1.5
      vertex 17.3753 -16.9992 1.5
    endloop
  endfacet
  facet normal -0.891007 0.45399 0
    outer loop
      vertex 17.3753 -16.9992 1.5
      vertex 17.6168 -16.5253 -1.5
      vertex 17.3753 -16.9992 -1.5
    endloop
  endfacet
  facet normal -0.707107 0.707107 0
    outer loop
      vertex 17.3753 -16.9992 1.5
      vertex 17.3753 -16.9992 -1.5
      vertex 16.9992 -17.3753 1.5
    endloop
  endfacet
  facet normal -0.707107 0.707107 0
    outer loop
      vertex 16.9992 -17.3753 1.5
      vertex 17.3753 -16.9992 -1.5
      vertex 16.9992 -17.3753 -1.5
    endloop
  endfacet
  facet normal -0.45399 0.891007 0
    outer loop
      vertex 16.9992 -17.3753 1.5
      vertex 16.9992 -17.3753 -1.5
      vertex 16.5253 -17.6168 1.5
    endloop
  endfacet
  facet normal -0.45399 0.891007 0
    outer loop
      vertex 16.5253 -17.6168 1.5
      vertex 16.9992 -17.3753 -1.5
      vertex 16.5253 -17.6168 -1.5
    endloop
  endfacet
  facet normal -0.156435 0.987688 0
    outer loop
      vertex 16.5253 -17.6168 1.5
      vertex 16.5253 -17.6168 -1.5
      vertex 16 -17.7 1.5
    endloop
  endfacet
  facet normal -0.156435 0.987688 0
    outer loop
      vertex 16 -17.7 1.5
      vertex 16.5253 -17.6168 -1.5
      vertex 16 -17.7 -1.5
    endloop
  endfacet
  facet normal 0.156435 0.987688 0
    outer loop
      vertex 16 -17.7 1.5
      vertex 16 -17.7 -1.5
      vertex 15.4747 -17.6168 1.5
    endloop
  endfacet
  facet normal 0.156435 0.987688 0
    outer loop
      vertex 15.4747 -17.6168 1.5
      vertex 16 -17.7 -1.5
      vertex 15.4747 -17.6168 -1.5
    endloop
  endfacet
  facet normal 0.45399 0.891007 0
    outer loop
      vertex 15.4747 -17.6168 1.5
      vertex 15.4747 -17.6168 -1.5
      vertex 15.0008 -17.3753 1.5
    endloop
  endfacet
  facet normal 0.45399 0.891007 0
    outer loop
      vertex 15.0008 -17.3753 1.5
      vertex 15.4747 -17.6168 -1.5
      vertex 15.0008 -17.3753 -1.5
    endloop
  endfacet
  facet normal 0.707107 0.707107 0
    outer loop
      vertex 15.0008 -17.3753 1.5
      vertex 15.0008 -17.3753 -1.5
      vertex 14.6247 -16.9992 1.5
    endloop
  endfacet
  facet normal 0.707107 0.707107 0
    outer loop
      vertex 14.6247 -16.9992 1.5
      vertex 15.0008 -17.3753 -1.5
      vertex 14.6247 -16.9992 -1.5
    endloop
  endfacet
  facet normal 0.891007 0.45399 0
    outer loop
      vertex 14.3832 -16.5253 1.5
      vertex 14.6247 -16.9992 1.5
      vertex 14.6247 -16.9992 -1.5
    endloop
  endfacet
  facet normal 0.891007 0.45399 0
    outer loop
      vertex 14.3832 -16.5253 -1.5
      vertex 14.3832 -16.5253 1.5
      vertex 14.6247 -16.9992 -1.5
    endloop
  endfacet
  facet normal 0.987688 -0.156435 0
    outer loop
      vertex 14.3832 16.5253 -1.5
      vertex 14.3832 16.5253 1.5
      vertex 14.3 16 1.5
    endloop
  endfacet
  facet normal 0.987688 -0.156435 0
    outer loop
      vertex 14.3 16 -1.5
      vertex 14.3832 16.5253 -1.5
      vertex 14.3 16 1.5
    endloop
  endfacet
  facet normal 0.987688 0.156435 0
    outer loop
      vertex 14.3 16 1.5
      vertex 14.3832 15.4747 1.5
      vertex 14.3832 15.4747 -1.5
    endloop
  endfacet
  facet normal 0.987688 0.156435 0
    outer loop
      vertex 14.3 16 -1.5
      vertex 14.3 16 1.5
      vertex 14.3832 15.4747 -1.5
    endloop
  endfacet
  facet normal 0.891007 -0.45399 0
    outer loop
      vertex 14.6247 16.9992 -1.5
      vertex 14.6247 16.9992 1.5
      vertex 14.3832 16.5253 1.5
    endloop
  endfacet
  facet normal 0.891007 -0.45399 0
    outer loop
      vertex 14.3832 16.5253 -1.5
      vertex 14.6247 16.9992 -1.5
      vertex 14.3832 16.5253 1.5
    endloop
  endfacet
  facet normal 0.707107 -0.707107 0
    outer loop
      vertex 15.0008 17.3753 -1.5
      vertex 15.0008 17.3753 1.5
      vertex 14.6247 16.9992 1.5
    endloop
  endfacet
  facet normal 0.707107 -0.707107 0
    outer loop
      vertex 14.6247 16.9992 -1.5
      vertex 15.0008 17.3753 -1.5
      vertex 14.6247 16.9992 1.5
    endloop
  endfacet
  facet normal 0.45399 -0.891007 0
    outer loop
      vertex 15.4747 17.6168 -1.5
      vertex 15.4747 17.6168 1.5
      vertex 15.0008 17.3753 1.5
    endloop
  endfacet
  facet normal 0.45399 -0.891007 0
    outer loop
      vertex 15.0008 17.3753 -1.5
      vertex 15.4747 17.6168 -1.5
      vertex 15.0008 17.3753 1.5
    endloop
  endfacet
  facet normal 0.156435 -0.987688 0
    outer loop
      vertex 16 17.7 -1.5
      vertex 16 17.7 1.5
      vertex 15.4747 17.6168 1.5
    endloop
  endfacet
  facet normal 0.156435 -0.987688 0
    outer loop
      vertex 15.4747 17.6168 -1.5
      vertex 16 17.7 -1.5
      vertex 15.4747 17.6168 1.5
    endloop
  endfacet
  facet normal -0.156435 -0.987688 0
    outer loop
      vertex 16.5253 17.6168 -1.5
      vertex 16.5253 17.6168 1.5
      vertex 16 17.7 1.5
    endloop
  endfacet
  facet normal -0.156435 -0.987688 0
    outer loop
      vertex 16 17.7 -1.5
      vertex 16.5253 17.6168 -1.5
      vertex 16 17.7 1.5
    endloop
  endfacet
  facet normal -0.45399 -0.891007 0
    outer loop
      vertex 16.9992 17.3753 -1.5
      vertex 16.9992 17.3753 1.5
      vertex 16.5253 17.6168 1.5
    endloop
  endfacet
  facet normal -0.45399 -0.891007 0
    outer loop
      vertex 16.5253 17.6168 -1.5
      vertex 16.9992 17.3753 -1.5
      vertex 16.5253 17.6168 1.5
    endloop
  endfacet
  facet normal -0.707107 -0.707107 0
    outer loop
      vertex 17.3753 16.9992 -1.5
      vertex 17.3753 16.9992 1.5
      vertex 16.9992 17.3753 1.5
    endloop
  endfacet
  facet normal -0.707107 -0.707107 0
    outer loop
      vertex 16.9992 17.3753 -1.5
      vertex 17.3753 16.9992 -1.5
      vertex 16.9992 17.3753 1.5
    endloop
  endfacet
  facet normal -0.891007 -0.45399 0
    outer loop
      vertex 17.6168 16.5253 1.5
      vertex 17.3753 16.9992 1.5
      vertex 17.6168 16.5253 -1.5
    endloop
  endfacet
  facet normal -0.891007 -0.45399 0
    outer loop
      vertex 17.6168 16.5253 -1.5
      vertex 17.3753 16.9992 1.5
      vertex 17.3753 16.9992 -1.5
    endloop
  endfacet
  facet normal -0.987688 -0.156435 0
    outer loop
      vertex 17.7 16 1.5
      vertex 17.6168 16.5253 1.5
      vertex 17.7 16 -1.5
    endloop
  endfacet
  facet normal -0.987688 -0.156435 0
    outer loop
      vertex 17.7 16 -1.5
      vertex 17.6168 16.5253 1.5
      vertex 17.6168 16.5253 -1.5
    endloop
  endfacet
  facet normal -0.987688 0.156435 0
    outer loop
      vertex 17.7 16 1.5
      vertex 17.7 16 -1.5
      vertex 17.6168 15.4747 1.5
    endloop
  endfacet
  facet normal -0.987688 0.156435 0
    outer loop
      vertex 17.6168 15.4747 1.5
      vertex 17.7 16 -1.5
      vertex 17.6168 15.4747 -1.5
    endloop
  endfacet
  facet normal -0.891007 0.45399 0
    outer loop
      vertex 17.6168 15.4747 1.5
      vertex 17.6168 15.4747 -1.5
      vertex 17.3753 15.0008 1.5
    endloop
  endfacet
  facet normal -0.891007 0.45399 0
    outer loop
      vertex 17.3753 15.0008 1.5
      vertex 17.6168 15.4747 -1.5
      vertex 17.3753 15.0008 -1.5
    endloop
  endfacet
  facet normal -0.707107 0.707107 0
    outer loop
      vertex 17.3753 15.0008 1.5
      vertex 17.3753 15.0008 -1.5
      vertex 16.9992 14.6247 1.5
    endloop
  endfacet
  facet normal -0.707107 0.707107 0
    outer loop
      vertex 16.9992 14.6247 1.5
      vertex 17.3753 15.0008 -1.5
      vertex 16.9992 14.6247 -1.5
    endloop
  endfacet
  facet normal -0.45399 0.891007 0
    outer loop
      vertex 16.9992 14.6247 1.5
      vertex 16.9992 14.6247 -1.5
      vertex 16.5253 14.3832 1.5
    endloop
  endfacet
  facet normal -0.45399 0.891007 0
    outer loop
      vertex 16.5253 14.3832 1.5
      vertex 16.9992 14.6247 -1.5
      vertex 16.5253 14.3832 -1.5
    endloop
  endfacet
  facet normal -0.156435 0.987688 0
    outer loop
      vertex 16.5253 14.3832 1.5
      vertex 16.5253 14.3832 -1.5
      vertex 16 14.3 1.5
    endloop
  endfacet
  facet normal -0.156435 0.987688 0
    outer loop
      vertex 16 14.3 1.5
      vertex 16.5253 14.3832 -1.5
      vertex 16 14.3 -1.5
    endloop
  endfacet
  facet normal 0.156435 0.987688 0
    outer loop
      vertex 16 14.3 1.5
      vertex 16 14.3 -1.5
      vertex 15.4747 14.3832 1.5
    endloop
  endfacet
  facet normal 0.156435 0.987688 0
    outer loop
      vertex 15.4747 14.3832 1.5
      vertex 16 14.3 -1.5
      vertex 15.4747 14.3832 -1.5
    endloop
  endfacet
  facet normal 0.45399 0.891007 0
    outer loop
      vertex 15.4747 14.3832 1.5
      vertex 15.4747 14.3832 -1.5
      vertex 15.0008 14.6247 1.5
    endloop
  endfacet
  facet normal 0.45399 0.891007 0
    outer loop
      vertex 15.0008 14.6247 1.5
      vertex 15.4747 14.3832 -1.5
      vertex 15.0008 14.6247 -1.5
    endloop
  endfacet
  facet normal 0.707107 0.707107 0
    outer loop
      vertex 15.0008 14.6247 1.5
      vertex 15.0008 14.6247 -1.5
      vertex 14.6247 15.0008 1.5
    endloop
  endfacet
  facet normal 0.707107 0.707107 0
    outer loop
      vertex 14.6247 15.0008 1.5
      vertex 15.0008 14.6247 -1.5
      vertex 14.6247 15.0008 -1.5
    endloop
  endfacet
  facet normal 0.891007 0.45399 0
    outer loop
      vertex 14.3832 15.4747 1.5
      vertex 14.6247 15.0008 1.5
      vertex 14.6247 15.0008 -1.5
    endloop
  endfacet
  facet normal 0.891007 0.45399 0
    outer loop
      vertex 14.3832 15.4747 -1.5
      vertex 14.3832 15.4747 1.5
      vertex 14.6247 15.0008 -1.5
    endloop
  endfacet
endsolid OpenSCAD_Model
