solid OpenSCAD_Model
  facet normal 0 0 -1
    outer loop
      vertex -8.3 0 -3.5
      vertex -8.19074 1.03956 -3.5
      vertex -8.19074 -1.03956 -3.5
    endloop
  endfacet
  facet normal 0 0 -1
    outer loop
      vertex -8.19074 -1.03956 -3.5
      vertex -8.19074 1.03956 -3.5
      vertex -7.86773 2.03368 -3.5
    endloop
  endfacet
  facet normal 0 0 -1
    outer loop
      vertex -8.19074 -1.03956 -3.5
      vertex -7.86773 2.03368 -3.5
      vertex -7.34508 2.93893 -3.5
    endloop
  endfacet
  facet normal 0 0 -1
    outer loop
      vertex -8.19074 -1.03956 -3.5
      vertex -7.34508 2.93893 -3.5
      vertex -6.64565 3.71572 -3.5
    endloop
  endfacet
  facet normal 0 0 -1
    outer loop
      vertex -8.19074 -1.03956 -3.5
      vertex -6.64565 3.71572 -3.5
      vertex -5.8 4.33013 -3.5
    endloop
  endfacet
  facet normal 0 0 -1
    outer loop
      vertex -8.19074 -1.03956 -3.5
      vertex -5.8 4.33013 -3.5
      vertex -4.84508 4.75528 -3.5
    endloop
  endfacet
  facet normal 0 0 -1
    outer loop
      vertex -8.19074 -1.03956 -3.5
      vertex -4.84508 4.75528 -3.5
      vertex -3.82264 4.97261 -3.5
    endloop
  endfacet
  facet normal 0 0 -1
    outer loop
      vertex -8.19074 -1.03956 -3.5
      vertex -3.82264 4.97261 -3.5
      vertex -3.3 4.97261 -3.5
    endloop
  endfacet
  facet normal 0 0 -1
    outer loop
      vertex -3.3 4.97261 -3.5
      vertex -3.3 5 -3.5
      vertex 3.3 5 -3.5
    endloop
  endfacet
  facet normal 0 0 -1
    outer loop
      vertex -4.67533 0.999235 -3.5
      vertex -8.19074 -1.03956 -3.5
      vertex -4.43752 1.26335 -3.5
    endloop
  endfacet
  facet normal 0 0 -1
    outer loop
      vertex 0.456698 -1.64158 -3.5
      vertex -1.74697 -0.691452 -3.5
      vertex -1.63715 -0.35345 -3.5
    endloop
  endfacet
  facet normal 0 0 -1
    outer loop
      vertex -2.77467 1.6168 -3.5
      vertex 3.82264 4.97261 -3.5
      vertex 4.84508 4.75528 -3.5
    endloop
  endfacet
  facet normal 0 0 -1
    outer loop
      vertex -2.45 1.47224 -3.5
      vertex 4.84508 4.75528 -3.5
      vertex 5.8 4.33013 -3.5
    endloop
  endfacet
  facet normal 0 0 -1
    outer loop
      vertex 0.456698 -1.64158 -3.5
      vertex -2.16248 -1.26335 -3.5
      vertex -1.92467 -0.999235 -3.5
    endloop
  endfacet
  facet normal 0 0 -1
    outer loop
      vertex 6.1433 1.64158 -3.5
      vertex 7.86773 2.03368 -3.5
      vertex 8.19074 1.03956 -3.5
    endloop
  endfacet
  facet normal 0 0 -1
    outer loop
      vertex 6.1433 1.64158 -3.5
      vertex 8.19074 -1.03956 -3.5
      vertex 6.1433 -1.64158 -3.5
    endloop
  endfacet
  facet normal 0 0 -1
    outer loop
      vertex 6.1433 -1.64158 -3.5
      vertex 8.19074 -1.03956 -3.5
      vertex 7.86773 -2.03368 -3.5
    endloop
  endfacet
  facet normal 0 0 -1
    outer loop
      vertex 3.3 -3.28316 -3.5
      vertex 6.64565 -3.71572 -3.5
      vertex 5.8 -4.33013 -3.5
    endloop
  endfacet
  facet normal 0 0 -1
    outer loop
      vertex -8.19074 -1.03956 -3.5
      vertex 5.8 -4.33013 -3.5
      vertex 4.84508 -4.75528 -3.5
    endloop
  endfacet
  facet normal 0 0 -1
    outer loop
      vertex -8.19074 -1.03956 -3.5
      vertex 4.84508 -4.75528 -3.5
      vertex 3.82264 -4.97261 -3.5
    endloop
  endfacet
  facet normal 0 0 -1
    outer loop
      vertex -8.19074 -1.03956 -3.5
      vertex 3.82264 -4.97261 -3.5
      vertex 3.3 -4.97261 -3.5
    endloop
  endfacet
  facet normal 0 0 -1
    outer loop
      vertex -8.19074 -1.03956 -3.5
      vertex 3.3 -4.97261 -3.5
      vertex 3.3 -5 -3.5
    endloop
  endfacet
  facet normal 0 0 -1
    outer loop
      vertex -3.3 -4.97261 -3.5
      vertex 3.3 -5 -3.5
      vertex -3.3 -5 -3.5
    endloop
  endfacet
  facet normal 0 0 -1
    outer loop
      vertex -8.19074 -1.03956 -3.5
      vertex 3.3 -5 -3.5
      vertex -3.3 -4.97261 -3.5
    endloop
  endfacet
  facet normal 0 0 -1
    outer loop
      vertex 3.3 3.28316 -3.5
      vertex 5.8 4.33013 -3.5
      vertex 6.64565 3.71572 -3.5
    endloop
  endfacet
  facet normal 0 0 -1
    outer loop
      vertex -5 0 -3.5
      vertex -8.19074 -1.03956 -3.5
      vertex -4.96285 0.35345 -3.5
    endloop
  endfacet
  facet normal 0 0 -1
    outer loop
      vertex -8.19074 -1.03956 -3.5
      vertex -3.82264 -4.97261 -3.5
      vertex -4.84508 -4.75528 -3.5
    endloop
  endfacet
  facet normal 0 0 -1
    outer loop
      vertex -8.19074 -1.03956 -3.5
      vertex -4.84508 -4.75528 -3.5
      vertex -5.8 -4.33013 -3.5
    endloop
  endfacet
  facet normal 0 0 -1
    outer loop
      vertex -8.19074 -1.03956 -3.5
      vertex -5.8 -4.33013 -3.5
      vertex -6.64565 -3.71572 -3.5
    endloop
  endfacet
  facet normal 0 0 -1
    outer loop
      vertex -8.19074 -1.03956 -3.5
      vertex -6.64565 -3.71572 -3.5
      vertex -7.34508 -2.93893 -3.5
    endloop
  endfacet
  facet normal 0 0 -1
    outer loop
      vertex -8.19074 -1.03956 -3.5
      vertex -7.34508 -2.93893 -3.5
      vertex -7.86773 -2.03368 -3.5
    endloop
  endfacet
  facet normal 0 0 -1
    outer loop
      vertex -2.45 1.47224 -3.5
      vertex 5.8 4.33013 -3.5
      vertex -2.16248 1.26335 -3.5
    endloop
  endfacet
  facet normal 0 0 -1
    outer loop
      vertex -4.96285 0.35345 -3.5
      vertex -8.19074 -1.03956 -3.5
      vertex -4.85303 0.691452 -3.5
    endloop
  endfacet
  facet normal 0 0 -1
    outer loop
      vertex -4.85303 -0.691452 -3.5
      vertex -8.19074 -1.03956 -3.5
      vertex -4.96285 -0.35345 -3.5
    endloop
  endfacet
  facet normal 0 0 -1
    outer loop
      vertex -4.67533 -0.999235 -3.5
      vertex -8.19074 -1.03956 -3.5
      vertex -4.85303 -0.691452 -3.5
    endloop
  endfacet
  facet normal 0 0 -1
    outer loop
      vertex -4.15 -1.47224 -3.5
      vertex -8.19074 -1.03956 -3.5
      vertex -4.43752 -1.26335 -3.5
    endloop
  endfacet
  facet normal 0 0 -1
    outer loop
      vertex -8.19074 -1.03956 -3.5
      vertex -3.82533 -1.6168 -3.5
      vertex -3.4777 -1.69069 -3.5
    endloop
  endfacet
  facet normal 0 0 -1
    outer loop
      vertex 6.1433 -1.64158 -3.5
      vertex 7.34508 -2.93893 -3.5
      vertex 6.64565 -3.71572 -3.5
    endloop
  endfacet
  facet normal 0 0 -1
    outer loop
      vertex 6.1433 -1.64158 -3.5
      vertex 6.64565 -3.71572 -3.5
      vertex 3.3 -3.28316 -3.5
    endloop
  endfacet
  facet normal 0 0 -1
    outer loop
      vertex -2.45 -1.47224 -3.5
      vertex 0.456698 -1.64158 -3.5
      vertex -2.77467 -1.6168 -3.5
    endloop
  endfacet
  facet normal 0 0 -1
    outer loop
      vertex -3.82533 -1.6168 -3.5
      vertex -8.19074 -1.03956 -3.5
      vertex -4.15 -1.47224 -3.5
    endloop
  endfacet
  facet normal 0 0 -1
    outer loop
      vertex 6.1433 1.64158 -3.5
      vertex 8.3 0 -3.5
      vertex 8.19074 -1.03956 -3.5
    endloop
  endfacet
  facet normal 0 0 -1
    outer loop
      vertex -4.43752 -1.26335 -3.5
      vertex -8.19074 -1.03956 -3.5
      vertex -4.67533 -0.999235 -3.5
    endloop
  endfacet
  facet normal 0 0 -1
    outer loop
      vertex -1.92467 0.999235 -3.5
      vertex 0.456699 1.64158 -3.5
      vertex -1.74697 0.691452 -3.5
    endloop
  endfacet
  facet normal 0 0 -1
    outer loop
      vertex 0.456698 -1.64158 -3.5
      vertex -1.92467 -0.999235 -3.5
      vertex -1.74697 -0.691452 -3.5
    endloop
  endfacet
  facet normal 0 0 -1
    outer loop
      vertex -2.16248 1.26335 -3.5
      vertex 5.8 4.33013 -3.5
      vertex 3.3 3.28316 -3.5
    endloop
  endfacet
  facet normal 0 0 -1
    outer loop
      vertex -2.16248 1.26335 -3.5
      vertex 3.3 3.28316 -3.5
      vertex -1.92467 0.999235 -3.5
    endloop
  endfacet
  facet normal 0 0 -1
    outer loop
      vertex -4.96285 -0.35345 -3.5
      vertex -8.19074 -1.03956 -3.5
      vertex -5 0 -3.5
    endloop
  endfacet
  facet normal 0 0 -1
    outer loop
      vertex -3.1223 1.69069 -3.5
      vertex 3.3 4.97261 -3.5
      vertex 3.82264 4.97261 -3.5
    endloop
  endfacet
  facet normal 0 0 -1
    outer loop
      vertex -2.77467 1.6168 -3.5
      vertex 4.84508 4.75528 -3.5
      vertex -2.45 1.47224 -3.5
    endloop
  endfacet
  facet normal 0 0 -1
    outer loop
      vertex 0.456698 -1.64158 -3.5
      vertex -1.6 0 -3.5
      vertex -1.63715 0.35345 -3.5
    endloop
  endfacet
  facet normal 0 0 -1
    outer loop
      vertex -3.1223 1.69069 -3.5
      vertex 3.3 5 -3.5
      vertex 3.3 4.97261 -3.5
    endloop
  endfacet
  facet normal 0 0 -1
    outer loop
      vertex -3.3 4.97261 -3.5
      vertex 3.3 5 -3.5
      vertex -3.1223 1.69069 -3.5
    endloop
  endfacet
  facet normal 0 0 -1
    outer loop
      vertex -3.3 4.97261 -3.5
      vertex -3.1223 1.69069 -3.5
      vertex -3.4777 1.69069 -3.5
    endloop
  endfacet
  facet normal 0 0 -1
    outer loop
      vertex -3.3 4.97261 -3.5
      vertex -3.4777 1.69069 -3.5
      vertex -3.82533 1.6168 -3.5
    endloop
  endfacet
  facet normal 0 0 -1
    outer loop
      vertex -3.3 4.97261 -3.5
      vertex -3.82533 1.6168 -3.5
      vertex -4.15 1.47224 -3.5
    endloop
  endfacet
  facet normal 0 0 -1
    outer loop
      vertex -3.3 4.97261 -3.5
      vertex -4.15 1.47224 -3.5
      vertex -8.19074 -1.03956 -3.5
    endloop
  endfacet
  facet normal 0 0 -1
    outer loop
      vertex -4.15 1.47224 -3.5
      vertex -4.43752 1.26335 -3.5
      vertex -8.19074 -1.03956 -3.5
    endloop
  endfacet
  facet normal 0 0 -1
    outer loop
      vertex -4.85303 0.691452 -3.5
      vertex -8.19074 -1.03956 -3.5
      vertex -4.67533 0.999235 -3.5
    endloop
  endfacet
  facet normal 0 0 -1
    outer loop
      vertex 0.456698 -1.64158 -3.5
      vertex -1.63715 -0.35345 -3.5
      vertex -1.6 0 -3.5
    endloop
  endfacet
  facet normal 0 0 -1
    outer loop
      vertex 0.456699 1.64158 -3.5
      vertex -1.92467 0.999235 -3.5
      vertex 3.3 3.28316 -3.5
    endloop
  endfacet
  facet normal 0 0 -1
    outer loop
      vertex 3.3 -3.28316 -3.5
      vertex -8.19074 -1.03956 -3.5
      vertex -3.4777 -1.69069 -3.5
    endloop
  endfacet
  facet normal 0 0 -1
    outer loop
      vertex 3.3 -3.28316 -3.5
      vertex -3.4777 -1.69069 -3.5
      vertex -3.1223 -1.69069 -3.5
    endloop
  endfacet
  facet normal 0 0 -1
    outer loop
      vertex 6.1433 -1.64158 -3.5
      vertex 7.86773 -2.03368 -3.5
      vertex 7.34508 -2.93893 -3.5
    endloop
  endfacet
  facet normal 0 0 -1
    outer loop
      vertex -8.19074 -1.03956 -3.5
      vertex 3.3 -3.28316 -3.5
      vertex 5.8 -4.33013 -3.5
    endloop
  endfacet
  facet normal 0 0 -1
    outer loop
      vertex 3.3 -3.28316 -3.5
      vertex -2.77467 -1.6168 -3.5
      vertex 0.456698 -1.64158 -3.5
    endloop
  endfacet
  facet normal 0 0 -1
    outer loop
      vertex 3.3 -3.28316 -3.5
      vertex -3.1223 -1.69069 -3.5
      vertex -2.77467 -1.6168 -3.5
    endloop
  endfacet
  facet normal 0 0 -1
    outer loop
      vertex -3.1223 1.69069 -3.5
      vertex 3.82264 4.97261 -3.5
      vertex -2.77467 1.6168 -3.5
    endloop
  endfacet
  facet normal 0 0 -1
    outer loop
      vertex -3.82264 -4.97261 -3.5
      vertex -8.19074 -1.03956 -3.5
      vertex -3.3 -4.97261 -3.5
    endloop
  endfacet
  facet normal 0 0 -1
    outer loop
      vertex 0.456698 -1.64158 -3.5
      vertex -2.45 -1.47224 -3.5
      vertex -2.16248 -1.26335 -3.5
    endloop
  endfacet
  facet normal 0 0 -1
    outer loop
      vertex 0.456698 -1.64158 -3.5
      vertex -1.63715 0.35345 -3.5
      vertex -1.74697 0.691452 -3.5
    endloop
  endfacet
  facet normal 0 0 -1
    outer loop
      vertex 0.456698 -1.64158 -3.5
      vertex -1.74697 0.691452 -3.5
      vertex 0.456699 1.64158 -3.5
    endloop
  endfacet
  facet normal 0 0 -1
    outer loop
      vertex 3.3 3.28316 -3.5
      vertex 6.64565 3.71572 -3.5
      vertex 7.34508 2.93893 -3.5
    endloop
  endfacet
  facet normal 0 0 -1
    outer loop
      vertex 3.3 3.28316 -3.5
      vertex 7.34508 2.93893 -3.5
      vertex 7.86773 2.03368 -3.5
    endloop
  endfacet
  facet normal 0 0 -1
    outer loop
      vertex 3.3 3.28316 -3.5
      vertex 7.86773 2.03368 -3.5
      vertex 6.1433 1.64158 -3.5
    endloop
  endfacet
  facet normal 0 0 -1
    outer loop
      vertex 6.1433 1.64158 -3.5
      vertex 8.19074 1.03956 -3.5
      vertex 8.3 0 -3.5
    endloop
  endfacet
  facet normal -0.994522 0.104529 0
    outer loop
      vertex -8.3 0 -3.5
      vertex -8.3 0 0
      vertex -8.19074 1.03956 -3.5
    endloop
  endfacet
  facet normal -0.994522 0.104529 0
    outer loop
      vertex -8.19074 1.03956 -3.5
      vertex -8.3 0 0
      vertex -8.19074 1.03956 0
    endloop
  endfacet
  facet normal -0.994522 -0.104529 0
    outer loop
      vertex -8.3 0 -3.5
      vertex -8.19074 -1.03956 -3.5
      vertex -8.3 0 0
    endloop
  endfacet
  facet normal -0.994522 -0.104529 0
    outer loop
      vertex -8.3 0 0
      vertex -8.19074 -1.03956 -3.5
      vertex -8.19074 -1.03956 0
    endloop
  endfacet
  facet normal -0.951056 -0.309017 0
    outer loop
      vertex -8.19074 -1.03956 -3.5
      vertex -7.86773 -2.03368 -3.5
      vertex -8.19074 -1.03956 0
    endloop
  endfacet
  facet normal -0.951056 -0.309017 0
    outer loop
      vertex -8.19074 -1.03956 0
      vertex -7.86773 -2.03368 -3.5
      vertex -7.86773 -2.03368 0
    endloop
  endfacet
  facet normal -0.866026 -0.5 0
    outer loop
      vertex -7.86773 -2.03368 -3.5
      vertex -7.34508 -2.93893 -3.5
      vertex -7.86773 -2.03368 0
    endloop
  endfacet
  facet normal -0.866026 -0.5 0
    outer loop
      vertex -7.86773 -2.03368 0
      vertex -7.34508 -2.93893 -3.5
      vertex -7.34508 -2.93893 0
    endloop
  endfacet
  facet normal -0.743145 -0.669131 0
    outer loop
      vertex -7.34508 -2.93893 -3.5
      vertex -6.64565 -3.71572 -3.5
      vertex -7.34508 -2.93893 0
    endloop
  endfacet
  facet normal -0.743145 -0.669131 0
    outer loop
      vertex -7.34508 -2.93893 0
      vertex -6.64565 -3.71572 -3.5
      vertex -6.64565 -3.71572 0
    endloop
  endfacet
  facet normal -0.587785 -0.809017 0
    outer loop
      vertex -6.64565 -3.71572 0
      vertex -6.64565 -3.71572 -3.5
      vertex -5.8 -4.33013 -3.5
    endloop
  endfacet
  facet normal -0.587785 -0.809017 0
    outer loop
      vertex -5.8 -4.33013 0
      vertex -6.64565 -3.71572 0
      vertex -5.8 -4.33013 -3.5
    endloop
  endfacet
  facet normal -0.406737 -0.913545 0
    outer loop
      vertex -5.8 -4.33013 0
      vertex -5.8 -4.33013 -3.5
      vertex -4.84508 -4.75528 -3.5
    endloop
  endfacet
  facet normal -0.406737 -0.913545 0
    outer loop
      vertex -4.84508 -4.75528 0
      vertex -5.8 -4.33013 0
      vertex -4.84508 -4.75528 -3.5
    endloop
  endfacet
  facet normal -0.207911 -0.978148 0
    outer loop
      vertex -4.84508 -4.75528 0
      vertex -4.84508 -4.75528 -3.5
      vertex -3.82264 -4.97261 -3.5
    endloop
  endfacet
  facet normal -0.207911 -0.978148 0
    outer loop
      vertex -3.82264 -4.97261 0
      vertex -4.84508 -4.75528 0
      vertex -3.82264 -4.97261 -3.5
    endloop
  endfacet
  facet normal 0 -1 0
    outer loop
      vertex -3.82264 -4.97261 0
      vertex -3.82264 -4.97261 -3.5
      vertex -3.3 -4.97261 -3.5
    endloop
  endfacet
  facet normal 0 -1 0
    outer loop
      vertex -3.3 -4.97261 0
      vertex -3.82264 -4.97261 0
      vertex -3.3 -4.97261 -3.5
    endloop
  endfacet
  facet normal -1 0 0
    outer loop
      vertex -3.3 -5 -3.5
      vertex -3.3 -5 0
      vertex -3.3 -4.97261 -3.5
    endloop
  endfacet
  facet normal -1 0 0
    outer loop
      vertex -3.3 -4.97261 -3.5
      vertex -3.3 -5 0
      vertex -3.3 -4.97261 0
    endloop
  endfacet
  facet normal 0 -1 0
    outer loop
      vertex -3.3 -5 0
      vertex -3.3 -5 -3.5
      vertex 3.3 -5 -3.5
    endloop
  endfacet
  facet normal 0 -1 0
    outer loop
      vertex 0 -5 0
      vertex -3.3 -5 0
      vertex 3.3 -5 -3.5
    endloop
  endfacet
  facet normal 0 -1 0
    outer loop
      vertex 3.3 -5 3.5
      vertex 0 -5 0
      vertex 3.3 -5 -3.5
    endloop
  endfacet
  facet normal 0 -1 0
    outer loop
      vertex 0 -5 3.5
      vertex 0 -5 0
      vertex 3.3 -5 3.5
    endloop
  endfacet
  facet normal 1 0 0
    outer loop
      vertex 3.3 -5 3.5
      vertex 3.3 -5 -3.5
      vertex 3.3 -4.97261 -3.5
    endloop
  endfacet
  facet normal 1 0 0
    outer loop
      vertex 3.3 -4.97261 3.5
      vertex 3.3 -5 3.5
      vertex 3.3 -4.97261 -3.5
    endloop
  endfacet
  facet normal 0 -1 0
    outer loop
      vertex 3.3 -4.97261 3.5
      vertex 3.3 -4.97261 -3.5
      vertex 3.82264 -4.97261 -3.5
    endloop
  endfacet
  facet normal 0 -1 0
    outer loop
      vertex 3.82264 -4.97261 3.5
      vertex 3.3 -4.97261 3.5
      vertex 3.82264 -4.97261 -3.5
    endloop
  endfacet
  facet normal 0.207911 -0.978148 0
    outer loop
      vertex 3.82264 -4.97261 3.5
      vertex 3.82264 -4.97261 -3.5
      vertex 4.84508 -4.75528 -3.5
    endloop
  endfacet
  facet normal 0.207911 -0.978148 0
    outer loop
      vertex 4.84508 -4.75528 3.5
      vertex 3.82264 -4.97261 3.5
      vertex 4.84508 -4.75528 -3.5
    endloop
  endfacet
  facet normal 0.406737 -0.913545 0
    outer loop
      vertex 4.84508 -4.75528 3.5
      vertex 4.84508 -4.75528 -3.5
      vertex 5.8 -4.33013 -3.5
    endloop
  endfacet
  facet normal 0.406737 -0.913545 0
    outer loop
      vertex 5.8 -4.33013 3.5
      vertex 4.84508 -4.75528 3.5
      vertex 5.8 -4.33013 -3.5
    endloop
  endfacet
  facet normal 0.587785 -0.809017 0
    outer loop
      vertex 5.8 -4.33013 3.5
      vertex 5.8 -4.33013 -3.5
      vertex 6.64565 -3.71572 -3.5
    endloop
  endfacet
  facet normal 0.587785 -0.809017 0
    outer loop
      vertex 6.64565 -3.71572 3.5
      vertex 5.8 -4.33013 3.5
      vertex 6.64565 -3.71572 -3.5
    endloop
  endfacet
  facet normal 0.743145 -0.669131 0
    outer loop
      vertex 6.64565 -3.71572 3.5
      vertex 6.64565 -3.71572 -3.5
      vertex 7.34508 -2.93893 -3.5
    endloop
  endfacet
  facet normal 0.743145 -0.669131 0
    outer loop
      vertex 7.34508 -2.93893 3.5
      vertex 6.64565 -3.71572 3.5
      vertex 7.34508 -2.93893 -3.5
    endloop
  endfacet
  facet normal 0.866026 -0.5 0
    outer loop
      vertex 7.34508 -2.93893 3.5
      vertex 7.34508 -2.93893 -3.5
      vertex 7.86773 -2.03368 -3.5
    endloop
  endfacet
  facet normal 0.866026 -0.5 0
    outer loop
      vertex 7.86773 -2.03368 3.5
      vertex 7.34508 -2.93893 3.5
      vertex 7.86773 -2.03368 -3.5
    endloop
  endfacet
  facet normal 0.951056 -0.309017 0
    outer loop
      vertex 7.86773 -2.03368 3.5
      vertex 7.86773 -2.03368 -3.5
      vertex 8.19074 -1.03956 -3.5
    endloop
  endfacet
  facet normal 0.951056 -0.309017 0
    outer loop
      vertex 8.19074 -1.03956 3.5
      vertex 7.86773 -2.03368 3.5
      vertex 8.19074 -1.03956 -3.5
    endloop
  endfacet
  facet normal 0.994522 -0.104529 0
    outer loop
      vertex 8.19074 -1.03956 3.5
      vertex 8.19074 -1.03956 -3.5
      vertex 8.3 0 -3.5
    endloop
  endfacet
  facet normal 0.994522 -0.104529 0
    outer loop
      vertex 8.3 0 3.5
      vertex 8.19074 -1.03956 3.5
      vertex 8.3 0 -3.5
    endloop
  endfacet
  facet normal 0.994522 0.104529 0
    outer loop
      vertex 8.3 0 -3.5
      vertex 8.19074 1.03956 -3.5
      vertex 8.19074 1.03956 3.5
    endloop
  endfacet
  facet normal 0.994522 0.104529 0
    outer loop
      vertex 8.3 0 3.5
      vertex 8.3 0 -3.5
      vertex 8.19074 1.03956 3.5
    endloop
  endfacet
  facet normal 0.951056 0.309017 0
    outer loop
      vertex 8.19074 1.03956 -3.5
      vertex 7.86773 2.03368 -3.5
      vertex 7.86773 2.03368 3.5
    endloop
  endfacet
  facet normal 0.951056 0.309017 0
    outer loop
      vertex 8.19074 1.03956 3.5
      vertex 8.19074 1.03956 -3.5
      vertex 7.86773 2.03368 3.5
    endloop
  endfacet
  facet normal 0.866026 0.5 0
    outer loop
      vertex 7.86773 2.03368 -3.5
      vertex 7.34508 2.93893 -3.5
      vertex 7.34508 2.93893 3.5
    endloop
  endfacet
  facet normal 0.866026 0.5 0
    outer loop
      vertex 7.86773 2.03368 3.5
      vertex 7.86773 2.03368 -3.5
      vertex 7.34508 2.93893 3.5
    endloop
  endfacet
  facet normal 0.743145 0.669131 0
    outer loop
      vertex 7.34508 2.93893 -3.5
      vertex 6.64565 3.71572 -3.5
      vertex 6.64565 3.71572 3.5
    endloop
  endfacet
  facet normal 0.743145 0.669131 0
    outer loop
      vertex 7.34508 2.93893 3.5
      vertex 7.34508 2.93893 -3.5
      vertex 6.64565 3.71572 3.5
    endloop
  endfacet
  facet normal 0.587785 0.809017 0
    outer loop
      vertex 5.8 4.33013 -3.5
      vertex 5.8 4.33013 3.5
      vertex 6.64565 3.71572 -3.5
    endloop
  endfacet
  facet normal 0.587785 0.809017 0
    outer loop
      vertex 6.64565 3.71572 -3.5
      vertex 5.8 4.33013 3.5
      vertex 6.64565 3.71572 3.5
    endloop
  endfacet
  facet normal 0.406737 0.913545 0
    outer loop
      vertex 4.84508 4.75528 -3.5
      vertex 4.84508 4.75528 3.5
      vertex 5.8 4.33013 -3.5
    endloop
  endfacet
  facet normal 0.406737 0.913545 0
    outer loop
      vertex 5.8 4.33013 -3.5
      vertex 4.84508 4.75528 3.5
      vertex 5.8 4.33013 3.5
    endloop
  endfacet
  facet normal 0.207911 0.978148 0
    outer loop
      vertex 3.82264 4.97261 -3.5
      vertex 3.82264 4.97261 3.5
      vertex 4.84508 4.75528 -3.5
    endloop
  endfacet
  facet normal 0.207911 0.978148 0
    outer loop
      vertex 4.84508 4.75528 -3.5
      vertex 3.82264 4.97261 3.5
      vertex 4.84508 4.75528 3.5
    endloop
  endfacet
  facet normal 0 1 0
    outer loop
      vertex 3.3 4.97261 -3.5
      vertex 3.3 4.97261 3.5
      vertex 3.82264 4.97261 -3.5
    endloop
  endfacet
  facet normal 0 1 0
    outer loop
      vertex 3.82264 4.97261 -3.5
      vertex 3.3 4.97261 3.5
      vertex 3.82264 4.97261 3.5
    endloop
  endfacet
  facet normal 1 0 0
    outer loop
      vertex 3.3 4.97261 3.5
      vertex 3.3 4.97261 -3.5
      vertex 3.3 5 -3.5
    endloop
  endfacet
  facet normal 1 0 0
    outer loop
      vertex 3.3 5 3.5
      vertex 3.3 4.97261 3.5
      vertex 3.3 5 -3.5
    endloop
  endfacet
  facet normal 0 1 0
    outer loop
      vertex -3.3 5 -3.5
      vertex -3.3 5 0
      vertex 3.3 5 -3.5
    endloop
  endfacet
  facet normal 0 1 0
    outer loop
      vertex 3.3 5 -3.5
      vertex -3.3 5 0
      vertex 0 5 0
    endloop
  endfacet
  facet normal 0 1 0
    outer loop
      vertex 3.3 5 -3.5
      vertex 0 5 0
      vertex 0 5 3.5
    endloop
  endfacet
  facet normal 0 1 0
    outer loop
      vertex 3.3 5 -3.5
      vertex 0 5 3.5
      vertex 3.3 5 3.5
    endloop
  endfacet
  facet normal -1 0 0
    outer loop
      vertex -3.3 4.97261 -3.5
      vertex -3.3 4.97261 0
      vertex -3.3 5 -3.5
    endloop
  endfacet
  facet normal -1 0 0
    outer loop
      vertex -3.3 5 -3.5
      vertex -3.3 4.97261 0
      vertex -3.3 5 0
    endloop
  endfacet
  facet normal 0 1 0
    outer loop
      vertex -3.82264 4.97261 -3.5
      vertex -3.82264 4.97261 0
      vertex -3.3 4.97261 -3.5
    endloop
  endfacet
  facet normal 0 1 0
    outer loop
      vertex -3.3 4.97261 -3.5
      vertex -3.82264 4.97261 0
      vertex -3.3 4.97261 0
    endloop
  endfacet
  facet normal -0.207911 0.978148 0
    outer loop
      vertex -4.84508 4.75528 -3.5
      vertex -4.84508 4.75528 0
      vertex -3.82264 4.97261 -3.5
    endloop
  endfacet
  facet normal -0.207911 0.978148 0
    outer loop
      vertex -3.82264 4.97261 -3.5
      vertex -4.84508 4.75528 0
      vertex -3.82264 4.97261 0
    endloop
  endfacet
  facet normal -0.406737 0.913545 0
    outer loop
      vertex -5.8 4.33013 -3.5
      vertex -5.8 4.33013 0
      vertex -4.84508 4.75528 -3.5
    endloop
  endfacet
  facet normal -0.406737 0.913545 0
    outer loop
      vertex -4.84508 4.75528 -3.5
      vertex -5.8 4.33013 0
      vertex -4.84508 4.75528 0
    endloop
  endfacet
  facet normal -0.587785 0.809017 0
    outer loop
      vertex -6.64565 3.71572 -3.5
      vertex -6.64565 3.71572 0
      vertex -5.8 4.33013 -3.5
    endloop
  endfacet
  facet normal -0.587785 0.809017 0
    outer loop
      vertex -5.8 4.33013 -3.5
      vertex -6.64565 3.71572 0
      vertex -5.8 4.33013 0
    endloop
  endfacet
  facet normal -0.743145 0.669131 0
    outer loop
      vertex -7.34508 2.93893 -3.5
      vertex -7.34508 2.93893 0
      vertex -6.64565 3.71572 -3.5
    endloop
  endfacet
  facet normal -0.743145 0.669131 0
    outer loop
      vertex -6.64565 3.71572 -3.5
      vertex -7.34508 2.93893 0
      vertex -6.64565 3.71572 0
    endloop
  endfacet
  facet normal -0.866026 0.5 0
    outer loop
      vertex -7.86773 2.03368 -3.5
      vertex -7.86773 2.03368 0
      vertex -7.34508 2.93893 -3.5
    endloop
  endfacet
  facet normal -0.866026 0.5 0
    outer loop
      vertex -7.34508 2.93893 -3.5
      vertex -7.86773 2.03368 0
      vertex -7.34508 2.93893 0
    endloop
  endfacet
  facet normal -0.951056 0.309017 0
    outer loop
      vertex -8.19074 1.03956 -3.5
      vertex -8.19074 1.03956 0
      vertex -7.86773 2.03368 -3.5
    endloop
  endfacet
  facet normal -0.951056 0.309017 0
    outer loop
      vertex -7.86773 2.03368 -3.5
      vertex -8.19074 1.03956 0
      vertex -7.86773 2.03368 0
    endloop
  endfacet
  facet normal 0.994522 -0.104528 0
    outer loop
      vertex -4.96285 0.35345 -3.5
      vertex -4.96285 0.35345 -1.7
      vertex -5 0 -1.7
    endloop
  endfacet
  facet normal 0.994522 -0.104528 0
    outer loop
      vertex -5 0 -3.5
      vertex -4.96285 0.35345 -3.5
      vertex -5 0 -1.7
    endloop
  endfacet
  facet normal 0.994522 0.104528 0
    outer loop
      vertex -5 0 -1.7
      vertex -4.96285 -0.35345 -1.7
      vertex -4.96285 -0.35345 -3.5
    endloop
  endfacet
  facet normal 0.994522 0.104528 0
    outer loop
      vertex -5 0 -3.5
      vertex -5 0 -1.7
      vertex -4.96285 -0.35345 -3.5
    endloop
  endfacet
  facet normal 0.951056 -0.309018 0
    outer loop
      vertex -4.85303 0.691452 -3.5
      vertex -4.85303 0.691452 -1.7
      vertex -4.96285 0.35345 -1.7
    endloop
  endfacet
  facet normal 0.951056 -0.309018 0
    outer loop
      vertex -4.96285 0.35345 -3.5
      vertex -4.85303 0.691452 -3.5
      vertex -4.96285 0.35345 -1.7
    endloop
  endfacet
  facet normal 0.866026 -0.499999 0
    outer loop
      vertex -4.67533 0.999235 -3.5
      vertex -4.67533 0.999235 -1.7
      vertex -4.85303 0.691452 -1.7
    endloop
  endfacet
  facet normal 0.866026 -0.499999 0
    outer loop
      vertex -4.85303 0.691452 -3.5
      vertex -4.67533 0.999235 -3.5
      vertex -4.85303 0.691452 -1.7
    endloop
  endfacet
  facet normal 0.743144 -0.669131 0
    outer loop
      vertex -4.43752 1.26335 -3.5
      vertex -4.43752 1.26335 -1.7
      vertex -4.67533 0.999235 -1.7
    endloop
  endfacet
  facet normal 0.743144 -0.669131 0
    outer loop
      vertex -4.67533 0.999235 -3.5
      vertex -4.43752 1.26335 -3.5
      vertex -4.67533 0.999235 -1.7
    endloop
  endfacet
  facet normal 0.587785 -0.809017 0
    outer loop
      vertex -4.15 1.47224 -3.5
      vertex -4.15 1.47224 -1.7
      vertex -4.43752 1.26335 -1.7
    endloop
  endfacet
  facet normal 0.587785 -0.809017 0
    outer loop
      vertex -4.43752 1.26335 -3.5
      vertex -4.15 1.47224 -3.5
      vertex -4.43752 1.26335 -1.7
    endloop
  endfacet
  facet normal 0.406737 -0.913545 0
    outer loop
      vertex -3.82533 1.6168 -3.5
      vertex -3.82533 1.6168 -1.7
      vertex -4.15 1.47224 -1.7
    endloop
  endfacet
  facet normal 0.406737 -0.913545 0
    outer loop
      vertex -4.15 1.47224 -3.5
      vertex -3.82533 1.6168 -3.5
      vertex -4.15 1.47224 -1.7
    endloop
  endfacet
  facet normal 0.207911 -0.978148 0
    outer loop
      vertex -3.4777 1.69069 -3.5
      vertex -3.4777 1.69069 -1.7
      vertex -3.82533 1.6168 -1.7
    endloop
  endfacet
  facet normal 0.207911 -0.978148 0
    outer loop
      vertex -3.82533 1.6168 -3.5
      vertex -3.4777 1.69069 -3.5
      vertex -3.82533 1.6168 -1.7
    endloop
  endfacet
  facet normal 0 -1 0
    outer loop
      vertex -3.1223 1.69069 -3.5
      vertex -3.1223 1.69069 -1.7
      vertex -3.4777 1.69069 -1.7
    endloop
  endfacet
  facet normal 0 -1 0
    outer loop
      vertex -3.4777 1.69069 -3.5
      vertex -3.1223 1.69069 -3.5
      vertex -3.4777 1.69069 -1.7
    endloop
  endfacet
  facet normal -0.207911 -0.978148 0
    outer loop
      vertex -2.77467 1.6168 -3.5
      vertex -2.77467 1.6168 -1.7
      vertex -3.1223 1.69069 -1.7
    endloop
  endfacet
  facet normal -0.207911 -0.978148 0
    outer loop
      vertex -3.1223 1.69069 -3.5
      vertex -2.77467 1.6168 -3.5
      vertex -3.1223 1.69069 -1.7
    endloop
  endfacet
  facet normal -0.406737 -0.913545 0
    outer loop
      vertex -2.45 1.47224 -3.5
      vertex -2.45 1.47224 -1.7
      vertex -2.77467 1.6168 -1.7
    endloop
  endfacet
  facet normal -0.406737 -0.913545 0
    outer loop
      vertex -2.77467 1.6168 -3.5
      vertex -2.45 1.47224 -3.5
      vertex -2.77467 1.6168 -1.7
    endloop
  endfacet
  facet normal -0.587785 -0.809017 0
    outer loop
      vertex -2.16248 1.26335 -3.5
      vertex -2.16248 1.26335 -1.7
      vertex -2.45 1.47224 -1.7
    endloop
  endfacet
  facet normal -0.587785 -0.809017 0
    outer loop
      vertex -2.45 1.47224 -3.5
      vertex -2.16248 1.26335 -3.5
      vertex -2.45 1.47224 -1.7
    endloop
  endfacet
  facet normal -0.743144 -0.669131 0
    outer loop
      vertex -1.92467 0.999235 -1.7
      vertex -2.16248 1.26335 -1.7
      vertex -1.92467 0.999235 -3.5
    endloop
  endfacet
  facet normal -0.743144 -0.669131 0
    outer loop
      vertex -1.92467 0.999235 -3.5
      vertex -2.16248 1.26335 -1.7
      vertex -2.16248 1.26335 -3.5
    endloop
  endfacet
  facet normal -0.866026 -0.499999 0
    outer loop
      vertex -1.74697 0.691452 -1.7
      vertex -1.92467 0.999235 -1.7
      vertex -1.74697 0.691452 -3.5
    endloop
  endfacet
  facet normal -0.866026 -0.499999 0
    outer loop
      vertex -1.74697 0.691452 -3.5
      vertex -1.92467 0.999235 -1.7
      vertex -1.92467 0.999235 -3.5
    endloop
  endfacet
  facet normal -0.951056 -0.309018 0
    outer loop
      vertex -1.63715 0.35345 -1.7
      vertex -1.74697 0.691452 -1.7
      vertex -1.63715 0.35345 -3.5
    endloop
  endfacet
  facet normal -0.951056 -0.309018 0
    outer loop
      vertex -1.63715 0.35345 -3.5
      vertex -1.74697 0.691452 -1.7
      vertex -1.74697 0.691452 -3.5
    endloop
  endfacet
  facet normal -0.994522 -0.104528 0
    outer loop
      vertex -1.6 0 -1.7
      vertex -1.63715 0.35345 -1.7
      vertex -1.6 0 -3.5
    endloop
  endfacet
  facet normal -0.994522 -0.104528 0
    outer loop
      vertex -1.6 0 -3.5
      vertex -1.63715 0.35345 -1.7
      vertex -1.63715 0.35345 -3.5
    endloop
  endfacet
  facet normal -0.994522 0.104528 0
    outer loop
      vertex -1.6 0 -1.7
      vertex -1.6 0 -3.5
      vertex -1.63715 -0.35345 -1.7
    endloop
  endfacet
  facet normal -0.994522 0.104528 0
    outer loop
      vertex -1.63715 -0.35345 -1.7
      vertex -1.6 0 -3.5
      vertex -1.63715 -0.35345 -3.5
    endloop
  endfacet
  facet normal -0.951056 0.309018 0
    outer loop
      vertex -1.63715 -0.35345 -1.7
      vertex -1.63715 -0.35345 -3.5
      vertex -1.74697 -0.691452 -1.7
    endloop
  endfacet
  facet normal -0.951056 0.309018 0
    outer loop
      vertex -1.74697 -0.691452 -1.7
      vertex -1.63715 -0.35345 -3.5
      vertex -1.74697 -0.691452 -3.5
    endloop
  endfacet
  facet normal -0.866026 0.499999 0
    outer loop
      vertex -1.74697 -0.691452 -1.7
      vertex -1.74697 -0.691452 -3.5
      vertex -1.92467 -0.999235 -1.7
    endloop
  endfacet
  facet normal -0.866026 0.499999 0
    outer loop
      vertex -1.92467 -0.999235 -1.7
      vertex -1.74697 -0.691452 -3.5
      vertex -1.92467 -0.999235 -3.5
    endloop
  endfacet
  facet normal -0.743144 0.669131 0
    outer loop
      vertex -1.92467 -0.999235 -1.7
      vertex -1.92467 -0.999235 -3.5
      vertex -2.16248 -1.26335 -1.7
    endloop
  endfacet
  facet normal -0.743144 0.669131 0
    outer loop
      vertex -2.16248 -1.26335 -1.7
      vertex -1.92467 -0.999235 -3.5
      vertex -2.16248 -1.26335 -3.5
    endloop
  endfacet
  facet normal -0.587785 0.809017 0
    outer loop
      vertex -2.16248 -1.26335 -1.7
      vertex -2.16248 -1.26335 -3.5
      vertex -2.45 -1.47224 -1.7
    endloop
  endfacet
  facet normal -0.587785 0.809017 0
    outer loop
      vertex -2.45 -1.47224 -1.7
      vertex -2.16248 -1.26335 -3.5
      vertex -2.45 -1.47224 -3.5
    endloop
  endfacet
  facet normal -0.406737 0.913545 0
    outer loop
      vertex -2.45 -1.47224 -1.7
      vertex -2.45 -1.47224 -3.5
      vertex -2.77467 -1.6168 -1.7
    endloop
  endfacet
  facet normal -0.406737 0.913545 0
    outer loop
      vertex -2.77467 -1.6168 -1.7
      vertex -2.45 -1.47224 -3.5
      vertex -2.77467 -1.6168 -3.5
    endloop
  endfacet
  facet normal -0.207911 0.978148 0
    outer loop
      vertex -2.77467 -1.6168 -1.7
      vertex -2.77467 -1.6168 -3.5
      vertex -3.1223 -1.69069 -1.7
    endloop
  endfacet
  facet normal -0.207911 0.978148 0
    outer loop
      vertex -3.1223 -1.69069 -1.7
      vertex -2.77467 -1.6168 -3.5
      vertex -3.1223 -1.69069 -3.5
    endloop
  endfacet
  facet normal 0 1 0
    outer loop
      vertex -3.1223 -1.69069 -1.7
      vertex -3.1223 -1.69069 -3.5
      vertex -3.4777 -1.69069 -1.7
    endloop
  endfacet
  facet normal 0 1 0
    outer loop
      vertex -3.4777 -1.69069 -1.7
      vertex -3.1223 -1.69069 -3.5
      vertex -3.4777 -1.69069 -3.5
    endloop
  endfacet
  facet normal 0.207911 0.978148 0
    outer loop
      vertex -3.4777 -1.69069 -1.7
      vertex -3.4777 -1.69069 -3.5
      vertex -3.82533 -1.6168 -1.7
    endloop
  endfacet
  facet normal 0.207911 0.978148 0
    outer loop
      vertex -3.82533 -1.6168 -1.7
      vertex -3.4777 -1.69069 -3.5
      vertex -3.82533 -1.6168 -3.5
    endloop
  endfacet
  facet normal 0.406737 0.913545 0
    outer loop
      vertex -3.82533 -1.6168 -1.7
      vertex -3.82533 -1.6168 -3.5
      vertex -4.15 -1.47224 -1.7
    endloop
  endfacet
  facet normal 0.406737 0.913545 0
    outer loop
      vertex -4.15 -1.47224 -1.7
      vertex -3.82533 -1.6168 -3.5
      vertex -4.15 -1.47224 -3.5
    endloop
  endfacet
  facet normal 0.587785 0.809017 0
    outer loop
      vertex -4.15 -1.47224 -1.7
      vertex -4.15 -1.47224 -3.5
      vertex -4.43752 -1.26335 -1.7
    endloop
  endfacet
  facet normal 0.587785 0.809017 0
    outer loop
      vertex -4.43752 -1.26335 -1.7
      vertex -4.15 -1.47224 -3.5
      vertex -4.43752 -1.26335 -3.5
    endloop
  endfacet
  facet normal 0.743144 0.669131 0
    outer loop
      vertex -4.67533 -0.999235 -1.7
      vertex -4.43752 -1.26335 -1.7
      vertex -4.43752 -1.26335 -3.5
    endloop
  endfacet
  facet normal 0.743144 0.669131 0
    outer loop
      vertex -4.67533 -0.999235 -3.5
      vertex -4.67533 -0.999235 -1.7
      vertex -4.43752 -1.26335 -3.5
    endloop
  endfacet
  facet normal 0.866026 0.499999 0
    outer loop
      vertex -4.85303 -0.691452 -1.7
      vertex -4.67533 -0.999235 -1.7
      vertex -4.67533 -0.999235 -3.5
    endloop
  endfacet
  facet normal 0.866026 0.499999 0
    outer loop
      vertex -4.85303 -0.691452 -3.5
      vertex -4.85303 -0.691452 -1.7
      vertex -4.67533 -0.999235 -3.5
    endloop
  endfacet
  facet normal 0.951056 0.309018 0
    outer loop
      vertex -4.96285 -0.35345 -1.7
      vertex -4.85303 -0.691452 -1.7
      vertex -4.85303 -0.691452 -3.5
    endloop
  endfacet
  facet normal 0.951056 0.309018 0
    outer loop
      vertex -4.96285 -0.35345 -3.5
      vertex -4.96285 -0.35345 -1.7
      vertex -4.85303 -0.691452 -3.5
    endloop
  endfacet
  facet normal 0.5 -0.866025 0
    outer loop
      vertex 3.3 3.28316 -3.5
      vertex 3.3 3.28316 1.5
      vertex 0.456699 1.64158 1.5
    endloop
  endfacet
  facet normal 0.5 -0.866025 0
    outer loop
      vertex 0.456699 1.64158 -3.5
      vertex 3.3 3.28316 -3.5
      vertex 0.456699 1.64158 1.5
    endloop
  endfacet
  facet normal 1 -1.06108e-07 0
    outer loop
      vertex 0.456699 1.64158 -3.5
      vertex 0.456699 1.64158 1.5
      vertex 0.456698 -1.64158 1.5
    endloop
  endfacet
  facet normal 1 -1.06108e-07 0
    outer loop
      vertex 0.456698 -1.64158 -3.5
      vertex 0.456699 1.64158 -3.5
      vertex 0.456698 -1.64158 1.5
    endloop
  endfacet
  facet normal -0.5 -0.866025 0
    outer loop
      vertex 6.1433 1.64158 -3.5
      vertex 6.1433 1.64158 1.5
      vertex 3.3 3.28316 1.5
    endloop
  endfacet
  facet normal -0.5 -0.866025 0
    outer loop
      vertex 3.3 3.28316 -3.5
      vertex 6.1433 1.64158 -3.5
      vertex 3.3 3.28316 1.5
    endloop
  endfacet
  facet normal -1 1.06108e-07 0
    outer loop
      vertex 6.1433 1.64158 1.5
      vertex 6.1433 1.64158 -3.5
      vertex 6.1433 -1.64158 1.5
    endloop
  endfacet
  facet normal -1 1.06108e-07 0
    outer loop
      vertex 6.1433 -1.64158 1.5
      vertex 6.1433 1.64158 -3.5
      vertex 6.1433 -1.64158 -3.5
    endloop
  endfacet
  facet normal -0.5 0.866025 0
    outer loop
      vertex 6.1433 -1.64158 1.5
      vertex 6.1433 -1.64158 -3.5
      vertex 3.3 -3.28316 1.5
    endloop
  endfacet
  facet normal -0.5 0.866025 0
    outer loop
      vertex 3.3 -3.28316 1.5
      vertex 6.1433 -1.64158 -3.5
      vertex 3.3 -3.28316 -3.5
    endloop
  endfacet
  facet normal 0.5 0.866025 0
    outer loop
      vertex 3.3 -3.28316 1.5
      vertex 3.3 -3.28316 -3.5
      vertex 0.456698 -1.64158 1.5
    endloop
  endfacet
  facet normal 0.5 0.866025 0
    outer loop
      vertex 0.456698 -1.64158 1.5
      vertex 3.3 -3.28316 -3.5
      vertex 0.456698 -1.64158 -3.5
    endloop
  endfacet
  facet normal 0 0 1
    outer loop
      vertex -8.19074 -1.03956 0
      vertex -7.86773 -2.03368 0
      vertex -7.34508 -2.93893 0
    endloop
  endfacet
  facet normal 0 0 1
    outer loop
      vertex -5.8 -4.33013 0
      vertex -8.19074 -1.03956 0
      vertex -6.64565 -3.71572 0
    endloop
  endfacet
  facet normal 0 0 1
    outer loop
      vertex -6.64565 -3.71572 0
      vertex -8.19074 -1.03956 0
      vertex -7.34508 -2.93893 0
    endloop
  endfacet
  facet normal 0 0 1
    outer loop
      vertex -4.84508 -4.75528 0
      vertex -8.19074 -1.03956 0
      vertex -5.8 -4.33013 0
    endloop
  endfacet
  facet normal 0 0 1
    outer loop
      vertex -3.82264 -4.97261 0
      vertex -8.19074 -1.03956 0
      vertex -4.84508 -4.75528 0
    endloop
  endfacet
  facet normal 0 0 1
    outer loop
      vertex -3.3 -4.97261 0
      vertex -8.19074 -1.03956 0
      vertex -3.82264 -4.97261 0
    endloop
  endfacet
  facet normal 0 0 1
    outer loop
      vertex 0 -5 0
      vertex -8.19074 -1.03956 0
      vertex -3.3 -4.97261 0
    endloop
  endfacet
  facet normal 0 0 1
    outer loop
      vertex 0 -5 0
      vertex -3.3 -4.97261 0
      vertex -3.3 -5 0
    endloop
  endfacet
  facet normal 0 0 1
    outer loop
      vertex -4.13177 -2.55993 0
      vertex -8.19074 -1.03956 0
      vertex 0 -5 0
    endloop
  endfacet
  facet normal 0 0 1
    outer loop
      vertex -0.608333 0 0
      vertex -0.665089 -0.539993 0
      vertex 0 -5 0
    endloop
  endfacet
  facet normal 0 0 1
    outer loop
      vertex -3.3 5 0
      vertex -3.3 4.97261 0
      vertex 0 5 0
    endloop
  endfacet
  facet normal 0 0 1
    outer loop
      vertex -5.93285 0.559629 0
      vertex -5.76506 1.07602 0
      vertex -8.19074 -1.03956 0
    endloop
  endfacet
  facet normal 0 0 1
    outer loop
      vertex -4.84508 4.75528 0
      vertex -8.19074 -1.03956 0
      vertex -3.82264 4.97261 0
    endloop
  endfacet
  facet normal 0 0 1
    outer loop
      vertex -5.8 4.33013 0
      vertex -8.19074 -1.03956 0
      vertex -4.84508 4.75528 0
    endloop
  endfacet
  facet normal 0 0 1
    outer loop
      vertex -6.64565 3.71572 0
      vertex -8.19074 -1.03956 0
      vertex -5.8 4.33013 0
    endloop
  endfacet
  facet normal 0 0 1
    outer loop
      vertex -7.34508 2.93893 0
      vertex -8.19074 -1.03956 0
      vertex -6.64565 3.71572 0
    endloop
  endfacet
  facet normal 0 0 1
    outer loop
      vertex -7.86773 2.03368 0
      vertex -8.19074 -1.03956 0
      vertex -7.34508 2.93893 0
    endloop
  endfacet
  facet normal 0 0 1
    outer loop
      vertex -8.19074 1.03956 0
      vertex -8.19074 -1.03956 0
      vertex -7.86773 2.03368 0
    endloop
  endfacet
  facet normal 0 0 1
    outer loop
      vertex -8.3 0 0
      vertex -8.19074 -1.03956 0
      vertex -8.19074 1.03956 0
    endloop
  endfacet
  facet normal 0 0 1
    outer loop
      vertex -4.13177 -2.55993 0
      vertex -4.6278 -2.33908 0
      vertex -8.19074 -1.03956 0
    endloop
  endfacet
  facet normal 0 0 1
    outer loop
      vertex -5.93491 0.539993 0
      vertex -8.19074 -1.03956 0
      vertex -5.99167 0 0
    endloop
  endfacet
  facet normal 0 0 1
    outer loop
      vertex -5.93285 0.559629 0
      vertex -8.19074 -1.03956 0
      vertex -5.93491 0.539993 0
    endloop
  endfacet
  facet normal 0 0 1
    outer loop
      vertex -3.01864 2.67692 0
      vertex -2.48754 2.56403 0
      vertex 0 5 0
    endloop
  endfacet
  facet normal 0 0 1
    outer loop
      vertex -0.84104 -1.0948 0
      vertex -1.11252 -1.56502 0
      vertex 0 -5 0
    endloop
  endfacet
  facet normal 0 0 1
    outer loop
      vertex -5.75896 1.0948 0
      vertex -8.19074 -1.03956 0
      vertex -5.76506 1.07602 0
    endloop
  endfacet
  facet normal 0 0 1
    outer loop
      vertex -5.48748 1.56502 0
      vertex -8.19074 -1.03956 0
      vertex -5.75896 1.0948 0
    endloop
  endfacet
  facet normal 0 0 1
    outer loop
      vertex -5.4776 1.58212 0
      vertex -8.19074 -1.03956 0
      vertex -5.48748 1.56502 0
    endloop
  endfacet
  facet normal 0 0 1
    outer loop
      vertex -4.64583 2.33105 0
      vertex -4.14981 2.5519 0
      vertex 0 5 0
    endloop
  endfacet
  facet normal 0 0 1
    outer loop
      vertex -3.3 4.97261 0
      vertex -8.19074 -1.03956 0
      vertex -5.4776 1.58212 0
    endloop
  endfacet
  facet normal 0 0 1
    outer loop
      vertex -3.3 4.97261 0
      vertex -5.11429 1.98563 0
      vertex -5.10108 2.0003 0
    endloop
  endfacet
  facet normal 0 0 1
    outer loop
      vertex -3.58136 2.67692 0
      vertex -3.01864 2.67692 0
      vertex 0 5 0
    endloop
  endfacet
  facet normal 0 0 1
    outer loop
      vertex -3.3 4.97261 0
      vertex -5.10108 2.0003 0
      vertex -4.66181 2.31945 0
    endloop
  endfacet
  facet normal 0 0 1
    outer loop
      vertex -3.3 4.97261 0
      vertex -4.64583 2.33105 0
      vertex 0 5 0
    endloop
  endfacet
  facet normal 0 0 1
    outer loop
      vertex -3.3 4.97261 0
      vertex -4.66181 2.31945 0
      vertex -4.64583 2.33105 0
    endloop
  endfacet
  facet normal 0 0 1
    outer loop
      vertex -4.14981 2.5519 0
      vertex -4.13177 2.55993 0
      vertex 0 5 0
    endloop
  endfacet
  facet normal 0 0 1
    outer loop
      vertex -4.13177 2.55993 0
      vertex -3.60067 2.67282 0
      vertex 0 5 0
    endloop
  endfacet
  facet normal 0 0 1
    outer loop
      vertex -3.60067 2.67282 0
      vertex -3.58136 2.67692 0
      vertex 0 5 0
    endloop
  endfacet
  facet normal 0 0 1
    outer loop
      vertex -0.667153 0.559629 0
      vertex -0.610397 0.0196361 0
      vertex 0 -5 0
    endloop
  endfacet
  facet normal 0 0 1
    outer loop
      vertex -2.46823 -2.55993 0
      vertex -2.99933 -2.67282 0
      vertex 0 -5 0
    endloop
  endfacet
  facet normal 0 0 1
    outer loop
      vertex -1.1224 -1.58212 0
      vertex -1.48571 -1.98563 0
      vertex 0 -5 0
    endloop
  endfacet
  facet normal 0 0 1
    outer loop
      vertex 0 5 0
      vertex -2.48754 2.56403 0
      vertex -2.46823 2.55993 0
    endloop
  endfacet
  facet normal 0 0 1
    outer loop
      vertex -1.11252 -1.56502 0
      vertex -1.1224 -1.58212 0
      vertex 0 -5 0
    endloop
  endfacet
  facet normal 0 0 1
    outer loop
      vertex 0 5 0
      vertex -2.46823 2.55993 0
      vertex -1.9722 2.33908 0
    endloop
  endfacet
  facet normal 0 0 1
    outer loop
      vertex 0 5 0
      vertex -1.9722 2.33908 0
      vertex -1.95417 2.33105 0
    endloop
  endfacet
  facet normal 0 0 1
    outer loop
      vertex -4.64583 -2.33105 0
      vertex -5.0851 -2.0119 0
      vertex -8.19074 -1.03956 0
    endloop
  endfacet
  facet normal 0 0 1
    outer loop
      vertex 0 5 0
      vertex -1.95417 2.33105 0
      vertex -1.5149 2.0119 0
    endloop
  endfacet
  facet normal 0 0 1
    outer loop
      vertex 0 5 0
      vertex -1.5149 2.0119 0
      vertex -1.49892 2.0003 0
    endloop
  endfacet
  facet normal 0 0 1
    outer loop
      vertex -0.834939 -1.07602 0
      vertex -0.84104 -1.0948 0
      vertex 0 -5 0
    endloop
  endfacet
  facet normal 0 0 1
    outer loop
      vertex 0 5 0
      vertex -1.49892 2.0003 0
      vertex -1.13561 1.59679 0
    endloop
  endfacet
  facet normal 0 0 1
    outer loop
      vertex 0 5 0
      vertex -1.13561 1.59679 0
      vertex -1.1224 1.58212 0
    endloop
  endfacet
  facet normal 0 0 1
    outer loop
      vertex 0 5 0
      vertex -1.1224 1.58212 0
      vertex -0.850912 1.1119 0
    endloop
  endfacet
  facet normal 0 0 1
    outer loop
      vertex -0.667153 -0.559629 0
      vertex -0.834939 -1.07602 0
      vertex 0 -5 0
    endloop
  endfacet
  facet normal 0 0 1
    outer loop
      vertex 0 5 0
      vertex -0.850912 1.1119 0
      vertex -0.84104 1.0948 0
    endloop
  endfacet
  facet normal 0 0 1
    outer loop
      vertex 0 5 0
      vertex -0.84104 1.0948 0
      vertex -0.673254 0.578407 0
    endloop
  endfacet
  facet normal 0 0 1
    outer loop
      vertex 0 5 0
      vertex -0.667153 0.559629 0
      vertex 0 -5 0
    endloop
  endfacet
  facet normal 0 0 1
    outer loop
      vertex 0 5 0
      vertex -0.673254 0.578407 0
      vertex -0.667153 0.559629 0
    endloop
  endfacet
  facet normal 0 0 1
    outer loop
      vertex -0.610397 0.0196361 0
      vertex -0.608333 0 0
      vertex 0 -5 0
    endloop
  endfacet
  facet normal 0 0 1
    outer loop
      vertex -0.665089 -0.539993 0
      vertex -0.667153 -0.559629 0
      vertex 0 -5 0
    endloop
  endfacet
  facet normal 0 0 1
    outer loop
      vertex -1.48571 -1.98563 0
      vertex -1.49892 -2.0003 0
      vertex 0 -5 0
    endloop
  endfacet
  facet normal 0 0 1
    outer loop
      vertex -1.49892 -2.0003 0
      vertex -1.93819 -2.31945 0
      vertex 0 -5 0
    endloop
  endfacet
  facet normal 0 0 1
    outer loop
      vertex -1.93819 -2.31945 0
      vertex -1.95417 -2.33105 0
      vertex 0 -5 0
    endloop
  endfacet
  facet normal 0 0 1
    outer loop
      vertex -1.95417 -2.33105 0
      vertex -2.45019 -2.5519 0
      vertex 0 -5 0
    endloop
  endfacet
  facet normal 0 0 1
    outer loop
      vertex -2.45019 -2.5519 0
      vertex -2.46823 -2.55993 0
      vertex 0 -5 0
    endloop
  endfacet
  facet normal 0 0 1
    outer loop
      vertex -2.99933 -2.67282 0
      vertex -3.01864 -2.67692 0
      vertex 0 -5 0
    endloop
  endfacet
  facet normal 0 0 1
    outer loop
      vertex -3.01864 -2.67692 0
      vertex -3.58136 -2.67692 0
      vertex 0 -5 0
    endloop
  endfacet
  facet normal 0 0 1
    outer loop
      vertex -3.58136 -2.67692 0
      vertex -4.11246 -2.56403 0
      vertex 0 -5 0
    endloop
  endfacet
  facet normal 0 0 1
    outer loop
      vertex -4.11246 -2.56403 0
      vertex -4.13177 -2.55993 0
      vertex 0 -5 0
    endloop
  endfacet
  facet normal 0 0 1
    outer loop
      vertex -4.64583 -2.33105 0
      vertex -8.19074 -1.03956 0
      vertex -4.6278 -2.33908 0
    endloop
  endfacet
  facet normal 0 0 1
    outer loop
      vertex -5.10108 -2.0003 0
      vertex -8.19074 -1.03956 0
      vertex -5.0851 -2.0119 0
    endloop
  endfacet
  facet normal 0 0 1
    outer loop
      vertex -5.46439 -1.59679 0
      vertex -8.19074 -1.03956 0
      vertex -5.10108 -2.0003 0
    endloop
  endfacet
  facet normal 0 0 1
    outer loop
      vertex -5.4776 -1.58212 0
      vertex -8.19074 -1.03956 0
      vertex -5.46439 -1.59679 0
    endloop
  endfacet
  facet normal 0 0 1
    outer loop
      vertex -5.74909 -1.1119 0
      vertex -8.19074 -1.03956 0
      vertex -5.4776 -1.58212 0
    endloop
  endfacet
  facet normal 0 0 1
    outer loop
      vertex -5.75896 -1.0948 0
      vertex -8.19074 -1.03956 0
      vertex -5.74909 -1.1119 0
    endloop
  endfacet
  facet normal 0 0 1
    outer loop
      vertex -5.92675 -0.578407 0
      vertex -8.19074 -1.03956 0
      vertex -5.75896 -1.0948 0
    endloop
  endfacet
  facet normal 0 0 1
    outer loop
      vertex -5.93285 -0.559629 0
      vertex -8.19074 -1.03956 0
      vertex -5.92675 -0.578407 0
    endloop
  endfacet
  facet normal 0 0 1
    outer loop
      vertex -5.9896 -0.0196361 0
      vertex -8.19074 -1.03956 0
      vertex -5.93285 -0.559629 0
    endloop
  endfacet
  facet normal 0 0 1
    outer loop
      vertex -5.99167 0 0
      vertex -8.19074 -1.03956 0
      vertex -5.9896 -0.0196361 0
    endloop
  endfacet
  facet normal 0 0 1
    outer loop
      vertex -3.3 4.97261 0
      vertex -3.82264 4.97261 0
      vertex -8.19074 -1.03956 0
    endloop
  endfacet
  facet normal 0 0 1
    outer loop
      vertex -5.4776 1.58212 0
      vertex -5.11429 1.98563 0
      vertex -3.3 4.97261 0
    endloop
  endfacet
  facet normal -1 0 0
    outer loop
      vertex 0 5 3.5
      vertex 0 5 0
      vertex 0 -5 3.5
    endloop
  endfacet
  facet normal -1 0 0
    outer loop
      vertex 0 -5 3.5
      vertex 0 5 0
      vertex 0 -5 0
    endloop
  endfacet
  facet normal 0 0 1
    outer loop
      vertex 1.74697 -0.691452 3.5
      vertex 0 -5 3.5
      vertex 3.3 -5 3.5
    endloop
  endfacet
  facet normal 0 0 1
    outer loop
      vertex 3.1223 -1.69069 3.5
      vertex 2.77467 -1.6168 3.5
      vertex 4.84508 -4.75528 3.5
    endloop
  endfacet
  facet normal 0 0 1
    outer loop
      vertex 2.16248 1.26335 3.5
      vertex 2.45 1.47224 3.5
      vertex 0 5 3.5
    endloop
  endfacet
  facet normal 0 0 1
    outer loop
      vertex 3.4777 1.69069 3.5
      vertex 3.82533 1.6168 3.5
      vertex 0 5 3.5
    endloop
  endfacet
  facet normal 0 0 1
    outer loop
      vertex 8.3 0 3.5
      vertex 0 5 3.5
      vertex 8.19074 -1.03956 3.5
    endloop
  endfacet
  facet normal 0 0 1
    outer loop
      vertex 8.19074 1.03956 3.5
      vertex 0 5 3.5
      vertex 8.3 0 3.5
    endloop
  endfacet
  facet normal 0 0 1
    outer loop
      vertex 7.86773 2.03368 3.5
      vertex 0 5 3.5
      vertex 8.19074 1.03956 3.5
    endloop
  endfacet
  facet normal 0 0 1
    outer loop
      vertex 7.34508 2.93893 3.5
      vertex 0 5 3.5
      vertex 7.86773 2.03368 3.5
    endloop
  endfacet
  facet normal 0 0 1
    outer loop
      vertex 6.64565 3.71572 3.5
      vertex 0 5 3.5
      vertex 7.34508 2.93893 3.5
    endloop
  endfacet
  facet normal 0 0 1
    outer loop
      vertex 5.8 4.33013 3.5
      vertex 0 5 3.5
      vertex 6.64565 3.71572 3.5
    endloop
  endfacet
  facet normal 0 0 1
    outer loop
      vertex 4.84508 4.75528 3.5
      vertex 0 5 3.5
      vertex 5.8 4.33013 3.5
    endloop
  endfacet
  facet normal 0 0 1
    outer loop
      vertex 3.3 4.97261 3.5
      vertex 0 5 3.5
      vertex 4.84508 4.75528 3.5
    endloop
  endfacet
  facet normal 0 0 1
    outer loop
      vertex 3.82264 4.97261 3.5
      vertex 3.3 4.97261 3.5
      vertex 4.84508 4.75528 3.5
    endloop
  endfacet
  facet normal 0 0 1
    outer loop
      vertex 1.92467 -0.999235 3.5
      vertex 1.74697 -0.691452 3.5
      vertex 3.3 -5 3.5
    endloop
  endfacet
  facet normal 0 0 1
    outer loop
      vertex 0 5 3.5
      vertex 0 -5 3.5
      vertex 1.63715 -0.35345 3.5
    endloop
  endfacet
  facet normal 0 0 1
    outer loop
      vertex 1.63715 0.35345 3.5
      vertex 1.74697 0.691452 3.5
      vertex 0 5 3.5
    endloop
  endfacet
  facet normal 0 0 1
    outer loop
      vertex 0 5 3.5
      vertex 1.63715 -0.35345 3.5
      vertex 1.6 0 3.5
    endloop
  endfacet
  facet normal 0 0 1
    outer loop
      vertex 1.92467 0.999235 3.5
      vertex 2.16248 1.26335 3.5
      vertex 0 5 3.5
    endloop
  endfacet
  facet normal 0 0 1
    outer loop
      vertex 2.45 -1.47224 3.5
      vertex 2.16248 -1.26335 3.5
      vertex 3.82264 -4.97261 3.5
    endloop
  endfacet
  facet normal 0 0 1
    outer loop
      vertex 1.92467 0.999235 3.5
      vertex 0 5 3.5
      vertex 1.74697 0.691452 3.5
    endloop
  endfacet
  facet normal 0 0 1
    outer loop
      vertex 2.77467 1.6168 3.5
      vertex 3.1223 1.69069 3.5
      vertex 0 5 3.5
    endloop
  endfacet
  facet normal 0 0 1
    outer loop
      vertex 3.4777 -1.69069 3.5
      vertex 3.1223 -1.69069 3.5
      vertex 4.84508 -4.75528 3.5
    endloop
  endfacet
  facet normal 0 0 1
    outer loop
      vertex 2.45 1.47224 3.5
      vertex 2.77467 1.6168 3.5
      vertex 0 5 3.5
    endloop
  endfacet
  facet normal 0 0 1
    outer loop
      vertex 2.16248 -1.26335 3.5
      vertex 3.3 -5 3.5
      vertex 3.3 -4.97261 3.5
    endloop
  endfacet
  facet normal 0 0 1
    outer loop
      vertex 4.15 -1.47224 3.5
      vertex 3.82533 -1.6168 3.5
      vertex 5.8 -4.33013 3.5
    endloop
  endfacet
  facet normal 0 0 1
    outer loop
      vertex 4.85303 0.691452 3.5
      vertex 4.96285 0.35345 3.5
      vertex 7.86773 -2.03368 3.5
    endloop
  endfacet
  facet normal 0 0 1
    outer loop
      vertex 4.96285 -0.35345 3.5
      vertex 4.85303 -0.691452 3.5
      vertex 7.34508 -2.93893 3.5
    endloop
  endfacet
  facet normal 0 0 1
    outer loop
      vertex 3.4777 1.69069 3.5
      vertex 0 5 3.5
      vertex 3.1223 1.69069 3.5
    endloop
  endfacet
  facet normal 0 0 1
    outer loop
      vertex 4.43752 1.26335 3.5
      vertex 4.67533 0.999235 3.5
      vertex 8.19074 -1.03956 3.5
    endloop
  endfacet
  facet normal 0 0 1
    outer loop
      vertex 4.67533 -0.999235 3.5
      vertex 4.43752 -1.26335 3.5
      vertex 6.64565 -3.71572 3.5
    endloop
  endfacet
  facet normal 0 0 1
    outer loop
      vertex 4.15 1.47224 3.5
      vertex 0 5 3.5
      vertex 3.82533 1.6168 3.5
    endloop
  endfacet
  facet normal 0 0 1
    outer loop
      vertex 8.19074 -1.03956 3.5
      vertex 0 5 3.5
      vertex 4.15 1.47224 3.5
    endloop
  endfacet
  facet normal 0 0 1
    outer loop
      vertex 8.19074 -1.03956 3.5
      vertex 4.15 1.47224 3.5
      vertex 4.43752 1.26335 3.5
    endloop
  endfacet
  facet normal 0 0 1
    outer loop
      vertex 8.19074 -1.03956 3.5
      vertex 4.67533 0.999235 3.5
      vertex 7.86773 -2.03368 3.5
    endloop
  endfacet
  facet normal 0 0 1
    outer loop
      vertex 4.67533 0.999235 3.5
      vertex 4.85303 0.691452 3.5
      vertex 7.86773 -2.03368 3.5
    endloop
  endfacet
  facet normal 0 0 1
    outer loop
      vertex 5 0 3.5
      vertex 4.96285 -0.35345 3.5
      vertex 7.34508 -2.93893 3.5
    endloop
  endfacet
  facet normal 0 0 1
    outer loop
      vertex 7.86773 -2.03368 3.5
      vertex 5 0 3.5
      vertex 7.34508 -2.93893 3.5
    endloop
  endfacet
  facet normal 0 0 1
    outer loop
      vertex 4.96285 0.35345 3.5
      vertex 5 0 3.5
      vertex 7.86773 -2.03368 3.5
    endloop
  endfacet
  facet normal 0 0 1
    outer loop
      vertex 7.34508 -2.93893 3.5
      vertex 4.85303 -0.691452 3.5
      vertex 6.64565 -3.71572 3.5
    endloop
  endfacet
  facet normal 0 0 1
    outer loop
      vertex 4.85303 -0.691452 3.5
      vertex 4.67533 -0.999235 3.5
      vertex 6.64565 -3.71572 3.5
    endloop
  endfacet
  facet normal 0 0 1
    outer loop
      vertex 6.64565 -3.71572 3.5
      vertex 4.43752 -1.26335 3.5
      vertex 5.8 -4.33013 3.5
    endloop
  endfacet
  facet normal 0 0 1
    outer loop
      vertex 4.43752 -1.26335 3.5
      vertex 4.15 -1.47224 3.5
      vertex 5.8 -4.33013 3.5
    endloop
  endfacet
  facet normal 0 0 1
    outer loop
      vertex 5.8 -4.33013 3.5
      vertex 3.82533 -1.6168 3.5
      vertex 4.84508 -4.75528 3.5
    endloop
  endfacet
  facet normal 0 0 1
    outer loop
      vertex 3.82533 -1.6168 3.5
      vertex 3.4777 -1.69069 3.5
      vertex 4.84508 -4.75528 3.5
    endloop
  endfacet
  facet normal 0 0 1
    outer loop
      vertex 2.77467 -1.6168 3.5
      vertex 2.45 -1.47224 3.5
      vertex 3.82264 -4.97261 3.5
    endloop
  endfacet
  facet normal 0 0 1
    outer loop
      vertex 4.84508 -4.75528 3.5
      vertex 2.77467 -1.6168 3.5
      vertex 3.82264 -4.97261 3.5
    endloop
  endfacet
  facet normal 0 0 1
    outer loop
      vertex 3.82264 -4.97261 3.5
      vertex 2.16248 -1.26335 3.5
      vertex 3.3 -4.97261 3.5
    endloop
  endfacet
  facet normal 0 0 1
    outer loop
      vertex 1.63715 -0.35345 3.5
      vertex 0 -5 3.5
      vertex 1.74697 -0.691452 3.5
    endloop
  endfacet
  facet normal 0 0 1
    outer loop
      vertex 3.3 4.97261 3.5
      vertex 3.3 5 3.5
      vertex 0 5 3.5
    endloop
  endfacet
  facet normal 0 0 1
    outer loop
      vertex 1.6 0 3.5
      vertex 1.63715 0.35345 3.5
      vertex 0 5 3.5
    endloop
  endfacet
  facet normal 0 0 1
    outer loop
      vertex 2.16248 -1.26335 3.5
      vertex 1.92467 -0.999235 3.5
      vertex 3.3 -5 3.5
    endloop
  endfacet
  facet normal 0.860241 -0.0904149 0.501807
    outer loop
      vertex -5 0 -1.7
      vertex -5.93491 0.539993 0
      vertex -5.99167 0 0
    endloop
  endfacet
  facet normal 0.860241 -0.0904148 0.501807
    outer loop
      vertex -5 0 -1.7
      vertex -4.96285 0.35345 -1.7
      vertex -5.93285 0.559629 0
    endloop
  endfacet
  facet normal 0.860241 -0.0904148 0.501807
    outer loop
      vertex -5.93491 0.539993 0
      vertex -5 0 -1.7
      vertex -5.93285 0.559629 0
    endloop
  endfacet
  facet normal 0.860241 0.0904148 0.501807
    outer loop
      vertex -5.9896 -0.0196361 0
      vertex -4.96285 -0.35345 -1.7
      vertex -5 0 -1.7
    endloop
  endfacet
  facet normal 0.860241 0.0904148 0.501807
    outer loop
      vertex -5.99167 0 0
      vertex -5.9896 -0.0196361 0
      vertex -5 0 -1.7
    endloop
  endfacet
  facet normal 0.822644 -0.267293 0.501807
    outer loop
      vertex -4.96285 0.35345 -1.7
      vertex -5.76506 1.07602 0
      vertex -5.93285 0.559629 0
    endloop
  endfacet
  facet normal 0.822644 -0.267294 0.501807
    outer loop
      vertex -4.96285 0.35345 -1.7
      vertex -4.85303 0.691452 -1.7
      vertex -5.75896 1.0948 0
    endloop
  endfacet
  facet normal 0.822644 -0.267294 0.501807
    outer loop
      vertex -5.76506 1.07602 0
      vertex -4.96285 0.35345 -1.7
      vertex -5.75896 1.0948 0
    endloop
  endfacet
  facet normal 0.822644 0.267294 0.501807
    outer loop
      vertex -5.92675 -0.578407 0
      vertex -4.85303 -0.691452 -1.7
      vertex -4.96285 -0.35345 -1.7
    endloop
  endfacet
  facet normal 0.822644 0.267294 0.501807
    outer loop
      vertex -5.93285 -0.559629 0
      vertex -5.92675 -0.578407 0
      vertex -4.96285 -0.35345 -1.7
    endloop
  endfacet
  facet normal 0.860241 0.0904149 0.501807
    outer loop
      vertex -5.93285 -0.559629 0
      vertex -4.96285 -0.35345 -1.7
      vertex -5.9896 -0.0196361 0
    endloop
  endfacet
  facet normal 0.749094 -0.43249 0.501807
    outer loop
      vertex -4.85303 0.691452 -1.7
      vertex -5.48748 1.56502 0
      vertex -5.75896 1.0948 0
    endloop
  endfacet
  facet normal 0.749095 -0.432489 0.501807
    outer loop
      vertex -4.85303 0.691452 -1.7
      vertex -4.67533 0.999235 -1.7
      vertex -5.4776 1.58212 0
    endloop
  endfacet
  facet normal 0.749095 -0.432489 0.501807
    outer loop
      vertex -5.48748 1.56502 0
      vertex -4.85303 0.691452 -1.7
      vertex -5.4776 1.58212 0
    endloop
  endfacet
  facet normal 0.642805 -0.578785 0.501807
    outer loop
      vertex -4.67533 0.999235 -1.7
      vertex -5.11429 1.98563 0
      vertex -5.4776 1.58212 0
    endloop
  endfacet
  facet normal 0.642805 -0.578785 0.501807
    outer loop
      vertex -4.67533 0.999235 -1.7
      vertex -4.43752 1.26335 -1.7
      vertex -5.10108 2.0003 0
    endloop
  endfacet
  facet normal 0.642805 -0.578785 0.501807
    outer loop
      vertex -5.11429 1.98563 0
      vertex -4.67533 0.999235 -1.7
      vertex -5.10108 2.0003 0
    endloop
  endfacet
  facet normal 0.508423 -0.699783 0.501807
    outer loop
      vertex -4.43752 1.26335 -1.7
      vertex -4.66181 2.31945 0
      vertex -5.10108 2.0003 0
    endloop
  endfacet
  facet normal 0.508422 -0.699783 0.501807
    outer loop
      vertex -4.43752 1.26335 -1.7
      vertex -4.15 1.47224 -1.7
      vertex -4.64583 2.33105 0
    endloop
  endfacet
  facet normal 0.508422 -0.699783 0.501807
    outer loop
      vertex -4.66181 2.31945 0
      vertex -4.43752 1.26335 -1.7
      vertex -4.64583 2.33105 0
    endloop
  endfacet
  facet normal 0.351818 -0.790198 0.501807
    outer loop
      vertex -4.15 1.47224 -1.7
      vertex -4.14981 2.5519 0
      vertex -4.64583 2.33105 0
    endloop
  endfacet
  facet normal 0.351819 -0.790198 0.501807
    outer loop
      vertex -3.82533 1.6168 -1.7
      vertex -4.13177 2.55993 0
      vertex -4.14981 2.5519 0
    endloop
  endfacet
  facet normal 0.351819 -0.790198 0.501807
    outer loop
      vertex -4.15 1.47224 -1.7
      vertex -3.82533 1.6168 -1.7
      vertex -4.14981 2.5519 0
    endloop
  endfacet
  facet normal 0.179839 -0.846078 0.501807
    outer loop
      vertex -3.82533 1.6168 -1.7
      vertex -3.60067 2.67282 0
      vertex -4.13177 2.55993 0
    endloop
  endfacet
  facet normal 0.179839 -0.846078 0.501807
    outer loop
      vertex -3.4777 1.69069 -1.7
      vertex -3.58136 2.67692 0
      vertex -3.60067 2.67282 0
    endloop
  endfacet
  facet normal 0.179839 -0.846078 0.501807
    outer loop
      vertex -3.82533 1.6168 -1.7
      vertex -3.4777 1.69069 -1.7
      vertex -3.60067 2.67282 0
    endloop
  endfacet
  facet normal 0 -0.864979 0.501807
    outer loop
      vertex -3.4777 1.69069 -1.7
      vertex -3.1223 1.69069 -1.7
      vertex -3.01864 2.67692 0
    endloop
  endfacet
  facet normal 0 -0.864979 0.501807
    outer loop
      vertex -3.58136 2.67692 0
      vertex -3.4777 1.69069 -1.7
      vertex -3.01864 2.67692 0
    endloop
  endfacet
  facet normal -0.179839 -0.846078 0.501807
    outer loop
      vertex -2.48754 2.56403 0
      vertex -3.01864 2.67692 0
      vertex -3.1223 1.69069 -1.7
    endloop
  endfacet
  facet normal -0.179839 -0.846078 0.501807
    outer loop
      vertex -2.77467 1.6168 -1.7
      vertex -2.46823 2.55993 0
      vertex -2.48754 2.56403 0
    endloop
  endfacet
  facet normal -0.179839 -0.846078 0.501807
    outer loop
      vertex -3.1223 1.69069 -1.7
      vertex -2.77467 1.6168 -1.7
      vertex -2.48754 2.56403 0
    endloop
  endfacet
  facet normal -0.351818 -0.790198 0.501807
    outer loop
      vertex -1.9722 2.33908 0
      vertex -2.46823 2.55993 0
      vertex -2.77467 1.6168 -1.7
    endloop
  endfacet
  facet normal -0.351819 -0.790198 0.501807
    outer loop
      vertex -2.45 1.47224 -1.7
      vertex -1.95417 2.33105 0
      vertex -1.9722 2.33908 0
    endloop
  endfacet
  facet normal -0.351819 -0.790198 0.501807
    outer loop
      vertex -2.77467 1.6168 -1.7
      vertex -2.45 1.47224 -1.7
      vertex -1.9722 2.33908 0
    endloop
  endfacet
  facet normal -0.508423 -0.699783 0.501807
    outer loop
      vertex -1.5149 2.0119 0
      vertex -1.95417 2.33105 0
      vertex -2.45 1.47224 -1.7
    endloop
  endfacet
  facet normal -0.508422 -0.699783 0.501807
    outer loop
      vertex -2.16248 1.26335 -1.7
      vertex -1.49892 2.0003 0
      vertex -1.5149 2.0119 0
    endloop
  endfacet
  facet normal -0.508422 -0.699783 0.501807
    outer loop
      vertex -2.45 1.47224 -1.7
      vertex -2.16248 1.26335 -1.7
      vertex -1.5149 2.0119 0
    endloop
  endfacet
  facet normal -0.642805 -0.578784 0.501807
    outer loop
      vertex -1.13561 1.59679 0
      vertex -1.49892 2.0003 0
      vertex -2.16248 1.26335 -1.7
    endloop
  endfacet
  facet normal -0.642805 -0.578785 0.501807
    outer loop
      vertex -1.1224 1.58212 0
      vertex -1.13561 1.59679 0
      vertex -1.92467 0.999235 -1.7
    endloop
  endfacet
  facet normal -0.642805 -0.578785 0.501807
    outer loop
      vertex -1.92467 0.999235 -1.7
      vertex -1.13561 1.59679 0
      vertex -2.16248 1.26335 -1.7
    endloop
  endfacet
  facet normal -0.749094 -0.43249 0.501807
    outer loop
      vertex -0.850912 1.1119 0
      vertex -1.1224 1.58212 0
      vertex -1.92467 0.999235 -1.7
    endloop
  endfacet
  facet normal -0.749095 -0.432489 0.501807
    outer loop
      vertex -0.84104 1.0948 0
      vertex -0.850912 1.1119 0
      vertex -1.74697 0.691452 -1.7
    endloop
  endfacet
  facet normal -0.749095 -0.432489 0.501807
    outer loop
      vertex -1.74697 0.691452 -1.7
      vertex -0.850912 1.1119 0
      vertex -1.92467 0.999235 -1.7
    endloop
  endfacet
  facet normal -0.822644 -0.267293 0.501807
    outer loop
      vertex -0.673254 0.578407 0
      vertex -0.84104 1.0948 0
      vertex -1.74697 0.691452 -1.7
    endloop
  endfacet
  facet normal -0.822644 -0.267294 0.501807
    outer loop
      vertex -0.667153 0.559629 0
      vertex -0.673254 0.578407 0
      vertex -1.63715 0.35345 -1.7
    endloop
  endfacet
  facet normal -0.822644 -0.267294 0.501807
    outer loop
      vertex -1.63715 0.35345 -1.7
      vertex -0.673254 0.578407 0
      vertex -1.74697 0.691452 -1.7
    endloop
  endfacet
  facet normal -0.860241 -0.0904149 0.501807
    outer loop
      vertex -0.610397 0.0196361 0
      vertex -0.667153 0.559629 0
      vertex -1.63715 0.35345 -1.7
    endloop
  endfacet
  facet normal -0.860241 -0.0904148 0.501807
    outer loop
      vertex -0.608333 0 0
      vertex -0.610397 0.0196361 0
      vertex -1.6 0 -1.7
    endloop
  endfacet
  facet normal -0.860241 -0.0904148 0.501807
    outer loop
      vertex -1.6 0 -1.7
      vertex -0.610397 0.0196361 0
      vertex -1.63715 0.35345 -1.7
    endloop
  endfacet
  facet normal -0.860241 0.0904148 0.501807
    outer loop
      vertex -0.665089 -0.539993 0
      vertex -1.6 0 -1.7
      vertex -0.667153 -0.559629 0
    endloop
  endfacet
  facet normal -0.860241 0.0904148 0.501807
    outer loop
      vertex -0.667153 -0.559629 0
      vertex -1.6 0 -1.7
      vertex -1.63715 -0.35345 -1.7
    endloop
  endfacet
  facet normal -0.860241 0.0904149 0.501807
    outer loop
      vertex -0.665089 -0.539993 0
      vertex -0.608333 0 0
      vertex -1.6 0 -1.7
    endloop
  endfacet
  facet normal -0.822644 0.267294 0.501807
    outer loop
      vertex -0.834939 -1.07602 0
      vertex -1.63715 -0.35345 -1.7
      vertex -0.84104 -1.0948 0
    endloop
  endfacet
  facet normal -0.822644 0.267294 0.501807
    outer loop
      vertex -0.84104 -1.0948 0
      vertex -1.63715 -0.35345 -1.7
      vertex -1.74697 -0.691452 -1.7
    endloop
  endfacet
  facet normal -0.822644 0.267293 0.501807
    outer loop
      vertex -0.834939 -1.07602 0
      vertex -0.667153 -0.559629 0
      vertex -1.63715 -0.35345 -1.7
    endloop
  endfacet
  facet normal -0.749095 0.432489 0.501807
    outer loop
      vertex -1.11252 -1.56502 0
      vertex -1.74697 -0.691452 -1.7
      vertex -1.1224 -1.58212 0
    endloop
  endfacet
  facet normal -0.749095 0.432489 0.501807
    outer loop
      vertex -1.1224 -1.58212 0
      vertex -1.74697 -0.691452 -1.7
      vertex -1.92467 -0.999235 -1.7
    endloop
  endfacet
  facet normal -0.749094 0.43249 0.501807
    outer loop
      vertex -1.11252 -1.56502 0
      vertex -0.84104 -1.0948 0
      vertex -1.74697 -0.691452 -1.7
    endloop
  endfacet
  facet normal -0.642805 0.578785 0.501807
    outer loop
      vertex -1.48571 -1.98563 0
      vertex -1.92467 -0.999235 -1.7
      vertex -1.49892 -2.0003 0
    endloop
  endfacet
  facet normal -0.642805 0.578785 0.501807
    outer loop
      vertex -1.49892 -2.0003 0
      vertex -1.92467 -0.999235 -1.7
      vertex -2.16248 -1.26335 -1.7
    endloop
  endfacet
  facet normal -0.642805 0.578785 0.501807
    outer loop
      vertex -1.48571 -1.98563 0
      vertex -1.1224 -1.58212 0
      vertex -1.92467 -0.999235 -1.7
    endloop
  endfacet
  facet normal -0.508422 0.699783 0.501807
    outer loop
      vertex -1.93819 -2.31945 0
      vertex -2.16248 -1.26335 -1.7
      vertex -1.95417 -2.33105 0
    endloop
  endfacet
  facet normal -0.508422 0.699783 0.501807
    outer loop
      vertex -1.95417 -2.33105 0
      vertex -2.16248 -1.26335 -1.7
      vertex -2.45 -1.47224 -1.7
    endloop
  endfacet
  facet normal -0.508423 0.699783 0.501807
    outer loop
      vertex -1.93819 -2.31945 0
      vertex -1.49892 -2.0003 0
      vertex -2.16248 -1.26335 -1.7
    endloop
  endfacet
  facet normal -0.351819 0.790198 0.501807
    outer loop
      vertex -2.45019 -2.5519 0
      vertex -2.45 -1.47224 -1.7
      vertex -2.46823 -2.55993 0
    endloop
  endfacet
  facet normal -0.351819 0.790198 0.501807
    outer loop
      vertex -2.46823 -2.55993 0
      vertex -2.45 -1.47224 -1.7
      vertex -2.77467 -1.6168 -1.7
    endloop
  endfacet
  facet normal -0.351818 0.790198 0.501807
    outer loop
      vertex -1.95417 -2.33105 0
      vertex -2.45 -1.47224 -1.7
      vertex -2.45019 -2.5519 0
    endloop
  endfacet
  facet normal -0.179839 0.846078 0.501807
    outer loop
      vertex -2.99933 -2.67282 0
      vertex -2.77467 -1.6168 -1.7
      vertex -3.01864 -2.67692 0
    endloop
  endfacet
  facet normal -0.179839 0.846078 0.501807
    outer loop
      vertex -3.01864 -2.67692 0
      vertex -2.77467 -1.6168 -1.7
      vertex -3.1223 -1.69069 -1.7
    endloop
  endfacet
  facet normal -0.179839 0.846078 0.501807
    outer loop
      vertex -2.46823 -2.55993 0
      vertex -2.77467 -1.6168 -1.7
      vertex -2.99933 -2.67282 0
    endloop
  endfacet
  facet normal 0 0.864979 0.501807
    outer loop
      vertex -3.1223 -1.69069 -1.7
      vertex -3.4777 -1.69069 -1.7
      vertex -3.01864 -2.67692 0
    endloop
  endfacet
  facet normal 0 0.864979 0.501807
    outer loop
      vertex -3.01864 -2.67692 0
      vertex -3.4777 -1.69069 -1.7
      vertex -3.58136 -2.67692 0
    endloop
  endfacet
  facet normal 0.179839 0.846078 0.501807
    outer loop
      vertex -3.4777 -1.69069 -1.7
      vertex -3.82533 -1.6168 -1.7
      vertex -4.11246 -2.56403 0
    endloop
  endfacet
  facet normal 0.179839 0.846078 0.501807
    outer loop
      vertex -4.11246 -2.56403 0
      vertex -3.82533 -1.6168 -1.7
      vertex -4.13177 -2.55993 0
    endloop
  endfacet
  facet normal 0.179839 0.846078 0.501807
    outer loop
      vertex -3.58136 -2.67692 0
      vertex -3.4777 -1.69069 -1.7
      vertex -4.11246 -2.56403 0
    endloop
  endfacet
  facet normal 0.351819 0.790198 0.501807
    outer loop
      vertex -3.82533 -1.6168 -1.7
      vertex -4.15 -1.47224 -1.7
      vertex -4.6278 -2.33908 0
    endloop
  endfacet
  facet normal 0.351819 0.790198 0.501807
    outer loop
      vertex -4.6278 -2.33908 0
      vertex -4.15 -1.47224 -1.7
      vertex -4.64583 -2.33105 0
    endloop
  endfacet
  facet normal 0.351818 0.790198 0.501807
    outer loop
      vertex -4.13177 -2.55993 0
      vertex -3.82533 -1.6168 -1.7
      vertex -4.6278 -2.33908 0
    endloop
  endfacet
  facet normal 0.508422 0.699783 0.501807
    outer loop
      vertex -4.15 -1.47224 -1.7
      vertex -4.43752 -1.26335 -1.7
      vertex -5.0851 -2.0119 0
    endloop
  endfacet
  facet normal 0.508422 0.699783 0.501807
    outer loop
      vertex -5.0851 -2.0119 0
      vertex -4.43752 -1.26335 -1.7
      vertex -5.10108 -2.0003 0
    endloop
  endfacet
  facet normal 0.508423 0.699783 0.501807
    outer loop
      vertex -4.64583 -2.33105 0
      vertex -4.15 -1.47224 -1.7
      vertex -5.0851 -2.0119 0
    endloop
  endfacet
  facet normal 0.642805 0.578785 0.501807
    outer loop
      vertex -5.46439 -1.59679 0
      vertex -4.43752 -1.26335 -1.7
      vertex -4.67533 -0.999235 -1.7
    endloop
  endfacet
  facet normal 0.642805 0.578785 0.501807
    outer loop
      vertex -5.4776 -1.58212 0
      vertex -5.46439 -1.59679 0
      vertex -4.67533 -0.999235 -1.7
    endloop
  endfacet
  facet normal 0.642805 0.578784 0.501807
    outer loop
      vertex -5.10108 -2.0003 0
      vertex -4.43752 -1.26335 -1.7
      vertex -5.46439 -1.59679 0
    endloop
  endfacet
  facet normal 0.749095 0.432489 0.501807
    outer loop
      vertex -5.74909 -1.1119 0
      vertex -4.67533 -0.999235 -1.7
      vertex -4.85303 -0.691452 -1.7
    endloop
  endfacet
  facet normal 0.749095 0.432489 0.501807
    outer loop
      vertex -5.75896 -1.0948 0
      vertex -5.74909 -1.1119 0
      vertex -4.85303 -0.691452 -1.7
    endloop
  endfacet
  facet normal 0.749094 0.43249 0.501807
    outer loop
      vertex -5.4776 -1.58212 0
      vertex -4.67533 -0.999235 -1.7
      vertex -5.74909 -1.1119 0
    endloop
  endfacet
  facet normal 0.822644 0.267293 0.501807
    outer loop
      vertex -5.75896 -1.0948 0
      vertex -4.85303 -0.691452 -1.7
      vertex -5.92675 -0.578407 0
    endloop
  endfacet
  facet normal 0 0 -1
    outer loop
      vertex 2.77467 1.6168 1.5
      vertex 0.456699 1.64158 1.5
      vertex 3.1223 1.69069 1.5
    endloop
  endfacet
  facet normal 0 0 -1
    outer loop
      vertex 4.85303 -0.691452 1.5
      vertex 6.1433 1.64158 1.5
      vertex 6.1433 -1.64158 1.5
    endloop
  endfacet
  facet normal 0 0 -1
    outer loop
      vertex 3.4777 -1.69069 1.5
      vertex 6.1433 -1.64158 1.5
      vertex 3.3 -3.28316 1.5
    endloop
  endfacet
  facet normal 0 0 -1
    outer loop
      vertex 1.92467 -0.999235 1.5
      vertex 3.3 -3.28316 1.5
      vertex 0.456698 -1.64158 1.5
    endloop
  endfacet
  facet normal 0 0 -1
    outer loop
      vertex 4.85303 -0.691452 1.5
      vertex 6.1433 -1.64158 1.5
      vertex 4.67533 -0.999235 1.5
    endloop
  endfacet
  facet normal 0 0 -1
    outer loop
      vertex 2.16248 -1.26335 1.5
      vertex 3.3 -3.28316 1.5
      vertex 1.92467 -0.999235 1.5
    endloop
  endfacet
  facet normal 0 0 -1
    outer loop
      vertex 0.456699 1.64158 1.5
      vertex 1.74697 -0.691452 1.5
      vertex 0.456698 -1.64158 1.5
    endloop
  endfacet
  facet normal 0 0 -1
    outer loop
      vertex 1.74697 -0.691452 1.5
      vertex 1.92467 -0.999235 1.5
      vertex 0.456698 -1.64158 1.5
    endloop
  endfacet
  facet normal 0 0 -1
    outer loop
      vertex 4.67533 -0.999235 1.5
      vertex 6.1433 -1.64158 1.5
      vertex 4.43752 -1.26335 1.5
    endloop
  endfacet
  facet normal 0 0 -1
    outer loop
      vertex 3.82533 -1.6168 1.5
      vertex 6.1433 -1.64158 1.5
      vertex 3.4777 -1.69069 1.5
    endloop
  endfacet
  facet normal 0 0 -1
    outer loop
      vertex 4.43752 -1.26335 1.5
      vertex 6.1433 -1.64158 1.5
      vertex 4.15 -1.47224 1.5
    endloop
  endfacet
  facet normal 0 0 -1
    outer loop
      vertex 2.16248 -1.26335 1.5
      vertex 2.45 -1.47224 1.5
      vertex 3.3 -3.28316 1.5
    endloop
  endfacet
  facet normal 0 0 -1
    outer loop
      vertex 4.15 -1.47224 1.5
      vertex 6.1433 -1.64158 1.5
      vertex 3.82533 -1.6168 1.5
    endloop
  endfacet
  facet normal 0 0 -1
    outer loop
      vertex 2.45 -1.47224 1.5
      vertex 2.77467 -1.6168 1.5
      vertex 3.3 -3.28316 1.5
    endloop
  endfacet
  facet normal 0 0 -1
    outer loop
      vertex 2.77467 -1.6168 1.5
      vertex 3.1223 -1.69069 1.5
      vertex 3.3 -3.28316 1.5
    endloop
  endfacet
  facet normal 0 0 -1
    outer loop
      vertex 3.1223 -1.69069 1.5
      vertex 3.4777 -1.69069 1.5
      vertex 3.3 -3.28316 1.5
    endloop
  endfacet
  facet normal 0 0 -1
    outer loop
      vertex 4.96285 -0.35345 1.5
      vertex 6.1433 1.64158 1.5
      vertex 4.85303 -0.691452 1.5
    endloop
  endfacet
  facet normal 0 0 -1
    outer loop
      vertex 3.4777 1.69069 1.5
      vertex 6.1433 1.64158 1.5
      vertex 3.82533 1.6168 1.5
    endloop
  endfacet
  facet normal 0 0 -1
    outer loop
      vertex 5 0 1.5
      vertex 6.1433 1.64158 1.5
      vertex 4.96285 -0.35345 1.5
    endloop
  endfacet
  facet normal 0 0 -1
    outer loop
      vertex 4.96285 0.35345 1.5
      vertex 6.1433 1.64158 1.5
      vertex 5 0 1.5
    endloop
  endfacet
  facet normal 0 0 -1
    outer loop
      vertex 4.85303 0.691452 1.5
      vertex 6.1433 1.64158 1.5
      vertex 4.96285 0.35345 1.5
    endloop
  endfacet
  facet normal 0 0 -1
    outer loop
      vertex 4.67533 0.999235 1.5
      vertex 6.1433 1.64158 1.5
      vertex 4.85303 0.691452 1.5
    endloop
  endfacet
  facet normal 0 0 -1
    outer loop
      vertex 4.43752 1.26335 1.5
      vertex 6.1433 1.64158 1.5
      vertex 4.67533 0.999235 1.5
    endloop
  endfacet
  facet normal 0 0 -1
    outer loop
      vertex 4.15 1.47224 1.5
      vertex 6.1433 1.64158 1.5
      vertex 4.43752 1.26335 1.5
    endloop
  endfacet
  facet normal 0 0 -1
    outer loop
      vertex 3.82533 1.6168 1.5
      vertex 6.1433 1.64158 1.5
      vertex 4.15 1.47224 1.5
    endloop
  endfacet
  facet normal 0 0 -1
    outer loop
      vertex 3.3 3.28316 1.5
      vertex 6.1433 1.64158 1.5
      vertex 3.4777 1.69069 1.5
    endloop
  endfacet
  facet normal 0 0 -1
    outer loop
      vertex 3.3 3.28316 1.5
      vertex 3.4777 1.69069 1.5
      vertex 3.1223 1.69069 1.5
    endloop
  endfacet
  facet normal 0 0 -1
    outer loop
      vertex 3.3 3.28316 1.5
      vertex 3.1223 1.69069 1.5
      vertex 0.456699 1.64158 1.5
    endloop
  endfacet
  facet normal 0 0 -1
    outer loop
      vertex 2.45 1.47224 1.5
      vertex 0.456699 1.64158 1.5
      vertex 2.77467 1.6168 1.5
    endloop
  endfacet
  facet normal 0 0 -1
    outer loop
      vertex 2.16248 1.26335 1.5
      vertex 0.456699 1.64158 1.5
      vertex 2.45 1.47224 1.5
    endloop
  endfacet
  facet normal 0 0 -1
    outer loop
      vertex 1.92467 0.999235 1.5
      vertex 0.456699 1.64158 1.5
      vertex 2.16248 1.26335 1.5
    endloop
  endfacet
  facet normal 0 0 -1
    outer loop
      vertex 1.74697 0.691452 1.5
      vertex 0.456699 1.64158 1.5
      vertex 1.92467 0.999235 1.5
    endloop
  endfacet
  facet normal 0 0 -1
    outer loop
      vertex 0.456699 1.64158 1.5
      vertex 1.74697 0.691452 1.5
      vertex 1.63715 0.35345 1.5
    endloop
  endfacet
  facet normal 0 0 -1
    outer loop
      vertex 0.456699 1.64158 1.5
      vertex 1.63715 0.35345 1.5
      vertex 1.6 0 1.5
    endloop
  endfacet
  facet normal 0 0 -1
    outer loop
      vertex 0.456699 1.64158 1.5
      vertex 1.6 0 1.5
      vertex 1.63715 -0.35345 1.5
    endloop
  endfacet
  facet normal 0 0 -1
    outer loop
      vertex 1.74697 -0.691452 1.5
      vertex 0.456699 1.64158 1.5
      vertex 1.63715 -0.35345 1.5
    endloop
  endfacet
  facet normal 0.994522 0.104528 0
    outer loop
      vertex 1.6 0 3.5
      vertex 1.63715 -0.35345 3.5
      vertex 1.63715 -0.35345 1.5
    endloop
  endfacet
  facet normal 0.994522 0.104528 0
    outer loop
      vertex 1.6 0 1.5
      vertex 1.6 0 3.5
      vertex 1.63715 -0.35345 1.5
    endloop
  endfacet
  facet normal 0.951056 0.309018 0
    outer loop
      vertex 1.63715 -0.35345 3.5
      vertex 1.74697 -0.691452 3.5
      vertex 1.74697 -0.691452 1.5
    endloop
  endfacet
  facet normal 0.951056 0.309018 0
    outer loop
      vertex 1.63715 -0.35345 1.5
      vertex 1.63715 -0.35345 3.5
      vertex 1.74697 -0.691452 1.5
    endloop
  endfacet
  facet normal 0.866026 0.499999 0
    outer loop
      vertex 1.74697 -0.691452 3.5
      vertex 1.92467 -0.999235 3.5
      vertex 1.92467 -0.999235 1.5
    endloop
  endfacet
  facet normal 0.866026 0.499999 0
    outer loop
      vertex 1.74697 -0.691452 1.5
      vertex 1.74697 -0.691452 3.5
      vertex 1.92467 -0.999235 1.5
    endloop
  endfacet
  facet normal 0.743144 0.669131 0
    outer loop
      vertex 1.92467 -0.999235 3.5
      vertex 2.16248 -1.26335 3.5
      vertex 2.16248 -1.26335 1.5
    endloop
  endfacet
  facet normal 0.743144 0.669131 0
    outer loop
      vertex 1.92467 -0.999235 1.5
      vertex 1.92467 -0.999235 3.5
      vertex 2.16248 -1.26335 1.5
    endloop
  endfacet
  facet normal 0.587785 0.809017 0
    outer loop
      vertex 2.45 -1.47224 3.5
      vertex 2.45 -1.47224 1.5
      vertex 2.16248 -1.26335 3.5
    endloop
  endfacet
  facet normal 0.587785 0.809017 0
    outer loop
      vertex 2.16248 -1.26335 3.5
      vertex 2.45 -1.47224 1.5
      vertex 2.16248 -1.26335 1.5
    endloop
  endfacet
  facet normal 0.406737 0.913545 0
    outer loop
      vertex 2.77467 -1.6168 3.5
      vertex 2.77467 -1.6168 1.5
      vertex 2.45 -1.47224 3.5
    endloop
  endfacet
  facet normal 0.406737 0.913545 0
    outer loop
      vertex 2.45 -1.47224 3.5
      vertex 2.77467 -1.6168 1.5
      vertex 2.45 -1.47224 1.5
    endloop
  endfacet
  facet normal 0.207911 0.978148 0
    outer loop
      vertex 3.1223 -1.69069 3.5
      vertex 3.1223 -1.69069 1.5
      vertex 2.77467 -1.6168 3.5
    endloop
  endfacet
  facet normal 0.207911 0.978148 0
    outer loop
      vertex 2.77467 -1.6168 3.5
      vertex 3.1223 -1.69069 1.5
      vertex 2.77467 -1.6168 1.5
    endloop
  endfacet
  facet normal 0 1 0
    outer loop
      vertex 3.4777 -1.69069 3.5
      vertex 3.4777 -1.69069 1.5
      vertex 3.1223 -1.69069 3.5
    endloop
  endfacet
  facet normal 0 1 0
    outer loop
      vertex 3.1223 -1.69069 3.5
      vertex 3.4777 -1.69069 1.5
      vertex 3.1223 -1.69069 1.5
    endloop
  endfacet
  facet normal -0.207911 0.978148 0
    outer loop
      vertex 3.82533 -1.6168 3.5
      vertex 3.82533 -1.6168 1.5
      vertex 3.4777 -1.69069 3.5
    endloop
  endfacet
  facet normal -0.207911 0.978148 0
    outer loop
      vertex 3.4777 -1.69069 3.5
      vertex 3.82533 -1.6168 1.5
      vertex 3.4777 -1.69069 1.5
    endloop
  endfacet
  facet normal -0.406737 0.913545 0
    outer loop
      vertex 4.15 -1.47224 3.5
      vertex 4.15 -1.47224 1.5
      vertex 3.82533 -1.6168 3.5
    endloop
  endfacet
  facet normal -0.406737 0.913545 0
    outer loop
      vertex 3.82533 -1.6168 3.5
      vertex 4.15 -1.47224 1.5
      vertex 3.82533 -1.6168 1.5
    endloop
  endfacet
  facet normal -0.587785 0.809017 0
    outer loop
      vertex 4.43752 -1.26335 3.5
      vertex 4.43752 -1.26335 1.5
      vertex 4.15 -1.47224 3.5
    endloop
  endfacet
  facet normal -0.587785 0.809017 0
    outer loop
      vertex 4.15 -1.47224 3.5
      vertex 4.43752 -1.26335 1.5
      vertex 4.15 -1.47224 1.5
    endloop
  endfacet
  facet normal -0.743144 0.669131 0
    outer loop
      vertex 4.67533 -0.999235 3.5
      vertex 4.67533 -0.999235 1.5
      vertex 4.43752 -1.26335 3.5
    endloop
  endfacet
  facet normal -0.743144 0.669131 0
    outer loop
      vertex 4.43752 -1.26335 3.5
      vertex 4.67533 -0.999235 1.5
      vertex 4.43752 -1.26335 1.5
    endloop
  endfacet
  facet normal -0.866026 0.499999 0
    outer loop
      vertex 4.85303 -0.691452 3.5
      vertex 4.85303 -0.691452 1.5
      vertex 4.67533 -0.999235 3.5
    endloop
  endfacet
  facet normal -0.866026 0.499999 0
    outer loop
      vertex 4.67533 -0.999235 3.5
      vertex 4.85303 -0.691452 1.5
      vertex 4.67533 -0.999235 1.5
    endloop
  endfacet
  facet normal -0.951056 0.309018 0
    outer loop
      vertex 4.96285 -0.35345 3.5
      vertex 4.96285 -0.35345 1.5
      vertex 4.85303 -0.691452 3.5
    endloop
  endfacet
  facet normal -0.951056 0.309018 0
    outer loop
      vertex 4.85303 -0.691452 3.5
      vertex 4.96285 -0.35345 1.5
      vertex 4.85303 -0.691452 1.5
    endloop
  endfacet
  facet normal -0.994522 0.104528 0
    outer loop
      vertex 5 0 3.5
      vertex 5 0 1.5
      vertex 4.96285 -0.35345 3.5
    endloop
  endfacet
  facet normal -0.994522 0.104528 0
    outer loop
      vertex 4.96285 -0.35345 3.5
      vertex 5 0 1.5
      vertex 4.96285 -0.35345 1.5
    endloop
  endfacet
  facet normal -0.994522 -0.104528 0
    outer loop
      vertex 5 0 3.5
      vertex 4.96285 0.35345 3.5
      vertex 5 0 1.5
    endloop
  endfacet
  facet normal -0.994522 -0.104528 0
    outer loop
      vertex 5 0 1.5
      vertex 4.96285 0.35345 3.5
      vertex 4.96285 0.35345 1.5
    endloop
  endfacet
  facet normal -0.951056 -0.309018 0
    outer loop
      vertex 4.96285 0.35345 3.5
      vertex 4.85303 0.691452 3.5
      vertex 4.96285 0.35345 1.5
    endloop
  endfacet
  facet normal -0.951056 -0.309018 0
    outer loop
      vertex 4.96285 0.35345 1.5
      vertex 4.85303 0.691452 3.5
      vertex 4.85303 0.691452 1.5
    endloop
  endfacet
  facet normal -0.866026 -0.499999 0
    outer loop
      vertex 4.85303 0.691452 3.5
      vertex 4.67533 0.999235 3.5
      vertex 4.85303 0.691452 1.5
    endloop
  endfacet
  facet normal -0.866026 -0.499999 0
    outer loop
      vertex 4.85303 0.691452 1.5
      vertex 4.67533 0.999235 3.5
      vertex 4.67533 0.999235 1.5
    endloop
  endfacet
  facet normal -0.743144 -0.669131 0
    outer loop
      vertex 4.67533 0.999235 3.5
      vertex 4.43752 1.26335 3.5
      vertex 4.67533 0.999235 1.5
    endloop
  endfacet
  facet normal -0.743144 -0.669131 0
    outer loop
      vertex 4.67533 0.999235 1.5
      vertex 4.43752 1.26335 3.5
      vertex 4.43752 1.26335 1.5
    endloop
  endfacet
  facet normal -0.587785 -0.809017 0
    outer loop
      vertex 4.43752 1.26335 1.5
      vertex 4.43752 1.26335 3.5
      vertex 4.15 1.47224 3.5
    endloop
  endfacet
  facet normal -0.587785 -0.809017 0
    outer loop
      vertex 4.15 1.47224 1.5
      vertex 4.43752 1.26335 1.5
      vertex 4.15 1.47224 3.5
    endloop
  endfacet
  facet normal -0.406737 -0.913545 0
    outer loop
      vertex 4.15 1.47224 1.5
      vertex 4.15 1.47224 3.5
      vertex 3.82533 1.6168 3.5
    endloop
  endfacet
  facet normal -0.406737 -0.913545 0
    outer loop
      vertex 3.82533 1.6168 1.5
      vertex 4.15 1.47224 1.5
      vertex 3.82533 1.6168 3.5
    endloop
  endfacet
  facet normal -0.207911 -0.978148 0
    outer loop
      vertex 3.82533 1.6168 1.5
      vertex 3.82533 1.6168 3.5
      vertex 3.4777 1.69069 3.5
    endloop
  endfacet
  facet normal -0.207911 -0.978148 0
    outer loop
      vertex 3.4777 1.69069 1.5
      vertex 3.82533 1.6168 1.5
      vertex 3.4777 1.69069 3.5
    endloop
  endfacet
  facet normal 0 -1 0
    outer loop
      vertex 3.4777 1.69069 1.5
      vertex 3.4777 1.69069 3.5
      vertex 3.1223 1.69069 3.5
    endloop
  endfacet
  facet normal 0 -1 0
    outer loop
      vertex 3.1223 1.69069 1.5
      vertex 3.4777 1.69069 1.5
      vertex 3.1223 1.69069 3.5
    endloop
  endfacet
  facet normal 0.207911 -0.978148 0
    outer loop
      vertex 3.1223 1.69069 1.5
      vertex 3.1223 1.69069 3.5
      vertex 2.77467 1.6168 3.5
    endloop
  endfacet
  facet normal 0.207911 -0.978148 0
    outer loop
      vertex 2.77467 1.6168 1.5
      vertex 3.1223 1.69069 1.5
      vertex 2.77467 1.6168 3.5
    endloop
  endfacet
  facet normal 0.406737 -0.913545 0
    outer loop
      vertex 2.77467 1.6168 1.5
      vertex 2.77467 1.6168 3.5
      vertex 2.45 1.47224 3.5
    endloop
  endfacet
  facet normal 0.406737 -0.913545 0
    outer loop
      vertex 2.45 1.47224 1.5
      vertex 2.77467 1.6168 1.5
      vertex 2.45 1.47224 3.5
    endloop
  endfacet
  facet normal 0.587785 -0.809017 0
    outer loop
      vertex 2.45 1.47224 1.5
      vertex 2.45 1.47224 3.5
      vertex 2.16248 1.26335 3.5
    endloop
  endfacet
  facet normal 0.587785 -0.809017 0
    outer loop
      vertex 2.16248 1.26335 1.5
      vertex 2.45 1.47224 1.5
      vertex 2.16248 1.26335 3.5
    endloop
  endfacet
  facet normal 0.743144 -0.669131 0
    outer loop
      vertex 2.16248 1.26335 1.5
      vertex 2.16248 1.26335 3.5
      vertex 1.92467 0.999235 3.5
    endloop
  endfacet
  facet normal 0.743144 -0.669131 0
    outer loop
      vertex 1.92467 0.999235 1.5
      vertex 2.16248 1.26335 1.5
      vertex 1.92467 0.999235 3.5
    endloop
  endfacet
  facet normal 0.866026 -0.499999 0
    outer loop
      vertex 1.92467 0.999235 1.5
      vertex 1.92467 0.999235 3.5
      vertex 1.74697 0.691452 3.5
    endloop
  endfacet
  facet normal 0.866026 -0.499999 0
    outer loop
      vertex 1.74697 0.691452 1.5
      vertex 1.92467 0.999235 1.5
      vertex 1.74697 0.691452 3.5
    endloop
  endfacet
  facet normal 0.951056 -0.309018 0
    outer loop
      vertex 1.74697 0.691452 1.5
      vertex 1.74697 0.691452 3.5
      vertex 1.63715 0.35345 3.5
    endloop
  endfacet
  facet normal 0.951056 -0.309018 0
    outer loop
      vertex 1.63715 0.35345 1.5
      vertex 1.74697 0.691452 1.5
      vertex 1.63715 0.35345 3.5
    endloop
  endfacet
  facet normal 0.994522 -0.104528 0
    outer loop
      vertex 1.63715 0.35345 1.5
      vertex 1.63715 0.35345 3.5
      vertex 1.6 0 3.5
    endloop
  endfacet
  facet normal 0.994522 -0.104528 0
    outer loop
      vertex 1.6 0 1.5
      vertex 1.63715 0.35345 1.5
      vertex 1.6 0 3.5
    endloop
  endfacet
endsolid OpenSCAD_Model
