solid OpenSCAD_Model
  facet normal 0 0 -1
    outer loop
      vertex -10.55 0 -3.5
      vertex -10.4407 1.03956 -3.5
      vertex -10.4407 -1.03956 -3.5
    endloop
  endfacet
  facet normal 0 0 -1
    outer loop
      vertex -10.4407 -1.03956 -3.5
      vertex -10.4407 1.03956 -3.5
      vertex -10.1177 2.03368 -3.5
    endloop
  endfacet
  facet normal 0 0 -1
    outer loop
      vertex -10.4407 -1.03956 -3.5
      vertex -10.1177 2.03368 -3.5
      vertex -9.59508 2.93893 -3.5
    endloop
  endfacet
  facet normal 0 0 -1
    outer loop
      vertex -10.4407 -1.03956 -3.5
      vertex -9.59508 2.93893 -3.5
      vertex -8.89565 3.71572 -3.5
    endloop
  endfacet
  facet normal 0 0 -1
    outer loop
      vertex -10.4407 -1.03956 -3.5
      vertex -8.89565 3.71572 -3.5
      vertex -8.05 4.33013 -3.5
    endloop
  endfacet
  facet normal 0 0 -1
    outer loop
      vertex -10.4407 -1.03956 -3.5
      vertex -8.05 4.33013 -3.5
      vertex -7.09508 4.75528 -3.5
    endloop
  endfacet
  facet normal 0 0 -1
    outer loop
      vertex -10.4407 -1.03956 -3.5
      vertex -7.09508 4.75528 -3.5
      vertex -6.07264 4.97261 -3.5
    endloop
  endfacet
  facet normal 0 0 -1
    outer loop
      vertex -10.4407 -1.03956 -3.5
      vertex -6.07264 4.97261 -3.5
      vertex -5.55 4.97261 -3.5
    endloop
  endfacet
  facet normal 0 0 -1
    outer loop
      vertex -5.55 4.97261 -3.5
      vertex -5.55 5 -3.5
      vertex 5.55 5 -3.5
    endloop
  endfacet
  facet normal 0 0 -1
    outer loop
      vertex -4.17467 0.999235 -3.5
      vertex 8.05 4.33013 -3.5
      vertex -3.99697 0.691452 -3.5
    endloop
  endfacet
  facet normal 0 0 -1
    outer loop
      vertex -4.17467 0.999235 -3.5
      vertex 7.09508 4.75528 -3.5
      vertex 8.05 4.33013 -3.5
    endloop
  endfacet
  facet normal 0 0 -1
    outer loop
      vertex 5.55 3.28316 -3.5
      vertex 8.05 4.33013 -3.5
      vertex 8.89565 3.71572 -3.5
    endloop
  endfacet
  facet normal 0 0 -1
    outer loop
      vertex 8.3933 1.64158 -3.5
      vertex 10.1177 2.03368 -3.5
      vertex 10.4407 1.03956 -3.5
    endloop
  endfacet
  facet normal 0 0 -1
    outer loop
      vertex 8.3933 1.64158 -3.5
      vertex 10.4407 -1.03956 -3.5
      vertex 8.3933 -1.64158 -3.5
    endloop
  endfacet
  facet normal 0 0 -1
    outer loop
      vertex 5.55 -3.28316 -3.5
      vertex -4.7 -1.47224 -3.5
      vertex -4.41248 -1.26335 -3.5
    endloop
  endfacet
  facet normal 0 0 -1
    outer loop
      vertex 8.3933 -1.64158 -3.5
      vertex 10.4407 -1.03956 -3.5
      vertex 10.1177 -2.03368 -3.5
    endloop
  endfacet
  facet normal 0 0 -1
    outer loop
      vertex 5.55 -3.28316 -3.5
      vertex 8.89565 -3.71572 -3.5
      vertex 8.05 -4.33013 -3.5
    endloop
  endfacet
  facet normal 0 0 -1
    outer loop
      vertex -10.4407 -1.03956 -3.5
      vertex 8.05 -4.33013 -3.5
      vertex 7.09508 -4.75528 -3.5
    endloop
  endfacet
  facet normal 0 0 -1
    outer loop
      vertex -10.4407 -1.03956 -3.5
      vertex 7.09508 -4.75528 -3.5
      vertex 6.07264 -4.97261 -3.5
    endloop
  endfacet
  facet normal 0 0 -1
    outer loop
      vertex -10.4407 -1.03956 -3.5
      vertex 6.07264 -4.97261 -3.5
      vertex 5.55 -4.97261 -3.5
    endloop
  endfacet
  facet normal 0 0 -1
    outer loop
      vertex -10.4407 -1.03956 -3.5
      vertex 5.55 -4.97261 -3.5
      vertex 5.55 -5 -3.5
    endloop
  endfacet
  facet normal 0 0 -1
    outer loop
      vertex -5.55 -4.97261 -3.5
      vertex 5.55 -5 -3.5
      vertex -5.55 -5 -3.5
    endloop
  endfacet
  facet normal 0 0 -1
    outer loop
      vertex -10.4407 -1.03956 -3.5
      vertex 5.55 -5 -3.5
      vertex -5.55 -4.97261 -3.5
    endloop
  endfacet
  facet normal 0 0 -1
    outer loop
      vertex -4.41248 1.26335 -3.5
      vertex 5.55 5 -3.5
      vertex 5.55 4.97261 -3.5
    endloop
  endfacet
  facet normal 0 0 -1
    outer loop
      vertex -7.25 0 -3.5
      vertex -10.4407 -1.03956 -3.5
      vertex -7.21285 0.35345 -3.5
    endloop
  endfacet
  facet normal 0 0 -1
    outer loop
      vertex -10.4407 -1.03956 -3.5
      vertex -6.07264 -4.97261 -3.5
      vertex -7.09508 -4.75528 -3.5
    endloop
  endfacet
  facet normal 0 0 -1
    outer loop
      vertex -10.4407 -1.03956 -3.5
      vertex -7.09508 -4.75528 -3.5
      vertex -8.05 -4.33013 -3.5
    endloop
  endfacet
  facet normal 0 0 -1
    outer loop
      vertex -10.4407 -1.03956 -3.5
      vertex -8.05 -4.33013 -3.5
      vertex -8.89565 -3.71572 -3.5
    endloop
  endfacet
  facet normal 0 0 -1
    outer loop
      vertex -10.4407 -1.03956 -3.5
      vertex -8.89565 -3.71572 -3.5
      vertex -9.59508 -2.93893 -3.5
    endloop
  endfacet
  facet normal 0 0 -1
    outer loop
      vertex -10.4407 -1.03956 -3.5
      vertex -9.59508 -2.93893 -3.5
      vertex -10.1177 -2.03368 -3.5
    endloop
  endfacet
  facet normal 0 0 -1
    outer loop
      vertex -7.21285 -0.35345 -3.5
      vertex -10.4407 -1.03956 -3.5
      vertex -7.25 0 -3.5
    endloop
  endfacet
  facet normal 0 0 -1
    outer loop
      vertex -7.10303 -0.691452 -3.5
      vertex -10.4407 -1.03956 -3.5
      vertex -7.21285 -0.35345 -3.5
    endloop
  endfacet
  facet normal 0 0 -1
    outer loop
      vertex -6.92533 -0.999235 -3.5
      vertex -10.4407 -1.03956 -3.5
      vertex -7.10303 -0.691452 -3.5
    endloop
  endfacet
  facet normal 0 0 -1
    outer loop
      vertex 5.55 -3.28316 -3.5
      vertex -5.02467 -1.6168 -3.5
      vertex -4.7 -1.47224 -3.5
    endloop
  endfacet
  facet normal 0 0 -1
    outer loop
      vertex -6.68752 -1.26335 -3.5
      vertex -10.4407 -1.03956 -3.5
      vertex -6.92533 -0.999235 -3.5
    endloop
  endfacet
  facet normal 0 0 -1
    outer loop
      vertex 2.7067 -1.64158 -3.5
      vertex -3.85 0 -3.5
      vertex -3.88715 0.35345 -3.5
    endloop
  endfacet
  facet normal 0 0 -1
    outer loop
      vertex -6.4 -1.47224 -3.5
      vertex -10.4407 -1.03956 -3.5
      vertex -6.68752 -1.26335 -3.5
    endloop
  endfacet
  facet normal 0 0 -1
    outer loop
      vertex 2.7067 -1.64158 -3.5
      vertex -3.88715 -0.35345 -3.5
      vertex -3.85 0 -3.5
    endloop
  endfacet
  facet normal 0 0 -1
    outer loop
      vertex 8.3933 -1.64158 -3.5
      vertex 8.89565 -3.71572 -3.5
      vertex 5.55 -3.28316 -3.5
    endloop
  endfacet
  facet normal 0 0 -1
    outer loop
      vertex -10.4407 -1.03956 -3.5
      vertex -6.4 -1.47224 -3.5
      vertex -6.07533 -1.6168 -3.5
    endloop
  endfacet
  facet normal 0 0 -1
    outer loop
      vertex -10.4407 -1.03956 -3.5
      vertex -6.07533 -1.6168 -3.5
      vertex -5.7277 -1.69069 -3.5
    endloop
  endfacet
  facet normal 0 0 -1
    outer loop
      vertex 8.3933 -1.64158 -3.5
      vertex 9.59508 -2.93893 -3.5
      vertex 8.89565 -3.71572 -3.5
    endloop
  endfacet
  facet normal 0 0 -1
    outer loop
      vertex 5.55 -3.28316 -3.5
      vertex -10.4407 -1.03956 -3.5
      vertex -5.7277 -1.69069 -3.5
    endloop
  endfacet
  facet normal 0 0 -1
    outer loop
      vertex 5.55 -3.28316 -3.5
      vertex -4.41248 -1.26335 -3.5
      vertex 2.7067 -1.64158 -3.5
    endloop
  endfacet
  facet normal 0 0 -1
    outer loop
      vertex 2.7067 -1.64158 -3.5
      vertex -4.17467 -0.999235 -3.5
      vertex -3.99697 -0.691452 -3.5
    endloop
  endfacet
  facet normal 0 0 -1
    outer loop
      vertex -4.41248 1.26335 -3.5
      vertex 7.09508 4.75528 -3.5
      vertex -4.17467 0.999235 -3.5
    endloop
  endfacet
  facet normal 0 0 -1
    outer loop
      vertex -5.55 4.97261 -3.5
      vertex 5.55 5 -3.5
      vertex -4.41248 1.26335 -3.5
    endloop
  endfacet
  facet normal 0 0 -1
    outer loop
      vertex 2.7067 -1.64158 -3.5
      vertex -3.88715 0.35345 -3.5
      vertex 2.7067 1.64158 -3.5
    endloop
  endfacet
  facet normal 0 0 -1
    outer loop
      vertex -5.55 4.97261 -3.5
      vertex -4.41248 1.26335 -3.5
      vertex -4.7 1.47224 -3.5
    endloop
  endfacet
  facet normal 0 0 -1
    outer loop
      vertex 2.7067 1.64158 -3.5
      vertex -3.99697 0.691452 -3.5
      vertex 5.55 3.28316 -3.5
    endloop
  endfacet
  facet normal 0 0 -1
    outer loop
      vertex -5.55 4.97261 -3.5
      vertex -4.7 1.47224 -3.5
      vertex -5.02467 1.6168 -3.5
    endloop
  endfacet
  facet normal 0 0 -1
    outer loop
      vertex -5.55 4.97261 -3.5
      vertex -5.02467 1.6168 -3.5
      vertex -5.3723 1.69069 -3.5
    endloop
  endfacet
  facet normal 0 0 -1
    outer loop
      vertex -5.55 4.97261 -3.5
      vertex -5.3723 1.69069 -3.5
      vertex -5.7277 1.69069 -3.5
    endloop
  endfacet
  facet normal 0 0 -1
    outer loop
      vertex -5.55 4.97261 -3.5
      vertex -5.7277 1.69069 -3.5
      vertex -6.07533 1.6168 -3.5
    endloop
  endfacet
  facet normal 0 0 -1
    outer loop
      vertex -5.55 4.97261 -3.5
      vertex -6.07533 1.6168 -3.5
      vertex -6.4 1.47224 -3.5
    endloop
  endfacet
  facet normal 0 0 -1
    outer loop
      vertex -5.55 4.97261 -3.5
      vertex -6.4 1.47224 -3.5
      vertex -10.4407 -1.03956 -3.5
    endloop
  endfacet
  facet normal 0 0 -1
    outer loop
      vertex -6.4 1.47224 -3.5
      vertex -6.68752 1.26335 -3.5
      vertex -10.4407 -1.03956 -3.5
    endloop
  endfacet
  facet normal 0 0 -1
    outer loop
      vertex -7.10303 0.691452 -3.5
      vertex -10.4407 -1.03956 -3.5
      vertex -6.92533 0.999235 -3.5
    endloop
  endfacet
  facet normal 0 0 -1
    outer loop
      vertex -7.21285 0.35345 -3.5
      vertex -10.4407 -1.03956 -3.5
      vertex -7.10303 0.691452 -3.5
    endloop
  endfacet
  facet normal 0 0 -1
    outer loop
      vertex 2.7067 1.64158 -3.5
      vertex -3.88715 0.35345 -3.5
      vertex -3.99697 0.691452 -3.5
    endloop
  endfacet
  facet normal 0 0 -1
    outer loop
      vertex 2.7067 -1.64158 -3.5
      vertex -4.41248 -1.26335 -3.5
      vertex -4.17467 -0.999235 -3.5
    endloop
  endfacet
  facet normal 0 0 -1
    outer loop
      vertex 8.3933 1.64158 -3.5
      vertex 10.55 0 -3.5
      vertex 10.4407 -1.03956 -3.5
    endloop
  endfacet
  facet normal 0 0 -1
    outer loop
      vertex 8.3933 -1.64158 -3.5
      vertex 10.1177 -2.03368 -3.5
      vertex 9.59508 -2.93893 -3.5
    endloop
  endfacet
  facet normal 0 0 -1
    outer loop
      vertex -10.4407 -1.03956 -3.5
      vertex 5.55 -3.28316 -3.5
      vertex 8.05 -4.33013 -3.5
    endloop
  endfacet
  facet normal 0 0 -1
    outer loop
      vertex 5.55 -3.28316 -3.5
      vertex -5.3723 -1.69069 -3.5
      vertex -5.02467 -1.6168 -3.5
    endloop
  endfacet
  facet normal 0 0 -1
    outer loop
      vertex 5.55 -3.28316 -3.5
      vertex -5.7277 -1.69069 -3.5
      vertex -5.3723 -1.69069 -3.5
    endloop
  endfacet
  facet normal 0 0 -1
    outer loop
      vertex -3.99697 0.691452 -3.5
      vertex 8.05 4.33013 -3.5
      vertex 5.55 3.28316 -3.5
    endloop
  endfacet
  facet normal 0 0 -1
    outer loop
      vertex 2.7067 -1.64158 -3.5
      vertex -3.99697 -0.691452 -3.5
      vertex -3.88715 -0.35345 -3.5
    endloop
  endfacet
  facet normal 0 0 -1
    outer loop
      vertex -6.07264 -4.97261 -3.5
      vertex -10.4407 -1.03956 -3.5
      vertex -5.55 -4.97261 -3.5
    endloop
  endfacet
  facet normal 0 0 -1
    outer loop
      vertex -4.41248 1.26335 -3.5
      vertex 5.55 4.97261 -3.5
      vertex 6.07264 4.97261 -3.5
    endloop
  endfacet
  facet normal 0 0 -1
    outer loop
      vertex -4.41248 1.26335 -3.5
      vertex 6.07264 4.97261 -3.5
      vertex 7.09508 4.75528 -3.5
    endloop
  endfacet
  facet normal 0 0 -1
    outer loop
      vertex -6.92533 0.999235 -3.5
      vertex -10.4407 -1.03956 -3.5
      vertex -6.68752 1.26335 -3.5
    endloop
  endfacet
  facet normal 0 0 -1
    outer loop
      vertex 5.55 3.28316 -3.5
      vertex 8.89565 3.71572 -3.5
      vertex 9.59508 2.93893 -3.5
    endloop
  endfacet
  facet normal 0 0 -1
    outer loop
      vertex 5.55 3.28316 -3.5
      vertex 9.59508 2.93893 -3.5
      vertex 10.1177 2.03368 -3.5
    endloop
  endfacet
  facet normal 0 0 -1
    outer loop
      vertex 5.55 3.28316 -3.5
      vertex 10.1177 2.03368 -3.5
      vertex 8.3933 1.64158 -3.5
    endloop
  endfacet
  facet normal 0 0 -1
    outer loop
      vertex 8.3933 1.64158 -3.5
      vertex 10.4407 1.03956 -3.5
      vertex 10.55 0 -3.5
    endloop
  endfacet
  facet normal -0.994522 0.104529 0
    outer loop
      vertex -10.55 0 -3.5
      vertex -10.55 0 0
      vertex -10.4407 1.03956 -3.5
    endloop
  endfacet
  facet normal -0.994522 0.104529 0
    outer loop
      vertex -10.4407 1.03956 -3.5
      vertex -10.55 0 0
      vertex -10.4407 1.03956 0
    endloop
  endfacet
  facet normal -0.994522 -0.104529 0
    outer loop
      vertex -10.55 0 -3.5
      vertex -10.4407 -1.03956 -3.5
      vertex -10.55 0 0
    endloop
  endfacet
  facet normal -0.994522 -0.104529 0
    outer loop
      vertex -10.55 0 0
      vertex -10.4407 -1.03956 -3.5
      vertex -10.4407 -1.03956 0
    endloop
  endfacet
  facet normal -0.951056 -0.309017 0
    outer loop
      vertex -10.4407 -1.03956 -3.5
      vertex -10.1177 -2.03368 -3.5
      vertex -10.4407 -1.03956 0
    endloop
  endfacet
  facet normal -0.951056 -0.309017 0
    outer loop
      vertex -10.4407 -1.03956 0
      vertex -10.1177 -2.03368 -3.5
      vertex -10.1177 -2.03368 0
    endloop
  endfacet
  facet normal -0.866026 -0.5 0
    outer loop
      vertex -10.1177 -2.03368 -3.5
      vertex -9.59508 -2.93893 -3.5
      vertex -10.1177 -2.03368 0
    endloop
  endfacet
  facet normal -0.866026 -0.5 0
    outer loop
      vertex -10.1177 -2.03368 0
      vertex -9.59508 -2.93893 -3.5
      vertex -9.59508 -2.93893 0
    endloop
  endfacet
  facet normal -0.743145 -0.669131 0
    outer loop
      vertex -9.59508 -2.93893 -3.5
      vertex -8.89565 -3.71572 -3.5
      vertex -9.59508 -2.93893 0
    endloop
  endfacet
  facet normal -0.743145 -0.669131 0
    outer loop
      vertex -9.59508 -2.93893 0
      vertex -8.89565 -3.71572 -3.5
      vertex -8.89565 -3.71572 0
    endloop
  endfacet
  facet normal -0.587785 -0.809017 0
    outer loop
      vertex -8.89565 -3.71572 0
      vertex -8.89565 -3.71572 -3.5
      vertex -8.05 -4.33013 -3.5
    endloop
  endfacet
  facet normal -0.587785 -0.809017 0
    outer loop
      vertex -8.05 -4.33013 0
      vertex -8.89565 -3.71572 0
      vertex -8.05 -4.33013 -3.5
    endloop
  endfacet
  facet normal -0.406737 -0.913545 0
    outer loop
      vertex -8.05 -4.33013 0
      vertex -8.05 -4.33013 -3.5
      vertex -7.09508 -4.75528 -3.5
    endloop
  endfacet
  facet normal -0.406737 -0.913545 0
    outer loop
      vertex -7.09508 -4.75528 0
      vertex -8.05 -4.33013 0
      vertex -7.09508 -4.75528 -3.5
    endloop
  endfacet
  facet normal -0.207911 -0.978148 0
    outer loop
      vertex -7.09508 -4.75528 0
      vertex -7.09508 -4.75528 -3.5
      vertex -6.07264 -4.97261 -3.5
    endloop
  endfacet
  facet normal -0.207911 -0.978148 0
    outer loop
      vertex -6.07264 -4.97261 0
      vertex -7.09508 -4.75528 0
      vertex -6.07264 -4.97261 -3.5
    endloop
  endfacet
  facet normal 0 -1 0
    outer loop
      vertex -6.07264 -4.97261 0
      vertex -6.07264 -4.97261 -3.5
      vertex -5.55 -4.97261 -3.5
    endloop
  endfacet
  facet normal 0 -1 0
    outer loop
      vertex -5.55 -4.97261 0
      vertex -6.07264 -4.97261 0
      vertex -5.55 -4.97261 -3.5
    endloop
  endfacet
  facet normal -1 0 0
    outer loop
      vertex -5.55 -5 -3.5
      vertex -5.55 -5 0
      vertex -5.55 -4.97261 -3.5
    endloop
  endfacet
  facet normal -1 0 0
    outer loop
      vertex -5.55 -4.97261 -3.5
      vertex -5.55 -5 0
      vertex -5.55 -4.97261 0
    endloop
  endfacet
  facet normal 0 -1 0
    outer loop
      vertex -5.55 -5 0
      vertex -5.55 -5 -3.5
      vertex 5.55 -5 -3.5
    endloop
  endfacet
  facet normal 0 -1 0
    outer loop
      vertex 0 -5 0
      vertex -5.55 -5 0
      vertex 5.55 -5 -3.5
    endloop
  endfacet
  facet normal 0 -1 0
    outer loop
      vertex 5.55 -5 3.5
      vertex 0 -5 0
      vertex 5.55 -5 -3.5
    endloop
  endfacet
  facet normal 0 -1 0
    outer loop
      vertex 0 -5 3.5
      vertex 0 -5 0
      vertex 5.55 -5 3.5
    endloop
  endfacet
  facet normal 1 0 0
    outer loop
      vertex 5.55 -5 3.5
      vertex 5.55 -5 -3.5
      vertex 5.55 -4.97261 -3.5
    endloop
  endfacet
  facet normal 1 0 0
    outer loop
      vertex 5.55 -4.97261 3.5
      vertex 5.55 -5 3.5
      vertex 5.55 -4.97261 -3.5
    endloop
  endfacet
  facet normal 0 -1 0
    outer loop
      vertex 5.55 -4.97261 3.5
      vertex 5.55 -4.97261 -3.5
      vertex 6.07264 -4.97261 -3.5
    endloop
  endfacet
  facet normal 0 -1 0
    outer loop
      vertex 6.07264 -4.97261 3.5
      vertex 5.55 -4.97261 3.5
      vertex 6.07264 -4.97261 -3.5
    endloop
  endfacet
  facet normal 0.207911 -0.978148 0
    outer loop
      vertex 6.07264 -4.97261 3.5
      vertex 6.07264 -4.97261 -3.5
      vertex 7.09508 -4.75528 -3.5
    endloop
  endfacet
  facet normal 0.207911 -0.978148 0
    outer loop
      vertex 7.09508 -4.75528 3.5
      vertex 6.07264 -4.97261 3.5
      vertex 7.09508 -4.75528 -3.5
    endloop
  endfacet
  facet normal 0.406737 -0.913545 0
    outer loop
      vertex 7.09508 -4.75528 3.5
      vertex 7.09508 -4.75528 -3.5
      vertex 8.05 -4.33013 -3.5
    endloop
  endfacet
  facet normal 0.406737 -0.913545 0
    outer loop
      vertex 8.05 -4.33013 3.5
      vertex 7.09508 -4.75528 3.5
      vertex 8.05 -4.33013 -3.5
    endloop
  endfacet
  facet normal 0.587785 -0.809017 0
    outer loop
      vertex 8.05 -4.33013 3.5
      vertex 8.05 -4.33013 -3.5
      vertex 8.89565 -3.71572 -3.5
    endloop
  endfacet
  facet normal 0.587785 -0.809017 0
    outer loop
      vertex 8.89565 -3.71572 3.5
      vertex 8.05 -4.33013 3.5
      vertex 8.89565 -3.71572 -3.5
    endloop
  endfacet
  facet normal 0.743145 -0.669131 0
    outer loop
      vertex 8.89565 -3.71572 3.5
      vertex 8.89565 -3.71572 -3.5
      vertex 9.59508 -2.93893 -3.5
    endloop
  endfacet
  facet normal 0.743145 -0.669131 0
    outer loop
      vertex 9.59508 -2.93893 3.5
      vertex 8.89565 -3.71572 3.5
      vertex 9.59508 -2.93893 -3.5
    endloop
  endfacet
  facet normal 0.866026 -0.5 0
    outer loop
      vertex 9.59508 -2.93893 3.5
      vertex 9.59508 -2.93893 -3.5
      vertex 10.1177 -2.03368 -3.5
    endloop
  endfacet
  facet normal 0.866026 -0.5 0
    outer loop
      vertex 10.1177 -2.03368 3.5
      vertex 9.59508 -2.93893 3.5
      vertex 10.1177 -2.03368 -3.5
    endloop
  endfacet
  facet normal 0.951056 -0.309017 0
    outer loop
      vertex 10.1177 -2.03368 3.5
      vertex 10.1177 -2.03368 -3.5
      vertex 10.4407 -1.03956 -3.5
    endloop
  endfacet
  facet normal 0.951056 -0.309017 0
    outer loop
      vertex 10.4407 -1.03956 3.5
      vertex 10.1177 -2.03368 3.5
      vertex 10.4407 -1.03956 -3.5
    endloop
  endfacet
  facet normal 0.994522 -0.104529 0
    outer loop
      vertex 10.4407 -1.03956 3.5
      vertex 10.4407 -1.03956 -3.5
      vertex 10.55 0 -3.5
    endloop
  endfacet
  facet normal 0.994522 -0.104529 0
    outer loop
      vertex 10.55 0 3.5
      vertex 10.4407 -1.03956 3.5
      vertex 10.55 0 -3.5
    endloop
  endfacet
  facet normal 0.994522 0.104529 0
    outer loop
      vertex 10.55 0 -3.5
      vertex 10.4407 1.03956 -3.5
      vertex 10.4407 1.03956 3.5
    endloop
  endfacet
  facet normal 0.994522 0.104529 0
    outer loop
      vertex 10.55 0 3.5
      vertex 10.55 0 -3.5
      vertex 10.4407 1.03956 3.5
    endloop
  endfacet
  facet normal 0.951056 0.309017 0
    outer loop
      vertex 10.4407 1.03956 -3.5
      vertex 10.1177 2.03368 -3.5
      vertex 10.1177 2.03368 3.5
    endloop
  endfacet
  facet normal 0.951056 0.309017 0
    outer loop
      vertex 10.4407 1.03956 3.5
      vertex 10.4407 1.03956 -3.5
      vertex 10.1177 2.03368 3.5
    endloop
  endfacet
  facet normal 0.866026 0.5 0
    outer loop
      vertex 10.1177 2.03368 -3.5
      vertex 9.59508 2.93893 -3.5
      vertex 9.59508 2.93893 3.5
    endloop
  endfacet
  facet normal 0.866026 0.5 0
    outer loop
      vertex 10.1177 2.03368 3.5
      vertex 10.1177 2.03368 -3.5
      vertex 9.59508 2.93893 3.5
    endloop
  endfacet
  facet normal 0.743145 0.669131 0
    outer loop
      vertex 9.59508 2.93893 -3.5
      vertex 8.89565 3.71572 -3.5
      vertex 8.89565 3.71572 3.5
    endloop
  endfacet
  facet normal 0.743145 0.669131 0
    outer loop
      vertex 9.59508 2.93893 3.5
      vertex 9.59508 2.93893 -3.5
      vertex 8.89565 3.71572 3.5
    endloop
  endfacet
  facet normal 0.587785 0.809017 0
    outer loop
      vertex 8.05 4.33013 -3.5
      vertex 8.05 4.33013 3.5
      vertex 8.89565 3.71572 -3.5
    endloop
  endfacet
  facet normal 0.587785 0.809017 0
    outer loop
      vertex 8.89565 3.71572 -3.5
      vertex 8.05 4.33013 3.5
      vertex 8.89565 3.71572 3.5
    endloop
  endfacet
  facet normal 0.406737 0.913545 0
    outer loop
      vertex 7.09508 4.75528 -3.5
      vertex 7.09508 4.75528 3.5
      vertex 8.05 4.33013 -3.5
    endloop
  endfacet
  facet normal 0.406737 0.913545 0
    outer loop
      vertex 8.05 4.33013 -3.5
      vertex 7.09508 4.75528 3.5
      vertex 8.05 4.33013 3.5
    endloop
  endfacet
  facet normal 0.207911 0.978148 0
    outer loop
      vertex 6.07264 4.97261 -3.5
      vertex 6.07264 4.97261 3.5
      vertex 7.09508 4.75528 -3.5
    endloop
  endfacet
  facet normal 0.207911 0.978148 0
    outer loop
      vertex 7.09508 4.75528 -3.5
      vertex 6.07264 4.97261 3.5
      vertex 7.09508 4.75528 3.5
    endloop
  endfacet
  facet normal 0 1 0
    outer loop
      vertex 5.55 4.97261 -3.5
      vertex 5.55 4.97261 3.5
      vertex 6.07264 4.97261 -3.5
    endloop
  endfacet
  facet normal 0 1 0
    outer loop
      vertex 6.07264 4.97261 -3.5
      vertex 5.55 4.97261 3.5
      vertex 6.07264 4.97261 3.5
    endloop
  endfacet
  facet normal 1 0 0
    outer loop
      vertex 5.55 4.97261 3.5
      vertex 5.55 4.97261 -3.5
      vertex 5.55 5 -3.5
    endloop
  endfacet
  facet normal 1 0 0
    outer loop
      vertex 5.55 5 3.5
      vertex 5.55 4.97261 3.5
      vertex 5.55 5 -3.5
    endloop
  endfacet
  facet normal 0 1 0
    outer loop
      vertex -5.55 5 -3.5
      vertex -5.55 5 0
      vertex 5.55 5 -3.5
    endloop
  endfacet
  facet normal 0 1 0
    outer loop
      vertex 5.55 5 -3.5
      vertex -5.55 5 0
      vertex 0 5 0
    endloop
  endfacet
  facet normal 0 1 0
    outer loop
      vertex 5.55 5 -3.5
      vertex 0 5 0
      vertex 0 5 3.5
    endloop
  endfacet
  facet normal 0 1 0
    outer loop
      vertex 5.55 5 -3.5
      vertex 0 5 3.5
      vertex 5.55 5 3.5
    endloop
  endfacet
  facet normal -1 0 0
    outer loop
      vertex -5.55 4.97261 -3.5
      vertex -5.55 4.97261 0
      vertex -5.55 5 -3.5
    endloop
  endfacet
  facet normal -1 0 0
    outer loop
      vertex -5.55 5 -3.5
      vertex -5.55 4.97261 0
      vertex -5.55 5 0
    endloop
  endfacet
  facet normal 0 1 0
    outer loop
      vertex -6.07264 4.97261 -3.5
      vertex -6.07264 4.97261 0
      vertex -5.55 4.97261 -3.5
    endloop
  endfacet
  facet normal 0 1 0
    outer loop
      vertex -5.55 4.97261 -3.5
      vertex -6.07264 4.97261 0
      vertex -5.55 4.97261 0
    endloop
  endfacet
  facet normal -0.207911 0.978148 0
    outer loop
      vertex -7.09508 4.75528 -3.5
      vertex -7.09508 4.75528 0
      vertex -6.07264 4.97261 -3.5
    endloop
  endfacet
  facet normal -0.207911 0.978148 0
    outer loop
      vertex -6.07264 4.97261 -3.5
      vertex -7.09508 4.75528 0
      vertex -6.07264 4.97261 0
    endloop
  endfacet
  facet normal -0.406737 0.913545 0
    outer loop
      vertex -8.05 4.33013 -3.5
      vertex -8.05 4.33013 0
      vertex -7.09508 4.75528 -3.5
    endloop
  endfacet
  facet normal -0.406737 0.913545 0
    outer loop
      vertex -7.09508 4.75528 -3.5
      vertex -8.05 4.33013 0
      vertex -7.09508 4.75528 0
    endloop
  endfacet
  facet normal -0.587785 0.809017 0
    outer loop
      vertex -8.89565 3.71572 -3.5
      vertex -8.89565 3.71572 0
      vertex -8.05 4.33013 -3.5
    endloop
  endfacet
  facet normal -0.587785 0.809017 0
    outer loop
      vertex -8.05 4.33013 -3.5
      vertex -8.89565 3.71572 0
      vertex -8.05 4.33013 0
    endloop
  endfacet
  facet normal -0.743145 0.669131 0
    outer loop
      vertex -9.59508 2.93893 -3.5
      vertex -9.59508 2.93893 0
      vertex -8.89565 3.71572 -3.5
    endloop
  endfacet
  facet normal -0.743145 0.669131 0
    outer loop
      vertex -8.89565 3.71572 -3.5
      vertex -9.59508 2.93893 0
      vertex -8.89565 3.71572 0
    endloop
  endfacet
  facet normal -0.866026 0.5 0
    outer loop
      vertex -10.1177 2.03368 -3.5
      vertex -10.1177 2.03368 0
      vertex -9.59508 2.93893 -3.5
    endloop
  endfacet
  facet normal -0.866026 0.5 0
    outer loop
      vertex -9.59508 2.93893 -3.5
      vertex -10.1177 2.03368 0
      vertex -9.59508 2.93893 0
    endloop
  endfacet
  facet normal -0.951056 0.309017 0
    outer loop
      vertex -10.4407 1.03956 -3.5
      vertex -10.4407 1.03956 0
      vertex -10.1177 2.03368 -3.5
    endloop
  endfacet
  facet normal -0.951056 0.309017 0
    outer loop
      vertex -10.1177 2.03368 -3.5
      vertex -10.4407 1.03956 0
      vertex -10.1177 2.03368 0
    endloop
  endfacet
  facet normal 0.994522 -0.104528 0
    outer loop
      vertex -7.21285 0.35345 -3.5
      vertex -7.21285 0.35345 -1.7
      vertex -7.25 0 -1.7
    endloop
  endfacet
  facet normal 0.994522 -0.104528 0
    outer loop
      vertex -7.25 0 -3.5
      vertex -7.21285 0.35345 -3.5
      vertex -7.25 0 -1.7
    endloop
  endfacet
  facet normal 0.994522 0.104528 0
    outer loop
      vertex -7.25 0 -1.7
      vertex -7.21285 -0.35345 -1.7
      vertex -7.21285 -0.35345 -3.5
    endloop
  endfacet
  facet normal 0.994522 0.104528 0
    outer loop
      vertex -7.25 0 -3.5
      vertex -7.25 0 -1.7
      vertex -7.21285 -0.35345 -3.5
    endloop
  endfacet
  facet normal 0.951056 -0.309018 0
    outer loop
      vertex -7.10303 0.691452 -3.5
      vertex -7.10303 0.691452 -1.7
      vertex -7.21285 0.35345 -1.7
    endloop
  endfacet
  facet normal 0.951056 -0.309018 0
    outer loop
      vertex -7.21285 0.35345 -3.5
      vertex -7.10303 0.691452 -3.5
      vertex -7.21285 0.35345 -1.7
    endloop
  endfacet
  facet normal 0.866026 -0.499999 0
    outer loop
      vertex -6.92533 0.999235 -3.5
      vertex -6.92533 0.999235 -1.7
      vertex -7.10303 0.691452 -1.7
    endloop
  endfacet
  facet normal 0.866026 -0.499999 0
    outer loop
      vertex -7.10303 0.691452 -3.5
      vertex -6.92533 0.999235 -3.5
      vertex -7.10303 0.691452 -1.7
    endloop
  endfacet
  facet normal 0.743144 -0.669131 0
    outer loop
      vertex -6.68752 1.26335 -3.5
      vertex -6.68752 1.26335 -1.7
      vertex -6.92533 0.999235 -1.7
    endloop
  endfacet
  facet normal 0.743144 -0.669131 0
    outer loop
      vertex -6.92533 0.999235 -3.5
      vertex -6.68752 1.26335 -3.5
      vertex -6.92533 0.999235 -1.7
    endloop
  endfacet
  facet normal 0.587785 -0.809017 0
    outer loop
      vertex -6.4 1.47224 -3.5
      vertex -6.4 1.47224 -1.7
      vertex -6.68752 1.26335 -1.7
    endloop
  endfacet
  facet normal 0.587785 -0.809017 0
    outer loop
      vertex -6.68752 1.26335 -3.5
      vertex -6.4 1.47224 -3.5
      vertex -6.68752 1.26335 -1.7
    endloop
  endfacet
  facet normal 0.406737 -0.913545 0
    outer loop
      vertex -6.07533 1.6168 -3.5
      vertex -6.07533 1.6168 -1.7
      vertex -6.4 1.47224 -1.7
    endloop
  endfacet
  facet normal 0.406737 -0.913545 0
    outer loop
      vertex -6.4 1.47224 -3.5
      vertex -6.07533 1.6168 -3.5
      vertex -6.4 1.47224 -1.7
    endloop
  endfacet
  facet normal 0.207911 -0.978148 0
    outer loop
      vertex -5.7277 1.69069 -3.5
      vertex -5.7277 1.69069 -1.7
      vertex -6.07533 1.6168 -1.7
    endloop
  endfacet
  facet normal 0.207911 -0.978148 0
    outer loop
      vertex -6.07533 1.6168 -3.5
      vertex -5.7277 1.69069 -3.5
      vertex -6.07533 1.6168 -1.7
    endloop
  endfacet
  facet normal 0 -1 0
    outer loop
      vertex -5.3723 1.69069 -3.5
      vertex -5.3723 1.69069 -1.7
      vertex -5.7277 1.69069 -1.7
    endloop
  endfacet
  facet normal 0 -1 0
    outer loop
      vertex -5.7277 1.69069 -3.5
      vertex -5.3723 1.69069 -3.5
      vertex -5.7277 1.69069 -1.7
    endloop
  endfacet
  facet normal -0.207911 -0.978148 0
    outer loop
      vertex -5.02467 1.6168 -3.5
      vertex -5.02467 1.6168 -1.7
      vertex -5.3723 1.69069 -1.7
    endloop
  endfacet
  facet normal -0.207911 -0.978148 0
    outer loop
      vertex -5.3723 1.69069 -3.5
      vertex -5.02467 1.6168 -3.5
      vertex -5.3723 1.69069 -1.7
    endloop
  endfacet
  facet normal -0.406737 -0.913545 0
    outer loop
      vertex -4.7 1.47224 -3.5
      vertex -4.7 1.47224 -1.7
      vertex -5.02467 1.6168 -1.7
    endloop
  endfacet
  facet normal -0.406737 -0.913545 0
    outer loop
      vertex -5.02467 1.6168 -3.5
      vertex -4.7 1.47224 -3.5
      vertex -5.02467 1.6168 -1.7
    endloop
  endfacet
  facet normal -0.587785 -0.809017 0
    outer loop
      vertex -4.41248 1.26335 -3.5
      vertex -4.41248 1.26335 -1.7
      vertex -4.7 1.47224 -1.7
    endloop
  endfacet
  facet normal -0.587785 -0.809017 0
    outer loop
      vertex -4.7 1.47224 -3.5
      vertex -4.41248 1.26335 -3.5
      vertex -4.7 1.47224 -1.7
    endloop
  endfacet
  facet normal -0.743144 -0.669131 0
    outer loop
      vertex -4.17467 0.999235 -1.7
      vertex -4.41248 1.26335 -1.7
      vertex -4.17467 0.999235 -3.5
    endloop
  endfacet
  facet normal -0.743144 -0.669131 0
    outer loop
      vertex -4.17467 0.999235 -3.5
      vertex -4.41248 1.26335 -1.7
      vertex -4.41248 1.26335 -3.5
    endloop
  endfacet
  facet normal -0.866026 -0.499999 0
    outer loop
      vertex -3.99697 0.691452 -1.7
      vertex -4.17467 0.999235 -1.7
      vertex -3.99697 0.691452 -3.5
    endloop
  endfacet
  facet normal -0.866026 -0.499999 0
    outer loop
      vertex -3.99697 0.691452 -3.5
      vertex -4.17467 0.999235 -1.7
      vertex -4.17467 0.999235 -3.5
    endloop
  endfacet
  facet normal -0.951056 -0.309018 0
    outer loop
      vertex -3.88715 0.35345 -1.7
      vertex -3.99697 0.691452 -1.7
      vertex -3.88715 0.35345 -3.5
    endloop
  endfacet
  facet normal -0.951056 -0.309018 0
    outer loop
      vertex -3.88715 0.35345 -3.5
      vertex -3.99697 0.691452 -1.7
      vertex -3.99697 0.691452 -3.5
    endloop
  endfacet
  facet normal -0.994522 -0.104528 0
    outer loop
      vertex -3.85 0 -1.7
      vertex -3.88715 0.35345 -1.7
      vertex -3.85 0 -3.5
    endloop
  endfacet
  facet normal -0.994522 -0.104528 0
    outer loop
      vertex -3.85 0 -3.5
      vertex -3.88715 0.35345 -1.7
      vertex -3.88715 0.35345 -3.5
    endloop
  endfacet
  facet normal -0.994522 0.104528 0
    outer loop
      vertex -3.85 0 -1.7
      vertex -3.85 0 -3.5
      vertex -3.88715 -0.35345 -1.7
    endloop
  endfacet
  facet normal -0.994522 0.104528 0
    outer loop
      vertex -3.88715 -0.35345 -1.7
      vertex -3.85 0 -3.5
      vertex -3.88715 -0.35345 -3.5
    endloop
  endfacet
  facet normal -0.951056 0.309018 0
    outer loop
      vertex -3.88715 -0.35345 -1.7
      vertex -3.88715 -0.35345 -3.5
      vertex -3.99697 -0.691452 -1.7
    endloop
  endfacet
  facet normal -0.951056 0.309018 0
    outer loop
      vertex -3.99697 -0.691452 -1.7
      vertex -3.88715 -0.35345 -3.5
      vertex -3.99697 -0.691452 -3.5
    endloop
  endfacet
  facet normal -0.866026 0.499999 0
    outer loop
      vertex -3.99697 -0.691452 -1.7
      vertex -3.99697 -0.691452 -3.5
      vertex -4.17467 -0.999235 -1.7
    endloop
  endfacet
  facet normal -0.866026 0.499999 0
    outer loop
      vertex -4.17467 -0.999235 -1.7
      vertex -3.99697 -0.691452 -3.5
      vertex -4.17467 -0.999235 -3.5
    endloop
  endfacet
  facet normal -0.743144 0.669131 0
    outer loop
      vertex -4.17467 -0.999235 -1.7
      vertex -4.17467 -0.999235 -3.5
      vertex -4.41248 -1.26335 -1.7
    endloop
  endfacet
  facet normal -0.743144 0.669131 0
    outer loop
      vertex -4.41248 -1.26335 -1.7
      vertex -4.17467 -0.999235 -3.5
      vertex -4.41248 -1.26335 -3.5
    endloop
  endfacet
  facet normal -0.587785 0.809017 0
    outer loop
      vertex -4.41248 -1.26335 -1.7
      vertex -4.41248 -1.26335 -3.5
      vertex -4.7 -1.47224 -1.7
    endloop
  endfacet
  facet normal -0.587785 0.809017 0
    outer loop
      vertex -4.7 -1.47224 -1.7
      vertex -4.41248 -1.26335 -3.5
      vertex -4.7 -1.47224 -3.5
    endloop
  endfacet
  facet normal -0.406737 0.913545 0
    outer loop
      vertex -4.7 -1.47224 -1.7
      vertex -4.7 -1.47224 -3.5
      vertex -5.02467 -1.6168 -1.7
    endloop
  endfacet
  facet normal -0.406737 0.913545 0
    outer loop
      vertex -5.02467 -1.6168 -1.7
      vertex -4.7 -1.47224 -3.5
      vertex -5.02467 -1.6168 -3.5
    endloop
  endfacet
  facet normal -0.207911 0.978148 0
    outer loop
      vertex -5.02467 -1.6168 -1.7
      vertex -5.02467 -1.6168 -3.5
      vertex -5.3723 -1.69069 -1.7
    endloop
  endfacet
  facet normal -0.207911 0.978148 0
    outer loop
      vertex -5.3723 -1.69069 -1.7
      vertex -5.02467 -1.6168 -3.5
      vertex -5.3723 -1.69069 -3.5
    endloop
  endfacet
  facet normal 0 1 0
    outer loop
      vertex -5.3723 -1.69069 -1.7
      vertex -5.3723 -1.69069 -3.5
      vertex -5.7277 -1.69069 -1.7
    endloop
  endfacet
  facet normal 0 1 0
    outer loop
      vertex -5.7277 -1.69069 -1.7
      vertex -5.3723 -1.69069 -3.5
      vertex -5.7277 -1.69069 -3.5
    endloop
  endfacet
  facet normal 0.207911 0.978148 0
    outer loop
      vertex -5.7277 -1.69069 -1.7
      vertex -5.7277 -1.69069 -3.5
      vertex -6.07533 -1.6168 -1.7
    endloop
  endfacet
  facet normal 0.207911 0.978148 0
    outer loop
      vertex -6.07533 -1.6168 -1.7
      vertex -5.7277 -1.69069 -3.5
      vertex -6.07533 -1.6168 -3.5
    endloop
  endfacet
  facet normal 0.406737 0.913545 0
    outer loop
      vertex -6.07533 -1.6168 -1.7
      vertex -6.07533 -1.6168 -3.5
      vertex -6.4 -1.47224 -1.7
    endloop
  endfacet
  facet normal 0.406737 0.913545 0
    outer loop
      vertex -6.4 -1.47224 -1.7
      vertex -6.07533 -1.6168 -3.5
      vertex -6.4 -1.47224 -3.5
    endloop
  endfacet
  facet normal 0.587785 0.809017 0
    outer loop
      vertex -6.4 -1.47224 -1.7
      vertex -6.4 -1.47224 -3.5
      vertex -6.68752 -1.26335 -1.7
    endloop
  endfacet
  facet normal 0.587785 0.809017 0
    outer loop
      vertex -6.68752 -1.26335 -1.7
      vertex -6.4 -1.47224 -3.5
      vertex -6.68752 -1.26335 -3.5
    endloop
  endfacet
  facet normal 0.743144 0.669131 0
    outer loop
      vertex -6.92533 -0.999235 -1.7
      vertex -6.68752 -1.26335 -1.7
      vertex -6.68752 -1.26335 -3.5
    endloop
  endfacet
  facet normal 0.743144 0.669131 0
    outer loop
      vertex -6.92533 -0.999235 -3.5
      vertex -6.92533 -0.999235 -1.7
      vertex -6.68752 -1.26335 -3.5
    endloop
  endfacet
  facet normal 0.866026 0.499999 0
    outer loop
      vertex -7.10303 -0.691452 -1.7
      vertex -6.92533 -0.999235 -1.7
      vertex -6.92533 -0.999235 -3.5
    endloop
  endfacet
  facet normal 0.866026 0.499999 0
    outer loop
      vertex -7.10303 -0.691452 -3.5
      vertex -7.10303 -0.691452 -1.7
      vertex -6.92533 -0.999235 -3.5
    endloop
  endfacet
  facet normal 0.951056 0.309018 0
    outer loop
      vertex -7.21285 -0.35345 -1.7
      vertex -7.10303 -0.691452 -1.7
      vertex -7.10303 -0.691452 -3.5
    endloop
  endfacet
  facet normal 0.951056 0.309018 0
    outer loop
      vertex -7.21285 -0.35345 -3.5
      vertex -7.21285 -0.35345 -1.7
      vertex -7.10303 -0.691452 -3.5
    endloop
  endfacet
  facet normal 0.5 -0.866025 0
    outer loop
      vertex 5.55 3.28316 -3.5
      vertex 5.55 3.28316 1.5
      vertex 2.7067 1.64158 1.5
    endloop
  endfacet
  facet normal 0.5 -0.866025 0
    outer loop
      vertex 2.7067 1.64158 -3.5
      vertex 5.55 3.28316 -3.5
      vertex 2.7067 1.64158 1.5
    endloop
  endfacet
  facet normal 1 -1.06108e-07 0
    outer loop
      vertex 2.7067 1.64158 -3.5
      vertex 2.7067 1.64158 1.5
      vertex 2.7067 -1.64158 1.5
    endloop
  endfacet
  facet normal 1 -1.06108e-07 0
    outer loop
      vertex 2.7067 -1.64158 -3.5
      vertex 2.7067 1.64158 -3.5
      vertex 2.7067 -1.64158 1.5
    endloop
  endfacet
  facet normal -0.5 -0.866025 0
    outer loop
      vertex 8.3933 1.64158 -3.5
      vertex 8.3933 1.64158 1.5
      vertex 5.55 3.28316 1.5
    endloop
  endfacet
  facet normal -0.5 -0.866025 0
    outer loop
      vertex 5.55 3.28316 -3.5
      vertex 8.3933 1.64158 -3.5
      vertex 5.55 3.28316 1.5
    endloop
  endfacet
  facet normal -1 1.06108e-07 0
    outer loop
      vertex 8.3933 1.64158 1.5
      vertex 8.3933 1.64158 -3.5
      vertex 8.3933 -1.64158 1.5
    endloop
  endfacet
  facet normal -1 1.06108e-07 0
    outer loop
      vertex 8.3933 -1.64158 1.5
      vertex 8.3933 1.64158 -3.5
      vertex 8.3933 -1.64158 -3.5
    endloop
  endfacet
  facet normal -0.5 0.866025 0
    outer loop
      vertex 8.3933 -1.64158 1.5
      vertex 8.3933 -1.64158 -3.5
      vertex 5.55 -3.28316 1.5
    endloop
  endfacet
  facet normal -0.5 0.866025 0
    outer loop
      vertex 5.55 -3.28316 1.5
      vertex 8.3933 -1.64158 -3.5
      vertex 5.55 -3.28316 -3.5
    endloop
  endfacet
  facet normal 0.5 0.866025 0
    outer loop
      vertex 5.55 -3.28316 1.5
      vertex 5.55 -3.28316 -3.5
      vertex 2.7067 -1.64158 1.5
    endloop
  endfacet
  facet normal 0.5 0.866025 0
    outer loop
      vertex 2.7067 -1.64158 1.5
      vertex 5.55 -3.28316 -3.5
      vertex 2.7067 -1.64158 -3.5
    endloop
  endfacet
  facet normal 0 0 1
    outer loop
      vertex -10.4407 -1.03956 0
      vertex -10.1177 -2.03368 0
      vertex -9.59508 -2.93893 0
    endloop
  endfacet
  facet normal 0 0 1
    outer loop
      vertex -8.05 -4.33013 0
      vertex -10.4407 -1.03956 0
      vertex -8.89565 -3.71572 0
    endloop
  endfacet
  facet normal 0 0 1
    outer loop
      vertex -8.89565 -3.71572 0
      vertex -10.4407 -1.03956 0
      vertex -9.59508 -2.93893 0
    endloop
  endfacet
  facet normal 0 0 1
    outer loop
      vertex -7.09508 -4.75528 0
      vertex -10.4407 -1.03956 0
      vertex -8.05 -4.33013 0
    endloop
  endfacet
  facet normal 0 0 1
    outer loop
      vertex -6.07264 -4.97261 0
      vertex -10.4407 -1.03956 0
      vertex -7.09508 -4.75528 0
    endloop
  endfacet
  facet normal 0 0 1
    outer loop
      vertex -5.55 -4.97261 0
      vertex -10.4407 -1.03956 0
      vertex -6.07264 -4.97261 0
    endloop
  endfacet
  facet normal 0 0 1
    outer loop
      vertex 0 -5 0
      vertex -10.4407 -1.03956 0
      vertex -5.55 -4.97261 0
    endloop
  endfacet
  facet normal 0 0 1
    outer loop
      vertex 0 -5 0
      vertex -5.55 -4.97261 0
      vertex -5.55 -5 0
    endloop
  endfacet
  facet normal 0 0 1
    outer loop
      vertex -6.38177 -2.55993 0
      vertex -10.4407 -1.03956 0
      vertex 0 -5 0
    endloop
  endfacet
  facet normal 0 0 1
    outer loop
      vertex -5.55 5 0
      vertex -5.55 4.97261 0
      vertex 0 5 0
    endloop
  endfacet
  facet normal 0 0 1
    outer loop
      vertex -8.24167 0 0
      vertex -8.18491 0.539993 0
      vertex -10.4407 -1.03956 0
    endloop
  endfacet
  facet normal 0 0 1
    outer loop
      vertex -7.09508 4.75528 0
      vertex -10.4407 -1.03956 0
      vertex -6.07264 4.97261 0
    endloop
  endfacet
  facet normal 0 0 1
    outer loop
      vertex -8.05 4.33013 0
      vertex -10.4407 -1.03956 0
      vertex -7.09508 4.75528 0
    endloop
  endfacet
  facet normal 0 0 1
    outer loop
      vertex -8.89565 3.71572 0
      vertex -10.4407 -1.03956 0
      vertex -8.05 4.33013 0
    endloop
  endfacet
  facet normal 0 0 1
    outer loop
      vertex -9.59508 2.93893 0
      vertex -10.4407 -1.03956 0
      vertex -8.89565 3.71572 0
    endloop
  endfacet
  facet normal 0 0 1
    outer loop
      vertex -10.1177 2.03368 0
      vertex -10.4407 -1.03956 0
      vertex -9.59508 2.93893 0
    endloop
  endfacet
  facet normal 0 0 1
    outer loop
      vertex -10.4407 1.03956 0
      vertex -10.4407 -1.03956 0
      vertex -10.1177 2.03368 0
    endloop
  endfacet
  facet normal 0 0 1
    outer loop
      vertex -10.55 0 0
      vertex -10.4407 -1.03956 0
      vertex -10.4407 1.03956 0
    endloop
  endfacet
  facet normal 0 0 1
    outer loop
      vertex -6.38177 -2.55993 0
      vertex -6.8778 -2.33908 0
      vertex -10.4407 -1.03956 0
    endloop
  endfacet
  facet normal 0 0 1
    outer loop
      vertex -8.18285 0.559629 0
      vertex -10.4407 -1.03956 0
      vertex -8.18491 0.539993 0
    endloop
  endfacet
  facet normal 0 0 1
    outer loop
      vertex -8.01506 1.07602 0
      vertex -10.4407 -1.03956 0
      vertex -8.18285 0.559629 0
    endloop
  endfacet
  facet normal 0 0 1
    outer loop
      vertex -8.00896 1.0948 0
      vertex -10.4407 -1.03956 0
      vertex -8.01506 1.07602 0
    endloop
  endfacet
  facet normal 0 0 1
    outer loop
      vertex -7.73748 1.56502 0
      vertex -10.4407 -1.03956 0
      vertex -8.00896 1.0948 0
    endloop
  endfacet
  facet normal 0 0 1
    outer loop
      vertex -7.35108 2.0003 0
      vertex -6.91181 2.31945 0
      vertex -5.55 4.97261 0
    endloop
  endfacet
  facet normal 0 0 1
    outer loop
      vertex -7.7276 1.58212 0
      vertex -10.4407 -1.03956 0
      vertex -7.73748 1.56502 0
    endloop
  endfacet
  facet normal 0 0 1
    outer loop
      vertex -6.38177 2.55993 0
      vertex -5.85067 2.67282 0
      vertex 0 5 0
    endloop
  endfacet
  facet normal 0 0 1
    outer loop
      vertex -5.55 4.97261 0
      vertex -10.4407 -1.03956 0
      vertex -7.7276 1.58212 0
    endloop
  endfacet
  facet normal 0 0 1
    outer loop
      vertex -5.55 4.97261 0
      vertex -7.36429 1.98563 0
      vertex -7.35108 2.0003 0
    endloop
  endfacet
  facet normal 0 0 1
    outer loop
      vertex -4.71823 2.55993 0
      vertex -4.2222 2.33908 0
      vertex 0 5 0
    endloop
  endfacet
  facet normal 0 0 1
    outer loop
      vertex -5.55 4.97261 0
      vertex -6.91181 2.31945 0
      vertex -6.89583 2.33105 0
    endloop
  endfacet
  facet normal 0 0 1
    outer loop
      vertex -3.09104 1.0948 0
      vertex -2.92325 0.578407 0
      vertex 0 -5 0
    endloop
  endfacet
  facet normal 0 0 1
    outer loop
      vertex -5.55 4.97261 0
      vertex -6.89583 2.33105 0
      vertex -6.39981 2.5519 0
    endloop
  endfacet
  facet normal 0 0 1
    outer loop
      vertex -5.55 4.97261 0
      vertex -6.38177 2.55993 0
      vertex 0 5 0
    endloop
  endfacet
  facet normal 0 0 1
    outer loop
      vertex -5.55 4.97261 0
      vertex -6.39981 2.5519 0
      vertex -6.38177 2.55993 0
    endloop
  endfacet
  facet normal 0 0 1
    outer loop
      vertex -5.85067 2.67282 0
      vertex -5.83136 2.67692 0
      vertex 0 5 0
    endloop
  endfacet
  facet normal 0 0 1
    outer loop
      vertex -5.83136 2.67692 0
      vertex -5.26864 2.67692 0
      vertex 0 5 0
    endloop
  endfacet
  facet normal 0 0 1
    outer loop
      vertex -5.26864 2.67692 0
      vertex -4.73754 2.56403 0
      vertex 0 5 0
    endloop
  endfacet
  facet normal 0 0 1
    outer loop
      vertex -4.73754 2.56403 0
      vertex -4.71823 2.55993 0
      vertex 0 5 0
    endloop
  endfacet
  facet normal 0 0 1
    outer loop
      vertex -4.20417 -2.33105 0
      vertex -4.70019 -2.5519 0
      vertex 0 -5 0
    endloop
  endfacet
  facet normal 0 0 1
    outer loop
      vertex 0 5 0
      vertex -4.2222 2.33908 0
      vertex -4.20417 2.33105 0
    endloop
  endfacet
  facet normal 0 0 1
    outer loop
      vertex 0 5 0
      vertex -4.20417 2.33105 0
      vertex -3.7649 2.0119 0
    endloop
  endfacet
  facet normal 0 0 1
    outer loop
      vertex -2.85833 0 0
      vertex -2.91509 -0.539993 0
      vertex 0 -5 0
    endloop
  endfacet
  facet normal 0 0 1
    outer loop
      vertex 0 5 0
      vertex -3.7649 2.0119 0
      vertex -3.74892 2.0003 0
    endloop
  endfacet
  facet normal 0 0 1
    outer loop
      vertex 0 5 0
      vertex -3.74892 2.0003 0
      vertex -3.38561 1.59679 0
    endloop
  endfacet
  facet normal 0 0 1
    outer loop
      vertex -2.91715 0.559629 0
      vertex -2.8604 0.0196361 0
      vertex 0 -5 0
    endloop
  endfacet
  facet normal 0 0 1
    outer loop
      vertex 0 5 0
      vertex -3.38561 1.59679 0
      vertex -3.3724 1.58212 0
    endloop
  endfacet
  facet normal 0 0 1
    outer loop
      vertex -6.89583 -2.33105 0
      vertex -7.3351 -2.0119 0
      vertex -10.4407 -1.03956 0
    endloop
  endfacet
  facet normal 0 0 1
    outer loop
      vertex 0 5 0
      vertex -3.3724 1.58212 0
      vertex -3.10091 1.1119 0
    endloop
  endfacet
  facet normal 0 0 1
    outer loop
      vertex 0 5 0
      vertex -3.09104 1.0948 0
      vertex 0 -5 0
    endloop
  endfacet
  facet normal 0 0 1
    outer loop
      vertex 0 5 0
      vertex -3.10091 1.1119 0
      vertex -3.09104 1.0948 0
    endloop
  endfacet
  facet normal 0 0 1
    outer loop
      vertex -2.92325 0.578407 0
      vertex -2.91715 0.559629 0
      vertex 0 -5 0
    endloop
  endfacet
  facet normal 0 0 1
    outer loop
      vertex -2.8604 0.0196361 0
      vertex -2.85833 0 0
      vertex 0 -5 0
    endloop
  endfacet
  facet normal 0 0 1
    outer loop
      vertex -2.91509 -0.539993 0
      vertex -2.91715 -0.559629 0
      vertex 0 -5 0
    endloop
  endfacet
  facet normal 0 0 1
    outer loop
      vertex -2.91715 -0.559629 0
      vertex -3.08494 -1.07602 0
      vertex 0 -5 0
    endloop
  endfacet
  facet normal 0 0 1
    outer loop
      vertex -3.08494 -1.07602 0
      vertex -3.09104 -1.0948 0
      vertex 0 -5 0
    endloop
  endfacet
  facet normal 0 0 1
    outer loop
      vertex -3.09104 -1.0948 0
      vertex -3.36252 -1.56502 0
      vertex 0 -5 0
    endloop
  endfacet
  facet normal 0 0 1
    outer loop
      vertex -3.36252 -1.56502 0
      vertex -3.3724 -1.58212 0
      vertex 0 -5 0
    endloop
  endfacet
  facet normal 0 0 1
    outer loop
      vertex -3.3724 -1.58212 0
      vertex -3.73571 -1.98563 0
      vertex 0 -5 0
    endloop
  endfacet
  facet normal 0 0 1
    outer loop
      vertex -3.73571 -1.98563 0
      vertex -3.74892 -2.0003 0
      vertex 0 -5 0
    endloop
  endfacet
  facet normal 0 0 1
    outer loop
      vertex -3.74892 -2.0003 0
      vertex -4.18819 -2.31945 0
      vertex 0 -5 0
    endloop
  endfacet
  facet normal 0 0 1
    outer loop
      vertex -4.18819 -2.31945 0
      vertex -4.20417 -2.33105 0
      vertex 0 -5 0
    endloop
  endfacet
  facet normal 0 0 1
    outer loop
      vertex -4.70019 -2.5519 0
      vertex -4.71823 -2.55993 0
      vertex 0 -5 0
    endloop
  endfacet
  facet normal 0 0 1
    outer loop
      vertex -4.71823 -2.55993 0
      vertex -5.24933 -2.67282 0
      vertex 0 -5 0
    endloop
  endfacet
  facet normal 0 0 1
    outer loop
      vertex -5.24933 -2.67282 0
      vertex -5.26864 -2.67692 0
      vertex 0 -5 0
    endloop
  endfacet
  facet normal 0 0 1
    outer loop
      vertex -5.26864 -2.67692 0
      vertex -5.83136 -2.67692 0
      vertex 0 -5 0
    endloop
  endfacet
  facet normal 0 0 1
    outer loop
      vertex -7.35108 -2.0003 0
      vertex -7.71439 -1.59679 0
      vertex -10.4407 -1.03956 0
    endloop
  endfacet
  facet normal 0 0 1
    outer loop
      vertex -5.83136 -2.67692 0
      vertex -6.36246 -2.56403 0
      vertex 0 -5 0
    endloop
  endfacet
  facet normal 0 0 1
    outer loop
      vertex -6.36246 -2.56403 0
      vertex -6.38177 -2.55993 0
      vertex 0 -5 0
    endloop
  endfacet
  facet normal 0 0 1
    outer loop
      vertex -6.89583 -2.33105 0
      vertex -10.4407 -1.03956 0
      vertex -6.8778 -2.33908 0
    endloop
  endfacet
  facet normal 0 0 1
    outer loop
      vertex -7.35108 -2.0003 0
      vertex -10.4407 -1.03956 0
      vertex -7.3351 -2.0119 0
    endloop
  endfacet
  facet normal 0 0 1
    outer loop
      vertex -7.7276 -1.58212 0
      vertex -10.4407 -1.03956 0
      vertex -7.71439 -1.59679 0
    endloop
  endfacet
  facet normal 0 0 1
    outer loop
      vertex -7.99909 -1.1119 0
      vertex -10.4407 -1.03956 0
      vertex -7.7276 -1.58212 0
    endloop
  endfacet
  facet normal 0 0 1
    outer loop
      vertex -8.00896 -1.0948 0
      vertex -10.4407 -1.03956 0
      vertex -7.99909 -1.1119 0
    endloop
  endfacet
  facet normal 0 0 1
    outer loop
      vertex -8.17675 -0.578407 0
      vertex -10.4407 -1.03956 0
      vertex -8.00896 -1.0948 0
    endloop
  endfacet
  facet normal 0 0 1
    outer loop
      vertex -8.18285 -0.559629 0
      vertex -10.4407 -1.03956 0
      vertex -8.17675 -0.578407 0
    endloop
  endfacet
  facet normal 0 0 1
    outer loop
      vertex -8.2396 -0.0196361 0
      vertex -10.4407 -1.03956 0
      vertex -8.18285 -0.559629 0
    endloop
  endfacet
  facet normal 0 0 1
    outer loop
      vertex -8.24167 0 0
      vertex -10.4407 -1.03956 0
      vertex -8.2396 -0.0196361 0
    endloop
  endfacet
  facet normal 0 0 1
    outer loop
      vertex -5.55 4.97261 0
      vertex -6.07264 4.97261 0
      vertex -10.4407 -1.03956 0
    endloop
  endfacet
  facet normal 0 0 1
    outer loop
      vertex -7.7276 1.58212 0
      vertex -7.36429 1.98563 0
      vertex -5.55 4.97261 0
    endloop
  endfacet
  facet normal -1 0 0
    outer loop
      vertex 0 5 3.5
      vertex 0 5 0
      vertex 0 -5 3.5
    endloop
  endfacet
  facet normal -1 0 0
    outer loop
      vertex 0 -5 3.5
      vertex 0 5 0
      vertex 0 -5 0
    endloop
  endfacet
  facet normal 0 0 1
    outer loop
      vertex 0 5 3.5
      vertex 0 -5 3.5
      vertex 5.55 -5 3.5
    endloop
  endfacet
  facet normal 0 0 1
    outer loop
      vertex 6.07264 -4.97261 3.5
      vertex 0 5 3.5
      vertex 5.55 -4.97261 3.5
    endloop
  endfacet
  facet normal 0 0 1
    outer loop
      vertex 5.55 -4.97261 3.5
      vertex 0 5 3.5
      vertex 5.55 -5 3.5
    endloop
  endfacet
  facet normal 0 0 1
    outer loop
      vertex 4.17467 -0.999235 3.5
      vertex 0 5 3.5
      vertex 6.07264 -4.97261 3.5
    endloop
  endfacet
  facet normal 0 0 1
    outer loop
      vertex 6.07533 -1.6168 3.5
      vertex 5.7277 -1.69069 3.5
      vertex 8.05 -4.33013 3.5
    endloop
  endfacet
  facet normal 0 0 1
    outer loop
      vertex 6.68752 -1.26335 3.5
      vertex 6.4 -1.47224 3.5
      vertex 8.89565 -3.71572 3.5
    endloop
  endfacet
  facet normal 0 0 1
    outer loop
      vertex 5.3723 1.69069 3.5
      vertex 5.7277 1.69069 3.5
      vertex 0 5 3.5
    endloop
  endfacet
  facet normal 0 0 1
    outer loop
      vertex 10.4407 1.03956 3.5
      vertex 0 5 3.5
      vertex 10.55 0 3.5
    endloop
  endfacet
  facet normal 0 0 1
    outer loop
      vertex 10.1177 2.03368 3.5
      vertex 0 5 3.5
      vertex 10.4407 1.03956 3.5
    endloop
  endfacet
  facet normal 0 0 1
    outer loop
      vertex 9.59508 2.93893 3.5
      vertex 0 5 3.5
      vertex 10.1177 2.03368 3.5
    endloop
  endfacet
  facet normal 0 0 1
    outer loop
      vertex 8.89565 3.71572 3.5
      vertex 0 5 3.5
      vertex 9.59508 2.93893 3.5
    endloop
  endfacet
  facet normal 0 0 1
    outer loop
      vertex 8.05 4.33013 3.5
      vertex 0 5 3.5
      vertex 8.89565 3.71572 3.5
    endloop
  endfacet
  facet normal 0 0 1
    outer loop
      vertex 7.09508 4.75528 3.5
      vertex 0 5 3.5
      vertex 8.05 4.33013 3.5
    endloop
  endfacet
  facet normal 0 0 1
    outer loop
      vertex 5.55 4.97261 3.5
      vertex 0 5 3.5
      vertex 7.09508 4.75528 3.5
    endloop
  endfacet
  facet normal 0 0 1
    outer loop
      vertex 4.41248 -1.26335 3.5
      vertex 4.17467 -0.999235 3.5
      vertex 6.07264 -4.97261 3.5
    endloop
  endfacet
  facet normal 0 0 1
    outer loop
      vertex 6.07264 4.97261 3.5
      vertex 5.55 4.97261 3.5
      vertex 7.09508 4.75528 3.5
    endloop
  endfacet
  facet normal 0 0 1
    outer loop
      vertex 3.88715 -0.35345 3.5
      vertex 3.85 0 3.5
      vertex 0 5 3.5
    endloop
  endfacet
  facet normal 0 0 1
    outer loop
      vertex 3.88715 0.35345 3.5
      vertex 0 5 3.5
      vertex 3.85 0 3.5
    endloop
  endfacet
  facet normal 0 0 1
    outer loop
      vertex 4.7 1.47224 3.5
      vertex 5.02467 1.6168 3.5
      vertex 0 5 3.5
    endloop
  endfacet
  facet normal 0 0 1
    outer loop
      vertex 4.41248 1.26335 3.5
      vertex 4.7 1.47224 3.5
      vertex 0 5 3.5
    endloop
  endfacet
  facet normal 0 0 1
    outer loop
      vertex 5.7277 -1.69069 3.5
      vertex 5.3723 -1.69069 3.5
      vertex 8.05 -4.33013 3.5
    endloop
  endfacet
  facet normal 0 0 1
    outer loop
      vertex 4.41248 1.26335 3.5
      vertex 0 5 3.5
      vertex 4.17467 0.999235 3.5
    endloop
  endfacet
  facet normal 0 0 1
    outer loop
      vertex 6.92533 0.999235 3.5
      vertex 7.10303 0.691452 3.5
      vertex 10.4407 -1.03956 3.5
    endloop
  endfacet
  facet normal 0 0 1
    outer loop
      vertex 7.25 0 3.5
      vertex 7.21285 -0.35345 3.5
      vertex 10.1177 -2.03368 3.5
    endloop
  endfacet
  facet normal 0 0 1
    outer loop
      vertex 5.3723 1.69069 3.5
      vertex 0 5 3.5
      vertex 5.02467 1.6168 3.5
    endloop
  endfacet
  facet normal 0 0 1
    outer loop
      vertex 6.4 1.47224 3.5
      vertex 6.68752 1.26335 3.5
      vertex 10.55 0 3.5
    endloop
  endfacet
  facet normal 0 0 1
    outer loop
      vertex 6.07533 1.6168 3.5
      vertex 0 5 3.5
      vertex 5.7277 1.69069 3.5
    endloop
  endfacet
  facet normal 0 0 1
    outer loop
      vertex 10.55 0 3.5
      vertex 0 5 3.5
      vertex 6.07533 1.6168 3.5
    endloop
  endfacet
  facet normal 0 0 1
    outer loop
      vertex 10.55 0 3.5
      vertex 6.07533 1.6168 3.5
      vertex 6.4 1.47224 3.5
    endloop
  endfacet
  facet normal 0 0 1
    outer loop
      vertex 10.55 0 3.5
      vertex 6.68752 1.26335 3.5
      vertex 10.4407 -1.03956 3.5
    endloop
  endfacet
  facet normal 0 0 1
    outer loop
      vertex 6.68752 1.26335 3.5
      vertex 6.92533 0.999235 3.5
      vertex 10.4407 -1.03956 3.5
    endloop
  endfacet
  facet normal 0 0 1
    outer loop
      vertex 7.21285 0.35345 3.5
      vertex 7.25 0 3.5
      vertex 10.1177 -2.03368 3.5
    endloop
  endfacet
  facet normal 0 0 1
    outer loop
      vertex 10.4407 -1.03956 3.5
      vertex 7.21285 0.35345 3.5
      vertex 10.1177 -2.03368 3.5
    endloop
  endfacet
  facet normal 0 0 1
    outer loop
      vertex 7.10303 0.691452 3.5
      vertex 7.21285 0.35345 3.5
      vertex 10.4407 -1.03956 3.5
    endloop
  endfacet
  facet normal 0 0 1
    outer loop
      vertex 10.1177 -2.03368 3.5
      vertex 7.21285 -0.35345 3.5
      vertex 9.59508 -2.93893 3.5
    endloop
  endfacet
  facet normal 0 0 1
    outer loop
      vertex 7.21285 -0.35345 3.5
      vertex 7.10303 -0.691452 3.5
      vertex 9.59508 -2.93893 3.5
    endloop
  endfacet
  facet normal 0 0 1
    outer loop
      vertex 9.59508 -2.93893 3.5
      vertex 6.92533 -0.999235 3.5
      vertex 8.89565 -3.71572 3.5
    endloop
  endfacet
  facet normal 0 0 1
    outer loop
      vertex 6.92533 -0.999235 3.5
      vertex 6.68752 -1.26335 3.5
      vertex 8.89565 -3.71572 3.5
    endloop
  endfacet
  facet normal 0 0 1
    outer loop
      vertex 8.89565 -3.71572 3.5
      vertex 6.4 -1.47224 3.5
      vertex 8.05 -4.33013 3.5
    endloop
  endfacet
  facet normal 0 0 1
    outer loop
      vertex 6.4 -1.47224 3.5
      vertex 6.07533 -1.6168 3.5
      vertex 8.05 -4.33013 3.5
    endloop
  endfacet
  facet normal 0 0 1
    outer loop
      vertex 5.02467 -1.6168 3.5
      vertex 4.7 -1.47224 3.5
      vertex 7.09508 -4.75528 3.5
    endloop
  endfacet
  facet normal 0 0 1
    outer loop
      vertex 3.99697 0.691452 3.5
      vertex 4.17467 0.999235 3.5
      vertex 0 5 3.5
    endloop
  endfacet
  facet normal 0 0 1
    outer loop
      vertex 8.05 -4.33013 3.5
      vertex 5.3723 -1.69069 3.5
      vertex 7.09508 -4.75528 3.5
    endloop
  endfacet
  facet normal 0 0 1
    outer loop
      vertex 5.3723 -1.69069 3.5
      vertex 5.02467 -1.6168 3.5
      vertex 7.09508 -4.75528 3.5
    endloop
  endfacet
  facet normal 0 0 1
    outer loop
      vertex 7.09508 -4.75528 3.5
      vertex 4.7 -1.47224 3.5
      vertex 6.07264 -4.97261 3.5
    endloop
  endfacet
  facet normal 0 0 1
    outer loop
      vertex 4.7 -1.47224 3.5
      vertex 4.41248 -1.26335 3.5
      vertex 6.07264 -4.97261 3.5
    endloop
  endfacet
  facet normal 0 0 1
    outer loop
      vertex 3.99697 -0.691452 3.5
      vertex 0 5 3.5
      vertex 4.17467 -0.999235 3.5
    endloop
  endfacet
  facet normal 0 0 1
    outer loop
      vertex 3.88715 -0.35345 3.5
      vertex 0 5 3.5
      vertex 3.99697 -0.691452 3.5
    endloop
  endfacet
  facet normal 0 0 1
    outer loop
      vertex 5.55 4.97261 3.5
      vertex 5.55 5 3.5
      vertex 0 5 3.5
    endloop
  endfacet
  facet normal 0 0 1
    outer loop
      vertex 3.88715 0.35345 3.5
      vertex 3.99697 0.691452 3.5
      vertex 0 5 3.5
    endloop
  endfacet
  facet normal 0 0 1
    outer loop
      vertex 7.10303 -0.691452 3.5
      vertex 6.92533 -0.999235 3.5
      vertex 9.59508 -2.93893 3.5
    endloop
  endfacet
  facet normal 0.860241 -0.0904149 0.501807
    outer loop
      vertex -7.25 0 -1.7
      vertex -8.18491 0.539993 0
      vertex -8.24167 0 0
    endloop
  endfacet
  facet normal 0.860241 -0.0904148 0.501807
    outer loop
      vertex -7.25 0 -1.7
      vertex -7.21285 0.35345 -1.7
      vertex -8.18285 0.559629 0
    endloop
  endfacet
  facet normal 0.860241 -0.0904148 0.501807
    outer loop
      vertex -8.18491 0.539993 0
      vertex -7.25 0 -1.7
      vertex -8.18285 0.559629 0
    endloop
  endfacet
  facet normal 0.860241 0.0904148 0.501807
    outer loop
      vertex -8.2396 -0.0196361 0
      vertex -7.21285 -0.35345 -1.7
      vertex -7.25 0 -1.7
    endloop
  endfacet
  facet normal 0.860241 0.0904148 0.501807
    outer loop
      vertex -8.24167 0 0
      vertex -8.2396 -0.0196361 0
      vertex -7.25 0 -1.7
    endloop
  endfacet
  facet normal 0.822644 -0.267293 0.501807
    outer loop
      vertex -7.21285 0.35345 -1.7
      vertex -8.01506 1.07602 0
      vertex -8.18285 0.559629 0
    endloop
  endfacet
  facet normal 0.822644 -0.267294 0.501807
    outer loop
      vertex -7.21285 0.35345 -1.7
      vertex -7.10303 0.691452 -1.7
      vertex -8.00896 1.0948 0
    endloop
  endfacet
  facet normal 0.822644 -0.267294 0.501807
    outer loop
      vertex -8.01506 1.07602 0
      vertex -7.21285 0.35345 -1.7
      vertex -8.00896 1.0948 0
    endloop
  endfacet
  facet normal 0.822644 0.267294 0.501807
    outer loop
      vertex -8.17675 -0.578407 0
      vertex -7.10303 -0.691452 -1.7
      vertex -7.21285 -0.35345 -1.7
    endloop
  endfacet
  facet normal 0.822644 0.267294 0.501807
    outer loop
      vertex -8.18285 -0.559629 0
      vertex -8.17675 -0.578407 0
      vertex -7.21285 -0.35345 -1.7
    endloop
  endfacet
  facet normal 0.860241 0.0904149 0.501807
    outer loop
      vertex -8.18285 -0.559629 0
      vertex -7.21285 -0.35345 -1.7
      vertex -8.2396 -0.0196361 0
    endloop
  endfacet
  facet normal 0.749094 -0.43249 0.501807
    outer loop
      vertex -7.10303 0.691452 -1.7
      vertex -7.73748 1.56502 0
      vertex -8.00896 1.0948 0
    endloop
  endfacet
  facet normal 0.749095 -0.432489 0.501807
    outer loop
      vertex -7.10303 0.691452 -1.7
      vertex -6.92533 0.999235 -1.7
      vertex -7.7276 1.58212 0
    endloop
  endfacet
  facet normal 0.749095 -0.432489 0.501807
    outer loop
      vertex -7.73748 1.56502 0
      vertex -7.10303 0.691452 -1.7
      vertex -7.7276 1.58212 0
    endloop
  endfacet
  facet normal 0.642805 -0.578785 0.501807
    outer loop
      vertex -6.92533 0.999235 -1.7
      vertex -7.36429 1.98563 0
      vertex -7.7276 1.58212 0
    endloop
  endfacet
  facet normal 0.642805 -0.578785 0.501807
    outer loop
      vertex -6.92533 0.999235 -1.7
      vertex -6.68752 1.26335 -1.7
      vertex -7.35108 2.0003 0
    endloop
  endfacet
  facet normal 0.642805 -0.578785 0.501807
    outer loop
      vertex -7.36429 1.98563 0
      vertex -6.92533 0.999235 -1.7
      vertex -7.35108 2.0003 0
    endloop
  endfacet
  facet normal 0.508423 -0.699783 0.501807
    outer loop
      vertex -6.68752 1.26335 -1.7
      vertex -6.91181 2.31945 0
      vertex -7.35108 2.0003 0
    endloop
  endfacet
  facet normal 0.508422 -0.699783 0.501807
    outer loop
      vertex -6.68752 1.26335 -1.7
      vertex -6.4 1.47224 -1.7
      vertex -6.89583 2.33105 0
    endloop
  endfacet
  facet normal 0.508422 -0.699783 0.501807
    outer loop
      vertex -6.91181 2.31945 0
      vertex -6.68752 1.26335 -1.7
      vertex -6.89583 2.33105 0
    endloop
  endfacet
  facet normal 0.351818 -0.790198 0.501807
    outer loop
      vertex -6.4 1.47224 -1.7
      vertex -6.39981 2.5519 0
      vertex -6.89583 2.33105 0
    endloop
  endfacet
  facet normal 0.351819 -0.790198 0.501807
    outer loop
      vertex -6.07533 1.6168 -1.7
      vertex -6.38177 2.55993 0
      vertex -6.39981 2.5519 0
    endloop
  endfacet
  facet normal 0.351819 -0.790198 0.501807
    outer loop
      vertex -6.4 1.47224 -1.7
      vertex -6.07533 1.6168 -1.7
      vertex -6.39981 2.5519 0
    endloop
  endfacet
  facet normal 0.179839 -0.846078 0.501807
    outer loop
      vertex -6.07533 1.6168 -1.7
      vertex -5.85067 2.67282 0
      vertex -6.38177 2.55993 0
    endloop
  endfacet
  facet normal 0.179839 -0.846078 0.501807
    outer loop
      vertex -5.7277 1.69069 -1.7
      vertex -5.83136 2.67692 0
      vertex -5.85067 2.67282 0
    endloop
  endfacet
  facet normal 0.179839 -0.846078 0.501807
    outer loop
      vertex -6.07533 1.6168 -1.7
      vertex -5.7277 1.69069 -1.7
      vertex -5.85067 2.67282 0
    endloop
  endfacet
  facet normal 0 -0.864979 0.501807
    outer loop
      vertex -5.7277 1.69069 -1.7
      vertex -5.3723 1.69069 -1.7
      vertex -5.26864 2.67692 0
    endloop
  endfacet
  facet normal 0 -0.864979 0.501807
    outer loop
      vertex -5.83136 2.67692 0
      vertex -5.7277 1.69069 -1.7
      vertex -5.26864 2.67692 0
    endloop
  endfacet
  facet normal -0.179839 -0.846078 0.501807
    outer loop
      vertex -4.73754 2.56403 0
      vertex -5.26864 2.67692 0
      vertex -5.3723 1.69069 -1.7
    endloop
  endfacet
  facet normal -0.179839 -0.846078 0.501807
    outer loop
      vertex -5.02467 1.6168 -1.7
      vertex -4.71823 2.55993 0
      vertex -4.73754 2.56403 0
    endloop
  endfacet
  facet normal -0.179839 -0.846078 0.501807
    outer loop
      vertex -5.3723 1.69069 -1.7
      vertex -5.02467 1.6168 -1.7
      vertex -4.73754 2.56403 0
    endloop
  endfacet
  facet normal -0.351818 -0.790198 0.501807
    outer loop
      vertex -4.2222 2.33908 0
      vertex -4.71823 2.55993 0
      vertex -5.02467 1.6168 -1.7
    endloop
  endfacet
  facet normal -0.351819 -0.790198 0.501807
    outer loop
      vertex -4.7 1.47224 -1.7
      vertex -4.20417 2.33105 0
      vertex -4.2222 2.33908 0
    endloop
  endfacet
  facet normal -0.351819 -0.790198 0.501807
    outer loop
      vertex -5.02467 1.6168 -1.7
      vertex -4.7 1.47224 -1.7
      vertex -4.2222 2.33908 0
    endloop
  endfacet
  facet normal -0.508423 -0.699783 0.501807
    outer loop
      vertex -3.7649 2.0119 0
      vertex -4.20417 2.33105 0
      vertex -4.7 1.47224 -1.7
    endloop
  endfacet
  facet normal -0.508422 -0.699783 0.501807
    outer loop
      vertex -4.41248 1.26335 -1.7
      vertex -3.74892 2.0003 0
      vertex -3.7649 2.0119 0
    endloop
  endfacet
  facet normal -0.508422 -0.699783 0.501807
    outer loop
      vertex -4.7 1.47224 -1.7
      vertex -4.41248 1.26335 -1.7
      vertex -3.7649 2.0119 0
    endloop
  endfacet
  facet normal -0.642805 -0.578784 0.501807
    outer loop
      vertex -3.38561 1.59679 0
      vertex -3.74892 2.0003 0
      vertex -4.41248 1.26335 -1.7
    endloop
  endfacet
  facet normal -0.642805 -0.578785 0.501807
    outer loop
      vertex -3.3724 1.58212 0
      vertex -3.38561 1.59679 0
      vertex -4.17467 0.999235 -1.7
    endloop
  endfacet
  facet normal -0.642805 -0.578785 0.501807
    outer loop
      vertex -4.17467 0.999235 -1.7
      vertex -3.38561 1.59679 0
      vertex -4.41248 1.26335 -1.7
    endloop
  endfacet
  facet normal -0.749094 -0.43249 0.501807
    outer loop
      vertex -3.10091 1.1119 0
      vertex -3.3724 1.58212 0
      vertex -4.17467 0.999235 -1.7
    endloop
  endfacet
  facet normal -0.749095 -0.432489 0.501807
    outer loop
      vertex -3.09104 1.0948 0
      vertex -3.10091 1.1119 0
      vertex -3.99697 0.691452 -1.7
    endloop
  endfacet
  facet normal -0.749095 -0.432489 0.501807
    outer loop
      vertex -3.99697 0.691452 -1.7
      vertex -3.10091 1.1119 0
      vertex -4.17467 0.999235 -1.7
    endloop
  endfacet
  facet normal -0.822644 -0.267293 0.501807
    outer loop
      vertex -2.92325 0.578407 0
      vertex -3.09104 1.0948 0
      vertex -3.99697 0.691452 -1.7
    endloop
  endfacet
  facet normal -0.822644 -0.267294 0.501807
    outer loop
      vertex -2.91715 0.559629 0
      vertex -2.92325 0.578407 0
      vertex -3.88715 0.35345 -1.7
    endloop
  endfacet
  facet normal -0.822644 -0.267294 0.501807
    outer loop
      vertex -3.88715 0.35345 -1.7
      vertex -2.92325 0.578407 0
      vertex -3.99697 0.691452 -1.7
    endloop
  endfacet
  facet normal -0.860241 -0.0904149 0.501807
    outer loop
      vertex -2.8604 0.0196361 0
      vertex -2.91715 0.559629 0
      vertex -3.88715 0.35345 -1.7
    endloop
  endfacet
  facet normal -0.860241 -0.0904148 0.501807
    outer loop
      vertex -2.85833 0 0
      vertex -2.8604 0.0196361 0
      vertex -3.85 0 -1.7
    endloop
  endfacet
  facet normal -0.860241 -0.0904148 0.501807
    outer loop
      vertex -3.85 0 -1.7
      vertex -2.8604 0.0196361 0
      vertex -3.88715 0.35345 -1.7
    endloop
  endfacet
  facet normal -0.860241 0.0904148 0.501807
    outer loop
      vertex -2.91509 -0.539993 0
      vertex -3.85 0 -1.7
      vertex -2.91715 -0.559629 0
    endloop
  endfacet
  facet normal -0.860241 0.0904148 0.501807
    outer loop
      vertex -2.91715 -0.559629 0
      vertex -3.85 0 -1.7
      vertex -3.88715 -0.35345 -1.7
    endloop
  endfacet
  facet normal -0.860241 0.0904149 0.501807
    outer loop
      vertex -2.91509 -0.539993 0
      vertex -2.85833 0 0
      vertex -3.85 0 -1.7
    endloop
  endfacet
  facet normal -0.822644 0.267294 0.501807
    outer loop
      vertex -3.08494 -1.07602 0
      vertex -3.88715 -0.35345 -1.7
      vertex -3.09104 -1.0948 0
    endloop
  endfacet
  facet normal -0.822644 0.267294 0.501807
    outer loop
      vertex -3.09104 -1.0948 0
      vertex -3.88715 -0.35345 -1.7
      vertex -3.99697 -0.691452 -1.7
    endloop
  endfacet
  facet normal -0.822644 0.267293 0.501807
    outer loop
      vertex -3.08494 -1.07602 0
      vertex -2.91715 -0.559629 0
      vertex -3.88715 -0.35345 -1.7
    endloop
  endfacet
  facet normal -0.749095 0.432489 0.501807
    outer loop
      vertex -3.36252 -1.56502 0
      vertex -3.99697 -0.691452 -1.7
      vertex -3.3724 -1.58212 0
    endloop
  endfacet
  facet normal -0.749095 0.432489 0.501807
    outer loop
      vertex -3.3724 -1.58212 0
      vertex -3.99697 -0.691452 -1.7
      vertex -4.17467 -0.999235 -1.7
    endloop
  endfacet
  facet normal -0.749094 0.43249 0.501807
    outer loop
      vertex -3.36252 -1.56502 0
      vertex -3.09104 -1.0948 0
      vertex -3.99697 -0.691452 -1.7
    endloop
  endfacet
  facet normal -0.642805 0.578785 0.501807
    outer loop
      vertex -3.73571 -1.98563 0
      vertex -4.17467 -0.999235 -1.7
      vertex -3.74892 -2.0003 0
    endloop
  endfacet
  facet normal -0.642805 0.578785 0.501807
    outer loop
      vertex -3.74892 -2.0003 0
      vertex -4.17467 -0.999235 -1.7
      vertex -4.41248 -1.26335 -1.7
    endloop
  endfacet
  facet normal -0.642805 0.578785 0.501807
    outer loop
      vertex -3.73571 -1.98563 0
      vertex -3.3724 -1.58212 0
      vertex -4.17467 -0.999235 -1.7
    endloop
  endfacet
  facet normal -0.508422 0.699783 0.501807
    outer loop
      vertex -4.18819 -2.31945 0
      vertex -4.41248 -1.26335 -1.7
      vertex -4.20417 -2.33105 0
    endloop
  endfacet
  facet normal -0.508422 0.699783 0.501807
    outer loop
      vertex -4.20417 -2.33105 0
      vertex -4.41248 -1.26335 -1.7
      vertex -4.7 -1.47224 -1.7
    endloop
  endfacet
  facet normal -0.508423 0.699783 0.501807
    outer loop
      vertex -4.18819 -2.31945 0
      vertex -3.74892 -2.0003 0
      vertex -4.41248 -1.26335 -1.7
    endloop
  endfacet
  facet normal -0.351819 0.790198 0.501807
    outer loop
      vertex -4.70019 -2.5519 0
      vertex -4.7 -1.47224 -1.7
      vertex -4.71823 -2.55993 0
    endloop
  endfacet
  facet normal -0.351819 0.790198 0.501807
    outer loop
      vertex -4.71823 -2.55993 0
      vertex -4.7 -1.47224 -1.7
      vertex -5.02467 -1.6168 -1.7
    endloop
  endfacet
  facet normal -0.351818 0.790198 0.501807
    outer loop
      vertex -4.20417 -2.33105 0
      vertex -4.7 -1.47224 -1.7
      vertex -4.70019 -2.5519 0
    endloop
  endfacet
  facet normal -0.179839 0.846078 0.501807
    outer loop
      vertex -5.24933 -2.67282 0
      vertex -5.02467 -1.6168 -1.7
      vertex -5.26864 -2.67692 0
    endloop
  endfacet
  facet normal -0.179839 0.846078 0.501807
    outer loop
      vertex -5.26864 -2.67692 0
      vertex -5.02467 -1.6168 -1.7
      vertex -5.3723 -1.69069 -1.7
    endloop
  endfacet
  facet normal -0.179839 0.846078 0.501807
    outer loop
      vertex -4.71823 -2.55993 0
      vertex -5.02467 -1.6168 -1.7
      vertex -5.24933 -2.67282 0
    endloop
  endfacet
  facet normal 0 0.864979 0.501807
    outer loop
      vertex -5.3723 -1.69069 -1.7
      vertex -5.7277 -1.69069 -1.7
      vertex -5.26864 -2.67692 0
    endloop
  endfacet
  facet normal 0 0.864979 0.501807
    outer loop
      vertex -5.26864 -2.67692 0
      vertex -5.7277 -1.69069 -1.7
      vertex -5.83136 -2.67692 0
    endloop
  endfacet
  facet normal 0.179839 0.846078 0.501807
    outer loop
      vertex -5.7277 -1.69069 -1.7
      vertex -6.07533 -1.6168 -1.7
      vertex -6.36246 -2.56403 0
    endloop
  endfacet
  facet normal 0.179839 0.846078 0.501807
    outer loop
      vertex -6.36246 -2.56403 0
      vertex -6.07533 -1.6168 -1.7
      vertex -6.38177 -2.55993 0
    endloop
  endfacet
  facet normal 0.179839 0.846078 0.501807
    outer loop
      vertex -5.83136 -2.67692 0
      vertex -5.7277 -1.69069 -1.7
      vertex -6.36246 -2.56403 0
    endloop
  endfacet
  facet normal 0.351819 0.790198 0.501807
    outer loop
      vertex -6.07533 -1.6168 -1.7
      vertex -6.4 -1.47224 -1.7
      vertex -6.8778 -2.33908 0
    endloop
  endfacet
  facet normal 0.351819 0.790198 0.501807
    outer loop
      vertex -6.8778 -2.33908 0
      vertex -6.4 -1.47224 -1.7
      vertex -6.89583 -2.33105 0
    endloop
  endfacet
  facet normal 0.351818 0.790198 0.501807
    outer loop
      vertex -6.38177 -2.55993 0
      vertex -6.07533 -1.6168 -1.7
      vertex -6.8778 -2.33908 0
    endloop
  endfacet
  facet normal 0.508422 0.699783 0.501807
    outer loop
      vertex -6.4 -1.47224 -1.7
      vertex -6.68752 -1.26335 -1.7
      vertex -7.3351 -2.0119 0
    endloop
  endfacet
  facet normal 0.508422 0.699783 0.501807
    outer loop
      vertex -7.3351 -2.0119 0
      vertex -6.68752 -1.26335 -1.7
      vertex -7.35108 -2.0003 0
    endloop
  endfacet
  facet normal 0.508423 0.699783 0.501807
    outer loop
      vertex -6.89583 -2.33105 0
      vertex -6.4 -1.47224 -1.7
      vertex -7.3351 -2.0119 0
    endloop
  endfacet
  facet normal 0.642805 0.578785 0.501807
    outer loop
      vertex -7.71439 -1.59679 0
      vertex -6.68752 -1.26335 -1.7
      vertex -6.92533 -0.999235 -1.7
    endloop
  endfacet
  facet normal 0.642805 0.578785 0.501807
    outer loop
      vertex -7.7276 -1.58212 0
      vertex -7.71439 -1.59679 0
      vertex -6.92533 -0.999235 -1.7
    endloop
  endfacet
  facet normal 0.642805 0.578784 0.501807
    outer loop
      vertex -7.35108 -2.0003 0
      vertex -6.68752 -1.26335 -1.7
      vertex -7.71439 -1.59679 0
    endloop
  endfacet
  facet normal 0.749095 0.432489 0.501807
    outer loop
      vertex -7.99909 -1.1119 0
      vertex -6.92533 -0.999235 -1.7
      vertex -7.10303 -0.691452 -1.7
    endloop
  endfacet
  facet normal 0.749095 0.432489 0.501807
    outer loop
      vertex -8.00896 -1.0948 0
      vertex -7.99909 -1.1119 0
      vertex -7.10303 -0.691452 -1.7
    endloop
  endfacet
  facet normal 0.749094 0.43249 0.501807
    outer loop
      vertex -7.7276 -1.58212 0
      vertex -6.92533 -0.999235 -1.7
      vertex -7.99909 -1.1119 0
    endloop
  endfacet
  facet normal 0.822644 0.267293 0.501807
    outer loop
      vertex -8.00896 -1.0948 0
      vertex -7.10303 -0.691452 -1.7
      vertex -8.17675 -0.578407 0
    endloop
  endfacet
  facet normal 0 0 -1
    outer loop
      vertex 5.02467 1.6168 1.5
      vertex 2.7067 1.64158 1.5
      vertex 5.3723 1.69069 1.5
    endloop
  endfacet
  facet normal 0 0 -1
    outer loop
      vertex 7.10303 -0.691452 1.5
      vertex 8.3933 1.64158 1.5
      vertex 8.3933 -1.64158 1.5
    endloop
  endfacet
  facet normal 0 0 -1
    outer loop
      vertex 5.7277 -1.69069 1.5
      vertex 8.3933 -1.64158 1.5
      vertex 5.55 -3.28316 1.5
    endloop
  endfacet
  facet normal 0 0 -1
    outer loop
      vertex 4.17467 -0.999235 1.5
      vertex 5.55 -3.28316 1.5
      vertex 2.7067 -1.64158 1.5
    endloop
  endfacet
  facet normal 0 0 -1
    outer loop
      vertex 7.10303 -0.691452 1.5
      vertex 8.3933 -1.64158 1.5
      vertex 6.92533 -0.999235 1.5
    endloop
  endfacet
  facet normal 0 0 -1
    outer loop
      vertex 4.41248 -1.26335 1.5
      vertex 5.55 -3.28316 1.5
      vertex 4.17467 -0.999235 1.5
    endloop
  endfacet
  facet normal 0 0 -1
    outer loop
      vertex 2.7067 1.64158 1.5
      vertex 3.99697 -0.691452 1.5
      vertex 2.7067 -1.64158 1.5
    endloop
  endfacet
  facet normal 0 0 -1
    outer loop
      vertex 3.99697 -0.691452 1.5
      vertex 4.17467 -0.999235 1.5
      vertex 2.7067 -1.64158 1.5
    endloop
  endfacet
  facet normal 0 0 -1
    outer loop
      vertex 6.92533 -0.999235 1.5
      vertex 8.3933 -1.64158 1.5
      vertex 6.68752 -1.26335 1.5
    endloop
  endfacet
  facet normal 0 0 -1
    outer loop
      vertex 6.07533 -1.6168 1.5
      vertex 8.3933 -1.64158 1.5
      vertex 5.7277 -1.69069 1.5
    endloop
  endfacet
  facet normal 0 0 -1
    outer loop
      vertex 6.68752 -1.26335 1.5
      vertex 8.3933 -1.64158 1.5
      vertex 6.4 -1.47224 1.5
    endloop
  endfacet
  facet normal 0 0 -1
    outer loop
      vertex 4.41248 -1.26335 1.5
      vertex 4.7 -1.47224 1.5
      vertex 5.55 -3.28316 1.5
    endloop
  endfacet
  facet normal 0 0 -1
    outer loop
      vertex 6.4 -1.47224 1.5
      vertex 8.3933 -1.64158 1.5
      vertex 6.07533 -1.6168 1.5
    endloop
  endfacet
  facet normal 0 0 -1
    outer loop
      vertex 4.7 -1.47224 1.5
      vertex 5.02467 -1.6168 1.5
      vertex 5.55 -3.28316 1.5
    endloop
  endfacet
  facet normal 0 0 -1
    outer loop
      vertex 5.02467 -1.6168 1.5
      vertex 5.3723 -1.69069 1.5
      vertex 5.55 -3.28316 1.5
    endloop
  endfacet
  facet normal 0 0 -1
    outer loop
      vertex 5.3723 -1.69069 1.5
      vertex 5.7277 -1.69069 1.5
      vertex 5.55 -3.28316 1.5
    endloop
  endfacet
  facet normal 0 0 -1
    outer loop
      vertex 7.21285 -0.35345 1.5
      vertex 8.3933 1.64158 1.5
      vertex 7.10303 -0.691452 1.5
    endloop
  endfacet
  facet normal 0 0 -1
    outer loop
      vertex 5.7277 1.69069 1.5
      vertex 8.3933 1.64158 1.5
      vertex 6.07533 1.6168 1.5
    endloop
  endfacet
  facet normal 0 0 -1
    outer loop
      vertex 7.25 0 1.5
      vertex 8.3933 1.64158 1.5
      vertex 7.21285 -0.35345 1.5
    endloop
  endfacet
  facet normal 0 0 -1
    outer loop
      vertex 7.21285 0.35345 1.5
      vertex 8.3933 1.64158 1.5
      vertex 7.25 0 1.5
    endloop
  endfacet
  facet normal 0 0 -1
    outer loop
      vertex 7.10303 0.691452 1.5
      vertex 8.3933 1.64158 1.5
      vertex 7.21285 0.35345 1.5
    endloop
  endfacet
  facet normal 0 0 -1
    outer loop
      vertex 6.92533 0.999235 1.5
      vertex 8.3933 1.64158 1.5
      vertex 7.10303 0.691452 1.5
    endloop
  endfacet
  facet normal 0 0 -1
    outer loop
      vertex 6.68752 1.26335 1.5
      vertex 8.3933 1.64158 1.5
      vertex 6.92533 0.999235 1.5
    endloop
  endfacet
  facet normal 0 0 -1
    outer loop
      vertex 6.4 1.47224 1.5
      vertex 8.3933 1.64158 1.5
      vertex 6.68752 1.26335 1.5
    endloop
  endfacet
  facet normal 0 0 -1
    outer loop
      vertex 6.07533 1.6168 1.5
      vertex 8.3933 1.64158 1.5
      vertex 6.4 1.47224 1.5
    endloop
  endfacet
  facet normal 0 0 -1
    outer loop
      vertex 5.55 3.28316 1.5
      vertex 8.3933 1.64158 1.5
      vertex 5.7277 1.69069 1.5
    endloop
  endfacet
  facet normal 0 0 -1
    outer loop
      vertex 5.55 3.28316 1.5
      vertex 5.7277 1.69069 1.5
      vertex 5.3723 1.69069 1.5
    endloop
  endfacet
  facet normal 0 0 -1
    outer loop
      vertex 5.55 3.28316 1.5
      vertex 5.3723 1.69069 1.5
      vertex 2.7067 1.64158 1.5
    endloop
  endfacet
  facet normal 0 0 -1
    outer loop
      vertex 4.7 1.47224 1.5
      vertex 2.7067 1.64158 1.5
      vertex 5.02467 1.6168 1.5
    endloop
  endfacet
  facet normal 0 0 -1
    outer loop
      vertex 4.41248 1.26335 1.5
      vertex 2.7067 1.64158 1.5
      vertex 4.7 1.47224 1.5
    endloop
  endfacet
  facet normal 0 0 -1
    outer loop
      vertex 4.17467 0.999235 1.5
      vertex 2.7067 1.64158 1.5
      vertex 4.41248 1.26335 1.5
    endloop
  endfacet
  facet normal 0 0 -1
    outer loop
      vertex 3.99697 0.691452 1.5
      vertex 2.7067 1.64158 1.5
      vertex 4.17467 0.999235 1.5
    endloop
  endfacet
  facet normal 0 0 -1
    outer loop
      vertex 2.7067 1.64158 1.5
      vertex 3.99697 0.691452 1.5
      vertex 3.88715 0.35345 1.5
    endloop
  endfacet
  facet normal 0 0 -1
    outer loop
      vertex 2.7067 1.64158 1.5
      vertex 3.88715 0.35345 1.5
      vertex 3.85 0 1.5
    endloop
  endfacet
  facet normal 0 0 -1
    outer loop
      vertex 2.7067 1.64158 1.5
      vertex 3.85 0 1.5
      vertex 3.88715 -0.35345 1.5
    endloop
  endfacet
  facet normal 0 0 -1
    outer loop
      vertex 3.99697 -0.691452 1.5
      vertex 2.7067 1.64158 1.5
      vertex 3.88715 -0.35345 1.5
    endloop
  endfacet
  facet normal 0.994522 0.104528 0
    outer loop
      vertex 3.85 0 3.5
      vertex 3.88715 -0.35345 3.5
      vertex 3.88715 -0.35345 1.5
    endloop
  endfacet
  facet normal 0.994522 0.104528 0
    outer loop
      vertex 3.85 0 1.5
      vertex 3.85 0 3.5
      vertex 3.88715 -0.35345 1.5
    endloop
  endfacet
  facet normal 0.951056 0.309018 0
    outer loop
      vertex 3.88715 -0.35345 3.5
      vertex 3.99697 -0.691452 3.5
      vertex 3.99697 -0.691452 1.5
    endloop
  endfacet
  facet normal 0.951056 0.309018 0
    outer loop
      vertex 3.88715 -0.35345 1.5
      vertex 3.88715 -0.35345 3.5
      vertex 3.99697 -0.691452 1.5
    endloop
  endfacet
  facet normal 0.866026 0.499999 0
    outer loop
      vertex 3.99697 -0.691452 3.5
      vertex 4.17467 -0.999235 3.5
      vertex 4.17467 -0.999235 1.5
    endloop
  endfacet
  facet normal 0.866026 0.499999 0
    outer loop
      vertex 3.99697 -0.691452 1.5
      vertex 3.99697 -0.691452 3.5
      vertex 4.17467 -0.999235 1.5
    endloop
  endfacet
  facet normal 0.743144 0.669131 0
    outer loop
      vertex 4.17467 -0.999235 3.5
      vertex 4.41248 -1.26335 3.5
      vertex 4.41248 -1.26335 1.5
    endloop
  endfacet
  facet normal 0.743144 0.669131 0
    outer loop
      vertex 4.17467 -0.999235 1.5
      vertex 4.17467 -0.999235 3.5
      vertex 4.41248 -1.26335 1.5
    endloop
  endfacet
  facet normal 0.587785 0.809017 0
    outer loop
      vertex 4.7 -1.47224 3.5
      vertex 4.7 -1.47224 1.5
      vertex 4.41248 -1.26335 3.5
    endloop
  endfacet
  facet normal 0.587785 0.809017 0
    outer loop
      vertex 4.41248 -1.26335 3.5
      vertex 4.7 -1.47224 1.5
      vertex 4.41248 -1.26335 1.5
    endloop
  endfacet
  facet normal 0.406737 0.913545 0
    outer loop
      vertex 5.02467 -1.6168 3.5
      vertex 5.02467 -1.6168 1.5
      vertex 4.7 -1.47224 3.5
    endloop
  endfacet
  facet normal 0.406737 0.913545 0
    outer loop
      vertex 4.7 -1.47224 3.5
      vertex 5.02467 -1.6168 1.5
      vertex 4.7 -1.47224 1.5
    endloop
  endfacet
  facet normal 0.207911 0.978148 0
    outer loop
      vertex 5.3723 -1.69069 3.5
      vertex 5.3723 -1.69069 1.5
      vertex 5.02467 -1.6168 3.5
    endloop
  endfacet
  facet normal 0.207911 0.978148 0
    outer loop
      vertex 5.02467 -1.6168 3.5
      vertex 5.3723 -1.69069 1.5
      vertex 5.02467 -1.6168 1.5
    endloop
  endfacet
  facet normal 0 1 0
    outer loop
      vertex 5.7277 -1.69069 3.5
      vertex 5.7277 -1.69069 1.5
      vertex 5.3723 -1.69069 3.5
    endloop
  endfacet
  facet normal 0 1 0
    outer loop
      vertex 5.3723 -1.69069 3.5
      vertex 5.7277 -1.69069 1.5
      vertex 5.3723 -1.69069 1.5
    endloop
  endfacet
  facet normal -0.207911 0.978148 0
    outer loop
      vertex 6.07533 -1.6168 3.5
      vertex 6.07533 -1.6168 1.5
      vertex 5.7277 -1.69069 3.5
    endloop
  endfacet
  facet normal -0.207911 0.978148 0
    outer loop
      vertex 5.7277 -1.69069 3.5
      vertex 6.07533 -1.6168 1.5
      vertex 5.7277 -1.69069 1.5
    endloop
  endfacet
  facet normal -0.406737 0.913545 0
    outer loop
      vertex 6.4 -1.47224 3.5
      vertex 6.4 -1.47224 1.5
      vertex 6.07533 -1.6168 3.5
    endloop
  endfacet
  facet normal -0.406737 0.913545 0
    outer loop
      vertex 6.07533 -1.6168 3.5
      vertex 6.4 -1.47224 1.5
      vertex 6.07533 -1.6168 1.5
    endloop
  endfacet
  facet normal -0.587785 0.809017 0
    outer loop
      vertex 6.68752 -1.26335 3.5
      vertex 6.68752 -1.26335 1.5
      vertex 6.4 -1.47224 3.5
    endloop
  endfacet
  facet normal -0.587785 0.809017 0
    outer loop
      vertex 6.4 -1.47224 3.5
      vertex 6.68752 -1.26335 1.5
      vertex 6.4 -1.47224 1.5
    endloop
  endfacet
  facet normal -0.743144 0.669131 0
    outer loop
      vertex 6.92533 -0.999235 3.5
      vertex 6.92533 -0.999235 1.5
      vertex 6.68752 -1.26335 3.5
    endloop
  endfacet
  facet normal -0.743144 0.669131 0
    outer loop
      vertex 6.68752 -1.26335 3.5
      vertex 6.92533 -0.999235 1.5
      vertex 6.68752 -1.26335 1.5
    endloop
  endfacet
  facet normal -0.866026 0.499999 0
    outer loop
      vertex 7.10303 -0.691452 3.5
      vertex 7.10303 -0.691452 1.5
      vertex 6.92533 -0.999235 3.5
    endloop
  endfacet
  facet normal -0.866026 0.499999 0
    outer loop
      vertex 6.92533 -0.999235 3.5
      vertex 7.10303 -0.691452 1.5
      vertex 6.92533 -0.999235 1.5
    endloop
  endfacet
  facet normal -0.951056 0.309018 0
    outer loop
      vertex 7.21285 -0.35345 3.5
      vertex 7.21285 -0.35345 1.5
      vertex 7.10303 -0.691452 3.5
    endloop
  endfacet
  facet normal -0.951056 0.309018 0
    outer loop
      vertex 7.10303 -0.691452 3.5
      vertex 7.21285 -0.35345 1.5
      vertex 7.10303 -0.691452 1.5
    endloop
  endfacet
  facet normal -0.994522 0.104528 0
    outer loop
      vertex 7.25 0 3.5
      vertex 7.25 0 1.5
      vertex 7.21285 -0.35345 3.5
    endloop
  endfacet
  facet normal -0.994522 0.104528 0
    outer loop
      vertex 7.21285 -0.35345 3.5
      vertex 7.25 0 1.5
      vertex 7.21285 -0.35345 1.5
    endloop
  endfacet
  facet normal -0.994522 -0.104528 0
    outer loop
      vertex 7.25 0 3.5
      vertex 7.21285 0.35345 3.5
      vertex 7.25 0 1.5
    endloop
  endfacet
  facet normal -0.994522 -0.104528 0
    outer loop
      vertex 7.25 0 1.5
      vertex 7.21285 0.35345 3.5
      vertex 7.21285 0.35345 1.5
    endloop
  endfacet
  facet normal -0.951056 -0.309018 0
    outer loop
      vertex 7.21285 0.35345 3.5
      vertex 7.10303 0.691452 3.5
      vertex 7.21285 0.35345 1.5
    endloop
  endfacet
  facet normal -0.951056 -0.309018 0
    outer loop
      vertex 7.21285 0.35345 1.5
      vertex 7.10303 0.691452 3.5
      vertex 7.10303 0.691452 1.5
    endloop
  endfacet
  facet normal -0.866026 -0.499999 0
    outer loop
      vertex 7.10303 0.691452 3.5
      vertex 6.92533 0.999235 3.5
      vertex 7.10303 0.691452 1.5
    endloop
  endfacet
  facet normal -0.866026 -0.499999 0
    outer loop
      vertex 7.10303 0.691452 1.5
      vertex 6.92533 0.999235 3.5
      vertex 6.92533 0.999235 1.5
    endloop
  endfacet
  facet normal -0.743144 -0.669131 0
    outer loop
      vertex 6.92533 0.999235 3.5
      vertex 6.68752 1.26335 3.5
      vertex 6.92533 0.999235 1.5
    endloop
  endfacet
  facet normal -0.743144 -0.669131 0
    outer loop
      vertex 6.92533 0.999235 1.5
      vertex 6.68752 1.26335 3.5
      vertex 6.68752 1.26335 1.5
    endloop
  endfacet
  facet normal -0.587785 -0.809017 0
    outer loop
      vertex 6.68752 1.26335 1.5
      vertex 6.68752 1.26335 3.5
      vertex 6.4 1.47224 3.5
    endloop
  endfacet
  facet normal -0.587785 -0.809017 0
    outer loop
      vertex 6.4 1.47224 1.5
      vertex 6.68752 1.26335 1.5
      vertex 6.4 1.47224 3.5
    endloop
  endfacet
  facet normal -0.406737 -0.913545 0
    outer loop
      vertex 6.4 1.47224 1.5
      vertex 6.4 1.47224 3.5
      vertex 6.07533 1.6168 3.5
    endloop
  endfacet
  facet normal -0.406737 -0.913545 0
    outer loop
      vertex 6.07533 1.6168 1.5
      vertex 6.4 1.47224 1.5
      vertex 6.07533 1.6168 3.5
    endloop
  endfacet
  facet normal -0.207911 -0.978148 0
    outer loop
      vertex 6.07533 1.6168 1.5
      vertex 6.07533 1.6168 3.5
      vertex 5.7277 1.69069 3.5
    endloop
  endfacet
  facet normal -0.207911 -0.978148 0
    outer loop
      vertex 5.7277 1.69069 1.5
      vertex 6.07533 1.6168 1.5
      vertex 5.7277 1.69069 3.5
    endloop
  endfacet
  facet normal 0 -1 0
    outer loop
      vertex 5.7277 1.69069 1.5
      vertex 5.7277 1.69069 3.5
      vertex 5.3723 1.69069 3.5
    endloop
  endfacet
  facet normal 0 -1 0
    outer loop
      vertex 5.3723 1.69069 1.5
      vertex 5.7277 1.69069 1.5
      vertex 5.3723 1.69069 3.5
    endloop
  endfacet
  facet normal 0.207911 -0.978148 0
    outer loop
      vertex 5.3723 1.69069 1.5
      vertex 5.3723 1.69069 3.5
      vertex 5.02467 1.6168 3.5
    endloop
  endfacet
  facet normal 0.207911 -0.978148 0
    outer loop
      vertex 5.02467 1.6168 1.5
      vertex 5.3723 1.69069 1.5
      vertex 5.02467 1.6168 3.5
    endloop
  endfacet
  facet normal 0.406737 -0.913545 0
    outer loop
      vertex 5.02467 1.6168 1.5
      vertex 5.02467 1.6168 3.5
      vertex 4.7 1.47224 3.5
    endloop
  endfacet
  facet normal 0.406737 -0.913545 0
    outer loop
      vertex 4.7 1.47224 1.5
      vertex 5.02467 1.6168 1.5
      vertex 4.7 1.47224 3.5
    endloop
  endfacet
  facet normal 0.587785 -0.809017 0
    outer loop
      vertex 4.7 1.47224 1.5
      vertex 4.7 1.47224 3.5
      vertex 4.41248 1.26335 3.5
    endloop
  endfacet
  facet normal 0.587785 -0.809017 0
    outer loop
      vertex 4.41248 1.26335 1.5
      vertex 4.7 1.47224 1.5
      vertex 4.41248 1.26335 3.5
    endloop
  endfacet
  facet normal 0.743144 -0.669131 0
    outer loop
      vertex 4.41248 1.26335 1.5
      vertex 4.41248 1.26335 3.5
      vertex 4.17467 0.999235 3.5
    endloop
  endfacet
  facet normal 0.743144 -0.669131 0
    outer loop
      vertex 4.17467 0.999235 1.5
      vertex 4.41248 1.26335 1.5
      vertex 4.17467 0.999235 3.5
    endloop
  endfacet
  facet normal 0.866026 -0.499999 0
    outer loop
      vertex 4.17467 0.999235 1.5
      vertex 4.17467 0.999235 3.5
      vertex 3.99697 0.691452 3.5
    endloop
  endfacet
  facet normal 0.866026 -0.499999 0
    outer loop
      vertex 3.99697 0.691452 1.5
      vertex 4.17467 0.999235 1.5
      vertex 3.99697 0.691452 3.5
    endloop
  endfacet
  facet normal 0.951056 -0.309018 0
    outer loop
      vertex 3.99697 0.691452 1.5
      vertex 3.99697 0.691452 3.5
      vertex 3.88715 0.35345 3.5
    endloop
  endfacet
  facet normal 0.951056 -0.309018 0
    outer loop
      vertex 3.88715 0.35345 1.5
      vertex 3.99697 0.691452 1.5
      vertex 3.88715 0.35345 3.5
    endloop
  endfacet
  facet normal 0.994522 -0.104528 0
    outer loop
      vertex 3.88715 0.35345 1.5
      vertex 3.88715 0.35345 3.5
      vertex 3.85 0 3.5
    endloop
  endfacet
  facet normal 0.994522 -0.104528 0
    outer loop
      vertex 3.85 0 1.5
      vertex 3.88715 0.35345 1.5
      vertex 3.85 0 3.5
    endloop
  endfacet
endsolid OpenSCAD_Model
