solid OpenSCAD_Model
  facet normal 0 0 -1
    outer loop
      vertex -11.75 0 -3.5
      vertex -11.6407 1.03956 -3.5
      vertex -11.6407 -1.03956 -3.5
    endloop
  endfacet
  facet normal 0 0 -1
    outer loop
      vertex -11.6407 -1.03956 -3.5
      vertex -11.6407 1.03956 -3.5
      vertex -11.3177 2.03368 -3.5
    endloop
  endfacet
  facet normal 0 0 -1
    outer loop
      vertex -11.6407 -1.03956 -3.5
      vertex -11.3177 2.03368 -3.5
      vertex -10.7951 2.93893 -3.5
    endloop
  endfacet
  facet normal 0 0 -1
    outer loop
      vertex -11.6407 -1.03956 -3.5
      vertex -10.7951 2.93893 -3.5
      vertex -10.0957 3.71572 -3.5
    endloop
  endfacet
  facet normal 0 0 -1
    outer loop
      vertex -11.6407 -1.03956 -3.5
      vertex -10.0957 3.71572 -3.5
      vertex -9.25 4.33013 -3.5
    endloop
  endfacet
  facet normal 0 0 -1
    outer loop
      vertex -11.6407 -1.03956 -3.5
      vertex -9.25 4.33013 -3.5
      vertex -8.29508 4.75528 -3.5
    endloop
  endfacet
  facet normal 0 0 -1
    outer loop
      vertex -11.6407 -1.03956 -3.5
      vertex -8.29508 4.75528 -3.5
      vertex -7.27264 4.97261 -3.5
    endloop
  endfacet
  facet normal 0 0 -1
    outer loop
      vertex -11.6407 -1.03956 -3.5
      vertex -7.27264 4.97261 -3.5
      vertex -6.75 4.97261 -3.5
    endloop
  endfacet
  facet normal 0 0 -1
    outer loop
      vertex -6.75 4.97261 -3.5
      vertex -6.75 5 -3.5
      vertex 6.75 5 -3.5
    endloop
  endfacet
  facet normal 0 0 -1
    outer loop
      vertex -5.61248 1.26335 -3.5
      vertex 6.75 4.97261 -3.5
      vertex -5.37467 0.999235 -3.5
    endloop
  endfacet
  facet normal 0 0 -1
    outer loop
      vertex -5.37467 0.999235 -3.5
      vertex 6.75 4.97261 -3.5
      vertex 7.27264 4.97261 -3.5
    endloop
  endfacet
  facet normal 0 0 -1
    outer loop
      vertex -5.19697 0.691452 -3.5
      vertex 8.29508 4.75528 -3.5
      vertex 9.25 4.33013 -3.5
    endloop
  endfacet
  facet normal 0 0 -1
    outer loop
      vertex 6.75 3.28316 -3.5
      vertex 9.25 4.33013 -3.5
      vertex 10.0957 3.71572 -3.5
    endloop
  endfacet
  facet normal 0 0 -1
    outer loop
      vertex 3.9067 -1.64158 -3.5
      vertex -5.19697 -0.691452 -3.5
      vertex -5.08715 -0.35345 -3.5
    endloop
  endfacet
  facet normal 0 0 -1
    outer loop
      vertex 9.5933 1.64158 -3.5
      vertex 11.3177 2.03368 -3.5
      vertex 11.6407 1.03956 -3.5
    endloop
  endfacet
  facet normal 0 0 -1
    outer loop
      vertex 9.5933 1.64158 -3.5
      vertex 11.6407 -1.03956 -3.5
      vertex 9.5933 -1.64158 -3.5
    endloop
  endfacet
  facet normal 0 0 -1
    outer loop
      vertex 6.75 -3.28316 -3.5
      vertex -5.61248 -1.26335 -3.5
      vertex 3.9067 -1.64158 -3.5
    endloop
  endfacet
  facet normal 0 0 -1
    outer loop
      vertex 9.5933 -1.64158 -3.5
      vertex 11.6407 -1.03956 -3.5
      vertex 11.3177 -2.03368 -3.5
    endloop
  endfacet
  facet normal 0 0 -1
    outer loop
      vertex 6.75 -3.28316 -3.5
      vertex 10.7951 -2.93893 -3.5
      vertex 10.0957 -3.71572 -3.5
    endloop
  endfacet
  facet normal 0 0 -1
    outer loop
      vertex -11.6407 -1.03956 -3.5
      vertex 9.25 -4.33013 -3.5
      vertex 8.29508 -4.75528 -3.5
    endloop
  endfacet
  facet normal 0 0 -1
    outer loop
      vertex -11.6407 -1.03956 -3.5
      vertex 8.29508 -4.75528 -3.5
      vertex 7.27264 -4.97261 -3.5
    endloop
  endfacet
  facet normal 0 0 -1
    outer loop
      vertex -11.6407 -1.03956 -3.5
      vertex 7.27264 -4.97261 -3.5
      vertex 6.75 -4.97261 -3.5
    endloop
  endfacet
  facet normal 0 0 -1
    outer loop
      vertex -11.6407 -1.03956 -3.5
      vertex 6.75 -4.97261 -3.5
      vertex 6.75 -5 -3.5
    endloop
  endfacet
  facet normal 0 0 -1
    outer loop
      vertex -6.75 -4.97261 -3.5
      vertex 6.75 -5 -3.5
      vertex -6.75 -5 -3.5
    endloop
  endfacet
  facet normal 0 0 -1
    outer loop
      vertex -11.6407 -1.03956 -3.5
      vertex 6.75 -5 -3.5
      vertex -6.75 -4.97261 -3.5
    endloop
  endfacet
  facet normal 0 0 -1
    outer loop
      vertex -8.12533 0.999235 -3.5
      vertex -11.6407 -1.03956 -3.5
      vertex -7.88752 1.26335 -3.5
    endloop
  endfacet
  facet normal 0 0 -1
    outer loop
      vertex -8.45 0 -3.5
      vertex -11.6407 -1.03956 -3.5
      vertex -8.41285 0.35345 -3.5
    endloop
  endfacet
  facet normal 0 0 -1
    outer loop
      vertex -11.6407 -1.03956 -3.5
      vertex -7.27264 -4.97261 -3.5
      vertex -8.29508 -4.75528 -3.5
    endloop
  endfacet
  facet normal 0 0 -1
    outer loop
      vertex -11.6407 -1.03956 -3.5
      vertex -8.29508 -4.75528 -3.5
      vertex -9.25 -4.33013 -3.5
    endloop
  endfacet
  facet normal 0 0 -1
    outer loop
      vertex -11.6407 -1.03956 -3.5
      vertex -9.25 -4.33013 -3.5
      vertex -10.0957 -3.71572 -3.5
    endloop
  endfacet
  facet normal 0 0 -1
    outer loop
      vertex -11.6407 -1.03956 -3.5
      vertex -10.0957 -3.71572 -3.5
      vertex -10.7951 -2.93893 -3.5
    endloop
  endfacet
  facet normal 0 0 -1
    outer loop
      vertex -11.6407 -1.03956 -3.5
      vertex -10.7951 -2.93893 -3.5
      vertex -11.3177 -2.03368 -3.5
    endloop
  endfacet
  facet normal 0 0 -1
    outer loop
      vertex -8.41285 -0.35345 -3.5
      vertex -11.6407 -1.03956 -3.5
      vertex -8.45 0 -3.5
    endloop
  endfacet
  facet normal 0 0 -1
    outer loop
      vertex 6.75 3.28316 -3.5
      vertex 10.7951 2.93893 -3.5
      vertex 11.3177 2.03368 -3.5
    endloop
  endfacet
  facet normal 0 0 -1
    outer loop
      vertex -8.30303 -0.691452 -3.5
      vertex -11.6407 -1.03956 -3.5
      vertex -8.41285 -0.35345 -3.5
    endloop
  endfacet
  facet normal 0 0 -1
    outer loop
      vertex -8.12533 -0.999235 -3.5
      vertex -11.6407 -1.03956 -3.5
      vertex -8.30303 -0.691452 -3.5
    endloop
  endfacet
  facet normal 0 0 -1
    outer loop
      vertex -7.88752 -1.26335 -3.5
      vertex -11.6407 -1.03956 -3.5
      vertex -8.12533 -0.999235 -3.5
    endloop
  endfacet
  facet normal 0 0 -1
    outer loop
      vertex -7.6 -1.47224 -3.5
      vertex -11.6407 -1.03956 -3.5
      vertex -7.88752 -1.26335 -3.5
    endloop
  endfacet
  facet normal 0 0 -1
    outer loop
      vertex -7.27533 -1.6168 -3.5
      vertex -11.6407 -1.03956 -3.5
      vertex -7.6 -1.47224 -3.5
    endloop
  endfacet
  facet normal 0 0 -1
    outer loop
      vertex -6.22467 -1.6168 -3.5
      vertex 10.0957 -3.71572 -3.5
      vertex -6.5723 -1.69069 -3.5
    endloop
  endfacet
  facet normal 0 0 -1
    outer loop
      vertex -11.6407 -1.03956 -3.5
      vertex -7.27533 -1.6168 -3.5
      vertex -6.9277 -1.69069 -3.5
    endloop
  endfacet
  facet normal 0 0 -1
    outer loop
      vertex -11.6407 -1.03956 -3.5
      vertex -6.9277 -1.69069 -3.5
      vertex 9.25 -4.33013 -3.5
    endloop
  endfacet
  facet normal 0 0 -1
    outer loop
      vertex -6.5723 -1.69069 -3.5
      vertex 9.25 -4.33013 -3.5
      vertex -6.9277 -1.69069 -3.5
    endloop
  endfacet
  facet normal 0 0 -1
    outer loop
      vertex -6.5723 -1.69069 -3.5
      vertex 10.0957 -3.71572 -3.5
      vertex 9.25 -4.33013 -3.5
    endloop
  endfacet
  facet normal 0 0 -1
    outer loop
      vertex 9.5933 -1.64158 -3.5
      vertex 10.7951 -2.93893 -3.5
      vertex 6.75 -3.28316 -3.5
    endloop
  endfacet
  facet normal 0 0 -1
    outer loop
      vertex 9.5933 1.64158 -3.5
      vertex 11.75 0 -3.5
      vertex 11.6407 -1.03956 -3.5
    endloop
  endfacet
  facet normal 0 0 -1
    outer loop
      vertex 6.75 -3.28316 -3.5
      vertex -5.9 -1.47224 -3.5
      vertex -5.61248 -1.26335 -3.5
    endloop
  endfacet
  facet normal 0 0 -1
    outer loop
      vertex 3.9067 -1.64158 -3.5
      vertex -5.08715 -0.35345 -3.5
      vertex -5.05 0 -3.5
    endloop
  endfacet
  facet normal 0 0 -1
    outer loop
      vertex 6.75 3.28316 -3.5
      vertex 10.0957 3.71572 -3.5
      vertex 10.7951 2.93893 -3.5
    endloop
  endfacet
  facet normal 0 0 -1
    outer loop
      vertex -5.61248 1.26335 -3.5
      vertex 6.75 5 -3.5
      vertex 6.75 4.97261 -3.5
    endloop
  endfacet
  facet normal 0 0 -1
    outer loop
      vertex -6.75 4.97261 -3.5
      vertex 6.75 5 -3.5
      vertex -5.61248 1.26335 -3.5
    endloop
  endfacet
  facet normal 0 0 -1
    outer loop
      vertex -5.19697 0.691452 -3.5
      vertex 9.25 4.33013 -3.5
      vertex 6.75 3.28316 -3.5
    endloop
  endfacet
  facet normal 0 0 -1
    outer loop
      vertex -6.75 4.97261 -3.5
      vertex -5.61248 1.26335 -3.5
      vertex -5.9 1.47224 -3.5
    endloop
  endfacet
  facet normal 0 0 -1
    outer loop
      vertex 3.9067 1.64158 -3.5
      vertex -5.08715 0.35345 -3.5
      vertex -5.19697 0.691452 -3.5
    endloop
  endfacet
  facet normal 0 0 -1
    outer loop
      vertex -6.75 4.97261 -3.5
      vertex -5.9 1.47224 -3.5
      vertex -6.22467 1.6168 -3.5
    endloop
  endfacet
  facet normal 0 0 -1
    outer loop
      vertex 3.9067 1.64158 -3.5
      vertex -5.19697 0.691452 -3.5
      vertex 6.75 3.28316 -3.5
    endloop
  endfacet
  facet normal 0 0 -1
    outer loop
      vertex -6.75 4.97261 -3.5
      vertex -6.22467 1.6168 -3.5
      vertex -6.5723 1.69069 -3.5
    endloop
  endfacet
  facet normal 0 0 -1
    outer loop
      vertex -6.75 4.97261 -3.5
      vertex -6.5723 1.69069 -3.5
      vertex -6.9277 1.69069 -3.5
    endloop
  endfacet
  facet normal 0 0 -1
    outer loop
      vertex -6.75 4.97261 -3.5
      vertex -6.9277 1.69069 -3.5
      vertex -7.27533 1.6168 -3.5
    endloop
  endfacet
  facet normal 0 0 -1
    outer loop
      vertex -6.75 4.97261 -3.5
      vertex -7.27533 1.6168 -3.5
      vertex -7.6 1.47224 -3.5
    endloop
  endfacet
  facet normal 0 0 -1
    outer loop
      vertex -6.75 4.97261 -3.5
      vertex -7.6 1.47224 -3.5
      vertex -11.6407 -1.03956 -3.5
    endloop
  endfacet
  facet normal 0 0 -1
    outer loop
      vertex -7.6 1.47224 -3.5
      vertex -7.88752 1.26335 -3.5
      vertex -11.6407 -1.03956 -3.5
    endloop
  endfacet
  facet normal 0 0 -1
    outer loop
      vertex -8.30303 0.691452 -3.5
      vertex -11.6407 -1.03956 -3.5
      vertex -8.12533 0.999235 -3.5
    endloop
  endfacet
  facet normal 0 0 -1
    outer loop
      vertex -8.41285 0.35345 -3.5
      vertex -11.6407 -1.03956 -3.5
      vertex -8.30303 0.691452 -3.5
    endloop
  endfacet
  facet normal 0 0 -1
    outer loop
      vertex 3.9067 1.64158 -3.5
      vertex -5.05 0 -3.5
      vertex -5.08715 0.35345 -3.5
    endloop
  endfacet
  facet normal 0 0 -1
    outer loop
      vertex 3.9067 -1.64158 -3.5
      vertex -5.61248 -1.26335 -3.5
      vertex -5.37467 -0.999235 -3.5
    endloop
  endfacet
  facet normal 0 0 -1
    outer loop
      vertex 6.75 -3.28316 -3.5
      vertex -6.22467 -1.6168 -3.5
      vertex -5.9 -1.47224 -3.5
    endloop
  endfacet
  facet normal 0 0 -1
    outer loop
      vertex 9.5933 -1.64158 -3.5
      vertex 11.3177 -2.03368 -3.5
      vertex 10.7951 -2.93893 -3.5
    endloop
  endfacet
  facet normal 0 0 -1
    outer loop
      vertex -6.22467 -1.6168 -3.5
      vertex 6.75 -3.28316 -3.5
      vertex 10.0957 -3.71572 -3.5
    endloop
  endfacet
  facet normal 0 0 -1
    outer loop
      vertex 9.5933 1.64158 -3.5
      vertex 11.6407 1.03956 -3.5
      vertex 11.75 0 -3.5
    endloop
  endfacet
  facet normal 0 0 -1
    outer loop
      vertex 3.9067 -1.64158 -3.5
      vertex -5.37467 -0.999235 -3.5
      vertex -5.19697 -0.691452 -3.5
    endloop
  endfacet
  facet normal 0 0 -1
    outer loop
      vertex -7.27264 -4.97261 -3.5
      vertex -11.6407 -1.03956 -3.5
      vertex -6.75 -4.97261 -3.5
    endloop
  endfacet
  facet normal 0 0 -1
    outer loop
      vertex 3.9067 -1.64158 -3.5
      vertex -5.05 0 -3.5
      vertex 3.9067 1.64158 -3.5
    endloop
  endfacet
  facet normal 0 0 -1
    outer loop
      vertex -5.37467 0.999235 -3.5
      vertex 7.27264 4.97261 -3.5
      vertex 8.29508 4.75528 -3.5
    endloop
  endfacet
  facet normal 0 0 -1
    outer loop
      vertex -5.37467 0.999235 -3.5
      vertex 8.29508 4.75528 -3.5
      vertex -5.19697 0.691452 -3.5
    endloop
  endfacet
  facet normal 0 0 -1
    outer loop
      vertex 6.75 3.28316 -3.5
      vertex 11.3177 2.03368 -3.5
      vertex 9.5933 1.64158 -3.5
    endloop
  endfacet
  facet normal -0.994522 0.104529 0
    outer loop
      vertex -11.75 0 -3.5
      vertex -11.75 0 0
      vertex -11.6407 1.03956 -3.5
    endloop
  endfacet
  facet normal -0.994522 0.104529 0
    outer loop
      vertex -11.6407 1.03956 -3.5
      vertex -11.75 0 0
      vertex -11.6407 1.03956 0
    endloop
  endfacet
  facet normal -0.994522 -0.104529 0
    outer loop
      vertex -11.75 0 -3.5
      vertex -11.6407 -1.03956 -3.5
      vertex -11.75 0 0
    endloop
  endfacet
  facet normal -0.994522 -0.104529 0
    outer loop
      vertex -11.75 0 0
      vertex -11.6407 -1.03956 -3.5
      vertex -11.6407 -1.03956 0
    endloop
  endfacet
  facet normal -0.951056 -0.309017 0
    outer loop
      vertex -11.6407 -1.03956 -3.5
      vertex -11.3177 -2.03368 -3.5
      vertex -11.6407 -1.03956 0
    endloop
  endfacet
  facet normal -0.951056 -0.309017 0
    outer loop
      vertex -11.6407 -1.03956 0
      vertex -11.3177 -2.03368 -3.5
      vertex -11.3177 -2.03368 0
    endloop
  endfacet
  facet normal -0.866026 -0.5 0
    outer loop
      vertex -11.3177 -2.03368 -3.5
      vertex -10.7951 -2.93893 -3.5
      vertex -11.3177 -2.03368 0
    endloop
  endfacet
  facet normal -0.866026 -0.5 0
    outer loop
      vertex -11.3177 -2.03368 0
      vertex -10.7951 -2.93893 -3.5
      vertex -10.7951 -2.93893 0
    endloop
  endfacet
  facet normal -0.743145 -0.669131 0
    outer loop
      vertex -10.7951 -2.93893 -3.5
      vertex -10.0957 -3.71572 -3.5
      vertex -10.7951 -2.93893 0
    endloop
  endfacet
  facet normal -0.743145 -0.669131 0
    outer loop
      vertex -10.7951 -2.93893 0
      vertex -10.0957 -3.71572 -3.5
      vertex -10.0957 -3.71572 0
    endloop
  endfacet
  facet normal -0.587785 -0.809017 0
    outer loop
      vertex -10.0957 -3.71572 0
      vertex -10.0957 -3.71572 -3.5
      vertex -9.25 -4.33013 -3.5
    endloop
  endfacet
  facet normal -0.587785 -0.809017 0
    outer loop
      vertex -9.25 -4.33013 0
      vertex -10.0957 -3.71572 0
      vertex -9.25 -4.33013 -3.5
    endloop
  endfacet
  facet normal -0.406737 -0.913545 0
    outer loop
      vertex -9.25 -4.33013 0
      vertex -9.25 -4.33013 -3.5
      vertex -8.29508 -4.75528 -3.5
    endloop
  endfacet
  facet normal -0.406737 -0.913545 0
    outer loop
      vertex -8.29508 -4.75528 0
      vertex -9.25 -4.33013 0
      vertex -8.29508 -4.75528 -3.5
    endloop
  endfacet
  facet normal -0.207911 -0.978148 0
    outer loop
      vertex -8.29508 -4.75528 0
      vertex -8.29508 -4.75528 -3.5
      vertex -7.27264 -4.97261 -3.5
    endloop
  endfacet
  facet normal -0.207911 -0.978148 0
    outer loop
      vertex -7.27264 -4.97261 0
      vertex -8.29508 -4.75528 0
      vertex -7.27264 -4.97261 -3.5
    endloop
  endfacet
  facet normal 0 -1 0
    outer loop
      vertex -7.27264 -4.97261 0
      vertex -7.27264 -4.97261 -3.5
      vertex -6.75 -4.97261 -3.5
    endloop
  endfacet
  facet normal 0 -1 0
    outer loop
      vertex -6.75 -4.97261 0
      vertex -7.27264 -4.97261 0
      vertex -6.75 -4.97261 -3.5
    endloop
  endfacet
  facet normal -1 0 0
    outer loop
      vertex -6.75 -5 -3.5
      vertex -6.75 -5 0
      vertex -6.75 -4.97261 -3.5
    endloop
  endfacet
  facet normal -1 0 0
    outer loop
      vertex -6.75 -4.97261 -3.5
      vertex -6.75 -5 0
      vertex -6.75 -4.97261 0
    endloop
  endfacet
  facet normal 0 -1 0
    outer loop
      vertex -6.75 -5 0
      vertex -6.75 -5 -3.5
      vertex 6.75 -5 -3.5
    endloop
  endfacet
  facet normal 0 -1 0
    outer loop
      vertex 0 -5 0
      vertex -6.75 -5 0
      vertex 6.75 -5 -3.5
    endloop
  endfacet
  facet normal 0 -1 0
    outer loop
      vertex 6.75 -5 3.5
      vertex 0 -5 0
      vertex 6.75 -5 -3.5
    endloop
  endfacet
  facet normal 0 -1 0
    outer loop
      vertex 0 -5 3.5
      vertex 0 -5 0
      vertex 6.75 -5 3.5
    endloop
  endfacet
  facet normal 1 0 0
    outer loop
      vertex 6.75 -5 3.5
      vertex 6.75 -5 -3.5
      vertex 6.75 -4.97261 -3.5
    endloop
  endfacet
  facet normal 1 0 0
    outer loop
      vertex 6.75 -4.97261 3.5
      vertex 6.75 -5 3.5
      vertex 6.75 -4.97261 -3.5
    endloop
  endfacet
  facet normal 0 -1 0
    outer loop
      vertex 6.75 -4.97261 3.5
      vertex 6.75 -4.97261 -3.5
      vertex 7.27264 -4.97261 -3.5
    endloop
  endfacet
  facet normal 0 -1 0
    outer loop
      vertex 7.27264 -4.97261 3.5
      vertex 6.75 -4.97261 3.5
      vertex 7.27264 -4.97261 -3.5
    endloop
  endfacet
  facet normal 0.207911 -0.978148 0
    outer loop
      vertex 7.27264 -4.97261 3.5
      vertex 7.27264 -4.97261 -3.5
      vertex 8.29508 -4.75528 -3.5
    endloop
  endfacet
  facet normal 0.207911 -0.978148 0
    outer loop
      vertex 8.29508 -4.75528 3.5
      vertex 7.27264 -4.97261 3.5
      vertex 8.29508 -4.75528 -3.5
    endloop
  endfacet
  facet normal 0.406737 -0.913545 0
    outer loop
      vertex 8.29508 -4.75528 3.5
      vertex 8.29508 -4.75528 -3.5
      vertex 9.25 -4.33013 -3.5
    endloop
  endfacet
  facet normal 0.406737 -0.913545 0
    outer loop
      vertex 9.25 -4.33013 3.5
      vertex 8.29508 -4.75528 3.5
      vertex 9.25 -4.33013 -3.5
    endloop
  endfacet
  facet normal 0.587785 -0.809017 0
    outer loop
      vertex 9.25 -4.33013 3.5
      vertex 9.25 -4.33013 -3.5
      vertex 10.0957 -3.71572 -3.5
    endloop
  endfacet
  facet normal 0.587785 -0.809017 0
    outer loop
      vertex 10.0957 -3.71572 3.5
      vertex 9.25 -4.33013 3.5
      vertex 10.0957 -3.71572 -3.5
    endloop
  endfacet
  facet normal 0.743145 -0.669131 0
    outer loop
      vertex 10.0957 -3.71572 3.5
      vertex 10.0957 -3.71572 -3.5
      vertex 10.7951 -2.93893 -3.5
    endloop
  endfacet
  facet normal 0.743145 -0.669131 0
    outer loop
      vertex 10.7951 -2.93893 3.5
      vertex 10.0957 -3.71572 3.5
      vertex 10.7951 -2.93893 -3.5
    endloop
  endfacet
  facet normal 0.866026 -0.5 0
    outer loop
      vertex 10.7951 -2.93893 3.5
      vertex 10.7951 -2.93893 -3.5
      vertex 11.3177 -2.03368 -3.5
    endloop
  endfacet
  facet normal 0.866026 -0.5 0
    outer loop
      vertex 11.3177 -2.03368 3.5
      vertex 10.7951 -2.93893 3.5
      vertex 11.3177 -2.03368 -3.5
    endloop
  endfacet
  facet normal 0.951056 -0.309017 0
    outer loop
      vertex 11.3177 -2.03368 3.5
      vertex 11.3177 -2.03368 -3.5
      vertex 11.6407 -1.03956 -3.5
    endloop
  endfacet
  facet normal 0.951056 -0.309017 0
    outer loop
      vertex 11.6407 -1.03956 3.5
      vertex 11.3177 -2.03368 3.5
      vertex 11.6407 -1.03956 -3.5
    endloop
  endfacet
  facet normal 0.994522 -0.104529 0
    outer loop
      vertex 11.6407 -1.03956 3.5
      vertex 11.6407 -1.03956 -3.5
      vertex 11.75 0 -3.5
    endloop
  endfacet
  facet normal 0.994522 -0.104529 0
    outer loop
      vertex 11.75 0 3.5
      vertex 11.6407 -1.03956 3.5
      vertex 11.75 0 -3.5
    endloop
  endfacet
  facet normal 0.994522 0.104529 0
    outer loop
      vertex 11.75 0 -3.5
      vertex 11.6407 1.03956 -3.5
      vertex 11.6407 1.03956 3.5
    endloop
  endfacet
  facet normal 0.994522 0.104529 0
    outer loop
      vertex 11.75 0 3.5
      vertex 11.75 0 -3.5
      vertex 11.6407 1.03956 3.5
    endloop
  endfacet
  facet normal 0.951056 0.309017 0
    outer loop
      vertex 11.6407 1.03956 -3.5
      vertex 11.3177 2.03368 -3.5
      vertex 11.3177 2.03368 3.5
    endloop
  endfacet
  facet normal 0.951056 0.309017 0
    outer loop
      vertex 11.6407 1.03956 3.5
      vertex 11.6407 1.03956 -3.5
      vertex 11.3177 2.03368 3.5
    endloop
  endfacet
  facet normal 0.866026 0.5 0
    outer loop
      vertex 11.3177 2.03368 -3.5
      vertex 10.7951 2.93893 -3.5
      vertex 10.7951 2.93893 3.5
    endloop
  endfacet
  facet normal 0.866026 0.5 0
    outer loop
      vertex 11.3177 2.03368 3.5
      vertex 11.3177 2.03368 -3.5
      vertex 10.7951 2.93893 3.5
    endloop
  endfacet
  facet normal 0.743145 0.669131 0
    outer loop
      vertex 10.7951 2.93893 -3.5
      vertex 10.0957 3.71572 -3.5
      vertex 10.0957 3.71572 3.5
    endloop
  endfacet
  facet normal 0.743145 0.669131 0
    outer loop
      vertex 10.7951 2.93893 3.5
      vertex 10.7951 2.93893 -3.5
      vertex 10.0957 3.71572 3.5
    endloop
  endfacet
  facet normal 0.587785 0.809017 0
    outer loop
      vertex 9.25 4.33013 -3.5
      vertex 9.25 4.33013 3.5
      vertex 10.0957 3.71572 -3.5
    endloop
  endfacet
  facet normal 0.587785 0.809017 0
    outer loop
      vertex 10.0957 3.71572 -3.5
      vertex 9.25 4.33013 3.5
      vertex 10.0957 3.71572 3.5
    endloop
  endfacet
  facet normal 0.406737 0.913545 0
    outer loop
      vertex 8.29508 4.75528 -3.5
      vertex 8.29508 4.75528 3.5
      vertex 9.25 4.33013 -3.5
    endloop
  endfacet
  facet normal 0.406737 0.913545 0
    outer loop
      vertex 9.25 4.33013 -3.5
      vertex 8.29508 4.75528 3.5
      vertex 9.25 4.33013 3.5
    endloop
  endfacet
  facet normal 0.207911 0.978148 0
    outer loop
      vertex 7.27264 4.97261 -3.5
      vertex 7.27264 4.97261 3.5
      vertex 8.29508 4.75528 -3.5
    endloop
  endfacet
  facet normal 0.207911 0.978148 0
    outer loop
      vertex 8.29508 4.75528 -3.5
      vertex 7.27264 4.97261 3.5
      vertex 8.29508 4.75528 3.5
    endloop
  endfacet
  facet normal 0 1 0
    outer loop
      vertex 6.75 4.97261 -3.5
      vertex 6.75 4.97261 3.5
      vertex 7.27264 4.97261 -3.5
    endloop
  endfacet
  facet normal 0 1 0
    outer loop
      vertex 7.27264 4.97261 -3.5
      vertex 6.75 4.97261 3.5
      vertex 7.27264 4.97261 3.5
    endloop
  endfacet
  facet normal 1 0 0
    outer loop
      vertex 6.75 4.97261 3.5
      vertex 6.75 4.97261 -3.5
      vertex 6.75 5 -3.5
    endloop
  endfacet
  facet normal 1 0 0
    outer loop
      vertex 6.75 5 3.5
      vertex 6.75 4.97261 3.5
      vertex 6.75 5 -3.5
    endloop
  endfacet
  facet normal 0 1 0
    outer loop
      vertex -6.75 5 -3.5
      vertex -6.75 5 0
      vertex 6.75 5 -3.5
    endloop
  endfacet
  facet normal 0 1 0
    outer loop
      vertex 6.75 5 -3.5
      vertex -6.75 5 0
      vertex 0 5 0
    endloop
  endfacet
  facet normal 0 1 0
    outer loop
      vertex 6.75 5 -3.5
      vertex 0 5 0
      vertex 0 5 3.5
    endloop
  endfacet
  facet normal 0 1 0
    outer loop
      vertex 6.75 5 -3.5
      vertex 0 5 3.5
      vertex 6.75 5 3.5
    endloop
  endfacet
  facet normal -1 0 0
    outer loop
      vertex -6.75 4.97261 -3.5
      vertex -6.75 4.97261 0
      vertex -6.75 5 -3.5
    endloop
  endfacet
  facet normal -1 0 0
    outer loop
      vertex -6.75 5 -3.5
      vertex -6.75 4.97261 0
      vertex -6.75 5 0
    endloop
  endfacet
  facet normal 0 1 0
    outer loop
      vertex -7.27264 4.97261 -3.5
      vertex -7.27264 4.97261 0
      vertex -6.75 4.97261 -3.5
    endloop
  endfacet
  facet normal 0 1 0
    outer loop
      vertex -6.75 4.97261 -3.5
      vertex -7.27264 4.97261 0
      vertex -6.75 4.97261 0
    endloop
  endfacet
  facet normal -0.207911 0.978148 0
    outer loop
      vertex -8.29508 4.75528 -3.5
      vertex -8.29508 4.75528 0
      vertex -7.27264 4.97261 -3.5
    endloop
  endfacet
  facet normal -0.207911 0.978148 0
    outer loop
      vertex -7.27264 4.97261 -3.5
      vertex -8.29508 4.75528 0
      vertex -7.27264 4.97261 0
    endloop
  endfacet
  facet normal -0.406737 0.913545 0
    outer loop
      vertex -9.25 4.33013 -3.5
      vertex -9.25 4.33013 0
      vertex -8.29508 4.75528 -3.5
    endloop
  endfacet
  facet normal -0.406737 0.913545 0
    outer loop
      vertex -8.29508 4.75528 -3.5
      vertex -9.25 4.33013 0
      vertex -8.29508 4.75528 0
    endloop
  endfacet
  facet normal -0.587785 0.809017 0
    outer loop
      vertex -10.0957 3.71572 -3.5
      vertex -10.0957 3.71572 0
      vertex -9.25 4.33013 -3.5
    endloop
  endfacet
  facet normal -0.587785 0.809017 0
    outer loop
      vertex -9.25 4.33013 -3.5
      vertex -10.0957 3.71572 0
      vertex -9.25 4.33013 0
    endloop
  endfacet
  facet normal -0.743145 0.669131 0
    outer loop
      vertex -10.7951 2.93893 -3.5
      vertex -10.7951 2.93893 0
      vertex -10.0957 3.71572 -3.5
    endloop
  endfacet
  facet normal -0.743145 0.669131 0
    outer loop
      vertex -10.0957 3.71572 -3.5
      vertex -10.7951 2.93893 0
      vertex -10.0957 3.71572 0
    endloop
  endfacet
  facet normal -0.866026 0.5 0
    outer loop
      vertex -11.3177 2.03368 -3.5
      vertex -11.3177 2.03368 0
      vertex -10.7951 2.93893 -3.5
    endloop
  endfacet
  facet normal -0.866026 0.5 0
    outer loop
      vertex -10.7951 2.93893 -3.5
      vertex -11.3177 2.03368 0
      vertex -10.7951 2.93893 0
    endloop
  endfacet
  facet normal -0.951056 0.309017 0
    outer loop
      vertex -11.6407 1.03956 -3.5
      vertex -11.6407 1.03956 0
      vertex -11.3177 2.03368 -3.5
    endloop
  endfacet
  facet normal -0.951056 0.309017 0
    outer loop
      vertex -11.3177 2.03368 -3.5
      vertex -11.6407 1.03956 0
      vertex -11.3177 2.03368 0
    endloop
  endfacet
  facet normal 0.994522 -0.104528 0
    outer loop
      vertex -8.41285 0.35345 -3.5
      vertex -8.41285 0.35345 -1.7
      vertex -8.45 0 -1.7
    endloop
  endfacet
  facet normal 0.994522 -0.104528 0
    outer loop
      vertex -8.45 0 -3.5
      vertex -8.41285 0.35345 -3.5
      vertex -8.45 0 -1.7
    endloop
  endfacet
  facet normal 0.994522 0.104528 0
    outer loop
      vertex -8.45 0 -1.7
      vertex -8.41285 -0.35345 -1.7
      vertex -8.41285 -0.35345 -3.5
    endloop
  endfacet
  facet normal 0.994522 0.104528 0
    outer loop
      vertex -8.45 0 -3.5
      vertex -8.45 0 -1.7
      vertex -8.41285 -0.35345 -3.5
    endloop
  endfacet
  facet normal 0.951056 -0.309018 0
    outer loop
      vertex -8.30303 0.691452 -3.5
      vertex -8.30303 0.691452 -1.7
      vertex -8.41285 0.35345 -1.7
    endloop
  endfacet
  facet normal 0.951056 -0.309018 0
    outer loop
      vertex -8.41285 0.35345 -3.5
      vertex -8.30303 0.691452 -3.5
      vertex -8.41285 0.35345 -1.7
    endloop
  endfacet
  facet normal 0.866026 -0.499999 0
    outer loop
      vertex -8.12533 0.999235 -3.5
      vertex -8.12533 0.999235 -1.7
      vertex -8.30303 0.691452 -1.7
    endloop
  endfacet
  facet normal 0.866026 -0.499999 0
    outer loop
      vertex -8.30303 0.691452 -3.5
      vertex -8.12533 0.999235 -3.5
      vertex -8.30303 0.691452 -1.7
    endloop
  endfacet
  facet normal 0.743144 -0.669131 0
    outer loop
      vertex -7.88752 1.26335 -3.5
      vertex -7.88752 1.26335 -1.7
      vertex -8.12533 0.999235 -1.7
    endloop
  endfacet
  facet normal 0.743144 -0.669131 0
    outer loop
      vertex -8.12533 0.999235 -3.5
      vertex -7.88752 1.26335 -3.5
      vertex -8.12533 0.999235 -1.7
    endloop
  endfacet
  facet normal 0.587785 -0.809017 0
    outer loop
      vertex -7.6 1.47224 -3.5
      vertex -7.6 1.47224 -1.7
      vertex -7.88752 1.26335 -1.7
    endloop
  endfacet
  facet normal 0.587785 -0.809017 0
    outer loop
      vertex -7.88752 1.26335 -3.5
      vertex -7.6 1.47224 -3.5
      vertex -7.88752 1.26335 -1.7
    endloop
  endfacet
  facet normal 0.406737 -0.913545 0
    outer loop
      vertex -7.27533 1.6168 -3.5
      vertex -7.27533 1.6168 -1.7
      vertex -7.6 1.47224 -1.7
    endloop
  endfacet
  facet normal 0.406737 -0.913545 0
    outer loop
      vertex -7.6 1.47224 -3.5
      vertex -7.27533 1.6168 -3.5
      vertex -7.6 1.47224 -1.7
    endloop
  endfacet
  facet normal 0.207911 -0.978148 0
    outer loop
      vertex -6.9277 1.69069 -3.5
      vertex -6.9277 1.69069 -1.7
      vertex -7.27533 1.6168 -1.7
    endloop
  endfacet
  facet normal 0.207911 -0.978148 0
    outer loop
      vertex -7.27533 1.6168 -3.5
      vertex -6.9277 1.69069 -3.5
      vertex -7.27533 1.6168 -1.7
    endloop
  endfacet
  facet normal 0 -1 0
    outer loop
      vertex -6.5723 1.69069 -3.5
      vertex -6.5723 1.69069 -1.7
      vertex -6.9277 1.69069 -1.7
    endloop
  endfacet
  facet normal 0 -1 0
    outer loop
      vertex -6.9277 1.69069 -3.5
      vertex -6.5723 1.69069 -3.5
      vertex -6.9277 1.69069 -1.7
    endloop
  endfacet
  facet normal -0.207911 -0.978148 0
    outer loop
      vertex -6.22467 1.6168 -3.5
      vertex -6.22467 1.6168 -1.7
      vertex -6.5723 1.69069 -1.7
    endloop
  endfacet
  facet normal -0.207911 -0.978148 0
    outer loop
      vertex -6.5723 1.69069 -3.5
      vertex -6.22467 1.6168 -3.5
      vertex -6.5723 1.69069 -1.7
    endloop
  endfacet
  facet normal -0.406737 -0.913545 0
    outer loop
      vertex -5.9 1.47224 -3.5
      vertex -5.9 1.47224 -1.7
      vertex -6.22467 1.6168 -1.7
    endloop
  endfacet
  facet normal -0.406737 -0.913545 0
    outer loop
      vertex -6.22467 1.6168 -3.5
      vertex -5.9 1.47224 -3.5
      vertex -6.22467 1.6168 -1.7
    endloop
  endfacet
  facet normal -0.587785 -0.809017 0
    outer loop
      vertex -5.61248 1.26335 -3.5
      vertex -5.61248 1.26335 -1.7
      vertex -5.9 1.47224 -1.7
    endloop
  endfacet
  facet normal -0.587785 -0.809017 0
    outer loop
      vertex -5.9 1.47224 -3.5
      vertex -5.61248 1.26335 -3.5
      vertex -5.9 1.47224 -1.7
    endloop
  endfacet
  facet normal -0.743144 -0.669131 0
    outer loop
      vertex -5.37467 0.999235 -1.7
      vertex -5.61248 1.26335 -1.7
      vertex -5.37467 0.999235 -3.5
    endloop
  endfacet
  facet normal -0.743144 -0.669131 0
    outer loop
      vertex -5.37467 0.999235 -3.5
      vertex -5.61248 1.26335 -1.7
      vertex -5.61248 1.26335 -3.5
    endloop
  endfacet
  facet normal -0.866026 -0.499999 0
    outer loop
      vertex -5.19697 0.691452 -1.7
      vertex -5.37467 0.999235 -1.7
      vertex -5.19697 0.691452 -3.5
    endloop
  endfacet
  facet normal -0.866026 -0.499999 0
    outer loop
      vertex -5.19697 0.691452 -3.5
      vertex -5.37467 0.999235 -1.7
      vertex -5.37467 0.999235 -3.5
    endloop
  endfacet
  facet normal -0.951056 -0.309018 0
    outer loop
      vertex -5.08715 0.35345 -1.7
      vertex -5.19697 0.691452 -1.7
      vertex -5.08715 0.35345 -3.5
    endloop
  endfacet
  facet normal -0.951056 -0.309018 0
    outer loop
      vertex -5.08715 0.35345 -3.5
      vertex -5.19697 0.691452 -1.7
      vertex -5.19697 0.691452 -3.5
    endloop
  endfacet
  facet normal -0.994522 -0.104528 0
    outer loop
      vertex -5.05 0 -1.7
      vertex -5.08715 0.35345 -1.7
      vertex -5.05 0 -3.5
    endloop
  endfacet
  facet normal -0.994522 -0.104528 0
    outer loop
      vertex -5.05 0 -3.5
      vertex -5.08715 0.35345 -1.7
      vertex -5.08715 0.35345 -3.5
    endloop
  endfacet
  facet normal -0.994522 0.104528 0
    outer loop
      vertex -5.05 0 -1.7
      vertex -5.05 0 -3.5
      vertex -5.08715 -0.35345 -1.7
    endloop
  endfacet
  facet normal -0.994522 0.104528 0
    outer loop
      vertex -5.08715 -0.35345 -1.7
      vertex -5.05 0 -3.5
      vertex -5.08715 -0.35345 -3.5
    endloop
  endfacet
  facet normal -0.951056 0.309018 0
    outer loop
      vertex -5.08715 -0.35345 -1.7
      vertex -5.08715 -0.35345 -3.5
      vertex -5.19697 -0.691452 -1.7
    endloop
  endfacet
  facet normal -0.951056 0.309018 0
    outer loop
      vertex -5.19697 -0.691452 -1.7
      vertex -5.08715 -0.35345 -3.5
      vertex -5.19697 -0.691452 -3.5
    endloop
  endfacet
  facet normal -0.866026 0.499999 0
    outer loop
      vertex -5.19697 -0.691452 -1.7
      vertex -5.19697 -0.691452 -3.5
      vertex -5.37467 -0.999235 -1.7
    endloop
  endfacet
  facet normal -0.866026 0.499999 0
    outer loop
      vertex -5.37467 -0.999235 -1.7
      vertex -5.19697 -0.691452 -3.5
      vertex -5.37467 -0.999235 -3.5
    endloop
  endfacet
  facet normal -0.743144 0.669131 0
    outer loop
      vertex -5.37467 -0.999235 -1.7
      vertex -5.37467 -0.999235 -3.5
      vertex -5.61248 -1.26335 -1.7
    endloop
  endfacet
  facet normal -0.743144 0.669131 0
    outer loop
      vertex -5.61248 -1.26335 -1.7
      vertex -5.37467 -0.999235 -3.5
      vertex -5.61248 -1.26335 -3.5
    endloop
  endfacet
  facet normal -0.587785 0.809017 0
    outer loop
      vertex -5.61248 -1.26335 -1.7
      vertex -5.61248 -1.26335 -3.5
      vertex -5.9 -1.47224 -1.7
    endloop
  endfacet
  facet normal -0.587785 0.809017 0
    outer loop
      vertex -5.9 -1.47224 -1.7
      vertex -5.61248 -1.26335 -3.5
      vertex -5.9 -1.47224 -3.5
    endloop
  endfacet
  facet normal -0.406737 0.913545 0
    outer loop
      vertex -5.9 -1.47224 -1.7
      vertex -5.9 -1.47224 -3.5
      vertex -6.22467 -1.6168 -1.7
    endloop
  endfacet
  facet normal -0.406737 0.913545 0
    outer loop
      vertex -6.22467 -1.6168 -1.7
      vertex -5.9 -1.47224 -3.5
      vertex -6.22467 -1.6168 -3.5
    endloop
  endfacet
  facet normal -0.207911 0.978148 0
    outer loop
      vertex -6.22467 -1.6168 -1.7
      vertex -6.22467 -1.6168 -3.5
      vertex -6.5723 -1.69069 -1.7
    endloop
  endfacet
  facet normal -0.207911 0.978148 0
    outer loop
      vertex -6.5723 -1.69069 -1.7
      vertex -6.22467 -1.6168 -3.5
      vertex -6.5723 -1.69069 -3.5
    endloop
  endfacet
  facet normal 0 1 0
    outer loop
      vertex -6.5723 -1.69069 -1.7
      vertex -6.5723 -1.69069 -3.5
      vertex -6.9277 -1.69069 -1.7
    endloop
  endfacet
  facet normal 0 1 0
    outer loop
      vertex -6.9277 -1.69069 -1.7
      vertex -6.5723 -1.69069 -3.5
      vertex -6.9277 -1.69069 -3.5
    endloop
  endfacet
  facet normal 0.207911 0.978148 0
    outer loop
      vertex -6.9277 -1.69069 -1.7
      vertex -6.9277 -1.69069 -3.5
      vertex -7.27533 -1.6168 -1.7
    endloop
  endfacet
  facet normal 0.207911 0.978148 0
    outer loop
      vertex -7.27533 -1.6168 -1.7
      vertex -6.9277 -1.69069 -3.5
      vertex -7.27533 -1.6168 -3.5
    endloop
  endfacet
  facet normal 0.406737 0.913545 0
    outer loop
      vertex -7.27533 -1.6168 -1.7
      vertex -7.27533 -1.6168 -3.5
      vertex -7.6 -1.47224 -1.7
    endloop
  endfacet
  facet normal 0.406737 0.913545 0
    outer loop
      vertex -7.6 -1.47224 -1.7
      vertex -7.27533 -1.6168 -3.5
      vertex -7.6 -1.47224 -3.5
    endloop
  endfacet
  facet normal 0.587785 0.809017 0
    outer loop
      vertex -7.6 -1.47224 -1.7
      vertex -7.6 -1.47224 -3.5
      vertex -7.88752 -1.26335 -1.7
    endloop
  endfacet
  facet normal 0.587785 0.809017 0
    outer loop
      vertex -7.88752 -1.26335 -1.7
      vertex -7.6 -1.47224 -3.5
      vertex -7.88752 -1.26335 -3.5
    endloop
  endfacet
  facet normal 0.743144 0.669131 0
    outer loop
      vertex -8.12533 -0.999235 -1.7
      vertex -7.88752 -1.26335 -1.7
      vertex -7.88752 -1.26335 -3.5
    endloop
  endfacet
  facet normal 0.743144 0.669131 0
    outer loop
      vertex -8.12533 -0.999235 -3.5
      vertex -8.12533 -0.999235 -1.7
      vertex -7.88752 -1.26335 -3.5
    endloop
  endfacet
  facet normal 0.866026 0.499999 0
    outer loop
      vertex -8.30303 -0.691452 -1.7
      vertex -8.12533 -0.999235 -1.7
      vertex -8.12533 -0.999235 -3.5
    endloop
  endfacet
  facet normal 0.866026 0.499999 0
    outer loop
      vertex -8.30303 -0.691452 -3.5
      vertex -8.30303 -0.691452 -1.7
      vertex -8.12533 -0.999235 -3.5
    endloop
  endfacet
  facet normal 0.951056 0.309018 0
    outer loop
      vertex -8.41285 -0.35345 -1.7
      vertex -8.30303 -0.691452 -1.7
      vertex -8.30303 -0.691452 -3.5
    endloop
  endfacet
  facet normal 0.951056 0.309018 0
    outer loop
      vertex -8.41285 -0.35345 -3.5
      vertex -8.41285 -0.35345 -1.7
      vertex -8.30303 -0.691452 -3.5
    endloop
  endfacet
  facet normal 0.5 -0.866025 0
    outer loop
      vertex 6.75 3.28316 -3.5
      vertex 6.75 3.28316 1.5
      vertex 3.9067 1.64158 1.5
    endloop
  endfacet
  facet normal 0.5 -0.866025 0
    outer loop
      vertex 3.9067 1.64158 -3.5
      vertex 6.75 3.28316 -3.5
      vertex 3.9067 1.64158 1.5
    endloop
  endfacet
  facet normal 1 -1.06108e-07 0
    outer loop
      vertex 3.9067 1.64158 -3.5
      vertex 3.9067 1.64158 1.5
      vertex 3.9067 -1.64158 1.5
    endloop
  endfacet
  facet normal 1 -1.06108e-07 0
    outer loop
      vertex 3.9067 -1.64158 -3.5
      vertex 3.9067 1.64158 -3.5
      vertex 3.9067 -1.64158 1.5
    endloop
  endfacet
  facet normal -0.5 -0.866025 0
    outer loop
      vertex 9.5933 1.64158 -3.5
      vertex 9.5933 1.64158 1.5
      vertex 6.75 3.28316 1.5
    endloop
  endfacet
  facet normal -0.5 -0.866025 0
    outer loop
      vertex 6.75 3.28316 -3.5
      vertex 9.5933 1.64158 -3.5
      vertex 6.75 3.28316 1.5
    endloop
  endfacet
  facet normal -1 1.06108e-07 0
    outer loop
      vertex 9.5933 1.64158 1.5
      vertex 9.5933 1.64158 -3.5
      vertex 9.5933 -1.64158 1.5
    endloop
  endfacet
  facet normal -1 1.06108e-07 0
    outer loop
      vertex 9.5933 -1.64158 1.5
      vertex 9.5933 1.64158 -3.5
      vertex 9.5933 -1.64158 -3.5
    endloop
  endfacet
  facet normal -0.5 0.866025 0
    outer loop
      vertex 9.5933 -1.64158 1.5
      vertex 9.5933 -1.64158 -3.5
      vertex 6.75 -3.28316 1.5
    endloop
  endfacet
  facet normal -0.5 0.866025 0
    outer loop
      vertex 6.75 -3.28316 1.5
      vertex 9.5933 -1.64158 -3.5
      vertex 6.75 -3.28316 -3.5
    endloop
  endfacet
  facet normal 0.5 0.866025 0
    outer loop
      vertex 6.75 -3.28316 1.5
      vertex 6.75 -3.28316 -3.5
      vertex 3.9067 -1.64158 1.5
    endloop
  endfacet
  facet normal 0.5 0.866025 0
    outer loop
      vertex 3.9067 -1.64158 1.5
      vertex 6.75 -3.28316 -3.5
      vertex 3.9067 -1.64158 -3.5
    endloop
  endfacet
  facet normal 0 0 1
    outer loop
      vertex -11.6407 -1.03956 0
      vertex -11.3177 -2.03368 0
      vertex -10.7951 -2.93893 0
    endloop
  endfacet
  facet normal 0 0 1
    outer loop
      vertex -9.25 -4.33013 0
      vertex -11.6407 -1.03956 0
      vertex -10.0957 -3.71572 0
    endloop
  endfacet
  facet normal 0 0 1
    outer loop
      vertex -10.0957 -3.71572 0
      vertex -11.6407 -1.03956 0
      vertex -10.7951 -2.93893 0
    endloop
  endfacet
  facet normal 0 0 1
    outer loop
      vertex -8.29508 -4.75528 0
      vertex -11.6407 -1.03956 0
      vertex -9.25 -4.33013 0
    endloop
  endfacet
  facet normal 0 0 1
    outer loop
      vertex -7.27264 -4.97261 0
      vertex -11.6407 -1.03956 0
      vertex -8.29508 -4.75528 0
    endloop
  endfacet
  facet normal 0 0 1
    outer loop
      vertex -6.75 -4.97261 0
      vertex -11.6407 -1.03956 0
      vertex -7.27264 -4.97261 0
    endloop
  endfacet
  facet normal 0 0 1
    outer loop
      vertex -7.58177 -2.55993 0
      vertex -11.6407 -1.03956 0
      vertex -6.75 -4.97261 0
    endloop
  endfacet
  facet normal 0 0 1
    outer loop
      vertex 0 -5 0
      vertex -6.75 -4.97261 0
      vertex -6.75 -5 0
    endloop
  endfacet
  facet normal 0 0 1
    outer loop
      vertex -7.58177 -2.55993 0
      vertex -8.0778 -2.33908 0
      vertex -11.6407 -1.03956 0
    endloop
  endfacet
  facet normal 0 0 1
    outer loop
      vertex -6.75 5 0
      vertex -6.75 4.97261 0
      vertex 0 5 0
    endloop
  endfacet
  facet normal 0 0 1
    outer loop
      vertex -4.5724 1.58212 0
      vertex -4.30091 1.1119 0
      vertex 0 -5 0
    endloop
  endfacet
  facet normal 0 0 1
    outer loop
      vertex -8.29508 4.75528 0
      vertex -11.6407 -1.03956 0
      vertex -7.27264 4.97261 0
    endloop
  endfacet
  facet normal 0 0 1
    outer loop
      vertex -9.25 4.33013 0
      vertex -11.6407 -1.03956 0
      vertex -8.29508 4.75528 0
    endloop
  endfacet
  facet normal 0 0 1
    outer loop
      vertex -10.0957 3.71572 0
      vertex -11.6407 -1.03956 0
      vertex -9.25 4.33013 0
    endloop
  endfacet
  facet normal 0 0 1
    outer loop
      vertex -10.7951 2.93893 0
      vertex -11.6407 -1.03956 0
      vertex -10.0957 3.71572 0
    endloop
  endfacet
  facet normal 0 0 1
    outer loop
      vertex -11.3177 2.03368 0
      vertex -11.6407 -1.03956 0
      vertex -10.7951 2.93893 0
    endloop
  endfacet
  facet normal 0 0 1
    outer loop
      vertex -11.6407 1.03956 0
      vertex -11.6407 -1.03956 0
      vertex -11.3177 2.03368 0
    endloop
  endfacet
  facet normal 0 0 1
    outer loop
      vertex -11.75 0 0
      vertex -11.6407 -1.03956 0
      vertex -11.6407 1.03956 0
    endloop
  endfacet
  facet normal 0 0 1
    outer loop
      vertex -6.46864 -2.67692 0
      vertex -7.03136 -2.67692 0
      vertex 0 -5 0
    endloop
  endfacet
  facet normal 0 0 1
    outer loop
      vertex -8.9276 1.58212 0
      vertex -8.56429 1.98563 0
      vertex -6.75 4.97261 0
    endloop
  endfacet
  facet normal 0 0 1
    outer loop
      vertex -5.40417 2.33105 0
      vertex -4.9649 2.0119 0
      vertex 0 5 0
    endloop
  endfacet
  facet normal 0 0 1
    outer loop
      vertex -9.38285 0.559629 0
      vertex -11.6407 -1.03956 0
      vertex -9.38491 0.539993 0
    endloop
  endfacet
  facet normal 0 0 1
    outer loop
      vertex -9.21506 1.07602 0
      vertex -11.6407 -1.03956 0
      vertex -9.38285 0.559629 0
    endloop
  endfacet
  facet normal 0 0 1
    outer loop
      vertex -9.20896 1.0948 0
      vertex -11.6407 -1.03956 0
      vertex -9.21506 1.07602 0
    endloop
  endfacet
  facet normal 0 0 1
    outer loop
      vertex -8.93748 1.56502 0
      vertex -11.6407 -1.03956 0
      vertex -9.20896 1.0948 0
    endloop
  endfacet
  facet normal 0 0 1
    outer loop
      vertex -8.55108 2.0003 0
      vertex -8.11181 2.31945 0
      vertex -6.75 4.97261 0
    endloop
  endfacet
  facet normal 0 0 1
    outer loop
      vertex -8.9276 1.58212 0
      vertex -11.6407 -1.03956 0
      vertex -8.93748 1.56502 0
    endloop
  endfacet
  facet normal 0 0 1
    outer loop
      vertex -8.09583 -2.33105 0
      vertex -8.5351 -2.0119 0
      vertex -11.6407 -1.03956 0
    endloop
  endfacet
  facet normal 0 0 1
    outer loop
      vertex -6.75 4.97261 0
      vertex -11.6407 -1.03956 0
      vertex -8.9276 1.58212 0
    endloop
  endfacet
  facet normal 0 0 1
    outer loop
      vertex -7.58177 2.55993 0
      vertex -7.05067 2.67282 0
      vertex 0 5 0
    endloop
  endfacet
  facet normal 0 0 1
    outer loop
      vertex -6.75 4.97261 0
      vertex -8.56429 1.98563 0
      vertex -8.55108 2.0003 0
    endloop
  endfacet
  facet normal 0 0 1
    outer loop
      vertex -5.91823 2.55993 0
      vertex -5.4222 2.33908 0
      vertex 0 5 0
    endloop
  endfacet
  facet normal 0 0 1
    outer loop
      vertex -7.03136 2.67692 0
      vertex -6.46864 2.67692 0
      vertex 0 5 0
    endloop
  endfacet
  facet normal 0 0 1
    outer loop
      vertex -6.75 4.97261 0
      vertex -8.11181 2.31945 0
      vertex -8.09583 2.33105 0
    endloop
  endfacet
  facet normal 0 0 1
    outer loop
      vertex -4.29104 1.0948 0
      vertex -4.12325 0.578407 0
      vertex 0 -5 0
    endloop
  endfacet
  facet normal 0 0 1
    outer loop
      vertex -6.75 4.97261 0
      vertex -8.09583 2.33105 0
      vertex -7.59981 2.5519 0
    endloop
  endfacet
  facet normal 0 0 1
    outer loop
      vertex -6.75 4.97261 0
      vertex -7.58177 2.55993 0
      vertex 0 5 0
    endloop
  endfacet
  facet normal 0 0 1
    outer loop
      vertex -6.75 4.97261 0
      vertex -7.59981 2.5519 0
      vertex -7.58177 2.55993 0
    endloop
  endfacet
  facet normal 0 0 1
    outer loop
      vertex -7.05067 2.67282 0
      vertex -7.03136 2.67692 0
      vertex 0 5 0
    endloop
  endfacet
  facet normal 0 0 1
    outer loop
      vertex -6.46864 2.67692 0
      vertex -5.93754 2.56403 0
      vertex 0 5 0
    endloop
  endfacet
  facet normal 0 0 1
    outer loop
      vertex -5.93754 2.56403 0
      vertex -5.91823 2.55993 0
      vertex 0 5 0
    endloop
  endfacet
  facet normal 0 0 1
    outer loop
      vertex -5.4222 2.33908 0
      vertex -5.40417 2.33105 0
      vertex 0 5 0
    endloop
  endfacet
  facet normal 0 0 1
    outer loop
      vertex -4.94892 -2.0003 0
      vertex -5.38819 -2.31945 0
      vertex 0 -5 0
    endloop
  endfacet
  facet normal 0 0 1
    outer loop
      vertex 0 5 0
      vertex -4.9649 2.0119 0
      vertex -4.94892 2.0003 0
    endloop
  endfacet
  facet normal 0 0 1
    outer loop
      vertex 0 5 0
      vertex -4.94892 2.0003 0
      vertex -4.58561 1.59679 0
    endloop
  endfacet
  facet normal 0 0 1
    outer loop
      vertex 0 5 0
      vertex -4.5724 1.58212 0
      vertex 0 -5 0
    endloop
  endfacet
  facet normal 0 0 1
    outer loop
      vertex 0 5 0
      vertex -4.58561 1.59679 0
      vertex -4.5724 1.58212 0
    endloop
  endfacet
  facet normal 0 0 1
    outer loop
      vertex -4.30091 1.1119 0
      vertex -4.29104 1.0948 0
      vertex 0 -5 0
    endloop
  endfacet
  facet normal 0 0 1
    outer loop
      vertex -4.12325 0.578407 0
      vertex -4.11715 0.559629 0
      vertex 0 -5 0
    endloop
  endfacet
  facet normal 0 0 1
    outer loop
      vertex -4.11715 0.559629 0
      vertex -4.0604 0.0196361 0
      vertex 0 -5 0
    endloop
  endfacet
  facet normal 0 0 1
    outer loop
      vertex -4.0604 0.0196361 0
      vertex -4.05833 0 0
      vertex 0 -5 0
    endloop
  endfacet
  facet normal 0 0 1
    outer loop
      vertex -4.05833 0 0
      vertex -4.11509 -0.539993 0
      vertex 0 -5 0
    endloop
  endfacet
  facet normal 0 0 1
    outer loop
      vertex -4.11509 -0.539993 0
      vertex -4.11715 -0.559629 0
      vertex 0 -5 0
    endloop
  endfacet
  facet normal 0 0 1
    outer loop
      vertex -4.11715 -0.559629 0
      vertex -4.28494 -1.07602 0
      vertex 0 -5 0
    endloop
  endfacet
  facet normal 0 0 1
    outer loop
      vertex -4.28494 -1.07602 0
      vertex -4.29104 -1.0948 0
      vertex 0 -5 0
    endloop
  endfacet
  facet normal 0 0 1
    outer loop
      vertex -4.29104 -1.0948 0
      vertex -4.56252 -1.56502 0
      vertex 0 -5 0
    endloop
  endfacet
  facet normal 0 0 1
    outer loop
      vertex -4.56252 -1.56502 0
      vertex -4.5724 -1.58212 0
      vertex 0 -5 0
    endloop
  endfacet
  facet normal 0 0 1
    outer loop
      vertex -4.5724 -1.58212 0
      vertex -4.93571 -1.98563 0
      vertex 0 -5 0
    endloop
  endfacet
  facet normal 0 0 1
    outer loop
      vertex -4.93571 -1.98563 0
      vertex -4.94892 -2.0003 0
      vertex 0 -5 0
    endloop
  endfacet
  facet normal 0 0 1
    outer loop
      vertex -5.38819 -2.31945 0
      vertex -5.40417 -2.33105 0
      vertex 0 -5 0
    endloop
  endfacet
  facet normal 0 0 1
    outer loop
      vertex -5.40417 -2.33105 0
      vertex -5.90019 -2.5519 0
      vertex 0 -5 0
    endloop
  endfacet
  facet normal 0 0 1
    outer loop
      vertex -5.90019 -2.5519 0
      vertex -5.91823 -2.55993 0
      vertex 0 -5 0
    endloop
  endfacet
  facet normal 0 0 1
    outer loop
      vertex -5.91823 -2.55993 0
      vertex -6.44933 -2.67282 0
      vertex 0 -5 0
    endloop
  endfacet
  facet normal 0 0 1
    outer loop
      vertex -6.44933 -2.67282 0
      vertex -6.46864 -2.67692 0
      vertex 0 -5 0
    endloop
  endfacet
  facet normal 0 0 1
    outer loop
      vertex 0 -5 0
      vertex -7.03136 -2.67692 0
      vertex -6.75 -4.97261 0
    endloop
  endfacet
  facet normal 0 0 1
    outer loop
      vertex -7.03136 -2.67692 0
      vertex -7.56246 -2.56403 0
      vertex -6.75 -4.97261 0
    endloop
  endfacet
  facet normal 0 0 1
    outer loop
      vertex -7.56246 -2.56403 0
      vertex -7.58177 -2.55993 0
      vertex -6.75 -4.97261 0
    endloop
  endfacet
  facet normal 0 0 1
    outer loop
      vertex -8.09583 -2.33105 0
      vertex -11.6407 -1.03956 0
      vertex -8.0778 -2.33908 0
    endloop
  endfacet
  facet normal 0 0 1
    outer loop
      vertex -8.55108 -2.0003 0
      vertex -11.6407 -1.03956 0
      vertex -8.5351 -2.0119 0
    endloop
  endfacet
  facet normal 0 0 1
    outer loop
      vertex -8.9276 -1.58212 0
      vertex -11.6407 -1.03956 0
      vertex -8.91439 -1.59679 0
    endloop
  endfacet
  facet normal 0 0 1
    outer loop
      vertex -9.19909 -1.1119 0
      vertex -11.6407 -1.03956 0
      vertex -8.9276 -1.58212 0
    endloop
  endfacet
  facet normal 0 0 1
    outer loop
      vertex -9.20896 -1.0948 0
      vertex -11.6407 -1.03956 0
      vertex -9.19909 -1.1119 0
    endloop
  endfacet
  facet normal 0 0 1
    outer loop
      vertex -9.37675 -0.578407 0
      vertex -11.6407 -1.03956 0
      vertex -9.20896 -1.0948 0
    endloop
  endfacet
  facet normal 0 0 1
    outer loop
      vertex -9.38285 -0.559629 0
      vertex -11.6407 -1.03956 0
      vertex -9.37675 -0.578407 0
    endloop
  endfacet
  facet normal 0 0 1
    outer loop
      vertex -9.4396 -0.0196361 0
      vertex -11.6407 -1.03956 0
      vertex -9.38285 -0.559629 0
    endloop
  endfacet
  facet normal 0 0 1
    outer loop
      vertex -9.44167 0 0
      vertex -11.6407 -1.03956 0
      vertex -9.4396 -0.0196361 0
    endloop
  endfacet
  facet normal 0 0 1
    outer loop
      vertex -6.75 4.97261 0
      vertex -7.27264 4.97261 0
      vertex -11.6407 -1.03956 0
    endloop
  endfacet
  facet normal 0 0 1
    outer loop
      vertex -9.44167 0 0
      vertex -9.38491 0.539993 0
      vertex -11.6407 -1.03956 0
    endloop
  endfacet
  facet normal 0 0 1
    outer loop
      vertex -8.55108 -2.0003 0
      vertex -8.91439 -1.59679 0
      vertex -11.6407 -1.03956 0
    endloop
  endfacet
  facet normal -1 0 0
    outer loop
      vertex 0 5 3.5
      vertex 0 5 0
      vertex 0 -5 3.5
    endloop
  endfacet
  facet normal -1 0 0
    outer loop
      vertex 0 -5 3.5
      vertex 0 5 0
      vertex 0 -5 0
    endloop
  endfacet
  facet normal 0 0 1
    outer loop
      vertex 0 5 3.5
      vertex 0 -5 3.5
      vertex 6.75 -5 3.5
    endloop
  endfacet
  facet normal 0 0 1
    outer loop
      vertex 7.27264 -4.97261 3.5
      vertex 0 5 3.5
      vertex 6.75 -4.97261 3.5
    endloop
  endfacet
  facet normal 0 0 1
    outer loop
      vertex 6.75 -4.97261 3.5
      vertex 0 5 3.5
      vertex 6.75 -5 3.5
    endloop
  endfacet
  facet normal 0 0 1
    outer loop
      vertex 8.29508 -4.75528 3.5
      vertex 0 5 3.5
      vertex 7.27264 -4.97261 3.5
    endloop
  endfacet
  facet normal 0 0 1
    outer loop
      vertex 5.37467 -0.999235 3.5
      vertex 0 5 3.5
      vertex 8.29508 -4.75528 3.5
    endloop
  endfacet
  facet normal 0 0 1
    outer loop
      vertex 7.27533 -1.6168 3.5
      vertex 6.9277 -1.69069 3.5
      vertex 10.0957 -3.71572 3.5
    endloop
  endfacet
  facet normal 0 0 1
    outer loop
      vertex 5.37467 0.999235 3.5
      vertex 5.61248 1.26335 3.5
      vertex 0 5 3.5
    endloop
  endfacet
  facet normal 0 0 1
    outer loop
      vertex 11.6407 1.03956 3.5
      vertex 0 5 3.5
      vertex 11.75 0 3.5
    endloop
  endfacet
  facet normal 0 0 1
    outer loop
      vertex 11.3177 2.03368 3.5
      vertex 0 5 3.5
      vertex 11.6407 1.03956 3.5
    endloop
  endfacet
  facet normal 0 0 1
    outer loop
      vertex 10.7951 2.93893 3.5
      vertex 0 5 3.5
      vertex 11.3177 2.03368 3.5
    endloop
  endfacet
  facet normal 0 0 1
    outer loop
      vertex 10.0957 3.71572 3.5
      vertex 0 5 3.5
      vertex 10.7951 2.93893 3.5
    endloop
  endfacet
  facet normal 0 0 1
    outer loop
      vertex 9.25 4.33013 3.5
      vertex 0 5 3.5
      vertex 10.0957 3.71572 3.5
    endloop
  endfacet
  facet normal 0 0 1
    outer loop
      vertex 8.29508 4.75528 3.5
      vertex 0 5 3.5
      vertex 9.25 4.33013 3.5
    endloop
  endfacet
  facet normal 0 0 1
    outer loop
      vertex 6.75 4.97261 3.5
      vertex 0 5 3.5
      vertex 8.29508 4.75528 3.5
    endloop
  endfacet
  facet normal 0 0 1
    outer loop
      vertex 7.27264 4.97261 3.5
      vertex 6.75 4.97261 3.5
      vertex 8.29508 4.75528 3.5
    endloop
  endfacet
  facet normal 0 0 1
    outer loop
      vertex 5.08715 0.35345 3.5
      vertex 5.19697 0.691452 3.5
      vertex 0 5 3.5
    endloop
  endfacet
  facet normal 0 0 1
    outer loop
      vertex 6.5723 -1.69069 3.5
      vertex 6.22467 -1.6168 3.5
      vertex 9.25 -4.33013 3.5
    endloop
  endfacet
  facet normal 0 0 1
    outer loop
      vertex 5.08715 0.35345 3.5
      vertex 0 5 3.5
      vertex 5.05 0 3.5
    endloop
  endfacet
  facet normal 0 0 1
    outer loop
      vertex 5.61248 1.26335 3.5
      vertex 5.9 1.47224 3.5
      vertex 0 5 3.5
    endloop
  endfacet
  facet normal 0 0 1
    outer loop
      vertex 7.6 -1.47224 3.5
      vertex 7.27533 -1.6168 3.5
      vertex 10.0957 -3.71572 3.5
    endloop
  endfacet
  facet normal 0 0 1
    outer loop
      vertex 5.37467 0.999235 3.5
      vertex 0 5 3.5
      vertex 5.19697 0.691452 3.5
    endloop
  endfacet
  facet normal 0 0 1
    outer loop
      vertex 5.37467 -0.999235 3.5
      vertex 5.19697 -0.691452 3.5
      vertex 0 5 3.5
    endloop
  endfacet
  facet normal 0 0 1
    outer loop
      vertex 6.22467 1.6168 3.5
      vertex 6.5723 1.69069 3.5
      vertex 0 5 3.5
    endloop
  endfacet
  facet normal 0 0 1
    outer loop
      vertex 8.41285 -0.35345 3.5
      vertex 8.30303 -0.691452 3.5
      vertex 11.3177 -2.03368 3.5
    endloop
  endfacet
  facet normal 0 0 1
    outer loop
      vertex 6.22467 1.6168 3.5
      vertex 0 5 3.5
      vertex 5.9 1.47224 3.5
    endloop
  endfacet
  facet normal 0 0 1
    outer loop
      vertex 8.45 0 3.5
      vertex 8.41285 -0.35345 3.5
      vertex 11.3177 -2.03368 3.5
    endloop
  endfacet
  facet normal 0 0 1
    outer loop
      vertex 8.30303 0.691452 3.5
      vertex 8.41285 0.35345 3.5
      vertex 11.6407 -1.03956 3.5
    endloop
  endfacet
  facet normal 0 0 1
    outer loop
      vertex 6.9277 1.69069 3.5
      vertex 0 5 3.5
      vertex 6.5723 1.69069 3.5
    endloop
  endfacet
  facet normal 0 0 1
    outer loop
      vertex 7.27533 1.6168 3.5
      vertex 0 5 3.5
      vertex 6.9277 1.69069 3.5
    endloop
  endfacet
  facet normal 0 0 1
    outer loop
      vertex 11.75 0 3.5
      vertex 0 5 3.5
      vertex 7.27533 1.6168 3.5
    endloop
  endfacet
  facet normal 0 0 1
    outer loop
      vertex 7.88752 1.26335 3.5
      vertex 8.12533 0.999235 3.5
      vertex 11.75 0 3.5
    endloop
  endfacet
  facet normal 0 0 1
    outer loop
      vertex 11.75 0 3.5
      vertex 7.27533 1.6168 3.5
      vertex 7.6 1.47224 3.5
    endloop
  endfacet
  facet normal 0 0 1
    outer loop
      vertex 8.12533 0.999235 3.5
      vertex 8.30303 0.691452 3.5
      vertex 11.6407 -1.03956 3.5
    endloop
  endfacet
  facet normal 0 0 1
    outer loop
      vertex 11.75 0 3.5
      vertex 8.12533 0.999235 3.5
      vertex 11.6407 -1.03956 3.5
    endloop
  endfacet
  facet normal 0 0 1
    outer loop
      vertex 8.30303 -0.691452 3.5
      vertex 8.12533 -0.999235 3.5
      vertex 10.7951 -2.93893 3.5
    endloop
  endfacet
  facet normal 0 0 1
    outer loop
      vertex 7.6 1.47224 3.5
      vertex 7.88752 1.26335 3.5
      vertex 11.75 0 3.5
    endloop
  endfacet
  facet normal 0 0 1
    outer loop
      vertex 11.6407 -1.03956 3.5
      vertex 8.41285 0.35345 3.5
      vertex 11.3177 -2.03368 3.5
    endloop
  endfacet
  facet normal 0 0 1
    outer loop
      vertex 8.41285 0.35345 3.5
      vertex 8.45 0 3.5
      vertex 11.3177 -2.03368 3.5
    endloop
  endfacet
  facet normal 0 0 1
    outer loop
      vertex 11.3177 -2.03368 3.5
      vertex 8.30303 -0.691452 3.5
      vertex 10.7951 -2.93893 3.5
    endloop
  endfacet
  facet normal 0 0 1
    outer loop
      vertex 7.88752 -1.26335 3.5
      vertex 7.6 -1.47224 3.5
      vertex 10.0957 -3.71572 3.5
    endloop
  endfacet
  facet normal 0 0 1
    outer loop
      vertex 10.7951 -2.93893 3.5
      vertex 7.88752 -1.26335 3.5
      vertex 10.0957 -3.71572 3.5
    endloop
  endfacet
  facet normal 0 0 1
    outer loop
      vertex 8.12533 -0.999235 3.5
      vertex 7.88752 -1.26335 3.5
      vertex 10.7951 -2.93893 3.5
    endloop
  endfacet
  facet normal 0 0 1
    outer loop
      vertex 6.9277 -1.69069 3.5
      vertex 6.5723 -1.69069 3.5
      vertex 9.25 -4.33013 3.5
    endloop
  endfacet
  facet normal 0 0 1
    outer loop
      vertex 10.0957 -3.71572 3.5
      vertex 6.9277 -1.69069 3.5
      vertex 9.25 -4.33013 3.5
    endloop
  endfacet
  facet normal 0 0 1
    outer loop
      vertex 6.22467 -1.6168 3.5
      vertex 5.9 -1.47224 3.5
      vertex 8.29508 -4.75528 3.5
    endloop
  endfacet
  facet normal 0 0 1
    outer loop
      vertex 9.25 -4.33013 3.5
      vertex 6.22467 -1.6168 3.5
      vertex 8.29508 -4.75528 3.5
    endloop
  endfacet
  facet normal 0 0 1
    outer loop
      vertex 5.9 -1.47224 3.5
      vertex 5.61248 -1.26335 3.5
      vertex 8.29508 -4.75528 3.5
    endloop
  endfacet
  facet normal 0 0 1
    outer loop
      vertex 5.61248 -1.26335 3.5
      vertex 5.37467 -0.999235 3.5
      vertex 8.29508 -4.75528 3.5
    endloop
  endfacet
  facet normal 0 0 1
    outer loop
      vertex 5.08715 -0.35345 3.5
      vertex 0 5 3.5
      vertex 5.19697 -0.691452 3.5
    endloop
  endfacet
  facet normal 0 0 1
    outer loop
      vertex 6.75 4.97261 3.5
      vertex 6.75 5 3.5
      vertex 0 5 3.5
    endloop
  endfacet
  facet normal 0 0 1
    outer loop
      vertex 5.08715 -0.35345 3.5
      vertex 5.05 0 3.5
      vertex 0 5 3.5
    endloop
  endfacet
  facet normal 0.860241 -0.0904149 0.501807
    outer loop
      vertex -8.45 0 -1.7
      vertex -9.38491 0.539993 0
      vertex -9.44167 0 0
    endloop
  endfacet
  facet normal 0.860241 -0.0904148 0.501807
    outer loop
      vertex -8.45 0 -1.7
      vertex -8.41285 0.35345 -1.7
      vertex -9.38285 0.559629 0
    endloop
  endfacet
  facet normal 0.860241 -0.0904148 0.501807
    outer loop
      vertex -9.38491 0.539993 0
      vertex -8.45 0 -1.7
      vertex -9.38285 0.559629 0
    endloop
  endfacet
  facet normal 0.860241 0.0904148 0.501807
    outer loop
      vertex -9.4396 -0.0196361 0
      vertex -8.41285 -0.35345 -1.7
      vertex -8.45 0 -1.7
    endloop
  endfacet
  facet normal 0.860241 0.0904148 0.501807
    outer loop
      vertex -9.44167 0 0
      vertex -9.4396 -0.0196361 0
      vertex -8.45 0 -1.7
    endloop
  endfacet
  facet normal 0.822644 -0.267293 0.501807
    outer loop
      vertex -8.41285 0.35345 -1.7
      vertex -9.21506 1.07602 0
      vertex -9.38285 0.559629 0
    endloop
  endfacet
  facet normal 0.822644 -0.267294 0.501807
    outer loop
      vertex -8.41285 0.35345 -1.7
      vertex -8.30303 0.691452 -1.7
      vertex -9.20896 1.0948 0
    endloop
  endfacet
  facet normal 0.822644 -0.267294 0.501807
    outer loop
      vertex -9.21506 1.07602 0
      vertex -8.41285 0.35345 -1.7
      vertex -9.20896 1.0948 0
    endloop
  endfacet
  facet normal 0.822644 0.267294 0.501807
    outer loop
      vertex -9.37675 -0.578407 0
      vertex -8.30303 -0.691452 -1.7
      vertex -8.41285 -0.35345 -1.7
    endloop
  endfacet
  facet normal 0.822644 0.267294 0.501807
    outer loop
      vertex -9.38285 -0.559629 0
      vertex -9.37675 -0.578407 0
      vertex -8.41285 -0.35345 -1.7
    endloop
  endfacet
  facet normal 0.860241 0.0904149 0.501807
    outer loop
      vertex -9.38285 -0.559629 0
      vertex -8.41285 -0.35345 -1.7
      vertex -9.4396 -0.0196361 0
    endloop
  endfacet
  facet normal 0.749094 -0.43249 0.501807
    outer loop
      vertex -8.30303 0.691452 -1.7
      vertex -8.93748 1.56502 0
      vertex -9.20896 1.0948 0
    endloop
  endfacet
  facet normal 0.749095 -0.432489 0.501807
    outer loop
      vertex -8.30303 0.691452 -1.7
      vertex -8.12533 0.999235 -1.7
      vertex -8.9276 1.58212 0
    endloop
  endfacet
  facet normal 0.749095 -0.432489 0.501807
    outer loop
      vertex -8.93748 1.56502 0
      vertex -8.30303 0.691452 -1.7
      vertex -8.9276 1.58212 0
    endloop
  endfacet
  facet normal 0.642805 -0.578785 0.501807
    outer loop
      vertex -8.12533 0.999235 -1.7
      vertex -8.56429 1.98563 0
      vertex -8.9276 1.58212 0
    endloop
  endfacet
  facet normal 0.642805 -0.578785 0.501807
    outer loop
      vertex -8.12533 0.999235 -1.7
      vertex -7.88752 1.26335 -1.7
      vertex -8.55108 2.0003 0
    endloop
  endfacet
  facet normal 0.642805 -0.578785 0.501807
    outer loop
      vertex -8.56429 1.98563 0
      vertex -8.12533 0.999235 -1.7
      vertex -8.55108 2.0003 0
    endloop
  endfacet
  facet normal 0.508423 -0.699783 0.501807
    outer loop
      vertex -7.88752 1.26335 -1.7
      vertex -8.11181 2.31945 0
      vertex -8.55108 2.0003 0
    endloop
  endfacet
  facet normal 0.508422 -0.699783 0.501807
    outer loop
      vertex -7.88752 1.26335 -1.7
      vertex -7.6 1.47224 -1.7
      vertex -8.09583 2.33105 0
    endloop
  endfacet
  facet normal 0.508422 -0.699783 0.501807
    outer loop
      vertex -8.11181 2.31945 0
      vertex -7.88752 1.26335 -1.7
      vertex -8.09583 2.33105 0
    endloop
  endfacet
  facet normal 0.351818 -0.790198 0.501807
    outer loop
      vertex -7.6 1.47224 -1.7
      vertex -7.59981 2.5519 0
      vertex -8.09583 2.33105 0
    endloop
  endfacet
  facet normal 0.351819 -0.790198 0.501807
    outer loop
      vertex -7.27533 1.6168 -1.7
      vertex -7.58177 2.55993 0
      vertex -7.59981 2.5519 0
    endloop
  endfacet
  facet normal 0.351819 -0.790198 0.501807
    outer loop
      vertex -7.6 1.47224 -1.7
      vertex -7.27533 1.6168 -1.7
      vertex -7.59981 2.5519 0
    endloop
  endfacet
  facet normal 0.179839 -0.846078 0.501807
    outer loop
      vertex -7.27533 1.6168 -1.7
      vertex -7.05067 2.67282 0
      vertex -7.58177 2.55993 0
    endloop
  endfacet
  facet normal 0.179839 -0.846078 0.501807
    outer loop
      vertex -6.9277 1.69069 -1.7
      vertex -7.03136 2.67692 0
      vertex -7.05067 2.67282 0
    endloop
  endfacet
  facet normal 0.179839 -0.846078 0.501807
    outer loop
      vertex -7.27533 1.6168 -1.7
      vertex -6.9277 1.69069 -1.7
      vertex -7.05067 2.67282 0
    endloop
  endfacet
  facet normal 0 -0.864979 0.501807
    outer loop
      vertex -6.9277 1.69069 -1.7
      vertex -6.5723 1.69069 -1.7
      vertex -6.46864 2.67692 0
    endloop
  endfacet
  facet normal 0 -0.864979 0.501807
    outer loop
      vertex -7.03136 2.67692 0
      vertex -6.9277 1.69069 -1.7
      vertex -6.46864 2.67692 0
    endloop
  endfacet
  facet normal -0.179839 -0.846078 0.501807
    outer loop
      vertex -5.93754 2.56403 0
      vertex -6.46864 2.67692 0
      vertex -6.5723 1.69069 -1.7
    endloop
  endfacet
  facet normal -0.179839 -0.846078 0.501807
    outer loop
      vertex -6.22467 1.6168 -1.7
      vertex -5.91823 2.55993 0
      vertex -5.93754 2.56403 0
    endloop
  endfacet
  facet normal -0.179839 -0.846078 0.501807
    outer loop
      vertex -6.5723 1.69069 -1.7
      vertex -6.22467 1.6168 -1.7
      vertex -5.93754 2.56403 0
    endloop
  endfacet
  facet normal -0.351818 -0.790198 0.501807
    outer loop
      vertex -5.4222 2.33908 0
      vertex -5.91823 2.55993 0
      vertex -6.22467 1.6168 -1.7
    endloop
  endfacet
  facet normal -0.351819 -0.790198 0.501807
    outer loop
      vertex -5.9 1.47224 -1.7
      vertex -5.40417 2.33105 0
      vertex -5.4222 2.33908 0
    endloop
  endfacet
  facet normal -0.351819 -0.790198 0.501807
    outer loop
      vertex -6.22467 1.6168 -1.7
      vertex -5.9 1.47224 -1.7
      vertex -5.4222 2.33908 0
    endloop
  endfacet
  facet normal -0.508423 -0.699783 0.501807
    outer loop
      vertex -4.9649 2.0119 0
      vertex -5.40417 2.33105 0
      vertex -5.9 1.47224 -1.7
    endloop
  endfacet
  facet normal -0.508422 -0.699783 0.501807
    outer loop
      vertex -5.61248 1.26335 -1.7
      vertex -4.94892 2.0003 0
      vertex -4.9649 2.0119 0
    endloop
  endfacet
  facet normal -0.508422 -0.699783 0.501807
    outer loop
      vertex -5.9 1.47224 -1.7
      vertex -5.61248 1.26335 -1.7
      vertex -4.9649 2.0119 0
    endloop
  endfacet
  facet normal -0.642805 -0.578784 0.501807
    outer loop
      vertex -4.58561 1.59679 0
      vertex -4.94892 2.0003 0
      vertex -5.61248 1.26335 -1.7
    endloop
  endfacet
  facet normal -0.642805 -0.578785 0.501807
    outer loop
      vertex -4.5724 1.58212 0
      vertex -4.58561 1.59679 0
      vertex -5.37467 0.999235 -1.7
    endloop
  endfacet
  facet normal -0.642805 -0.578785 0.501807
    outer loop
      vertex -5.37467 0.999235 -1.7
      vertex -4.58561 1.59679 0
      vertex -5.61248 1.26335 -1.7
    endloop
  endfacet
  facet normal -0.749094 -0.43249 0.501807
    outer loop
      vertex -4.30091 1.1119 0
      vertex -4.5724 1.58212 0
      vertex -5.37467 0.999235 -1.7
    endloop
  endfacet
  facet normal -0.749095 -0.432489 0.501807
    outer loop
      vertex -4.29104 1.0948 0
      vertex -4.30091 1.1119 0
      vertex -5.19697 0.691452 -1.7
    endloop
  endfacet
  facet normal -0.749095 -0.432489 0.501807
    outer loop
      vertex -5.19697 0.691452 -1.7
      vertex -4.30091 1.1119 0
      vertex -5.37467 0.999235 -1.7
    endloop
  endfacet
  facet normal -0.822644 -0.267293 0.501807
    outer loop
      vertex -4.12325 0.578407 0
      vertex -4.29104 1.0948 0
      vertex -5.19697 0.691452 -1.7
    endloop
  endfacet
  facet normal -0.822644 -0.267294 0.501807
    outer loop
      vertex -4.11715 0.559629 0
      vertex -4.12325 0.578407 0
      vertex -5.08715 0.35345 -1.7
    endloop
  endfacet
  facet normal -0.822644 -0.267294 0.501807
    outer loop
      vertex -5.08715 0.35345 -1.7
      vertex -4.12325 0.578407 0
      vertex -5.19697 0.691452 -1.7
    endloop
  endfacet
  facet normal -0.860241 -0.0904149 0.501807
    outer loop
      vertex -4.0604 0.0196361 0
      vertex -4.11715 0.559629 0
      vertex -5.08715 0.35345 -1.7
    endloop
  endfacet
  facet normal -0.860241 -0.0904148 0.501807
    outer loop
      vertex -4.05833 0 0
      vertex -4.0604 0.0196361 0
      vertex -5.05 0 -1.7
    endloop
  endfacet
  facet normal -0.860241 -0.0904148 0.501807
    outer loop
      vertex -5.05 0 -1.7
      vertex -4.0604 0.0196361 0
      vertex -5.08715 0.35345 -1.7
    endloop
  endfacet
  facet normal -0.860241 0.0904148 0.501807
    outer loop
      vertex -4.11509 -0.539993 0
      vertex -5.05 0 -1.7
      vertex -4.11715 -0.559629 0
    endloop
  endfacet
  facet normal -0.860241 0.0904148 0.501807
    outer loop
      vertex -4.11715 -0.559629 0
      vertex -5.05 0 -1.7
      vertex -5.08715 -0.35345 -1.7
    endloop
  endfacet
  facet normal -0.860241 0.0904149 0.501807
    outer loop
      vertex -4.11509 -0.539993 0
      vertex -4.05833 0 0
      vertex -5.05 0 -1.7
    endloop
  endfacet
  facet normal -0.822644 0.267294 0.501807
    outer loop
      vertex -4.28494 -1.07602 0
      vertex -5.08715 -0.35345 -1.7
      vertex -4.29104 -1.0948 0
    endloop
  endfacet
  facet normal -0.822644 0.267294 0.501807
    outer loop
      vertex -4.29104 -1.0948 0
      vertex -5.08715 -0.35345 -1.7
      vertex -5.19697 -0.691452 -1.7
    endloop
  endfacet
  facet normal -0.822644 0.267293 0.501807
    outer loop
      vertex -4.28494 -1.07602 0
      vertex -4.11715 -0.559629 0
      vertex -5.08715 -0.35345 -1.7
    endloop
  endfacet
  facet normal -0.749095 0.432489 0.501807
    outer loop
      vertex -4.56252 -1.56502 0
      vertex -5.19697 -0.691452 -1.7
      vertex -4.5724 -1.58212 0
    endloop
  endfacet
  facet normal -0.749095 0.432489 0.501807
    outer loop
      vertex -4.5724 -1.58212 0
      vertex -5.19697 -0.691452 -1.7
      vertex -5.37467 -0.999235 -1.7
    endloop
  endfacet
  facet normal -0.749094 0.43249 0.501807
    outer loop
      vertex -4.56252 -1.56502 0
      vertex -4.29104 -1.0948 0
      vertex -5.19697 -0.691452 -1.7
    endloop
  endfacet
  facet normal -0.642805 0.578785 0.501807
    outer loop
      vertex -4.93571 -1.98563 0
      vertex -5.37467 -0.999235 -1.7
      vertex -4.94892 -2.0003 0
    endloop
  endfacet
  facet normal -0.642805 0.578785 0.501807
    outer loop
      vertex -4.94892 -2.0003 0
      vertex -5.37467 -0.999235 -1.7
      vertex -5.61248 -1.26335 -1.7
    endloop
  endfacet
  facet normal -0.642805 0.578785 0.501807
    outer loop
      vertex -4.93571 -1.98563 0
      vertex -4.5724 -1.58212 0
      vertex -5.37467 -0.999235 -1.7
    endloop
  endfacet
  facet normal -0.508422 0.699783 0.501807
    outer loop
      vertex -5.38819 -2.31945 0
      vertex -5.61248 -1.26335 -1.7
      vertex -5.40417 -2.33105 0
    endloop
  endfacet
  facet normal -0.508422 0.699783 0.501807
    outer loop
      vertex -5.40417 -2.33105 0
      vertex -5.61248 -1.26335 -1.7
      vertex -5.9 -1.47224 -1.7
    endloop
  endfacet
  facet normal -0.508423 0.699783 0.501807
    outer loop
      vertex -5.38819 -2.31945 0
      vertex -4.94892 -2.0003 0
      vertex -5.61248 -1.26335 -1.7
    endloop
  endfacet
  facet normal -0.351819 0.790198 0.501807
    outer loop
      vertex -5.90019 -2.5519 0
      vertex -5.9 -1.47224 -1.7
      vertex -5.91823 -2.55993 0
    endloop
  endfacet
  facet normal -0.351819 0.790198 0.501807
    outer loop
      vertex -5.91823 -2.55993 0
      vertex -5.9 -1.47224 -1.7
      vertex -6.22467 -1.6168 -1.7
    endloop
  endfacet
  facet normal -0.351818 0.790198 0.501807
    outer loop
      vertex -5.40417 -2.33105 0
      vertex -5.9 -1.47224 -1.7
      vertex -5.90019 -2.5519 0
    endloop
  endfacet
  facet normal -0.179839 0.846078 0.501807
    outer loop
      vertex -6.44933 -2.67282 0
      vertex -6.22467 -1.6168 -1.7
      vertex -6.46864 -2.67692 0
    endloop
  endfacet
  facet normal -0.179839 0.846078 0.501807
    outer loop
      vertex -6.46864 -2.67692 0
      vertex -6.22467 -1.6168 -1.7
      vertex -6.5723 -1.69069 -1.7
    endloop
  endfacet
  facet normal -0.179839 0.846078 0.501807
    outer loop
      vertex -5.91823 -2.55993 0
      vertex -6.22467 -1.6168 -1.7
      vertex -6.44933 -2.67282 0
    endloop
  endfacet
  facet normal 0 0.864979 0.501807
    outer loop
      vertex -6.5723 -1.69069 -1.7
      vertex -6.9277 -1.69069 -1.7
      vertex -6.46864 -2.67692 0
    endloop
  endfacet
  facet normal 0 0.864979 0.501807
    outer loop
      vertex -6.46864 -2.67692 0
      vertex -6.9277 -1.69069 -1.7
      vertex -7.03136 -2.67692 0
    endloop
  endfacet
  facet normal 0.179839 0.846078 0.501807
    outer loop
      vertex -6.9277 -1.69069 -1.7
      vertex -7.27533 -1.6168 -1.7
      vertex -7.56246 -2.56403 0
    endloop
  endfacet
  facet normal 0.179839 0.846078 0.501807
    outer loop
      vertex -7.56246 -2.56403 0
      vertex -7.27533 -1.6168 -1.7
      vertex -7.58177 -2.55993 0
    endloop
  endfacet
  facet normal 0.179839 0.846078 0.501807
    outer loop
      vertex -7.03136 -2.67692 0
      vertex -6.9277 -1.69069 -1.7
      vertex -7.56246 -2.56403 0
    endloop
  endfacet
  facet normal 0.351819 0.790198 0.501807
    outer loop
      vertex -7.27533 -1.6168 -1.7
      vertex -7.6 -1.47224 -1.7
      vertex -8.0778 -2.33908 0
    endloop
  endfacet
  facet normal 0.351819 0.790198 0.501807
    outer loop
      vertex -8.0778 -2.33908 0
      vertex -7.6 -1.47224 -1.7
      vertex -8.09583 -2.33105 0
    endloop
  endfacet
  facet normal 0.351818 0.790198 0.501807
    outer loop
      vertex -7.58177 -2.55993 0
      vertex -7.27533 -1.6168 -1.7
      vertex -8.0778 -2.33908 0
    endloop
  endfacet
  facet normal 0.508422 0.699783 0.501807
    outer loop
      vertex -7.6 -1.47224 -1.7
      vertex -7.88752 -1.26335 -1.7
      vertex -8.5351 -2.0119 0
    endloop
  endfacet
  facet normal 0.508422 0.699783 0.501807
    outer loop
      vertex -8.5351 -2.0119 0
      vertex -7.88752 -1.26335 -1.7
      vertex -8.55108 -2.0003 0
    endloop
  endfacet
  facet normal 0.508423 0.699783 0.501807
    outer loop
      vertex -8.09583 -2.33105 0
      vertex -7.6 -1.47224 -1.7
      vertex -8.5351 -2.0119 0
    endloop
  endfacet
  facet normal 0.642805 0.578785 0.501807
    outer loop
      vertex -8.91439 -1.59679 0
      vertex -7.88752 -1.26335 -1.7
      vertex -8.12533 -0.999235 -1.7
    endloop
  endfacet
  facet normal 0.642805 0.578785 0.501807
    outer loop
      vertex -8.9276 -1.58212 0
      vertex -8.91439 -1.59679 0
      vertex -8.12533 -0.999235 -1.7
    endloop
  endfacet
  facet normal 0.642805 0.578784 0.501807
    outer loop
      vertex -8.55108 -2.0003 0
      vertex -7.88752 -1.26335 -1.7
      vertex -8.91439 -1.59679 0
    endloop
  endfacet
  facet normal 0.749095 0.432489 0.501807
    outer loop
      vertex -9.19909 -1.1119 0
      vertex -8.12533 -0.999235 -1.7
      vertex -8.30303 -0.691452 -1.7
    endloop
  endfacet
  facet normal 0.749095 0.432489 0.501807
    outer loop
      vertex -9.20896 -1.0948 0
      vertex -9.19909 -1.1119 0
      vertex -8.30303 -0.691452 -1.7
    endloop
  endfacet
  facet normal 0.749094 0.43249 0.501807
    outer loop
      vertex -8.9276 -1.58212 0
      vertex -8.12533 -0.999235 -1.7
      vertex -9.19909 -1.1119 0
    endloop
  endfacet
  facet normal 0.822644 0.267293 0.501807
    outer loop
      vertex -9.20896 -1.0948 0
      vertex -8.30303 -0.691452 -1.7
      vertex -9.37675 -0.578407 0
    endloop
  endfacet
  facet normal 0 0 -1
    outer loop
      vertex 6.22467 1.6168 1.5
      vertex 3.9067 1.64158 1.5
      vertex 6.5723 1.69069 1.5
    endloop
  endfacet
  facet normal 0 0 -1
    outer loop
      vertex 8.30303 -0.691452 1.5
      vertex 9.5933 1.64158 1.5
      vertex 9.5933 -1.64158 1.5
    endloop
  endfacet
  facet normal 0 0 -1
    outer loop
      vertex 6.9277 -1.69069 1.5
      vertex 9.5933 -1.64158 1.5
      vertex 6.75 -3.28316 1.5
    endloop
  endfacet
  facet normal 0 0 -1
    outer loop
      vertex 5.37467 -0.999235 1.5
      vertex 6.75 -3.28316 1.5
      vertex 3.9067 -1.64158 1.5
    endloop
  endfacet
  facet normal 0 0 -1
    outer loop
      vertex 8.30303 -0.691452 1.5
      vertex 9.5933 -1.64158 1.5
      vertex 8.12533 -0.999235 1.5
    endloop
  endfacet
  facet normal 0 0 -1
    outer loop
      vertex 5.61248 -1.26335 1.5
      vertex 6.75 -3.28316 1.5
      vertex 5.37467 -0.999235 1.5
    endloop
  endfacet
  facet normal 0 0 -1
    outer loop
      vertex 3.9067 1.64158 1.5
      vertex 5.19697 -0.691452 1.5
      vertex 3.9067 -1.64158 1.5
    endloop
  endfacet
  facet normal 0 0 -1
    outer loop
      vertex 5.19697 -0.691452 1.5
      vertex 5.37467 -0.999235 1.5
      vertex 3.9067 -1.64158 1.5
    endloop
  endfacet
  facet normal 0 0 -1
    outer loop
      vertex 8.12533 -0.999235 1.5
      vertex 9.5933 -1.64158 1.5
      vertex 7.88752 -1.26335 1.5
    endloop
  endfacet
  facet normal 0 0 -1
    outer loop
      vertex 7.27533 -1.6168 1.5
      vertex 9.5933 -1.64158 1.5
      vertex 6.9277 -1.69069 1.5
    endloop
  endfacet
  facet normal 0 0 -1
    outer loop
      vertex 7.88752 -1.26335 1.5
      vertex 9.5933 -1.64158 1.5
      vertex 7.6 -1.47224 1.5
    endloop
  endfacet
  facet normal 0 0 -1
    outer loop
      vertex 5.61248 -1.26335 1.5
      vertex 5.9 -1.47224 1.5
      vertex 6.75 -3.28316 1.5
    endloop
  endfacet
  facet normal 0 0 -1
    outer loop
      vertex 7.6 -1.47224 1.5
      vertex 9.5933 -1.64158 1.5
      vertex 7.27533 -1.6168 1.5
    endloop
  endfacet
  facet normal 0 0 -1
    outer loop
      vertex 5.9 -1.47224 1.5
      vertex 6.22467 -1.6168 1.5
      vertex 6.75 -3.28316 1.5
    endloop
  endfacet
  facet normal 0 0 -1
    outer loop
      vertex 6.22467 -1.6168 1.5
      vertex 6.5723 -1.69069 1.5
      vertex 6.75 -3.28316 1.5
    endloop
  endfacet
  facet normal 0 0 -1
    outer loop
      vertex 6.5723 -1.69069 1.5
      vertex 6.9277 -1.69069 1.5
      vertex 6.75 -3.28316 1.5
    endloop
  endfacet
  facet normal 0 0 -1
    outer loop
      vertex 8.41285 -0.35345 1.5
      vertex 9.5933 1.64158 1.5
      vertex 8.30303 -0.691452 1.5
    endloop
  endfacet
  facet normal 0 0 -1
    outer loop
      vertex 6.9277 1.69069 1.5
      vertex 9.5933 1.64158 1.5
      vertex 7.27533 1.6168 1.5
    endloop
  endfacet
  facet normal 0 0 -1
    outer loop
      vertex 8.45 0 1.5
      vertex 9.5933 1.64158 1.5
      vertex 8.41285 -0.35345 1.5
    endloop
  endfacet
  facet normal 0 0 -1
    outer loop
      vertex 8.41285 0.35345 1.5
      vertex 9.5933 1.64158 1.5
      vertex 8.45 0 1.5
    endloop
  endfacet
  facet normal 0 0 -1
    outer loop
      vertex 8.30303 0.691452 1.5
      vertex 9.5933 1.64158 1.5
      vertex 8.41285 0.35345 1.5
    endloop
  endfacet
  facet normal 0 0 -1
    outer loop
      vertex 8.12533 0.999235 1.5
      vertex 9.5933 1.64158 1.5
      vertex 8.30303 0.691452 1.5
    endloop
  endfacet
  facet normal 0 0 -1
    outer loop
      vertex 7.88752 1.26335 1.5
      vertex 9.5933 1.64158 1.5
      vertex 8.12533 0.999235 1.5
    endloop
  endfacet
  facet normal 0 0 -1
    outer loop
      vertex 7.6 1.47224 1.5
      vertex 9.5933 1.64158 1.5
      vertex 7.88752 1.26335 1.5
    endloop
  endfacet
  facet normal 0 0 -1
    outer loop
      vertex 7.27533 1.6168 1.5
      vertex 9.5933 1.64158 1.5
      vertex 7.6 1.47224 1.5
    endloop
  endfacet
  facet normal 0 0 -1
    outer loop
      vertex 6.75 3.28316 1.5
      vertex 9.5933 1.64158 1.5
      vertex 6.9277 1.69069 1.5
    endloop
  endfacet
  facet normal 0 0 -1
    outer loop
      vertex 6.75 3.28316 1.5
      vertex 6.9277 1.69069 1.5
      vertex 6.5723 1.69069 1.5
    endloop
  endfacet
  facet normal 0 0 -1
    outer loop
      vertex 6.75 3.28316 1.5
      vertex 6.5723 1.69069 1.5
      vertex 3.9067 1.64158 1.5
    endloop
  endfacet
  facet normal 0 0 -1
    outer loop
      vertex 5.9 1.47224 1.5
      vertex 3.9067 1.64158 1.5
      vertex 6.22467 1.6168 1.5
    endloop
  endfacet
  facet normal 0 0 -1
    outer loop
      vertex 5.61248 1.26335 1.5
      vertex 3.9067 1.64158 1.5
      vertex 5.9 1.47224 1.5
    endloop
  endfacet
  facet normal 0 0 -1
    outer loop
      vertex 5.37467 0.999235 1.5
      vertex 3.9067 1.64158 1.5
      vertex 5.61248 1.26335 1.5
    endloop
  endfacet
  facet normal 0 0 -1
    outer loop
      vertex 5.19697 0.691452 1.5
      vertex 3.9067 1.64158 1.5
      vertex 5.37467 0.999235 1.5
    endloop
  endfacet
  facet normal 0 0 -1
    outer loop
      vertex 3.9067 1.64158 1.5
      vertex 5.19697 0.691452 1.5
      vertex 5.08715 0.35345 1.5
    endloop
  endfacet
  facet normal 0 0 -1
    outer loop
      vertex 3.9067 1.64158 1.5
      vertex 5.08715 0.35345 1.5
      vertex 5.05 0 1.5
    endloop
  endfacet
  facet normal 0 0 -1
    outer loop
      vertex 3.9067 1.64158 1.5
      vertex 5.05 0 1.5
      vertex 5.08715 -0.35345 1.5
    endloop
  endfacet
  facet normal 0 0 -1
    outer loop
      vertex 5.19697 -0.691452 1.5
      vertex 3.9067 1.64158 1.5
      vertex 5.08715 -0.35345 1.5
    endloop
  endfacet
  facet normal 0.951056 0.309018 0
    outer loop
      vertex 5.08715 -0.35345 3.5
      vertex 5.19697 -0.691452 3.5
      vertex 5.19697 -0.691452 1.5
    endloop
  endfacet
  facet normal 0.951056 0.309018 0
    outer loop
      vertex 5.08715 -0.35345 1.5
      vertex 5.08715 -0.35345 3.5
      vertex 5.19697 -0.691452 1.5
    endloop
  endfacet
  facet normal 0.994522 0.104528 0
    outer loop
      vertex 5.05 0 3.5
      vertex 5.08715 -0.35345 3.5
      vertex 5.08715 -0.35345 1.5
    endloop
  endfacet
  facet normal 0.994522 0.104528 0
    outer loop
      vertex 5.05 0 1.5
      vertex 5.05 0 3.5
      vertex 5.08715 -0.35345 1.5
    endloop
  endfacet
  facet normal 0.866026 0.499999 0
    outer loop
      vertex 5.19697 -0.691452 3.5
      vertex 5.37467 -0.999235 3.5
      vertex 5.37467 -0.999235 1.5
    endloop
  endfacet
  facet normal 0.866026 0.499999 0
    outer loop
      vertex 5.19697 -0.691452 1.5
      vertex 5.19697 -0.691452 3.5
      vertex 5.37467 -0.999235 1.5
    endloop
  endfacet
  facet normal 0.743144 0.669131 0
    outer loop
      vertex 5.37467 -0.999235 3.5
      vertex 5.61248 -1.26335 3.5
      vertex 5.61248 -1.26335 1.5
    endloop
  endfacet
  facet normal 0.743144 0.669131 0
    outer loop
      vertex 5.37467 -0.999235 1.5
      vertex 5.37467 -0.999235 3.5
      vertex 5.61248 -1.26335 1.5
    endloop
  endfacet
  facet normal 0.587785 0.809017 0
    outer loop
      vertex 5.9 -1.47224 3.5
      vertex 5.9 -1.47224 1.5
      vertex 5.61248 -1.26335 3.5
    endloop
  endfacet
  facet normal 0.587785 0.809017 0
    outer loop
      vertex 5.61248 -1.26335 3.5
      vertex 5.9 -1.47224 1.5
      vertex 5.61248 -1.26335 1.5
    endloop
  endfacet
  facet normal 0.406737 0.913545 0
    outer loop
      vertex 6.22467 -1.6168 3.5
      vertex 6.22467 -1.6168 1.5
      vertex 5.9 -1.47224 3.5
    endloop
  endfacet
  facet normal 0.406737 0.913545 0
    outer loop
      vertex 5.9 -1.47224 3.5
      vertex 6.22467 -1.6168 1.5
      vertex 5.9 -1.47224 1.5
    endloop
  endfacet
  facet normal 0.207911 0.978148 0
    outer loop
      vertex 6.5723 -1.69069 3.5
      vertex 6.5723 -1.69069 1.5
      vertex 6.22467 -1.6168 3.5
    endloop
  endfacet
  facet normal 0.207911 0.978148 0
    outer loop
      vertex 6.22467 -1.6168 3.5
      vertex 6.5723 -1.69069 1.5
      vertex 6.22467 -1.6168 1.5
    endloop
  endfacet
  facet normal 0 1 0
    outer loop
      vertex 6.9277 -1.69069 3.5
      vertex 6.9277 -1.69069 1.5
      vertex 6.5723 -1.69069 3.5
    endloop
  endfacet
  facet normal 0 1 0
    outer loop
      vertex 6.5723 -1.69069 3.5
      vertex 6.9277 -1.69069 1.5
      vertex 6.5723 -1.69069 1.5
    endloop
  endfacet
  facet normal -0.207911 0.978148 0
    outer loop
      vertex 7.27533 -1.6168 3.5
      vertex 7.27533 -1.6168 1.5
      vertex 6.9277 -1.69069 3.5
    endloop
  endfacet
  facet normal -0.207911 0.978148 0
    outer loop
      vertex 6.9277 -1.69069 3.5
      vertex 7.27533 -1.6168 1.5
      vertex 6.9277 -1.69069 1.5
    endloop
  endfacet
  facet normal -0.406737 0.913545 0
    outer loop
      vertex 7.6 -1.47224 3.5
      vertex 7.6 -1.47224 1.5
      vertex 7.27533 -1.6168 3.5
    endloop
  endfacet
  facet normal -0.406737 0.913545 0
    outer loop
      vertex 7.27533 -1.6168 3.5
      vertex 7.6 -1.47224 1.5
      vertex 7.27533 -1.6168 1.5
    endloop
  endfacet
  facet normal -0.587785 0.809017 0
    outer loop
      vertex 7.88752 -1.26335 3.5
      vertex 7.88752 -1.26335 1.5
      vertex 7.6 -1.47224 3.5
    endloop
  endfacet
  facet normal -0.587785 0.809017 0
    outer loop
      vertex 7.6 -1.47224 3.5
      vertex 7.88752 -1.26335 1.5
      vertex 7.6 -1.47224 1.5
    endloop
  endfacet
  facet normal -0.743144 0.669131 0
    outer loop
      vertex 8.12533 -0.999235 3.5
      vertex 8.12533 -0.999235 1.5
      vertex 7.88752 -1.26335 3.5
    endloop
  endfacet
  facet normal -0.743144 0.669131 0
    outer loop
      vertex 7.88752 -1.26335 3.5
      vertex 8.12533 -0.999235 1.5
      vertex 7.88752 -1.26335 1.5
    endloop
  endfacet
  facet normal -0.866026 0.499999 0
    outer loop
      vertex 8.30303 -0.691452 3.5
      vertex 8.30303 -0.691452 1.5
      vertex 8.12533 -0.999235 3.5
    endloop
  endfacet
  facet normal -0.866026 0.499999 0
    outer loop
      vertex 8.12533 -0.999235 3.5
      vertex 8.30303 -0.691452 1.5
      vertex 8.12533 -0.999235 1.5
    endloop
  endfacet
  facet normal -0.951056 0.309018 0
    outer loop
      vertex 8.41285 -0.35345 3.5
      vertex 8.41285 -0.35345 1.5
      vertex 8.30303 -0.691452 3.5
    endloop
  endfacet
  facet normal -0.951056 0.309018 0
    outer loop
      vertex 8.30303 -0.691452 3.5
      vertex 8.41285 -0.35345 1.5
      vertex 8.30303 -0.691452 1.5
    endloop
  endfacet
  facet normal -0.994522 0.104528 0
    outer loop
      vertex 8.45 0 3.5
      vertex 8.45 0 1.5
      vertex 8.41285 -0.35345 3.5
    endloop
  endfacet
  facet normal -0.994522 0.104528 0
    outer loop
      vertex 8.41285 -0.35345 3.5
      vertex 8.45 0 1.5
      vertex 8.41285 -0.35345 1.5
    endloop
  endfacet
  facet normal -0.994522 -0.104528 0
    outer loop
      vertex 8.45 0 3.5
      vertex 8.41285 0.35345 3.5
      vertex 8.45 0 1.5
    endloop
  endfacet
  facet normal -0.994522 -0.104528 0
    outer loop
      vertex 8.45 0 1.5
      vertex 8.41285 0.35345 3.5
      vertex 8.41285 0.35345 1.5
    endloop
  endfacet
  facet normal -0.951056 -0.309018 0
    outer loop
      vertex 8.41285 0.35345 3.5
      vertex 8.30303 0.691452 3.5
      vertex 8.41285 0.35345 1.5
    endloop
  endfacet
  facet normal -0.951056 -0.309018 0
    outer loop
      vertex 8.41285 0.35345 1.5
      vertex 8.30303 0.691452 3.5
      vertex 8.30303 0.691452 1.5
    endloop
  endfacet
  facet normal -0.866026 -0.499999 0
    outer loop
      vertex 8.30303 0.691452 3.5
      vertex 8.12533 0.999235 3.5
      vertex 8.30303 0.691452 1.5
    endloop
  endfacet
  facet normal -0.866026 -0.499999 0
    outer loop
      vertex 8.30303 0.691452 1.5
      vertex 8.12533 0.999235 3.5
      vertex 8.12533 0.999235 1.5
    endloop
  endfacet
  facet normal -0.743144 -0.669131 0
    outer loop
      vertex 8.12533 0.999235 3.5
      vertex 7.88752 1.26335 3.5
      vertex 8.12533 0.999235 1.5
    endloop
  endfacet
  facet normal -0.743144 -0.669131 0
    outer loop
      vertex 8.12533 0.999235 1.5
      vertex 7.88752 1.26335 3.5
      vertex 7.88752 1.26335 1.5
    endloop
  endfacet
  facet normal -0.587785 -0.809017 0
    outer loop
      vertex 7.88752 1.26335 1.5
      vertex 7.88752 1.26335 3.5
      vertex 7.6 1.47224 3.5
    endloop
  endfacet
  facet normal -0.587785 -0.809017 0
    outer loop
      vertex 7.6 1.47224 1.5
      vertex 7.88752 1.26335 1.5
      vertex 7.6 1.47224 3.5
    endloop
  endfacet
  facet normal -0.406737 -0.913545 0
    outer loop
      vertex 7.6 1.47224 1.5
      vertex 7.6 1.47224 3.5
      vertex 7.27533 1.6168 3.5
    endloop
  endfacet
  facet normal -0.406737 -0.913545 0
    outer loop
      vertex 7.27533 1.6168 1.5
      vertex 7.6 1.47224 1.5
      vertex 7.27533 1.6168 3.5
    endloop
  endfacet
  facet normal -0.207911 -0.978148 0
    outer loop
      vertex 7.27533 1.6168 1.5
      vertex 7.27533 1.6168 3.5
      vertex 6.9277 1.69069 3.5
    endloop
  endfacet
  facet normal -0.207911 -0.978148 0
    outer loop
      vertex 6.9277 1.69069 1.5
      vertex 7.27533 1.6168 1.5
      vertex 6.9277 1.69069 3.5
    endloop
  endfacet
  facet normal 0 -1 0
    outer loop
      vertex 6.9277 1.69069 1.5
      vertex 6.9277 1.69069 3.5
      vertex 6.5723 1.69069 3.5
    endloop
  endfacet
  facet normal 0 -1 0
    outer loop
      vertex 6.5723 1.69069 1.5
      vertex 6.9277 1.69069 1.5
      vertex 6.5723 1.69069 3.5
    endloop
  endfacet
  facet normal 0.207911 -0.978148 0
    outer loop
      vertex 6.5723 1.69069 1.5
      vertex 6.5723 1.69069 3.5
      vertex 6.22467 1.6168 3.5
    endloop
  endfacet
  facet normal 0.207911 -0.978148 0
    outer loop
      vertex 6.22467 1.6168 1.5
      vertex 6.5723 1.69069 1.5
      vertex 6.22467 1.6168 3.5
    endloop
  endfacet
  facet normal 0.406737 -0.913545 0
    outer loop
      vertex 6.22467 1.6168 1.5
      vertex 6.22467 1.6168 3.5
      vertex 5.9 1.47224 3.5
    endloop
  endfacet
  facet normal 0.406737 -0.913545 0
    outer loop
      vertex 5.9 1.47224 1.5
      vertex 6.22467 1.6168 1.5
      vertex 5.9 1.47224 3.5
    endloop
  endfacet
  facet normal 0.587785 -0.809017 0
    outer loop
      vertex 5.9 1.47224 1.5
      vertex 5.9 1.47224 3.5
      vertex 5.61248 1.26335 3.5
    endloop
  endfacet
  facet normal 0.587785 -0.809017 0
    outer loop
      vertex 5.61248 1.26335 1.5
      vertex 5.9 1.47224 1.5
      vertex 5.61248 1.26335 3.5
    endloop
  endfacet
  facet normal 0.743144 -0.669131 0
    outer loop
      vertex 5.61248 1.26335 1.5
      vertex 5.61248 1.26335 3.5
      vertex 5.37467 0.999235 3.5
    endloop
  endfacet
  facet normal 0.743144 -0.669131 0
    outer loop
      vertex 5.37467 0.999235 1.5
      vertex 5.61248 1.26335 1.5
      vertex 5.37467 0.999235 3.5
    endloop
  endfacet
  facet normal 0.866026 -0.499999 0
    outer loop
      vertex 5.37467 0.999235 1.5
      vertex 5.37467 0.999235 3.5
      vertex 5.19697 0.691452 3.5
    endloop
  endfacet
  facet normal 0.866026 -0.499999 0
    outer loop
      vertex 5.19697 0.691452 1.5
      vertex 5.37467 0.999235 1.5
      vertex 5.19697 0.691452 3.5
    endloop
  endfacet
  facet normal 0.951056 -0.309018 0
    outer loop
      vertex 5.19697 0.691452 1.5
      vertex 5.19697 0.691452 3.5
      vertex 5.08715 0.35345 3.5
    endloop
  endfacet
  facet normal 0.951056 -0.309018 0
    outer loop
      vertex 5.08715 0.35345 1.5
      vertex 5.19697 0.691452 1.5
      vertex 5.08715 0.35345 3.5
    endloop
  endfacet
  facet normal 0.994522 -0.104528 0
    outer loop
      vertex 5.08715 0.35345 1.5
      vertex 5.08715 0.35345 3.5
      vertex 5.05 0 3.5
    endloop
  endfacet
  facet normal 0.994522 -0.104528 0
    outer loop
      vertex 5.05 0 1.5
      vertex 5.08715 0.35345 1.5
      vertex 5.05 0 3.5
    endloop
  endfacet
endsolid OpenSCAD_Model
